<?xml version="1.0" standalone="no"?>
<!DOCTYPE svg PUBLIC "-//W3C//DTD SVG 1.1//EN" "http://www.w3.org/Graphics/SVG/1.1/DTD/svg11.dtd" >
<svg xmlns="http://www.w3.org/2000/svg" xmlns:xlink="http://www.w3.org/1999/xlink" version="1.1">
<metadata>
Created by FontForge 20200511 at Wed Oct 10 07:03:56 2018
 By convertio
Copyright (c) 2018 by Gimeno Gra`fic. All rights reserved.

This font is for the exclusive use of the company Roca Sanitario, S.A - http://www.roca.com
</metadata>
<defs>
<font id="Roca-LightItalic" horiz-adv-x="504" >
  <font-face 
    font-family="Roca Light"
    font-weight="300"
    font-style="italic"
    font-stretch="normal"
    units-per-em="1000"
    panose-1="2 0 5 9 0 0 0 2 0 4"
    ascent="777"
    descent="-223"
    x-height="446"
    cap-height="628"
    bbox="-191 -246 1096.93 983"
    underline-thickness="0"
    underline-position="0"
    slope="-10"
    unicode-range="U+000D-F8FF"
  />
<missing-glyph horiz-adv-x="485" 
d="M30 0l111 628h321l-111 -628h-321zM196 584l59 -221l136 221h-195zM167 541l-80 -450l139 226zM267 317l59 -223l78 445zM99 44h199l-59 226z" />
    <glyph glyph-name="Lgeminada" unicode="L&#xb7;L" horiz-adv-x="960" 
d="M114 46h300l-8 -46h-374l110 628h74zM594 46h300l-8 -46h-374l110 628h74zM407 291h-95l13 77h96z" />
    <glyph glyph-name="lgeminada" unicode="l&#xb7;l" horiz-adv-x="468" 
d="M92 0h-70l111 628l73 17zM343 0h-70l111 628l73 17zM279 291h-95l13 77h96z" />
    <glyph glyph-name=".notdef" horiz-adv-x="485" 
d="M30 0l111 628h321l-111 -628h-321zM196 584l59 -221l136 221h-195zM167 541l-80 -450l139 226zM267 317l59 -223l78 445zM99 44h199l-59 226z" />
    <glyph glyph-name="Eth" unicode="&#xd0;" horiz-adv-x="629" 
d="M41 346h57l49 282h204q142 0 200.5 -79t30.5 -236q-28 -156 -113.5 -234.5t-227.5 -78.5h-204l53 300h-57zM119 46h129q104 0 169 67t89 200q23 134 -18.5 201.5t-145.5 67.5h-129l-41 -236h153l-8 -46h-153z" />
    <glyph glyph-name="eth" unicode="&#xf0;" horiz-adv-x="571" 
d="M222 -14q-108 0 -159.5 58t-33.5 160q16 87 80 136.5t162 49.5q57 0 100.5 -21.5t62.5 -66.5q9 51 11.5 94t-1.5 75l-128 -42l-7 44l125 41q-15 42 -48.5 62t-86.5 20q-38 0 -75 -6.5t-76 -22.5l-3 39q43 17 82 26.5t80 9.5q72 0 121 -26.5t73 -78.5l106 35l7 -44
l-99 -33q10 -42 10 -96t-12 -120q-28 -157 -103.5 -225t-187.5 -68zM273 336q-67 0 -112.5 -39t-57.5 -106q-13 -74 21.5 -116.5t106.5 -42.5t120.5 42.5t61.5 116.5q12 67 -25.5 106t-114.5 39z" />
    <glyph glyph-name="Lslash" unicode="&#x141;" horiz-adv-x="502" 
d="M136 46h300l-8 -46h-374l49 282l-74 -46l11 62l74 46l50 284h74l-43 -243l108 66l-11 -62l-107 -65z" />
    <glyph glyph-name="lslash" unicode="&#x142;" horiz-adv-x="266" 
d="M119 0h-70l52 292l-74 -45l10 57l74 45l49 279l73 17l-46 -260l76 46l-10 -57l-76 -45z" />
    <glyph glyph-name="Scaron" unicode="&#x160;" horiz-adv-x="520" 
d="M474 820l-104 -109h-83l-65 109h60l52 -68l76 68h64zM284 368q110 -23 153.5 -67t30.5 -119q-16 -90 -91 -143t-187 -53q-53 0 -96.5 13.5t-86.5 38.5l20 42q47 -25 89 -36.5t82 -11.5q78 0 131 36.5t64 99.5q8 46 -23.5 77.5t-129.5 53.5q-102 22 -140.5 62.5
t-27.5 104.5q14 78 84 127t168 49q42 0 84 -11.5t79 -36.5l-22 -39q-31 18 -67 29.5t-79 11.5q-69 0 -117.5 -33t-58.5 -85q-8 -45 24.5 -69t116.5 -41z" />
    <glyph glyph-name="scaron" unicode="&#x161;" horiz-adv-x="419" 
d="M397 638l-104 -107h-84l-65 107h57l57 -66l80 66h59zM135 -14q-37 0 -70.5 9t-65.5 23l18 40q31 -13 62 -19.5t64 -6.5q58 0 96 23.5t45 64.5q5 27 -11 45t-84 33q-97 21 -124 51.5t-17 84.5q10 61 62 93.5t139 32.5q35 0 67.5 -9.5t63.5 -22.5l-20 -40q-29 12 -56.5 19
t-61.5 7q-55 0 -88.5 -20.5t-39.5 -59.5q-4 -22 14 -40.5t81 -31.5q97 -20 125.5 -48.5t18.5 -89.5q-12 -65 -70 -101.5t-148 -36.5z" />
    <glyph glyph-name="Yacute" unicode="&#xdd;" horiz-adv-x="507" 
d="M362 711h-62l100 109h90zM530 628l-240 -338l-51 -290h-74l51 286l-126 342h80l98 -290l198 290h64z" />
    <glyph glyph-name="yacute" unicode="&#xfd;" horiz-adv-x="420" 
d="M281 531h-56l100 107h88zM427 446l-378 -655h-58l146 255l-86 400h77l63 -309l177 309h59z" />
    <glyph glyph-name="Thorn" unicode="&#xde;" horiz-adv-x="577" 
d="M217 628l-23 -128h153q105 0 157 -46.5t37 -128.5q-9 -50 -32.5 -83.5t-70.5 -53.5t-121.5 -29.5t-184.5 -12.5l-26 -146h-74l110 628h75zM329 454h-143l-46 -261q87 3 146.5 11t96.5 23.5t56 40.5t25 62q10 58 -26 91t-109 33z" />
    <glyph glyph-name="thorn" unicode="&#xfe;" horiz-adv-x="510" 
d="M451 218q-21 -118 -79 -175t-157 -57q-28 0 -58 6t-64 19l-38 -220h-70l108 616v0l39 221h70l-33 -186q31 10 61.5 14t61.5 4q101 0 141 -59.5t18 -182.5zM381 219q17 99 -10 147t-101 48q-32 0 -57.5 -8t-53.5 -24l-1 -4l-6 -36v0l-50 -283q31 -13 56.5 -20t45.5 -7
q73 0 116.5 46t60.5 141z" />
    <glyph glyph-name="CR" unicode="&#xd;" horiz-adv-x="215" 
 />
    <glyph glyph-name="Zcaron" unicode="&#x17d;" horiz-adv-x="519" 
d="M492 820l-104 -109h-83l-65 109h60l52 -68l76 68h64zM548 628l-9 -50l-467 -532h365l-8 -46h-458l9 51l471 531h-347l8 46h436z" />
    <glyph glyph-name="zcaron" unicode="&#x17e;" horiz-adv-x="442" 
d="M417 638l-104 -107h-84l-65 107h57l57 -66l80 66h59zM417 388l-342 -342h288l-8 -46h-379l9 48l355 352h-270l8 46h349z" />
    <glyph glyph-name="onehalf" unicode="&#xbd;" horiz-adv-x="685" 
d="M505 628h54l-461 -628h-56zM219 628l-65 -370h-57l57 326h-79l5 28l98 16h41zM642 286q-4 -26 -17.5 -43.5t-23.5 -26.5l-31.5 -28t-68.5 -61.5t-68 -61.5t-32 -28h197l-7 -37h-256l7 43l217 195q10 10 19.5 23t12.5 29q3 19 -17.5 30t-60.5 11q-23 0 -48.5 -6t-50.5 -19
l-2 44q28 13 56.5 21t55.5 8q63 0 94 -24.5t24 -68.5z" />
    <glyph glyph-name="onequarter" unicode="&#xbc;" horiz-adv-x="633" 
d="M219 628l-65 -370h-57l57 326h-79l5 28l98 16h41zM505 628h54l-461 -628h-56zM526 127h45l-8 -44h-45l-15 -83h-56l15 83h-193l6 33l230 255h64zM470 127l35 202l-180 -202h145z" />
    <glyph glyph-name="threequarters" unicode="&#xbe;" horiz-adv-x="731" 
d="M220 457q48 -5 70.5 -29.5t15.5 -63.5q-10 -53 -53 -83t-112 -30q-31 0 -59.5 8.5t-50.5 23.5l17 44q29 -13 55.5 -21t45.5 -8q43 0 69 17.5t31 46.5q6 31 -22.5 48.5t-83.5 17.5h-40l9 50h40q47 0 77 18.5t36 52.5q4 21 -12.5 32.5t-49.5 11.5q-29 0 -55.5 -6t-45.5 -16
l-2 44q25 13 55 20t60 7q57 0 84 -24t20 -67q-6 -35 -32.5 -60t-66.5 -34zM608 628h53l-461 -628h-56zM628 127h45l-8 -44h-44l-15 -83h-56l15 83h-194l6 33l231 255h63zM572 127l36 202l-180 -202h144z" />
    <glyph glyph-name="brokenbar" unicode="&#xa6;" horiz-adv-x="235" 
d="M152 285h-73l61 343h73zM58 166h73l-66 -375h-73z" />
    <glyph glyph-name="minus" unicode="&#x2212;" horiz-adv-x="394" 
d="M314 205h-265l8 46h265z" />
    <glyph glyph-name="multiply" unicode="&#xd7;" horiz-adv-x="428" 
d="M15 94l147 127l-100 128l47 42l101 -128l140 120l32 -43l-137 -121l94 -119l-49 -41l-93 118l-147 -129z" />
    <glyph glyph-name="space" unicode=" " horiz-adv-x="215" 
 />
    <glyph glyph-name="exclam" unicode="!" horiz-adv-x="242" 
d="M132 628h95l-98 -451h-59zM116 0h-94l13 77h95z" />
    <glyph glyph-name="quotedbl" unicode="&#x22;" horiz-adv-x="329" 
d="M153 450h-58l13 178h94zM289 450h-59l15 178h93z" />
    <glyph glyph-name="numbersign" unicode="#" horiz-adv-x="577" 
d="M563 417h-118l-60 -179h120l-18 -50h-120l-61 -188h-51l62 188h-133l-63 -188h-51l63 188h-124l17 50h124l60 179h-125l18 50h124l53 161h51l-54 -161h135l53 161h50l-54 -161h119zM335 238l60 179h-136l-59 -179h135z" />
    <glyph glyph-name="dollar" unicode="$" horiz-adv-x="507" 
d="M467 184q-13 -77 -75 -129t-153 -65l-17 -95h-71l16 91q-45 0 -84 15t-75 37l21 42q39 -20 78.5 -34.5t82.5 -14.5q81 0 136 37.5t66 102.5q8 44 -25 74.5t-134 52.5q-99 21 -135.5 61.5t-25.5 103.5q13 71 69 118.5t141 57.5l18 101h71l-18 -102q37 -4 71 -15t63 -30
l-23 -43q-34 20 -71.5 31t-80.5 11q-69 0 -113.5 -31.5t-54.5 -85.5q-8 -43 22.5 -67.5t109.5 -40.5q115 -24 159.5 -65.5t31.5 -117.5z" />
    <glyph glyph-name="percent" unicode="%" horiz-adv-x="788" 
d="M238 642q69 0 99 -43t17 -121q-13 -77 -59 -120t-115 -43t-99 43t-17 120q14 78 59.5 121t114.5 43zM670 628h61l-602 -628h-67zM233 611q-43 0 -73.5 -35t-41.5 -98q-11 -62 7 -97t61 -35t73.5 35t41.5 97q10 63 -7.5 98t-60.5 35zM615 314q69 0 100 -43t17 -121
q-13 -78 -59 -121t-115 -43t-99 43t-16 121q13 78 58.5 121t113.5 43zM610 283q-43 0 -73.5 -35t-41.5 -98t7 -98t61 -35q44 0 74.5 35t41.5 98t-7 98t-62 35z" />
    <glyph glyph-name="ampersand" unicode="&#x26;" horiz-adv-x="698" 
d="M590 319q-16 -44 -38.5 -85.5t-53.5 -81.5l122 -127l-57 -49l-112 121l-2 -2q-49 -49 -115 -79t-125 -30q-99 0 -150.5 47.5t-38.5 125.5q10 54 59 98.5t145 84.5q-34 34 -51.5 78.5t-11.5 78.5q11 63 63.5 103t126.5 40t112.5 -39.5t27.5 -99.5q-7 -40 -53.5 -87.5
t-115.5 -78.5l136 -143q23 31 41.5 64.5t32.5 69.5zM227 497q-4 -25 13.5 -61t51.5 -66q54 23 91 60.5t43 68.5q7 43 -14 70.5t-63 27.5q-47 0 -81 -28.5t-41 -71.5zM91 159q-10 -57 25 -92.5t101 -35.5q47 0 101 29t96 77l-159 172q-78 -33 -117 -69t-47 -81z" />
    <glyph glyph-name="quotesingle" unicode="'" horiz-adv-x="200" 
d="M138 450h-58l53 178h94z" />
    <glyph glyph-name="parenleft" unicode="(" horiz-adv-x="247" 
d="M137 -142h-55q-41 69 -52 167t10 217q22 122 67 220t111 166h53q-56 -77 -95.5 -175t-58.5 -211q-20 -111 -14.5 -209t34.5 -175z" />
    <glyph glyph-name="parenright" unicode=")" horiz-adv-x="247" 
d="M-43 -142q56 76 96 175.5t60 213.5q19 110 14 207t-33 174h53q42 -69 53 -165.5t-10 -215.5q-22 -122 -67.5 -221t-111.5 -168h-54z" />
    <glyph glyph-name="asterisk" unicode="*" horiz-adv-x="427" 
d="M346 305l-57 -37l-57 130l-104 -130l-43 37l114 122l-135 40l29 61l129 -55l18 155h63l-35 -155l148 55l8 -61l-148 -40z" />
    <glyph glyph-name="plus" unicode="+" horiz-adv-x="455" 
d="M413 255l-11 -61h-163l-30 -172h-59l30 172h-162l11 61h162l30 171h59l-30 -171h163z" />
    <glyph glyph-name="comma" unicode="," horiz-adv-x="213" 
d="M40 -61h-57l53 178h94z" />
    <glyph glyph-name="hyphen" unicode="-" horiz-adv-x="326" 
d="M55 255h202l-7 -37h-201z" />
    <glyph glyph-name="period" unicode="." horiz-adv-x="216" 
d="M103 0h-95l14 77h95z" />
    <glyph glyph-name="slash" unicode="/" horiz-adv-x="464" 
d="M432 628h73l-461 -628h-76z" />
    <glyph glyph-name="zero" unicode="0" horiz-adv-x="637" 
d="M586 313q-28 -157 -111.5 -242t-210.5 -85t-180.5 85t-25.5 242t111.5 243t209.5 86q128 0 181.5 -86t25.5 -243zM272 32q91 0 152.5 73t85.5 208q24 136 -11.5 209.5t-127.5 73.5q-90 0 -151.5 -73.5t-85.5 -209.5q-24 -135 12 -208t126 -73z" />
    <glyph glyph-name="one" unicode="1" horiz-adv-x="316" 
d="M287 628l-110 -628h-74l100 567h-135l6 34l166 27h47z" />
    <glyph glyph-name="two" unicode="2" horiz-adv-x="516" 
d="M499 490q-7 -42 -28 -71t-37 -43q-8 -7 -65.5 -59.5t-123 -112.5t-119.5 -109t-56 -49h351l-8 -46h-435l13 70l388 342q19 16 33 36.5t18 47.5q8 47 -28 73.5t-108 26.5q-35 0 -75.5 -10.5t-83.5 -30.5l-9 39q46 24 91 36t91 12q102 0 153 -40t38 -112z" />
    <glyph glyph-name="three" unicode="3" horiz-adv-x="523" 
d="M297 335q84 -10 125.5 -53t29.5 -109q-15 -87 -88.5 -137t-186.5 -50q-52 0 -97 15.5t-87 37.5l21 42q42 -22 83.5 -35.5t87.5 -13.5q78 0 129 37t62 101q11 63 -40 99t-151 36h-67l9 46h66q84 0 139 36t65 99q9 51 -25.5 80.5t-102.5 29.5q-34 0 -74.5 -10t-76.5 -27
l-9 39q43 20 89.5 32t83.5 12q101 0 152.5 -42t38.5 -115q-9 -53 -56.5 -93t-119.5 -57z" />
    <glyph glyph-name="four" unicode="4" horiz-adv-x="537" 
d="M408 187h76l-8 -46h-76l-25 -141h-74l25 141h-327l10 57l390 430h86zM334 187l68 385l-345 -385h277z" />
    <glyph glyph-name="five" unicode="5" horiz-adv-x="535" 
d="M284 385q101 0 154 -50.5t38 -134.5q-17 -97 -93.5 -155.5t-186.5 -58.5q-51 0 -97 14.5t-87 38.5l21 42q41 -19 82.5 -34t87.5 -15q77 0 130.5 42t66.5 112q13 72 -28 111.5t-130 39.5q-40 0 -86 -5.5t-90 -15.5l67 312h379l-8 -46h-309l-43 -210q35 7 68 10t64 3z" />
    <glyph glyph-name="six" unicode="6" horiz-adv-x="569" 
d="M336 394q99 0 145.5 -50t30.5 -140q-18 -99 -92 -158.5t-178 -59.5q-120 0 -167 73t-21 220q32 185 114.5 274t219.5 89q43 0 78.5 -9t70.5 -27l-18 -43q-34 16 -69 24.5t-70 8.5q-96 0 -154.5 -72t-84.5 -222q43 54 93.5 73t101.5 19zM249 32q72 0 123 43.5t64 115.5
q13 76 -16.5 112.5t-104.5 36.5q-31 0 -62.5 -8t-58 -26t-45.5 -46.5t-26 -68.5q-13 -71 20.5 -115t105.5 -44z" />
    <glyph glyph-name="seven" unicode="7" horiz-adv-x="457" 
d="M491 628l-11 -64l-391 -564h-82l409 582h-337l8 46h404z" />
    <glyph glyph-name="eight" unicode="8" horiz-adv-x="583" 
d="M383 348q78 -14 109.5 -59.5t19.5 -110.5q-15 -88 -89.5 -140t-184.5 -52t-166.5 52t-40.5 140q13 69 64 113t127 57q-54 10 -83.5 42.5t-19.5 91.5q13 73 76.5 116.5t158.5 43.5q94 0 142.5 -43.5t34.5 -116.5q-9 -54 -47.5 -87.5t-100.5 -46.5zM455 483
q9 51 -20.5 81.5t-89.5 30.5t-100.5 -30.5t-49.5 -81.5t21 -81.5t90 -30.5t100 30.5t49 81.5zM107 178q-12 -67 25.5 -106.5t113.5 -39.5q75 0 126.5 39.5t63.5 106.5q11 62 -27 98.5t-113 36.5t-126.5 -36.5t-62.5 -98.5z" />
    <glyph glyph-name="nine" unicode="9" horiz-adv-x="567" 
d="M239 227q-99 0 -145.5 51t-30.5 141q18 100 92.5 161.5t177.5 61.5q117 0 164.5 -80t22.5 -223q-32 -178 -112.5 -265.5t-210.5 -87.5q-40 0 -78.5 10t-74.5 25l19 43q34 -13 69 -22.5t70 -9.5q92 0 150.5 70.5t83.5 213.5q-46 -55 -96 -72t-101 -17zM325 596
q-69 0 -119.5 -45.5t-63.5 -118.5q-13 -70 18.5 -110t100.5 -40q34 0 65.5 9t57 27t43.5 46t24 66q13 75 -21.5 120.5t-104.5 45.5z" />
    <glyph glyph-name="colon" unicode=":" horiz-adv-x="219" 
d="M161 321h-94l13 77h95zM105 0h-95l14 77h94z" />
    <glyph glyph-name="semicolon" unicode=";" horiz-adv-x="241" 
d="M177 321h-94l13 77h95zM46 -102h-54l53 179h89z" />
    <glyph glyph-name="less" unicode="&#x3c;" horiz-adv-x="408" 
d="M315 110l-12 -71l-286 155l11 61l340 155l-13 -75l-263 -112z" />
    <glyph glyph-name="equal" unicode="=" horiz-adv-x="374" 
d="M71 337h246l-10 -61h-246zM42 170h246l-11 -61h-246z" />
    <glyph glyph-name="greater" unicode="&#x3e;" horiz-adv-x="408" 
d="M28 114l262 115l-223 109l13 72l286 -155l-10 -61l-341 -155z" />
    <glyph glyph-name="question" unicode="?" horiz-adv-x="479" 
d="M76 593q48 22 96.5 35.5t97.5 13.5q107 0 165 -46t45 -121q-10 -63 -46 -94t-79 -50q-25 -11 -50.5 -21.5t-47 -23.5t-36.5 -32t-21 -47l-6 -30h-68l5 26q8 44 29 71t48 45.5t57 31.5t56 28q28 16 52 42t31 63q8 50 -33.5 81t-109.5 31q-40 0 -85.5 -11.5t-90.5 -30.5z
M83 0l13 76h96l-14 -76h-95z" />
    <glyph glyph-name="at" unicode="@" horiz-adv-x="854" 
d="M499 642q85 0 149.5 -24.5t104.5 -70t54.5 -110.5t0.5 -145q-11 -63 -38 -119t-63 -97.5t-79.5 -65.5t-88.5 -24q-35 0 -50 21t-5 83q-35 -47 -77.5 -75.5t-77.5 -28.5q-63 0 -87 59.5t-5 169.5q19 111 81.5 178.5t146.5 67.5q44 0 78.5 -13.5t66.5 -32.5l-66 -377
q-1 -4 0.5 -6.5t4.5 -2.5q29 0 58 21.5t54.5 59t45.5 87.5t30 107q24 134 -41.5 213t-204.5 79q-73 0 -137 -25.5t-113.5 -72.5t-84 -114.5t-49.5 -150.5q-14 -81 -4 -146t42 -110.5t85.5 -70t125.5 -24.5q38 0 73 7.5t70 17.5l7 -41q-35 -14 -75 -22t-83 -8q-88 0 -155 28
t-107.5 79t-54.5 125t2 165q16 94 57 170t101.5 129t139 81.5t168.5 28.5zM497 160l41 233q-19 9 -39 15.5t-46 6.5q-49 0 -87 -52t-53 -139q-19 -105 -10 -150t49 -45q31 0 72.5 37.5t72.5 93.5z" />
    <glyph glyph-name="A" unicode="A" horiz-adv-x="566" 
d="M417 0l-28 177h-272l-91 -177h-57l326 628h94l104 -628h-76zM141 223h240l-56 356z" />
    <glyph glyph-name="B" unicode="B" horiz-adv-x="599" 
d="M383 353q86 -7 127.5 -48.5t30.5 -108.5q-18 -101 -112.5 -148.5t-277.5 -47.5h-119l110 628h208q101 0 151.5 -37t39.5 -103q-8 -47 -50 -83t-108 -52zM337 582h-129l-39 -221q138 0 211.5 31.5t84.5 95.5q8 48 -23.5 71t-104.5 23zM114 46h68q134 0 200.5 37t81.5 121
q9 51 -31.5 84t-112.5 33q-40 0 -80 -3t-80 -8z" />
    <glyph glyph-name="C" unicode="C" horiz-adv-x="551" 
d="M472 62l4 -42q-49 -18 -98 -26t-96 -8q-140 0 -198 84t-30 245q28 160 116 243.5t228 83.5q48 0 93.5 -8.5t87.5 -27.5l-19 -43q-38 16 -80 24.5t-89 8.5q-104 0 -170.5 -71.5t-90.5 -209.5q-25 -139 16.5 -211t145.5 -72q46 0 90 7t90 23z" />
    <glyph glyph-name="D" unicode="D" horiz-adv-x="623" 
d="M142 628h204q142 0 200.5 -79t30.5 -236q-28 -156 -113.5 -234.5t-227.5 -78.5h-204zM114 46h129q104 0 169 67t89 200q23 134 -18.5 201.5t-145.5 67.5h-129z" />
    <glyph glyph-name="E" unicode="E" 
d="M517 628l-9 -46h-300l-41 -232h265l-9 -47h-264l-45 -257h300l-8 -46h-374l110 628h375z" />
    <glyph glyph-name="F" unicode="F" horiz-adv-x="482" 
d="M515 628l-8 -46h-299l-41 -234h263l-8 -46h-263l-53 -302h-74l110 628h373z" />
    <glyph glyph-name="G" unicode="G" horiz-adv-x="587" 
d="M327 333h207l-57 -319q-40 -14 -89 -21t-106 -7q-143 0 -200 83t-29 248q29 161 115 243t229 82q51 0 97.5 -9t84.5 -27l-19 -43q-43 15 -82.5 24t-87.5 9q-105 0 -170.5 -70t-90.5 -209q-25 -142 16 -213.5t145 -71.5q34 0 64 4t55 12l42 238h-132z" />
    <glyph glyph-name="H" unicode="H" horiz-adv-x="613" 
d="M465 350l49 278h74l-111 -628h-74l54 304h-298l-53 -304h-74l110 628h74l-49 -278h298z" />
    <glyph glyph-name="I" unicode="I" horiz-adv-x="242" 
d="M216 628l-110 -628h-74l110 628h74z" />
    <glyph glyph-name="J" unicode="J" horiz-adv-x="253" 
d="M154 628h74l-117 -665q-13 -72 -52.5 -103.5t-115.5 -31.5q-17 0 -31.5 3t-27.5 9l17 41q11 -3 22.5 -5t22.5 -2q43 0 62.5 19t28.5 70z" />
    <glyph glyph-name="K" unicode="K" horiz-adv-x="541" 
d="M494 0h-83l-232 315h-18l-55 -315h-74l110 628h74l-48 -268h18l280 268h88l-308 -294z" />
    <glyph glyph-name="L" unicode="L" horiz-adv-x="480" 
d="M114 46h300l-8 -46h-374l110 628h74z" />
    <glyph glyph-name="M" unicode="M" horiz-adv-x="740" 
d="M581 628h99l-44 -628h-75l42 559l-255 -559h-87l-50 562l-148 -562h-60l172 628h101l54 -547z" />
    <glyph glyph-name="N" unicode="N" horiz-adv-x="643" 
d="M564 628h54l-111 -628h-90l-235 552l-97 -552h-53l110 628h88l237 -550z" />
    <glyph glyph-name="O" unicode="O" horiz-adv-x="675" 
d="M400 642q140 0 200 -84.5t31 -244.5q-28 -159 -117 -243t-230 -84q-140 0 -199.5 84t-31.5 243q28 160 117.5 244.5t229.5 84.5zM292 32q103 0 171 72t92 209q25 138 -17.5 210.5t-146.5 72.5q-102 0 -169.5 -72.5t-92.5 -210.5q-24 -137 18.5 -209t144.5 -72z" />
    <glyph glyph-name="P" unicode="P" horiz-adv-x="567" 
d="M566 464q-18 -101 -107 -144.5t-282 -44.5h-23l-48 -275h-74l110 628h227q114 0 163 -40.5t34 -123.5zM490 469q10 57 -25 85t-114 28h-143l-46 -262q163 0 238.5 34t89.5 115z" />
    <glyph glyph-name="Q" unicode="Q" horiz-adv-x="672" 
d="M625 310q-25 -137 -94 -218.5t-179 -100.5q-3 -40 20 -62.5t71 -22.5h11l-20 -46h-13q-69 0 -104.5 33t-34.5 92q-141 0 -200 83t-31 242q29 162 117.5 247t228.5 85t198 -85t30 -247zM127 310q-24 -137 17 -208t145 -71t170 71t90 208q25 140 -15.5 213t-144.5 73
t-170.5 -73t-91.5 -213z" />
    <glyph glyph-name="R" unicode="R" horiz-adv-x="582" 
d="M562 473q-13 -69 -61.5 -107t-110.5 -55l117 -311h-86l-101 297q-46 -7 -89 -8t-74 -1l-51 -288h-74l110 628h222q110 0 160.5 -39.5t37.5 -115.5zM486 479q9 51 -26.5 77t-112.5 26h-139l-43 -248h11q147 0 222 35.5t88 109.5z" />
    <glyph glyph-name="S" unicode="S" horiz-adv-x="520" 
d="M284 368q110 -23 153.5 -67t30.5 -119q-16 -90 -91 -143t-187 -53q-53 0 -96.5 13.5t-86.5 38.5l20 42q47 -25 89 -36.5t82 -11.5q78 0 131 36.5t64 99.5q8 46 -23.5 77.5t-129.5 53.5q-102 22 -140.5 62.5t-27.5 104.5q14 78 84 127t168 49q42 0 84 -11.5t79 -36.5
l-22 -39q-31 18 -67 29.5t-79 11.5q-69 0 -117.5 -33t-58.5 -85q-8 -45 24.5 -69t116.5 -41z" />
    <glyph glyph-name="T" unicode="T" horiz-adv-x="509" 
d="M548 628l-9 -46h-197l-103 -582h-74l103 582h-197l8 46h469z" />
    <glyph glyph-name="U" unicode="U" horiz-adv-x="632" 
d="M538 628h74l-75 -427q-18 -102 -91 -159t-185 -57t-165 57t-34 159l75 427h74l-77 -436q-15 -85 17 -123t118 -38q87 0 132 38t60 123z" />
    <glyph glyph-name="V" unicode="V" horiz-adv-x="524" 
d="M250 0h-81l-81 628h78l68 -555l263 555h57z" />
    <glyph glyph-name="W" unicode="W" horiz-adv-x="787" 
d="M756 628h57l-258 -628h-80l-38 536l-228 -536h-83l-34 628h77l27 -540l225 540h84l37 -536z" />
    <glyph glyph-name="X" unicode="X" horiz-adv-x="528" 
d="M466 0h-80l-129 281l-243 -281h-70l289 332l-136 296h80l107 -234l196 234h65l-237 -286z" />
    <glyph glyph-name="Y" unicode="Y" horiz-adv-x="507" 
d="M530 628l-240 -338l-51 -290h-74l51 286l-126 342h80l98 -290l198 290h64z" />
    <glyph glyph-name="Z" unicode="Z" horiz-adv-x="519" 
d="M548 628l-9 -50l-467 -532h365l-8 -46h-458l9 51l471 531h-347l8 46h436z" />
    <glyph glyph-name="bracketleft" unicode="[" horiz-adv-x="258" 
d="M277 582h-71l-121 -687h71l-8 -46h-145l138 779h144z" />
    <glyph glyph-name="backslash" unicode="\" horiz-adv-x="472" 
d="M158 628l242 -628h-84l-239 628h81z" />
    <glyph glyph-name="bracketright" unicode="]" horiz-adv-x="258" 
d="M153 582h-71l8 46h145l-138 -779h-144l8 46h71z" />
    <glyph glyph-name="asciicircum" unicode="^" horiz-adv-x="420" 
d="M106 298h-73l206 330h59l90 -330h-69l-61 258z" />
    <glyph glyph-name="underscore" unicode="_" horiz-adv-x="409" 
d="M-61 -50h409l-7 -37h-408z" />
    <glyph glyph-name="grave" unicode="`" horiz-adv-x="305" 
d="M210 531l-94 107h89l62 -107h-57z" />
    <glyph glyph-name="a" unicode="a" horiz-adv-x="484" 
d="M278 460q84 0 116.5 -41t17.5 -127l-46 -263q-43 -19 -88 -31t-89 -12q-96 0 -140 39t-31 111q10 60 62.5 95t138.5 41q31 2 62 3.5t58 1.5l6 33q10 56 -12.5 80t-82.5 24q-27 0 -63 -5.5t-73 -15.5l-3 40q41 13 83 20t84 7zM188 32q31 0 63 7t49 14l32 179
q-26 0 -54 -1.5t-58 -4.5q-60 -5 -91.5 -28t-39.5 -68q-8 -48 17.5 -73t81.5 -25z" />
    <glyph glyph-name="b" unicode="b" horiz-adv-x="508" 
d="M296 460q99 0 137 -58.5t17 -180.5q-21 -113 -84 -174t-160 -61q-48 0 -93.5 10t-87.5 33l105 599h70l-34 -193q33 12 66 18.5t64 6.5zM379 219q17 99 -10 146.5t-101 47.5q-27 0 -54.5 -6t-55.5 -16l-59 -338q24 -10 50.5 -15.5t54.5 -5.5q69 0 114 48.5t61 138.5z" />
    <glyph glyph-name="c" unicode="c" horiz-adv-x="418" 
d="M34 222q21 118 81 178t157 60q34 0 69 -7t71 -20l-17 -39q-32 10 -60 15t-51 5q-76 0 -118.5 -45.5t-60.5 -145.5q-17 -100 9.5 -145.5t102.5 -45.5q25 0 54.5 4.5t63.5 14.5l3 -39q-39 -13 -77 -19.5t-73 -6.5q-97 0 -136 59.5t-18 176.5z" />
    <glyph glyph-name="d" unicode="d" horiz-adv-x="509" 
d="M391 29q-48 -22 -98 -32.5t-99 -10.5q-99 0 -139.5 61t-19.5 178q20 116 80.5 175.5t156.5 59.5q36 0 63.5 -8t57.5 -20l34 196h70zM213 32q26 0 55 5.5t58 15.5l59 335q-22 9 -47.5 17t-55.5 8q-75 0 -117.5 -45.5t-59.5 -144.5q-16 -93 11.5 -142t96.5 -49z" />
    <glyph glyph-name="e" unicode="e" horiz-adv-x="471" 
d="M362 19q-13 -5 -61 -19t-104 -14q-98 0 -141 62.5t-24 174.5q20 112 83.5 174.5t158.5 62.5q34 0 65 -8.5t52 -25.5t31.5 -43t4.5 -60q-9 -51 -41.5 -80t-78.5 -44t-101 -19t-109 -4q-4 -71 25 -107.5t83 -36.5q51 0 94 13.5t57 18.5zM266 414q-58 0 -102 -45t-61 -146
q43 1 86.5 5t79.5 15t60.5 32t30.5 55q7 45 -23.5 64.5t-70.5 19.5z" />
    <glyph glyph-name="f" unicode="f" horiz-adv-x="286" 
d="M284 596q-44 0 -62 -18t-27 -70l-11 -62h112l-8 -46h-112l-71 -400h-70l71 400h-62l8 46h62l11 62q12 69 50.5 101.5t108.5 32.5q19 0 35 -3.5t32 -9.5l-19 -41q-12 4 -23.5 6t-24.5 2z" />
    <glyph glyph-name="g" unicode="g" horiz-adv-x="508" 
d="M457 407l-81 -462q-16 -85 -69.5 -126.5t-147.5 -41.5q-37 0 -76.5 8.5t-84.5 24.5l17 39q45 -13 78 -19.5t55 -6.5q74 0 109 23.5t45 80.5l15 84q-39 -13 -71.5 -19t-59.5 -6q-98 0 -136 58.5t-17 177.5q21 120 81.5 179t162.5 59q51 0 95.5 -13t84.5 -40zM214 32
q18 0 46.5 7t65.5 20l57 323q-19 16 -43.5 24t-56.5 8q-74 0 -118.5 -47.5t-61.5 -143.5q-16 -96 11 -143.5t100 -47.5z" />
    <glyph glyph-name="h" unicode="h" 
d="M383 0h-70l54 305q10 57 -10 81t-79 24q-31 0 -58.5 -5.5t-59.5 -18.5l-69 -386h-70l111 628h70l-34 -198q37 14 67.5 22t68.5 8q87 0 116.5 -38.5t13.5 -131.5z" />
    <glyph glyph-name="i" unicode="i" horiz-adv-x="218" 
d="M203 628l-17 -97h-70l17 97h70zM171 446l-79 -446h-70l79 446h70z" />
    <glyph glyph-name="j" unicode="j" horiz-adv-x="224" 
d="M210 628l-17 -97h-70l17 97h70zM178 446l-95 -535q-11 -65 -46.5 -99.5t-100.5 -34.5h-12l-2 46h18q33 1 49 21.5t24 66.5l95 535h70z" />
    <glyph glyph-name="k" unicode="k" horiz-adv-x="448" 
d="M130 219l-39 -219h-70l111 628h70l-64 -363h22l190 181h89l-220 -205l178 -241h-82l-160 219h-25z" />
    <glyph glyph-name="l" unicode="l" horiz-adv-x="217" 
d="M92 0h-70l111 628l73 17z" />
    <glyph glyph-name="m" unicode="m" horiz-adv-x="779" 
d="M658 0h-70l57 313q10 57 -9.5 79t-78.5 22q-32 0 -57 -6.5t-59 -22.5q1 -4 -0.5 -9.5t-2.5 -14.5l-65 -361h-70l56 313q10 57 -9 79t-77 22q-30 0 -58.5 -8t-56.5 -20l-69 -386h-70l72 407q58 28 110 40.5t98 12.5q49 0 74.5 -8t41.5 -28q47 20 84 28t84 8
q87 0 116 -35.5t13 -126.5z" />
    <glyph glyph-name="n" unicode="n" horiz-adv-x="501" 
d="M380 0h-70l55 305q11 61 -9 85t-80 24q-29 0 -58.5 -7.5t-59.5 -20.5l-69 -386h-70l72 407q52 25 106.5 39t105.5 14q86 0 115.5 -39t13.5 -131z" />
    <glyph glyph-name="o" unicode="o" horiz-adv-x="499" 
d="M443 222q-20 -111 -85 -173.5t-162 -62.5t-139.5 62.5t-23.5 173.5q20 112 85 175t162 63t139.5 -63t23.5 -175zM372 222q16 90 -10.5 141t-89.5 51t-107.5 -51t-60.5 -141t10.5 -140t89.5 -50t107.5 50t60.5 140z" />
    <glyph glyph-name="p" unicode="p" horiz-adv-x="507" 
d="M448 218q-21 -118 -79 -175t-157 -57q-28 0 -58 6t-64 19l-38 -220h-70l108 616q50 29 99 41t100 12q101 0 141 -59.5t18 -182.5zM378 219q17 99 -10 147t-101 48q-32 0 -57.5 -8t-53.5 -24l-57 -323q31 -13 56.5 -20t45.5 -7q73 0 116.5 46t60.5 141z" />
    <glyph glyph-name="q" unicode="q" horiz-adv-x="507" 
d="M276 460q50 0 94.5 -12t85.5 -41l-109 -616h-70l38 220q-39 -13 -70 -19t-59 -6q-99 0 -136.5 58t-16.5 178q22 121 82 179.5t161 58.5zM215 32q20 0 46 7t63 20l57 323q-20 14 -42.5 23t-55.5 9q-74 0 -118 -47t-61 -144t10.5 -144t100.5 -47z" />
    <glyph glyph-name="r" unicode="r" horiz-adv-x="337" 
d="M358 448l-31 -53q-16 10 -38 14.5t-44 4.5q-23 0 -42.5 -5.5t-44.5 -18.5l-69 -390h-70l72 407q51 29 96.5 41t86.5 12q23 0 44.5 -3t39.5 -9z" />
    <glyph glyph-name="s" unicode="s" horiz-adv-x="419" 
d="M135 -14q-37 0 -70.5 9t-65.5 23l18 40q31 -13 62 -19.5t64 -6.5q58 0 96 23.5t45 64.5q5 27 -11 45t-84 33q-97 21 -124 51.5t-17 84.5q10 61 62 93.5t139 32.5q35 0 67.5 -9.5t63.5 -22.5l-20 -40q-29 12 -56.5 19t-61.5 7q-55 0 -88.5 -20.5t-39.5 -59.5
q-4 -22 14 -40.5t81 -31.5q97 -20 125.5 -48.5t18.5 -89.5q-12 -65 -70 -101.5t-148 -36.5z" />
    <glyph glyph-name="t" unicode="t" horiz-adv-x="289" 
d="M216 35l-15 -47q-11 -1 -19.5 -1.5t-15.5 -0.5q-69 0 -96 32t-15 101l50 281h-60l8 46h60l23 134l73 17l-26 -151h111l-8 -46h-111l-50 -281q-9 -51 3 -69t55 -18q10 0 18 1t15 2z" />
    <glyph glyph-name="u" unicode="u" horiz-adv-x="502" 
d="M96 446h70l-54 -307q-10 -58 10.5 -82.5t80.5 -24.5q30 0 57 5t60 18l69 391h70l-71 -400q-54 -32 -103 -46t-109 -14q-87 0 -117 38.5t-14 129.5z" />
    <glyph glyph-name="v" unicode="v" horiz-adv-x="448" 
d="M396 446h55l-244 -446h-69l-88 446h76l70 -369z" />
    <glyph glyph-name="w" unicode="w" horiz-adv-x="688" 
d="M638 446h52l-216 -446h-63l-51 384l-184 -384h-64l-62 446h77l44 -359l169 359h86l46 -351z" />
    <glyph glyph-name="x" unicode="x" horiz-adv-x="446" 
d="M377 0h-82l-98 185l-176 -185h-64l218 227l-116 219h81l87 -164l157 163h63l-197 -206z" />
    <glyph glyph-name="y" unicode="y" horiz-adv-x="420" 
d="M427 446l-378 -655h-58l146 255l-86 400h77l63 -309l177 309h59z" />
    <glyph glyph-name="z" unicode="z" horiz-adv-x="442" 
d="M417 388l-342 -342h288l-8 -46h-379l9 48l355 352h-270l8 46h349z" />
    <glyph glyph-name="braceleft" unicode="{" horiz-adv-x="288" 
d="M173 -105h16l-8 -46h-22q-73 0 -100.5 32t-14.5 102l4 23.5t9 51.5t9 52l4 24q9 51 -2.5 69.5t-53.5 18.5l8 46q42 0 60 18.5t27 69.5l4 23t9.5 50t9.5 50.5l4 23.5q13 71 51.5 103t111.5 32h22l-8 -46h-16q-37 0 -58 -21.5t-29 -67.5l-4 -23.5t-9.5 -51.5t-9.5 -51.5
l-4 -23.5q-3 -18 -11 -37.5t-20.5 -35t-29 -25.5t-35.5 -10q37 0 50.5 -32.5t6.5 -78.5l-4 -24t-9.5 -52t-9.5 -51.5l-4 -23.5q-8 -46 5.5 -67t50.5 -21z" />
    <glyph glyph-name="bar" unicode="|" horiz-adv-x="235" 
d="M75 -151h-72l138 779h71z" />
    <glyph glyph-name="braceright" unicode="}" horiz-adv-x="288" 
d="M-25 -105q37 0 57.5 21t28.5 67l4 23t9 51t9.5 51.5l4.5 23.5q7 46 33 78.5t64 32.5q-19 0 -32 10t-19.5 25.5t-8 35t1.5 37.5l4 23.5t9.5 52t9.5 52.5l4 24q8 46 -5.5 67.5t-50.5 21.5h-16l8 46h23q72 0 100 -32t15 -103l-4 -23.5t-9.5 -51.5t-9.5 -51l-4 -23
q-9 -51 3 -69.5t54 -18.5l-8 -46q-42 0 -60.5 -18.5t-27.5 -69.5l-4 -23.5t-9.5 -51.5t-9.5 -51l-4 -23q-12 -70 -51 -102t-111 -32h-22l8 46h16z" />
    <glyph glyph-name="asciitilde" unicode="~" horiz-adv-x="413" 
d="M324 288l20 -26q-26 -34 -47.5 -47t-49.5 -13q-19 0 -33 5.5t-26 11.5q-10 7 -23 12t-31 5q-17 0 -30.5 -7t-29.5 -24l-22 25q27 34 48.5 47t48.5 13q21 0 35 -5.5t26 -12.5q10 -6 23 -10.5t30 -4.5q18 0 31.5 7t29.5 24z" />
    <glyph glyph-name="Adieresis" unicode="&#xc4;" horiz-adv-x="566" 
d="M331 808l-18 -97h-69l17 97h70zM486 808l-17 -97h-69l17 97h69zM417 0l-28 177h-272l-91 -177h-57l326 628h94l104 -628h-76zM141 223h240l-56 356z" />
    <glyph glyph-name="Aring" unicode="&#xc5;" horiz-adv-x="566" 
d="M417 0l-28 177h-272l-91 -177h-57l319 615q-26 7 -36.5 22.5t-6.5 40.5q6 35 35.5 52t84.5 17t79 -17t17 -52q-4 -26 -21.5 -41.5t-48.5 -22.5l102 -614h-76zM393 678q4 25 -3 35t-29 10t-33 -10t-15 -35q-4 -24 3 -34t29 -10t33 10t15 34zM141 223h240l-56 356z" />
    <glyph glyph-name="Ccedilla" unicode="&#xc7;" horiz-adv-x="551" 
d="M472 62l4 -42q-49 -18 -98 -26t-96 -8q-140 0 -198 84t-30 245q28 160 116 243.5t228 83.5q48 0 93.5 -8.5t87.5 -27.5l-19 -43q-38 16 -80 24.5t-89 8.5q-104 0 -170.5 -71.5t-90.5 -209.5q-25 -139 16.5 -211t145.5 -72q46 0 90 7t90 23zM165 -170l15 42q13 -4 23.5 -6
t18.5 -2q20 0 32 7.5t14 21.5t-7 22t-30 8q-8 0 -19.5 -2.5t-24.5 -6.5v41q16 4 32.5 6.5t32.5 2.5q50 0 73 -18.5t17 -52.5q-6 -35 -36 -53.5t-80 -18.5q-13 0 -29 2.5t-32 6.5z" />
    <glyph glyph-name="Eacute" unicode="&#xc9;" 
d="M359 698h-62l100 109h90zM517 628l-9 -46h-300l-41 -232h265l-9 -47h-264l-45 -257h300l-8 -46h-374l110 628h375z" />
    <glyph glyph-name="Ntilde" unicode="&#xd1;" horiz-adv-x="643" 
d="M538 797l21 -26q-26 -33 -48.5 -46.5t-47.5 -13.5q-20 0 -33.5 5t-24.5 12q-12 6 -24.5 11.5t-31.5 5.5q-17 0 -30.5 -7t-29.5 -24l-21 25q25 33 47 46.5t49 13.5q24 0 38.5 -7t27.5 -14q10 -5 21 -9t27 -4t30 7.5t30 24.5zM564 628h54l-111 -628h-90l-235 552l-97 -552
h-53l110 628h88l237 -550z" />
    <glyph glyph-name="Odieresis" unicode="&#xd6;" horiz-adv-x="675" 
d="M386 808l-18 -97h-69l17 97h70zM541 808l-17 -97h-69l17 97h69zM400 642q140 0 200 -84.5t31 -244.5q-28 -159 -117 -243t-230 -84q-140 0 -199.5 84t-31.5 243q28 160 117.5 244.5t229.5 84.5zM292 32q103 0 171 72t92 209q25 138 -17.5 210.5t-146.5 72.5
q-102 0 -169.5 -72.5t-92.5 -210.5q-24 -137 18.5 -209t144.5 -72z" />
    <glyph glyph-name="Udieresis" unicode="&#xdc;" horiz-adv-x="632" 
d="M363 808l-18 -97h-69l17 97h70zM518 808l-17 -97h-69l17 97h69zM538 628h74l-75 -427q-18 -102 -91 -159t-185 -57t-165 57t-34 159l75 427h74l-77 -436q-15 -85 17 -123t118 -38q87 0 132 38t60 123z" />
    <glyph glyph-name="aacute" unicode="&#xe1;" horiz-adv-x="484" 
d="M299 531h-56l100 107h88zM278 460q84 0 116.5 -41t17.5 -127l-46 -263q-43 -19 -88 -31t-89 -12q-96 0 -140 39t-31 111q10 60 62.5 95t138.5 41q31 2 62 3.5t58 1.5l6 33q10 56 -12.5 80t-82.5 24q-27 0 -63 -5.5t-73 -15.5l-3 40q41 13 83 20t84 7zM188 32q31 0 63 7
t49 14l32 179q-26 0 -54 -1.5t-58 -4.5q-60 -5 -91.5 -28t-39.5 -68q-8 -48 17.5 -73t81.5 -25z" />
    <glyph glyph-name="agrave" unicode="&#xe0;" horiz-adv-x="484" 
d="M253 531l-94 107h89l62 -107h-57zM278 460q84 0 116.5 -41t17.5 -127l-46 -263q-43 -19 -88 -31t-89 -12q-96 0 -140 39t-31 111q10 60 62.5 95t138.5 41q31 2 62 3.5t58 1.5l6 33q10 56 -12.5 80t-82.5 24q-27 0 -63 -5.5t-73 -15.5l-3 40q41 13 83 20t84 7zM188 32
q31 0 63 7t49 14l32 179q-26 0 -54 -1.5t-58 -4.5q-60 -5 -91.5 -28t-39.5 -68q-8 -48 17.5 -73t81.5 -25z" />
    <glyph glyph-name="acircumflex" unicode="&#xe2;" horiz-adv-x="484" 
d="M401 531h-53l-59 68l-83 -68h-58l104 107h83zM278 460q84 0 116.5 -41t17.5 -127l-46 -263q-43 -19 -88 -31t-89 -12q-96 0 -140 39t-31 111q10 60 62.5 95t138.5 41q31 2 62 3.5t58 1.5l6 33q10 56 -12.5 80t-82.5 24q-27 0 -63 -5.5t-73 -15.5l-3 40q41 13 83 20t84 7z
M188 32q31 0 63 7t49 14l32 179q-26 0 -54 -1.5t-58 -4.5q-60 -5 -91.5 -28t-39.5 -68q-8 -48 17.5 -73t81.5 -25z" />
    <glyph glyph-name="adieresis" unicode="&#xe4;" horiz-adv-x="484" 
d="M260 628l-17 -97h-68l17 97h68zM400 628l-17 -97h-68l17 97h68zM278 460q84 0 116.5 -41t17.5 -127l-46 -263q-43 -19 -88 -31t-89 -12q-96 0 -140 39t-31 111q10 60 62.5 95t138.5 41q31 2 62 3.5t58 1.5l6 33q10 56 -12.5 80t-82.5 24q-27 0 -63 -5.5t-73 -15.5l-3 40
q41 13 83 20t84 7zM188 32q31 0 63 7t49 14l32 179q-26 0 -54 -1.5t-58 -4.5q-60 -5 -91.5 -28t-39.5 -68q-8 -48 17.5 -73t81.5 -25z" />
    <glyph glyph-name="atilde" unicode="&#xe3;" horiz-adv-x="484" 
d="M410 616l21 -26q-26 -33 -48 -46t-50 -13q-19 0 -32 5t-24 11q-13 7 -25.5 12.5t-31.5 5.5q-17 0 -30.5 -7t-30.5 -25l-21 26q27 33 48.5 46t48.5 13q22 0 36.5 -6t26.5 -13q10 -5 22 -9.5t29 -4.5t31 7t30 24zM278 460q84 0 116.5 -41t17.5 -127l-46 -263
q-43 -19 -88 -31t-89 -12q-96 0 -140 39t-31 111q10 60 62.5 95t138.5 41q31 2 62 3.5t58 1.5l6 33q10 56 -12.5 80t-82.5 24q-27 0 -63 -5.5t-73 -15.5l-3 40q41 13 83 20t84 7zM188 32q31 0 63 7t49 14l32 179q-26 0 -54 -1.5t-58 -4.5q-60 -5 -91.5 -28t-39.5 -68
q-8 -48 17.5 -73t81.5 -25z" />
    <glyph glyph-name="aring" unicode="&#xe5;" horiz-adv-x="484" 
d="M401 614v-9t-1 -10q-6 -34 -36 -51.5t-84 -17.5t-79 17.5t-18 51.5q6 34 36.5 51.5t84.5 17.5q47 0 71.5 -12.5t25.5 -37.5zM331 595q4 25 -3 34.5t-28 9.5q-23 0 -34 -9.5t-15 -34.5t3.5 -34.5t29.5 -9.5t32.5 9.5t14.5 34.5zM278 460q84 0 116.5 -41t17.5 -127
l-46 -263q-43 -19 -88 -31t-89 -12q-96 0 -140 39t-31 111q10 60 62.5 95t138.5 41q31 2 62 3.5t58 1.5l6 33q10 56 -12.5 80t-82.5 24q-27 0 -63 -5.5t-73 -15.5l-3 40q41 13 83 20t84 7zM188 32q31 0 63 7t49 14l32 179q-26 0 -54 -1.5t-58 -4.5q-60 -5 -91.5 -28
t-39.5 -68q-8 -48 17.5 -73t81.5 -25z" />
    <glyph glyph-name="ccedilla" unicode="&#xe7;" horiz-adv-x="418" 
d="M34 222q21 118 81 178t157 60q34 0 69 -7t71 -20l-17 -39q-32 10 -60 15t-51 5q-76 0 -118.5 -45.5t-60.5 -145.5q-17 -100 9.5 -145.5t102.5 -45.5q25 0 54.5 4.5t63.5 14.5l3 -39q-39 -13 -77 -19.5t-73 -6.5q-97 0 -136 59.5t-18 176.5zM72 -170l15 42q13 -4 23.5 -6
t18.5 -2q20 0 32 7.5t14 21.5t-7 22t-30 8q-8 0 -19.5 -2.5t-24.5 -6.5v41q16 4 32.5 6.5t32.5 2.5q50 0 73 -18.5t17 -52.5q-6 -35 -36 -53.5t-80 -18.5q-13 0 -29 2.5t-32 6.5z" />
    <glyph glyph-name="eacute" unicode="&#xe9;" horiz-adv-x="471" 
d="M314 531h-56l100 107h88zM362 19q-13 -5 -61 -19t-104 -14q-98 0 -141 62.5t-24 174.5q20 112 83.5 174.5t158.5 62.5q34 0 65 -8.5t52 -25.5t31.5 -43t4.5 -60q-9 -51 -41.5 -80t-78.5 -44t-101 -19t-109 -4q-4 -71 25 -107.5t83 -36.5q51 0 94 13.5t57 18.5zM266 414
q-58 0 -102 -45t-61 -146q43 1 86.5 5t79.5 15t60.5 32t30.5 55q7 45 -23.5 64.5t-70.5 19.5z" />
    <glyph glyph-name="egrave" unicode="&#xe8;" horiz-adv-x="471" 
d="M273 531l-94 107h89l62 -107h-57zM362 19q-13 -5 -61 -19t-104 -14q-98 0 -141 62.5t-24 174.5q20 112 83.5 174.5t158.5 62.5q34 0 65 -8.5t52 -25.5t31.5 -43t4.5 -60q-9 -51 -41.5 -80t-78.5 -44t-101 -19t-109 -4q-4 -71 25 -107.5t83 -36.5q51 0 94 13.5t57 18.5z
M266 414q-58 0 -102 -45t-61 -146q43 1 86.5 5t79.5 15t60.5 32t30.5 55q7 45 -23.5 64.5t-70.5 19.5z" />
    <glyph glyph-name="ecircumflex" unicode="&#xea;" horiz-adv-x="471" 
d="M412 531h-53l-59 68l-83 -68h-58l104 107h83zM362 19q-13 -5 -61 -19t-104 -14q-98 0 -141 62.5t-24 174.5q20 112 83.5 174.5t158.5 62.5q34 0 65 -8.5t52 -25.5t31.5 -43t4.5 -60q-9 -51 -41.5 -80t-78.5 -44t-101 -19t-109 -4q-4 -71 25 -107.5t83 -36.5q51 0 94 13.5
t57 18.5zM266 414q-58 0 -102 -45t-61 -146q43 1 86.5 5t79.5 15t60.5 32t30.5 55q7 45 -23.5 64.5t-70.5 19.5z" />
    <glyph glyph-name="edieresis" unicode="&#xeb;" horiz-adv-x="471" 
d="M266 628l-17 -97h-68l17 97h68zM406 628l-17 -97h-68l17 97h68zM362 19q-13 -5 -61 -19t-104 -14q-98 0 -141 62.5t-24 174.5q20 112 83.5 174.5t158.5 62.5q34 0 65 -8.5t52 -25.5t31.5 -43t4.5 -60q-9 -51 -41.5 -80t-78.5 -44t-101 -19t-109 -4q-4 -71 25 -107.5
t83 -36.5q51 0 94 13.5t57 18.5zM266 414q-58 0 -102 -45t-61 -146q43 1 86.5 5t79.5 15t60.5 32t30.5 55q7 45 -23.5 64.5t-70.5 19.5z" />
    <glyph glyph-name="iacute" unicode="&#xed;" horiz-adv-x="218" 
d="M173 531h-56l100 107h88zM171 446l-79 -446h-70l79 446h70z" />
    <glyph glyph-name="igrave" unicode="&#xec;" horiz-adv-x="218" 
d="M129 531l-94 107h89l62 -107h-57zM171 446l-79 -446h-70l79 446h70z" />
    <glyph glyph-name="icircumflex" unicode="&#xee;" horiz-adv-x="218" 
d="M277 531h-53l-59 68l-83 -68h-58l104 107h83zM171 446l-79 -446h-70l79 446h70z" />
    <glyph glyph-name="idieresis" unicode="&#xef;" horiz-adv-x="218" 
d="M131 628l-17 -97h-68l17 97h68zM271 628l-17 -97h-68l17 97h68zM171 446l-79 -446h-70l79 446h70z" />
    <glyph glyph-name="ntilde" unicode="&#xf1;" horiz-adv-x="501" 
d="M427 616l21 -26q-26 -33 -48 -46t-50 -13q-19 0 -32 5t-24 11q-13 7 -25.5 12.5t-31.5 5.5q-17 0 -30.5 -7t-30.5 -25l-21 26q27 33 48.5 46t48.5 13q22 0 36.5 -6t26.5 -13q10 -5 22 -9.5t29 -4.5t31 7t30 24zM380 0h-70l55 305q11 61 -9 85t-80 24q-29 0 -58.5 -7.5
t-59.5 -20.5l-69 -386h-70l72 407q52 25 106.5 39t105.5 14q86 0 115.5 -39t13.5 -131z" />
    <glyph glyph-name="oacute" unicode="&#xf3;" horiz-adv-x="499" 
d="M315 531h-56l100 107h88zM443 222q-20 -111 -85 -173.5t-162 -62.5t-139.5 62.5t-23.5 173.5q20 112 85 175t162 63t139.5 -63t23.5 -175zM372 222q16 90 -10.5 141t-89.5 51t-107.5 -51t-60.5 -141t10.5 -140t89.5 -50t107.5 50t60.5 140z" />
    <glyph glyph-name="ograve" unicode="&#xf2;" horiz-adv-x="499" 
d="M272 531l-94 107h89l62 -107h-57zM443 222q-20 -111 -85 -173.5t-162 -62.5t-139.5 62.5t-23.5 173.5q20 112 85 175t162 63t139.5 -63t23.5 -175zM372 222q16 90 -10.5 141t-89.5 51t-107.5 -51t-60.5 -141t10.5 -140t89.5 -50t107.5 50t60.5 140z" />
    <glyph glyph-name="ocircumflex" unicode="&#xf4;" horiz-adv-x="499" 
d="M419 531h-53l-59 68l-83 -68h-58l104 107h83zM443 222q-20 -111 -85 -173.5t-162 -62.5t-139.5 62.5t-23.5 173.5q20 112 85 175t162 63t139.5 -63t23.5 -175zM372 222q16 90 -10.5 141t-89.5 51t-107.5 -51t-60.5 -141t10.5 -140t89.5 -50t107.5 50t60.5 140z" />
    <glyph glyph-name="odieresis" unicode="&#xf6;" horiz-adv-x="499" 
d="M273 628l-17 -97h-68l17 97h68zM413 628l-17 -97h-68l17 97h68zM443 222q-20 -111 -85 -173.5t-162 -62.5t-139.5 62.5t-23.5 173.5q20 112 85 175t162 63t139.5 -63t23.5 -175zM372 222q16 90 -10.5 141t-89.5 51t-107.5 -51t-60.5 -141t10.5 -140t89.5 -50t107.5 50
t60.5 140z" />
    <glyph glyph-name="otilde" unicode="&#xf5;" horiz-adv-x="499" 
d="M425 616l21 -26q-26 -33 -48 -46t-50 -13q-19 0 -32 5t-24 11q-13 7 -25.5 12.5t-31.5 5.5q-17 0 -30.5 -7t-30.5 -25l-21 26q27 33 48.5 46t48.5 13q22 0 36.5 -6t26.5 -13q10 -5 22 -9.5t29 -4.5t31 7t30 24zM443 222q-20 -111 -85 -173.5t-162 -62.5t-139.5 62.5
t-23.5 173.5q20 112 85 175t162 63t139.5 -63t23.5 -175zM372 222q16 90 -10.5 141t-89.5 51t-107.5 -51t-60.5 -141t10.5 -140t89.5 -50t107.5 50t60.5 140z" />
    <glyph glyph-name="uacute" unicode="&#xfa;" horiz-adv-x="502" 
d="M319 531h-56l100 107h88zM96 446h70l-54 -307q-10 -58 10.5 -82.5t80.5 -24.5q30 0 57 5t60 18l69 391h70l-71 -400q-54 -32 -103 -46t-109 -14q-87 0 -117 38.5t-14 129.5z" />
    <glyph glyph-name="ugrave" unicode="&#xf9;" horiz-adv-x="502" 
d="M293 531l-94 107h89l62 -107h-57zM96 446h70l-54 -307q-10 -58 10.5 -82.5t80.5 -24.5q30 0 57 5t60 18l69 391h70l-71 -400q-54 -32 -103 -46t-109 -14q-87 0 -117 38.5t-14 129.5z" />
    <glyph glyph-name="ucircumflex" unicode="&#xfb;" horiz-adv-x="502" 
d="M419 531h-53l-59 68l-83 -68h-58l104 107h83zM96 446h70l-54 -307q-10 -58 10.5 -82.5t80.5 -24.5q30 0 57 5t60 18l69 391h70l-71 -400q-54 -32 -103 -46t-109 -14q-87 0 -117 38.5t-14 129.5z" />
    <glyph glyph-name="udieresis" unicode="&#xfc;" horiz-adv-x="502" 
d="M273 628l-17 -97h-68l17 97h68zM413 628l-17 -97h-68l17 97h68zM96 446h70l-54 -307q-10 -58 10.5 -82.5t80.5 -24.5q30 0 57 5t60 18l69 391h70l-71 -400q-54 -32 -103 -46t-109 -14q-87 0 -117 38.5t-14 129.5z" />
    <glyph glyph-name="dagger" unicode="&#x2020;" horiz-adv-x="464" 
d="M37 374l8 46h172l37 208h73l-37 -208h173l-8 -46h-173l-94 -536h-73l94 536h-172z" />
    <glyph glyph-name="degree" unicode="&#xb0;" horiz-adv-x="340" 
d="M232 642q60 0 84.5 -39t11.5 -113t-51.5 -113t-98.5 -39q-59 0 -84 39t-12 113t51.5 113t98.5 39zM123 490q-11 -63 4 -97t55 -34t67.5 34t38.5 97t-4.5 96.5t-55.5 33.5t-67 -33.5t-38 -96.5z" />
    <glyph glyph-name="cent" unicode="&#xa2;" horiz-adv-x="429" 
d="M336 53l3 -39q-31 -10 -57 -17t-47 -8l-16 -94h-71l16 92q-84 7 -116 66t-13 171q20 111 72.5 169.5t139.5 65.5l19 106h71l-19 -107q22 -3 45.5 -9t49.5 -16l-17 -39q-33 10 -61 15t-51 5q-73 0 -117.5 -46.5t-60.5 -142.5q-17 -98 8 -146t103 -48q22 0 51.5 6t67.5 16z
" />
    <glyph glyph-name="sterling" unicode="&#xa3;" horiz-adv-x="525" 
d="M118 46h339l-8 -46h-458l8 46q42 0 61.5 19.5t27.5 68.5l33 183h-74l8 46h74l19 110q16 87 62.5 128t130.5 41q43 0 81 -7t77 -21l-18 -40q-37 11 -67.5 16.5t-59.5 5.5q-62 0 -91 -25.5t-40 -90.5l-20 -117h191l-8 -46h-191l-33 -183q-5 -30 -15.5 -51t-28.5 -37z" />
    <glyph glyph-name="section" unicode="&#xa7;" horiz-adv-x="535" 
d="M492 202q-7 -38 -29.5 -72.5t-56.5 -56.5q6 -13 6.5 -29.5t-2.5 -35.5q-15 -82 -81 -127t-171 -45q-47 0 -84 13t-76 35l19 39q37 -19 72.5 -32t75.5 -13q74 0 120.5 32t56.5 89q7 37 -24.5 61t-124.5 58q-100 37 -135 75t-25 98q6 34 29.5 63.5t59.5 48.5q-16 16 -21 37
t-1 49q13 72 74 112.5t156 40.5q39 0 79 -11t70 -33l-21 -36q-30 17 -64.5 27.5t-67.5 10.5q-66 0 -109 -28.5t-52 -77.5q-7 -38 27 -56.5t109 -43.5q119 -40 161 -82.5t30 -109.5zM223 182q56 -20 94 -37.5t60 -34.5q18 14 31.5 37.5t17.5 48.5q7 41 -32 72t-144 69
q-25 9 -47 17.5t-38 17.5q-28 -13 -46.5 -34t-22.5 -46q-5 -34 23 -58t104 -52z" />
    <glyph glyph-name="bullet" unicode="&#x2022;" horiz-adv-x="260" 
d="M166 240h-92l17 93h92z" />
    <glyph glyph-name="paragraph" unicode="&#xb6;" horiz-adv-x="535" 
d="M51 442q16 92 73.5 139t152.5 47h115l-147 -837h-73l79 446h-35q-99 0 -140.5 52t-24.5 153zM288 -209l148 837h72l-147 -837h-73z" />
    <glyph glyph-name="germandbls" unicode="&#xdf;" horiz-adv-x="590" 
d="M372 349q83 -6 126 -53.5t30 -118.5q-17 -94 -91.5 -142.5t-200.5 -48.5q-16 0 -32 1t-31 5l7 44q13 -2 27.5 -3t27.5 -1q91 0 145 38t67 112q11 61 -26.5 98t-110.5 37q-9 0 -21 -0.5l-24 -1t-22 -1.5t-14 -1l8 47q99 9 147.5 40t59.5 91q7 45 -26.5 75t-91.5 30
q-56 0 -100.5 -42t-55.5 -105l-79 -449h-70l79 449q7 41 28 76.5t51 61.5t68.5 40.5t81.5 14.5q93 0 147 -43t43 -108q-10 -54 -47 -90t-100 -52z" />
    <glyph glyph-name="registered" unicode="&#xae;" horiz-adv-x="713" 
d="M671 315q-13 -74 -46 -135t-81 -104t-109.5 -66.5t-131.5 -23.5t-123.5 23.5t-86.5 66.5t-44.5 104t1.5 135t46 134.5t81.5 103t110 66t131.5 23.5q69 0 122.5 -23.5t86.5 -66t44.5 -103t-1.5 -134.5zM622 315q11 64 1.5 117t-36.5 90.5t-71.5 58t-103.5 20.5
t-111.5 -20.5t-93.5 -58t-69 -90.5t-39 -117q-12 -65 -2.5 -118.5t37.5 -91t73.5 -58.5t105.5 -21q58 0 109.5 21t92 58.5t68.5 91t39 118.5zM515 413q-6 -36 -30.5 -59t-69.5 -35l68 -183h-53l-58 175q-22 -3 -45 -4.5t-48 -1.5l-30 -169h-42l64 368h129q67 0 95 -22
t20 -69zM472 417q5 31 -15 45.5t-67 14.5h-81l-26 -145h8q85 1 129 21.5t52 63.5z" />
    <glyph glyph-name="copyright" unicode="&#xa9;" horiz-adv-x="713" 
d="M671 315q-13 -74 -46 -135t-81 -104t-109.5 -66.5t-131.5 -23.5t-123.5 23.5t-86.5 66.5t-44.5 104t1.5 135t46 134.5t81.5 103t110 66t131.5 23.5t123 -23.5t86 -66t44.5 -103t-1.5 -134.5zM622 315q11 64 1.5 117t-37 90.5t-72 58t-102.5 20.5q-59 0 -111.5 -20.5
t-93 -58t-69 -90.5t-39.5 -117q-12 -65 -2.5 -118.5t37.5 -91t73.5 -58.5t105.5 -21q58 0 109.5 21t92 58.5t68.5 91t39 118.5zM341 161q16 0 40 4t55 12l2 -31q-34 -11 -64 -16.5t-55 -5.5q-75 0 -106 48.5t-14 141.5q16 93 64 141.5t123 48.5q27 0 55 -5.5t56 -15.5
l-12 -31q-28 8 -50.5 12t-38.5 4q-57 0 -93 -39t-49 -114q-13 -76 9 -115t78 -39z" />
    <glyph glyph-name="trademark" unicode="&#x2122;" horiz-adv-x="612" 
d="M521 628h62l-19 -283h-53l18 232l-108 -232h-45l-20 231l-60 -231h-36l77 283h64l21 -212zM296 628l-6 -31h-79l-44 -252h-53l45 252h-79l5 31h211z" />
    <glyph glyph-name="acute" unicode="&#xb4;" horiz-adv-x="295" 
d="M200 531h-56l100 107h88z" />
    <glyph glyph-name="dieresis" unicode="&#xa8;" horiz-adv-x="595" 
d="M323 628l-17 -97h-68l17 97h68zM463 628l-17 -97h-68l17 97h68z" />
    <glyph glyph-name="AE" unicode="&#xc6;" horiz-adv-x="784" 
d="M797 628l-9 -46h-300l-41 -232h265l-9 -47h-264l-45 -257h300l-8 -46h-374l31 177h-206l-92 -177h-78l328 628h502zM347 582l-186 -359h190l63 359h-67z" />
    <glyph glyph-name="Oslash" unicode="&#xd8;" horiz-adv-x="688" 
d="M405 642q61 0 107.5 -16.5t77.5 -48.5l53 51h69l-94 -90q22 -40 26.5 -97t-8.5 -128q-28 -159 -117 -243t-230 -84q-61 0 -107.5 16.5t-76.5 47.5l-52 -50h-69l93 89q-22 40 -27 96.5t8 127.5q28 160 117.5 244.5t229.5 84.5zM134 313q-9 -51 -8.5 -93.5t9.5 -75.5
l404 385q-21 33 -57 50t-86 17q-102 0 -169.5 -72.5t-92.5 -210.5zM297 32q103 0 171 72t92 209q10 51 9.5 94t-9.5 76l-404 -385q21 -33 56.5 -49.5t84.5 -16.5z" />
    <glyph glyph-name="plusminus" unicode="&#xb1;" horiz-adv-x="507" 
d="M441 263h-162l-22 -125h-62l23 125h-162l9 57h162l23 126h61l-22 -126h161zM400 35h-385l9 51h385z" />
    <glyph glyph-name="yen" unicode="&#xa5;" horiz-adv-x="491" 
d="M517 628l-222 -314h147l-8 -46h-157l-7 -40h157l-9 -46h-157l-32 -182h-72l32 182h-154l8 46h154l7 40h-154l9 46h142l-115 314h83l92 -286l194 286h62z" />
    <glyph glyph-name="partialdiff" unicode="&#x2202;" horiz-adv-x="553" 
d="M257 392q56 0 100.5 -19t66.5 -69q26 149 -7 218.5t-132 69.5q-20 0 -39 -3.5t-35 -7.5l-4 46q20 4 42 7.5t44 3.5q136 0 187.5 -88.5t19.5 -268.5q-27 -149 -99 -222t-193 -73q-111 0 -161.5 57t-31.5 161q16 90 79 139t163 49zM216 32q78 0 126 46.5t60 112.5
q12 67 -24.5 109.5t-118.5 42.5q-72 0 -116 -39t-57 -113q-14 -78 19 -118.5t111 -40.5z" />
    <glyph glyph-name="pi" unicode="&#x3c0;" horiz-adv-x="530" 
d="M38 394l10 52h479l-10 -52h-83l-52 -295q-4 -25 5.5 -39t30.5 -14h16l-8 -46h-36q-43 0 -64 26t-14 69l52 299h-174l-69 -394h-70l69 394h-82z" />
    <glyph glyph-name="ordfeminine" unicode="&#xaa;" horiz-adv-x="339" 
d="M288 388q-25 -11 -51.5 -18.5t-52.5 -7.5q-57 0 -82.5 21.5t-18.5 64.5q8 46 53.5 66t136.5 20l2 13q7 36 -6 51.5t-49 15.5q-20 0 -38.5 -2.5t-40.5 -9.5l-3 23q25 9 48.5 13t49.5 4q51 0 70 -23t9 -76zM268 507q-14 0 -31 -1l-34 -2q-36 -3 -54.5 -17t-23.5 -43
q-4 -28 10 -41.5t48 -13.5q18 0 37.5 4.5t29.5 8.5zM71 315h204l-6 -36h-204z" />
    <glyph glyph-name="ordmasculine" unicode="&#xba;" horiz-adv-x="362" 
d="M193 362q-57 0 -82 37t-13 103q11 66 49 103t95 37t82 -37t14 -103q-12 -66 -50 -103t-95 -37zM295 502q9 53 -5.5 83t-51.5 30q-38 0 -64 -30t-35 -83q-10 -53 5.5 -83t53.5 -30q37 0 62 30t35 83zM67 279l6 36h222l-6 -36h-222z" />
    <glyph glyph-name="ae" unicode="&#xe6;" horiz-adv-x="768" 
d="M659 19q-13 -5 -61 -19t-104 -14q-41 0 -73 11.5t-54 33.5v-2q-43 -19 -88.5 -31t-89.5 -12q-96 0 -140 39t-31 111q10 61 62.5 97.5t138.5 42.5q31 2 62 3.5t58 1.5l6 33q10 54 -12.5 77t-82.5 23q-27 0 -63 -5.5t-73 -15.5l-3 40q41 13 83 20t84 7q53 0 86 -16t46 -49
q31 31 71.5 48t89.5 17q34 0 65 -8.5t52 -25.5t31.5 -43t4.5 -60q-9 -51 -41.5 -80t-78.5 -44t-101 -19t-109 -4q-4 -71 25 -107.5t83 -36.5q51 0 94 13.5t57 18.5zM563 414q-54 0 -96.5 -39.5t-62.5 -129.5l-4 -22q43 1 86.5 5t79.5 15t60.5 32t30.5 55q7 45 -23.5 64.5
t-70.5 19.5zM89 130q-8 -48 17.5 -73t81.5 -25q27 0 61.5 6.5t90.5 31.5q-13 28 -16 67t5 86q1 3 1.5 6.5t1.5 6.5q-26 0 -54 -1.5t-58 -4.5q-60 -5 -91.5 -29.5t-39.5 -70.5z" />
    <glyph glyph-name="oslash" unicode="&#xf8;" horiz-adv-x="510" 
d="M448 222q-20 -111 -85 -173.5t-162 -62.5q-43 0 -76 12.5t-54 36.5l-37 -35h-51l68 65q-15 29 -18 68.5t5 88.5q20 112 85 175t162 63q43 0 75 -12.5t54 -36.5l36 35h48l-65 -62q16 -30 20 -71t-5 -91zM109 222q-5 -31 -5.5 -56.5t3.5 -47.5l259 247q-13 24 -35.5 36.5
t-53.5 12.5q-63 0 -107.5 -51t-60.5 -141zM377 222q5 32 5.5 59.5t-4.5 49.5l-259 -249q13 -25 36 -37.5t54 -12.5q63 0 107.5 50t60.5 140z" />
    <glyph glyph-name="questiondown" unicode="&#xbf;" horiz-adv-x="477" 
d="M403 628l-14 -76h-95l13 76h96zM410 35q-48 -22 -96.5 -35.5t-97.5 -13.5q-107 0 -165.5 45t-45.5 118q12 66 52 96t86 49q48 19 89.5 41t51.5 73l7 38h68l-6 -34q-7 -41 -26 -66.5t-44 -43t-54 -30t-55 -26.5q-30 -16 -58 -42t-35 -64q-8 -49 34 -78.5t110 -29.5
q40 0 85 11.5t91 30.5z" />
    <glyph glyph-name="exclamdown" unicode="&#xa1;" horiz-adv-x="242" 
d="M131 628h96l-14 -76h-95zM116 0h-96l98 446h59z" />
    <glyph glyph-name="logicalnot" unicode="&#xac;" horiz-adv-x="531" 
d="M468 315l-47 -266h-74l38 217h-341l8 49h416z" />
    <glyph glyph-name="florin" unicode="&#x192;" horiz-adv-x="521" 
d="M24 -59q43 0 65 18.5t41 69.5l139 371h-73l18 46h73l21 58q27 72 72 105t116 33q17 0 33 -4.5t31 -8.5l-28 -41q-9 4 -21 6t-25 2q-38 0 -60.5 -20.5t-41.5 -71.5l-22 -58h106l-18 -46h-106l-138 -371q-26 -69 -72 -101.5t-120 -32.5q-16 0 -32 3.5t-31 9.5l27 41
q10 -4 21.5 -6t24.5 -2z" />
    <glyph glyph-name="guillemotleft" unicode="&#xab;" horiz-adv-x="424" 
d="M191 137l-50 -38l-108 194l177 195l38 -42l-142 -157zM351 137l-50 -38l-108 194l177 195l38 -42l-142 -157z" />
    <glyph glyph-name="guillemotright" unicode="&#xbb;" horiz-adv-x="425" 
d="M232 293l-176 -194l-41 43l143 157l-83 149l49 40zM393 293l-176 -194l-41 43l143 157l-83 149l49 40z" />
    <glyph glyph-name="ellipsis" unicode="&#x2026;" horiz-adv-x="539" 
d="M103 0h-95l14 77h95zM265 0h-95l14 77h95zM427 0h-95l14 77h95z" />
    <glyph glyph-name="Agrave" unicode="&#xc0;" horiz-adv-x="566" 
d="M325 711l-91 109h90l61 -109h-60zM417 0l-28 177h-272l-91 -177h-57l326 628h94l104 -628h-76zM141 223h240l-56 356z" />
    <glyph glyph-name="Atilde" unicode="&#xc3;" horiz-adv-x="566" 
d="M489 797l21 -26q-26 -33 -48.5 -46.5t-47.5 -13.5q-20 0 -33.5 5t-24.5 12q-12 6 -24.5 11.5t-31.5 5.5q-17 0 -30.5 -7t-29.5 -24l-21 25q25 33 47 46.5t49 13.5q24 0 38.5 -7t27.5 -14q10 -5 21 -9t27 -4t30 7.5t30 24.5zM417 0l-28 177h-272l-91 -177h-57l326 628h94
l104 -628h-76zM141 223h240l-56 356z" />
    <glyph glyph-name="Otilde" unicode="&#xd5;" horiz-adv-x="675" 
d="M544 797l21 -26q-26 -33 -48.5 -46.5t-47.5 -13.5q-20 0 -33.5 5t-24.5 12q-12 6 -24.5 11.5t-31.5 5.5q-17 0 -30.5 -7t-29.5 -24l-21 25q25 33 47 46.5t49 13.5q24 0 38.5 -7t27.5 -14q10 -5 21 -9t27 -4t30 7.5t30 24.5zM400 642q140 0 200 -84.5t31 -244.5
q-28 -159 -117 -243t-230 -84q-140 0 -199.5 84t-31.5 243q28 160 117.5 244.5t229.5 84.5zM292 32q103 0 171 72t92 209q25 138 -17.5 210.5t-146.5 72.5q-102 0 -169.5 -72.5t-92.5 -210.5q-24 -137 18.5 -209t144.5 -72z" />
    <glyph glyph-name="OE" unicode="&#x152;" horiz-adv-x="847" 
d="M861 628l-9 -46h-300l-41 -232h265l-9 -47h-264l-45 -257h300l-8 -46h-357q-25 -7 -53 -11t-56 -4q-141 0 -200 84t-31 244t117 244.5t230 84.5q28 0 54 -3.5t48 -10.5h359zM131 313q-24 -137 17.5 -209.5t143.5 -72.5q25 0 48 4.5t45 13.5l92 529q-18 9 -39.5 13.5
t-46.5 4.5q-102 0 -168.5 -72.5t-91.5 -210.5z" />
    <glyph glyph-name="oe" unicode="&#x153;" horiz-adv-x="812" 
d="M704 19q-13 -5 -61 -19t-104 -14q-59 0 -98.5 23.5t-57.5 66.5q-34 -43 -81 -66.5t-106 -23.5q-97 0 -139.5 62.5t-23.5 173.5q20 112 85 175t162 63q58 0 97 -23t57 -66q32 43 78.5 66t103.5 23q34 0 65 -8.5t52 -25.5t31.5 -43t4.5 -60q-9 -51 -41.5 -80t-78.5 -44
t-101 -19t-109 -4q-4 -71 25 -107.5t83 -36.5q51 0 94 13.5t57 18.5zM608 414q-58 0 -102 -45t-61 -146q43 1 86.5 5t79.5 15t60.5 32t30.5 55q7 45 -23.5 64.5t-70.5 19.5zM372 222q16 90 -10.5 141t-89.5 51t-107.5 -51t-60.5 -141t10.5 -140t89.5 -50t107.5 50t60.5 140z
" />
    <glyph glyph-name="endash" unicode="&#x2013;" horiz-adv-x="329" 
d="M53 242h205l-7 -37h-205z" />
    <glyph glyph-name="emdash" unicode="&#x2014;" horiz-adv-x="500" 
d="M53 242h376l-7 -37h-376z" />
    <glyph glyph-name="quotedblleft" unicode="&#x201c;" horiz-adv-x="329" 
d="M281 628h59l-53 -178h-94zM160 628h58l-53 -178h-93z" />
    <glyph glyph-name="quotedblright" unicode="&#x201d;" horiz-adv-x="320" 
d="M137 450h-57l53 178h93zM258 450h-58l54 178h94z" />
    <glyph glyph-name="quoteleft" unicode="&#x2018;" horiz-adv-x="208" 
d="M161 628h58l-53 -178h-94z" />
    <glyph glyph-name="quoteright" unicode="&#x2019;" horiz-adv-x="200" 
d="M137 450h-57l53 178h94z" />
    <glyph glyph-name="divide" unicode="&#xf7;" horiz-adv-x="439" 
d="M188 347l13 76h96l-14 -76h-95zM38 190l12 68h326l-12 -68h-326zM131 26l14 76h95l-13 -76h-96z" />
    <glyph glyph-name="ydieresis" unicode="&#xff;" horiz-adv-x="420" 
d="M242 628l-17 -97h-68l17 97h68zM382 628l-17 -97h-68l17 97h68zM427 446l-378 -655h-58l146 255l-86 400h77l63 -309l177 309h59z" />
    <glyph glyph-name="Ydieresis" unicode="&#x178;" horiz-adv-x="507" 
d="M310 808l-18 -97h-69l17 97h70zM465 808l-17 -97h-69l17 97h69zM530 628l-240 -338l-51 -290h-74l51 286l-126 342h80l98 -290l198 290h64z" />
    <glyph glyph-name="fraction" unicode="&#x2044;" horiz-adv-x="135" 
d="M275 628h58l-463 -628h-61z" />
    <glyph glyph-name="currency" unicode="&#xa4;" horiz-adv-x="463" 
d="M18 99l54 50q-7 19 -9.5 42.5t1.5 48.5t15.5 48.5t27.5 42.5l-40 53l51 44l39 -54q19 13 41.5 19.5t44.5 6.5q26 0 48.5 -7t39.5 -20l60 56l38 -48l-59 -53q10 -19 13 -41.5t-1 -46.5q-4 -26 -16 -50t-28 -43l37 -50l-52 -42l-35 48q-22 -14 -48.5 -22.5t-53.5 -8.5
q-22 0 -41.5 7t-35.5 19l-52 -48zM240 348q-40 0 -75 -32.5t-43 -78.5q-8 -45 15.5 -77t63.5 -32q43 0 78.5 32t43.5 77q7 46 -16.5 78.5t-66.5 32.5z" />
    <glyph glyph-name="guilsinglleft" unicode="&#x2039;" horiz-adv-x="265" 
d="M191 137l-50 -38l-108 194l177 195l38 -42l-142 -157z" />
    <glyph glyph-name="guilsinglright" unicode="&#x203a;" horiz-adv-x="266" 
d="M232 293l-176 -194l-41 43l143 157l-83 149l49 40z" />
    <glyph glyph-name="daggerdbl" unicode="&#x2021;" horiz-adv-x="520" 
d="M17 101h172l48 273h-172l8 46h172l37 208h73l-37 -208h174l-9 -46h-173l-48 -273h173l-8 -46h-173l-38 -217h-73l38 217h-172z" />
    <glyph glyph-name="periodcentered" unicode="&#xb7;" horiz-adv-x="220" 
d="M140 197h-95l13 77h96z" />
    <glyph glyph-name="quotesinglbase" unicode="&#x201a;" horiz-adv-x="213" 
d="M28 -102h-53l53 179h89z" />
    <glyph glyph-name="quotedblbase" unicode="&#x201e;" horiz-adv-x="339" 
d="M32 -102h-57l53 179h93zM154 -102h-59l54 179h94z" />
    <glyph glyph-name="perthousand" unicode="&#x2030;" horiz-adv-x="1144" 
d="M238 642q69 0 99 -43t17 -121q-13 -77 -59 -120t-115 -43t-99 43t-17 120q14 78 59.5 121t114.5 43zM671 628h60l-602 -628h-67zM233 611q-43 0 -73.5 -35t-41.5 -98q-11 -62 7 -97t61 -35t74 35t41 97q11 63 -7 98t-61 35zM615 314q69 0 100 -43t17 -121
q-13 -78 -59 -121t-115 -43t-99.5 43t-16.5 121q13 78 58.5 121t114.5 43zM977 314q69 0 99 -43t17 -121q-14 -78 -59.5 -121t-114.5 -43t-99 43t-17 121t59 121t115 43zM610 283q-43 0 -73.5 -35t-41.5 -98t7 -98t61 -35t73.5 35t41.5 98t-7 98t-61 35zM971 283
q-43 0 -74 -35t-42 -98q-10 -63 8 -98t61 -35t73.5 35t41.5 98t-7 98t-61 35z" />
    <glyph glyph-name="Acircumflex" unicode="&#xc2;" horiz-adv-x="566" 
d="M483 711h-59l-53 67l-78 -67h-62l103 109h84zM417 0l-28 177h-272l-91 -177h-57l326 628h94l104 -628h-76zM141 223h240l-56 356z" />
    <glyph glyph-name="Ecircumflex" unicode="&#xca;" 
d="M470 711h-59l-53 67l-78 -67h-62l103 109h84zM517 628l-9 -46h-300l-41 -232h265l-9 -47h-264l-45 -257h300l-8 -46h-374l110 628h375z" />
    <glyph glyph-name="Aacute" unicode="&#xc1;" horiz-adv-x="566" 
d="M387 711h-62l100 109h90zM417 0l-28 177h-272l-91 -177h-57l326 628h94l104 -628h-76zM141 223h240l-56 356z" />
    <glyph glyph-name="Edieresis" unicode="&#xcb;" 
d="M319 808l-18 -97h-69l17 97h70zM474 808l-17 -97h-69l17 97h69zM517 628l-9 -46h-300l-41 -232h265l-9 -47h-264l-45 -257h300l-8 -46h-374l110 628h375z" />
    <glyph glyph-name="Egrave" unicode="&#xc8;" 
d="M334 711l-91 109h90l61 -109h-60zM517 628l-9 -46h-300l-41 -232h265l-9 -47h-264l-45 -257h300l-8 -46h-374l110 628h375z" />
    <glyph glyph-name="Iacute" unicode="&#xcd;" horiz-adv-x="242" 
d="M229 698h-62l100 109h90zM216 628l-110 -628h-74l110 628h74z" />
    <glyph glyph-name="Icircumflex" unicode="&#xce;" horiz-adv-x="242" 
d="M321 711h-59l-53 67l-78 -67h-62l103 109h84zM216 628l-110 -628h-74l110 628h74z" />
    <glyph glyph-name="Idieresis" unicode="&#xcf;" horiz-adv-x="242" 
d="M168 808l-18 -97h-69l17 97h70zM323 808l-17 -97h-69l17 97h69zM216 628l-110 -628h-74l110 628h74z" />
    <glyph glyph-name="Igrave" unicode="&#xcc;" horiz-adv-x="242" 
d="M171 711l-91 109h90l61 -109h-60zM216 628l-110 -628h-74l110 628h74z" />
    <glyph glyph-name="Oacute" unicode="&#xd3;" horiz-adv-x="675" 
d="M432 698h-62l100 109h90zM400 642q140 0 200 -84.5t31 -244.5q-28 -159 -117 -243t-230 -84q-140 0 -199.5 84t-31.5 243q28 160 117.5 244.5t229.5 84.5zM292 32q103 0 171 72t92 209q25 138 -17.5 210.5t-146.5 72.5q-102 0 -169.5 -72.5t-92.5 -210.5
q-24 -137 18.5 -209t144.5 -72z" />
    <glyph glyph-name="Ocircumflex" unicode="&#xd4;" horiz-adv-x="675" 
d="M538 711h-59l-53 67l-78 -67h-62l103 109h84zM400 642q140 0 200 -84.5t31 -244.5q-28 -159 -117 -243t-230 -84q-140 0 -199.5 84t-31.5 243q28 160 117.5 244.5t229.5 84.5zM292 32q103 0 171 72t92 209q25 138 -17.5 210.5t-146.5 72.5q-102 0 -169.5 -72.5
t-92.5 -210.5q-24 -137 18.5 -209t144.5 -72z" />
    <glyph glyph-name="Ograve" unicode="&#xd2;" horiz-adv-x="675" 
d="M381 711l-91 109h90l61 -109h-60zM400 642q140 0 200 -84.5t31 -244.5q-28 -159 -117 -243t-230 -84q-140 0 -199.5 84t-31.5 243q28 160 117.5 244.5t229.5 84.5zM292 32q103 0 171 72t92 209q25 138 -17.5 210.5t-146.5 72.5q-102 0 -169.5 -72.5t-92.5 -210.5
q-24 -137 18.5 -209t144.5 -72z" />
    <glyph glyph-name="Uacute" unicode="&#xda;" horiz-adv-x="632" 
d="M415 711h-62l100 109h90zM538 628h74l-75 -427q-18 -102 -91 -159t-185 -57t-165 57t-34 159l75 427h74l-77 -436q-15 -85 17 -123t118 -38q87 0 132 38t60 123z" />
    <glyph glyph-name="Ucircumflex" unicode="&#xdb;" horiz-adv-x="632" 
d="M516 711h-59l-53 67l-78 -67h-62l103 109h84zM538 628h74l-75 -427q-18 -102 -91 -159t-185 -57t-165 57t-34 159l75 427h74l-77 -436q-15 -85 17 -123t118 -38q87 0 132 38t60 123z" />
    <glyph glyph-name="Ugrave" unicode="&#xd9;" horiz-adv-x="632" 
d="M374 711l-91 109h90l61 -109h-60zM538 628h74l-75 -427q-18 -102 -91 -159t-185 -57t-165 57t-34 159l75 427h74l-77 -436q-15 -85 17 -123t118 -38q87 0 132 38t60 123z" />
    <glyph glyph-name="dotlessi" unicode="&#x131;" horiz-adv-x="218" 
d="M171 446l-79 -446h-70l79 446h70z" />
    <glyph glyph-name="circumflex" unicode="&#x2c6;" horiz-adv-x="369" 
d="M350 531h-53l-59 68l-83 -68h-58l104 107h83z" />
    <glyph glyph-name="tilde" unicode="&#x2dc;" horiz-adv-x="461" 
d="M398 616l21 -26q-26 -33 -48 -46t-50 -13q-19 0 -32 5t-24 11q-13 7 -25.5 12.5t-31.5 5.5q-17 0 -30.5 -7t-30.5 -25l-21 26q27 33 48.5 46t48.5 13q22 0 36.5 -6t26.5 -13q10 -5 22 -9.5t29 -4.5t31 7t30 24z" />
    <glyph glyph-name="macron" unicode="&#xaf;" horiz-adv-x="487" 
d="M175 571l10 57h260l-10 -57h-260z" />
    <glyph glyph-name="breve" unicode="&#x2d8;" horiz-adv-x="373" 
d="M371 638q-5 -27 -19 -48t-34 -34.5t-43.5 -21t-47.5 -7.5q-50 0 -84 27t-24 84h57q-6 -36 13 -52t44 -16q27 0 49 17t29 51h60z" />
    <glyph glyph-name="dotaccent" unicode="&#x2d9;" horiz-adv-x="192" 
d="M186 628l-17 -97h-71l17 97h71z" />
    <glyph glyph-name="ring" unicode="&#x2da;" horiz-adv-x="272" 
d="M299 614v-9t-1 -10q-6 -34 -36 -51.5t-84 -17.5t-79 17.5t-18 51.5q6 34 36.5 51.5t84.5 17.5q47 0 71.5 -12.5t25.5 -37.5zM229 595q4 25 -3 34.5t-28 9.5q-23 0 -34 -9.5t-15 -34.5t3.5 -34.5t29.5 -9.5t32.5 9.5t14.5 34.5z" />
    <glyph glyph-name="cedilla" unicode="&#xb8;" horiz-adv-x="602" 
d="M229 -170l15 42q13 -4 23.5 -6t18.5 -2q20 0 32 7.5t14 21.5t-7 22t-30 8q-8 0 -19.5 -2.5t-24.5 -6.5v41q16 4 32.5 6.5t32.5 2.5q50 0 73 -18.5t17 -52.5q-6 -35 -36 -53.5t-80 -18.5q-13 0 -29 2.5t-32 6.5z" />
    <glyph glyph-name="hungarumlaut" unicode="&#x2dd;" horiz-adv-x="587" 
d="M209 531h-56l99 107h89zM336 531h-56l99 107h89z" />
    <glyph glyph-name="ogonek" unicode="&#x2db;" horiz-adv-x="466" 
d="M283 34l27 -17q-72 -56 -97 -83t-30 -56q-4 -23 15.5 -40.5t48.5 -17.5q21 0 40.5 1.5t40.5 4.5l-7 -37q-22 -7 -51 -9.5t-48 -2.5q-48 0 -77 28.5t-22 65.5q8 46 45.5 84t114.5 79z" />
    <glyph glyph-name="caron" unicode="&#x2c7;" horiz-adv-x="349" 
d="M361 638l-104 -107h-84l-65 107h57l57 -66l80 66h59z" />
    <glyph glyph-name=".null" horiz-adv-x="0" 
 />
    <glyph glyph-name="uni00A0" unicode="&#xa0;" horiz-adv-x="215" 
 />
    <glyph glyph-name="Abreve" unicode="&#x102;" horiz-adv-x="566" 
d="M501 820q-10 -52 -48.5 -83t-95.5 -31t-86.5 30.5t-20.5 83.5h57q-6 -34 9.5 -54t46.5 -20t52.5 20t27.5 54h58zM417 0l-28 177h-272l-91 -177h-57l326 628h94l104 -628h-76zM141 223h240l-56 356z" />
    <glyph glyph-name="uni01CD" unicode="&#x1cd;" horiz-adv-x="566" 
d="M502 820l-104 -109h-83l-65 109h60l52 -68l76 68h64zM417 0l-28 177h-272l-91 -177h-57l326 628h94l104 -628h-76zM141 223h240l-56 356z" />
    <glyph glyph-name="uni1EA0" unicode="&#x1ea0;" horiz-adv-x="566" 
d="M417 0l-28 177h-272l-91 -177h-57l326 628h94l104 -628h-76zM141 223h240l-56 356zM235 -145h-82l14 77h82z" />
    <glyph glyph-name="Amacron" unicode="&#x100;" horiz-adv-x="566" 
d="M226 711l10 57h260l-10 -57h-260zM417 0l-28 177h-272l-91 -177h-57l326 628h94l104 -628h-76zM141 223h240l-56 356z" />
    <glyph glyph-name="Aogonek" unicode="&#x104;" horiz-adv-x="566" 
d="M493 -211q-22 -7 -51 -9.5t-48 -2.5q-48 0 -77 28.5t-22 65.5q7 40 35.5 73t84.5 67l-26 166h-272l-91 -177h-57l326 628h94l104 -628h-33q-59 -46 -80 -70.5t-25 -51.5q-4 -23 15.5 -40.5t48.5 -17.5q21 0 40.5 1.5t40.5 4.5zM141 223h240l-56 356z" />
    <glyph glyph-name="Aringacute" unicode="&#x1fa;" horiz-adv-x="566" 
d="M417 0l-28 177h-272l-91 -177h-57l321 619q-28 7 -39.5 22.5t-7.5 41.5q4 28 24 44.5t55 21.5l95 104h90l-120 -102q43 -4 60.5 -20.5t11.5 -47.5q-4 -26 -21 -41.5t-48 -21.5l103 -620h-76zM391 683q4 25 -3 35t-29 10t-33 -10t-15 -35q-4 -24 3 -34t29 -10t33 10t15 34
zM141 223h240l-56 356z" />
    <glyph glyph-name="AEacute" unicode="&#x1fc;" horiz-adv-x="784" 
d="M539 698h-62l100 109h90zM797 628l-9 -46h-300l-41 -232h265l-9 -47h-264l-45 -257h300l-8 -46h-374l31 177h-206l-92 -177h-78l328 628h502zM347 582l-186 -359h190l63 359h-67z" />
    <glyph glyph-name="uni1E02" unicode="&#x1e02;" horiz-adv-x="599" 
d="M309 711l17 97h81l-17 -97h-81zM383 353q86 -7 127.5 -48.5t30.5 -108.5q-18 -101 -112.5 -148.5t-277.5 -47.5h-119l110 628h208q101 0 151.5 -37t39.5 -103q-8 -47 -50 -83t-108 -52zM337 582h-129l-39 -221q138 0 211.5 31.5t84.5 95.5q8 48 -23.5 71t-104.5 23z
M114 46h68q134 0 200.5 37t81.5 121q9 51 -31.5 84t-112.5 33q-40 0 -80 -3t-80 -8z" />
    <glyph glyph-name="Cacute" unicode="&#x106;" horiz-adv-x="551" 
d="M401 698h-62l100 109h90zM472 62l4 -42q-49 -18 -98 -26t-96 -8q-140 0 -198 84t-30 245q28 160 116 243.5t228 83.5q48 0 93.5 -8.5t87.5 -27.5l-19 -43q-38 16 -80 24.5t-89 8.5q-104 0 -170.5 -71.5t-90.5 -209.5q-25 -139 16.5 -211t145.5 -72q46 0 90 7t90 23z" />
    <glyph glyph-name="Ccaron" unicode="&#x10c;" horiz-adv-x="551" 
d="M545 820l-104 -109h-83l-65 109h60l52 -68l76 68h64zM472 62l4 -42q-49 -18 -98 -26t-96 -8q-140 0 -198 84t-30 245q28 160 116 243.5t228 83.5q48 0 93.5 -8.5t87.5 -27.5l-19 -43q-38 16 -80 24.5t-89 8.5q-104 0 -170.5 -71.5t-90.5 -209.5q-25 -139 16.5 -211
t145.5 -72q46 0 90 7t90 23z" />
    <glyph glyph-name="Ccircumflex" unicode="&#x108;" horiz-adv-x="551" 
d="M529 711h-59l-53 67l-78 -67h-62l103 109h84zM472 62l4 -42q-49 -18 -98 -26t-96 -8q-140 0 -198 84t-30 245q28 160 116 243.5t228 83.5q48 0 93.5 -8.5t87.5 -27.5l-19 -43q-38 16 -80 24.5t-89 8.5q-104 0 -170.5 -71.5t-90.5 -209.5q-25 -139 16.5 -211t145.5 -72
q46 0 90 7t90 23z" />
    <glyph glyph-name="Cdotaccent" unicode="&#x10a;" horiz-adv-x="551" 
d="M362 711l17 97h81l-17 -97h-81zM472 62l4 -42q-49 -18 -98 -26t-96 -8q-140 0 -198 84t-30 245q28 160 116 243.5t228 83.5q48 0 93.5 -8.5t87.5 -27.5l-19 -43q-38 16 -80 24.5t-89 8.5q-104 0 -170.5 -71.5t-90.5 -209.5q-25 -139 16.5 -211t145.5 -72q46 0 90 7t90 23
z" />
    <glyph glyph-name="Dcaron" unicode="&#x10e;" horiz-adv-x="623" 
d="M513 820l-104 -109h-83l-65 109h60l52 -68l76 68h64zM142 628h204q142 0 200.5 -79t30.5 -236q-28 -156 -113.5 -234.5t-227.5 -78.5h-204zM114 46h129q104 0 169 67t89 200q23 134 -18.5 201.5t-145.5 67.5h-129z" />
    <glyph glyph-name="Dcroat" unicode="&#x110;" horiz-adv-x="629" 
d="M41 346h57l49 282h204q142 0 200.5 -79t30.5 -236q-28 -156 -113.5 -234.5t-227.5 -78.5h-204l53 300h-57zM119 46h129q104 0 169 67t89 200q23 134 -18.5 201.5t-145.5 67.5h-129l-41 -236h153l-8 -46h-153z" />
    <glyph glyph-name="uni1E0A" unicode="&#x1e0a;" horiz-adv-x="623" 
d="M337 711l17 97h81l-17 -97h-81zM142 628h204q142 0 200.5 -79t30.5 -236q-28 -156 -113.5 -234.5t-227.5 -78.5h-204zM114 46h129q104 0 169 67t89 200q23 134 -18.5 201.5t-145.5 67.5h-129z" />
    <glyph glyph-name="uni1E0C" unicode="&#x1e0c;" horiz-adv-x="623" 
d="M142 628h204q142 0 200.5 -79t30.5 -236q-28 -156 -113.5 -234.5t-227.5 -78.5h-204zM114 46h129q104 0 169 67t89 200q23 134 -18.5 201.5t-145.5 67.5h-129zM274 -145h-82l14 77h82z" />
    <glyph glyph-name="Ebreve" unicode="&#x114;" 
d="M492 820q-10 -52 -48.5 -83t-95.5 -31t-86.5 30.5t-20.5 83.5h57q-6 -34 9.5 -54t46.5 -20t52.5 20t27.5 54h58zM517 628l-9 -46h-300l-41 -232h265l-9 -47h-264l-45 -257h300l-8 -46h-374l110 628h375z" />
    <glyph glyph-name="Ecaron" unicode="&#x11a;" 
d="M491 820l-104 -109h-83l-65 109h60l52 -68l76 68h64zM517 628l-9 -46h-300l-41 -232h265l-9 -47h-264l-45 -257h300l-8 -46h-374l110 628h375z" />
    <glyph glyph-name="Edotaccent" unicode="&#x116;" 
d="M307 711l17 97h81l-17 -97h-81zM517 628l-9 -46h-300l-41 -232h265l-9 -47h-264l-45 -257h300l-8 -46h-374l110 628h375z" />
    <glyph glyph-name="uni1EB8" unicode="&#x1eb8;" 
d="M517 628l-9 -46h-300l-41 -232h265l-9 -47h-264l-45 -257h300l-8 -46h-374l110 628h375zM236 -145h-82l14 77h82z" />
    <glyph glyph-name="Emacron" unicode="&#x112;" 
d="M217 711l10 57h260l-10 -57h-260zM517 628l-9 -46h-300l-41 -232h265l-9 -47h-264l-45 -257h300l-8 -46h-374l110 628h375z" />
    <glyph glyph-name="Eogonek" unicode="&#x118;" 
d="M517 628l-9 -46h-300l-41 -232h265l-9 -47h-264l-45 -257h300l-8 -46h-22q-59 -46 -80 -70.5t-25 -51.5q-4 -23 15.5 -40.5t48.5 -17.5q21 0 40.5 1.5t40.5 4.5l-7 -37q-22 -7 -51 -9.5t-48 -2.5q-48 0 -77 28.5t-22 65.5t31 67.5t71 61.5h-289l110 628h375z" />
    <glyph glyph-name="uni1EBC" unicode="&#x1ebc;" 
d="M479 797l21 -26q-26 -33 -48.5 -46.5t-47.5 -13.5q-20 0 -33.5 5t-24.5 12q-12 6 -24.5 11.5t-31.5 5.5q-17 0 -30.5 -7t-29.5 -24l-21 25q25 33 47 46.5t49 13.5q24 0 38.5 -7t27.5 -14q10 -5 21 -9t27 -4t30 7.5t30 24.5zM517 628l-9 -46h-300l-41 -232h265l-9 -47
h-264l-45 -257h300l-8 -46h-374l110 628h375z" />
    <glyph glyph-name="uni1E1E" unicode="&#x1e1e;" horiz-adv-x="482" 
d="M310 711l17 97h81l-17 -97h-81zM515 628l-8 -46h-299l-41 -234h263l-8 -46h-263l-53 -302h-74l110 628h373z" />
    <glyph glyph-name="uni01F4" unicode="&#x1f4;" horiz-adv-x="587" 
d="M415 711h-62l100 109h90zM327 333h207l-57 -319q-40 -14 -89 -21t-106 -7q-143 0 -200 83t-29 248q29 161 115 243t229 82q51 0 97.5 -9t84.5 -27l-19 -43q-43 15 -82.5 24t-87.5 9q-105 0 -170.5 -70t-90.5 -209q-25 -142 16 -213.5t145 -71.5q34 0 64 4t55 12l42 238
h-132z" />
    <glyph glyph-name="Gbreve" unicode="&#x11e;" horiz-adv-x="587" 
d="M532 820q-10 -52 -48.5 -83t-95.5 -31t-86.5 30.5t-20.5 83.5h57q-6 -34 9.5 -54t46.5 -20t52.5 20t27.5 54h58zM327 333h207l-57 -319q-40 -14 -89 -21t-106 -7q-143 0 -200 83t-29 248q29 161 115 243t229 82q51 0 97.5 -9t84.5 -27l-19 -43q-43 15 -82.5 24t-87.5 9
q-105 0 -170.5 -70t-90.5 -209q-25 -142 16 -213.5t145 -71.5q34 0 64 4t55 12l42 238h-132z" />
    <glyph glyph-name="Gcaron" unicode="&#x1e6;" horiz-adv-x="587" 
d="M537 820l-104 -109h-83l-65 109h60l52 -68l76 68h64zM327 333h207l-57 -319q-40 -14 -89 -21t-106 -7q-143 0 -200 83t-29 248q29 161 115 243t229 82q51 0 97.5 -9t84.5 -27l-19 -43q-43 15 -82.5 24t-87.5 9q-105 0 -170.5 -70t-90.5 -209q-25 -142 16 -213.5
t145 -71.5q34 0 64 4t55 12l42 238h-132z" />
    <glyph glyph-name="Gcircumflex" unicode="&#x11c;" horiz-adv-x="587" 
d="M518 711h-59l-53 67l-78 -67h-62l103 109h84zM327 333h207l-57 -319q-40 -14 -89 -21t-106 -7q-143 0 -200 83t-29 248q29 161 115 243t229 82q51 0 97.5 -9t84.5 -27l-19 -43q-43 15 -82.5 24t-87.5 9q-105 0 -170.5 -70t-90.5 -209q-25 -142 16 -213.5t145 -71.5
q34 0 64 4t55 12l42 238h-132z" />
    <glyph glyph-name="uni0122" unicode="&#x122;" horiz-adv-x="587" 
d="M327 333h207l-57 -319q-40 -14 -89 -21t-106 -7q-143 0 -200 83t-29 248q29 161 115 243t229 82q51 0 97.5 -9t84.5 -27l-19 -43q-43 15 -82.5 24t-87.5 9q-105 0 -170.5 -70t-90.5 -209q-25 -142 16 -213.5t145 -71.5q34 0 64 4t55 12l42 238h-132zM216 -246h-58l54 178
h94z" />
    <glyph glyph-name="Gdotaccent" unicode="&#x120;" horiz-adv-x="587" 
d="M360 711l17 97h81l-17 -97h-81zM327 333h207l-57 -319q-40 -14 -89 -21t-106 -7q-143 0 -200 83t-29 248q29 161 115 243t229 82q51 0 97.5 -9t84.5 -27l-19 -43q-43 15 -82.5 24t-87.5 9q-105 0 -170.5 -70t-90.5 -209q-25 -142 16 -213.5t145 -71.5q34 0 64 4t55 12
l42 238h-132z" />
    <glyph glyph-name="Hbar" unicode="&#x126;" horiz-adv-x="620" 
d="M60 464l7 40h56l22 124h74l-22 -124h298l22 124h74l-22 -124h58l-7 -40h-58l-82 -464h-74l54 304h-298l-53 -304h-74l81 464h-56zM468 350l20 114h-298l-20 -114h298z" />
    <glyph glyph-name="Hcircumflex" unicode="&#x124;" horiz-adv-x="613" 
d="M508 711h-59l-53 67l-78 -67h-62l103 109h84zM465 350l49 278h74l-111 -628h-74l54 304h-298l-53 -304h-74l110 628h74l-49 -278h298z" />
    <glyph glyph-name="uni1E24" unicode="&#x1e24;" horiz-adv-x="613" 
d="M465 350l49 278h74l-111 -628h-74l54 304h-298l-53 -304h-74l110 628h74l-49 -278h298zM270 -145h-82l14 77h82z" />
    <glyph glyph-name="IJ" unicode="&#x132;" horiz-adv-x="494" 
d="M216 628l-110 -628h-74l110 628h74zM396 628h74l-117 -665q-13 -72 -52.5 -103.5t-115.5 -31.5q-17 0 -31.5 3t-27.5 9l17 41q11 -3 22.5 -5t22.5 -2q43 0 62.5 19t28.5 70z" />
    <glyph glyph-name="Ibreve" unicode="&#x12c;" horiz-adv-x="242" 
d="M339 820q-10 -52 -48.5 -83t-95.5 -31t-86.5 30.5t-20.5 83.5h57q-6 -34 9.5 -54t46.5 -20t52.5 20t27.5 54h58zM216 628l-110 -628h-74l110 628h74z" />
    <glyph glyph-name="uni01CF" unicode="&#x1cf;" horiz-adv-x="242" 
d="M340 820l-104 -109h-83l-65 109h60l52 -68l76 68h64zM216 628l-110 -628h-74l110 628h74z" />
    <glyph glyph-name="Idotaccent" unicode="&#x130;" horiz-adv-x="242" 
d="M154 711l17 97h81l-17 -97h-81zM216 628l-110 -628h-74l110 628h74z" />
    <glyph glyph-name="uni1ECA" unicode="&#x1eca;" horiz-adv-x="242" 
d="M216 628l-110 -628h-74l110 628h74zM84 -145h-82l14 77h82z" />
    <glyph glyph-name="Imacron" unicode="&#x12a;" horiz-adv-x="242" 
d="M64 711l10 57h260l-10 -57h-260zM216 628l-110 -628h-74l110 628h74z" />
    <glyph glyph-name="Iogonek" unicode="&#x12e;" horiz-adv-x="242" 
d="M217 628l-110 -628h-23q-59 -46 -80 -70.5t-25 -51.5q-4 -23 15.5 -40.5t48.5 -17.5q21 0 40.5 1.5t40.5 4.5l-7 -37q-22 -7 -51 -9.5t-48 -2.5q-48 0 -77 28.5t-22 65.5q7 39 34.5 71.5t81.5 66.5l108 619h74z" />
    <glyph glyph-name="Itilde" unicode="&#x128;" horiz-adv-x="242" 
d="M327 797l21 -26q-26 -33 -48.5 -46.5t-47.5 -13.5q-20 0 -33.5 5t-24.5 12q-12 6 -24.5 11.5t-31.5 5.5q-17 0 -30.5 -7t-29.5 -24l-21 25q25 33 47 46.5t49 13.5q24 0 38.5 -7t27.5 -14q10 -5 21 -9t27 -4t30 7.5t30 24.5zM216 628l-110 -628h-74l110 628h74z" />
    <glyph glyph-name="Jcircumflex" unicode="&#x134;" horiz-adv-x="253" 
d="M333 711h-59l-53 67l-78 -67h-62l103 109h84zM154 628h74l-117 -665q-13 -72 -52.5 -103.5t-115.5 -31.5q-17 0 -31.5 3t-27.5 9l17 41q11 -3 22.5 -5t22.5 -2q43 0 62.5 19t28.5 70z" />
    <glyph glyph-name="uni0136" unicode="&#x136;" horiz-adv-x="541" 
d="M494 0h-83l-232 315h-18l-55 -315h-74l110 628h74l-48 -268h18l280 268h88l-308 -294zM192 -246h-58l54 178h94z" />
    <glyph glyph-name="Lacute" unicode="&#x139;" horiz-adv-x="480" 
d="M233 698h-62l100 109h90zM114 46h300l-8 -46h-374l110 628h74z" />
    <glyph glyph-name="Lcaron" unicode="&#x13d;" horiz-adv-x="483" 
d="M387 450h-57l53 178h94zM114 46h300l-8 -46h-374l110 628h74z" />
    <glyph glyph-name="uni013B" unicode="&#x13b;" horiz-adv-x="480" 
d="M114 46h300l-8 -46h-374l110 628h74zM167 -246h-58l54 178h94z" />
    <glyph glyph-name="uni1E40" unicode="&#x1e40;" horiz-adv-x="740" 
d="M405 711l17 97h81l-17 -97h-81zM581 628h99l-44 -628h-75l42 559l-255 -559h-87l-50 562l-148 -562h-60l172 628h101l54 -547z" />
    <glyph glyph-name="Nacute" unicode="&#x143;" horiz-adv-x="643" 
d="M432 698h-62l100 109h90zM564 628h54l-111 -628h-90l-235 552l-97 -552h-53l110 628h88l237 -550z" />
    <glyph glyph-name="Ncaron" unicode="&#x147;" horiz-adv-x="643" 
d="M542 820l-104 -109h-83l-65 109h60l52 -68l76 68h64zM564 628h54l-111 -628h-90l-235 552l-97 -552h-53l110 628h88l237 -550z" />
    <glyph glyph-name="uni0145" unicode="&#x145;" horiz-adv-x="643" 
d="M564 628h54l-111 -628h-90l-235 552l-97 -552h-53l110 628h88l237 -550zM225 -246h-58l54 178h94z" />
    <glyph glyph-name="uni1E44" unicode="&#x1e44;" horiz-adv-x="643" 
d="M364 711l17 97h81l-17 -97h-81zM564 628h54l-111 -628h-90l-235 552l-97 -552h-53l110 628h88l237 -550z" />
    <glyph glyph-name="Eng" unicode="&#x14a;" horiz-adv-x="643" 
d="M586 446l-94 -535q-13 -72 -46.5 -103t-84.5 -31h-11l-2 45h9t9 1q34 3 49 22.5t22 65.5l16 89h-36l-235 552l-97 -552h-53l110 628h88l237 -549l50 284l47 265h54z" />
    <glyph glyph-name="uni019D" unicode="&#x19d;" horiz-adv-x="643" 
d="M164 446l-40 -227l-39 -219v0l-16 -89q-13 -72 -45.5 -103t-83.5 -31h-12l-1 45h9t9 1q34 3 48.5 22.5t22.5 65.5l94 535v0l32 182h88l237 -550l97 550h54l-111 -628h-90l-235 552z" />
    <glyph glyph-name="Obreve" unicode="&#x14e;" horiz-adv-x="675" 
d="M556 820q-10 -52 -48.5 -83t-95.5 -31t-86.5 30.5t-20.5 83.5h57q-6 -34 9.5 -54t46.5 -20t52.5 20t27.5 54h58zM400 642q140 0 200 -84.5t31 -244.5q-28 -159 -117 -243t-230 -84q-140 0 -199.5 84t-31.5 243q28 160 117.5 244.5t229.5 84.5zM292 32q103 0 171 72
t92 209q25 138 -17.5 210.5t-146.5 72.5q-102 0 -169.5 -72.5t-92.5 -210.5q-24 -137 18.5 -209t144.5 -72z" />
    <glyph glyph-name="uni01D1" unicode="&#x1d1;" horiz-adv-x="675" 
d="M558 820l-104 -109h-83l-65 109h60l52 -68l76 68h64zM400 642q140 0 200 -84.5t31 -244.5q-28 -159 -117 -243t-230 -84q-140 0 -199.5 84t-31.5 243q28 160 117.5 244.5t229.5 84.5zM292 32q103 0 171 72t92 209q25 138 -17.5 210.5t-146.5 72.5q-102 0 -169.5 -72.5
t-92.5 -210.5q-24 -137 18.5 -209t144.5 -72z" />
    <glyph glyph-name="uni1ECC" unicode="&#x1ecc;" horiz-adv-x="675" 
d="M400 642q140 0 200 -84.5t31 -244.5q-28 -159 -117 -243t-230 -84q-140 0 -199.5 84t-31.5 243q28 160 117.5 244.5t229.5 84.5zM292 32q103 0 171 72t92 209q25 138 -17.5 210.5t-146.5 72.5q-102 0 -169.5 -72.5t-92.5 -210.5q-24 -137 18.5 -209t144.5 -72zM301 -145
h-82l14 77h82z" />
    <glyph glyph-name="Ohungarumlaut" unicode="&#x150;" horiz-adv-x="675" 
d="M373 711h-57l100 109h88zM500 711h-57l100 109h88zM400 642q140 0 200 -84.5t31 -244.5q-28 -159 -117 -243t-230 -84q-140 0 -199.5 84t-31.5 243q28 160 117.5 244.5t229.5 84.5zM292 32q103 0 171 72t92 209q25 138 -17.5 210.5t-146.5 72.5q-102 0 -169.5 -72.5
t-92.5 -210.5q-24 -137 18.5 -209t144.5 -72z" />
    <glyph glyph-name="Omacron" unicode="&#x14c;" horiz-adv-x="675" 
d="M282 711l10 57h260l-10 -57h-260zM400 642q140 0 200 -84.5t31 -244.5q-28 -159 -117 -243t-230 -84q-140 0 -199.5 84t-31.5 243q28 160 117.5 244.5t229.5 84.5zM292 32q103 0 171 72t92 209q25 138 -17.5 210.5t-146.5 72.5q-102 0 -169.5 -72.5t-92.5 -210.5
q-24 -137 18.5 -209t144.5 -72z" />
    <glyph glyph-name="uni01EA" unicode="&#x1ea;" horiz-adv-x="675" 
d="M400 642q140 0 200 -84.5t31 -244.5q-22 -125 -82 -204t-153 -107q-60 -48 -81 -72.5t-26 -51.5q-4 -23 15.5 -40.5t48.5 -17.5q21 0 40.5 1.5t40.5 4.5l-7 -37q-22 -7 -51 -9.5t-48 -2.5q-48 0 -77 28.5t-22 65.5q6 33 26 60.5t57 55.5q-7 -1 -14 -1h-14
q-140 0 -199.5 84t-31.5 243q28 160 117.5 244.5t229.5 84.5zM292 32q103 0 171 72t92 209q25 138 -17.5 210.5t-146.5 72.5q-102 0 -169.5 -72.5t-92.5 -210.5q-24 -137 18.5 -209t144.5 -72z" />
    <glyph glyph-name="Oslashacute" unicode="&#x1fe;" horiz-adv-x="688" 
d="M441 711h-62l100 109h90zM405 642q61 0 107.5 -16.5t77.5 -48.5l53 51h69l-94 -90q22 -40 26.5 -97t-8.5 -128q-28 -159 -117 -243t-230 -84q-61 0 -107.5 16.5t-76.5 47.5l-52 -50h-69l93 89q-22 40 -27 96.5t8 127.5q28 160 117.5 244.5t229.5 84.5zM134 313
q-9 -51 -8.5 -93.5t9.5 -75.5l404 385q-21 33 -57 50t-86 17q-102 0 -169.5 -72.5t-92.5 -210.5zM297 32q103 0 171 72t92 209q10 51 9.5 94t-9.5 76l-404 -385q21 -33 56.5 -49.5t84.5 -16.5z" />
    <glyph glyph-name="uni1E56" unicode="&#x1e56;" horiz-adv-x="567" 
d="M326 711l17 97h81l-17 -97h-81zM566 464q-18 -101 -107 -144.5t-282 -44.5h-23l-48 -275h-74l110 628h227q114 0 163 -40.5t34 -123.5zM490 469q10 57 -25 85t-114 28h-143l-46 -262q163 0 238.5 34t89.5 115z" />
    <glyph glyph-name="Racute" unicode="&#x154;" horiz-adv-x="582" 
d="M387 711h-62l100 109h90zM562 473q-13 -69 -61.5 -107t-110.5 -55l117 -311h-86l-101 297q-46 -7 -89 -8t-74 -1l-51 -288h-74l110 628h222q110 0 160.5 -39.5t37.5 -115.5zM486 479q9 51 -26.5 77t-112.5 26h-139l-43 -248h11q147 0 222 35.5t88 109.5z" />
    <glyph glyph-name="Rcaron" unicode="&#x158;" horiz-adv-x="582" 
d="M512 820l-104 -109h-83l-65 109h60l52 -68l76 68h64zM562 473q-13 -69 -61.5 -107t-110.5 -55l117 -311h-86l-101 297q-46 -7 -89 -8t-74 -1l-51 -288h-74l110 628h222q110 0 160.5 -39.5t37.5 -115.5zM486 479q9 51 -26.5 77t-112.5 26h-139l-43 -248h11q147 0 222 35.5
t88 109.5z" />
    <glyph glyph-name="uni0156" unicode="&#x156;" horiz-adv-x="582" 
d="M562 473q-13 -69 -61.5 -107t-110.5 -55l117 -311h-86l-101 297q-46 -7 -89 -8t-74 -1l-51 -288h-74l110 628h222q110 0 160.5 -39.5t37.5 -115.5zM486 479q9 51 -26.5 77t-112.5 26h-139l-43 -248h11q147 0 222 35.5t88 109.5zM190 -246h-58l54 178h94z" />
    <glyph glyph-name="uni1E5A" unicode="&#x1e5a;" horiz-adv-x="582" 
d="M562 473q-13 -69 -61.5 -107t-110.5 -55l117 -311h-86l-101 297q-46 -7 -89 -8t-74 -1l-51 -288h-74l110 628h222q110 0 160.5 -39.5t37.5 -115.5zM486 479q9 51 -26.5 77t-112.5 26h-139l-43 -248h11q147 0 222 35.5t88 109.5zM264 -145h-82l14 77h82z" />
    <glyph glyph-name="Sacute" unicode="&#x15a;" horiz-adv-x="520" 
d="M354 711h-62l100 109h90zM284 368q110 -23 153.5 -67t30.5 -119q-16 -90 -91 -143t-187 -53q-53 0 -96.5 13.5t-86.5 38.5l20 42q47 -25 89 -36.5t82 -11.5q78 0 131 36.5t64 99.5q8 46 -23.5 77.5t-129.5 53.5q-102 22 -140.5 62.5t-27.5 104.5q14 78 84 127t168 49
q42 0 84 -11.5t79 -36.5l-22 -39q-31 18 -67 29.5t-79 11.5q-69 0 -117.5 -33t-58.5 -85q-8 -45 24.5 -69t116.5 -41z" />
    <glyph glyph-name="Scedilla" unicode="&#x15e;" horiz-adv-x="520" 
d="M284 368q110 -23 153.5 -67t30.5 -119q-16 -90 -91 -143t-187 -53q-53 0 -96.5 13.5t-86.5 38.5l20 42q47 -25 89 -36.5t82 -11.5q78 0 131 36.5t64 99.5q8 46 -23.5 77.5t-129.5 53.5q-102 22 -140.5 62.5t-27.5 104.5q14 78 84 127t168 49q42 0 84 -11.5t79 -36.5
l-22 -39q-31 18 -67 29.5t-79 11.5q-69 0 -117.5 -33t-58.5 -85q-8 -45 24.5 -69t116.5 -41zM106 -170l15 42q13 -4 23.5 -6t18.5 -2q20 0 32 7.5t14 21.5t-7 22t-30 8q-8 0 -19.5 -2.5t-24.5 -6.5v41q16 4 32.5 6.5t32.5 2.5q50 0 73 -18.5t17 -52.5q-6 -35 -36 -53.5
t-80 -18.5q-13 0 -29 2.5t-32 6.5z" />
    <glyph glyph-name="Scircumflex" unicode="&#x15c;" horiz-adv-x="520" 
d="M451 713h-59l-53 67l-78 -67h-62l103 109h84zM284 368q110 -23 153.5 -67t30.5 -119q-16 -90 -91 -143t-187 -53q-53 0 -96.5 13.5t-86.5 38.5l20 42q47 -25 89 -36.5t82 -11.5q78 0 131 36.5t64 99.5q8 46 -23.5 77.5t-129.5 53.5q-102 22 -140.5 62.5t-27.5 104.5
q14 78 84 127t168 49q42 0 84 -11.5t79 -36.5l-22 -39q-31 18 -67 29.5t-79 11.5q-69 0 -117.5 -33t-58.5 -85q-8 -45 24.5 -69t116.5 -41z" />
    <glyph glyph-name="uni0218" unicode="&#x218;" horiz-adv-x="520" 
d="M284 368q110 -23 153.5 -67t30.5 -119q-16 -90 -91 -143t-187 -53q-53 0 -96.5 13.5t-86.5 38.5l20 42q47 -25 89 -36.5t82 -11.5q78 0 131 36.5t64 99.5q8 46 -23.5 77.5t-129.5 53.5q-102 22 -140.5 62.5t-27.5 104.5q14 78 84 127t168 49q42 0 84 -11.5t79 -36.5
l-22 -39q-31 18 -67 29.5t-79 11.5q-69 0 -117.5 -33t-58.5 -85q-8 -45 24.5 -69t116.5 -41zM163 -246h-58l54 178h94z" />
    <glyph glyph-name="uni1E60" unicode="&#x1e60;" horiz-adv-x="520" 
d="M284 711l17 97h81l-17 -97h-81zM284 368q110 -23 153.5 -67t30.5 -119q-16 -90 -91 -143t-187 -53q-53 0 -96.5 13.5t-86.5 38.5l20 42q47 -25 89 -36.5t82 -11.5q78 0 131 36.5t64 99.5q8 46 -23.5 77.5t-129.5 53.5q-102 22 -140.5 62.5t-27.5 104.5q14 78 84 127
t168 49q42 0 84 -11.5t79 -36.5l-22 -39q-31 18 -67 29.5t-79 11.5q-69 0 -117.5 -33t-58.5 -85q-8 -45 24.5 -69t116.5 -41z" />
    <glyph glyph-name="uni1E62" unicode="&#x1e62;" horiz-adv-x="520" 
d="M284 368q110 -23 153.5 -67t30.5 -119q-16 -90 -91 -143t-187 -53q-53 0 -96.5 13.5t-86.5 38.5l20 42q47 -25 89 -36.5t82 -11.5q78 0 131 36.5t64 99.5q8 46 -23.5 77.5t-129.5 53.5q-102 22 -140.5 62.5t-27.5 104.5q14 78 84 127t168 49q42 0 84 -11.5t79 -36.5
l-22 -39q-31 18 -67 29.5t-79 11.5q-69 0 -117.5 -33t-58.5 -85q-8 -45 24.5 -69t116.5 -41zM229 -145h-82l14 77h82z" />
    <glyph glyph-name="uni1E9E" unicode="&#x1e9e;" horiz-adv-x="596" 
d="M380 353q84 -7 126 -53.5t29 -118.5q-17 -97 -90.5 -146t-201.5 -49q-17 0 -33 1t-31 5l8 44q13 -2 27 -3t27 -1q100 0 149.5 36t64.5 118q10 62 -27 98.5t-110 36.5q-18 0 -40.5 -1.5t-41.5 -2.5l9 47q60 6 98.5 17.5t60.5 28t32.5 37t14.5 44.5q7 46 -25.5 75.5
t-92.5 29.5q-57 0 -98 -26t-48 -67l-88 -503h-71l89 503q11 62 71 100.5t147 38.5q97 0 149.5 -42t41.5 -109q-9 -51 -46 -86.5t-100 -51.5z" />
    <glyph glyph-name="uni018F" unicode="&#x18f;" horiz-adv-x="672" 
d="M158 423h-78q42 109 121.5 164t194.5 55q143 0 201.5 -83.5t29.5 -247.5q-28 -154 -119 -239.5t-228 -85.5q-136 0 -197 86t-34 240h499q25 141 -15.5 212.5t-144.5 71.5q-78 0 -136 -43.5t-94 -129.5zM288 32q92 0 156.5 61t93.5 171h-417q-10 -110 33.5 -171t133.5 -61
z" />
    <glyph glyph-name="Tbar" unicode="&#x166;" horiz-adv-x="517" 
d="M116 383l9 46h120l27 153h-197l8 46h469l-9 -46h-197l-27 -153h121l-8 -46h-121l-68 -383h-74l68 383h-121z" />
    <glyph glyph-name="Tcaron" unicode="&#x164;" horiz-adv-x="509" 
d="M474 820l-104 -109h-83l-65 109h60l52 -68l76 68h64zM548 628l-9 -46h-197l-103 -582h-74l103 582h-197l8 46h469z" />
    <glyph glyph-name="uni0162" unicode="&#x162;" horiz-adv-x="509" 
d="M548 628l-9 -46h-197l-103 -582h-74l103 582h-197l8 46h469zM96 -170l15 42q13 -4 23.5 -6t18.5 -2q20 0 32 7.5t14 21.5t-7 22t-30 8q-8 0 -19.5 -2.5t-24.5 -6.5v41q16 4 32.5 6.5t32.5 2.5q50 0 73 -18.5t17 -52.5q-6 -35 -36 -53.5t-80 -18.5q-13 0 -29 2.5t-32 6.5z
" />
    <glyph glyph-name="uni021A" unicode="&#x21a;" horiz-adv-x="509" 
d="M548 628l-9 -46h-197l-103 -582h-74l103 582h-197l8 46h469zM150 -246h-58l54 178h94z" />
    <glyph glyph-name="uni1E6A" unicode="&#x1e6a;" horiz-adv-x="509" 
d="M287 711l17 97h81l-17 -97h-81zM548 628l-9 -46h-197l-103 -582h-74l103 582h-197l8 46h469z" />
    <glyph glyph-name="uni1E6C" unicode="&#x1e6c;" horiz-adv-x="509" 
d="M548 628l-9 -46h-197l-103 -582h-74l103 582h-197l8 46h469zM217 -145h-82l14 77h82z" />
    <glyph glyph-name="Ubreve" unicode="&#x16c;" horiz-adv-x="632" 
d="M534 820q-10 -52 -48.5 -83t-95.5 -31t-86.5 30.5t-20.5 83.5h57q-6 -34 9.5 -54t46.5 -20t52.5 20t27.5 54h58zM538 628h74l-75 -427q-18 -102 -91 -159t-185 -57t-165 57t-34 159l75 427h74l-77 -436q-15 -85 17 -123t118 -38q87 0 132 38t60 123z" />
    <glyph glyph-name="uni01D3" unicode="&#x1d3;" horiz-adv-x="632" 
d="M535 820l-104 -109h-83l-65 109h60l52 -68l76 68h64zM538 628h74l-75 -427q-18 -102 -91 -159t-185 -57t-165 57t-34 159l75 427h74l-77 -436q-15 -85 17 -123t118 -38q87 0 132 38t60 123z" />
    <glyph glyph-name="uni01D7" unicode="&#x1d7;" horiz-adv-x="632" 
d="M414 860h-62l100 109h90zM363 808l-18 -97h-69l17 97h70zM518 808l-17 -97h-69l17 97h69zM538 628h74l-75 -427q-18 -102 -91 -159t-185 -57t-165 57t-34 159l75 427h74l-77 -436q-15 -85 17 -123t118 -38q87 0 132 38t60 123z" />
    <glyph glyph-name="uni01D9" unicode="&#x1d9;" horiz-adv-x="632" 
d="M535 965l-104 -109h-83l-65 109h60l52 -68l76 68h64zM363 808l-18 -97h-69l17 97h70zM518 808l-17 -97h-69l17 97h69zM538 628h74l-75 -427q-18 -102 -91 -159t-185 -57t-165 57t-34 159l75 427h74l-77 -436q-15 -85 17 -123t118 -38q87 0 132 38t60 123z" />
    <glyph glyph-name="uni01DB" unicode="&#x1db;" horiz-adv-x="632" 
d="M371 874l-91 109h90l61 -109h-60zM363 808l-18 -97h-69l17 97h70zM518 808l-17 -97h-69l17 97h69zM538 628h74l-75 -427q-18 -102 -91 -159t-185 -57t-165 57t-34 159l75 427h74l-77 -436q-15 -85 17 -123t118 -38q87 0 132 38t60 123z" />
    <glyph glyph-name="uni01D5" unicode="&#x1d5;" horiz-adv-x="632" 
d="M259 864l10 57h260l-10 -57h-260zM363 808l-18 -97h-69l17 97h70zM518 808l-17 -97h-69l17 97h69zM538 628h74l-75 -427q-18 -102 -91 -159t-185 -57t-165 57t-34 159l75 427h74l-77 -436q-15 -85 17 -123t118 -38q87 0 132 38t60 123z" />
    <glyph glyph-name="uni1EE4" unicode="&#x1ee4;" horiz-adv-x="632" 
d="M538 628h74l-75 -427q-18 -102 -91 -159t-185 -57t-165 57t-34 159l75 427h74l-77 -436q-15 -85 17 -123t118 -38q87 0 132 38t60 123zM279 -145h-82l14 77h82z" />
    <glyph glyph-name="Uhungarumlaut" unicode="&#x170;" horiz-adv-x="632" 
d="M345 711h-57l100 109h88zM472 711h-57l100 109h88zM538 628h74l-75 -427q-18 -102 -91 -159t-185 -57t-165 57t-34 159l75 427h74l-77 -436q-15 -85 17 -123t118 -38q87 0 132 38t60 123z" />
    <glyph glyph-name="Umacron" unicode="&#x16a;" horiz-adv-x="632" 
d="M259 711l10 57h260l-10 -57h-260zM538 628h74l-75 -427q-18 -102 -91 -159t-185 -57t-165 57t-34 159l75 427h74l-77 -436q-15 -85 17 -123t118 -38q87 0 132 38t60 123z" />
    <glyph glyph-name="Uogonek" unicode="&#x172;" horiz-adv-x="632" 
d="M538 628h74l-75 -427q-13 -72 -54 -122.5t-104 -73.5q-63 -49 -84.5 -74t-26.5 -53q-4 -23 15.5 -40.5t48.5 -17.5q21 0 40.5 1.5t40.5 4.5l-7 -37q-22 -7 -51 -9.5t-48 -2.5q-48 0 -77 28.5t-22 65.5q6 32 25.5 60t56.5 55q-7 -1 -14.5 -1h-14.5q-112 0 -165 57t-34 159
l75 427h74l-77 -436q-15 -85 17 -123t118 -38q87 0 132 38t60 123z" />
    <glyph glyph-name="Uring" unicode="&#x16e;" horiz-adv-x="632" 
d="M280 773q6 35 35.5 52t84.5 17t79 -17t17 -52q-6 -35 -35.5 -51.5t-84.5 -16.5t-78.5 16.5t-17.5 51.5zM428 773q4 25 -3 35t-29 10t-33 -10t-15 -35q-4 -24 3 -34t29 -10t33 10t15 34zM538 628h74l-75 -427q-18 -102 -91 -159t-185 -57t-165 57t-34 159l75 427h74
l-77 -436q-15 -85 17 -123t118 -38q87 0 132 38t60 123z" />
    <glyph glyph-name="Utilde" unicode="&#x168;" horiz-adv-x="632" 
d="M522 797l21 -26q-26 -33 -48.5 -46.5t-47.5 -13.5q-20 0 -33.5 5t-24.5 12q-12 6 -24.5 11.5t-31.5 5.5q-17 0 -30.5 -7t-29.5 -24l-21 25q25 33 47 46.5t49 13.5q24 0 38.5 -7t27.5 -14q10 -5 21 -9t27 -4t30 7.5t30 24.5zM538 628h74l-75 -427q-18 -102 -91 -159
t-185 -57t-165 57t-34 159l75 427h74l-77 -436q-15 -85 17 -123t118 -38q87 0 132 38t60 123z" />
    <glyph glyph-name="Wacute" unicode="&#x1e82;" horiz-adv-x="787" 
d="M505 711h-62l100 109h90zM756 628h57l-258 -628h-80l-38 536l-228 -536h-83l-34 628h77l27 -540l225 540h84l37 -536z" />
    <glyph glyph-name="Wcircumflex" unicode="&#x174;" horiz-adv-x="787" 
d="M594 711h-59l-53 67l-78 -67h-62l103 109h84zM756 628h57l-258 -628h-80l-38 536l-228 -536h-83l-34 628h77l27 -540l225 540h84l37 -536z" />
    <glyph glyph-name="Wdieresis" unicode="&#x1e84;" horiz-adv-x="787" 
d="M451 808l-18 -97h-69l17 97h70zM606 808l-17 -97h-69l17 97h69zM756 628h57l-258 -628h-80l-38 536l-228 -536h-83l-34 628h77l27 -540l225 540h84l37 -536z" />
    <glyph glyph-name="Wgrave" unicode="&#x1e80;" horiz-adv-x="787" 
d="M460 711l-91 109h90l61 -109h-60zM756 628h57l-258 -628h-80l-38 536l-228 -536h-83l-34 628h77l27 -540l225 540h84l37 -536z" />
    <glyph glyph-name="Ycircumflex" unicode="&#x176;" horiz-adv-x="507" 
d="M460 711h-59l-53 67l-78 -67h-62l103 109h84zM530 628l-240 -338l-51 -290h-74l51 286l-126 342h80l98 -290l198 290h64z" />
    <glyph glyph-name="Ygrave" unicode="&#x1ef2;" horiz-adv-x="507" 
d="M310 711l-91 109h90l61 -109h-60zM530 628l-240 -338l-51 -290h-74l51 286l-126 342h80l98 -290l198 290h64z" />
    <glyph glyph-name="uni0232" unicode="&#x232;" horiz-adv-x="507" 
d="M195 711l10 57h260l-10 -57h-260zM530 628l-240 -338l-51 -290h-74l51 286l-126 342h80l98 -290l198 290h64z" />
    <glyph glyph-name="uni1EF8" unicode="&#x1ef8;" horiz-adv-x="507" 
d="M457 797l21 -26q-26 -33 -48.5 -46.5t-47.5 -13.5q-20 0 -33.5 5t-24.5 12q-12 6 -24.5 11.5t-31.5 5.5q-17 0 -30.5 -7t-29.5 -24l-21 25q25 33 47 46.5t49 13.5q24 0 38.5 -7t27.5 -14q10 -5 21 -9t27 -4t30 7.5t30 24.5zM530 628l-240 -338l-51 -290h-74l51 286
l-126 342h80l98 -290l198 290h64z" />
    <glyph glyph-name="Zacute" unicode="&#x179;" horiz-adv-x="519" 
d="M354 711h-62l100 109h90zM548 628l-9 -50l-467 -532h365l-8 -46h-458l9 51l471 531h-347l8 46h436z" />
    <glyph glyph-name="Zdotaccent" unicode="&#x17b;" horiz-adv-x="519" 
d="M291 711l17 97h81l-17 -97h-81zM548 628l-9 -50l-467 -532h365l-8 -46h-458l9 51l471 531h-347l8 46h436z" />
    <glyph glyph-name="uni1E92" unicode="&#x1e92;" horiz-adv-x="519" 
d="M548 628l-9 -50l-467 -532h365l-8 -46h-458l9 51l471 531h-347l8 46h436zM220 -145h-82l14 77h82z" />
    <glyph glyph-name="abreve" unicode="&#x103;" horiz-adv-x="484" 
d="M422 638q-5 -27 -19 -48t-34 -34.5t-43.5 -21t-47.5 -7.5q-50 0 -84 27t-24 84h57q-6 -36 13 -52t44 -16q27 0 49 17t29 51h60zM278 460q84 0 116.5 -41t17.5 -127l-46 -263q-43 -19 -88 -31t-89 -12q-96 0 -140 39t-31 111q10 60 62.5 95t138.5 41q31 2 62 3.5t58 1.5
l6 33q10 56 -12.5 80t-82.5 24q-27 0 -63 -5.5t-73 -15.5l-3 40q41 13 83 20t84 7zM188 32q31 0 63 7t49 14l32 179q-26 0 -54 -1.5t-58 -4.5q-60 -5 -91.5 -28t-39.5 -68q-8 -48 17.5 -73t81.5 -25z" />
    <glyph glyph-name="uni01CE" unicode="&#x1ce;" horiz-adv-x="484" 
d="M418 638l-104 -107h-84l-65 107h57l57 -66l80 66h59zM278 460q84 0 116.5 -41t17.5 -127l-46 -263q-43 -19 -88 -31t-89 -12q-96 0 -140 39t-31 111q10 60 62.5 95t138.5 41q31 2 62 3.5t58 1.5l6 33q10 56 -12.5 80t-82.5 24q-27 0 -63 -5.5t-73 -15.5l-3 40
q41 13 83 20t84 7zM188 32q31 0 63 7t49 14l32 179q-26 0 -54 -1.5t-58 -4.5q-60 -5 -91.5 -28t-39.5 -68q-8 -48 17.5 -73t81.5 -25z" />
    <glyph glyph-name="uni1EA1" unicode="&#x1ea1;" horiz-adv-x="484" 
d="M278 460q84 0 116.5 -41t17.5 -127l-46 -263q-43 -19 -88 -31t-89 -12q-96 0 -140 39t-31 111q10 60 62.5 95t138.5 41q31 2 62 3.5t58 1.5l6 33q10 56 -12.5 80t-82.5 24q-27 0 -63 -5.5t-73 -15.5l-3 40q41 13 83 20t84 7zM188 32q31 0 63 7t49 14l32 179
q-26 0 -54 -1.5t-58 -4.5q-60 -5 -91.5 -28t-39.5 -68q-8 -48 17.5 -73t81.5 -25zM221 -145h-82l14 77h82z" />
    <glyph glyph-name="amacron" unicode="&#x101;" horiz-adv-x="484" 
d="M155 571l10 57h260l-10 -57h-260zM278 460q84 0 116.5 -41t17.5 -127l-46 -263q-43 -19 -88 -31t-89 -12q-96 0 -140 39t-31 111q10 60 62.5 95t138.5 41q31 2 62 3.5t58 1.5l6 33q10 56 -12.5 80t-82.5 24q-27 0 -63 -5.5t-73 -15.5l-3 40q41 13 83 20t84 7zM188 32
q31 0 63 7t49 14l32 179q-26 0 -54 -1.5t-58 -4.5q-60 -5 -91.5 -28t-39.5 -68q-8 -48 17.5 -73t81.5 -25z" />
    <glyph glyph-name="aogonek" unicode="&#x105;" horiz-adv-x="484" 
d="M278 460q84 0 116.5 -41t17.5 -127l-46 -263q-18 -8 -36 -15t-36 -12q-60 -48 -81.5 -72.5t-26.5 -51.5q-4 -23 15.5 -40.5t48.5 -17.5q21 0 40.5 1.5t40.5 4.5l-7 -37q-22 -7 -51 -9.5t-48 -2.5q-48 0 -77 28.5t-22 65.5q6 33 26 60.5t57 55.5q-5 -1 -10 -1h-10
q-96 0 -140 39t-31 111q10 60 62.5 95t138.5 41q31 2 62 3.5t58 1.5l6 33q10 56 -12.5 80t-82.5 24q-27 0 -63 -5.5t-73 -15.5l-3 40q41 13 83 20t84 7zM188 32q31 0 63 7t49 14l32 179q-26 0 -54 -1.5t-58 -4.5q-60 -5 -91.5 -28t-39.5 -68q-8 -48 17.5 -73t81.5 -25z" />
    <glyph glyph-name="aringacute" unicode="&#x1fb;" horiz-adv-x="484" 
d="M336 711h-62l100 109h90zM402 614v-9t-1 -10q-6 -34 -36 -51.5t-84 -17.5t-79 17.5t-18 51.5q6 34 36.5 51.5t84.5 17.5q47 0 71.5 -12.5t25.5 -37.5zM332 595q4 25 -3 34.5t-28 9.5q-23 0 -34 -9.5t-15 -34.5t3.5 -34.5t29.5 -9.5t32.5 9.5t14.5 34.5zM278 460
q84 0 116.5 -41t17.5 -127l-46 -263q-43 -19 -88 -31t-89 -12q-96 0 -140 39t-31 111q10 60 62.5 95t138.5 41q31 2 62 3.5t58 1.5l6 33q10 56 -12.5 80t-82.5 24q-27 0 -63 -5.5t-73 -15.5l-3 40q41 13 83 20t84 7zM188 32q31 0 63 7t49 14l32 179q-26 0 -54 -1.5t-58 -4.5
q-60 -5 -91.5 -28t-39.5 -68q-8 -48 17.5 -73t81.5 -25z" />
    <glyph glyph-name="aeacute" unicode="&#x1fd;" horiz-adv-x="768" 
d="M438 531h-56l100 107h88zM659 19q-13 -5 -61 -19t-104 -14q-41 0 -73 11.5t-54 33.5v-2q-43 -19 -88.5 -31t-89.5 -12q-96 0 -140 39t-31 111q10 61 62.5 97.5t138.5 42.5q31 2 62 3.5t58 1.5l6 33q10 54 -12.5 77t-82.5 23q-27 0 -63 -5.5t-73 -15.5l-3 40q41 13 83 20
t84 7q53 0 86 -16t46 -49q31 31 71.5 48t89.5 17q34 0 65 -8.5t52 -25.5t31.5 -43t4.5 -60q-9 -51 -41.5 -80t-78.5 -44t-101 -19t-109 -4q-4 -71 25 -107.5t83 -36.5q51 0 94 13.5t57 18.5zM563 414q-54 0 -96.5 -39.5t-62.5 -129.5l-4 -22q43 1 86.5 5t79.5 15t60.5 32
t30.5 55q7 45 -23.5 64.5t-70.5 19.5zM89 130q-8 -48 17.5 -73t81.5 -25q27 0 61.5 6.5t90.5 31.5q-13 28 -16 67t5 86q1 3 1.5 6.5t1.5 6.5q-26 0 -54 -1.5t-58 -4.5q-60 -5 -91.5 -29.5t-39.5 -70.5z" />
    <glyph glyph-name="uni1E03" unicode="&#x1e03;" horiz-adv-x="508" 
d="M296 460q99 0 137 -58.5t17 -180.5q-21 -113 -84 -174t-160 -61q-48 0 -93.5 10t-87.5 33l105 599h70l-34 -193q33 12 66 18.5t64 6.5zM355 628l-17 -97h-71l17 97h71zM379 219q17 99 -10 146.5t-101 47.5q-27 0 -54.5 -6t-55.5 -16l-59 -338q24 -10 50.5 -15.5
t54.5 -5.5q69 0 114 48.5t61 138.5z" />
    <glyph glyph-name="cacute" unicode="&#x107;" horiz-adv-x="418" 
d="M299 531h-56l100 107h88zM34 222q21 118 81 178t157 60q34 0 69 -7t71 -20l-17 -39q-32 10 -60 15t-51 5q-76 0 -118.5 -45.5t-60.5 -145.5q-17 -100 9.5 -145.5t102.5 -45.5q25 0 54.5 4.5t63.5 14.5l3 -39q-39 -13 -77 -19.5t-73 -6.5q-97 0 -136 59.5t-18 176.5z" />
    <glyph glyph-name="ccaron" unicode="&#x10d;" horiz-adv-x="418" 
d="M424 638l-104 -107h-84l-65 107h57l57 -66l80 66h59zM34 222q21 118 81 178t157 60q34 0 69 -7t71 -20l-17 -39q-32 10 -60 15t-51 5q-76 0 -118.5 -45.5t-60.5 -145.5q-17 -100 9.5 -145.5t102.5 -45.5q25 0 54.5 4.5t63.5 14.5l3 -39q-39 -13 -77 -19.5t-73 -6.5
q-97 0 -136 59.5t-18 176.5z" />
    <glyph glyph-name="ccircumflex" unicode="&#x109;" horiz-adv-x="418" 
d="M412 531h-53l-59 68l-83 -68h-58l104 107h83zM34 222q21 118 81 178t157 60q34 0 69 -7t71 -20l-17 -39q-32 10 -60 15t-51 5q-76 0 -118.5 -45.5t-60.5 -145.5q-17 -100 9.5 -145.5t102.5 -45.5q25 0 54.5 4.5t63.5 14.5l3 -39q-39 -13 -77 -19.5t-73 -6.5
q-97 0 -136 59.5t-18 176.5z" />
    <glyph glyph-name="cdotaccent" unicode="&#x10b;" horiz-adv-x="418" 
d="M335 628l-17 -97h-71l17 97h71zM34 222q21 118 81 178t157 60q34 0 69 -7t71 -20l-17 -39q-32 10 -60 15t-51 5q-76 0 -118.5 -45.5t-60.5 -145.5q-17 -100 9.5 -145.5t102.5 -45.5q25 0 54.5 4.5t63.5 14.5l3 -39q-39 -13 -77 -19.5t-73 -6.5q-97 0 -136 59.5t-18 176.5
z" />
    <glyph glyph-name="dcaron" unicode="&#x10f;" horiz-adv-x="531" 
d="M574 450h-57l53 178h94zM391 29q-48 -22 -98 -32.5t-99 -10.5q-99 0 -139.5 61t-19.5 178q20 116 80.5 175.5t156.5 59.5q36 0 63.5 -8t57.5 -20l34 196h70zM213 32q26 0 55 5.5t58 15.5l59 335q-22 9 -47.5 17t-55.5 8q-75 0 -117.5 -45.5t-59.5 -144.5
q-16 -93 11.5 -142t96.5 -49z" />
    <glyph glyph-name="dcroat" unicode="&#x111;" horiz-adv-x="509" 
d="M391 29q-48 -22 -98 -32.5t-99 -10.5q-99 0 -139.5 61t-19.5 178q20 116 80.5 175.5t156.5 59.5q36 0 63.5 -8t57.5 -20l15 86h-139l8 44h139l11 66h70l-12 -66h61l-8 -44h-60zM213 32q26 0 55 5.5t58 15.5l59 335q-22 9 -47.5 17t-55.5 8q-75 0 -117.5 -45.5
t-59.5 -144.5q-16 -93 11.5 -142t96.5 -49z" />
    <glyph glyph-name="uni1E0B" unicode="&#x1e0b;" horiz-adv-x="509" 
d="M391 29q-48 -22 -98 -32.5t-99 -10.5q-99 0 -139.5 61t-19.5 178q20 116 80.5 175.5t156.5 59.5q36 0 63.5 -8t57.5 -20l34 196h70zM334 628l-17 -97h-71l17 97h71zM213 32q26 0 55 5.5t58 15.5l59 335q-22 9 -47.5 17t-55.5 8q-75 0 -117.5 -45.5t-59.5 -144.5
q-16 -93 11.5 -142t96.5 -49z" />
    <glyph glyph-name="uni1E0D" unicode="&#x1e0d;" horiz-adv-x="509" 
d="M391 29q-48 -22 -98 -32.5t-99 -10.5q-99 0 -139.5 61t-19.5 178q20 116 80.5 175.5t156.5 59.5q36 0 63.5 -8t57.5 -20l34 196h70zM213 32q26 0 55 5.5t58 15.5l59 335q-22 9 -47.5 17t-55.5 8q-75 0 -117.5 -45.5t-59.5 -144.5q-16 -93 11.5 -142t96.5 -49zM210 -145
h-82l14 77h82z" />
    <glyph glyph-name="ebreve" unicode="&#x115;" horiz-adv-x="471" 
d="M430 638q-5 -27 -19 -48t-34 -34.5t-43.5 -21t-47.5 -7.5q-50 0 -84 27t-24 84h57q-6 -36 13 -52t44 -16q27 0 49 17t29 51h60zM362 19q-13 -5 -61 -19t-104 -14q-98 0 -141 62.5t-24 174.5q20 112 83.5 174.5t158.5 62.5q34 0 65 -8.5t52 -25.5t31.5 -43t4.5 -60
q-9 -51 -41.5 -80t-78.5 -44t-101 -19t-109 -4q-4 -71 25 -107.5t83 -36.5q51 0 94 13.5t57 18.5zM266 414q-58 0 -102 -45t-61 -146q43 1 86.5 5t79.5 15t60.5 32t30.5 55q7 45 -23.5 64.5t-70.5 19.5z" />
    <glyph glyph-name="ecaron" unicode="&#x11b;" horiz-adv-x="471" 
d="M431 638l-104 -107h-84l-65 107h57l57 -66l80 66h59zM362 19q-13 -5 -61 -19t-104 -14q-98 0 -141 62.5t-24 174.5q20 112 83.5 174.5t158.5 62.5q34 0 65 -8.5t52 -25.5t31.5 -43t4.5 -60q-9 -51 -41.5 -80t-78.5 -44t-101 -19t-109 -4q-4 -71 25 -107.5t83 -36.5
q51 0 94 13.5t57 18.5zM266 414q-58 0 -102 -45t-61 -146q43 1 86.5 5t79.5 15t60.5 32t30.5 55q7 45 -23.5 64.5t-70.5 19.5z" />
    <glyph glyph-name="edotaccent" unicode="&#x117;" horiz-adv-x="471" 
d="M339 628l-17 -97h-71l17 97h71zM362 19q-13 -5 -61 -19t-104 -14q-98 0 -141 62.5t-24 174.5q20 112 83.5 174.5t158.5 62.5q34 0 65 -8.5t52 -25.5t31.5 -43t4.5 -60q-9 -51 -41.5 -80t-78.5 -44t-101 -19t-109 -4q-4 -71 25 -107.5t83 -36.5q51 0 94 13.5t57 18.5z
M266 414q-58 0 -102 -45t-61 -146q43 1 86.5 5t79.5 15t60.5 32t30.5 55q7 45 -23.5 64.5t-70.5 19.5z" />
    <glyph glyph-name="uni1EB9" unicode="&#x1eb9;" horiz-adv-x="471" 
d="M362 19q-13 -5 -61 -19t-104 -14q-98 0 -141 62.5t-24 174.5q20 112 83.5 174.5t158.5 62.5q34 0 65 -8.5t52 -25.5t31.5 -43t4.5 -60q-9 -51 -41.5 -80t-78.5 -44t-101 -19t-109 -4q-4 -71 25 -107.5t83 -36.5q51 0 94 13.5t57 18.5zM266 414q-58 0 -102 -45t-61 -146
q43 1 86.5 5t79.5 15t60.5 32t30.5 55q7 45 -23.5 64.5t-70.5 19.5zM207 -145h-82l14 77h82z" />
    <glyph glyph-name="emacron" unicode="&#x113;" horiz-adv-x="471" 
d="M162 571l10 57h260l-10 -57h-260zM362 19q-13 -5 -61 -19t-104 -14q-98 0 -141 62.5t-24 174.5q20 112 83.5 174.5t158.5 62.5q34 0 65 -8.5t52 -25.5t31.5 -43t4.5 -60q-9 -51 -41.5 -80t-78.5 -44t-101 -19t-109 -4q-4 -71 25 -107.5t83 -36.5q51 0 94 13.5t57 18.5z
M266 414q-58 0 -102 -45t-61 -146q43 1 86.5 5t79.5 15t60.5 32t30.5 55q7 45 -23.5 64.5t-70.5 19.5z" />
    <glyph glyph-name="eogonek" unicode="&#x119;" horiz-adv-x="471" 
d="M330 -211q-22 -7 -51 -9.5t-48 -2.5q-48 0 -77 28.5t-22 65.5q6 32 25.5 60t56.5 55h-8.5h-8.5q-98 0 -141 62.5t-24 174.5q20 112 83.5 174.5t158.5 62.5q34 0 65 -8.5t52 -25.5t31.5 -43t4.5 -60q-9 -51 -41.5 -80t-78.5 -44t-101 -19t-109 -4q-4 -71 25 -107.5
t83 -36.5q51 0 94 13.5t57 18.5l6 -45q-7 -3 -24.5 -9t-42.5 -11q-57 -46 -78 -70t-25 -51q-4 -23 15.5 -40.5t48.5 -17.5q21 0 40.5 1.5t40.5 4.5zM266 414q-58 0 -102 -45t-61 -146q43 1 86.5 5t79.5 15t60.5 32t30.5 55q7 45 -23.5 64.5t-70.5 19.5z" />
    <glyph glyph-name="uni1EBD" unicode="&#x1ebd;" horiz-adv-x="471" 
d="M418 616l21 -26q-26 -33 -48 -46t-50 -13q-19 0 -32 5t-24 11q-13 7 -25.5 12.5t-31.5 5.5q-17 0 -30.5 -7t-30.5 -25l-21 26q27 33 48.5 46t48.5 13q22 0 36.5 -6t26.5 -13q10 -5 22 -9.5t29 -4.5t31 7t30 24zM362 19q-13 -5 -61 -19t-104 -14q-98 0 -141 62.5
t-24 174.5q20 112 83.5 174.5t158.5 62.5q34 0 65 -8.5t52 -25.5t31.5 -43t4.5 -60q-9 -51 -41.5 -80t-78.5 -44t-101 -19t-109 -4q-4 -71 25 -107.5t83 -36.5q51 0 94 13.5t57 18.5zM266 414q-58 0 -102 -45t-61 -146q43 1 86.5 5t79.5 15t60.5 32t30.5 55q7 45 -23.5 64.5
t-70.5 19.5z" />
    <glyph glyph-name="uni1E1F" unicode="&#x1e1f;" horiz-adv-x="286" 
d="M278 807l-17 -97h-71l17 97h71zM284 596q-44 0 -62 -18t-27 -70l-11 -62h112l-8 -46h-112l-71 -400h-70l71 400h-62l8 46h62l11 62q12 69 50.5 101.5t108.5 32.5q19 0 35 -3.5t32 -9.5l-19 -41q-12 4 -23.5 6t-24.5 2z" />
    <glyph glyph-name="uni01F5" unicode="&#x1f5;" horiz-adv-x="508" 
d="M322 531h-56l100 107h88zM457 407l-81 -462q-16 -85 -69.5 -126.5t-147.5 -41.5q-37 0 -76.5 8.5t-84.5 24.5l17 39q45 -13 78 -19.5t55 -6.5q74 0 109 23.5t45 80.5l15 84q-39 -13 -71.5 -19t-59.5 -6q-98 0 -136 58.5t-17 177.5q21 120 81.5 179t162.5 59
q51 0 95.5 -13t84.5 -40zM214 32q18 0 46.5 7t65.5 20l57 323q-19 16 -43.5 24t-56.5 8q-74 0 -118.5 -47.5t-61.5 -143.5q-16 -96 11 -143.5t100 -47.5z" />
    <glyph glyph-name="gbreve" unicode="&#x11f;" horiz-adv-x="508" 
d="M445 638q-5 -27 -19 -48t-34 -34.5t-43.5 -21t-47.5 -7.5q-50 0 -84 27t-24 84h57q-6 -36 13 -52t44 -16q27 0 49 17t29 51h60zM457 407l-81 -462q-16 -85 -69.5 -126.5t-147.5 -41.5q-37 0 -76.5 8.5t-84.5 24.5l17 39q45 -13 78 -19.5t55 -6.5q74 0 109 23.5t45 80.5
l15 84q-39 -13 -71.5 -19t-59.5 -6q-98 0 -136 58.5t-17 177.5q21 120 81.5 179t162.5 59q51 0 95.5 -13t84.5 -40zM214 32q18 0 46.5 7t65.5 20l57 323q-19 16 -43.5 24t-56.5 8q-74 0 -118.5 -47.5t-61.5 -143.5q-16 -96 11 -143.5t100 -47.5z" />
    <glyph glyph-name="gcaron" unicode="&#x1e7;" horiz-adv-x="508" 
d="M447 638l-104 -107h-84l-65 107h57l57 -66l80 66h59zM457 407l-81 -462q-16 -85 -69.5 -126.5t-147.5 -41.5q-37 0 -76.5 8.5t-84.5 24.5l17 39q45 -13 78 -19.5t55 -6.5q74 0 109 23.5t45 80.5l15 84q-39 -13 -71.5 -19t-59.5 -6q-98 0 -136 58.5t-17 177.5
q21 120 81.5 179t162.5 59q51 0 95.5 -13t84.5 -40zM214 32q18 0 46.5 7t65.5 20l57 323q-19 16 -43.5 24t-56.5 8q-74 0 -118.5 -47.5t-61.5 -143.5q-16 -96 11 -143.5t100 -47.5z" />
    <glyph glyph-name="gcircumflex" unicode="&#x11d;" horiz-adv-x="508" 
d="M427 531h-53l-59 68l-83 -68h-58l104 107h83zM457 407l-81 -462q-16 -85 -69.5 -126.5t-147.5 -41.5q-37 0 -76.5 8.5t-84.5 24.5l17 39q45 -13 78 -19.5t55 -6.5q74 0 109 23.5t45 80.5l15 84q-39 -13 -71.5 -19t-59.5 -6q-98 0 -136 58.5t-17 177.5q21 120 81.5 179
t162.5 59q51 0 95.5 -13t84.5 -40zM214 32q18 0 46.5 7t65.5 20l57 323q-19 16 -43.5 24t-56.5 8q-74 0 -118.5 -47.5t-61.5 -143.5q-16 -96 11 -143.5t100 -47.5z" />
    <glyph glyph-name="uni0123" unicode="&#x123;" horiz-adv-x="508" 
d="M338 700h52l-53 -179h-83zM457 407l-81 -462q-16 -85 -69.5 -126.5t-147.5 -41.5q-37 0 -76.5 8.5t-84.5 24.5l17 39q45 -13 78 -19.5t55 -6.5q74 0 109 23.5t45 80.5l15 84q-39 -13 -71.5 -19t-59.5 -6q-98 0 -136 58.5t-17 177.5q21 120 81.5 179t162.5 59
q51 0 95.5 -13t84.5 -40zM214 32q18 0 46.5 7t65.5 20l57 323q-19 16 -43.5 24t-56.5 8q-74 0 -118.5 -47.5t-61.5 -143.5q-16 -96 11 -143.5t100 -47.5z" />
    <glyph glyph-name="gdotaccent" unicode="&#x121;" horiz-adv-x="508" 
d="M350 628l-17 -97h-71l17 97h71zM457 407l-81 -462q-16 -85 -69.5 -126.5t-147.5 -41.5q-37 0 -76.5 8.5t-84.5 24.5l17 39q45 -13 78 -19.5t55 -6.5q74 0 109 23.5t45 80.5l15 84q-39 -13 -71.5 -19t-59.5 -6q-98 0 -136 58.5t-17 177.5q21 120 81.5 179t162.5 59
q51 0 95.5 -13t84.5 -40zM214 32q18 0 46.5 7t65.5 20l57 323q-19 16 -43.5 24t-56.5 8q-74 0 -118.5 -47.5t-61.5 -143.5q-16 -96 11 -143.5t100 -47.5z" />
    <glyph glyph-name="hbar" unicode="&#x127;" 
d="M383 0h-70l54 305q10 57 -10 81t-79 24q-31 0 -58.5 -5.5t-59.5 -18.5l-69 -386h-70l92 518h-57l8 45h57l11 65h70l-11 -65h133l-8 -45h-133l-15 -88q37 14 67.5 22t68.5 8q87 0 116.5 -38.5t13.5 -131.5z" />
    <glyph glyph-name="hcircumflex" unicode="&#x125;" 
d="M452 711h-59l-53 67l-78 -67h-62l103 109h84zM383 0h-70l54 305q10 57 -10 81t-79 24q-31 0 -58.5 -5.5t-59.5 -18.5l-69 -386h-70l111 628h70l-34 -198q37 14 67.5 22t68.5 8q87 0 116.5 -38.5t13.5 -131.5z" />
    <glyph glyph-name="uni1E25" unicode="&#x1e25;" 
d="M383 0h-70l54 305q10 57 -10 81t-79 24q-31 0 -58.5 -5.5t-59.5 -18.5l-69 -386h-70l111 628h70l-34 -198q37 14 67.5 22t68.5 8q87 0 116.5 -38.5t13.5 -131.5zM215 -145h-82l14 77h82z" />
    <glyph glyph-name="ibreve" unicode="&#x12d;" horiz-adv-x="217" 
d="M294 638q-5 -27 -19 -48t-34 -34.5t-43.5 -21t-47.5 -7.5q-50 0 -84 27t-24 84h57q-6 -36 13 -52t44 -16q27 0 49 17t29 51h60zM171 446l-79 -446h-70l79 446h70z" />
    <glyph glyph-name="uni1ECB" unicode="&#x1ecb;" horiz-adv-x="218" 
d="M203 628l-17 -97h-70l17 97h70zM171 446l-79 -446h-70l79 446h70zM72 -145h-82l14 77h82z" />
    <glyph glyph-name="ij" unicode="&#x133;" horiz-adv-x="435" 
d="M203 628l-17 -97h-70l17 97h70zM420 628l-17 -97h-70l17 97h70zM171 446l-79 -446h-70l79 446h70zM388 446l-95 -535q-11 -65 -46.5 -99.5t-100.5 -34.5h-12l-2 46h18q33 1 49 21.5t24 66.5l95 535h70z" />
    <glyph glyph-name="imacron" unicode="&#x12b;" horiz-adv-x="218" 
d="M27 571l10 57h260l-10 -57h-260zM171 446l-79 -446h-70l79 446h70z" />
    <glyph glyph-name="iogonek" unicode="&#x12f;" horiz-adv-x="220" 
d="M205 628l-17 -97h-70l17 97h70zM173 446l-79 -446h-22q-59 -46 -80 -70.5t-25 -51.5q-4 -23 15.5 -40.5t48.5 -17.5q21 0 40.5 1.5t40.5 4.5l-7 -37q-22 -7 -51 -9.5t-48 -2.5q-48 0 -77 28.5t-22 65.5q7 40 35 73t84 67l77 435h70z" />
    <glyph glyph-name="itilde" unicode="&#x129;" horiz-adv-x="218" 
d="M283 616l21 -26q-26 -33 -48 -46t-50 -13q-19 0 -32 5t-24 11q-13 7 -25.5 12.5t-31.5 5.5q-17 0 -30.5 -7t-30.5 -25l-21 26q27 33 48.5 46t48.5 13q22 0 36.5 -6t26.5 -13q10 -5 22 -9.5t29 -4.5t31 7t30 24zM171 446l-79 -446h-70l79 446h70z" />
    <glyph glyph-name="jcircumflex" unicode="&#x135;" horiz-adv-x="224" 
d="M316 566h-59l-53 67l-78 -67h-62l103 109h84zM178 446l-95 -535q-11 -65 -46.5 -99.5t-100.5 -34.5h-12l-2 45q4 0 9 0.5t9 0.5q33 1 49 21.5t24 66.5l95 535h70z" />
    <glyph glyph-name="uni0137" unicode="&#x137;" horiz-adv-x="448" 
d="M130 219l-39 -219h-70l111 628h70l-64 -363h22l190 181h89l-220 -205l178 -241h-82l-160 219h-25zM151 -246h-58l54 178h94z" />
    <glyph glyph-name="kgreenlandic" unicode="&#x138;" horiz-adv-x="448" 
d="M130 219l-39 -219h-70l79 446h70l-32 -181h22l190 181h91l-221 -206l177 -240h-85l-160 219h-22z" />
    <glyph glyph-name="lacute" unicode="&#x13a;" horiz-adv-x="217" 
d="M204 711h-62l100 109h90zM92 0h-70l111 628l73 17z" />
    <glyph glyph-name="lcaron" unicode="&#x13e;" horiz-adv-x="239" 
d="M92 0h-70l111 628l73 17zM279 450h-57l53 178h94z" />
    <glyph glyph-name="uni013C" unicode="&#x13c;" horiz-adv-x="217" 
d="M92 0h-70l111 628l73 17zM3 -246h-58l54 178h94z" />
    <glyph glyph-name="uni1E41" unicode="&#x1e41;" horiz-adv-x="779" 
d="M483 628l-17 -97h-71l17 97h71zM658 0h-70l57 313q10 57 -9.5 79t-78.5 22q-32 0 -57 -6.5t-59 -22.5q1 -4 -0.5 -9.5t-2.5 -14.5l-65 -361h-70l56 313q10 57 -9 79t-77 22q-30 0 -58.5 -8t-56.5 -20l-69 -386h-70l72 407q58 28 110 40.5t98 12.5q49 0 74.5 -8t41.5 -28
q47 20 84 28t84 8q87 0 116 -35.5t13 -126.5z" />
    <glyph glyph-name="nacute" unicode="&#x144;" horiz-adv-x="501" 
d="M306 531h-56l100 107h88zM380 0h-70l55 305q11 61 -9 85t-80 24q-29 0 -58.5 -7.5t-59.5 -20.5l-69 -386h-70l72 407q52 25 106.5 39t105.5 14q86 0 115.5 -39t13.5 -131z" />
    <glyph glyph-name="napostrophe" unicode="&#x149;" horiz-adv-x="579" 
d="M112 450h-57l53 178h94zM458 0h-70l55 305q11 61 -9 85t-80 24q-29 0 -58.5 -7.5t-59.5 -20.5l-69 -386h-70l72 407q52 25 106.5 39t105.5 14q86 0 115.5 -39t13.5 -131z" />
    <glyph glyph-name="ncaron" unicode="&#x148;" horiz-adv-x="501" 
d="M439 638l-104 -107h-84l-65 107h57l57 -66l80 66h59zM380 0h-70l55 305q11 61 -9 85t-80 24q-29 0 -58.5 -7.5t-59.5 -20.5l-69 -386h-70l72 407q52 25 106.5 39t105.5 14q86 0 115.5 -39t13.5 -131z" />
    <glyph glyph-name="uni0146" unicode="&#x146;" horiz-adv-x="501" 
d="M380 0h-70l55 305q11 61 -9 85t-80 24q-29 0 -58.5 -7.5t-59.5 -20.5l-69 -386h-70l72 407q52 25 106.5 39t105.5 14q86 0 115.5 -39t13.5 -131zM145 -246h-58l54 178h94z" />
    <glyph glyph-name="uni1E45" unicode="&#x1e45;" horiz-adv-x="501" 
d="M342 628l-17 -97h-71l17 97h71zM380 0h-70l55 305q11 61 -9 85t-80 24q-29 0 -58.5 -7.5t-59.5 -20.5l-69 -386h-70l72 407q52 25 106.5 39t105.5 14q86 0 115.5 -39t13.5 -131z" />
    <glyph glyph-name="eng" unicode="&#x14b;" horiz-adv-x="501" 
d="M365 -89q-12 -67 -48 -100.5t-99 -33.5h-12l-2 45h10.5t7.5 1q32 3 48.5 23t24.5 65l16 89h-1l22 121l27 155h1l5 29q11 61 -9 85t-80 24q-29 0 -58.5 -7.5t-59.5 -20.5l-69 -386h-70l72 407q52 25 106.5 39t105.5 14q86 0 115.5 -39t13.5 -131l-25 -137z" />
    <glyph glyph-name="uni0272" unicode="&#x272;" horiz-adv-x="501" 
d="M380 0h-70l55 305q11 61 -9 85t-80 24q-29 0 -58.5 -7.5t-59.5 -20.5l-37 -209l-47 -266q-12 -67 -48 -100.5t-99 -33.5h-13l-1 45h10t8 1q31 3 48 23t25 65l16 89h-1l72 407q52 25 106.5 39t105.5 14q86 0 115.5 -39t13.5 -131z" />
    <glyph glyph-name="obreve" unicode="&#x14f;" horiz-adv-x="499" 
d="M437 638q-5 -27 -19 -48t-34 -34.5t-43.5 -21t-47.5 -7.5q-50 0 -84 27t-24 84h57q-6 -36 13 -52t44 -16q27 0 49 17t29 51h60zM443 222q-20 -111 -85 -173.5t-162 -62.5t-139.5 62.5t-23.5 173.5q20 112 85 175t162 63t139.5 -63t23.5 -175zM372 222q16 90 -10.5 141
t-89.5 51t-107.5 -51t-60.5 -141t10.5 -140t89.5 -50t107.5 50t60.5 140z" />
    <glyph glyph-name="uni01D2" unicode="&#x1d2;" horiz-adv-x="499" 
d="M438 638l-104 -107h-84l-65 107h57l57 -66l80 66h59zM443 222q-20 -111 -85 -173.5t-162 -62.5t-139.5 62.5t-23.5 173.5q20 112 85 175t162 63t139.5 -63t23.5 -175zM372 222q16 90 -10.5 141t-89.5 51t-107.5 -51t-60.5 -141t10.5 -140t89.5 -50t107.5 50t60.5 140z
" />
    <glyph glyph-name="uni1ECD" unicode="&#x1ecd;" horiz-adv-x="499" 
d="M443 222q-20 -111 -85 -173.5t-162 -62.5t-139.5 62.5t-23.5 173.5q20 112 85 175t162 63t139.5 -63t23.5 -175zM372 222q16 90 -10.5 141t-89.5 51t-107.5 -51t-60.5 -141t10.5 -140t89.5 -50t107.5 50t60.5 140zM214 -145h-82l14 77h82z" />
    <glyph glyph-name="ohungarumlaut" unicode="&#x151;" horiz-adv-x="499" 
d="M252 531h-56l99 107h89zM379 531h-56l99 107h89zM443 222q-20 -111 -85 -173.5t-162 -62.5t-139.5 62.5t-23.5 173.5q20 112 85 175t162 63t139.5 -63t23.5 -175zM372 222q16 90 -10.5 141t-89.5 51t-107.5 -51t-60.5 -141t10.5 -140t89.5 -50t107.5 50t60.5 140z" />
    <glyph glyph-name="omacron" unicode="&#x14d;" horiz-adv-x="499" 
d="M169 571l10 57h260l-10 -57h-260zM443 222q-20 -111 -85 -173.5t-162 -62.5t-139.5 62.5t-23.5 173.5q20 112 85 175t162 63t139.5 -63t23.5 -175zM372 222q16 90 -10.5 141t-89.5 51t-107.5 -51t-60.5 -141t10.5 -140t89.5 -50t107.5 50t60.5 140z" />
    <glyph glyph-name="uni01EB" unicode="&#x1eb;" horiz-adv-x="499" 
d="M443 222q-14 -80 -52 -135.5t-95 -80.5q-63 -49 -85.5 -74.5t-27.5 -53.5q-4 -23 15.5 -40.5t48.5 -17.5q21 0 40.5 1.5t40.5 4.5l-7 -37q-22 -7 -51 -9.5t-48 -2.5q-48 0 -77 28.5t-22 65.5q6 32 25.5 60t56.5 55h-4.5h-4.5q-97 0 -139.5 62.5t-23.5 173.5
q20 112 85 175t162 63t139.5 -63t23.5 -175zM372 222q16 90 -10.5 141t-89.5 51t-107.5 -51t-60.5 -141t10.5 -140t89.5 -50t107.5 50t60.5 140z" />
    <glyph glyph-name="oslashacute" unicode="&#x1ff;" horiz-adv-x="510" 
d="M330 531h-56l100 107h88zM448 222q-20 -111 -85 -173.5t-162 -62.5q-43 0 -76 12.5t-54 36.5l-37 -35h-51l68 65q-15 29 -18 68.5t5 88.5q20 112 85 175t162 63q43 0 75 -12.5t54 -36.5l36 35h48l-65 -62q16 -30 20 -71t-5 -91zM109 222q-5 -31 -5.5 -56.5t3.5 -47.5
l259 247q-13 24 -35.5 36.5t-53.5 12.5q-63 0 -107.5 -51t-60.5 -141zM377 222q5 32 5.5 59.5t-4.5 49.5l-259 -249q13 -25 36 -37.5t54 -12.5q63 0 107.5 50t60.5 140z" />
    <glyph glyph-name="uni1E57" unicode="&#x1e57;" horiz-adv-x="507" 
d="M349 628l-17 -97h-71l17 97h71zM448 218q-21 -118 -79 -175t-157 -57q-28 0 -58 6t-64 19l-38 -220h-70l108 616q50 29 99 41t100 12q101 0 141 -59.5t18 -182.5zM378 219q17 99 -10 147t-101 48q-32 0 -57.5 -8t-53.5 -24l-57 -323q31 -13 56.5 -20t45.5 -7
q73 0 116.5 46t60.5 141z" />
    <glyph glyph-name="racute" unicode="&#x155;" horiz-adv-x="337" 
d="M240 531h-56l100 107h88zM358 448l-31 -53q-16 10 -38 14.5t-44 4.5q-23 0 -42.5 -5.5t-44.5 -18.5l-69 -390h-70l72 407q51 29 96.5 41t86.5 12q23 0 44.5 -3t39.5 -9z" />
    <glyph glyph-name="rcaron" unicode="&#x159;" horiz-adv-x="337" 
d="M380 638l-104 -107h-84l-65 107h57l57 -66l80 66h59zM358 448l-31 -53q-16 10 -38 14.5t-44 4.5q-23 0 -42.5 -5.5t-44.5 -18.5l-69 -390h-70l72 407q51 29 96.5 41t86.5 12q23 0 44.5 -3t39.5 -9z" />
    <glyph glyph-name="uni0157" unicode="&#x157;" horiz-adv-x="337" 
d="M358 448l-31 -53q-16 10 -38 14.5t-44 4.5q-23 0 -42.5 -5.5t-44.5 -18.5l-69 -390h-70l72 407q51 29 96.5 41t86.5 12q23 0 44.5 -3t39.5 -9zM72 -246h-58l54 178h94z" />
    <glyph glyph-name="uni1E5B" unicode="&#x1e5b;" horiz-adv-x="337" 
d="M358 448l-31 -53q-16 10 -38 14.5t-44 4.5q-23 0 -42.5 -5.5t-44.5 -18.5l-69 -390h-70l72 407q51 29 96.5 41t86.5 12q23 0 44.5 -3t39.5 -9zM69 -143h-82l14 77h82z" />
    <glyph glyph-name="sacute" unicode="&#x15b;" horiz-adv-x="419" 
d="M264 531h-56l100 107h88zM135 -14q-37 0 -70.5 9t-65.5 23l18 40q31 -13 62 -19.5t64 -6.5q58 0 96 23.5t45 64.5q5 27 -11 45t-84 33q-97 21 -124 51.5t-17 84.5q10 61 62 93.5t139 32.5q35 0 67.5 -9.5t63.5 -22.5l-20 -40q-29 12 -56.5 19t-61.5 7q-55 0 -88.5 -20.5
t-39.5 -59.5q-4 -22 14 -40.5t81 -31.5q97 -20 125.5 -48.5t18.5 -89.5q-12 -65 -70 -101.5t-148 -36.5z" />
    <glyph glyph-name="scedilla" unicode="&#x15f;" horiz-adv-x="419" 
d="M135 -14q-37 0 -70.5 9t-65.5 23l18 40q31 -13 62 -19.5t64 -6.5q58 0 96 23.5t45 64.5q5 27 -11 45t-84 33q-97 21 -124 51.5t-17 84.5q10 61 62 93.5t139 32.5q35 0 67.5 -9.5t63.5 -22.5l-20 -40q-29 12 -56.5 19t-61.5 7q-55 0 -88.5 -20.5t-39.5 -59.5
q-4 -22 14 -40.5t81 -31.5q97 -20 125.5 -48.5t18.5 -89.5q-12 -65 -70 -101.5t-148 -36.5zM58 -170l15 42q13 -4 23.5 -6t18.5 -2q20 0 32 7.5t14 21.5t-7 22t-30 8q-8 0 -19.5 -2.5t-24.5 -6.5v41q16 4 32.5 6.5t32.5 2.5q50 0 73 -18.5t17 -52.5q-6 -35 -36 -53.5
t-80 -18.5q-13 0 -29 2.5t-32 6.5z" />
    <glyph glyph-name="scircumflex" unicode="&#x15d;" horiz-adv-x="419" 
d="M385 531h-53l-59 68l-83 -68h-58l104 107h83zM135 -14q-37 0 -70.5 9t-65.5 23l18 40q31 -13 62 -19.5t64 -6.5q58 0 96 23.5t45 64.5q5 27 -11 45t-84 33q-97 21 -124 51.5t-17 84.5q10 61 62 93.5t139 32.5q35 0 67.5 -9.5t63.5 -22.5l-20 -40q-29 12 -56.5 19t-61.5 7
q-55 0 -88.5 -20.5t-39.5 -59.5q-4 -22 14 -40.5t81 -31.5q97 -20 125.5 -48.5t18.5 -89.5q-12 -65 -70 -101.5t-148 -36.5z" />
    <glyph glyph-name="uni0219" unicode="&#x219;" horiz-adv-x="419" 
d="M135 -14q-37 0 -70.5 9t-65.5 23l18 40q31 -13 62 -19.5t64 -6.5q58 0 96 23.5t45 64.5q5 27 -11 45t-84 33q-97 21 -124 51.5t-17 84.5q10 61 62 93.5t139 32.5q35 0 67.5 -9.5t63.5 -22.5l-20 -40q-29 12 -56.5 19t-61.5 7q-55 0 -88.5 -20.5t-39.5 -59.5
q-4 -22 14 -40.5t81 -31.5q97 -20 125.5 -48.5t18.5 -89.5q-12 -65 -70 -101.5t-148 -36.5zM115 -246h-58l54 178h94z" />
    <glyph glyph-name="uni1E61" unicode="&#x1e61;" horiz-adv-x="419" 
d="M301 628l-17 -97h-71l17 97h71zM135 -14q-37 0 -70.5 9t-65.5 23l18 40q31 -13 62 -19.5t64 -6.5q58 0 96 23.5t45 64.5q5 27 -11 45t-84 33q-97 21 -124 51.5t-17 84.5q10 61 62 93.5t139 32.5q35 0 67.5 -9.5t63.5 -22.5l-20 -40q-29 12 -56.5 19t-61.5 7
q-55 0 -88.5 -20.5t-39.5 -59.5q-4 -22 14 -40.5t81 -31.5q97 -20 125.5 -48.5t18.5 -89.5q-12 -65 -70 -101.5t-148 -36.5z" />
    <glyph glyph-name="uni1E63" unicode="&#x1e63;" horiz-adv-x="419" 
d="M135 -14q-37 0 -70.5 9t-65.5 23l18 40q31 -13 62 -19.5t64 -6.5q58 0 96 23.5t45 64.5q5 27 -11 45t-84 33q-97 21 -124 51.5t-17 84.5q10 61 62 93.5t139 32.5q35 0 67.5 -9.5t63.5 -22.5l-20 -40q-29 12 -56.5 19t-61.5 7q-55 0 -88.5 -20.5t-39.5 -59.5
q-4 -22 14 -40.5t81 -31.5q97 -20 125.5 -48.5t18.5 -89.5q-12 -65 -70 -101.5t-148 -36.5zM174 -145h-82l14 77h82z" />
    <glyph glyph-name="uni0259" unicode="&#x259;" horiz-adv-x="481" 
d="M55 238h301q13 84 -14.5 130t-89.5 46q-38 0 -78 -8.5t-73 -23.5l-7 45q40 16 83 24.5t83 8.5q98 0 140.5 -62.5t23.5 -175.5q-20 -112 -83 -174t-158 -62q-94 0 -136.5 58.5t-23.5 163.5q4 19 10 24.5t22 5.5zM348 192h-257q-13 -75 13 -117.5t87 -42.5q59 0 100 42.5
t57 117.5z" />
    <glyph glyph-name="tbar" unicode="&#x167;" horiz-adv-x="299" 
d="M221 35l-15 -47q-11 -1 -19.5 -1.5t-15.5 -0.5q-69 0 -96 32t-15 101l22 121h-58l7 41h58l21 119h-60l8 46h60l23 134l73 17l-26 -151h111l-8 -46h-111l-21 -119h106l-7 -41h-106l-22 -121q-9 -51 3 -69t55 -18q10 0 18 1t15 2z" />
    <glyph glyph-name="tcaron" unicode="&#x165;" horiz-adv-x="310" 
d="M377 450h-57l53 178h94zM216 35l-15 -47q-11 -1 -19.5 -1.5t-15.5 -0.5q-69 0 -96 32t-15 101l50 281h-60l8 46h60l23 134l73 17l-26 -151h111l-8 -46h-111l-50 -281q-9 -51 3 -69t55 -18q10 0 18 1t15 2z" />
    <glyph glyph-name="uni0163" unicode="&#x163;" horiz-adv-x="289" 
d="M216 35l-15 -47q-11 -1 -19.5 -1.5t-15.5 -0.5q-69 0 -96 32t-15 101l50 281h-60l8 46h60l23 134l73 17l-26 -151h111l-8 -46h-111l-50 -281q-9 -51 3 -69t55 -18q10 0 18 1t15 2zM27 -170l15 42q13 -4 23.5 -6t18.5 -2q20 0 32 7.5t14 21.5t-7 22t-30 8q-8 0 -19.5 -2.5
t-24.5 -6.5v41q16 4 32.5 6.5t32.5 2.5q50 0 73 -18.5t17 -52.5q-6 -35 -36 -53.5t-80 -18.5q-13 0 -29 2.5t-32 6.5z" />
    <glyph glyph-name="uni021B" unicode="&#x21b;" horiz-adv-x="289" 
d="M216 35l-15 -47q-11 -1 -19.5 -1.5t-15.5 -0.5q-69 0 -96 32t-15 101l50 281h-60l8 46h60l23 134l73 17l-26 -151h111l-8 -46h-111l-50 -281q-9 -51 3 -69t55 -18q10 0 18 1t15 2zM68 -246h-58l54 178h94z" />
    <glyph glyph-name="uni1E6B" unicode="&#x1e6b;" horiz-adv-x="289" 
d="M216 747l-17 -97h-71l17 97h71zM216 35l-15 -47q-11 -1 -19.5 -1.5t-15.5 -0.5q-69 0 -96 32t-15 101l50 281h-60l8 46h60l23 134l73 17l-26 -151h111l-8 -46h-111l-50 -281q-9 -51 3 -69t55 -18q10 0 18 1t15 2z" />
    <glyph glyph-name="uni1E6D" unicode="&#x1e6d;" horiz-adv-x="289" 
d="M216 35l-15 -47q-11 -1 -19.5 -1.5t-15.5 -0.5q-69 0 -96 32t-15 101l50 281h-60l8 46h60l23 134l73 17l-26 -151h111l-8 -46h-111l-50 -281q-9 -51 3 -69t55 -18q10 0 18 1t15 2zM119 -145h-82l14 77h82z" />
    <glyph glyph-name="ubreve" unicode="&#x16d;" horiz-adv-x="502" 
d="M437 638q-5 -27 -19 -48t-34 -34.5t-43.5 -21t-47.5 -7.5q-50 0 -84 27t-24 84h57q-6 -36 13 -52t44 -16q27 0 49 17t29 51h60zM96 446h70l-54 -307q-10 -58 10.5 -82.5t80.5 -24.5q30 0 57 5t60 18l69 391h70l-71 -400q-54 -32 -103 -46t-109 -14q-87 0 -117 38.5
t-14 129.5z" />
    <glyph glyph-name="uni01D4" unicode="&#x1d4;" horiz-adv-x="502" 
d="M438 638l-104 -107h-84l-65 107h57l57 -66l80 66h59zM96 446h70l-54 -307q-10 -58 10.5 -82.5t80.5 -24.5q30 0 57 5t60 18l69 391h70l-71 -400q-54 -32 -103 -46t-109 -14q-87 0 -117 38.5t-14 129.5z" />
    <glyph glyph-name="uni01D8" unicode="&#x1d8;" horiz-adv-x="502" 
d="M339 711h-62l100 109h90zM273 628l-17 -97h-68l17 97h68zM413 628l-17 -97h-68l17 97h68zM96 446h70l-54 -307q-10 -58 10.5 -82.5t80.5 -24.5q30 0 57 5t60 18l69 391h70l-71 -400q-54 -32 -103 -46t-109 -14q-87 0 -117 38.5t-14 129.5z" />
    <glyph glyph-name="uni01DA" unicode="&#x1da;" horiz-adv-x="502" 
d="M469 820l-104 -109h-83l-65 109h60l52 -68l76 68h64zM273 628l-17 -97h-68l17 97h68zM413 628l-17 -97h-68l17 97h68zM96 446h70l-54 -307q-10 -58 10.5 -82.5t80.5 -24.5q30 0 57 5t60 18l69 391h70l-71 -400q-54 -32 -103 -46t-109 -14q-87 0 -117 38.5t-14 129.5z" />
    <glyph glyph-name="uni01DC" unicode="&#x1dc;" horiz-adv-x="502" 
d="M307 711l-91 109h90l61 -109h-60zM273 628l-17 -97h-68l17 97h68zM413 628l-17 -97h-68l17 97h68zM96 446h70l-54 -307q-10 -58 10.5 -82.5t80.5 -24.5q30 0 57 5t60 18l69 391h70l-71 -400q-54 -32 -103 -46t-109 -14q-87 0 -117 38.5t-14 129.5z" />
    <glyph glyph-name="uni01D6" unicode="&#x1d6;" horiz-adv-x="502" 
d="M194 711l10 57h260l-10 -57h-260zM273 628l-17 -97h-68l17 97h68zM413 628l-17 -97h-68l17 97h68zM96 446h70l-54 -307q-10 -58 10.5 -82.5t80.5 -24.5q30 0 57 5t60 18l69 391h70l-71 -400q-54 -32 -103 -46t-109 -14q-87 0 -117 38.5t-14 129.5z" />
    <glyph glyph-name="uni1EE5" unicode="&#x1ee5;" horiz-adv-x="502" 
d="M96 446h70l-54 -307q-10 -58 10.5 -82.5t80.5 -24.5q30 0 57 5t60 18l69 391h70l-71 -400q-54 -32 -103 -46t-109 -14q-87 0 -117 38.5t-14 129.5zM214 -145h-82l14 77h82z" />
    <glyph glyph-name="uhungarumlaut" unicode="&#x171;" horiz-adv-x="502" 
d="M244 531h-56l99 107h89zM371 531h-56l99 107h89zM96 446h70l-54 -307q-10 -58 10.5 -82.5t80.5 -24.5q30 0 57 5t60 18l69 391h70l-71 -400q-54 -32 -103 -46t-109 -14q-87 0 -117 38.5t-14 129.5z" />
    <glyph glyph-name="umacron" unicode="&#x16b;" horiz-adv-x="502" 
d="M169 571l10 57h260l-10 -57h-260zM96 446h70l-54 -307q-10 -58 10.5 -82.5t80.5 -24.5q30 0 57 5t60 18l69 391h70l-71 -400q-54 -32 -103 -46t-109 -14q-87 0 -117 38.5t-14 129.5z" />
    <glyph glyph-name="uogonek" unicode="&#x173;" horiz-adv-x="502" 
d="M96 446h70l-54 -307q-10 -58 10.5 -82.5t80.5 -24.5q30 0 57 5t60 18l69 391h70l-71 -400q-21 -13 -41.5 -22.5t-39.5 -16.5q-64 -50 -86.5 -75.5t-27.5 -53.5q-4 -23 15.5 -40.5t48.5 -17.5q21 0 40.5 1.5t40.5 4.5l-7 -37q-22 -7 -51 -9.5t-48 -2.5q-48 0 -77 28.5
t-22 65.5q6 33 26 61t58 56q-10 -1 -20.5 -1.5t-20.5 -0.5q-87 0 -117 38.5t-14 129.5z" />
    <glyph glyph-name="uring" unicode="&#x16f;" horiz-adv-x="502" 
d="M414 614v-9t-1 -10q-6 -34 -36 -51.5t-84 -17.5t-79 17.5t-18 51.5q6 34 36.5 51.5t84.5 17.5q47 0 71.5 -12.5t25.5 -37.5zM344 595q4 25 -3 34.5t-28 9.5q-23 0 -34 -9.5t-15 -34.5t3.5 -34.5t29.5 -9.5t32.5 9.5t14.5 34.5zM96 446h70l-54 -307q-10 -58 10.5 -82.5
t80.5 -24.5q30 0 57 5t60 18l69 391h70l-71 -400q-54 -32 -103 -46t-109 -14q-87 0 -117 38.5t-14 129.5z" />
    <glyph glyph-name="utilde" unicode="&#x169;" horiz-adv-x="502" 
d="M425 616l21 -26q-26 -33 -48 -46t-50 -13q-19 0 -32 5t-24 11q-13 7 -25.5 12.5t-31.5 5.5q-17 0 -30.5 -7t-30.5 -25l-21 26q27 33 48.5 46t48.5 13q22 0 36.5 -6t26.5 -13q10 -5 22 -9.5t29 -4.5t31 7t30 24zM96 446h70l-54 -307q-10 -58 10.5 -82.5t80.5 -24.5
q30 0 57 5t60 18l69 391h70l-71 -400q-54 -32 -103 -46t-109 -14q-87 0 -117 38.5t-14 129.5z" />
    <glyph glyph-name="wacute" unicode="&#x1e83;" horiz-adv-x="688" 
d="M422 531h-56l100 107h88zM638 446h52l-216 -446h-63l-51 384l-184 -384h-64l-62 446h77l44 -359l169 359h86l46 -351z" />
    <glyph glyph-name="wcircumflex" unicode="&#x175;" horiz-adv-x="688" 
d="M526 531h-53l-59 68l-83 -68h-58l104 107h83zM638 446h52l-216 -446h-63l-51 384l-184 -384h-64l-62 446h77l44 -359l169 359h86l46 -351z" />
    <glyph glyph-name="wdieresis" unicode="&#x1e85;" horiz-adv-x="688" 
d="M380 628l-17 -97h-68l17 97h68zM520 628l-17 -97h-68l17 97h68zM638 446h52l-216 -446h-63l-51 384l-184 -384h-64l-62 446h77l44 -359l169 359h86l46 -351z" />
    <glyph glyph-name="wgrave" unicode="&#x1e81;" horiz-adv-x="688" 
d="M381 531l-94 107h89l62 -107h-57zM638 446h52l-216 -446h-63l-51 384l-184 -384h-64l-62 446h77l44 -359l169 359h86l46 -351z" />
    <glyph glyph-name="ycircumflex" unicode="&#x177;" horiz-adv-x="420" 
d="M390 531h-53l-59 68l-83 -68h-58l104 107h83zM427 446l-378 -655h-58l146 255l-86 400h77l63 -309l177 309h59z" />
    <glyph glyph-name="ygrave" unicode="&#x1ef3;" horiz-adv-x="420" 
d="M243 533l-94 107h89l62 -107h-57zM427 446l-378 -655h-58l146 255l-86 400h77l63 -309l177 309h59z" />
    <glyph glyph-name="uni0233" unicode="&#x233;" horiz-adv-x="420" 
d="M136 571l10 57h260l-10 -57h-260zM427 446l-378 -655h-58l146 255l-86 400h77l63 -309l177 309h59z" />
    <glyph glyph-name="uni1EF9" unicode="&#x1ef9;" horiz-adv-x="420" 
d="M390 616l21 -26q-26 -33 -48 -46t-50 -13q-19 0 -32 5t-24 11q-13 7 -25.5 12.5t-31.5 5.5q-17 0 -30.5 -7t-30.5 -25l-21 26q27 33 48.5 46t48.5 13q22 0 36.5 -6t26.5 -13q10 -5 22 -9.5t29 -4.5t31 7t30 24zM427 446l-378 -655h-58l146 255l-86 400h77l63 -309
l177 309h59z" />
    <glyph glyph-name="zacute" unicode="&#x17a;" horiz-adv-x="442" 
d="M279 531h-56l100 107h88zM417 388l-342 -342h288l-8 -46h-379l9 48l355 352h-270l8 46h349z" />
    <glyph glyph-name="zdotaccent" unicode="&#x17c;" horiz-adv-x="442" 
d="M317 628l-17 -97h-71l17 97h71zM417 388l-342 -342h288l-8 -46h-379l9 48l355 352h-270l8 46h349z" />
    <glyph glyph-name="uni1E93" unicode="&#x1e93;" horiz-adv-x="442" 
d="M417 388l-342 -342h288l-8 -46h-379l9 48l355 352h-270l8 46h349zM185 -145h-82l14 77h82z" />
    <glyph glyph-name="uni0410" unicode="&#x410;" horiz-adv-x="566" 
d="M417 0l-28 177h-272l-91 -177h-57l326 628h94l104 -628h-76zM141 223h240l-56 356z" />
    <glyph glyph-name="uni0411" unicode="&#x411;" horiz-adv-x="531" 
d="M495 628l-8 -46h-279l-33 -192h104q102 -1 158.5 -55.5t41.5 -138.5q-18 -99 -93.5 -147.5t-213.5 -48.5h-140l110 628h353zM114 46h91q84 0 132 39t62 119q10 61 -27 100.5t-106 39.5h-100z" />
    <glyph glyph-name="uni0412" unicode="&#x412;" horiz-adv-x="599" 
d="M383 353q86 -7 127.5 -48.5t30.5 -108.5q-18 -101 -112.5 -148.5t-277.5 -47.5h-119l110 628h208q101 0 151.5 -37t39.5 -103q-8 -47 -50 -83t-108 -52zM337 582h-129l-39 -221q138 0 211.5 31.5t84.5 95.5q8 48 -23.5 71t-104.5 23zM114 46h68q134 0 200.5 37t81.5 121
q9 51 -31.5 84t-112.5 33q-40 0 -80 -3t-80 -8z" />
    <glyph glyph-name="uni0413" unicode="&#x413;" horiz-adv-x="462" 
d="M32 0l110 628h357l-8 -46h-283l-102 -582h-74z" />
    <glyph glyph-name="uni0403" unicode="&#x403;" horiz-adv-x="462" 
d="M346 711h-62l100 109h90zM32 0l110 628h357l-8 -46h-283l-102 -582h-74z" />
    <glyph glyph-name="uni0490" unicode="&#x490;" horiz-adv-x="461" 
d="M32 0l110 628h282l21 117h74l-27 -152v0l-2 -11h-282l-102 -582h-74z" />
    <glyph glyph-name="uni0414" unicode="&#x414;" horiz-adv-x="583" 
d="M-60 -128l26 152v0l4 22q44 13 77.5 45.5t48.5 104.5l96 432h350l-103 -582h66l-8 -46v0l-23 -128h-74l23 128h-387l-22 -128h-74zM256 582l-86 -386q-10 -50 -30.5 -87.5t-48.5 -62.5h274l95 536h-204z" />
    <glyph glyph-name="uni0415" unicode="&#x415;" 
d="M517 628l-9 -46h-300l-41 -232h265l-9 -47h-264l-45 -257h300l-8 -46h-374l110 628h375z" />
    <glyph glyph-name="uni0401" unicode="&#x401;" 
d="M318 808l-18 -97h-69l17 97h70zM473 808l-17 -97h-69l17 97h69zM517 628l-9 -46h-300l-41 -232h265l-9 -47h-264l-45 -257h300l-8 -46h-374l110 628h375z" />
    <glyph glyph-name="uni0416" unicode="&#x416;" horiz-adv-x="794" 
d="M-58 0l341 340l-177 288h85l160 -268h21l47 268h74l-47 -268h20l253 268h88l-280 -291l214 -337h-82l-200 315h-21l-56 -315h-74l56 315h-21l-307 -315h-94z" />
    <glyph glyph-name="uni0417" unicode="&#x417;" horiz-adv-x="510" 
d="M290 333q86 -10 127 -52t29 -108q-16 -88 -90.5 -137.5t-184.5 -49.5q-54 0 -99.5 14t-85.5 39l22 42q40 -21 82.5 -35t87.5 -14q81 0 131 36.5t61 101.5q11 60 -42 96.5t-149 36.5h-67l8 46h67q83 0 138.5 40.5t65.5 98.5q9 51 -23.5 79.5t-104.5 28.5q-35 0 -75 -10
t-77 -27l-8 39q44 21 89.5 32.5t82.5 11.5q103 0 154 -41t38 -114q-10 -58 -54.5 -97t-122.5 -57z" />
    <glyph glyph-name="uni0418" unicode="&#x418;" horiz-adv-x="643" 
d="M196 628l-96 -544l431 544h87l-111 -628h-53l96 541l-429 -541h-89l110 628h54z" />
    <glyph glyph-name="uni0419" unicode="&#x419;" horiz-adv-x="643" 
d="M540 820q-10 -52 -48.5 -83t-95.5 -31t-86.5 30.5t-20.5 83.5h57q-6 -34 9.5 -54t46.5 -20t52.5 20t27.5 54h58zM196 628l-96 -544l431 544h87l-111 -628h-53l96 541l-429 -541h-89l110 628h54z" />
    <glyph glyph-name="uni041A" unicode="&#x41a;" horiz-adv-x="541" 
d="M494 0h-83l-232 315h-18l-55 -315h-74l110 628h74l-48 -268h18l280 268h88l-308 -294z" />
    <glyph glyph-name="uni040C" unicode="&#x40c;" horiz-adv-x="541" 
d="M377 711h-62l100 109h90zM494 0h-83l-232 315h-18l-55 -315h-74l110 628h74l-48 -268h18l280 268h88l-308 -294z" />
    <glyph glyph-name="uni041B" unicode="&#x41b;" horiz-adv-x="567" 
d="M262 582l-93 -386q-23 -96 -76 -146t-131 -50l8 46q51 15 80.5 49.5t44.5 100.5l102 432h345l-111 -628h-74l103 582h-198z" />
    <glyph glyph-name="uni041C" unicode="&#x41c;" horiz-adv-x="740" 
d="M581 628h99l-44 -628h-75l42 559l-255 -559h-87l-50 562l-148 -562h-60l172 628h101l54 -547z" />
    <glyph glyph-name="uni041D" unicode="&#x41d;" horiz-adv-x="613" 
d="M465 350l49 278h74l-111 -628h-74l54 304h-298l-53 -304h-74l110 628h74l-49 -278h298z" />
    <glyph glyph-name="uni041E" unicode="&#x41e;" horiz-adv-x="675" 
d="M400 642q140 0 200 -84.5t31 -244.5q-28 -159 -117 -243t-230 -84q-140 0 -199.5 84t-31.5 243q28 160 117.5 244.5t229.5 84.5zM292 32q103 0 171 72t92 209q25 138 -17.5 210.5t-146.5 72.5q-102 0 -169.5 -72.5t-92.5 -210.5q-24 -137 18.5 -209t144.5 -72z" />
    <glyph glyph-name="uni041F" unicode="&#x41f;" horiz-adv-x="613" 
d="M106 0h-74l110 628h446l-111 -628h-74l103 582h-298z" />
    <glyph glyph-name="uni0420" unicode="&#x420;" horiz-adv-x="567" 
d="M566 464q-18 -101 -107 -144.5t-282 -44.5h-23l-48 -275h-74l110 628h227q114 0 163 -40.5t34 -123.5zM490 469q10 57 -25 85t-114 28h-143l-46 -262q163 0 238.5 34t89.5 115z" />
    <glyph glyph-name="uni0421" unicode="&#x421;" horiz-adv-x="551" 
d="M472 62l4 -42q-49 -18 -98 -26t-96 -8q-140 0 -198 84t-30 245q28 160 116 243.5t228 83.5q48 0 93.5 -8.5t87.5 -27.5l-19 -43q-38 16 -80 24.5t-89 8.5q-104 0 -170.5 -71.5t-90.5 -209.5q-25 -139 16.5 -211t145.5 -72q46 0 90 7t90 23z" />
    <glyph glyph-name="uni0422" unicode="&#x422;" horiz-adv-x="509" 
d="M548 628l-9 -46h-197l-103 -582h-74l103 582h-197l8 46h469z" />
    <glyph glyph-name="uni0423" unicode="&#x423;" horiz-adv-x="475" 
d="M254 137q-40 -69 -101 -110t-125 -41l11 55q34 0 71.5 20.5t67.5 57.5l-110 509h75l90 -421l240 421h58z" />
    <glyph glyph-name="uni040E" unicode="&#x40e;" horiz-adv-x="475" 
d="M463 820q-10 -52 -48.5 -83t-95.5 -31t-86.5 30.5t-20.5 83.5h57q-6 -34 9.5 -54t46.5 -20t52.5 20t27.5 54h58zM254 137q-40 -69 -101 -110t-125 -41l11 55q34 0 71.5 20.5t67.5 57.5l-110 509h75l90 -421l240 421h58z" />
    <glyph glyph-name="uni0424" unicode="&#x424;" horiz-adv-x="658" 
d="M426 628l-10 -57q116 -10 168 -77t32 -183q-19 -110 -94.5 -173.5t-194.5 -72.5l-12 -65h-74l12 65q-116 9 -169 72.5t-34 173.5q20 116 96.5 183t195.5 77l10 57h74zM537 311q16 93 -17.5 148t-111.5 65l-73 -412q82 10 134.5 61.5t67.5 137.5zM128 311
q-15 -87 19.5 -138t113.5 -61l73 412q-83 -10 -136.5 -65t-69.5 -148z" />
    <glyph glyph-name="uni0425" unicode="&#x425;" horiz-adv-x="528" 
d="M466 0h-80l-129 281l-243 -281h-70l289 332l-136 296h80l107 -234l196 234h65l-237 -286z" />
    <glyph glyph-name="uni0427" unicode="&#x427;" horiz-adv-x="553" 
d="M112 628h74l-43 -240q-10 -60 18 -84t105 -24q31 0 65.5 7.5t67.5 20.5l56 320h74l-110 -628h-74l45 259q-37 -12 -75 -18.5t-76 -6.5q-108 0 -145.5 38.5t-21.5 131.5z" />
    <glyph glyph-name="uni0426" unicode="&#x426;" horiz-adv-x="632" 
d="M449 -128l23 128h-440l110 628h74l-102 -582h297l103 582h74l-103 -582h69l-4 -22v0l-27 -152h-74z" />
    <glyph glyph-name="uni0428" unicode="&#x428;" horiz-adv-x="785" 
d="M216 628l-102 -582h198l103 582h73l-103 -582h198l103 582h74l-111 -628h-617l110 628h74z" />
    <glyph glyph-name="uni0429" unicode="&#x429;" horiz-adv-x="804" 
d="M622 -128l23 128h-613l110 628h74l-102 -582h198l103 582h73l-103 -582h198l103 582h74l-103 -582h69l-4 -22h1l-27 -152h-74z" />
    <glyph glyph-name="uni040F" unicode="&#x40f;" horiz-adv-x="613" 
d="M194 -128l23 128h-185l110 628h74l-102 -582h297l103 582h74l-111 -628h-186l-23 -128h-74z" />
    <glyph glyph-name="uni042F" unicode="&#x42f;" horiz-adv-x="580" 
d="M82 473q13 76 77.5 115.5t175.5 39.5h220l-111 -628h-74l51 288q-31 0 -72 1t-83 8l-212 -297h-84l228 311q-57 18 -92.5 55.5t-23.5 106.5zM160 479q-13 -75 49.5 -110t208.5 -35h11l44 248h-138q-77 0 -121.5 -26t-53.5 -77z" />
    <glyph glyph-name="uni042C" unicode="&#x42c;" horiz-adv-x="526" 
d="M216 628l-41 -238h104q101 -1 156.5 -55.5t40.5 -138.5q-17 -99 -92 -147.5t-212 -48.5h-140l110 628h74zM114 46h91q83 0 130.5 39t61.5 119q10 61 -26.5 100.5t-104.5 39.5h-100z" />
    <glyph glyph-name="uni042A" unicode="&#x42a;" horiz-adv-x="568" 
d="M274 628l-42 -238h104q94 -1 145.5 -55.5t36.5 -138.5q-17 -99 -88.5 -147.5t-200.5 -48.5h-140l103 582h-124l9 46h197zM172 46h91q75 0 118 39t57 119q10 61 -22 100.5t-93 39.5h-99z" />
    <glyph glyph-name="uni042B" unicode="&#x42b;" horiz-adv-x="730" 
d="M216 628l-41 -238h104q101 -1 156.5 -55.5t40.5 -138.5q-17 -99 -92 -147.5t-212 -48.5h-140l110 628h74zM705 628l-111 -628h-74l111 628h74zM114 46h91q84 0 131 39t61 119q10 61 -26 100.5t-105 39.5h-100z" />
    <glyph glyph-name="uni0409" unicode="&#x409;" horiz-adv-x="825" 
d="M255 582l-86 -386q-20 -93 -74.5 -144.5t-132.5 -51.5l8 46q51 15 81.5 51t44.5 99l95 432h345l-42 -238h81q102 -1 158 -55.5t41 -138.5q-17 -99 -92.5 -147.5t-213.5 -48.5h-117l103 582h-199zM562 344h-76l-53 -298h68q84 0 132 39t61 119q11 61 -26 100.5t-106 39.5z
" />
    <glyph glyph-name="uni040A" unicode="&#x40a;" horiz-adv-x="858" 
d="M571 628l-49 -279h81q102 0 159 -50.5t43 -128.5q-15 -86 -89.5 -128t-212.5 -42h-116l53 304h-282l-53 -304h-73l110 628h74l-49 -278h281l49 278h74zM469 46h67q84 0 130.5 32.5t58.5 99.5q10 54 -28 89.5t-107 35.5h-76z" />
    <glyph glyph-name="uni0405" unicode="&#x405;" horiz-adv-x="520" 
d="M284 368q110 -23 153.5 -67t30.5 -119q-16 -90 -91 -143t-187 -53q-53 0 -96.5 13.5t-86.5 38.5l20 42q47 -25 89 -36.5t82 -11.5q78 0 131 36.5t64 99.5q8 46 -23.5 77.5t-129.5 53.5q-102 22 -140.5 62.5t-27.5 104.5q14 78 84 127t168 49q42 0 84 -11.5t79 -36.5
l-22 -39q-31 18 -67 29.5t-79 11.5q-69 0 -117.5 -33t-58.5 -85q-8 -45 24.5 -69t116.5 -41z" />
    <glyph glyph-name="uni0404" unicode="&#x404;" horiz-adv-x="552" 
d="M472 62l4 -42q-49 -18 -98 -26t-96 -8q-140 0 -198 85t-30 248q28 158 116 240.5t228 82.5q48 0 93 -10.5t88 -29.5l-19 -39q-38 16 -80 24.5t-89 8.5q-100 0 -165.5 -65.5t-91.5 -190.5h296l-9 -50h-295q-17 -127 25 -192.5t141 -65.5q46 0 90 7t90 23z" />
    <glyph glyph-name="uni042D" unicode="&#x42d;" horiz-adv-x="553" 
d="M0 62q40 -16 82 -23t88 -7q99 0 163.5 64.5t91.5 189.5h-296l9 50h296q19 128 -23 194t-142 66q-47 0 -92 -8.5t-89 -24.5l-3 43q49 19 97 27.5t97 8.5q140 0 198 -83.5t30 -243.5q-28 -161 -116 -245t-228 -84q-47 0 -93 8t-89 26z" />
    <glyph glyph-name="uni0406" unicode="&#x406;" horiz-adv-x="242" 
d="M216 628l-110 -628h-74l110 628h74z" />
    <glyph glyph-name="uni0407" unicode="&#x407;" horiz-adv-x="242" 
d="M168 808l-18 -97h-69l17 97h70zM323 808l-17 -97h-69l17 97h69zM216 628l-110 -628h-74l110 628h74z" />
    <glyph glyph-name="uni0408" unicode="&#x408;" horiz-adv-x="253" 
d="M154 628h74l-117 -665q-13 -72 -52.5 -103.5t-115.5 -31.5q-17 0 -31.5 3t-27.5 9l17 41q11 -3 22.5 -5t22.5 -2q43 0 62.5 19t28.5 70z" />
    <glyph glyph-name="uni040B" unicode="&#x40b;" horiz-adv-x="646" 
d="M542 0h-71l42 240q11 60 -15.5 84.5t-101.5 24.5q-27 0 -56.5 -7.5t-59.5 -20.5l-56 -321h-74l102 582h-181l8 46h437l-8 -46h-182l-37 -210q32 10 65 16t67 6q105 0 141 -38t20 -132z" />
    <glyph glyph-name="uni042E" unicode="&#x42e;" horiz-adv-x="902" 
d="M625 642q140 0 200 -84.5t31 -244.5q-28 -159 -117 -243t-230 -84q-138 0 -198 82t-35 236h-118l-53 -304h-73l110 628h74l-49 -278h119q34 143 120.5 217.5t218.5 74.5zM517 32q103 0 171 72t92 209q25 138 -17.5 210.5t-146.5 72.5q-102 0 -169.5 -72.5t-92.5 -210.5
q-24 -137 18.5 -209t144.5 -72z" />
    <glyph glyph-name="uni0402" unicode="&#x402;" horiz-adv-x="632" 
d="M320 0l7 43q69 0 116.5 42t59.5 114q13 69 -17 109.5t-93 40.5q-27 0 -58.5 -7.5t-56.5 -19.5l-56 -322h-74l102 582h-179l8 46h427l-8 -46h-174l-38 -214q41 13 76 19.5t58 6.5q87 0 129.5 -52.5t26.5 -142.5q-16 -92 -85.5 -145.5t-170.5 -53.5z" />
    <glyph glyph-name="uni0430" unicode="&#x430;" horiz-adv-x="484" 
d="M278 460q84 0 116.5 -41t17.5 -127l-46 -263q-43 -19 -88 -31t-89 -12q-96 0 -140 39t-31 111q10 60 62.5 95t138.5 41q31 2 62 3.5t58 1.5l6 33q10 56 -12.5 80t-82.5 24q-27 0 -63 -5.5t-73 -15.5l-3 40q41 13 83 20t84 7zM188 32q31 0 63 7t49 14l32 179
q-26 0 -54 -1.5t-58 -4.5q-60 -5 -91.5 -28t-39.5 -68q-8 -48 17.5 -73t81.5 -25z" />
    <glyph glyph-name="uni0431" unicode="&#x431;" horiz-adv-x="514" 
d="M459 230q-20 -111 -86 -177.5t-158 -66.5q-98 0 -143 79.5t-21 213.5q31 174 114 274t199 100q39 0 74.5 5t70.5 19l-9 -51q-37 -12 -65.5 -19t-79.5 -7q-68 0 -119.5 -50.5t-84.5 -148.5q37 28 79.5 43.5t81.5 15.5q89 0 127.5 -60.5t19.5 -169.5zM122 283
q-21 -120 4 -185.5t97 -65.5q60 0 104 53t61 149q14 81 -11 126.5t-85 45.5q-44 0 -85.5 -18t-73.5 -52q-3 -13 -6 -26.5t-5 -26.5z" />
    <glyph glyph-name="uni0432" unicode="&#x432;" horiz-adv-x="452" 
d="M273 249q60 -4 89.5 -34t21.5 -76q-13 -72 -80.5 -105.5t-198.5 -33.5h-84l79 446h149q75 0 110.5 -26t26.5 -75q-6 -35 -35 -59.5t-78 -36.5zM237 401h-76l-26 -145q80 0 126 23t54 66q4 28 -16 42t-62 14zM99 46h31q85 0 129.5 24t53.5 75q5 31 -18.5 50t-69.5 19
q-22 0 -47 -2t-50 -5z" />
    <glyph glyph-name="uni0433" unicode="&#x433;" horiz-adv-x="337" 
d="M358 448l-31 -53q-16 10 -38 14.5t-44 4.5q-23 0 -42.5 -5.5t-44.5 -18.5l-69 -390h-70l72 407q51 29 96.5 41t86.5 12q23 0 44.5 -3t39.5 -9z" />
    <glyph glyph-name="uni0453" unicode="&#x453;" horiz-adv-x="337" 
d="M250 531h-56l100 107h88zM358 448l-31 -53q-16 10 -38 14.5t-44 4.5q-23 0 -42.5 -5.5t-44.5 -18.5l-69 -390h-70l72 407q51 29 96.5 41t86.5 12q23 0 44.5 -3t39.5 -9z" />
    <glyph glyph-name="uni0491" unicode="&#x491;" horiz-adv-x="370" 
d="M21 0l79 446h204l21 116h70l-25 -140v0l-4 -22h-204l-71 -400h-70z" />
    <glyph glyph-name="uni0434" unicode="&#x434;" horiz-adv-x="503" 
d="M-56 -116l25 140v0l4 22q38 10 66 44t46 106l61 250h294l-70 -400h65l-4 -22h1l-25 -140h-70l21 116h-324l-20 -116h-70zM206 401l-51 -205q-13 -50 -31.5 -87.5t-43.5 -62.5h219l63 355h-156z" />
    <glyph glyph-name="uni0435" unicode="&#x435;" horiz-adv-x="471" 
d="M362 19q-13 -5 -61 -19t-104 -14q-98 0 -141 62.5t-24 174.5q20 112 83.5 174.5t158.5 62.5q34 0 65 -8.5t52 -25.5t31.5 -43t4.5 -60q-9 -51 -41.5 -80t-78.5 -44t-101 -19t-109 -4q-4 -71 25 -107.5t83 -36.5q51 0 94 13.5t57 18.5zM266 414q-58 0 -102 -45t-61 -146
q43 1 86.5 5t79.5 15t60.5 32t30.5 55q7 45 -23.5 64.5t-70.5 19.5z" />
    <glyph glyph-name="uni0451" unicode="&#x451;" horiz-adv-x="471" 
d="M266 628l-17 -97h-68l17 97h68zM406 628l-17 -97h-68l17 97h68zM362 19q-13 -5 -61 -19t-104 -14q-98 0 -141 62.5t-24 174.5q20 112 83.5 174.5t158.5 62.5q34 0 65 -8.5t52 -25.5t31.5 -43t4.5 -60q-9 -51 -41.5 -80t-78.5 -44t-101 -19t-109 -4q-4 -71 25 -107.5
t83 -36.5q51 0 94 13.5t57 18.5zM266 414q-58 0 -102 -45t-61 -146q43 1 86.5 5t79.5 15t60.5 32t30.5 55q7 45 -23.5 64.5t-70.5 19.5z" />
    <glyph glyph-name="uni0436" unicode="&#x436;" horiz-adv-x="660" 
d="M256 219l-209 -219h-93l244 244l-145 202h84l129 -181h23l32 181h70l-32 -181h18l199 181h87l-225 -203l164 -243h-81l-147 219h-23l-39 -219h-70l39 219h-25z" />
    <glyph glyph-name="uni0437" unicode="&#x437;" horiz-adv-x="390" 
d="M204 239q63 -7 93 -37.5t22 -78.5q-12 -65 -65.5 -101t-138.5 -36q-37 0 -71.5 10t-64.5 29l22 42q28 -15 58.5 -25t63.5 -10q52 0 85 23t40 66t-26 67.5t-102 24.5h-50l9 47h49q54 0 91.5 25t44.5 67q4 28 -19 45t-66 17q-24 0 -53 -7.5t-54 -19.5l-9 41q31 14 66 23
t63 9q74 0 113 -30t30 -79q-7 -40 -42.5 -70.5t-88.5 -41.5z" />
    <glyph glyph-name="uni0438" unicode="&#x438;" horiz-adv-x="500" 
d="M152 446l-60 -345l284 345h78l-79 -446h-53l60 346l-280 -346h-81l79 446h52z" />
    <glyph glyph-name="uni0439" unicode="&#x439;" horiz-adv-x="500" 
d="M445 638q-5 -27 -19 -48t-34 -34.5t-43.5 -21t-47.5 -7.5q-50 0 -84 27t-24 84h57q-6 -36 13 -52t44 -16q27 0 49 17t29 51h60zM152 446l-60 -345l284 345h78l-79 -446h-53l60 346l-280 -346h-81l79 446h52z" />
    <glyph glyph-name="uni043A" unicode="&#x43a;" horiz-adv-x="436" 
d="M130 219l-39 -219h-70l79 446h70l-32 -181h22l190 181h91l-222 -207l169 -239h-85l-151 219h-22z" />
    <glyph glyph-name="uni045C" unicode="&#x45c;" horiz-adv-x="436" 
d="M293 531h-56l100 107h88zM130 219l-39 -219h-70l79 446h70l-32 -181h22l190 181h91l-222 -207l169 -239h-85l-151 219h-22z" />
    <glyph glyph-name="uni043B" unicode="&#x43b;" horiz-adv-x="476" 
d="M214 400l-56 -204q-28 -100 -75 -148t-113 -48l8 50q38 8 63.5 43t44.5 103l69 250h274l-79 -446h-70l70 400h-136z" />
    <glyph glyph-name="uni043C" unicode="&#x43c;" horiz-adv-x="565" 
d="M382 446h100l-12 -446h-70l12 393l-142 -393h-88l-14 395l-123 -395h-52l140 446h103l14 -367z" />
    <glyph glyph-name="uni043D" unicode="&#x43d;" horiz-adv-x="497" 
d="M347 258l33 188h70l-78 -446h-70l37 213h-210l-38 -213h-70l79 446h70l-33 -188h210z" />
    <glyph glyph-name="uni043E" unicode="&#x43e;" horiz-adv-x="499" 
d="M443 222q-20 -111 -85 -173.5t-162 -62.5t-139.5 62.5t-23.5 173.5q20 112 85 175t162 63t139.5 -63t23.5 -175zM372 222q16 90 -10.5 141t-89.5 51t-107.5 -51t-60.5 -141t10.5 -140t89.5 -50t107.5 50t60.5 140z" />
    <glyph glyph-name="uni043F" unicode="&#x43f;" horiz-adv-x="496" 
d="M301 0l71 400h-210l-71 -400h-70l79 446h349l-78 -446h-70z" />
    <glyph glyph-name="uni0440" unicode="&#x440;" horiz-adv-x="507" 
d="M448 218q-21 -118 -79 -175t-157 -57q-28 0 -58 6t-64 19l-38 -220h-70l108 616q50 29 99 41t100 12q101 0 141 -59.5t18 -182.5zM378 219q17 99 -10 147t-101 48q-32 0 -57.5 -8t-53.5 -24l-57 -323q31 -13 56.5 -20t45.5 -7q73 0 116.5 46t60.5 141z" />
    <glyph glyph-name="uni0441" unicode="&#x441;" horiz-adv-x="418" 
d="M34 222q21 118 81 178t157 60q34 0 69 -7t71 -20l-17 -39q-32 10 -60 15t-51 5q-76 0 -118.5 -45.5t-60.5 -145.5q-17 -100 9.5 -145.5t102.5 -45.5q25 0 54.5 4.5t63.5 14.5l3 -39q-39 -13 -77 -19.5t-73 -6.5q-97 0 -136 59.5t-18 176.5z" />
    <glyph glyph-name="uni0442" unicode="&#x442;" horiz-adv-x="384" 
d="M391 446l-8 -46h-137l-71 -400h-70l71 400h-138l8 46h345z" />
    <glyph glyph-name="uni0443" unicode="&#x443;" horiz-adv-x="420" 
d="M427 446l-378 -655h-58l146 255l-86 400h77l63 -309l177 309h59z" />
    <glyph glyph-name="uni045E" unicode="&#x45e;" horiz-adv-x="420" 
d="M404 638q-5 -27 -19 -48t-34 -34.5t-43.5 -21t-47.5 -7.5q-50 0 -84 27t-24 84h57q-6 -36 13 -52t44 -16q27 0 49 17t29 51h60zM427 446l-378 -655h-58l146 255l-86 400h77l63 -309l177 309h59z" />
    <glyph glyph-name="uni0444" unicode="&#x444;" horiz-adv-x="613" 
d="M262 -162h-70l26 149q-107 9 -156 72t-31 167q19 102 90 163.5t180 69.5l25 141l73 17l-28 -158q106 -9 154.5 -70.5t30.5 -162.5q-19 -104 -89.5 -166.5t-178.5 -72.5zM102 226q-14 -82 18.5 -132.5t105.5 -59.5l67 378q-76 -9 -126.5 -57.5t-64.5 -128.5zM485 226
q14 79 -18 127.5t-104 58.5l-66 -378q75 10 124.5 60.5t63.5 131.5z" />
    <glyph glyph-name="uni0445" unicode="&#x445;" horiz-adv-x="446" 
d="M377 0h-82l-98 185l-176 -185h-64l218 227l-116 219h81l87 -164l157 163h63l-197 -206z" />
    <glyph glyph-name="uni0447" unicode="&#x447;" horiz-adv-x="447" 
d="M68 446h70l-23 -129q-10 -57 11.5 -83t78.5 -26q22 0 43 4t43 11l39 223h70l-78 -446h-70l31 177q-30 -8 -54.5 -11.5t-49.5 -3.5q-85 0 -116 40t-15 130z" />
    <glyph glyph-name="uni0446" unicode="&#x446;" horiz-adv-x="511" 
d="M344 -116l20 116h-343l79 446h70l-71 -400h209l71 400h70l-71 -400h65l-8 -46v0l-21 -116h-70z" />
    <glyph glyph-name="uni0448" unicode="&#x448;" horiz-adv-x="672" 
d="M328 446h70l-71 -400h157l71 400h70l-79 -446h-525l79 446h70l-71 -400h158z" />
    <glyph glyph-name="uni0449" unicode="&#x449;" horiz-adv-x="688" 
d="M522 -116l20 116h-521l79 446h70l-71 -400h158l71 400h70l-71 -400h157l71 400h70l-71 -400h66l-8 -46v0l-20 -116h-70z" />
    <glyph glyph-name="uni045F" unicode="&#x45f;" horiz-adv-x="496" 
d="M141 -116l21 116h-141l79 446h70l-71 -400h210l70 400h70l-78 -446h-139l-21 -116h-70z" />
    <glyph glyph-name="uni044F" unicode="&#x44f;" horiz-adv-x="471" 
d="M-23 0l155 207q-48 16 -67.5 46t-12.5 73q11 60 60.5 90t137.5 30h174l-79 -446h-70l33 189h-29q-25 0 -46.5 1.5t-40.5 3.5l-135 -194h-80zM124 326q-8 -45 33 -67.5t131 -22.5h28l29 165h-63q-79 0 -115 -17t-43 -58z" />
    <glyph glyph-name="uni044C" unicode="&#x44c;" horiz-adv-x="414" 
d="M170 446l-26 -146h63q78 0 120 -42t30 -107q-12 -66 -75 -108.5t-152 -42.5h-109l79 446h70zM99 46h51q52 0 90 29.5t46 75.5q8 45 -17.5 74t-73.5 29h-59z" />
    <glyph glyph-name="uni044A" unicode="&#x44a;" horiz-adv-x="461" 
d="M217 446l-26 -146h63q78 0 120 -42t30 -107q-6 -33 -25.5 -61t-50 -48t-69.5 -31t-83 -11h-107l70 401h-101l8 45h171zM147 46h50q51 0 89.5 29.5t46.5 75.5q8 45 -18 74t-74 29h-58z" />
    <glyph glyph-name="uni044B" unicode="&#x44b;" horiz-adv-x="584" 
d="M171 446l-26 -146h62q78 0 120 -42t31 -107q-12 -66 -76 -108.5t-153 -42.5h-107l79 446h70zM537 446l-79 -446h-70l79 446h70zM100 46h52q51 0 89 29.5t46 75.5q8 45 -18 74t-74 29h-58z" />
    <glyph glyph-name="uni0459" unicode="&#x459;" horiz-adv-x="673" 
d="M215 400l-57 -204q-29 -102 -74 -149t-114 -47l8 46q38 11 63.5 46.5t44.5 103.5l70 250h273l-26 -146h63q81 0 121.5 -40t28.5 -109t-74 -110t-155 -41h-107l71 400h-136zM451 254h-56l-37 -208h52q54 0 90.5 28t44.5 77q8 47 -17.5 75t-76.5 28z" />
    <glyph glyph-name="uni045A" unicode="&#x45a;" horiz-adv-x="693" 
d="M350 273l30 173h70l-30 -173h62q81 0 122.5 -36.5t30.5 -97.5q-11 -63 -75 -101t-160 -38h-98l40 227h-211l-40 -227h-70l79 446h70l-31 -173h211zM468 227h-56l-32 -181h50q54 0 90.5 25t43.5 68q7 40 -19 64t-77 24z" />
    <glyph glyph-name="uni0455" unicode="&#x455;" horiz-adv-x="419" 
d="M135 -14q-37 0 -70.5 9t-65.5 23l18 40q31 -13 62 -19.5t64 -6.5q58 0 96 23.5t45 64.5q5 27 -11 45t-84 33q-97 21 -124 51.5t-17 84.5q10 61 62 93.5t139 32.5q35 0 67.5 -9.5t63.5 -22.5l-20 -40q-29 12 -56.5 19t-61.5 7q-55 0 -88.5 -20.5t-39.5 -59.5
q-4 -22 14 -40.5t81 -31.5q97 -20 125.5 -48.5t18.5 -89.5q-12 -65 -70 -101.5t-148 -36.5z" />
    <glyph glyph-name="uni0454" unicode="&#x454;" horiz-adv-x="419" 
d="M34 224q21 119 80.5 177.5t157.5 58.5q34 0 69 -7t71 -20l-17 -39q-32 10 -59.5 15t-51.5 5q-67 0 -110.5 -40t-62.5 -121h201l-8 -46h-202q-11 -87 17.5 -131t97.5 -44q23 0 52.5 5t65.5 15l3 -39q-40 -13 -78 -20t-72 -7q-98 0 -136.5 59.5t-17.5 178.5z" />
    <glyph glyph-name="uni044D" unicode="&#x44d;" horiz-adv-x="419" 
d="M84 204l8 46h201q10 82 -19 123t-95 41q-23 0 -53 -5t-67 -15l-3 39q42 13 79 20t71 7q98 0 136.5 -59.5t17.5 -178.5t-80.5 -177.5t-157.5 -58.5q-34 0 -68.5 7t-71.5 20l17 39q34 -10 62 -15t50 -5q69 0 112.5 43t61.5 129h-201z" />
    <glyph glyph-name="uni0456" unicode="&#x456;" horiz-adv-x="218" 
d="M203 628l-17 -97h-70l17 97h70zM171 446l-79 -446h-70l79 446h70z" />
    <glyph glyph-name="uni0457" unicode="&#x457;" horiz-adv-x="218" 
d="M131 628l-17 -97h-68l17 97h68zM271 628l-17 -97h-68l17 97h68zM171 446l-79 -446h-70l79 446h70z" />
    <glyph glyph-name="uni0458" unicode="&#x458;" horiz-adv-x="224" 
d="M210 628l-17 -97h-70l17 97h70zM178 446l-95 -535q-11 -65 -46.5 -99.5t-100.5 -34.5h-12l-2 46h18q33 1 49 21.5t24 66.5l95 535h70z" />
    <glyph glyph-name="uni045B" unicode="&#x45b;" 
d="M383 0h-70l54 305q10 57 -10 81t-79 24q-31 0 -58.5 -5.5t-59.5 -18.5l-69 -386h-70l96 544h-45l8 46h45l7 38h70l-7 -38h113l-9 -46h-111l-20 -114q37 14 67.5 22t68.5 8q87 0 116.5 -38.5t13.5 -131.5z" />
    <glyph glyph-name="uni044E" unicode="&#x44e;" horiz-adv-x="675" 
d="M617 226q-19 -115 -83.5 -177.5t-163.5 -62.5q-96 0 -138.5 59t-26.5 168h-76l-38 -213h-70l79 446h70l-33 -188h77q24 98 86.5 150t153.5 52q99 0 141 -60.5t22 -173.5zM546 226q16 91 -9.5 139.5t-90.5 48.5t-108.5 -48.5t-59.5 -139.5q-16 -93 9.5 -143.5t90.5 -50.5
t108.5 50.5t59.5 143.5z" />
    <glyph glyph-name="uni0452" unicode="&#x452;" 
d="M427 250l-52 -298q-13 -72 -51.5 -102.5t-96.5 -30.5h-12l-2 45h19q31 0 48 21t25 67l8 48v0l26 147l18 103v0l10 55q10 57 -10 81t-79 24q-31 0 -58.5 -5.5t-59.5 -18.5l-69 -386h-70l96 544h-45l8 46h45l7 38h70l-7 -38h113l-9 -46h-111l-20 -114q37 14 67.5 22t68.5 8
q87 0 116.5 -38.5t13.5 -131.5z" />
    <glyph glyph-name="Alpha" unicode="&#x391;" horiz-adv-x="566" 
d="M417 0l-28 177h-272l-91 -177h-57l326 628h94l104 -628h-76zM141 223h240l-56 356z" />
    <glyph glyph-name="Beta" unicode="&#x392;" horiz-adv-x="599" 
d="M383 353q86 -7 127.5 -48.5t30.5 -108.5q-18 -101 -112.5 -148.5t-277.5 -47.5h-119l110 628h208q101 0 151.5 -37t39.5 -103q-8 -47 -50 -83t-108 -52zM337 582h-129l-39 -221q138 0 211.5 31.5t84.5 95.5q8 48 -23.5 71t-104.5 23zM114 46h68q134 0 200.5 37t81.5 121
q9 51 -31.5 84t-112.5 33q-40 0 -80 -3t-80 -8z" />
    <glyph glyph-name="Gamma" unicode="&#x393;" horiz-adv-x="453" 
d="M106 0h-74l110 628h348l-8 -46h-274z" />
    <glyph glyph-name="uni0394" unicode="&#x394;" horiz-adv-x="566" 
d="M413 46l-92 539l-284 -539h376zM-21 0l8 46l308 582h94l103 -582l-8 -46h-505z" />
    <glyph glyph-name="Epsilon" unicode="&#x395;" 
d="M517 628l-9 -46h-300l-41 -232h265l-9 -47h-264l-45 -257h300l-8 -46h-374l110 628h375z" />
    <glyph glyph-name="Zeta" unicode="&#x396;" horiz-adv-x="519" 
d="M548 628l-9 -50l-467 -532h365l-8 -46h-458l9 51l471 531h-347l8 46h436z" />
    <glyph glyph-name="Eta" unicode="&#x397;" horiz-adv-x="613" 
d="M465 350l49 278h74l-111 -628h-74l54 304h-298l-53 -304h-74l110 628h74l-49 -278h298z" />
    <glyph glyph-name="Theta" unicode="&#x398;" horiz-adv-x="675" 
d="M400 642q140 0 200 -84.5t31 -244.5q-28 -159 -117 -243t-230 -84q-140 0 -199.5 84t-31.5 243q28 160 117.5 244.5t229.5 84.5zM292 32q103 0 171 72t92 209q25 138 -17.5 210.5t-146.5 72.5q-102 0 -169.5 -72.5t-92.5 -210.5q-24 -137 18.5 -209t144.5 -72zM209 280
l11 63h254l-12 -63h-253z" />
    <glyph glyph-name="Iota" unicode="&#x399;" horiz-adv-x="242" 
d="M216 628l-110 -628h-74l110 628h74z" />
    <glyph glyph-name="Kappa" unicode="&#x39a;" horiz-adv-x="541" 
d="M494 0h-83l-232 315h-18l-55 -315h-74l110 628h74l-48 -268h18l280 268h88l-308 -294z" />
    <glyph glyph-name="Lambda" unicode="&#x39b;" horiz-adv-x="567" 
d="M414 0l-92 575l-296 -575h-57l326 628h95l103 -628h-79z" />
    <glyph glyph-name="Mu" unicode="&#x39c;" horiz-adv-x="740" 
d="M581 628h99l-44 -628h-75l42 559l-255 -559h-87l-50 562l-148 -562h-60l172 628h101l54 -547z" />
    <glyph glyph-name="Nu" unicode="&#x39d;" horiz-adv-x="643" 
d="M564 628h54l-111 -628h-90l-235 552l-97 -552h-53l110 628h88l237 -550z" />
    <glyph glyph-name="Xi" unicode="&#x39e;" horiz-adv-x="543" 
d="M548 628l-13 -71h-434l13 71h434zM101 292l13 71h341l-13 -71h-341zM-13 0l12 71h465l-13 -71h-464z" />
    <glyph glyph-name="Omicron" unicode="&#x39f;" horiz-adv-x="675" 
d="M400 642q140 0 200 -84.5t31 -244.5q-28 -159 -117 -243t-230 -84q-140 0 -199.5 84t-31.5 243q28 160 117.5 244.5t229.5 84.5zM292 32q103 0 171 72t92 209q25 138 -17.5 210.5t-146.5 72.5q-102 0 -169.5 -72.5t-92.5 -210.5q-24 -137 18.5 -209t144.5 -72z" />
    <glyph glyph-name="Pi" unicode="&#x3a0;" horiz-adv-x="617" 
d="M106 0h-74l110 628h450l-111 -628h-74l103 582h-302z" />
    <glyph glyph-name="Rho" unicode="&#x3a1;" horiz-adv-x="567" 
d="M566 464q-18 -101 -107 -144.5t-282 -44.5h-23l-48 -275h-74l110 628h227q114 0 163 -40.5t34 -123.5zM490 469q10 57 -25 85t-114 28h-143l-46 -262q163 0 238.5 34t89.5 115z" />
    <glyph glyph-name="Sigma" unicode="&#x3a3;" horiz-adv-x="485" 
d="M-15 0l12 67l222 253l-131 262l8 46h406l-8 -46h-316l122 -246l-235 -269h350l-12 -67h-418z" />
    <glyph glyph-name="Tau" unicode="&#x3a4;" horiz-adv-x="509" 
d="M548 628l-9 -46h-197l-103 -582h-74l103 582h-197l8 46h469z" />
    <glyph glyph-name="Upsilon" unicode="&#x3a5;" horiz-adv-x="507" 
d="M530 628l-240 -338l-51 -290h-74l51 286l-126 342h80l98 -290l198 290h64z" />
    <glyph glyph-name="Phi" unicode="&#x3a6;" horiz-adv-x="702" 
d="M451 651l-11 -65q128 -9 185 -80t35 -195q-22 -123 -104 -193.5t-213 -80.5l-11 -62h-74l11 62q-128 8 -185.5 79t-35.5 195q22 125 104 195.5t214 79.5l11 65h74zM124 311q-18 -103 21.5 -162t131.5 -68l81 461q-95 -9 -155 -68t-79 -163zM584 311q19 103 -21 162
t-131 69l-81 -461q94 10 154.5 69t78.5 161z" />
    <glyph glyph-name="Chi" unicode="&#x3a7;" horiz-adv-x="528" 
d="M466 0h-80l-129 281l-243 -281h-70l289 332l-136 296h80l107 -234l196 234h65l-237 -286z" />
    <glyph glyph-name="Psi" unicode="&#x3a8;" horiz-adv-x="659" 
d="M427 628l-76 -431q83 8 134 54.5t65 127.5l44 249h74l-42 -240q-19 -105 -91 -165t-192 -68l-27 -155h-74l27 155q-118 7 -169.5 67t-33.5 166l43 240h74l-44 -249q-14 -81 21.5 -128t116.5 -54l76 431h74z" />
    <glyph glyph-name="uni03A9" unicode="&#x3a9;" horiz-adv-x="652" 
d="M2 0l9 54h170q-71 35 -103.5 113t-15.5 176q12 68 42 123t72.5 94t97 60.5t115.5 21.5q60 0 106.5 -21.5t74.5 -60.5t37.5 -94t-2.5 -123q-16 -97 -75.5 -175t-141.5 -114h169l-10 -54h-219l7 36h-1l6 30q35 22 66.5 53t56 67t42 76.5t24.5 80.5q20 115 -21 184t-128 69
t-154.5 -69t-87.5 -184q-7 -43 -4 -84.5t15.5 -77.5t34 -65.5t49.5 -48.5l-5 -25l-7 -42h-219z" />
    <glyph glyph-name="Alphatonos" unicode="&#x386;" horiz-adv-x="590" 
d="M136 450h-57l53 178h94zM441 0l-28 177h-272l-91 -177h-57l326 628h94l104 -628h-76zM165 223h240l-56 356z" />
    <glyph glyph-name="Epsilontonos" unicode="&#x388;" horiz-adv-x="604" 
d="M104 450h-57l53 178h94zM617 628l-9 -46h-300l-41 -232h265l-9 -47h-264l-45 -257h300l-8 -46h-374l110 628h375z" />
    <glyph glyph-name="Etatonos" unicode="&#x389;" horiz-adv-x="713" 
d="M104 450h-57l53 178h94zM565 350l49 278h74l-111 -628h-74l54 304h-298l-53 -304h-74l110 628h74l-49 -278h298z" />
    <glyph glyph-name="Iotatonos" unicode="&#x38a;" horiz-adv-x="337" 
d="M104 450h-57l53 178h94zM311 628l-110 -628h-74l110 628h74z" />
    <glyph glyph-name="Omicrontonos" unicode="&#x38c;" horiz-adv-x="757" 
d="M480 642q140 0 200 -84.5t31 -244.5q-28 -159 -117 -243t-230 -84q-140 0 -199.5 84t-31.5 243q28 160 117.5 244.5t229.5 84.5zM107 450h-57l53 178h94zM372 32q103 0 171 72t92 209q25 138 -17.5 210.5t-146.5 72.5q-102 0 -169.5 -72.5t-92.5 -210.5
q-24 -137 18.5 -209t144.5 -72z" />
    <glyph glyph-name="Upsilontonos" unicode="&#x38e;" horiz-adv-x="673" 
d="M128 450h-57l53 178h94zM694 628l-240 -338l-51 -290h-74l51 286l-126 342h80l98 -290l198 290h64z" />
    <glyph glyph-name="Omegatonos" unicode="&#x38f;" horiz-adv-x="726" 
d="M76 0l9 54h170q-71 35 -103.5 113t-15.5 176q12 68 42 123t72.5 94t97 60.5t115.5 21.5q60 0 106.5 -21.5t74.5 -60.5t37.5 -94t-2.5 -123q-16 -97 -75.5 -175t-141.5 -114h169l-10 -54h-219l7 36h-1l6 30q35 22 66.5 53t56 67t42 76.5t24.5 80.5q20 115 -21 184t-128 69
t-154.5 -69t-87.5 -184q-7 -43 -4 -84.5t15.5 -77.5t34 -65.5t49.5 -48.5l-5 -25l-7 -42h-219zM110 450h-57l53 178h94z" />
    <glyph glyph-name="Iotadieresis" unicode="&#x3aa;" horiz-adv-x="242" 
d="M168 808l-18 -97h-69l17 97h70zM323 808l-17 -97h-69l17 97h69zM216 628l-110 -628h-74l110 628h74z" />
    <glyph glyph-name="Upsilondieresis" unicode="&#x3ab;" horiz-adv-x="507" 
d="M315 808l-18 -97h-69l17 97h70zM470 808l-17 -97h-69l17 97h69zM530 628l-240 -338l-51 -290h-74l51 286l-126 342h80l98 -290l198 290h64z" />
    <glyph glyph-name="uni03CF" unicode="&#x3cf;" horiz-adv-x="541" 
d="M495 0l-151 -162h-56l122 162l-230 315h-19l-55 -315h-74l110 628h74l-48 -268h20l278 268h86l-305 -294z" />
    <glyph glyph-name="alpha" unicode="&#x3b1;" horiz-adv-x="519" 
d="M462 446l-61 -346q-4 -25 5.5 -39.5t30.5 -14.5h16l-8 -46h-36q-32 0 -53 12t-28 33q-30 -28 -66 -43.5t-75 -15.5q-43 0 -76.5 17.5t-53.5 49t-26.5 75.5t2.5 96q18 104 84 170t152 66q32 0 63.5 -15t51.5 -39l7 40h71zM360 224q16 91 -9 140.5t-88 49.5
q-60 0 -101.5 -49.5t-57.5 -140.5q-16 -92 7.5 -142t83.5 -50q63 0 106 50t59 142z" />
    <glyph glyph-name="beta" unicode="&#x3b2;" horiz-adv-x="512" 
d="M339 347q64 -4 93.5 -48t16.5 -118q-16 -93 -70.5 -144t-134.5 -51q-49 0 -86 20t-56 55l-39 -223h-70l107 606q16 94 71.5 146t137.5 52q85 0 125.5 -43t27.5 -120q-10 -51 -42 -86t-81 -46zM174 469l-60 -340q20 -46 53 -71.5t75 -25.5q51 0 87 40.5t49 113.5
q10 60 -12 93t-72 33q-13 0 -34.5 -1t-47.5 -3l8 46q70 7 115.5 42t55.5 91q9 51 -14 80t-72 29q-51 0 -86 -33.5t-45 -93.5z" />
    <glyph glyph-name="gamma" unicode="&#x3b3;" horiz-adv-x="440" 
d="M127 26l-76 420h75l58 -366q70 81 110 162.5t56 170.5q1 8 2 16.5t2 16.5h70q-1 -13 -3 -27.5t-4 -27.5q-17 -97 -71 -192t-153 -199l-29 -162h-70z" />
    <glyph glyph-name="delta" unicode="&#x3b4;" horiz-adv-x="496" 
d="M436 198q-16 -95 -82.5 -153.5t-159.5 -58.5q-92 0 -137.5 58.5t-29.5 153.5q16 91 78.5 148.5t148.5 62.5v0q-48 0 -76.5 32.5t-19.5 84.5q10 51 57.5 83.5t113.5 32.5q34 0 70.5 -9t61.5 -23l-8 -46q-25 14 -61 23t-70 9q-36 0 -62 -20t-32 -52q-5 -31 15 -52t77 -42
q66 -23 98.5 -87t17.5 -145zM98 198q-13 -74 15.5 -120t88.5 -46t105 46t58 120t-15 119.5t-88 45.5t-105.5 -45.5t-58.5 -119.5z" />
    <glyph glyph-name="epsilon" unicode="&#x3b5;" horiz-adv-x="418" 
d="M176 241q-19 4 -39 12t-35 21t-23 32.5t-3 45.5q9 51 59.5 79.5t131.5 28.5q38 0 73.5 -8t62.5 -24l-24 -41q-22 13 -52 20t-64 7q-49 0 -80 -17t-36 -48q-7 -37 31.5 -62t99.5 -25h50l-8 -46h-50q-80 0 -129.5 -25t-57.5 -70q-7 -42 20 -65.5t82 -23.5q35 0 74 10t79 25
l6 -42q-42 -18 -84 -28.5t-84 -10.5q-88 0 -131.5 36.5t-32.5 100.5q8 49 51.5 80t112.5 38z" />
    <glyph glyph-name="zeta" unicode="&#x3b6;" horiz-adv-x="392" 
d="M425 628l-4 -23v0l-6 -31q-158 -106 -228 -186t-85 -166q-8 -46 7 -79.5t50 -48.5q58 -24 92 -40t50 -31t18.5 -33t-1.5 -45q-5 -27 -21.5 -56t-38.5 -52h-48q12 19 22 44t14 49q3 18 1 30.5t-15 23t-39 22t-71 28.5q-55 20 -78.5 66t-12.5 109q19 107 90 189.5
t222 175.5h-220l9 54h293z" />
    <glyph glyph-name="eta" unicode="&#x3b7;" horiz-adv-x="501" 
d="M352 -162h-70l82 463q10 60 -11 86.5t-78 26.5q-30 0 -58 -9.5t-59 -22.5l-69 -382h-70l71 403q55 27 106.5 42t105.5 15q84 0 114.5 -40.5t14.5 -133.5z" />
    <glyph glyph-name="theta" unicode="&#x3b8;" horiz-adv-x="516" 
d="M468 317q-28 -163 -95.5 -247t-168.5 -84t-138 84t-9 247q28 161 94.5 243t167.5 82q102 0 139.5 -82t9.5 -243zM311 596q-62 0 -107.5 -63.5t-70.5 -188.5h267q19 125 -3 188.5t-86 63.5zM212 32q62 0 107.5 64.5t70.5 189.5h-267q-19 -125 3.5 -189.5t85.5 -64.5z" />
    <glyph glyph-name="iota" unicode="&#x3b9;" horiz-adv-x="234" 
d="M170 446l-60 -341q-4 -25 5.5 -39t31.5 -14h15l-9 -52h-35q-43 0 -65 26t-15 69l62 351h70z" />
    <glyph glyph-name="kappa" unicode="&#x3ba;" horiz-adv-x="453" 
d="M130 219l-39 -219h-70l79 446h70l-32 -181h19l145 140q30 28 66 38.5t75 10.5l-9 -50q-24 0 -47.5 -11t-42.5 -30l-127 -121l177 -242h-85l-155 219h-24z" />
    <glyph glyph-name="lambda" unicode="&#x3bb;" horiz-adv-x="468" 
d="M323 0l-85 342l-208 -342h-63l253 415l-25 99q-10 38 -33.5 56.5t-63.5 18.5l10 53q69 0 106.5 -29t52.5 -91l129 -522h-73z" />
    <glyph glyph-name="uni03BC" unicode="&#x3bc;" horiz-adv-x="507" 
d="M-7 -163l67 381v0l40 228h70l-40 -228v0l-15 -87q-8 -54 13.5 -76.5t78.5 -22.5q30 0 57 5t60 18l69 391h70l-71 -400q-54 -32 -103 -46t-109 -14q-28 0 -50 4t-38 11l-29 -164h-70z" />
    <glyph glyph-name="nu" unicode="&#x3bd;" horiz-adv-x="438" 
d="M358 446h51q1 -21 0 -42.5t-5 -43.5q-14 -82 -64.5 -173t-134.5 -187h-69l-86 446h74l71 -381q69 86 106.5 161t49.5 144q3 19 5 38t2 38z" />
    <glyph glyph-name="xi" unicode="&#x3be;" horiz-adv-x="393" 
d="M186 332q-51 11 -76.5 45.5t-17.5 81.5q7 43 43 73t90 43h-113l9 53h294l-6 -32v0l-4 -21h-51q-77 0 -129 -33.5t-62 -89.5q-7 -43 21 -69t83 -26h70l-8 -46h-71q-57 0 -104.5 -29t-58.5 -89q-8 -47 20.5 -71t67.5 -37q27 -9 51.5 -21t41.5 -29t25.5 -39.5t2.5 -53.5
q-5 -30 -18.5 -56.5t-32.5 -47.5h-45q10 21 17.5 43t11.5 42q4 24 -3 40.5t-21.5 28t-33.5 20t-39 16.5q-26 10 -50.5 22.5t-41.5 29.5t-25.5 39.5t-2.5 53.5q11 64 57.5 108t108.5 51z" />
    <glyph glyph-name="omicron" unicode="&#x3bf;" horiz-adv-x="499" 
d="M443 222q-20 -111 -85 -173.5t-162 -62.5t-139.5 62.5t-23.5 173.5q20 112 85 175t162 63t139.5 -63t23.5 -175zM372 222q16 90 -10.5 141t-89.5 51t-107.5 -51t-60.5 -141t10.5 -140t89.5 -50t107.5 50t60.5 140z" />
    <glyph glyph-name="rho" unicode="&#x3c1;" 
d="M445 224q-20 -112 -80.5 -175t-148.5 -63q-47 0 -77.5 17t-48.5 47l-37 -212h-71l68 386q19 110 82.5 173t156.5 63q94 0 134.5 -63t21.5 -173zM374 224q15 89 -9 139.5t-84 50.5q-59 0 -102 -50.5t-58 -139.5q-16 -90 10.5 -141t90.5 -51q56 0 96 51t56 141z" />
    <glyph glyph-name="uni03C2" unicode="&#x3c2;" horiz-adv-x="419" 
d="M242 -162h-46q22 28 35 55.5t17 50.5q5 29 -5 45.5t-28 27t-42.5 18t-47.5 19.5q-51 26 -74.5 84.5t-11.5 130.5q7 43 28.5 78t52.5 60t70.5 39t83.5 14q37 0 77.5 -11.5t68.5 -29.5l-21 -40q-31 16 -67.5 25.5t-65.5 9.5q-57 0 -100.5 -40t-55.5 -105q-12 -72 12.5 -110
t65.5 -58q26 -13 51.5 -26t44.5 -30t28.5 -40.5t3.5 -56.5q-4 -25 -23.5 -53.5t-50.5 -56.5z" />
    <glyph glyph-name="sigma" unicode="&#x3c3;" horiz-adv-x="528" 
d="M442 215q-19 -110 -82.5 -169.5t-162.5 -59.5t-141.5 59.5t-23.5 169.5q19 111 83 171t163 60h260l-9 -53h-127q31 -25 41 -70.5t-1 -107.5zM371 215q14 79 -5 126t-70 57l-26 2q-66 0 -108.5 -48t-58.5 -137q-16 -88 10 -135.5t92 -47.5q65 0 107.5 47.5t58.5 135.5z
" />
    <glyph glyph-name="tau" unicode="&#x3c4;" horiz-adv-x="389" 
d="M38 394l9 52h345l-9 -52h-144l-51 -295q-4 -24 5.5 -38.5t30.5 -14.5h38l-8 -46h-57q-43 0 -65 26t-15 69l52 299h-131z" />
    <glyph glyph-name="upsilon" unicode="&#x3c5;" horiz-adv-x="475" 
d="M96 446h70l-48 -273q-13 -71 7 -106t72 -35q60 0 99 52t58 157q10 59 8.5 110t-14.5 95h62q13 -48 14 -99t-9 -108q-22 -127 -78.5 -190t-146.5 -63q-87 0 -122.5 47t-19.5 141z" />
    <glyph glyph-name="phi" unicode="&#x3c6;" horiz-adv-x="628" 
d="M571 228q-18 -104 -91.5 -168t-185.5 -73l-26 -149h-70l26 149q-108 9 -159.5 73t-32.5 168q18 101 91.5 161.5t184.5 69.5l18 104h70l-18 -104q108 -9 159.5 -69.5t33.5 -161.5zM500 228q14 78 -20.5 126.5t-110.5 57.5l-66 -378q78 10 130.5 61.5t66.5 132.5zM103 228
q-14 -81 20.5 -132.5t109.5 -61.5l66 378q-78 -9 -130 -57.5t-66 -126.5z" />
    <glyph glyph-name="chi" unicode="&#x3c7;" horiz-adv-x="442" 
d="M15 -162h-70l213 297l-60 222q-7 26 -25.5 41.5t-43.5 15.5h-6l8 46h8q57 0 90.5 -23.5t46.5 -73.5l40 -147l162 230h71l-216 -293l57 -213q8 -29 22 -46t30 -17h9l-8 -46h-11q-47 0 -74.5 18.5t-37.5 58.5l-45 164z" />
    <glyph glyph-name="psi" unicode="&#x3c8;" horiz-adv-x="609" 
d="M95 446h70l-42 -243q-13 -78 13.5 -120.5t94.5 -49.5l96 540h70l-95 -540q77 10 123.5 62.5t62.5 145.5q10 58 9 109.5t-14 95.5h63q12 -47 13.5 -99t-8.5 -108q-21 -116 -85.5 -179.5t-172.5 -72.5l-26 -149h-70l26 148q-103 6 -146.5 55.5t-27.5 142.5z" />
    <glyph glyph-name="omega" unicode="&#x3c9;" horiz-adv-x="639" 
d="M264 173l24 138h70l-25 -138q-12 -70 1.5 -105.5t53.5 -35.5q43 0 73.5 45.5t46.5 136.5q11 65 7 123t-24 109h70q19 -54 23 -113.5t-7 -122.5q-20 -112 -69 -168t-127 -56q-46 0 -70.5 22.5t-28.5 67.5q-20 -45 -52.5 -67.5t-78.5 -22.5q-78 0 -107.5 56t-9.5 168
q11 63 36.5 122t63.5 114h70q-38 -51 -63 -110t-36 -124q-16 -90 -2 -135t57 -45q39 0 65 35.5t39 105.5z" />
    <glyph glyph-name="iotatonos" unicode="&#x3af;" horiz-adv-x="234" 
d="M129 531l63 157h83l-93 -157h-53zM170 446l-60 -341q-4 -25 5.5 -39t31.5 -14h15l-9 -52h-35q-43 0 -65 26t-15 69l62 351h70z" />
    <glyph glyph-name="iotadieresis" unicode="&#x3ca;" horiz-adv-x="234" 
d="M131 628l-17 -97h-68l17 97h68zM271 628l-17 -97h-68l17 97h68zM170 446l-60 -341q-4 -25 5.5 -39t31.5 -14h15l-9 -52h-35q-43 0 -65 26t-15 69l62 351h70z" />
    <glyph glyph-name="iotadieresistonos" unicode="&#x390;" horiz-adv-x="234" 
d="M123 531l63 157h83l-94 -157h-52zM104 628l-17 -97h-68l17 97h68zM338 628l-17 -97h-68l17 97h68zM170 446l-60 -341q-4 -25 5.5 -39t31.5 -14h15l-9 -52h-35q-43 0 -65 26t-15 69l62 351h70z" />
    <glyph glyph-name="upsilontonos" unicode="&#x3cd;" horiz-adv-x="475" 
d="M252 531l63 157h83l-93 -157h-53zM96 446h70l-48 -273q-13 -71 7 -106t72 -35q60 0 99 52t58 157q10 59 8.5 110t-14.5 95h62q13 -48 14 -99t-9 -108q-22 -127 -78.5 -190t-146.5 -63q-87 0 -122.5 47t-19.5 141z" />
    <glyph glyph-name="upsilondieresis" unicode="&#x3cb;" horiz-adv-x="475" 
d="M250 628l-17 -97h-68l17 97h68zM390 628l-17 -97h-68l17 97h68zM96 446h70l-48 -273q-13 -71 7 -106t72 -35q60 0 99 52t58 157q10 59 8.5 110t-14.5 95h62q13 -48 14 -99t-9 -108q-22 -127 -78.5 -190t-146.5 -63q-87 0 -122.5 47t-19.5 141z" />
    <glyph glyph-name="upsilondieresistonos" unicode="&#x3b0;" horiz-adv-x="475" 
d="M232 531l63 157h83l-94 -157h-52zM213 628l-17 -97h-68l17 97h68zM447 628l-17 -97h-68l17 97h68zM96 446h70l-48 -273q-13 -71 7 -106t72 -35q60 0 99 52t58 157q10 59 8.5 110t-14.5 95h62q13 -48 14 -99t-9 -108q-22 -127 -78.5 -190t-146.5 -63q-87 0 -122.5 47
t-19.5 141z" />
    <glyph glyph-name="omicrontonos" unicode="&#x3cc;" horiz-adv-x="499" 
d="M266 531l63 157h83l-93 -157h-53zM443 222q-20 -111 -85 -173.5t-162 -62.5t-139.5 62.5t-23.5 173.5q20 112 85 175t162 63t139.5 -63t23.5 -175zM372 222q16 90 -10.5 141t-89.5 51t-107.5 -51t-60.5 -141t10.5 -140t89.5 -50t107.5 50t60.5 140z" />
    <glyph glyph-name="omegatonos" unicode="&#x3ce;" horiz-adv-x="639" 
d="M345 531l63 157h83l-93 -157h-53zM264 173l24 138h70l-25 -138q-12 -70 1.5 -105.5t53.5 -35.5q43 0 73.5 45.5t46.5 136.5q11 65 7 123t-24 109h70q19 -54 23 -113.5t-7 -122.5q-20 -112 -69 -168t-127 -56q-46 0 -70.5 22.5t-28.5 67.5q-20 -45 -52.5 -67.5
t-78.5 -22.5q-78 0 -107.5 56t-9.5 168q11 63 36.5 122t63.5 114h70q-38 -51 -63 -110t-36 -124q-16 -90 -2 -135t57 -45q39 0 65 35.5t39 105.5z" />
    <glyph glyph-name="alphatonos" unicode="&#x3ac;" horiz-adv-x="519" 
d="M268 531l63 157h83l-93 -157h-53zM462 446l-61 -346q-4 -25 5.5 -39.5t30.5 -14.5h16l-8 -46h-36q-32 0 -53 12t-28 33q-30 -28 -66 -43.5t-75 -15.5q-43 0 -76.5 17.5t-53.5 49t-26.5 75.5t2.5 96q18 104 84 170t152 66q32 0 63.5 -15t51.5 -39l7 40h71zM360 224
q16 91 -9 140.5t-88 49.5q-60 0 -101.5 -49.5t-57.5 -140.5q-16 -92 7.5 -142t83.5 -50q63 0 106 50t59 142z" />
    <glyph glyph-name="epsilontonos" unicode="&#x3ad;" horiz-adv-x="418" 
d="M233 531l63 157h83l-93 -157h-53zM176 241q-19 4 -39 12t-35 21t-23 32.5t-3 45.5q9 51 59.5 79.5t131.5 28.5q38 0 73.5 -8t62.5 -24l-24 -41q-22 13 -52 20t-64 7q-49 0 -80 -17t-36 -48q-7 -37 31.5 -62t99.5 -25h50l-8 -46h-50q-80 0 -129.5 -25t-57.5 -70
q-7 -42 20 -65.5t82 -23.5q35 0 74 10t79 25l6 -42q-42 -18 -84 -28.5t-84 -10.5q-88 0 -131.5 36.5t-32.5 100.5q8 49 51.5 80t112.5 38z" />
    <glyph glyph-name="etatonos" unicode="&#x3ae;" horiz-adv-x="501" 
d="M267 531l63 157h83l-93 -157h-53zM352 -162h-70l82 463q10 60 -11 86.5t-78 26.5q-30 0 -58 -9.5t-59 -22.5l-69 -382h-70l71 403q55 27 106.5 42t105.5 15q84 0 114.5 -40.5t14.5 -133.5z" />
    <glyph glyph-name="uni03D7" unicode="&#x3d7;" horiz-adv-x="470" 
d="M70 451q17 5 30 7t29 2q49 0 61 -44.5t-7 -156.5q-1 -10 -3.5 -19t-3.5 -17l113 75q19 60 51 98.5t80 63.5l34 -34q-21 -41 -49.5 -76t-68.5 -71l-8 -30t-7 -31q-15 -82 0.5 -119t69.5 -37q-21 -117 -61 -170.5t-106 -53.5q-12 0 -27.5 3.5t-29.5 8.5l11 58
q11 -4 23.5 -7t25.5 -3q34 0 65 24t40 78q-35 0 -51 22.5t-20 58t1 78.5t12 83l-113 -77q-19 -60 -50 -102t-82 -73l-37 32q18 46 50 89t75 78q4 18 8 34.5t6 30.5q13 72 -1 102t-57 30h-8t-8 -1z" />
    <glyph glyph-name="zero.osf" horiz-adv-x="586" 
d="M522 226q-20 -117 -92 -178.5t-191 -61.5q-118 0 -169 61.5t-30 178.5q21 116 93 175t190 59t169 -59t30 -175zM247 32q81 0 132 49.5t67 144.5q16 93 -16.5 140.5t-115.5 47.5q-81 0 -131 -47.5t-67 -140.5q-16 -95 17 -144.5t114 -49.5z" />
    <glyph glyph-name="one.osf" horiz-adv-x="318" 
d="M263 446l-79 -446h-74l68 385h-135l6 34l167 27h47z" />
    <glyph glyph-name="two.osf" horiz-adv-x="524" 
d="M473 310q-4 -21 -16 -38.5t-28.5 -31.5t-34.5 -25t-33 -19l-284 -150h349l-8 -46h-433l12 70l309 161q37 19 65 38.5t33 46.5q7 46 -28.5 72t-107.5 26q-38 0 -77 -10t-82 -31l-9 39q46 24 91 36t91 12q101 0 152 -40t39 -110z" />
    <glyph glyph-name="three.osf" horiz-adv-x="508" 
d="M261 162q84 -10 125.5 -55t29.5 -112q-16 -86 -89.5 -135t-185.5 -49q-47 0 -95.5 14.5t-88.5 39.5l21 41q40 -24 83.5 -36.5t86.5 -12.5q78 0 129.5 36.5t62.5 99.5t-40.5 100.5t-150.5 37.5h-67l8 46h67q79 0 135.5 36t67.5 98q8 48 -27 75.5t-101 27.5
q-36 0 -76.5 -10t-75.5 -26l-8 39q41 20 87.5 31.5t84.5 11.5q101 0 153 -40.5t39 -109.5q-9 -52 -56 -92t-119 -56z" />
    <glyph glyph-name="four.osf" horiz-adv-x="511" 
d="M358 46h77l-9 -46h-76l-33 -183h-73l32 183h-297l10 57l353 389h86zM284 46l61 344l-308 -344h247z" />
    <glyph glyph-name="five.osf" horiz-adv-x="526" 
d="M247 202q102 0 154.5 -50.5t37.5 -134.5q-18 -99 -94 -157t-186 -58q-55 0 -99 16t-85 37l21 42q39 -22 80 -35.5t90 -13.5q72 0 128 42t69 113q13 74 -27 113t-130 39q-37 0 -84 -6t-93 -16l67 313h379l-8 -46h-309l-43 -210q35 5 66.5 8.5t65.5 3.5z" />
    <glyph glyph-name="six.osf" horiz-adv-x="568" 
d="M336 396q95 0 143 -52t33 -138q-18 -99 -92 -159.5t-178 -60.5q-120 0 -167 73.5t-21 221.5q32 181 115.5 271t218.5 90q42 0 79 -11t71 -25l-19 -43q-32 15 -67.5 24t-71.5 9q-97 0 -154.5 -70.5t-84.5 -221.5q38 47 88 69.5t107 22.5zM249 32q72 0 123 44.5t64 116.5
q12 67 -21.5 108t-99.5 41q-77 0 -130 -41t-65 -108q-13 -72 22.5 -116.5t106.5 -44.5z" />
    <glyph glyph-name="seven.osf" horiz-adv-x="456" 
d="M457 446l-11 -64l-391 -565h-82l409 583h-337l8 46h404z" />
    <glyph glyph-name="eight.osf" horiz-adv-x="583" 
d="M383 348q26 -6 53 -17t46 -31t28.5 -50t1.5 -72q-16 -90 -88.5 -141t-185.5 -51q-114 0 -168.5 51t-38.5 141q8 43 28.5 73.5t47 50t57 31t58.5 15.5q-46 8 -79.5 41t-23.5 93q13 75 75.5 117.5t159.5 42.5t143.5 -42.5t33.5 -117.5q-10 -57 -52 -90.5t-96 -43.5z
M455 483q10 54 -19.5 83.5t-90.5 29.5t-100.5 -29.5t-49.5 -83.5q-9 -52 20.5 -82t90.5 -30q62 0 101 30t48 82zM107 178q-12 -69 24.5 -107.5t114.5 -38.5t128 38.5t62 107.5q12 64 -25 99.5t-115 35.5t-127.5 -35.5t-61.5 -99.5z" />
    <glyph glyph-name="nine.osf" horiz-adv-x="560" 
d="M206 54q-97 0 -144.5 50.5t-32.5 137.5q17 101 89.5 159.5t179.5 58.5q121 0 167.5 -73t20.5 -222q-32 -178 -112 -266t-211 -88q-34 0 -75.5 8.5t-77.5 27.5l19 42q33 -15 69 -23.5t70 -8.5q102 0 156 75.5t79 209.5q-44 -49 -87 -68.5t-110 -19.5zM290 414
q-72 0 -122 -43t-63 -116q-12 -68 21 -107.5t101 -39.5q77 0 129 40t63 109q13 72 -21.5 114.5t-107.5 42.5z" />
    <glyph glyph-name="zero.sinf" horiz-adv-x="402" 
d="M320 71q-16 -94 -65.5 -142.5t-128.5 -48.5q-78 0 -110 48.5t-16 142.5q17 94 66.5 142t127.5 48t110 -48t16 -142zM134 -83q48 0 80 39t45 115t-4.5 115.5t-66.5 39.5t-81 -39.5t-45 -115.5t5 -115t67 -39z" />
    <glyph glyph-name="one.sinf" horiz-adv-x="219" 
d="M151 256l-65 -367h-57l57 319h-79l4 25l104 23h36z" />
    <glyph glyph-name="two.sinf" horiz-adv-x="333" 
d="M269 167q-3 -21 -13.5 -37t-21.5 -26l-32 -28t-70 -61t-70.5 -61t-33.5 -28h198l-7 -37h-261l9 50l222 190q10 10 18.5 21.5t10.5 24.5q4 22 -17 36.5t-57 14.5q-29 0 -56.5 -10t-43.5 -20l-5 33q19 10 50.5 21t64.5 11q57 0 89.5 -26.5t25.5 -67.5z" />
    <glyph glyph-name="three.sinf" horiz-adv-x="338" 
d="M157 86q46 -8 70 -33.5t17 -62.5q-9 -51 -54 -80.5t-113 -29.5q-30 0 -56.5 8t-56.5 27l16 34q23 -17 47 -25t53 -8q43 0 72 20.5t35 56.5q6 33 -24 52t-87 19h-35l6 36h36q50 0 82 19t38 51q4 26 -16 41t-60 15q-22 0 -46.5 -7t-43.5 -18l-5 32q22 13 51 20.5t57 7.5
q61 0 92 -24t24 -66q-5 -29 -32 -52t-67 -33z" />
    <glyph glyph-name="four.sinf" horiz-adv-x="348" 
d="M218 5h45l-7 -37h-44l-14 -79h-56l14 79h-189l8 45l222 243h66zM163 5l36 204l-190 -204h154z" />
    <glyph glyph-name="five.sinf" horiz-adv-x="343" 
d="M141 120q65 0 95.5 -29t21.5 -82q-11 -62 -55.5 -95.5t-115.5 -33.5q-27 0 -57.5 7.5t-55.5 27.5l16 34q21 -16 46.5 -24.5t53.5 -8.5q46 0 72.5 21t33.5 64q7 42 -15 62.5t-75 20.5q-24 0 -48 -3.5t-49 -7.5l39 183h229l-6 -36h-175l-22 -105q7 1 24.5 3t42.5 2z" />
    <glyph glyph-name="six.sinf" horiz-adv-x="361" 
d="M162 120q63 0 93.5 -29.5t21.5 -81.5q-11 -61 -53.5 -95t-108.5 -34q-73 0 -102 43t-14 131q19 104 68 155.5t130 51.5q26 0 54 -7t38 -15l-13 -32q-11 7 -36.5 13t-47.5 6q-51 0 -83 -37t-45 -112q20 21 43.5 32t54.5 11zM120 -84q40 0 66.5 23.5t33.5 65.5
q6 35 -11.5 55t-54.5 20q-42 0 -69 -20t-33 -55q-7 -42 10.5 -65.5t57.5 -23.5z" />
    <glyph glyph-name="seven.sinf" horiz-adv-x="301" 
d="M268 256l-8 -49l-224 -318h-64l235 331h-193l6 36h248z" />
    <glyph glyph-name="eight.sinf" horiz-adv-x="376" 
d="M210 94q43 -16 61.5 -40.5t11.5 -61.5q-9 -53 -53.5 -82.5t-114.5 -29.5q-71 0 -105 29.5t-24 82.5q7 38 33 63.5t75 38.5q-33 12 -46 30.5t-9 44.5q7 43 45 67.5t98 24.5q59 0 87.5 -24.5t21.5 -67.5q-4 -28 -24 -46t-57 -29zM238 169q4 27 -12 42t-50 15t-56.5 -15
t-27.5 -42q-4 -28 12.5 -43.5t50.5 -15.5t56 15.5t27 43.5zM46 -6q-7 -37 13 -58t62 -21t69 21t34 58q6 35 -14 55t-62 20t-69 -20t-33 -55z" />
    <glyph glyph-name="nine.sinf" horiz-adv-x="361" 
d="M109 22q-59 0 -86.5 29.5t-17.5 83.5q10 58 52 92t108 34q73 0 102.5 -43t14.5 -130q-19 -104 -67 -156t-126 -52q-34 0 -62 9.5t-32 13.5l12 32q6 -3 29.5 -11t54.5 -8q51 0 83 36.5t45 112.5q-22 -21 -44.5 -32t-65.5 -11zM161 226q-39 0 -66 -24.5t-34 -64.5
q-6 -34 11.5 -54.5t53.5 -20.5q41 0 69 20.5t34 54.5q7 40 -11.5 64.5t-56.5 24.5z" />
    <glyph glyph-name="zero.sups" horiz-adv-x="402" 
d="M406 556q-16 -94 -65.5 -142.5t-128.5 -48.5q-78 0 -110 48.5t-16 142.5q17 94 66.5 142t127.5 48t110 -48t16 -142zM220 402q48 0 80 39t45 115t-4.5 115.5t-66.5 39.5t-81 -39.5t-45 -115.5t5 -115t67 -39z" />
    <glyph glyph-name="one.sups" horiz-adv-x="219" 
d="M236 741l-65 -367h-57l57 319h-79l4 25l104 23h36z" />
    <glyph glyph-name="two.sups" horiz-adv-x="333" 
d="M354 652q-3 -21 -13.5 -37t-21.5 -26l-32 -28t-70 -61t-70.5 -61t-33.5 -28h198l-7 -37h-261l9 50l222 190q10 10 18.5 21.5t10.5 24.5q4 22 -17 36.5t-57 14.5q-29 0 -56.5 -10t-43.5 -20l-5 33q19 10 50.5 21t64.5 11q57 0 89.5 -26.5t25.5 -67.5z" />
    <glyph glyph-name="three.sups" horiz-adv-x="338" 
d="M242 571q46 -8 70 -33.5t17 -62.5q-9 -51 -54 -80.5t-113 -29.5q-30 0 -56.5 8t-56.5 27l16 34q23 -17 47 -25t53 -8q43 0 72 20.5t35 56.5q6 33 -24 52t-87 19h-35l6 36h36q50 0 82 19t38 51q4 26 -16 41t-60 15q-22 0 -46.5 -7t-43.5 -18l-5 32q22 13 51 20.5t57 7.5
q61 0 92 -24t24 -66q-5 -29 -32 -52t-67 -33z" />
    <glyph glyph-name="four.sups" horiz-adv-x="348" 
d="M304 490h45l-7 -37h-44l-14 -79h-56l14 79h-189l8 45l222 243h66zM249 490l36 204l-190 -204h154z" />
    <glyph glyph-name="five.sups" horiz-adv-x="343" 
d="M226 605q65 0 95.5 -29t21.5 -82q-11 -62 -55.5 -95.5t-115.5 -33.5q-27 0 -57.5 7.5t-55.5 27.5l16 34q21 -16 46.5 -24.5t53.5 -8.5q46 0 72.5 21t33.5 64q7 42 -15 62.5t-75 20.5q-24 0 -48 -3.5t-49 -7.5l39 183h229l-6 -36h-175l-22 -105q7 1 24.5 3t42.5 2z" />
    <glyph glyph-name="six.sups" horiz-adv-x="361" 
d="M248 605q63 0 93.5 -29.5t21.5 -81.5q-11 -61 -53.5 -95t-108.5 -34q-73 0 -102 43t-14 131q19 104 68 155.5t130 51.5q26 0 54 -7t38 -15l-13 -32q-11 7 -36.5 13t-47.5 6q-51 0 -83 -37t-45 -112q20 21 43.5 32t54.5 11zM206 401q40 0 66.5 23.5t33.5 65.5
q6 35 -11.5 55t-54.5 20q-42 0 -69 -20t-33 -55q-7 -42 10.5 -65.5t57.5 -23.5z" />
    <glyph glyph-name="seven.sups" horiz-adv-x="301" 
d="M353 741l-8 -49l-224 -318h-64l235 331h-193l6 36h248z" />
    <glyph glyph-name="eight.sups" horiz-adv-x="376" 
d="M296 579q43 -16 61.5 -40.5t11.5 -61.5q-9 -53 -53.5 -82.5t-114.5 -29.5q-71 0 -105 29.5t-24 82.5q7 38 33 63.5t75 38.5q-33 12 -46 30.5t-9 44.5q7 43 45 67.5t98 24.5q59 0 87.5 -24.5t21.5 -67.5q-4 -28 -24 -46t-57 -29zM324 654q4 27 -12 42t-50 15t-56.5 -15
t-27.5 -42q-4 -28 12.5 -43.5t50.5 -15.5t56 15.5t27 43.5zM132 479q-7 -37 13 -58t62 -21t69 21t34 58q6 35 -14 55t-62 20t-69 -20t-33 -55z" />
    <glyph glyph-name="nine.sups" horiz-adv-x="361" 
d="M194 507q-59 0 -86.5 29.5t-17.5 83.5q10 58 52 92t108 34q73 0 102.5 -43t14.5 -130q-19 -104 -67 -156t-126 -52q-34 0 -62 9.5t-32 13.5l12 32q6 -3 29.5 -11t54.5 -8q51 0 83 36.5t45 112.5q-22 -21 -44.5 -32t-65.5 -11zM246 711q-39 0 -66 -24.5t-34 -64.5
q-6 -34 11.5 -54.5t53.5 -20.5q41 0 69 20.5t34 54.5q7 40 -11.5 64.5t-56.5 24.5z" />
    <glyph glyph-name="zero.tf" horiz-adv-x="638" 
d="M563 317q-28 -157 -105 -244t-192 -87q-116 0 -163.5 87t-19.5 244q28 159 105.5 242t192.5 83q116 0 163 -83t19 -242zM274 32q78 0 133.5 74.5t79.5 210.5q24 137 -5.5 208t-108.5 71q-78 0 -134 -71t-80 -208q-24 -136 5.5 -210.5t109.5 -74.5z" />
    <glyph glyph-name="one.tf" horiz-adv-x="638" 
d="M53 0l8 46h202l92 521h-184l6 34l214 27h48l-102 -582h174l-9 -46h-449z" />
    <glyph glyph-name="two.tf" horiz-adv-x="638" 
d="M561 490q-7 -42 -28 -71t-37 -43q-8 -7 -65.5 -59.5t-123 -112.5t-119.5 -109t-56 -49h351l-8 -46h-435l12 70l389 342q18 16 32 36.5t19 47.5q8 47 -28 73.5t-108 26.5q-36 0 -76 -10.5t-84 -30.5l-8 39q46 24 91 36t90 12q103 0 154 -40t38 -112z" />
    <glyph glyph-name="three.tf" horiz-adv-x="638" 
d="M343 331q94 -11 141.5 -51.5t36.5 -106.5q-16 -87 -91.5 -137t-191.5 -50q-56 0 -105 14.5t-93 38.5l21 42q44 -23 89.5 -36t94.5 -13q84 0 136.5 37t63.5 101t-45 99.5t-168 35.5h-67l8 46h67q92 0 155 36t74 99q9 51 -25 80.5t-109 29.5q-40 0 -85 -9t-85 -28l-9 39
q47 22 98.5 33t92.5 11q105 0 158 -42t40 -115q-10 -54 -64 -94t-138 -60z" />
    <glyph glyph-name="four.tf" horiz-adv-x="638" 
d="M459 187h76l-8 -46h-77l-24 -141h-74l25 141h-327l10 57l390 430h86zM385 187l68 385l-345 -385h277z" />
    <glyph glyph-name="five.tf" horiz-adv-x="638" 
d="M337 385q103 0 157 -50.5t39 -134.5q-17 -97 -96 -155.5t-193 -58.5q-50 0 -96 14.5t-89 38.5l22 42q41 -19 82.5 -34t87.5 -15q79 0 136 42t70 112q13 72 -30.5 111.5t-131.5 39.5q-42 0 -89 -5.5t-92 -15.5l66 312h389l-8 -46h-317l-44 -210q36 7 70 10t67 3z" />
    <glyph glyph-name="six.tf" horiz-adv-x="638" 
d="M371 398q99 0 145.5 -50t30.5 -140q-18 -101 -91.5 -161.5t-178.5 -60.5q-120 0 -167 74t-21 223q33 185 115 272t219 87q43 0 78.5 -9t71.5 -27l-19 -43q-34 16 -69 24.5t-70 8.5q-96 0 -154 -70t-85 -220q43 54 93.5 73t101.5 19zM285 32q70 0 121.5 44.5t64.5 118.5
q13 76 -17.5 112.5t-103.5 36.5q-31 0 -63 -8t-59 -26t-46.5 -46.5t-26.5 -68.5q-12 -72 23 -117.5t107 -45.5z" />
    <glyph glyph-name="seven.tf" horiz-adv-x="638" 
d="M609 628l-12 -64l-443 -564h-82l463 582h-391l8 46h457z" />
    <glyph glyph-name="eight.tf" horiz-adv-x="638" 
d="M411 349q78 -14 109.5 -59.5t20.5 -111.5q-16 -88 -90 -140t-184 -52t-166 52t-41 140q13 71 64 114.5t127 56.5q-54 10 -83 42t-19 91q13 73 76 116.5t157 43.5q95 0 143 -43.5t34 -116.5q-9 -54 -47.5 -87t-100.5 -46zM483 483q9 51 -19.5 82t-89.5 31q-60 0 -99.5 -31
t-49.5 -82q-8 -51 21 -81t89 -30q61 0 100.5 30t47.5 81zM136 178q-12 -67 26 -106.5t113 -39.5t126.5 39.5t63.5 106.5q11 63 -27 99.5t-113 36.5t-126.5 -36.5t-62.5 -99.5z" />
    <glyph glyph-name="nine.tf" horiz-adv-x="638" 
d="M275 227q-99 0 -146 51t-31 141q18 100 92.5 161.5t178.5 61.5q116 0 163.5 -80t22.5 -223q-31 -180 -111.5 -266.5t-211.5 -86.5q-40 0 -78.5 10t-73.5 25l18 43q34 -13 69.5 -22.5t69.5 -9.5q93 0 151 69.5t84 214.5q-47 -55 -96.5 -72t-100.5 -17zM361 596
q-69 0 -121.5 -45.5t-65.5 -118.5q-12 -70 21 -110t101 -40q34 0 66 9t58 27t44.5 46t25.5 66q13 75 -23.5 120.5t-105.5 45.5z" />
    <glyph glyph-name="zero.tosf" horiz-adv-x="638" 
d="M546 222q-20 -114 -92.5 -175t-188.5 -61t-167.5 61t-31.5 175q21 114 93.5 176t188.5 62t167.5 -62t30.5 -176zM273 32q78 0 129.5 48.5t67.5 141.5q16 92 -17.5 142t-112.5 50q-78 0 -130 -50t-68 -142q-16 -93 18 -141.5t113 -48.5z" />
    <glyph glyph-name="one.tosf" horiz-adv-x="638" 
d="M53 0l8 46h202l60 339h-184l6 34l214 27h48l-70 -400h174l-9 -46h-449z" />
    <glyph glyph-name="two.tosf" horiz-adv-x="638" 
d="M530 310q-3 -21 -15 -38.5t-28.5 -31.5t-34.5 -25t-34 -19l-44.5 -23.5t-97.5 -51.5t-97.5 -51.5t-45.5 -23.5h351l-9 -46h-434l12 70q1 0 49.5 25t105.5 55.5t105.5 55.5t49.5 25q37 19 65.5 38.5t32.5 46.5q8 46 -28 72t-108 26q-39 0 -78 -10t-82 -31l-8 39
q46 24 90.5 36t90.5 12q102 0 153.5 -40t38.5 -110z" />
    <glyph glyph-name="three.tosf" horiz-adv-x="638" 
d="M315 158q94 -11 142 -53.5t36 -106.5q-15 -87 -90 -137t-188 -50q-51 0 -105.5 13.5t-97.5 40.5l21 41q43 -26 92.5 -37.5t96.5 -11.5q81 0 132.5 37.5t62.5 101.5q11 62 -45.5 98t-167.5 36h-67l9 46h66q92 0 154 35.5t73 96.5q8 48 -26 77t-108 29q-40 0 -85 -9
t-84 -27l-9 39q46 22 97 32.5t94 10.5q104 0 156.5 -42t40.5 -111q-10 -52 -63 -91.5t-137 -57.5z" />
    <glyph glyph-name="four.tosf" horiz-adv-x="638" 
d="M428 0h76l-8 -46h-77l-24 -137h-74l24 137h-326l10 57l390 435h87zM354 0l68 390l-345 -390h277z" />
    <glyph glyph-name="five.tosf" horiz-adv-x="638" 
d="M332 384q107 0 161 -50.5t39 -134.5q-17 -99 -95.5 -157t-193.5 -58q-55 0 -98.5 16t-85.5 37l21 42q39 -22 80.5 -35.5t90.5 -13.5q37 0 71.5 11t62 31t46.5 49t25 64q13 74 -30 113t-136 39q-37 0 -84 -6t-92 -16l66 313h389l-8 -46h-317l-44 -210q34 5 66 8.5t66 3.5z
" />
    <glyph glyph-name="six.tosf" horiz-adv-x="638" 
d="M371 398q95 0 143.5 -52t33.5 -138q-17 -100 -91.5 -161t-179.5 -61q-119 0 -166 74t-21 223q32 182 115.5 270.5t218.5 88.5q42 0 79 -11t71 -25l-19 -43q-32 15 -67 24t-72 9q-96 0 -154 -69.5t-85 -220.5q38 47 87.5 69.5t106.5 22.5zM286 32q70 0 121.5 45t64.5 118
q12 67 -22 108t-99 41q-75 0 -129 -41t-66 -108q-13 -73 23.5 -118t106.5 -45z" />
    <glyph glyph-name="seven.tosf" horiz-adv-x="638" 
d="M575 446l-12 -64l-443 -565h-82l463 583h-391l8 46h457z" />
    <glyph glyph-name="eight.tosf" horiz-adv-x="638" 
d="M409 350q26 -6 53 -17t46.5 -31t28.5 -50t2 -74q-16 -90 -88.5 -141t-185.5 -51t-167.5 51t-38.5 141q7 44 27.5 75t47 51t57 31t58.5 15q-23 4 -43.5 14t-35.5 26t-21.5 39t-1.5 53q13 75 75 117.5t158 42.5q97 0 143.5 -42.5t33.5 -117.5q-10 -57 -52 -89.5t-96 -42.5z
M481 483q10 53 -18 83t-91 30t-101 -30t-48 -83q-9 -51 19 -80.5t91 -29.5t101 29.5t47 80.5zM135 178q-13 -69 24 -107.5t114 -38.5q78 0 128 38.5t62 107.5q12 66 -25 101.5t-115 35.5q-77 0 -127 -35.5t-61 -101.5z" />
    <glyph glyph-name="nine.tosf" horiz-adv-x="638" 
d="M245 58q-97 0 -145 49.5t-33 134.5q18 101 90.5 159.5t179.5 58.5q120 0 166.5 -72.5t21.5 -218.5q-32 -178 -112 -268t-211 -90q-34 0 -76 8.5t-77 27.5l18 42q34 -15 70 -23.5t70 -8.5q101 0 155.5 77.5t78.5 211.5q-43 -49 -86 -68.5t-110 -19.5zM329 414
q-72 0 -122.5 -43t-63.5 -116q-12 -66 22 -104.5t100 -38.5q77 0 129.5 39t64.5 106q13 72 -22.5 114.5t-107.5 42.5z" />
    <glyph glyph-name="zero.numr" horiz-adv-x="402" 
d="M386 446q-16 -94 -65.5 -142.5t-128.5 -48.5q-78 0 -110 48.5t-16 142.5q17 94 66.5 142t127.5 48t110 -48t16 -142zM200 292q48 0 80 39t45 115t-4.5 115.5t-66.5 39.5t-81 -39.5t-45 -115.5t5 -115t67 -39z" />
    <glyph glyph-name="one.numr" horiz-adv-x="219" 
d="M216 631l-65 -367h-57l57 319h-79l4 25l104 23h36z" />
    <glyph glyph-name="two.numr" horiz-adv-x="333" 
d="M334 542q-3 -21 -13.5 -37t-21.5 -26l-32 -28t-70 -61t-70.5 -61t-33.5 -28h198l-7 -37h-261l9 50l222 190q10 10 18.5 21.5t10.5 24.5q4 22 -17 36.5t-57 14.5q-29 0 -56.5 -10t-43.5 -20l-5 33q19 10 50.5 21t64.5 11q57 0 89.5 -26.5t25.5 -67.5z" />
    <glyph glyph-name="three.numr" horiz-adv-x="338" 
d="M222 461q46 -8 70 -33.5t17 -62.5q-9 -51 -54 -80.5t-113 -29.5q-30 0 -56.5 8t-56.5 27l16 34q23 -17 47 -25t53 -8q43 0 72 20.5t35 56.5q6 33 -24 52t-87 19h-35l6 36h36q50 0 82 19t38 51q4 26 -16 41t-60 15q-22 0 -46.5 -7t-43.5 -18l-5 32q22 13 51 20.5t57 7.5
q61 0 92 -24t24 -66q-5 -29 -32 -52t-67 -33z" />
    <glyph glyph-name="four.numr" horiz-adv-x="348" 
d="M284 380h45l-7 -37h-44l-14 -79h-56l14 79h-189l8 45l222 243h66zM229 380l36 204l-190 -204h154z" />
    <glyph glyph-name="five.numr" horiz-adv-x="343" 
d="M206 495q65 0 95.5 -29t21.5 -82q-11 -62 -55.5 -95.5t-115.5 -33.5q-27 0 -57.5 7.5t-55.5 27.5l16 34q21 -16 46.5 -24.5t53.5 -8.5q46 0 72.5 21t33.5 64q7 42 -15 62.5t-75 20.5q-24 0 -48 -3.5t-49 -7.5l39 183h229l-6 -36h-175l-22 -105q7 1 24.5 3t42.5 2z" />
    <glyph glyph-name="six.numr" horiz-adv-x="361" 
d="M228 495q63 0 93.5 -29.5t21.5 -81.5q-11 -61 -53.5 -95t-108.5 -34q-73 0 -102 43t-14 131q19 104 68 155.5t130 51.5q26 0 54 -7t38 -15l-13 -32q-11 7 -36.5 13t-47.5 6q-51 0 -83 -37t-45 -112q20 21 43.5 32t54.5 11zM186 291q40 0 66.5 23.5t33.5 65.5
q6 35 -11.5 55t-54.5 20q-42 0 -69 -20t-33 -55q-7 -42 10.5 -65.5t57.5 -23.5z" />
    <glyph glyph-name="seven.numr" horiz-adv-x="301" 
d="M333 631l-8 -49l-224 -318h-64l235 331h-193l6 36h248z" />
    <glyph glyph-name="eight.numr" horiz-adv-x="376" 
d="M276 469q43 -16 61.5 -40.5t11.5 -61.5q-9 -53 -53.5 -82.5t-114.5 -29.5q-71 0 -105 29.5t-24 82.5q7 38 33 63.5t75 38.5q-33 12 -46 30.5t-9 44.5q7 43 45 67.5t98 24.5q59 0 87.5 -24.5t21.5 -67.5q-4 -28 -24 -46t-57 -29zM304 544q4 27 -12 42t-50 15t-56.5 -15
t-27.5 -42q-4 -28 12.5 -43.5t50.5 -15.5t56 15.5t27 43.5zM112 369q-7 -37 13 -58t62 -21t69 21t34 58q6 35 -14 55t-62 20t-69 -20t-33 -55z" />
    <glyph glyph-name="nine.numr" horiz-adv-x="361" 
d="M174 397q-59 0 -86.5 29.5t-17.5 83.5q10 58 52 92t108 34q73 0 102.5 -43t14.5 -130q-19 -104 -67 -156t-126 -52q-34 0 -62 9.5t-32 13.5l12 32q6 -3 29.5 -11t54.5 -8q51 0 83 36.5t45 112.5q-22 -21 -44.5 -32t-65.5 -11zM226 601q-39 0 -66 -24.5t-34 -64.5
q-6 -34 11.5 -54.5t53.5 -20.5q41 0 69 20.5t34 54.5q7 40 -11.5 64.5t-56.5 24.5z" />
    <glyph glyph-name="zero.dnom" horiz-adv-x="402" 
d="M341 182q-16 -94 -65.5 -142.5t-128.5 -48.5q-78 0 -110 48.5t-16 142.5q17 94 66.5 142t127.5 48t110 -48t16 -142zM155 28q48 0 80 39t45 115t-4.5 115.5t-66.5 39.5t-81 -39.5t-45 -115.5t5 -115t67 -39z" />
    <glyph glyph-name="one.dnom" horiz-adv-x="219" 
d="M171 367l-65 -367h-57l57 319h-79l4 25l104 23h36z" />
    <glyph glyph-name="two.dnom" horiz-adv-x="333" 
d="M289 278q-3 -21 -13.5 -37t-21.5 -26l-32 -28t-70 -61t-70.5 -61t-33.5 -28h198l-7 -37h-261l9 50l222 190q10 10 18.5 21.5t10.5 24.5q4 22 -17 36.5t-57 14.5q-29 0 -56.5 -10t-43.5 -20l-5 33q19 10 50.5 21t64.5 11q57 0 89.5 -26.5t25.5 -67.5z" />
    <glyph glyph-name="three.dnom" horiz-adv-x="338" 
d="M177 197q46 -8 70 -33.5t17 -62.5q-9 -51 -54 -80.5t-113 -29.5q-30 0 -56.5 8t-56.5 27l16 34q23 -17 47 -25t53 -8q43 0 72 20.5t35 56.5q6 33 -24 52t-87 19h-35l6 36h36q50 0 82 19t38 51q4 26 -16 41t-60 15q-22 0 -46.5 -7t-43.5 -18l-5 32q22 13 51 20.5t57 7.5
q61 0 92 -24t24 -66q-5 -29 -32 -52t-67 -33z" />
    <glyph glyph-name="four.dnom" horiz-adv-x="348" 
d="M239 116h45l-7 -37h-44l-14 -79h-56l14 79h-189l8 45l222 243h66zM184 116l36 204l-190 -204h154z" />
    <glyph glyph-name="five.dnom" horiz-adv-x="343" 
d="M161 231q65 0 95.5 -29t21.5 -82q-11 -62 -55.5 -95.5t-115.5 -33.5q-27 0 -57.5 7.5t-55.5 27.5l16 34q21 -16 46.5 -24.5t53.5 -8.5q46 0 72.5 21t33.5 64q7 42 -15 62.5t-75 20.5q-24 0 -48 -3.5t-49 -7.5l39 183h229l-6 -36h-175l-22 -105q7 1 24.5 3t42.5 2z" />
    <glyph glyph-name="six.dnom" horiz-adv-x="361" 
d="M183 231q63 0 93.5 -29.5t21.5 -81.5q-11 -61 -53.5 -95t-108.5 -34q-73 0 -102 43t-14 131q19 104 68 155.5t130 51.5q26 0 54 -7t38 -15l-13 -32q-11 7 -36.5 13t-47.5 6q-51 0 -83 -37t-45 -112q20 21 43.5 32t54.5 11zM141 27q40 0 66.5 23.5t33.5 65.5
q6 35 -11.5 55t-54.5 20q-42 0 -69 -20t-33 -55q-7 -42 10.5 -65.5t57.5 -23.5z" />
    <glyph glyph-name="seven.dnom" horiz-adv-x="301" 
d="M288 367l-8 -49l-224 -318h-64l235 331h-193l6 36h248z" />
    <glyph glyph-name="eight.dnom" horiz-adv-x="376" 
d="M231 205q43 -16 61.5 -40.5t11.5 -61.5q-9 -53 -53.5 -82.5t-114.5 -29.5q-71 0 -105 29.5t-24 82.5q7 38 33 63.5t75 38.5q-33 12 -46 30.5t-9 44.5q7 43 45 67.5t98 24.5q59 0 87.5 -24.5t21.5 -67.5q-4 -28 -24 -46t-57 -29zM259 280q4 27 -12 42t-50 15t-56.5 -15
t-27.5 -42q-4 -28 12.5 -43.5t50.5 -15.5t56 15.5t27 43.5zM67 105q-7 -37 13 -58t62 -21t69 21t34 58q6 35 -14 55t-62 20t-69 -20t-33 -55z" />
    <glyph glyph-name="nine.dnom" horiz-adv-x="361" 
d="M129 133q-59 0 -86.5 29.5t-17.5 83.5q10 58 52 92t108 34q73 0 102.5 -43t14.5 -130q-19 -104 -67 -156t-126 -52q-34 0 -62 9.5t-32 13.5l12 32q6 -3 29.5 -11t54.5 -8q51 0 83 36.5t45 112.5q-22 -21 -44.5 -32t-65.5 -11zM181 337q-39 0 -66 -24.5t-34 -64.5
q-6 -34 11.5 -54.5t53.5 -20.5q41 0 69 20.5t34 54.5q7 40 -11.5 64.5t-56.5 24.5z" />
    <glyph glyph-name="comma.dnom" horiz-adv-x="178" 
d="M17 -61h-41l48 161h77z" />
    <glyph glyph-name="period.dnom" horiz-adv-x="176" 
d="M75 0h-78l13 77h78z" />
    <glyph glyph-name="comma.numr" horiz-adv-x="178" 
d="M62 202h-41l49 162h77z" />
    <glyph glyph-name="period.numr" horiz-adv-x="176" 
d="M121 264h-78l14 76h78z" />
    <glyph glyph-name="comma.sinf" horiz-adv-x="178" 
d="M-4 -172h-41l49 162h77z" />
    <glyph glyph-name="period.sinf" horiz-adv-x="176" 
d="M55 -111h-78l14 77h78z" />
    <glyph glyph-name="comma.sups" horiz-adv-x="178" 
d="M82 313h-41l48 161h77z" />
    <glyph glyph-name="period.sups" horiz-adv-x="176" 
d="M141 374h-78l13 77h78z" />
    <glyph glyph-name="parenleft.dnom" horiz-adv-x="191" 
d="M102 -14h-47q-25 42 -34 90.5t1 100.5q10 55 36.5 105t66.5 90h44q-33 -46 -54.5 -95.5t-30.5 -99.5q-8 -48 -3 -96.5t21 -94.5z" />
    <glyph glyph-name="parenright.dnom" horiz-adv-x="192" 
d="M-19 -14q34 46 56 95t30 96q9 49 4 99t-21 96h44q27 -40 36 -89.5t-1 -105.5q-9 -51 -34.5 -100t-65.5 -91h-48z" />
    <glyph glyph-name="parenleft.numr" horiz-adv-x="191" 
d="M148 250h-47q-25 43 -33.5 92t0.5 100q10 54 36.5 104t66.5 92h45q-33 -46 -54.5 -95.5t-30.5 -100.5q-9 -49 -4 -97.5t21 -94.5z" />
    <glyph glyph-name="parenright.numr" horiz-adv-x="192" 
d="M27 250q34 46 56 95t30 97q9 50 4.5 100t-20.5 96h44q26 -40 35 -90t-1 -106q-9 -51 -34.5 -100t-64.5 -92h-49z" />
    <glyph glyph-name="parenleft.sinf" horiz-adv-x="191" 
d="M81 -126h-47q-25 43 -33.5 92t0.5 100q10 54 36.5 104t66.5 92h45q-33 -46 -54.5 -95.5t-30.5 -100.5q-9 -49 -4 -97.5t21 -94.5z" />
    <glyph glyph-name="parenright.sinf" horiz-adv-x="192" 
d="M-39 -126q34 46 56 95t30 97q9 50 4.5 100t-20.5 96h44q26 -40 35 -90t-1 -106q-9 -51 -34 -100t-65 -92h-49z" />
    <glyph glyph-name="parenleft.sups" horiz-adv-x="191" 
d="M167 359h-48q-25 42 -33.5 91t0.5 101q10 55 37 105t67 90h44q-33 -46 -54.5 -95.5t-30.5 -99.5q-8 -49 -3.5 -97.5t21.5 -94.5z" />
    <glyph glyph-name="parenright.sups" horiz-adv-x="192" 
d="M47 359q34 46 56 95t30 97q9 49 4 99t-21 96h44q27 -40 36 -89.5t-1 -105.5q-9 -52 -34.5 -101t-65.5 -91h-48z" />
    <glyph glyph-name="anoteleia" unicode="&#x387;" horiz-adv-x="192" 
d="M157 446l-18 -101h-68l18 101h68z" />
    <glyph glyph-name="uni037E" unicode="&#x37e;" horiz-adv-x="241" 
d="M177 321h-94l13 77h94zM45 -102h-53l53 179h89z" />
    <glyph glyph-name="Euro" unicode="&#x20ac;" horiz-adv-x="531" 
d="M327 32q29 0 56 4t58 14l3 -43q-29 -8 -61 -14.5t-66 -6.5q-125 0 -184 66t-51 197h-64l20 45h49l1 6.5t2.5 13.5t2.5 13.5l1 6.5h-61l20 46h52q37 130 120 196t208 66q33 0 63 -5.5t56 -15.5l-20 -45q-30 10 -57 15t-49 5q-90 0 -152.5 -54.5t-93.5 -161.5h270l-20 -46
h-262l-7 -40h252l-20 -45h-236q-6 -107 37 -162t133 -55z" />
    <glyph glyph-name="uniF8FF" unicode="&#xf8ff;" horiz-adv-x="1152" 
d="M218 427q31 -2 56.5 -17.5t25.5 -51.5q0 -23 -12.5 -42t-32.5 -27q-3 -1 -5 -2l-4 -2l66 -116h-91l-55 103q-8 -1 -17 -1h-18v-102h-79v259h129h18.5t18.5 -1zM131 307q32 0 61 10t29 40q0 12 -7 21.5t-19 11.5q-5 1 -9.5 1h-9.5h-45v-84zM611 261q0 52 31.5 75.5
t79.5 23.5q19 0 38 -3t36 -8l-12 -35q-12 3 -23.5 5t-24.5 2q-28 0 -39.5 -16t-11.5 -44t12.5 -43t40.5 -15q13 0 23.5 1.5t22.5 4.5l12 -35q-17 -5 -36 -8t-38 -3q-48 0 -79.5 23.5t-31.5 74.5zM453 360q53 0 85.5 -22t32.5 -77q0 -53 -32 -75.5t-86 -22.5
q-50 0 -84.5 20.5t-34.5 77.5t34 78t85 21zM1044 283v-106q-24 -7 -49.5 -10.5t-51.5 -3.5q-18 0 -38 2t-36.5 8.5t-27.5 18.5t-11 32q0 16 9 27.5t22.5 19t30 11t32.5 4.5q11 1 23 1h23v16q0 13 -10.5 17t-29.5 4q-16 0 -32.5 -2.5t-32.5 -6.5l-13 34q23 6 48 8.5t50 2.5
q49 0 71.5 -19t22.5 -58zM453 196q28 0 35.5 16.5t7.5 48.5q0 36 -7.5 51.5t-35.5 15.5q-29 0 -36.5 -15.5t-7.5 -51.5q0 -32 7.5 -48.5t36.5 -16.5zM970 196v63h-16.5t-16.5 -1q-13 -1 -25.5 -9.5t-12.5 -24.5q0 -17 14 -23t31 -6h13.5t12.5 1zM264 46q-54 0 -107.5 -7
t-104.5 -19v82q51 12 103.5 18t105.5 6q52 0 103.5 -6t100.5 -17q48 -11 98 -17.5t101 -6.5q22 0 43 3t41 8q1 0 1.5 -0.5t0.5 -1.5v-3q-33 -22 -66.5 -44t-67.5 -41q-38 1 -75 7.5t-73 14.5q-49 11 -100 17.5t-104 6.5zM813 105q3 4 6.5 5.5t7.5 1.5h217v-90h-282z" />
    <glyph glyph-name="uni2116" unicode="&#x2116;" horiz-adv-x="945" 
d="M766 328q-68 0 -96.5 40.5t-14.5 117.5q13 75 56 115.5t110 40.5q68 0 97 -40.5t16 -115.5q-13 -77 -56.5 -117.5t-111.5 -40.5zM564 628h54l-111 -628h-90l-235 552l-97 -552h-53l110 628h88l237 -550zM878 486q10 57 -6.5 87.5t-56.5 30.5q-41 0 -68 -30.5t-37 -87.5
t6 -88t57 -31t68 31t37 88zM619 226l9 50h259l-9 -50h-259z" />
    <glyph glyph-name="uni0374" unicode="&#x374;" horiz-adv-x="225" 
d="M43 380l122 248h90l-162 -248h-50z" />
    <glyph glyph-name="uni0375" unicode="&#x375;" horiz-adv-x="225" 
d="M-38 -81l122 248h91l-162 -248h-51z" />
    <glyph glyph-name="acute.case" horiz-adv-x="263" 
d="M227 711h-62l100 109h90z" />
    <glyph glyph-name="breve.case" horiz-adv-x="310" 
d="M375 820q-10 -52 -48.5 -83t-95.5 -31t-86.5 30.5t-20.5 83.5h57q-6 -34 9.5 -54t46.5 -20t52.5 20t27.5 54h58z" />
    <glyph glyph-name="caron.case" horiz-adv-x="394" 
d="M415 820l-104 -109h-83l-65 109h60l52 -68l76 68h64z" />
    <glyph glyph-name="circumflex.case" horiz-adv-x="186" 
d="M292 711h-59l-53 67l-78 -67h-62l103 109h84z" />
    <glyph glyph-name="dieresis.case" horiz-adv-x="419" 
d="M265 808l-18 -97h-69l17 97h70zM420 808l-17 -97h-69l17 97h69z" />
    <glyph glyph-name="dotaccent.case" horiz-adv-x="191" 
d="M129 711l17 97h81l-17 -97h-81z" />
    <glyph glyph-name="grave.case" horiz-adv-x="147" 
d="M137 711l-91 109h90l61 -109h-60z" />
    <glyph glyph-name="hungarumlaut.case" horiz-adv-x="472" 
d="M225 711h-57l100 109h88zM352 711h-57l100 109h88z" />
    <glyph glyph-name="macron.case" horiz-adv-x="354" 
d="M121 711l10 57h260l-10 -57h-260z" />
    <glyph glyph-name="ring.case" horiz-adv-x="578" 
d="M249 773q6 35 35.5 52t84.5 17t79 -17t17 -52q-6 -35 -35.5 -51.5t-84.5 -16.5t-78.5 16.5t-17.5 51.5zM397 773q4 25 -3 35t-29 10t-33 -10t-15 -35q-4 -24 3 -34t29 -10t33 10t15 34z" />
    <glyph glyph-name="tilde.case" horiz-adv-x="601" 
d="M506 797l21 -26q-26 -33 -48.5 -46.5t-47.5 -13.5q-20 0 -33.5 5t-24.5 12q-12 6 -24.5 11.5t-31.5 5.5q-17 0 -30.5 -7t-29.5 -24l-21 25q25 33 47 46.5t49 13.5q24 0 38.5 -7t27.5 -14q10 -5 21 -9t27 -4t30 7.5t30 24.5z" />
    <glyph glyph-name="dotbelowcomb" unicode="&#x323;" horiz-adv-x="160" 
d="M43 -145h-82l14 77h82z" />
    <glyph glyph-name="tonos" unicode="&#x384;" horiz-adv-x="221" 
d="M101 531l63 157h83l-93 -157h-53z" />
    <glyph glyph-name="dieresistonos" unicode="&#x385;" horiz-adv-x="368" 
d="M175 531l63 157h83l-94 -157h-52zM156 628l-17 -97h-68l17 97h68zM390 628l-17 -97h-68l17 97h68z" />
    <glyph glyph-name="tonos.case" horiz-adv-x="221" 
d="M101 673l63 157h83l-93 -157h-53z" />
    <glyph glyph-name="uniE132" unicode="&#xe132;" horiz-adv-x="442" 
d="M401 531h-56l100 107h88zM191 531h-56l100 107h88zM171 446l-79 -446h-70l79 446h70zM396 446l-95 -535q-11 -65 -46.5 -99.5t-100.5 -34.5h-12l-2 45q4 0 9.5 0.5t8.5 0.5q33 1 49 21.5t24 66.5l95 535h70z" />
    <glyph glyph-name="uniE133" unicode="&#xe133;" horiz-adv-x="495" 
d="M476 711h-62l100 109h90zM231 711h-62l100 109h90zM216 628l-110 -628h-74l110 628h74zM396 628h74l-117 -665q-13 -72 -52.5 -103.5t-115.5 -31.5q-17 0 -31.5 3t-27.5 9l17 41q11 -3 22.5 -5t22.5 -2q43 0 62.5 19t28.5 70z" />
    <glyph glyph-name="uni0326" unicode="&#x326;" horiz-adv-x="163" 
d="M-14 -246h-58l54 178h94z" />
    <glyph glyph-name="uni0237" unicode="&#x237;" horiz-adv-x="224" 
d="M178 446l-95 -535q-11 -65 -46.5 -99.5t-100.5 -34.5h-12l-2 45q4 0 9.5 0.5t8.5 0.5q33 1 49 21.5t24 66.5l95 535h70z" />
    <glyph glyph-name="northWestArrow" unicode="&#x2196;" horiz-adv-x="683" 
d="M618 35l-54 -47l-404 524l-36 -203h-66l57 319h302l-12 -64h-196z" />
    <glyph glyph-name="downArrow" unicode="&#x2193;" horiz-adv-x="471" 
d="M182 -14l-177 222l53 46l112 -145l91 519h65l-91 -517l164 145l36 -46z" />
    <glyph glyph-name="leftArrow" unicode="&#x2190;" horiz-adv-x="662" 
d="M27 315l254 224l37 -45l-165 -147h482l-12 -66h-483l113 -146l-53 -45z" />
    <glyph glyph-name="upArrow" unicode="&#x2191;" horiz-adv-x="472" 
d="M151 0l91 511l-164 -145l-36 46l255 222l175 -224l-53 -46l-113 145l-90 -509h-65z" />
    <glyph glyph-name="leftRightArrow" unicode="&#x2194;" horiz-adv-x="691" 
d="M27 315l254 224l37 -45l-165 -147h404l-114 147l53 45l175 -224l-253 -225l-37 45l165 146h-406l113 -146l-53 -45z" />
    <glyph glyph-name="southEastArrow" unicode="&#x2198;" horiz-adv-x="683" 
d="M575 0h-302l11 62h196l-409 529l54 47l404 -525l36 204h66z" />
    <glyph glyph-name="rightArrow" unicode="&#x2192;" horiz-adv-x="662" 
d="M33 281l12 66h483l-114 147l53 45l175 -224l-252 -225l-38 45l165 146h-484z" />
    <glyph glyph-name="northEastArrow" unicode="&#x2197;" horiz-adv-x="684" 
d="M-27 36l595 529h-196l11 63h303l-56 -318h-66l35 203l-588 -524z" />
    <glyph glyph-name="southWestArrow" unicode="&#x2199;" horiz-adv-x="683" 
d="M4 0l56 317h65l-36 -204l589 525l38 -47l-595 -529h196l-11 -62h-302z" />
    <glyph glyph-name="upDownArrow" unicode="&#x2195;" horiz-adv-x="490" 
d="M191 -14l-174 222l51 46l111 -145l72 402l-163 -145l-35 46l252 222l173 -224l-52 -46l-111 146l-71 -400l163 146l36 -46z" />
    <glyph glyph-name="checkmark" unicode="&#x2713;" horiz-adv-x="491" 
d="M155 66l-141 182l56 49l104 -137l275 246l36 -46z" />
    </font>
</defs>
</svg>
