<?xml version="1.0" standalone="no"?>
<!DOCTYPE svg PUBLIC "-//W3C//DTD SVG 1.1//EN" "http://www.w3.org/Graphics/SVG/1.1/DTD/svg11.dtd" >
<svg xmlns="http://www.w3.org/2000/svg" xmlns:xlink="http://www.w3.org/1999/xlink" version="1.1">
<metadata>
Created by FontForge 20191125 at Wed Oct 10 07:05:48 2018
 By convertio
Copyright (c) 2018 by Gimeno Gra`fic. All rights reserved.

This font is for the exclusive use of the company Roca Sanitario, S.A - http://www.roca.com
</metadata>
<defs>
<font id="Roca-Regular" horiz-adv-x="561" >
  <font-face 
    font-family="Roca"
    font-weight="527"
    font-stretch="normal"
    units-per-em="1000"
    panose-1="2 0 5 9 0 0 0 2 0 4"
    ascent="777"
    descent="-223"
    x-height="446"
    cap-height="628"
    bbox="-145 -258 1260 975"
    underline-thickness="0"
    underline-position="0"
    unicode-range="U+000D-F8FF"
  />
<missing-glyph horiz-adv-x="494" 
d="M78 0v628h338v-628h-338zM145 584l103 -221l102 221h-205zM122 541v-449l104 225zM269 317l103 -223v445zM143 44h209l-104 226z" />
    <glyph glyph-name="Lgeminada" unicode="L&#xb7;L" horiz-adv-x="1042" 
d="M198 62h315v-62h-433v628h118v-566zM706 62h315v-62h-433v628h118v-566zM447 281h-125v92h125v-92z" />
    <glyph glyph-name="lgeminada" unicode="l&#xb7;l" horiz-adv-x="590" 
d="M184 0h-114v619l114 28v-647zM520 0h-114v619l114 28v-647zM356 276h-125v92h125v-92z" />
    <glyph glyph-name=".notdef" horiz-adv-x="494" 
d="M78 0v628h338v-628h-338zM145 584l103 -221l102 221h-205zM122 541v-449l104 225zM269 317l103 -223v445zM143 44h209l-104 226z" />
    <glyph glyph-name=".null" horiz-adv-x="0" 
 />
    <glyph glyph-name="CR" unicode="&#xd;" horiz-adv-x="211" 
 />
    <glyph glyph-name="space" unicode=" " horiz-adv-x="211" 
 />
    <glyph glyph-name="uni00A0" unicode="&#xa0;" horiz-adv-x="211" 
 />
    <glyph glyph-name="A" unicode="A" horiz-adv-x="636" 
d="M487 0l-57 166h-272l-59 -166h-82l224 628h151l229 -628h-134zM180 229h228l-112 326z" />
    <glyph glyph-name="Aacute" unicode="&#xc1;" horiz-adv-x="636" 
d="M358 711h-83l86 109h116zM487 0l-57 166h-272l-59 -166h-82l224 628h151l229 -628h-134zM180 229h228l-112 326z" />
    <glyph glyph-name="Abreve" unicode="&#x102;" horiz-adv-x="636" 
d="M459 831q-6 -54 -41 -89.5t-101 -35.5t-102.5 34.5t-40.5 90.5h60q5 -31 27.5 -48t54.5 -17q33 0 55.5 17t28.5 48h59zM487 0l-57 166h-272l-59 -166h-82l224 628h151l229 -628h-134zM180 229h228l-112 326z" />
    <glyph glyph-name="uni01CD" unicode="&#x1cd;" horiz-adv-x="636" 
d="M463 820l-88 -109h-116l-88 109h82l64 -62l64 62h82zM487 0l-57 166h-272l-59 -166h-82l224 628h151l229 -628h-134zM180 229h228l-112 326z" />
    <glyph glyph-name="Acircumflex" unicode="&#xc2;" horiz-adv-x="636" 
d="M465 711h-82l-64 61l-64 -61h-83l89 109h116zM487 0l-57 166h-272l-59 -166h-82l224 628h151l229 -628h-134zM180 229h228l-112 326z" />
    <glyph glyph-name="Adieresis" unicode="&#xc4;" horiz-adv-x="636" 
d="M276 813v-102h-94v102h94zM452 813v-102h-95v102h95zM487 0l-57 166h-272l-59 -166h-82l224 628h151l229 -628h-134zM180 229h228l-112 326z" />
    <glyph glyph-name="uni1EA0" unicode="&#x1ea0;" horiz-adv-x="636" 
d="M487 0l-57 166h-272l-59 -166h-82l224 628h151l229 -628h-134zM180 229h228l-112 326zM352 -160h-110v92h110v-92z" />
    <glyph glyph-name="Agrave" unicode="&#xc0;" horiz-adv-x="636" 
d="M276 711l-119 109h116l86 -109h-83zM487 0l-57 166h-272l-59 -166h-82l224 628h151l229 -628h-134zM180 229h228l-112 326z" />
    <glyph glyph-name="Amacron" unicode="&#x100;" horiz-adv-x="636" 
d="M172 711v77h288v-77h-288zM487 0l-57 166h-272l-59 -166h-82l224 628h151l229 -628h-134zM180 229h228l-112 326z" />
    <glyph glyph-name="Aogonek" unicode="&#x104;" horiz-adv-x="636" 
d="M487 0l-57 166h-272l-59 -166h-82l224 628h151l229 -628h-35q-45 -40 -62 -66t-17 -53q0 -21 20 -35.5t49 -14.5h84v-42q-23 -5 -55 -8.5t-59 -3.5q-53 0 -85.5 26t-32.5 66q0 31 19 64.5t68 66.5h-28zM180 229h228l-112 326z" />
    <glyph glyph-name="Aring" unicode="&#xc5;" horiz-adv-x="636" 
d="M487 0l-57 166h-272l-59 -166h-82l221 621q-17 8 -26 22t-9 34q0 35 28.5 52t85.5 17q54 0 84 -17.5t30 -51.5q0 -20 -9 -34.5t-27 -21.5l226 -621h-134zM359 677q0 21 -8 32.5t-34 11.5q-25 0 -33.5 -11t-8.5 -33q0 -21 8 -32.5t34 -11.5q25 0 33.5 11.5t8.5 32.5z
M180 229h228l-112 326z" />
    <glyph glyph-name="Aringacute" unicode="&#x1fa;" horiz-adv-x="636" 
d="M487 0l-57 166h-272l-59 -166h-82l223 624q-19 8 -29 22t-10 36q0 29 19 45.5t57 21.5l80 101h116l-112 -103q32 -6 50 -22.5t18 -42.5q0 -20 -9 -34t-27 -22l228 -626h-134zM357 682q0 21 -8 32.5t-34 11.5q-25 0 -33.5 -11t-8.5 -33q0 -21 8 -32.5t34 -11.5
q25 0 33.5 11.5t8.5 32.5zM180 229h228l-112 326z" />
    <glyph glyph-name="Atilde" unicode="&#xc3;" horiz-adv-x="636" 
d="M451 806l28 -42q-22 -29 -44 -41t-53 -12q-23 0 -39 4.5t-30 10.5t-30.5 10.5t-35.5 4.5q-21 0 -35.5 -6.5t-30.5 -22.5l-28 42q25 31 47 43t53 12q21 0 40 -6t35 -13q12 -5 25.5 -8t32.5 -3q22 0 36.5 6t28.5 21zM487 0l-57 166h-272l-59 -166h-82l224 628h151l229 -628
h-134zM180 229h228l-112 326z" />
    <glyph glyph-name="AE" unicode="&#xc6;" horiz-adv-x="860" 
d="M815 628v-62h-315v-209h278v-63h-278v-232h315v-62h-433v166h-209l-65 -166h-101l246 628h562zM331 566l-133 -337h184v337h-51z" />
    <glyph glyph-name="AEacute" unicode="&#x1fc;" horiz-adv-x="860" 
d="M520 703h-83l86 109h116zM815 628v-62h-315v-209h278v-63h-278v-232h315v-62h-433v166h-209l-65 -166h-101l246 628h562zM331 566l-133 -337h184v337h-51z" />
    <glyph glyph-name="B" unicode="B" horiz-adv-x="661" 
d="M440 348q87 -9 135 -50.5t48 -107.5q0 -96 -84.5 -143t-258.5 -47h-200v628h241q119 0 184 -39t65 -109q0 -46 -34.5 -80.5t-95.5 -51.5zM313 566h-115v-204q127 0 190 28.5t63 85.5q0 45 -34.5 67.5t-103.5 22.5zM198 62h81q114 0 166.5 33t52.5 105q0 49 -46 78
t-125 29q-32 0 -63.5 -2t-65.5 -6v-237z" />
    <glyph glyph-name="uni1E02" unicode="&#x1e02;" horiz-adv-x="661" 
d="M248 711v102h123v-102h-123zM440 348q87 -9 135 -50.5t48 -107.5q0 -96 -84.5 -143t-258.5 -47h-200v628h241q119 0 184 -39t65 -109q0 -46 -34.5 -80.5t-95.5 -51.5zM313 566h-115v-204q127 0 190 28.5t63 85.5q0 45 -34.5 67.5t-103.5 22.5zM198 62h81q114 0 166.5 33
t52.5 105q0 49 -46 78t-125 29q-32 0 -63.5 -2t-65.5 -6v-237z" />
    <glyph glyph-name="C" unicode="C" horiz-adv-x="594" 
d="M551 87l18 -64q-52 -19 -107 -28t-104 -9q-149 0 -231 86t-82 243q0 156 82 241.5t231 85.5q49 0 104.5 -9.5t106.5 -28.5l-18 -63q-43 16 -87.5 25.5t-87.5 9.5q-101 0 -153 -66.5t-52 -194.5t52 -194.5t152 -66.5q43 0 88 8.5t88 24.5z" />
    <glyph glyph-name="Cacute" unicode="&#x106;" horiz-adv-x="594" 
d="M362 703h-83l86 109h116zM551 87l18 -64q-52 -19 -107 -28t-104 -9q-149 0 -231 86t-82 243q0 156 82 241.5t231 85.5q49 0 104.5 -9.5t106.5 -28.5l-18 -63q-43 16 -87.5 25.5t-87.5 9.5q-101 0 -153 -66.5t-52 -194.5t52 -194.5t152 -66.5q43 0 88 8.5t88 24.5z" />
    <glyph glyph-name="Ccaron" unicode="&#x10c;" horiz-adv-x="594" 
d="M494 820l-88 -109h-116l-88 109h82l64 -62l64 62h82zM551 87l18 -64q-52 -19 -107 -28t-104 -9q-149 0 -231 86t-82 243q0 156 82 241.5t231 85.5q49 0 104.5 -9.5t106.5 -28.5l-18 -63q-43 16 -87.5 25.5t-87.5 9.5q-101 0 -153 -66.5t-52 -194.5t52 -194.5t152 -66.5
q43 0 88 8.5t88 24.5z" />
    <glyph glyph-name="Ccedilla" unicode="&#xc7;" horiz-adv-x="594" 
d="M551 87l18 -64q-52 -19 -107 -28t-104 -9q-149 0 -231 86t-82 243q0 156 82 241.5t231 85.5q49 0 104.5 -9.5t106.5 -28.5l-18 -63q-43 16 -87.5 25.5t-87.5 9.5q-101 0 -153 -66.5t-52 -194.5t52 -194.5t152 -66.5q43 0 88 8.5t88 24.5zM263 -170l8 42q14 -4 25.5 -6
t20.5 -2q23 0 33 8t10 21t-10 21.5t-34 8.5q-9 0 -20.5 -2.5t-24.5 -6.5l-8 41q18 4 34.5 6.5t32.5 2.5q54 0 81 -18.5t27 -52.5q0 -35 -27.5 -53.5t-81.5 -18.5q-13 0 -30 2.5t-36 6.5z" />
    <glyph glyph-name="Ccircumflex" unicode="&#x108;" horiz-adv-x="594" 
d="M497 711h-82l-64 61l-64 -61h-83l89 109h116zM551 87l18 -64q-52 -19 -107 -28t-104 -9q-149 0 -231 86t-82 243q0 156 82 241.5t231 85.5q49 0 104.5 -9.5t106.5 -28.5l-18 -63q-43 16 -87.5 25.5t-87.5 9.5q-101 0 -153 -66.5t-52 -194.5t52 -194.5t152 -66.5
q43 0 88 8.5t88 24.5z" />
    <glyph glyph-name="Cdotaccent" unicode="&#x10a;" horiz-adv-x="594" 
d="M280 711v102h123v-102h-123zM551 87l18 -64q-52 -19 -107 -28t-104 -9q-149 0 -231 86t-82 243q0 156 82 241.5t231 85.5q49 0 104.5 -9.5t106.5 -28.5l-18 -63q-43 16 -87.5 25.5t-87.5 9.5q-101 0 -153 -66.5t-52 -194.5t52 -194.5t152 -66.5q43 0 88 8.5t88 24.5z" />
    <glyph glyph-name="D" unicode="D" horiz-adv-x="680" 
d="M80 628h242q150 0 231.5 -82t81.5 -233q0 -150 -81.5 -231.5t-231.5 -81.5h-242v628zM198 62h114q97 1 147 64.5t50 186.5q0 124 -51 188.5t-150 64.5h-110v-504z" />
    <glyph glyph-name="Eth" unicode="&#xd0;" horiz-adv-x="690" 
d="M27 354h63v274h242q150 0 231.5 -82t81.5 -233q0 -150 -81.5 -231.5t-231.5 -81.5h-242v287h-63v67zM208 62h114q97 1 147 64.5t50 186.5q0 124 -51 188.5t-150 64.5h-110v-212h148v-67h-148v-225z" />
    <glyph glyph-name="Dcaron" unicode="&#x10e;" horiz-adv-x="680" 
d="M465 820l-88 -109h-116l-88 109h82l64 -62l64 62h82zM80 628h242q150 0 231.5 -82t81.5 -233q0 -150 -81.5 -231.5t-231.5 -81.5h-242v628zM198 62h114q97 1 147 64.5t50 186.5q0 124 -51 188.5t-150 64.5h-110v-504z" />
    <glyph glyph-name="Dcroat" unicode="&#x110;" horiz-adv-x="690" 
d="M27 354h63v274h242q150 0 231.5 -82t81.5 -233q0 -150 -81.5 -231.5t-231.5 -81.5h-242v287h-63v67zM208 62h114q97 1 147 64.5t50 186.5q0 124 -51 188.5t-150 64.5h-110v-212h148v-67h-148v-225z" />
    <glyph glyph-name="uni1E0A" unicode="&#x1e0a;" horiz-adv-x="680" 
d="M271 711v102h123v-102h-123zM80 628h242q150 0 231.5 -82t81.5 -233q0 -150 -81.5 -231.5t-231.5 -81.5h-242v628zM198 62h114q97 1 147 64.5t50 186.5q0 124 -51 188.5t-150 64.5h-110v-504z" />
    <glyph glyph-name="uni1E0C" unicode="&#x1e0c;" horiz-adv-x="680" 
d="M80 628h242q150 0 231.5 -82t81.5 -233q0 -150 -81.5 -231.5t-231.5 -81.5h-242v628zM198 62h114q97 1 147 64.5t50 186.5q0 124 -51 188.5t-150 64.5h-110v-504zM390 -160h-110v92h110v-92z" />
    <glyph glyph-name="E" unicode="E" horiz-adv-x="558" 
d="M513 628v-62h-315v-209h278v-63h-278v-232h315v-62h-433v628h433z" />
    <glyph glyph-name="Eacute" unicode="&#xc9;" horiz-adv-x="558" 
d="M322 703h-83l86 109h116zM513 628v-62h-315v-209h278v-63h-278v-232h315v-62h-433v628h433z" />
    <glyph glyph-name="Ebreve" unicode="&#x114;" horiz-adv-x="558" 
d="M442 831q-6 -54 -41 -89.5t-101 -35.5t-102.5 34.5t-40.5 90.5h60q5 -31 27.5 -48t54.5 -17q33 0 55.5 17t28.5 48h59zM513 628v-62h-315v-209h278v-63h-278v-232h315v-62h-433v628h433z" />
    <glyph glyph-name="Ecaron" unicode="&#x11a;" horiz-adv-x="558" 
d="M447 820l-88 -109h-116l-88 109h82l64 -62l64 62h82zM513 628v-62h-315v-209h278v-63h-278v-232h315v-62h-433v628h433z" />
    <glyph glyph-name="Ecircumflex" unicode="&#xca;" horiz-adv-x="558" 
d="M442 711h-82l-64 61l-64 -61h-83l89 109h116zM513 628v-62h-315v-209h278v-63h-278v-232h315v-62h-433v628h433z" />
    <glyph glyph-name="Edieresis" unicode="&#xcb;" horiz-adv-x="558" 
d="M257 813v-102h-94v102h94zM433 813v-102h-95v102h95zM513 628v-62h-315v-209h278v-63h-278v-232h315v-62h-433v628h433z" />
    <glyph glyph-name="Edotaccent" unicode="&#x116;" horiz-adv-x="558" 
d="M240 711v102h123v-102h-123zM513 628v-62h-315v-209h278v-63h-278v-232h315v-62h-433v628h433z" />
    <glyph glyph-name="uni1EB8" unicode="&#x1eb8;" horiz-adv-x="558" 
d="M513 628v-62h-315v-209h278v-63h-278v-232h315v-62h-433v628h433zM352 -160h-110v92h110v-92z" />
    <glyph glyph-name="Egrave" unicode="&#xc8;" horiz-adv-x="558" 
d="M280 711l-119 109h116l86 -109h-83zM513 628v-62h-315v-209h278v-63h-278v-232h315v-62h-433v628h433z" />
    <glyph glyph-name="Emacron" unicode="&#x112;" horiz-adv-x="558" 
d="M157 711v77h288v-77h-288zM513 628v-62h-315v-209h278v-63h-278v-232h315v-62h-433v628h433z" />
    <glyph glyph-name="Eogonek" unicode="&#x118;" horiz-adv-x="558" 
d="M513 628v-62h-315v-209h278v-63h-278v-232h315v-62h-29q-45 -40 -62 -66t-17 -53q0 -21 20 -35.5t49 -14.5h84v-42q-23 -5 -55 -8.5t-59 -3.5q-53 0 -85.5 26t-32.5 66q0 31 19 64.5t68 66.5h-333v628h433z" />
    <glyph glyph-name="uni1EBC" unicode="&#x1ebc;" horiz-adv-x="558" 
d="M432 806l28 -42q-22 -29 -44 -41t-53 -12q-23 0 -39 4.5t-30 10.5t-30.5 10.5t-35.5 4.5q-21 0 -35.5 -6.5t-30.5 -22.5l-28 42q25 31 47 43t53 12q21 0 40 -6t35 -13q12 -5 25.5 -8t32.5 -3q22 0 36.5 6t28.5 21zM513 628v-62h-315v-209h278v-63h-278v-232h315v-62h-433
v628h433z" />
    <glyph glyph-name="F" unicode="F" horiz-adv-x="524" 
d="M499 628v-62h-301v-215h269v-62h-269v-289h-118v628h419z" />
    <glyph glyph-name="uni1E1E" unicode="&#x1e1e;" horiz-adv-x="524" 
d="M232 711v102h123v-102h-123zM499 628v-62h-301v-215h269v-62h-269v-289h-118v628h419z" />
    <glyph glyph-name="G" unicode="G" horiz-adv-x="637" 
d="M350 333h232v-321q-40 -11 -90.5 -18.5t-130.5 -7.5q-159 0 -237 81t-78 246q0 166 77.5 247.5t235.5 81.5q51 0 106 -9.5t105 -28.5l-18 -63q-46 16 -89 25t-86 9q-101 0 -153.5 -67t-52.5 -195t50.5 -195.5t148.5 -67.5q23 0 54 2.5t47 7.5v210h-121v63z" />
    <glyph glyph-name="uni01F4" unicode="&#x1f4;" horiz-adv-x="637" 
d="M380 711h-83l86 109h116zM350 333h232v-321q-40 -11 -90.5 -18.5t-130.5 -7.5q-159 0 -237 81t-78 246q0 166 77.5 247.5t235.5 81.5q51 0 106 -9.5t105 -28.5l-18 -63q-46 16 -89 25t-86 9q-101 0 -153.5 -67t-52.5 -195t50.5 -195.5t148.5 -67.5q23 0 54 2.5t47 7.5
v210h-121v63z" />
    <glyph glyph-name="Gbreve" unicode="&#x11e;" horiz-adv-x="637" 
d="M483 831q-6 -54 -41 -89.5t-101 -35.5t-102.5 34.5t-40.5 90.5h60q5 -31 27.5 -48t54.5 -17q33 0 55.5 17t28.5 48h59zM350 333h232v-321q-40 -11 -90.5 -18.5t-130.5 -7.5q-159 0 -237 81t-78 246q0 166 77.5 247.5t235.5 81.5q51 0 106 -9.5t105 -28.5l-18 -63
q-46 16 -89 25t-86 9q-101 0 -153.5 -67t-52.5 -195t50.5 -195.5t148.5 -67.5q23 0 54 2.5t47 7.5v210h-121v63z" />
    <glyph glyph-name="Gcaron" unicode="&#x1e6;" horiz-adv-x="637" 
d="M489 820l-88 -109h-116l-88 109h82l64 -62l64 62h82zM350 333h232v-321q-40 -11 -90.5 -18.5t-130.5 -7.5q-159 0 -237 81t-78 246q0 166 77.5 247.5t235.5 81.5q51 0 106 -9.5t105 -28.5l-18 -63q-46 16 -89 25t-86 9q-101 0 -153.5 -67t-52.5 -195t50.5 -195.5
t148.5 -67.5q23 0 54 2.5t47 7.5v210h-121v63z" />
    <glyph glyph-name="Gcircumflex" unicode="&#x11c;" horiz-adv-x="637" 
d="M490 711h-82l-64 61l-64 -61h-83l89 109h116zM350 333h232v-321q-40 -11 -90.5 -18.5t-130.5 -7.5q-159 0 -237 81t-78 246q0 166 77.5 247.5t235.5 81.5q51 0 106 -9.5t105 -28.5l-18 -63q-46 16 -89 25t-86 9q-101 0 -153.5 -67t-52.5 -195t50.5 -195.5t148.5 -67.5
q23 0 54 2.5t47 7.5v210h-121v63z" />
    <glyph glyph-name="uni0122" unicode="&#x122;" horiz-adv-x="637" 
d="M350 333h232v-321q-40 -11 -90.5 -18.5t-130.5 -7.5q-159 0 -237 81t-78 246q0 166 77.5 247.5t235.5 81.5q51 0 106 -9.5t105 -28.5l-18 -63q-46 16 -89 25t-86 9q-101 0 -153.5 -67t-52.5 -195t50.5 -195.5t148.5 -67.5q23 0 54 2.5t47 7.5v210h-121v63zM344 -258h-74
l23 190h119z" />
    <glyph glyph-name="Gdotaccent" unicode="&#x120;" horiz-adv-x="637" 
d="M284 711v102h123v-102h-123zM350 333h232v-321q-40 -11 -90.5 -18.5t-130.5 -7.5q-159 0 -237 81t-78 246q0 166 77.5 247.5t235.5 81.5q51 0 106 -9.5t105 -28.5l-18 -63q-46 16 -89 25t-86 9q-101 0 -153.5 -67t-52.5 -195t50.5 -195.5t148.5 -67.5q23 0 54 2.5t47 7.5
v210h-121v63z" />
    <glyph glyph-name="H" unicode="H" horiz-adv-x="679" 
d="M481 357v271h118v-628h-118v295h-284v-295h-117v628h117v-271h284z" />
    <glyph glyph-name="Hbar" unicode="&#x126;" horiz-adv-x="699" 
d="M26 464v52h64v112h117v-112h284v112h118v-112h64v-52h-64v-464h-118v295h-284v-295h-117v464h-64zM491 357v107h-284v-107h284z" />
    <glyph glyph-name="Hcircumflex" unicode="&#x124;" horiz-adv-x="679" 
d="M487 711h-82l-64 61l-64 -61h-83l89 109h116zM481 357v271h118v-628h-118v295h-284v-295h-117v628h117v-271h284z" />
    <glyph glyph-name="uni1E24" unicode="&#x1e24;" horiz-adv-x="679" 
d="M481 357v271h118v-628h-118v295h-284v-295h-117v628h117v-271h284zM393 -160h-110v92h110v-92z" />
    <glyph glyph-name="I" unicode="I" horiz-adv-x="278" 
d="M198 628v-628h-118v628h118z" />
    <glyph glyph-name="IJ" unicode="&#x132;" horiz-adv-x="567" 
d="M198 628v-628h-118v628h118zM370 628h117v-651q0 -81 -53 -121.5t-157 -41.5q-11 0 -22.5 1.5t-21.5 5.5l7 60q8 -1 17.5 -2.5t17.5 -1.5q49 0 72 19.5t23 64.5v667z" />
    <glyph glyph-name="Iacute" unicode="&#xcd;" horiz-adv-x="278" 
d="M180 703h-83l86 109h116zM198 628v-628h-118v628h118z" />
    <glyph glyph-name="Ibreve" unicode="&#x12c;" horiz-adv-x="278" 
d="M283 831q-6 -54 -41 -89.5t-101 -35.5t-102.5 34.5t-40.5 90.5h60q5 -31 27.5 -48t54.5 -17q33 0 55.5 17t28.5 48h59zM198 628v-628h-118v628h118z" />
    <glyph glyph-name="uni01CF" unicode="&#x1cf;" horiz-adv-x="278" 
d="M286 820l-88 -109h-116l-88 109h82l64 -62l64 62h82zM198 628v-628h-118v628h118z" />
    <glyph glyph-name="Icircumflex" unicode="&#xce;" horiz-adv-x="278" 
d="M286 711h-82l-64 61l-64 -61h-83l89 109h116zM198 628v-628h-118v628h118z" />
    <glyph glyph-name="Idieresis" unicode="&#xcf;" horiz-adv-x="278" 
d="M98 813v-102h-94v102h94zM274 813v-102h-95v102h95zM198 628v-628h-118v628h118z" />
    <glyph glyph-name="Idotaccent" unicode="&#x130;" horiz-adv-x="278" 
d="M77 711v102h123v-102h-123zM198 628v-628h-118v628h118z" />
    <glyph glyph-name="uni1ECA" unicode="&#x1eca;" horiz-adv-x="278" 
d="M198 628v-628h-118v628h118zM192 -160h-110v92h110v-92z" />
    <glyph glyph-name="Igrave" unicode="&#xcc;" horiz-adv-x="278" 
d="M109 711l-119 109h116l86 -109h-83zM198 628v-628h-118v628h118z" />
    <glyph glyph-name="Imacron" unicode="&#x12a;" horiz-adv-x="278" 
d="M-5 711v77h288v-77h-288zM198 628v-628h-118v628h118z" />
    <glyph glyph-name="Iogonek" unicode="&#x12e;" horiz-adv-x="278" 
d="M199 628v-628h-28q-45 -40 -62 -66t-17 -53q0 -21 20 -35.5t49 -14.5h84v-42q-23 -5 -55 -8.5t-59 -3.5q-53 0 -85.5 26t-32.5 66q0 31 19 64.5t68 66.5h-19v628h118z" />
    <glyph glyph-name="Itilde" unicode="&#x128;" horiz-adv-x="278" 
d="M274 806l28 -42q-22 -29 -44 -41t-53 -12q-23 0 -39 4.5t-30 10.5t-30.5 10.5t-35.5 4.5q-21 0 -35.5 -6.5t-30.5 -22.5l-28 42q25 31 47 43t53 12q21 0 40 -6t35 -13q12 -5 25.5 -8t32.5 -3q22 0 36.5 6t28.5 21zM198 628v-628h-118v628h118z" />
    <glyph glyph-name="J" unicode="J" horiz-adv-x="289" 
d="M92 628h117v-651q0 -81 -53 -121.5t-157 -41.5q-11 0 -22.5 1.5t-21.5 5.5l7 60q8 -1 17.5 -2.5t17.5 -1.5q49 0 72 19.5t23 64.5v667z" />
    <glyph glyph-name="Jcircumflex" unicode="&#x134;" horiz-adv-x="289" 
d="M298 711h-82l-64 61l-64 -61h-83l89 109h116zM92 628h117v-651q0 -81 -53 -121.5t-157 -41.5q-11 0 -22.5 1.5t-21.5 5.5l7 60q8 -1 17.5 -2.5t17.5 -1.5q49 0 72 19.5t23 64.5v667z" />
    <glyph glyph-name="K" unicode="K" horiz-adv-x="624" 
d="M635 0h-150l-266 306h-21v-306h-118v628h118v-260h22l227 260h135l-262 -289z" />
    <glyph glyph-name="uni0136" unicode="&#x136;" horiz-adv-x="624" 
d="M635 0h-150l-266 306h-21v-306h-118v628h118v-260h22l227 260h135l-262 -289zM328 -258h-74l23 190h119z" />
    <glyph glyph-name="L" unicode="L" horiz-adv-x="534" 
d="M198 62h315v-62h-433v628h118v-566z" />
    <glyph glyph-name="Lacute" unicode="&#x139;" horiz-adv-x="534" 
d="M186 703h-83l86 109h116zM198 62h315v-62h-433v628h118v-566z" />
    <glyph glyph-name="Lcaron" unicode="&#x13d;" horiz-adv-x="538" 
d="M408 438h-74l23 190h119zM198 62h315v-62h-433v628h118v-566z" />
    <glyph glyph-name="uni013B" unicode="&#x13b;" horiz-adv-x="534" 
d="M198 62h315v-62h-433v628h118v-566zM289 -258h-74l23 190h119z" />
    <glyph glyph-name="Lslash" unicode="&#x141;" horiz-adv-x="563" 
d="M37 221v74l72 40v293h118v-243l99 57v-75l-99 -56v-249h315v-62h-433v261z" />
    <glyph glyph-name="M" unicode="M" horiz-adv-x="824" 
d="M565 628h144l66 -628h-122l-50 533l-161 -533h-102l-153 530l-43 -530h-93l63 628h150l148 -492z" />
    <glyph glyph-name="uni1E40" unicode="&#x1e40;" horiz-adv-x="824" 
d="M353 711v102h123v-102h-123zM565 628h144l66 -628h-122l-50 533l-161 -533h-102l-153 530l-43 -530h-93l63 628h150l148 -492z" />
    <glyph glyph-name="N" unicode="N" horiz-adv-x="708" 
d="M550 628h78v-628h-151l-320 523v-523h-77v628h147l323 -524v524z" />
    <glyph glyph-name="Nacute" unicode="&#x143;" horiz-adv-x="708" 
d="M401 703h-83l86 109h116zM550 628h78v-628h-151l-320 523v-523h-77v628h147l323 -524v524z" />
    <glyph glyph-name="Ncaron" unicode="&#x147;" horiz-adv-x="708" 
d="M509 820l-88 -109h-116l-88 109h82l64 -62l64 62h82zM550 628h78v-628h-151l-320 523v-523h-77v628h147l323 -524v524z" />
    <glyph glyph-name="uni0145" unicode="&#x145;" horiz-adv-x="708" 
d="M550 628h78v-628h-151l-320 523v-523h-77v628h147l323 -524v524zM353 -258h-74l23 190h119z" />
    <glyph glyph-name="uni1E44" unicode="&#x1e44;" horiz-adv-x="708" 
d="M304 711v102h123v-102h-123zM550 628h78v-628h-151l-320 523v-523h-77v628h147l323 -524v524z" />
    <glyph glyph-name="Eng" unicode="&#x14a;" horiz-adv-x="708" 
d="M550 628h78v-706q0 -72 -29.5 -108.5t-88.5 -36.5q-17 0 -36 4t-28 10l8 55l17.5 -2.5t23.5 -1.5q34 0 44.5 18.5t10.5 55.5v84h-73l-320 523v-523h-77v628h147l323 -524v524z" />
    <glyph glyph-name="uni019D" unicode="&#x19d;" horiz-adv-x="708" 
d="M158 446v-524q0 -72 -29.5 -108.5t-88.5 -36.5q-17 0 -35.5 4t-28.5 10l8 55l17.5 -2.5t23.5 -1.5q31 0 43 18.5t12 55.5v712h147l323 -524v524h78v-628h-151l-320 523v-77h1z" />
    <glyph glyph-name="Ntilde" unicode="&#xd1;" horiz-adv-x="708" 
d="M496 806l28 -42q-22 -29 -44 -41t-53 -12q-23 0 -39 4.5t-30 10.5t-30.5 10.5t-35.5 4.5q-21 0 -35.5 -6.5t-30.5 -22.5l-28 42q25 31 47 43t53 12q21 0 40 -6t35 -13q12 -5 25.5 -8t32.5 -3q22 0 36.5 6t28.5 21zM550 628h78v-628h-151l-320 523v-523h-77v628h147
l323 -524v524z" />
    <glyph glyph-name="O" unicode="O" horiz-adv-x="732" 
d="M366 642q154 0 237.5 -85.5t83.5 -243.5q0 -157 -83.5 -242t-237.5 -85t-237.5 85t-83.5 242q0 158 83.5 243.5t237.5 85.5zM366 49q96 0 143.5 65t47.5 199q0 136 -47.5 201t-143.5 65t-143 -65t-47 -201q0 -134 47 -199t143 -65z" />
    <glyph glyph-name="Oacute" unicode="&#xd3;" horiz-adv-x="732" 
d="M393 703h-83l86 109h116zM366 642q154 0 237.5 -85.5t83.5 -243.5q0 -157 -83.5 -242t-237.5 -85t-237.5 85t-83.5 242q0 158 83.5 243.5t237.5 85.5zM366 49q96 0 143.5 65t47.5 199q0 136 -47.5 201t-143.5 65t-143 -65t-47 -201q0 -134 47 -199t143 -65z" />
    <glyph glyph-name="Obreve" unicode="&#x14e;" horiz-adv-x="732" 
d="M509 831q-6 -54 -41 -89.5t-101 -35.5t-102.5 34.5t-40.5 90.5h60q5 -31 27.5 -48t54.5 -17q33 0 55.5 17t28.5 48h59zM366 642q154 0 237.5 -85.5t83.5 -243.5q0 -157 -83.5 -242t-237.5 -85t-237.5 85t-83.5 242q0 158 83.5 243.5t237.5 85.5zM366 49q96 0 143.5 65
t47.5 199q0 136 -47.5 201t-143.5 65t-143 -65t-47 -201q0 -134 47 -199t143 -65z" />
    <glyph glyph-name="uni01D1" unicode="&#x1d1;" horiz-adv-x="732" 
d="M512 820l-88 -109h-116l-88 109h82l64 -62l64 62h82zM366 642q154 0 237.5 -85.5t83.5 -243.5q0 -157 -83.5 -242t-237.5 -85t-237.5 85t-83.5 242q0 158 83.5 243.5t237.5 85.5zM366 49q96 0 143.5 65t47.5 199q0 136 -47.5 201t-143.5 65t-143 -65t-47 -201
q0 -134 47 -199t143 -65z" />
    <glyph glyph-name="Ocircumflex" unicode="&#xd4;" horiz-adv-x="732" 
d="M513 711h-82l-64 61l-64 -61h-83l89 109h116zM366 642q154 0 237.5 -85.5t83.5 -243.5q0 -157 -83.5 -242t-237.5 -85t-237.5 85t-83.5 242q0 158 83.5 243.5t237.5 85.5zM366 49q96 0 143.5 65t47.5 199q0 136 -47.5 201t-143.5 65t-143 -65t-47 -201q0 -134 47 -199
t143 -65z" />
    <glyph glyph-name="Odieresis" unicode="&#xd6;" horiz-adv-x="732" 
d="M325 813v-102h-94v102h94zM501 813v-102h-95v102h95zM366 642q154 0 237.5 -85.5t83.5 -243.5q0 -157 -83.5 -242t-237.5 -85t-237.5 85t-83.5 242q0 158 83.5 243.5t237.5 85.5zM366 49q96 0 143.5 65t47.5 199q0 136 -47.5 201t-143.5 65t-143 -65t-47 -201
q0 -134 47 -199t143 -65z" />
    <glyph glyph-name="uni1ECC" unicode="&#x1ecc;" horiz-adv-x="732" 
d="M366 642q154 0 237.5 -85.5t83.5 -243.5q0 -157 -83.5 -242t-237.5 -85t-237.5 85t-83.5 242q0 158 83.5 243.5t237.5 85.5zM366 49q96 0 143.5 65t47.5 199q0 136 -47.5 201t-143.5 65t-143 -65t-47 -201q0 -134 47 -199t143 -65zM421 -160h-110v92h110v-92z" />
    <glyph glyph-name="Ograve" unicode="&#xd2;" horiz-adv-x="732" 
d="M329 711l-119 109h116l86 -109h-83zM366 642q154 0 237.5 -85.5t83.5 -243.5q0 -157 -83.5 -242t-237.5 -85t-237.5 85t-83.5 242q0 158 83.5 243.5t237.5 85.5zM366 49q96 0 143.5 65t47.5 199q0 136 -47.5 201t-143.5 65t-143 -65t-47 -201q0 -134 47 -199t143 -65z
" />
    <glyph glyph-name="Ohungarumlaut" unicode="&#x150;" horiz-adv-x="732" 
d="M321 711h-82l78 109h116zM482 711h-82l78 109h116zM366 642q154 0 237.5 -85.5t83.5 -243.5q0 -157 -83.5 -242t-237.5 -85t-237.5 85t-83.5 242q0 158 83.5 243.5t237.5 85.5zM366 49q96 0 143.5 65t47.5 199q0 136 -47.5 201t-143.5 65t-143 -65t-47 -201
q0 -134 47 -199t143 -65z" />
    <glyph glyph-name="Omacron" unicode="&#x14c;" horiz-adv-x="732" 
d="M222 711v77h288v-77h-288zM366 642q154 0 237.5 -85.5t83.5 -243.5q0 -157 -83.5 -242t-237.5 -85t-237.5 85t-83.5 242q0 158 83.5 243.5t237.5 85.5zM366 49q96 0 143.5 65t47.5 199q0 136 -47.5 201t-143.5 65t-143 -65t-47 -201q0 -134 47 -199t143 -65z" />
    <glyph glyph-name="uni01EA" unicode="&#x1ea;" horiz-adv-x="732" 
d="M366 642q154 0 237.5 -85.5t83.5 -243.5q0 -125 -53.5 -205t-154.5 -108q-45 -40 -62 -66t-17 -53q0 -21 20 -35.5t49 -14.5h84v-42q-23 -5 -55 -8.5t-59 -3.5q-53 0 -85.5 26t-32.5 66q0 28 15 57.5t53 60.5q-5 -1 -11 -1h-12q-154 0 -237.5 85t-83.5 242
q0 158 83.5 243.5t237.5 85.5zM366 49q96 0 143.5 65t47.5 199q0 136 -47.5 201t-143.5 65t-143 -65t-47 -201q0 -134 47 -199t143 -65z" />
    <glyph glyph-name="Oslash" unicode="&#xd8;" horiz-adv-x="741" 
d="M370 642q66 0 118.5 -15.5t92.5 -45.5l44 47h77l-80 -86q34 -42 51.5 -99.5t17.5 -129.5q0 -157 -83.5 -242t-237.5 -85q-63 0 -115.5 15t-92.5 44l-41 -45h-80l79 85q-35 40 -53 98t-18 130q0 158 83.5 243.5t237.5 85.5zM180 313q0 -43 4.5 -79t14.5 -64l317 341
q-23 34 -60 51t-86 17q-96 0 -143 -65t-47 -201zM370 49q96 0 143.5 65t47.5 199q0 43 -4.5 78.5t-13.5 64.5l-316 -342q23 -33 59 -49t84 -16z" />
    <glyph glyph-name="Oslashacute" unicode="&#x1fe;" horiz-adv-x="741" 
d="M411 711h-83l86 109h116zM370 642q66 0 118.5 -15.5t92.5 -45.5l44 47h77l-80 -86q34 -42 51.5 -99.5t17.5 -129.5q0 -157 -83.5 -242t-237.5 -85q-63 0 -115.5 15t-92.5 44l-41 -45h-80l79 85q-35 40 -53 98t-18 130q0 158 83.5 243.5t237.5 85.5zM180 313
q0 -43 4.5 -79t14.5 -64l317 341q-23 34 -60 51t-86 17q-96 0 -143 -65t-47 -201zM370 49q96 0 143.5 65t47.5 199q0 43 -4.5 78.5t-13.5 64.5l-316 -342q23 -33 59 -49t84 -16z" />
    <glyph glyph-name="Otilde" unicode="&#xd5;" horiz-adv-x="732" 
d="M501 806l28 -42q-22 -29 -44 -41t-53 -12q-23 0 -39 4.5t-30 10.5t-30.5 10.5t-35.5 4.5q-21 0 -35.5 -6.5t-30.5 -22.5l-28 42q25 31 47 43t53 12q21 0 40 -6t35 -13q12 -5 25.5 -8t32.5 -3q22 0 36.5 6t28.5 21zM366 642q154 0 237.5 -85.5t83.5 -243.5
q0 -157 -83.5 -242t-237.5 -85t-237.5 85t-83.5 242q0 158 83.5 243.5t237.5 85.5zM366 49q96 0 143.5 65t47.5 199q0 136 -47.5 201t-143.5 65t-143 -65t-47 -201q0 -134 47 -199t143 -65z" />
    <glyph glyph-name="OE" unicode="&#x152;" horiz-adv-x="935" 
d="M890 628v-62h-315v-209h278v-63h-278v-232h315v-62h-412q-26 -7 -54.5 -11t-57.5 -4q-157 0 -239 84t-82 244t82 244.5t239 84.5q28 0 56 -3.5t54 -10.5h414zM176 313q0 -130 48.5 -197t141.5 -67q26 0 49 5.5t42 16.5v487q-19 10 -42 15.5t-49 5.5q-93 0 -141.5 -67.5
t-48.5 -198.5z" />
    <glyph glyph-name="P" unicode="P" horiz-adv-x="629" 
d="M600 456q0 -100 -87.5 -147.5t-276.5 -47.5h-38v-261h-118v628h265q125 0 190 -44t65 -128zM479 458q0 52 -37.5 80t-108.5 28h-135v-244q151 0 216 32t65 104z" />
    <glyph glyph-name="uni1E56" unicode="&#x1e56;" horiz-adv-x="629" 
d="M266 711v102h123v-102h-123zM600 456q0 -100 -87.5 -147.5t-276.5 -47.5h-38v-261h-118v628h265q125 0 190 -44t65 -128zM479 458q0 52 -37.5 80t-108.5 28h-135v-244q151 0 216 32t65 104z" />
    <glyph glyph-name="Thorn" unicode="&#xde;" horiz-adv-x="637" 
d="M201 628v-122h149q54 0 100 -11t79 -33t52 -55.5t19 -77.5q0 -56 -25.5 -92.5t-75 -57.5t-124.5 -30t-174 -11v-138h-121v628h121zM333 444h-132v-243q142 4 210 27.5t68 98.5q0 59 -40.5 88t-105.5 29z" />
    <glyph glyph-name="Q" unicode="Q" horiz-adv-x="730" 
d="M685 311q0 -128 -57.5 -209t-165.5 -105q9 -32 37.5 -50.5t73.5 -18.5h8t7 1l-9 -68q-1 -1 -7 -1h-9q-79 0 -134 33.5t-77 92.5q-149 4 -228 88t-79 237q0 159 83 244t237 85t237 -85t83 -244zM174 311q0 -134 47 -198.5t144 -64.5q96 0 143 64.5t47 198.5q0 137 -47 202
t-143 65q-97 0 -144 -65t-47 -202z" />
    <glyph glyph-name="R" unicode="R" horiz-adv-x="647" 
d="M597 467q0 -61 -37 -104t-109 -63l175 -300h-140l-151 279q-35 -4 -68.5 -5.5t-68.5 -1.5v-272h-118v628h261q124 0 190 -41.5t66 -119.5zM476 470q0 47 -37.5 71.5t-108.5 24.5h-132v-232h15q131 0 197 35t66 101z" />
    <glyph glyph-name="Racute" unicode="&#x154;" horiz-adv-x="647" 
d="M354 711h-83l86 109h116zM597 467q0 -61 -37 -104t-109 -63l175 -300h-140l-151 279q-35 -4 -68.5 -5.5t-68.5 -1.5v-272h-118v628h261q124 0 190 -41.5t66 -119.5zM476 470q0 47 -37.5 71.5t-108.5 24.5h-132v-232h15q131 0 197 35t66 101z" />
    <glyph glyph-name="Rcaron" unicode="&#x158;" horiz-adv-x="647" 
d="M475 820l-88 -109h-116l-88 109h82l64 -62l64 62h82zM597 467q0 -61 -37 -104t-109 -63l175 -300h-140l-151 279q-35 -4 -68.5 -5.5t-68.5 -1.5v-272h-118v628h261q124 0 190 -41.5t66 -119.5zM476 470q0 47 -37.5 71.5t-108.5 24.5h-132v-232h15q131 0 197 35t66 101z
" />
    <glyph glyph-name="uni0156" unicode="&#x156;" horiz-adv-x="647" 
d="M597 467q0 -61 -37 -104t-109 -63l175 -300h-140l-151 279q-35 -4 -68.5 -5.5t-68.5 -1.5v-272h-118v628h261q124 0 190 -41.5t66 -119.5zM476 470q0 47 -37.5 71.5t-108.5 24.5h-132v-232h15q131 0 197 35t66 101zM324 -258h-74l23 190h119z" />
    <glyph glyph-name="uni1E5A" unicode="&#x1e5a;" horiz-adv-x="647" 
d="M597 467q0 -61 -37 -104t-109 -63l175 -300h-140l-151 279q-35 -4 -68.5 -5.5t-68.5 -1.5v-272h-118v628h261q124 0 190 -41.5t66 -119.5zM476 470q0 47 -37.5 71.5t-108.5 24.5h-132v-232h15q131 0 197 35t66 101zM386 -160h-110v92h110v-92z" />
    <glyph glyph-name="S" unicode="S" horiz-adv-x="575" 
d="M303 383q131 -30 187.5 -74.5t56.5 -120.5q0 -93 -76 -147.5t-205 -54.5q-57 0 -111 13.5t-105 36.5l17 55q51 -22 99 -32t88 -10q81 0 128 31t47 83q0 38 -36.5 63.5t-124.5 44.5q-69 15 -114 34t-71 41.5t-36 50t-10 58.5q0 84 73 135.5t193 51.5q45 0 94 -11.5
t95 -34.5l-20 -56q-39 18 -81.5 29t-84.5 11q-72 0 -115 -27.5t-43 -71.5q0 -37 34 -58t121 -40z" />
    <glyph glyph-name="Sacute" unicode="&#x15a;" horiz-adv-x="575" 
d="M316 711h-83l86 109h116zM303 383q131 -30 187.5 -74.5t56.5 -120.5q0 -93 -76 -147.5t-205 -54.5q-57 0 -111 13.5t-105 36.5l17 55q51 -22 99 -32t88 -10q81 0 128 31t47 83q0 38 -36.5 63.5t-124.5 44.5q-69 15 -114 34t-71 41.5t-36 50t-10 58.5q0 84 73 135.5
t193 51.5q45 0 94 -11.5t95 -34.5l-20 -56q-39 18 -81.5 29t-84.5 11q-72 0 -115 -27.5t-43 -71.5q0 -37 34 -58t121 -40z" />
    <glyph glyph-name="Scaron" unicode="&#x160;" horiz-adv-x="575" 
d="M435 820l-88 -109h-116l-88 109h82l64 -62l64 62h82zM303 383q131 -30 187.5 -74.5t56.5 -120.5q0 -93 -76 -147.5t-205 -54.5q-57 0 -111 13.5t-105 36.5l17 55q51 -22 99 -32t88 -10q81 0 128 31t47 83q0 38 -36.5 63.5t-124.5 44.5q-69 15 -114 34t-71 41.5t-36 50
t-10 58.5q0 84 73 135.5t193 51.5q45 0 94 -11.5t95 -34.5l-20 -56q-39 18 -81.5 29t-84.5 11q-72 0 -115 -27.5t-43 -71.5q0 -37 34 -58t121 -40z" />
    <glyph glyph-name="Scedilla" unicode="&#x15e;" horiz-adv-x="575" 
d="M303 383q131 -30 187.5 -74.5t56.5 -120.5q0 -93 -76 -147.5t-205 -54.5q-57 0 -111 13.5t-105 36.5l17 55q51 -22 99 -32t88 -10q81 0 128 31t47 83q0 38 -36.5 63.5t-124.5 44.5q-69 15 -114 34t-71 41.5t-36 50t-10 58.5q0 84 73 135.5t193 51.5q45 0 94 -11.5
t95 -34.5l-20 -56q-39 18 -81.5 29t-84.5 11q-72 0 -115 -27.5t-43 -71.5q0 -37 34 -58t121 -40zM209 -170l8 42q14 -4 25.5 -6t20.5 -2q23 0 33 8t10 21t-10 21.5t-34 8.5q-9 0 -20.5 -2.5t-24.5 -6.5l-8 41q18 4 34.5 6.5t32.5 2.5q54 0 81 -18.5t27 -52.5
q0 -35 -27.5 -53.5t-81.5 -18.5q-13 0 -30 2.5t-36 6.5z" />
    <glyph glyph-name="Scircumflex" unicode="&#x15c;" horiz-adv-x="575" 
d="M432 712h-82l-64 61l-64 -61h-83l89 109h116zM303 383q131 -30 187.5 -74.5t56.5 -120.5q0 -93 -76 -147.5t-205 -54.5q-57 0 -111 13.5t-105 36.5l17 55q51 -22 99 -32t88 -10q81 0 128 31t47 83q0 38 -36.5 63.5t-124.5 44.5q-69 15 -114 34t-71 41.5t-36 50t-10 58.5
q0 84 73 135.5t193 51.5q45 0 94 -11.5t95 -34.5l-20 -56q-39 18 -81.5 29t-84.5 11q-72 0 -115 -27.5t-43 -71.5q0 -37 34 -58t121 -40z" />
    <glyph glyph-name="uni0218" unicode="&#x218;" horiz-adv-x="575" 
d="M303 383q131 -30 187.5 -74.5t56.5 -120.5q0 -93 -76 -147.5t-205 -54.5q-57 0 -111 13.5t-105 36.5l17 55q51 -22 99 -32t88 -10q81 0 128 31t47 83q0 38 -36.5 63.5t-124.5 44.5q-69 15 -114 34t-71 41.5t-36 50t-10 58.5q0 84 73 135.5t193 51.5q45 0 94 -11.5
t95 -34.5l-20 -56q-39 18 -81.5 29t-84.5 11q-72 0 -115 -27.5t-43 -71.5q0 -37 34 -58t121 -40zM289 -258h-74l23 190h119z" />
    <glyph glyph-name="uni1E60" unicode="&#x1e60;" horiz-adv-x="575" 
d="M218 711v102h123v-102h-123zM303 383q131 -30 187.5 -74.5t56.5 -120.5q0 -93 -76 -147.5t-205 -54.5q-57 0 -111 13.5t-105 36.5l17 55q51 -22 99 -32t88 -10q81 0 128 31t47 83q0 38 -36.5 63.5t-124.5 44.5q-69 15 -114 34t-71 41.5t-36 50t-10 58.5q0 84 73 135.5
t193 51.5q45 0 94 -11.5t95 -34.5l-20 -56q-39 18 -81.5 29t-84.5 11q-72 0 -115 -27.5t-43 -71.5q0 -37 34 -58t121 -40z" />
    <glyph glyph-name="uni1E62" unicode="&#x1e62;" horiz-adv-x="575" 
d="M303 383q131 -30 187.5 -74.5t56.5 -120.5q0 -93 -76 -147.5t-205 -54.5q-57 0 -111 13.5t-105 36.5l17 55q51 -22 99 -32t88 -10q81 0 128 31t47 83q0 38 -36.5 63.5t-124.5 44.5q-69 15 -114 34t-71 41.5t-36 50t-10 58.5q0 84 73 135.5t193 51.5q45 0 94 -11.5
t95 -34.5l-20 -56q-39 18 -81.5 29t-84.5 11q-72 0 -115 -27.5t-43 -71.5q0 -37 34 -58t121 -40zM349 -160h-110v92h110v-92z" />
    <glyph glyph-name="uni1E9E" unicode="&#x1e9e;" horiz-adv-x="661" 
d="M433 350q89 -9 140 -55.5t51 -118.5q0 -92 -72 -141t-206 -49q-19 0 -37.5 1t-34.5 4v61q14 -2 29.5 -3t27.5 -1q87 0 127 33.5t40 102.5q0 54 -43.5 89t-115.5 35h-32t-33 -1v62q98 10 130 40t32 72t-34.5 67.5t-91.5 25.5q-55 0 -89 -23t-34 -60v-491h-112v472
q0 78 62 123t167 45q113 0 180 -41.5t67 -110.5q0 -50 -30 -86t-88 -52z" />
    <glyph glyph-name="uni018F" unicode="&#x18f;" horiz-adv-x="729" 
d="M181 411h-129q23 113 103 172t208 59q157 0 239 -84.5t82 -246.5q0 -154 -84.5 -239.5t-236.5 -85.5t-236.5 85.5t-84.5 240.5h511q-1 136 -47.5 201.5t-142.5 65.5q-75 0 -120.5 -41.5t-61.5 -126.5zM363 49q82 0 129.5 50t57.5 150h-374q10 -99 57.5 -149.5
t129.5 -50.5z" />
    <glyph glyph-name="T" unicode="T" horiz-adv-x="571" 
d="M552 628v-62h-208v-566h-118v566h-207v62h533z" />
    <glyph glyph-name="Tbar" unicode="&#x166;" horiz-adv-x="578" 
d="M108 356v58h122v152h-207v62h533v-62h-208v-152h122v-58h-122v-356h-118v356h-122z" />
    <glyph glyph-name="Tcaron" unicode="&#x164;" horiz-adv-x="571" 
d="M432 820l-88 -109h-116l-88 109h82l64 -62l64 62h82zM552 628v-62h-208v-566h-118v566h-207v62h533z" />
    <glyph glyph-name="uni0162" unicode="&#x162;" horiz-adv-x="571" 
d="M552 628v-62h-208v-566h-118v566h-207v62h533zM204 -170l8 42q14 -4 25.5 -6t20.5 -2q23 0 33 8t10 21t-10 21.5t-34 8.5q-9 0 -20.5 -2.5t-24.5 -6.5l-8 41q18 4 34.5 6.5t32.5 2.5q54 0 81 -18.5t27 -52.5q0 -35 -27.5 -53.5t-81.5 -18.5q-13 0 -30 2.5t-36 6.5z" />
    <glyph glyph-name="uni021A" unicode="&#x21a;" horiz-adv-x="571" 
d="M552 628v-62h-208v-566h-118v566h-207v62h533zM277 -258h-74l23 190h119z" />
    <glyph glyph-name="uni1E6A" unicode="&#x1e6a;" horiz-adv-x="571" 
d="M223 711v102h123v-102h-123zM552 628v-62h-208v-566h-118v566h-207v62h533z" />
    <glyph glyph-name="uni1E6C" unicode="&#x1e6c;" horiz-adv-x="571" 
d="M552 628v-62h-208v-566h-118v566h-207v62h533zM340 -160h-110v92h110v-92z" />
    <glyph glyph-name="U" unicode="U" horiz-adv-x="694" 
d="M502 628h118v-432q0 -98 -73 -154.5t-200 -56.5t-200 56.5t-73 154.5v432h118v-451q0 -66 38.5 -97.5t116.5 -31.5t116.5 31.5t38.5 97.5v451z" />
    <glyph glyph-name="Uacute" unicode="&#xda;" horiz-adv-x="694" 
d="M381 711h-83l86 109h116zM502 628h118v-432q0 -98 -73 -154.5t-200 -56.5t-200 56.5t-73 154.5v432h118v-451q0 -66 38.5 -97.5t116.5 -31.5t116.5 31.5t38.5 97.5v451z" />
    <glyph glyph-name="Ubreve" unicode="&#x16c;" horiz-adv-x="694" 
d="M490 831q-6 -54 -41 -89.5t-101 -35.5t-102.5 34.5t-40.5 90.5h60q5 -31 27.5 -48t54.5 -17q33 0 55.5 17t28.5 48h59zM502 628h118v-432q0 -98 -73 -154.5t-200 -56.5t-200 56.5t-73 154.5v432h118v-451q0 -66 38.5 -97.5t116.5 -31.5t116.5 31.5t38.5 97.5v451z" />
    <glyph glyph-name="uni01D3" unicode="&#x1d3;" horiz-adv-x="694" 
d="M494 820l-88 -109h-116l-88 109h82l64 -62l64 62h82zM502 628h118v-432q0 -98 -73 -154.5t-200 -56.5t-200 56.5t-73 154.5v432h118v-451q0 -66 38.5 -97.5t116.5 -31.5t116.5 31.5t38.5 97.5v451z" />
    <glyph glyph-name="Ucircumflex" unicode="&#xdb;" horiz-adv-x="694" 
d="M494 711h-82l-64 61l-64 -61h-83l89 109h116zM502 628h118v-432q0 -98 -73 -154.5t-200 -56.5t-200 56.5t-73 154.5v432h118v-451q0 -66 38.5 -97.5t116.5 -31.5t116.5 31.5t38.5 97.5v451z" />
    <glyph glyph-name="Udieresis" unicode="&#xdc;" horiz-adv-x="694" 
d="M306 813v-102h-94v102h94zM482 813v-102h-95v102h95zM502 628h118v-432q0 -98 -73 -154.5t-200 -56.5t-200 56.5t-73 154.5v432h118v-451q0 -66 38.5 -97.5t116.5 -31.5t116.5 31.5t38.5 97.5v451z" />
    <glyph glyph-name="uni01D7" unicode="&#x1d7;" horiz-adv-x="694" 
d="M383 862h-83l86 109h116zM306 813v-102h-94v102h94zM482 813v-102h-95v102h95zM502 628h118v-432q0 -98 -73 -154.5t-200 -56.5t-200 56.5t-73 154.5v432h118v-451q0 -66 38.5 -97.5t116.5 -31.5t116.5 31.5t38.5 97.5v451z" />
    <glyph glyph-name="uni01D9" unicode="&#x1d9;" horiz-adv-x="694" 
d="M494 962l-88 -109h-116l-88 109h82l64 -62l64 62h82zM306 813v-102h-94v102h94zM482 813v-102h-95v102h95zM502 628h118v-432q0 -98 -73 -154.5t-200 -56.5t-200 56.5t-73 154.5v432h118v-451q0 -66 38.5 -97.5t116.5 -31.5t116.5 31.5t38.5 97.5v451z" />
    <glyph glyph-name="uni01DB" unicode="&#x1db;" horiz-adv-x="694" 
d="M316 866l-119 109h116l86 -109h-83zM306 813v-102h-94v102h94zM482 813v-102h-95v102h95zM502 628h118v-432q0 -98 -73 -154.5t-200 -56.5t-200 56.5t-73 154.5v432h118v-451q0 -66 38.5 -97.5t116.5 -31.5t116.5 31.5t38.5 97.5v451z" />
    <glyph glyph-name="uni01D5" unicode="&#x1d5;" horiz-adv-x="694" 
d="M203 864v77h288v-77h-288zM306 813v-102h-94v102h94zM482 813v-102h-95v102h95zM502 628h118v-432q0 -98 -73 -154.5t-200 -56.5t-200 56.5t-73 154.5v432h118v-451q0 -66 38.5 -97.5t116.5 -31.5t116.5 31.5t38.5 97.5v451z" />
    <glyph glyph-name="uni1EE4" unicode="&#x1ee4;" horiz-adv-x="694" 
d="M502 628h118v-432q0 -98 -73 -154.5t-200 -56.5t-200 56.5t-73 154.5v432h118v-451q0 -66 38.5 -97.5t116.5 -31.5t116.5 31.5t38.5 97.5v451zM402 -160h-110v92h110v-92z" />
    <glyph glyph-name="Ugrave" unicode="&#xd9;" horiz-adv-x="694" 
d="M325 711l-119 109h116l86 -109h-83zM502 628h118v-432q0 -98 -73 -154.5t-200 -56.5t-200 56.5t-73 154.5v432h118v-451q0 -66 38.5 -97.5t116.5 -31.5t116.5 31.5t38.5 97.5v451z" />
    <glyph glyph-name="Uhungarumlaut" unicode="&#x170;" horiz-adv-x="694" 
d="M298 711h-82l78 109h116zM459 711h-82l78 109h116zM502 628h118v-432q0 -98 -73 -154.5t-200 -56.5t-200 56.5t-73 154.5v432h118v-451q0 -66 38.5 -97.5t116.5 -31.5t116.5 31.5t38.5 97.5v451z" />
    <glyph glyph-name="Umacron" unicode="&#x16a;" horiz-adv-x="694" 
d="M203 711v77h288v-77h-288zM502 628h118v-432q0 -98 -73 -154.5t-200 -56.5t-200 56.5t-73 154.5v432h118v-451q0 -66 38.5 -97.5t116.5 -31.5t116.5 31.5t38.5 97.5v451z" />
    <glyph glyph-name="Uogonek" unicode="&#x172;" horiz-adv-x="694" 
d="M502 628h118v-432q0 -72 -39.5 -122t-111.5 -72q-46 -40 -63.5 -66.5t-17.5 -54.5q0 -21 20 -35.5t49 -14.5h84v-42q-23 -5 -55 -8.5t-59 -3.5q-53 0 -85.5 26t-32.5 66q0 28 15 57.5t52 59.5q-7 -1 -14.5 -1h-14.5q-127 0 -200 56.5t-73 154.5v432h118v-451
q0 -66 38.5 -97.5t116.5 -31.5t116.5 31.5t38.5 97.5v451z" />
    <glyph glyph-name="Uring" unicode="&#x16e;" horiz-adv-x="694" 
d="M233 774q0 35 28.5 52t85.5 17q54 0 84 -17.5t30 -51.5q0 -36 -28.5 -52.5t-85.5 -16.5q-54 0 -84 16t-30 53zM389 774q0 21 -8 32.5t-34 11.5q-25 0 -33.5 -11t-8.5 -33q0 -21 8 -32.5t34 -11.5q25 0 33.5 11.5t8.5 32.5zM502 628h118v-432q0 -98 -73 -154.5t-200 -56.5
t-200 56.5t-73 154.5v432h118v-451q0 -66 38.5 -97.5t116.5 -31.5t116.5 31.5t38.5 97.5v451z" />
    <glyph glyph-name="Utilde" unicode="&#x168;" horiz-adv-x="694" 
d="M482 806l28 -42q-22 -29 -44 -41t-53 -12q-23 0 -39 4.5t-30 10.5t-30.5 10.5t-35.5 4.5q-21 0 -35.5 -6.5t-30.5 -22.5l-28 42q25 31 47 43t53 12q21 0 40 -6t35 -13q12 -5 25.5 -8t32.5 -3q22 0 36.5 6t28.5 21zM502 628h118v-432q0 -98 -73 -154.5t-200 -56.5
t-200 56.5t-73 154.5v432h118v-451q0 -66 38.5 -97.5t116.5 -31.5t116.5 31.5t38.5 97.5v451z" />
    <glyph glyph-name="V" unicode="V" horiz-adv-x="589" 
d="M364 0h-139l-202 628h134l159 -527l165 527h84z" />
    <glyph glyph-name="W" unicode="W" horiz-adv-x="870" 
d="M754 628h86l-147 -628h-136l-118 466l-119 -466h-141l-152 628h131l115 -506l125 506h117l126 -505z" />
    <glyph glyph-name="Wacute" unicode="&#x1e82;" horiz-adv-x="870" 
d="M492 711h-83l86 109h116zM754 628h86l-147 -628h-136l-118 466l-119 -466h-141l-152 628h131l115 -506l125 506h117l126 -505z" />
    <glyph glyph-name="Wcircumflex" unicode="&#x174;" horiz-adv-x="870" 
d="M595 711h-82l-64 61l-64 -61h-83l89 109h116zM754 628h86l-147 -628h-136l-118 466l-119 -466h-141l-152 628h131l115 -506l125 506h117l126 -505z" />
    <glyph glyph-name="Wdieresis" unicode="&#x1e84;" horiz-adv-x="870" 
d="M414 813v-102h-94v102h94zM590 813v-102h-95v102h95zM754 628h86l-147 -628h-136l-118 466l-119 -466h-141l-152 628h131l115 -506l125 506h117l126 -505z" />
    <glyph glyph-name="Wgrave" unicode="&#x1e80;" horiz-adv-x="870" 
d="M429 711l-119 109h116l86 -109h-83zM754 628h86l-147 -628h-136l-118 466l-119 -466h-141l-152 628h131l115 -506l125 506h117l126 -505z" />
    <glyph glyph-name="X" unicode="X" horiz-adv-x="593" 
d="M596 0h-146l-167 251l-182 -251h-105l241 317l-208 311h139l142 -218l153 218h100l-207 -283z" />
    <glyph glyph-name="Y" unicode="Y" horiz-adv-x="574" 
d="M547 628l-201 -339v-289h-117v283l-202 345h136l142 -264l143 264h99z" />
    <glyph glyph-name="Yacute" unicode="&#xdd;" horiz-adv-x="574" 
d="M344 711h-83l86 109h116zM547 628l-201 -339v-289h-117v283l-202 345h136l142 -264l143 264h99z" />
    <glyph glyph-name="Ycircumflex" unicode="&#x176;" horiz-adv-x="574" 
d="M446 711h-82l-64 61l-64 -61h-83l89 109h116zM547 628l-201 -339v-289h-117v283l-202 345h136l142 -264l143 264h99z" />
    <glyph glyph-name="Ydieresis" unicode="&#x178;" horiz-adv-x="574" 
d="M263 813v-102h-94v102h94zM439 813v-102h-95v102h95zM547 628l-201 -339v-289h-117v283l-202 345h136l142 -264l143 264h99z" />
    <glyph glyph-name="Ygrave" unicode="&#x1ef2;" horiz-adv-x="574" 
d="M274 711l-119 109h116l86 -109h-83zM547 628l-201 -339v-289h-117v283l-202 345h136l142 -264l143 264h99z" />
    <glyph glyph-name="uni0232" unicode="&#x232;" horiz-adv-x="574" 
d="M150 711v77h288v-77h-288zM547 628l-201 -339v-289h-117v283l-202 345h136l142 -264l143 264h99z" />
    <glyph glyph-name="uni1EF8" unicode="&#x1ef8;" horiz-adv-x="574" 
d="M426 806l28 -42q-22 -29 -44 -41t-53 -12q-23 0 -39 4.5t-30 10.5t-30.5 10.5t-35.5 4.5q-21 0 -35.5 -6.5t-30.5 -22.5l-28 42q25 31 47 43t53 12q21 0 40 -6t35 -13q12 -5 25.5 -8t32.5 -3q22 0 36.5 6t28.5 21zM547 628l-201 -339v-289h-117v283l-202 345h136
l142 -264l143 264h99z" />
    <glyph glyph-name="Z" unicode="Z" horiz-adv-x="576" 
d="M545 628v-77l-385 -489h380v-62h-519v74l397 492h-361v62h488z" />
    <glyph glyph-name="Zacute" unicode="&#x179;" horiz-adv-x="576" 
d="M326 711h-83l86 109h116zM545 628v-77l-385 -489h380v-62h-519v74l397 492h-361v62h488z" />
    <glyph glyph-name="Zcaron" unicode="&#x17d;" horiz-adv-x="576" 
d="M450 820l-88 -109h-116l-88 109h82l64 -62l64 62h82zM545 628v-77l-385 -489h380v-62h-519v74l397 492h-361v62h488z" />
    <glyph glyph-name="Zdotaccent" unicode="&#x17b;" horiz-adv-x="576" 
d="M228 711v102h123v-102h-123zM545 628v-77l-385 -489h380v-62h-519v74l397 492h-361v62h488z" />
    <glyph glyph-name="uni1E92" unicode="&#x1e92;" horiz-adv-x="576" 
d="M545 628v-77l-385 -489h380v-62h-519v74l397 492h-361v62h488zM340 -160h-110v92h110v-92z" />
    <glyph glyph-name="a" unicode="a" horiz-adv-x="523" 
d="M463 287v-261q-48 -19 -99 -29.5t-103 -10.5q-114 0 -173.5 37t-59.5 109q0 66 59.5 101t174.5 43q21 1 48.5 2t40.5 1v36q0 47 -30.5 64.5t-81.5 17.5q-34 0 -72 -5t-75 -15l-18 56q46 13 94.5 20t98.5 7q96 0 146 -41.5t50 -131.5zM351 58v169q-17 0 -40.5 -1.5
t-42.5 -2.5q-59 -4 -95 -24.5t-36 -69.5q0 -44 33 -65t84 -21q27 0 54 5t43 10z" />
    <glyph glyph-name="aacute" unicode="&#xe1;" horiz-adv-x="523" 
d="M299 531h-82l86 109h116zM463 287v-261q-48 -19 -99 -29.5t-103 -10.5q-114 0 -173.5 37t-59.5 109q0 66 59.5 101t174.5 43q21 1 48.5 2t40.5 1v36q0 47 -30.5 64.5t-81.5 17.5q-34 0 -72 -5t-75 -15l-18 56q46 13 94.5 20t98.5 7q96 0 146 -41.5t50 -131.5zM351 58v169
q-17 0 -40.5 -1.5t-42.5 -2.5q-59 -4 -95 -24.5t-36 -69.5q0 -44 33 -65t84 -21q27 0 54 5t43 10z" />
    <glyph glyph-name="abreve" unicode="&#x103;" horiz-adv-x="523" 
d="M413 650q-6 -56 -44 -89.5t-98 -33.5q-61 0 -100 32t-43 91h60q5 -33 29.5 -48t52.5 -15q31 0 54.5 15t29.5 48h59zM463 287v-261q-48 -19 -99 -29.5t-103 -10.5q-114 0 -173.5 37t-59.5 109q0 66 59.5 101t174.5 43q21 1 48.5 2t40.5 1v36q0 47 -30.5 64.5t-81.5 17.5
q-34 0 -72 -5t-75 -15l-18 56q46 13 94.5 20t98.5 7q96 0 146 -41.5t50 -131.5zM351 58v169q-17 0 -40.5 -1.5t-42.5 -2.5q-59 -4 -95 -24.5t-36 -69.5q0 -44 33 -65t84 -21q27 0 54 5t43 10z" />
    <glyph glyph-name="uni01CE" unicode="&#x1ce;" horiz-adv-x="523" 
d="M410 640l-89 -109h-117l-88 109h83l64 -61l64 61h83zM463 287v-261q-48 -19 -99 -29.5t-103 -10.5q-114 0 -173.5 37t-59.5 109q0 66 59.5 101t174.5 43q21 1 48.5 2t40.5 1v36q0 47 -30.5 64.5t-81.5 17.5q-34 0 -72 -5t-75 -15l-18 56q46 13 94.5 20t98.5 7
q96 0 146 -41.5t50 -131.5zM351 58v169q-17 0 -40.5 -1.5t-42.5 -2.5q-59 -4 -95 -24.5t-36 -69.5q0 -44 33 -65t84 -21q27 0 54 5t43 10z" />
    <glyph glyph-name="acircumflex" unicode="&#xe2;" horiz-adv-x="523" 
d="M411 531h-82l-65 62l-63 -62h-83l89 109h116zM463 287v-261q-48 -19 -99 -29.5t-103 -10.5q-114 0 -173.5 37t-59.5 109q0 66 59.5 101t174.5 43q21 1 48.5 2t40.5 1v36q0 47 -30.5 64.5t-81.5 17.5q-34 0 -72 -5t-75 -15l-18 56q46 13 94.5 20t98.5 7q96 0 146 -41.5
t50 -131.5zM351 58v169q-17 0 -40.5 -1.5t-42.5 -2.5q-59 -4 -95 -24.5t-36 -69.5q0 -44 33 -65t84 -21q27 0 54 5t43 10z" />
    <glyph glyph-name="adieresis" unicode="&#xe4;" horiz-adv-x="523" 
d="M234 628v-97h-87v97h87zM393 628v-97h-87v97h87zM463 287v-261q-48 -19 -99 -29.5t-103 -10.5q-114 0 -173.5 37t-59.5 109q0 66 59.5 101t174.5 43q21 1 48.5 2t40.5 1v36q0 47 -30.5 64.5t-81.5 17.5q-34 0 -72 -5t-75 -15l-18 56q46 13 94.5 20t98.5 7q96 0 146 -41.5
t50 -131.5zM351 58v169q-17 0 -40.5 -1.5t-42.5 -2.5q-59 -4 -95 -24.5t-36 -69.5q0 -44 33 -65t84 -21q27 0 54 5t43 10z" />
    <glyph glyph-name="uni1EA1" unicode="&#x1ea1;" horiz-adv-x="523" 
d="M463 287v-261q-48 -19 -99 -29.5t-103 -10.5q-114 0 -173.5 37t-59.5 109q0 66 59.5 101t174.5 43q21 1 48.5 2t40.5 1v36q0 47 -30.5 64.5t-81.5 17.5q-34 0 -72 -5t-75 -15l-18 56q46 13 94.5 20t98.5 7q96 0 146 -41.5t50 -131.5zM351 58v169q-17 0 -40.5 -1.5
t-42.5 -2.5q-59 -4 -95 -24.5t-36 -69.5q0 -44 33 -65t84 -21q27 0 54 5t43 10zM313 -160h-110v92h110v-92z" />
    <glyph glyph-name="agrave" unicode="&#xe0;" horiz-adv-x="523" 
d="M243 531l-119 109h116l85 -109h-82zM463 287v-261q-48 -19 -99 -29.5t-103 -10.5q-114 0 -173.5 37t-59.5 109q0 66 59.5 101t174.5 43q21 1 48.5 2t40.5 1v36q0 47 -30.5 64.5t-81.5 17.5q-34 0 -72 -5t-75 -15l-18 56q46 13 94.5 20t98.5 7q96 0 146 -41.5t50 -131.5z
M351 58v169q-17 0 -40.5 -1.5t-42.5 -2.5q-59 -4 -95 -24.5t-36 -69.5q0 -44 33 -65t84 -21q27 0 54 5t43 10z" />
    <glyph glyph-name="amacron" unicode="&#x101;" horiz-adv-x="523" 
d="M125 556v72h288v-72h-288zM463 287v-261q-48 -19 -99 -29.5t-103 -10.5q-114 0 -173.5 37t-59.5 109q0 66 59.5 101t174.5 43q21 1 48.5 2t40.5 1v36q0 47 -30.5 64.5t-81.5 17.5q-34 0 -72 -5t-75 -15l-18 56q46 13 94.5 20t98.5 7q96 0 146 -41.5t50 -131.5zM351 58
v169q-17 0 -40.5 -1.5t-42.5 -2.5q-59 -4 -95 -24.5t-36 -69.5q0 -44 33 -65t84 -21q27 0 54 5t43 10z" />
    <glyph glyph-name="aogonek" unicode="&#x105;" horiz-adv-x="524" 
d="M463 287v-261q-12 -4 -24.5 -8.5t-24.5 -8.5q-51 -44 -70.5 -72t-19.5 -56q0 -21 20 -35.5t49 -14.5h84v-42q-23 -5 -55 -8.5t-59 -3.5q-53 0 -85.5 26t-32.5 66q0 28 16 58.5t56 61.5l-28 -2t-28 -1q-114 0 -173.5 37t-59.5 109q0 66 59.5 101t174.5 43q21 1 48.5 2
t40.5 1v36q0 47 -30.5 64.5t-81.5 17.5q-34 0 -72 -5t-75 -15l-18 56q46 13 94.5 20t98.5 7q96 0 146 -41.5t50 -131.5zM351 58v169q-17 0 -40.5 -1.5t-42.5 -2.5q-59 -4 -95 -24.5t-36 -69.5q0 -44 33 -65t84 -21q27 0 54 5t43 10z" />
    <glyph glyph-name="aring" unicode="&#xe5;" horiz-adv-x="523" 
d="M382 614q1 -4 2 -9t1 -10q0 -34 -28.5 -51.5t-85.5 -17.5t-86 17.5t-29 51.5t29 51.5t86 17.5q49 0 77 -12.5t34 -37.5zM312 595q0 25 -9.5 34.5t-31.5 9.5q-24 0 -33.5 -9.5t-9.5 -34.5t9.5 -34.5t33.5 -9.5q22 0 31.5 9.5t9.5 34.5zM463 287v-261q-48 -19 -99 -29.5
t-103 -10.5q-114 0 -173.5 37t-59.5 109q0 66 59.5 101t174.5 43q21 1 48.5 2t40.5 1v36q0 47 -30.5 64.5t-81.5 17.5q-34 0 -72 -5t-75 -15l-18 56q46 13 94.5 20t98.5 7q96 0 146 -41.5t50 -131.5zM351 58v169q-17 0 -40.5 -1.5t-42.5 -2.5q-59 -4 -95 -24.5t-36 -69.5
q0 -44 33 -65t84 -21q27 0 54 5t43 10z" />
    <glyph glyph-name="aringacute" unicode="&#x1fb;" horiz-adv-x="523" 
d="M304 705h-83l86 109h116zM382 608q1 -4 2 -9t1 -10q0 -34 -28.5 -51.5t-85.5 -17.5t-86 17.5t-29 51.5t29 51.5t86 17.5q49 0 77 -12.5t34 -37.5zM312 589q0 25 -9.5 34.5t-31.5 9.5q-24 0 -33.5 -9.5t-9.5 -34.5t9.5 -34.5t33.5 -9.5q22 0 31.5 9.5t9.5 34.5zM463 287
v-261q-48 -19 -99 -29.5t-103 -10.5q-114 0 -173.5 37t-59.5 109q0 66 59.5 101t174.5 43q21 1 48.5 2t40.5 1v36q0 47 -30.5 64.5t-81.5 17.5q-34 0 -72 -5t-75 -15l-18 56q46 13 94.5 20t98.5 7q96 0 146 -41.5t50 -131.5zM351 58v169q-17 0 -40.5 -1.5t-42.5 -2.5
q-59 -4 -95 -24.5t-36 -69.5q0 -44 33 -65t84 -21q27 0 54 5t43 10z" />
    <glyph glyph-name="atilde" unicode="&#xe3;" horiz-adv-x="523" 
d="M401 626l28 -43q-22 -29 -44 -40.5t-53 -11.5q-22 0 -38 4t-29 10q-15 7 -31.5 11.5t-37.5 4.5q-20 0 -34.5 -7t-30.5 -23l-29 43q26 31 48.5 43t51.5 12q19 0 38.5 -6t35.5 -12q12 -4 26.5 -8t33.5 -4q22 0 36 6t29 21zM463 287v-261q-48 -19 -99 -29.5t-103 -10.5
q-114 0 -173.5 37t-59.5 109q0 66 59.5 101t174.5 43q21 1 48.5 2t40.5 1v36q0 47 -30.5 64.5t-81.5 17.5q-34 0 -72 -5t-75 -15l-18 56q46 13 94.5 20t98.5 7q96 0 146 -41.5t50 -131.5zM351 58v169q-17 0 -40.5 -1.5t-42.5 -2.5q-59 -4 -95 -24.5t-36 -69.5q0 -44 33 -65
t84 -21q27 0 54 5t43 10z" />
    <glyph glyph-name="ae" unicode="&#xe6;" horiz-adv-x="848" 
d="M789 203h-323q1 -75 35 -115t96 -40q46 0 84 9.5t81 23.5l19 -57q-10 -4 -29 -10.5t-44 -12.5t-54.5 -10.5t-58.5 -4.5q-43 0 -79.5 9t-64.5 26q-46 -16 -93.5 -25.5t-96.5 -9.5q-114 0 -173.5 37t-59.5 109q0 66 59.5 101t174.5 43q21 1 48.5 2t40.5 1v36
q0 47 -30.5 64.5t-81.5 17.5q-34 0 -72 -5t-75 -15l-18 56q46 13 94.5 20t98.5 7q54 0 93 -13t64 -39q29 25 69.5 38.5t90.5 13.5q110 0 169.5 -59.5t59.5 -170.5q0 -13 -6 -20t-18 -7zM466 259h236q0 67 -30.5 104t-85.5 37t-87 -37t-33 -104zM351 58v169q-17 0 -40.5 -1.5
t-42.5 -2.5q-59 -4 -95 -24.5t-36 -69.5q0 -44 33 -65t84 -21q27 0 54 5t43 10z" />
    <glyph glyph-name="aeacute" unicode="&#x1fd;" horiz-adv-x="848" 
d="M452 531h-82l86 109h116zM789 203h-323q1 -75 35 -115t96 -40q46 0 84 9.5t81 23.5l19 -57q-10 -4 -29 -10.5t-44 -12.5t-54.5 -10.5t-58.5 -4.5q-43 0 -79.5 9t-64.5 26q-46 -16 -93.5 -25.5t-96.5 -9.5q-114 0 -173.5 37t-59.5 109q0 66 59.5 101t174.5 43q21 1 48.5 2
t40.5 1v36q0 47 -30.5 64.5t-81.5 17.5q-34 0 -72 -5t-75 -15l-18 56q46 13 94.5 20t98.5 7q54 0 93 -13t64 -39q29 25 69.5 38.5t90.5 13.5q110 0 169.5 -59.5t59.5 -170.5q0 -13 -6 -20t-18 -7zM466 259h236q0 67 -30.5 104t-85.5 37t-87 -37t-33 -104zM351 58v169
q-17 0 -40.5 -1.5t-42.5 -2.5q-59 -4 -95 -24.5t-36 -69.5q0 -44 33 -65t84 -21q27 0 54 5t43 10z" />
    <glyph glyph-name="b" unicode="b" 
d="M302 460q110 0 163.5 -58.5t53.5 -177.5q0 -116 -60.5 -177t-177.5 -61q-54 0 -107.5 9.5t-105.5 30.5v602h110v-190q33 10 64 16t60 6zM407 223q0 93 -30 135.5t-93 42.5q-27 0 -53 -5.5t-53 -15.5v-318q22 -9 46 -13t50 -4q66 0 99.5 44.5t33.5 133.5z" />
    <glyph glyph-name="uni1E03" unicode="&#x1e03;" 
d="M358 629v-100h-112v100h112zM302 460q110 0 163.5 -58.5t53.5 -177.5q0 -116 -60.5 -177t-177.5 -61q-54 0 -107.5 9.5t-105.5 30.5v602h110v-190q33 10 64 16t60 6zM407 223q0 93 -30 135.5t-93 42.5q-27 0 -53 -5.5t-53 -15.5v-318q22 -9 46 -13t50 -4q66 0 99.5 44.5
t33.5 133.5z" />
    <glyph glyph-name="c" unicode="c" horiz-adv-x="459" 
d="M41 222q0 116 59.5 177t171.5 61q39 0 80 -7t81 -20l-17 -53q-34 8 -64 13t-57 5q-72 0 -106.5 -42.5t-34.5 -132.5t34.5 -132t106.5 -42q28 0 58 4t63 13l17 -53q-40 -13 -80.5 -20t-80.5 -7q-112 0 -171.5 60.5t-59.5 175.5z" />
    <glyph glyph-name="cacute" unicode="&#x107;" horiz-adv-x="459" 
d="M290 531h-82l86 109h116zM41 222q0 116 59.5 177t171.5 61q39 0 80 -7t81 -20l-17 -53q-34 8 -64 13t-57 5q-72 0 -106.5 -42.5t-34.5 -132.5t34.5 -132t106.5 -42q28 0 58 4t63 13l17 -53q-40 -13 -80.5 -20t-80.5 -7q-112 0 -171.5 60.5t-59.5 175.5z" />
    <glyph glyph-name="ccaron" unicode="&#x10d;" horiz-adv-x="459" 
d="M406 640l-89 -109h-117l-88 109h83l64 -61l64 61h83zM41 222q0 116 59.5 177t171.5 61q39 0 80 -7t81 -20l-17 -53q-34 8 -64 13t-57 5q-72 0 -106.5 -42.5t-34.5 -132.5t34.5 -132t106.5 -42q28 0 58 4t63 13l17 -53q-40 -13 -80.5 -20t-80.5 -7q-112 0 -171.5 60.5
t-59.5 175.5z" />
    <glyph glyph-name="ccedilla" unicode="&#xe7;" horiz-adv-x="459" 
d="M41 222q0 116 59.5 177t171.5 61q39 0 80 -7t81 -20l-17 -53q-34 8 -64 13t-57 5q-72 0 -106.5 -42.5t-34.5 -132.5t34.5 -132t106.5 -42q28 0 58 4t63 13l17 -53q-40 -13 -80.5 -20t-80.5 -7q-112 0 -171.5 60.5t-59.5 175.5zM175 -170l8 42q14 -4 25.5 -6t20.5 -2
q23 0 33 8t10 21t-10 21.5t-34 8.5q-9 0 -20.5 -2.5t-24.5 -6.5l-8 41q18 4 34.5 6.5t32.5 2.5q54 0 81 -18.5t27 -52.5q0 -35 -27.5 -53.5t-81.5 -18.5q-13 0 -30 2.5t-36 6.5z" />
    <glyph glyph-name="ccircumflex" unicode="&#x109;" horiz-adv-x="459" 
d="M412 531h-82l-65 62l-63 -62h-83l89 109h116zM41 222q0 116 59.5 177t171.5 61q39 0 80 -7t81 -20l-17 -53q-34 8 -64 13t-57 5q-72 0 -106.5 -42.5t-34.5 -132.5t34.5 -132t106.5 -42q28 0 58 4t63 13l17 -53q-40 -13 -80.5 -20t-80.5 -7q-112 0 -171.5 60.5
t-59.5 175.5z" />
    <glyph glyph-name="cdotaccent" unicode="&#x10b;" horiz-adv-x="459" 
d="M311 633v-100h-112v100h112zM41 222q0 116 59.5 177t171.5 61q39 0 80 -7t81 -20l-17 -53q-34 8 -64 13t-57 5q-72 0 -106.5 -42.5t-34.5 -132.5t34.5 -132t106.5 -42q28 0 58 4t63 13l17 -53q-40 -13 -80.5 -20t-80.5 -7q-112 0 -171.5 60.5t-59.5 175.5z" />
    <glyph glyph-name="d" unicode="d" horiz-adv-x="562" 
d="M495 26q-51 -20 -105 -30t-109 -10q-117 0 -178 61t-61 177t55.5 176t162.5 60q32 0 62 -5t61 -15v188h112v-602zM288 45q23 0 48 4.5t47 12.5v321q-25 8 -50 13t-56 5q-65 0 -93.5 -41t-28.5 -137q0 -92 32.5 -135t100.5 -43z" />
    <glyph glyph-name="eth" unicode="&#xf0;" horiz-adv-x="618" 
d="M293 -14q-117 0 -184.5 58.5t-67.5 160.5q0 89 60 139.5t165 50.5q56 0 102 -18t76 -55q-1 43 -5 79.5t-14 65.5l-112 -38l-17 50l107 36q-21 31 -54.5 47.5t-82.5 16.5q-40 0 -78.5 -8t-78.5 -24l-17 57q45 17 89.5 27.5t90.5 10.5q74 0 130.5 -24.5t93.5 -71.5l95 32
l17 -50l-83 -28q21 -42 32 -97t11 -121q0 -154 -72 -225t-203 -71zM290 327q-63 0 -98.5 -35t-35.5 -95q0 -69 37.5 -109t103.5 -40q68 0 107 40t39 109q0 60 -41 95t-112 35z" />
    <glyph glyph-name="dcaron" unicode="&#x10f;" horiz-adv-x="617" 
d="M621 438h-74l23 190h119zM495 26q-51 -20 -105 -30t-109 -10q-117 0 -178 61t-61 177t55.5 176t162.5 60q32 0 62 -5t61 -15v188h112v-602zM288 45q23 0 48 4.5t47 12.5v321q-25 8 -50 13t-56 5q-65 0 -93.5 -41t-28.5 -137q0 -92 32.5 -135t100.5 -43z" />
    <glyph glyph-name="dcroat" unicode="&#x111;" horiz-adv-x="562" 
d="M495 26q-51 -20 -105 -30t-109 -10q-117 0 -178 61t-61 177t55.5 176t162.5 60q32 0 62 -5t61 -15v75h-150v51h150v62h112v-62h63v-51h-63v-489zM288 45q23 0 48 4.5t47 12.5v321q-25 8 -50 13t-56 5q-65 0 -93.5 -41t-28.5 -137q0 -92 32.5 -135t100.5 -43z" />
    <glyph glyph-name="uni1E0B" unicode="&#x1e0b;" horiz-adv-x="562" 
d="M301 629v-100h-112v100h112zM495 26q-51 -20 -105 -30t-109 -10q-117 0 -178 61t-61 177t55.5 176t162.5 60q32 0 62 -5t61 -15v188h112v-602zM288 45q23 0 48 4.5t47 12.5v321q-25 8 -50 13t-56 5q-65 0 -93.5 -41t-28.5 -137q0 -92 32.5 -135t100.5 -43z" />
    <glyph glyph-name="uni1E0D" unicode="&#x1e0d;" horiz-adv-x="562" 
d="M495 26q-51 -20 -105 -30t-109 -10q-117 0 -178 61t-61 177t55.5 176t162.5 60q32 0 62 -5t61 -15v188h112v-602zM288 45q23 0 48 4.5t47 12.5v321q-25 8 -50 13t-56 5q-65 0 -93.5 -41t-28.5 -137q0 -92 32.5 -135t100.5 -43zM329 -160h-110v92h110v-92z" />
    <glyph glyph-name="e" unicode="e" horiz-adv-x="536" 
d="M477 203h-323q1 -75 35 -115t96 -40q46 0 84 9.5t81 23.5l19 -57q-10 -4 -29 -10.5t-44 -12.5t-54.5 -10.5t-58.5 -4.5q-115 0 -178.5 62.5t-63.5 174.5t60.5 174.5t170.5 62.5t169.5 -59.5t59.5 -170.5q0 -13 -6 -20t-18 -7zM154 259h236q0 67 -30.5 104t-85.5 37
t-87 -37t-33 -104z" />
    <glyph glyph-name="eacute" unicode="&#xe9;" horiz-adv-x="536" 
d="M312 531h-82l86 109h116zM477 203h-323q1 -75 35 -115t96 -40q46 0 84 9.5t81 23.5l19 -57q-10 -4 -29 -10.5t-44 -12.5t-54.5 -10.5t-58.5 -4.5q-115 0 -178.5 62.5t-63.5 174.5t60.5 174.5t170.5 62.5t169.5 -59.5t59.5 -170.5q0 -13 -6 -20t-18 -7zM154 259h236
q0 67 -30.5 104t-85.5 37t-87 -37t-33 -104z" />
    <glyph glyph-name="ebreve" unicode="&#x115;" horiz-adv-x="536" 
d="M416 650q-6 -56 -44 -89.5t-98 -33.5q-61 0 -100 32t-43 91h60q5 -33 29.5 -48t52.5 -15q31 0 54.5 15t29.5 48h59zM477 203h-323q1 -75 35 -115t96 -40q46 0 84 9.5t81 23.5l19 -57q-10 -4 -29 -10.5t-44 -12.5t-54.5 -10.5t-58.5 -4.5q-115 0 -178.5 62.5t-63.5 174.5
t60.5 174.5t170.5 62.5t169.5 -59.5t59.5 -170.5q0 -13 -6 -20t-18 -7zM154 259h236q0 67 -30.5 104t-85.5 37t-87 -37t-33 -104z" />
    <glyph glyph-name="ecaron" unicode="&#x11b;" horiz-adv-x="536" 
d="M417 640l-89 -109h-117l-88 109h83l64 -61l64 61h83zM477 203h-323q1 -75 35 -115t96 -40q46 0 84 9.5t81 23.5l19 -57q-10 -4 -29 -10.5t-44 -12.5t-54.5 -10.5t-58.5 -4.5q-115 0 -178.5 62.5t-63.5 174.5t60.5 174.5t170.5 62.5t169.5 -59.5t59.5 -170.5q0 -13 -6 -20
t-18 -7zM154 259h236q0 67 -30.5 104t-85.5 37t-87 -37t-33 -104z" />
    <glyph glyph-name="ecircumflex" unicode="&#xea;" horiz-adv-x="536" 
d="M417 531h-82l-65 62l-63 -62h-83l89 109h116zM477 203h-323q1 -75 35 -115t96 -40q46 0 84 9.5t81 23.5l19 -57q-10 -4 -29 -10.5t-44 -12.5t-54.5 -10.5t-58.5 -4.5q-115 0 -178.5 62.5t-63.5 174.5t60.5 174.5t170.5 62.5t169.5 -59.5t59.5 -170.5q0 -13 -6 -20t-18 -7
zM154 259h236q0 67 -30.5 104t-85.5 37t-87 -37t-33 -104z" />
    <glyph glyph-name="edieresis" unicode="&#xeb;" horiz-adv-x="536" 
d="M235 628v-97h-87v97h87zM394 628v-97h-87v97h87zM477 203h-323q1 -75 35 -115t96 -40q46 0 84 9.5t81 23.5l19 -57q-10 -4 -29 -10.5t-44 -12.5t-54.5 -10.5t-58.5 -4.5q-115 0 -178.5 62.5t-63.5 174.5t60.5 174.5t170.5 62.5t169.5 -59.5t59.5 -170.5q0 -13 -6 -20
t-18 -7zM154 259h236q0 67 -30.5 104t-85.5 37t-87 -37t-33 -104z" />
    <glyph glyph-name="edotaccent" unicode="&#x117;" horiz-adv-x="536" 
d="M331 633v-100h-112v100h112zM477 203h-323q1 -75 35 -115t96 -40q46 0 84 9.5t81 23.5l19 -57q-10 -4 -29 -10.5t-44 -12.5t-54.5 -10.5t-58.5 -4.5q-115 0 -178.5 62.5t-63.5 174.5t60.5 174.5t170.5 62.5t169.5 -59.5t59.5 -170.5q0 -13 -6 -20t-18 -7zM154 259h236
q0 67 -30.5 104t-85.5 37t-87 -37t-33 -104z" />
    <glyph glyph-name="uni1EB9" unicode="&#x1eb9;" horiz-adv-x="536" 
d="M477 203h-323q1 -75 35 -115t96 -40q46 0 84 9.5t81 23.5l19 -57q-10 -4 -29 -10.5t-44 -12.5t-54.5 -10.5t-58.5 -4.5q-115 0 -178.5 62.5t-63.5 174.5t60.5 174.5t170.5 62.5t169.5 -59.5t59.5 -170.5q0 -13 -6 -20t-18 -7zM154 259h236q0 67 -30.5 104t-85.5 37
t-87 -37t-33 -104zM324 -160h-110v92h110v-92z" />
    <glyph glyph-name="egrave" unicode="&#xe8;" horiz-adv-x="536" 
d="M246 531l-119 109h116l85 -109h-82zM477 203h-323q1 -75 35 -115t96 -40q46 0 84 9.5t81 23.5l19 -57q-10 -4 -29 -10.5t-44 -12.5t-54.5 -10.5t-58.5 -4.5q-115 0 -178.5 62.5t-63.5 174.5t60.5 174.5t170.5 62.5t169.5 -59.5t59.5 -170.5q0 -13 -6 -20t-18 -7zM154 259
h236q0 67 -30.5 104t-85.5 37t-87 -37t-33 -104z" />
    <glyph glyph-name="emacron" unicode="&#x113;" horiz-adv-x="536" 
d="M127 556v72h288v-72h-288zM477 203h-323q1 -75 35 -115t96 -40q46 0 84 9.5t81 23.5l19 -57q-10 -4 -29 -10.5t-44 -12.5t-54.5 -10.5t-58.5 -4.5q-115 0 -178.5 62.5t-63.5 174.5t60.5 174.5t170.5 62.5t169.5 -59.5t59.5 -170.5q0 -13 -6 -20t-18 -7zM154 259h236
q0 67 -30.5 104t-85.5 37t-87 -37t-33 -104z" />
    <glyph glyph-name="eogonek" unicode="&#x119;" horiz-adv-x="536" 
d="M477 203h-323q1 -75 35 -115t96 -40q46 0 84 9.5t81 23.5l19 -57q-10 -4 -32 -11t-50 -14q-44 -39 -61 -65t-17 -53q0 -21 20 -35.5t49 -14.5h84v-42q-23 -5 -55 -8.5t-59 -3.5q-53 0 -85.5 26t-32.5 66q0 28 15 57.5t53 59.5h-7.5h-7.5q-115 0 -178.5 62.5t-63.5 174.5
t60.5 174.5t170.5 62.5t169.5 -59.5t59.5 -170.5q0 -13 -6 -20t-18 -7zM154 259h236q0 67 -30.5 104t-85.5 37t-87 -37t-33 -104z" />
    <glyph glyph-name="uni1EBD" unicode="&#x1ebd;" horiz-adv-x="536" 
d="M403 626l28 -43q-22 -29 -44 -40.5t-53 -11.5q-22 0 -38 4t-29 10q-15 7 -31.5 11.5t-37.5 4.5q-20 0 -34.5 -7t-30.5 -23l-29 43q26 31 48.5 43t51.5 12q19 0 38.5 -6t35.5 -12q12 -4 26.5 -8t33.5 -4q22 0 36 6t29 21zM477 203h-323q1 -75 35 -115t96 -40q46 0 84 9.5
t81 23.5l19 -57q-10 -4 -29 -10.5t-44 -12.5t-54.5 -10.5t-58.5 -4.5q-115 0 -178.5 62.5t-63.5 174.5t60.5 174.5t170.5 62.5t169.5 -59.5t59.5 -170.5q0 -13 -6 -20t-18 -7zM154 259h236q0 67 -30.5 104t-85.5 37t-87 -37t-33 -104z" />
    <glyph glyph-name="f" unicode="f" horiz-adv-x="321" 
d="M258 577q-40 0 -53.5 -17t-13.5 -57v-57h115v-66h-114v-380h-113v380h-55v66h55v51q0 70 38 107.5t122 37.5q28 0 55.5 -6.5t47.5 -15.5l-22 -53q-16 4 -31.5 7t-30.5 3z" />
    <glyph glyph-name="uni1E1F" unicode="&#x1e1f;" horiz-adv-x="321" 
d="M258 806v-100h-112v100h112zM258 577q-40 0 -53.5 -17t-13.5 -57v-57h115v-66h-114v-380h-113v380h-55v66h55v51q0 70 38 107.5t122 37.5q28 0 55.5 -6.5t47.5 -15.5l-22 -53q-16 4 -31.5 7t-30.5 3z" />
    <glyph glyph-name="g" unicode="g" 
d="M494 415v-443q0 -99 -57.5 -147t-170.5 -48q-40 0 -84.5 9.5t-98.5 28.5l17 54q53 -16 90 -23t62 -7q65 0 97.5 25.5t32.5 84.5v57q-34 -10 -65.5 -15t-57.5 -5q-110 0 -163.5 58.5t-53.5 177.5q0 120 59 179t180 59q56 0 109.5 -11.5t103.5 -33.5zM277 45q21 0 47 5.5
t59 15.5v311q-19 13 -42 19t-51 6q-69 0 -102.5 -44t-33.5 -135t30 -134.5t93 -43.5z" />
    <glyph glyph-name="uni01F5" unicode="&#x1f5;" 
d="M325 531h-82l86 109h116zM494 415v-443q0 -99 -57.5 -147t-170.5 -48q-40 0 -84.5 9.5t-98.5 28.5l17 54q53 -16 90 -23t62 -7q65 0 97.5 25.5t32.5 84.5v57q-34 -10 -65.5 -15t-57.5 -5q-110 0 -163.5 58.5t-53.5 177.5q0 120 59 179t180 59q56 0 109.5 -11.5
t103.5 -33.5zM277 45q21 0 47 5.5t59 15.5v311q-19 13 -42 19t-51 6q-69 0 -102.5 -44t-33.5 -135t30 -134.5t93 -43.5z" />
    <glyph glyph-name="gbreve" unicode="&#x11f;" 
d="M429 650q-6 -56 -44 -89.5t-98 -33.5q-61 0 -100 32t-43 91h60q5 -33 29.5 -48t52.5 -15q31 0 54.5 15t29.5 48h59zM494 415v-443q0 -99 -57.5 -147t-170.5 -48q-40 0 -84.5 9.5t-98.5 28.5l17 54q53 -16 90 -23t62 -7q65 0 97.5 25.5t32.5 84.5v57q-34 -10 -65.5 -15
t-57.5 -5q-110 0 -163.5 58.5t-53.5 177.5q0 120 59 179t180 59q56 0 109.5 -11.5t103.5 -33.5zM277 45q21 0 47 5.5t59 15.5v311q-19 13 -42 19t-51 6q-69 0 -102.5 -44t-33.5 -135t30 -134.5t93 -43.5z" />
    <glyph glyph-name="gcaron" unicode="&#x1e7;" 
d="M434 640l-89 -109h-117l-88 109h83l64 -61l64 61h83zM494 415v-443q0 -99 -57.5 -147t-170.5 -48q-40 0 -84.5 9.5t-98.5 28.5l17 54q53 -16 90 -23t62 -7q65 0 97.5 25.5t32.5 84.5v57q-34 -10 -65.5 -15t-57.5 -5q-110 0 -163.5 58.5t-53.5 177.5q0 120 59 179t180 59
q56 0 109.5 -11.5t103.5 -33.5zM277 45q21 0 47 5.5t59 15.5v311q-19 13 -42 19t-51 6q-69 0 -102.5 -44t-33.5 -135t30 -134.5t93 -43.5z" />
    <glyph glyph-name="gcircumflex" unicode="&#x11d;" 
d="M435 531h-82l-65 62l-63 -62h-83l89 109h116zM494 415v-443q0 -99 -57.5 -147t-170.5 -48q-40 0 -84.5 9.5t-98.5 28.5l17 54q53 -16 90 -23t62 -7q65 0 97.5 25.5t32.5 84.5v57q-34 -10 -65.5 -15t-57.5 -5q-110 0 -163.5 58.5t-53.5 177.5q0 120 59 179t180 59
q56 0 109.5 -11.5t103.5 -33.5zM277 45q21 0 47 5.5t59 15.5v311q-19 13 -42 19t-51 6q-69 0 -102.5 -44t-33.5 -135t30 -134.5t93 -43.5z" />
    <glyph glyph-name="uni0123" unicode="&#x123;" 
d="M294 713h70l-23 -191h-111zM494 415v-443q0 -99 -57.5 -147t-170.5 -48q-40 0 -84.5 9.5t-98.5 28.5l17 54q53 -16 90 -23t62 -7q65 0 97.5 25.5t32.5 84.5v57q-34 -10 -65.5 -15t-57.5 -5q-110 0 -163.5 58.5t-53.5 177.5q0 120 59 179t180 59q56 0 109.5 -11.5
t103.5 -33.5zM277 45q21 0 47 5.5t59 15.5v311q-19 13 -42 19t-51 6q-69 0 -102.5 -44t-33.5 -135t30 -134.5t93 -43.5z" />
    <glyph glyph-name="gdotaccent" unicode="&#x121;" 
d="M338 633v-100h-112v100h112zM494 415v-443q0 -99 -57.5 -147t-170.5 -48q-40 0 -84.5 9.5t-98.5 28.5l17 54q53 -16 90 -23t62 -7q65 0 97.5 25.5t32.5 84.5v57q-34 -10 -65.5 -15t-57.5 -5q-110 0 -163.5 58.5t-53.5 177.5q0 120 59 179t180 59q56 0 109.5 -11.5
t103.5 -33.5zM277 45q21 0 47 5.5t59 15.5v311q-19 13 -42 19t-51 6q-69 0 -102.5 -44t-33.5 -135t30 -134.5t93 -43.5z" />
    <glyph glyph-name="h" unicode="h" horiz-adv-x="564" 
d="M499 0h-111v312q0 46 -25 66t-82 20q-27 0 -50.5 -4.5t-49.5 -14.5v-379h-111v628h111v-194q33 14 63.5 20t66.5 6q99 0 143.5 -40t44.5 -130v-290z" />
    <glyph glyph-name="hbar" unicode="&#x127;" horiz-adv-x="564" 
d="M499 0h-111v312q0 46 -25 66t-82 20q-27 0 -50.5 -4.5t-49.5 -14.5v-379h-111v513h-62v51h62v64h111v-64h147v-51h-147v-79q33 14 63.5 20t66.5 6q99 0 143.5 -40t44.5 -130v-290z" />
    <glyph glyph-name="hcircumflex" unicode="&#x125;" horiz-adv-x="564" 
d="M430 711h-82l-64 61l-64 -61h-83l89 109h116zM499 0h-111v312q0 46 -25 66t-82 20q-27 0 -50.5 -4.5t-49.5 -14.5v-379h-111v628h111v-194q33 14 63.5 20t66.5 6q99 0 143.5 -40t44.5 -130v-290z" />
    <glyph glyph-name="uni1E25" unicode="&#x1e25;" horiz-adv-x="564" 
d="M499 0h-111v312q0 46 -25 66t-82 20q-27 0 -50.5 -4.5t-49.5 -14.5v-379h-111v628h111v-194q33 14 63.5 20t66.5 6q99 0 143.5 -40t44.5 -130v-290zM337 -160h-110v92h110v-92z" />
    <glyph glyph-name="i" unicode="i" horiz-adv-x="252" 
d="M182 628v-97h-112v97h112zM182 446v-446h-112v446h112z" />
    <glyph glyph-name="iacute" unicode="&#xed;" horiz-adv-x="252" 
d="M162 531h-82l86 109h116zM182 446v-446h-112v446h112z" />
    <glyph glyph-name="ibreve" unicode="&#x12d;" horiz-adv-x="251" 
d="M268 650q-6 -56 -44 -89.5t-98 -33.5q-61 0 -100 32t-43 91h60q5 -33 29.5 -48t52.5 -15q31 0 54.5 15t29.5 48h59zM182 446v-446h-112v446h112z" />
    <glyph glyph-name="icircumflex" unicode="&#xee;" horiz-adv-x="252" 
d="M272 531h-82l-65 62l-63 -62h-83l89 109h116zM182 446v-446h-112v446h112z" />
    <glyph glyph-name="idieresis" unicode="&#xef;" horiz-adv-x="252" 
d="M90 628v-97h-87v97h87zM249 628v-97h-87v97h87zM182 446v-446h-112v446h112z" />
    <glyph glyph-name="uni1ECB" unicode="&#x1ecb;" horiz-adv-x="252" 
d="M182 628v-97h-112v97h112zM182 446v-446h-112v446h112zM180 -160h-110v92h110v-92z" />
    <glyph glyph-name="igrave" unicode="&#xec;" horiz-adv-x="252" 
d="M96 531l-119 109h116l85 -109h-82zM182 446v-446h-112v446h112z" />
    <glyph glyph-name="ij" unicode="&#x133;" horiz-adv-x="506" 
d="M182 628v-97h-112v97h112zM437 628v-97h-112v97h112zM182 446v-446h-112v446h112zM437 446v-524q0 -69 -36 -107t-117 -38q-16 0 -35 4t-29 10l8 55q8 -1 18.5 -2.5t22.5 -1.5q32 0 44 18.5t12 55.5v530h112z" />
    <glyph glyph-name="imacron" unicode="&#x12b;" horiz-adv-x="252" 
d="M-18 556v72h288v-72h-288zM182 446v-446h-112v446h112z" />
    <glyph glyph-name="iogonek" unicode="&#x12f;" horiz-adv-x="253" 
d="M183 628v-97h-112v97h112zM183 446v-446h-26q-44 -39 -61 -65t-17 -53q0 -21 20 -35.5t49 -14.5h84v-42q-23 -5 -55 -8.5t-59 -3.5q-53 0 -85.5 26t-32.5 66q0 31 18.5 64t66.5 66h-14v446h112z" />
    <glyph glyph-name="itilde" unicode="&#x129;" horiz-adv-x="252" 
d="M261 626l28 -43q-22 -29 -44 -40.5t-53 -11.5q-22 0 -38 4t-29 10q-15 7 -31.5 11.5t-37.5 4.5q-20 0 -34.5 -7t-30.5 -23l-29 43q26 31 48.5 43t51.5 12q19 0 38.5 -6t35.5 -12q12 -4 26.5 -8t33.5 -4q22 0 36 6t29 21zM182 446v-446h-112v446h112z" />
    <glyph glyph-name="j" unicode="j" horiz-adv-x="259" 
d="M190 628v-97h-112v97h112zM190 446v-524q0 -69 -36 -107t-117 -38q-16 0 -35 4t-29 10l8 55q8 -1 18.5 -2.5t22.5 -1.5q32 0 44 18.5t12 55.5v530h112z" />
    <glyph glyph-name="jcircumflex" unicode="&#x135;" horiz-adv-x="259" 
d="M281 553h-82l-64 61l-64 -61h-83l89 109h116zM190 446v-524q0 -69 -36 -107t-117 -38q-16 0 -35 4t-29 10l8 55q7 -1 19 -2.5t22 -1.5q32 0 44 18.5t12 55.5v530h112z" />
    <glyph glyph-name="k" unicode="k" horiz-adv-x="523" 
d="M304 242l225 -242h-145l-178 206h-25v-206h-111v628h111v-359h25l158 177h129z" />
    <glyph glyph-name="uni0137" unicode="&#x137;" horiz-adv-x="523" 
d="M304 242l225 -242h-145l-178 206h-25v-206h-111v628h111v-359h25l158 177h129zM278 -258h-74l23 190h119z" />
    <glyph glyph-name="kgreenlandic" unicode="&#x138;" horiz-adv-x="523" 
d="M303 242l225 -242h-145l-178 206h-24v-206h-112v446h112v-177h24l159 177h129z" />
    <glyph glyph-name="l" unicode="l" horiz-adv-x="254" 
d="M184 0h-114v619l114 28v-647z" />
    <glyph glyph-name="lacute" unicode="&#x13a;" horiz-adv-x="254" 
d="M160 711h-83l86 109h116zM184 0h-114v619l114 28v-647z" />
    <glyph glyph-name="lcaron" unicode="&#x13e;" horiz-adv-x="308" 
d="M184 0h-114v619l114 28v-647zM310 438h-74l23 190h119z" />
    <glyph glyph-name="uni013C" unicode="&#x13c;" horiz-adv-x="254" 
d="M184 0h-114v619l114 28v-647zM119 -258h-74l23 190h119z" />
    <glyph glyph-name="lslash" unicode="&#x142;" horiz-adv-x="317" 
d="M218 0h-114v269l-70 -38v71l70 39v278l114 28v-261l71 37v-71l-71 -38v-314z" />
    <glyph glyph-name="m" unicode="m" horiz-adv-x="850" 
d="M786 0h-111v316q0 46 -22 64t-75 18q-26 0 -47.5 -5.5t-49.5 -19.5q1 -2 1.5 -10.5t0.5 -14.5v-348h-112v317q0 44 -22.5 62.5t-76.5 18.5q-24 0 -47 -6t-47 -15v-377h-111v404q57 29 115 42.5t117 13.5q49 0 79.5 -9t53.5 -30q44 21 83 30t87 9q99 0 141.5 -38
t42.5 -127v-295z" />
    <glyph glyph-name="uni1E41" unicode="&#x1e41;" horiz-adv-x="850" 
d="M487 633v-100h-112v100h112zM786 0h-111v316q0 46 -22 64t-75 18q-26 0 -47.5 -5.5t-49.5 -19.5q1 -2 1.5 -10.5t0.5 -14.5v-348h-112v317q0 44 -22.5 62.5t-76.5 18.5q-24 0 -47 -6t-47 -15v-377h-111v404q57 29 115 42.5t117 13.5q49 0 79.5 -9t53.5 -30q44 21 83 30
t87 9q99 0 141.5 -38t42.5 -127v-295z" />
    <glyph glyph-name="n" unicode="n" 
d="M496 0h-111v312q0 47 -24.5 66.5t-81.5 19.5q-25 0 -50 -5.5t-51 -15.5v-377h-111v404q54 28 115 42t125 14q99 0 144 -40t45 -130v-290z" />
    <glyph glyph-name="nacute" unicode="&#x144;" 
d="M303 531h-82l86 109h116zM496 0h-111v312q0 47 -24.5 66.5t-81.5 19.5q-25 0 -50 -5.5t-51 -15.5v-377h-111v404q54 28 115 42t125 14q99 0 144 -40t45 -130v-290z" />
    <glyph glyph-name="napostrophe" unicode="&#x149;" horiz-adv-x="662" 
d="M97 438h-74l23 190h119zM597 0h-111v312q0 47 -24.5 66.5t-81.5 19.5q-25 0 -50 -5.5t-51 -15.5v-377h-111v404q54 28 115 42t125 14q99 0 144 -40t45 -130v-290z" />
    <glyph glyph-name="ncaron" unicode="&#x148;" 
d="M429 640l-89 -109h-117l-88 109h83l64 -61l64 61h83zM496 0h-111v312q0 47 -24.5 66.5t-81.5 19.5q-25 0 -50 -5.5t-51 -15.5v-377h-111v404q54 28 115 42t125 14q99 0 144 -40t45 -130v-290z" />
    <glyph glyph-name="uni0146" unicode="&#x146;" 
d="M496 0h-111v312q0 47 -24.5 66.5t-81.5 19.5q-25 0 -50 -5.5t-51 -15.5v-377h-111v404q54 28 115 42t125 14q99 0 144 -40t45 -130v-290zM274 -258h-74l23 190h119z" />
    <glyph glyph-name="uni1E45" unicode="&#x1e45;" 
d="M335 633v-100h-112v100h112zM496 0h-111v312q0 47 -24.5 66.5t-81.5 19.5q-25 0 -50 -5.5t-51 -15.5v-377h-111v404q54 28 115 42t125 14q99 0 144 -40t45 -130v-290z" />
    <glyph glyph-name="eng" unicode="&#x14b;" 
d="M307 460q99 0 144 -40t45 -130v-368q0 -69 -35.5 -107t-115.5 -38q-17 0 -36 4t-29 10l8 55q9 -1 19 -2.5t22 -1.5q31 0 43.5 19t12.5 55v396q0 47 -24.5 66.5t-81.5 19.5q-25 0 -50 -5.5t-51 -15.5v-377h-111v404q54 28 115 42t125 14z" />
    <glyph glyph-name="uni0272" unicode="&#x272;" 
d="M496 0h-111v312q0 47 -24.5 66.5t-81.5 19.5q-25 0 -50 -5.5t-51 -15.5v-455q0 -69 -35.5 -107t-116.5 -38q-16 0 -35 4t-29 10l8 55q9 -1 19.5 -2.5t21.5 -1.5q31 0 43.5 19t12.5 55v488q54 28 115 42t125 14q99 0 144 -40t45 -130v-290z" />
    <glyph glyph-name="ntilde" unicode="&#xf1;" 
d="M414 626l28 -43q-22 -29 -44 -40.5t-53 -11.5q-22 0 -38 4t-29 10q-15 7 -31.5 11.5t-37.5 4.5q-20 0 -34.5 -7t-30.5 -23l-29 43q26 31 48.5 43t51.5 12q19 0 38.5 -6t35.5 -12q12 -4 26.5 -8t33.5 -4q22 0 36 6t29 21zM496 0h-111v312q0 47 -24.5 66.5t-81.5 19.5
q-25 0 -50 -5.5t-51 -15.5v-377h-111v404q54 28 115 42t125 14q99 0 144 -40t45 -130v-290z" />
    <glyph glyph-name="o" unicode="o" horiz-adv-x="564" 
d="M523 222q0 -113 -62 -174.5t-179 -61.5t-179 61.5t-62 174.5q0 115 62 176.5t179 61.5t179 -61.5t62 -176.5zM411 222q0 90 -32.5 135t-96.5 45q-63 0 -95.5 -45t-32.5 -135q0 -88 32.5 -132.5t95.5 -44.5q64 0 96.5 44.5t32.5 132.5z" />
    <glyph glyph-name="oacute" unicode="&#xf3;" horiz-adv-x="564" 
d="M316 531h-82l86 109h116zM523 222q0 -113 -62 -174.5t-179 -61.5t-179 61.5t-62 174.5q0 115 62 176.5t179 61.5t179 -61.5t62 -176.5zM411 222q0 90 -32.5 135t-96.5 45q-63 0 -95.5 -45t-32.5 -135q0 -88 32.5 -132.5t95.5 -44.5q64 0 96.5 44.5t32.5 132.5z" />
    <glyph glyph-name="obreve" unicode="&#x14f;" horiz-adv-x="564" 
d="M425 650q-6 -56 -44 -89.5t-98 -33.5q-61 0 -100 32t-43 91h60q5 -33 29.5 -48t52.5 -15q31 0 54.5 15t29.5 48h59zM523 222q0 -113 -62 -174.5t-179 -61.5t-179 61.5t-62 174.5q0 115 62 176.5t179 61.5t179 -61.5t62 -176.5zM411 222q0 90 -32.5 135t-96.5 45
q-63 0 -95.5 -45t-32.5 -135q0 -88 32.5 -132.5t95.5 -44.5q64 0 96.5 44.5t32.5 132.5z" />
    <glyph glyph-name="uni01D2" unicode="&#x1d2;" horiz-adv-x="564" 
d="M429 641l-89 -109h-117l-88 109h83l64 -61l64 61h83zM523 222q0 -113 -62 -174.5t-179 -61.5t-179 61.5t-62 174.5q0 115 62 176.5t179 61.5t179 -61.5t62 -176.5zM411 222q0 90 -32.5 135t-96.5 45q-63 0 -95.5 -45t-32.5 -135q0 -88 32.5 -132.5t95.5 -44.5
q64 0 96.5 44.5t32.5 132.5z" />
    <glyph glyph-name="ocircumflex" unicode="&#xf4;" horiz-adv-x="564" 
d="M429 531h-82l-65 62l-63 -62h-83l89 109h116zM523 222q0 -113 -62 -174.5t-179 -61.5t-179 61.5t-62 174.5q0 115 62 176.5t179 61.5t179 -61.5t62 -176.5zM411 222q0 90 -32.5 135t-96.5 45q-63 0 -95.5 -45t-32.5 -135q0 -88 32.5 -132.5t95.5 -44.5q64 0 96.5 44.5
t32.5 132.5z" />
    <glyph glyph-name="odieresis" unicode="&#xf6;" horiz-adv-x="564" 
d="M246 628v-97h-87v97h87zM405 628v-97h-87v97h87zM523 222q0 -113 -62 -174.5t-179 -61.5t-179 61.5t-62 174.5q0 115 62 176.5t179 61.5t179 -61.5t62 -176.5zM411 222q0 90 -32.5 135t-96.5 45q-63 0 -95.5 -45t-32.5 -135q0 -88 32.5 -132.5t95.5 -44.5q64 0 96.5 44.5
t32.5 132.5z" />
    <glyph glyph-name="uni1ECD" unicode="&#x1ecd;" horiz-adv-x="564" 
d="M523 222q0 -113 -62 -174.5t-179 -61.5t-179 61.5t-62 174.5q0 115 62 176.5t179 61.5t179 -61.5t62 -176.5zM411 222q0 90 -32.5 135t-96.5 45q-63 0 -95.5 -45t-32.5 -135q0 -88 32.5 -132.5t95.5 -44.5q64 0 96.5 44.5t32.5 132.5zM337 -160h-110v92h110v-92z" />
    <glyph glyph-name="ograve" unicode="&#xf2;" horiz-adv-x="564" 
d="M254 531l-119 109h116l85 -109h-82zM523 222q0 -113 -62 -174.5t-179 -61.5t-179 61.5t-62 174.5q0 115 62 176.5t179 61.5t179 -61.5t62 -176.5zM411 222q0 90 -32.5 135t-96.5 45q-63 0 -95.5 -45t-32.5 -135q0 -88 32.5 -132.5t95.5 -44.5q64 0 96.5 44.5t32.5 132.5z
" />
    <glyph glyph-name="ohungarumlaut" unicode="&#x151;" horiz-adv-x="564" 
d="M238 531h-82l79 109h115zM399 531h-82l79 109h115zM523 222q0 -113 -62 -174.5t-179 -61.5t-179 61.5t-62 174.5q0 115 62 176.5t179 61.5t179 -61.5t62 -176.5zM411 222q0 90 -32.5 135t-96.5 45q-63 0 -95.5 -45t-32.5 -135q0 -88 32.5 -132.5t95.5 -44.5
q64 0 96.5 44.5t32.5 132.5z" />
    <glyph glyph-name="omacron" unicode="&#x14d;" horiz-adv-x="564" 
d="M138 556v72h288v-72h-288zM523 222q0 -113 -62 -174.5t-179 -61.5t-179 61.5t-62 174.5q0 115 62 176.5t179 61.5t179 -61.5t62 -176.5zM411 222q0 90 -32.5 135t-96.5 45q-63 0 -95.5 -45t-32.5 -135q0 -88 32.5 -132.5t95.5 -44.5q64 0 96.5 44.5t32.5 132.5z" />
    <glyph glyph-name="uni01EB" unicode="&#x1eb;" horiz-adv-x="564" 
d="M523 222q0 -86 -35.5 -142.5t-103.5 -78.5q-46 -40 -63 -66t-17 -54q0 -21 20 -35.5t49 -14.5h84v-42q-23 -5 -55 -8.5t-59 -3.5q-53 0 -85.5 26t-32.5 66q0 28 15 57.5t53 59.5h-5.5h-5.5q-117 0 -179 61.5t-62 174.5q0 115 62 176.5t179 61.5t179 -61.5t62 -176.5z
M411 222q0 90 -32.5 135t-96.5 45q-63 0 -95.5 -45t-32.5 -135q0 -88 32.5 -132.5t95.5 -44.5q64 0 96.5 44.5t32.5 132.5z" />
    <glyph glyph-name="oslash" unicode="&#xf8;" horiz-adv-x="572" 
d="M527 222q0 -113 -62 -174.5t-179 -61.5q-50 0 -90.5 11.5t-69.5 33.5l-31 -31h-61l60 60q-24 30 -36.5 70.5t-12.5 91.5q0 115 62 176.5t179 61.5q51 0 91.5 -12t70.5 -34l32 32h57l-60 -60q25 -30 37.5 -71.5t12.5 -92.5zM158 222q0 -25 3 -47t8 -40l217 217
q-16 25 -41 37.5t-59 12.5q-63 0 -95.5 -45t-32.5 -135zM415 222q0 26 -3 48.5t-8 41.5l-217 -219q16 -24 41 -36t58 -12q64 0 96.5 44.5t32.5 132.5z" />
    <glyph glyph-name="oslashacute" unicode="&#x1ff;" horiz-adv-x="572" 
d="M333 531h-82l86 109h116zM527 222q0 -113 -62 -174.5t-179 -61.5q-50 0 -90.5 11.5t-69.5 33.5l-31 -31h-61l60 60q-24 30 -36.5 70.5t-12.5 91.5q0 115 62 176.5t179 61.5q51 0 91.5 -12t70.5 -34l32 32h57l-60 -60q25 -30 37.5 -71.5t12.5 -92.5zM158 222q0 -25 3 -47
t8 -40l217 217q-16 25 -41 37.5t-59 12.5q-63 0 -95.5 -45t-32.5 -135zM415 222q0 26 -3 48.5t-8 41.5l-217 -219q16 -24 41 -36t58 -12q64 0 96.5 44.5t32.5 132.5z" />
    <glyph glyph-name="otilde" unicode="&#xf5;" horiz-adv-x="564" 
d="M417 626l28 -43q-22 -29 -44 -40.5t-53 -11.5q-22 0 -38 4t-29 10q-15 7 -31.5 11.5t-37.5 4.5q-20 0 -34.5 -7t-30.5 -23l-29 43q26 31 48.5 43t51.5 12q19 0 38.5 -6t35.5 -12q12 -4 26.5 -8t33.5 -4q22 0 36 6t29 21zM523 222q0 -113 -62 -174.5t-179 -61.5t-179 61.5
t-62 174.5q0 115 62 176.5t179 61.5t179 -61.5t62 -176.5zM411 222q0 90 -32.5 135t-96.5 45q-63 0 -95.5 -45t-32.5 -135q0 -88 32.5 -132.5t95.5 -44.5q64 0 96.5 44.5t32.5 132.5z" />
    <glyph glyph-name="oe" unicode="&#x153;" horiz-adv-x="908" 
d="M849 203h-323q1 -75 35 -115t96 -40q46 0 84 9.5t81 23.5l19 -57q-10 -4 -29 -10.5t-44 -12.5t-54.5 -10.5t-58.5 -4.5q-60 0 -107.5 17.5t-78.5 51.5q-30 -34 -77 -51.5t-110 -17.5q-117 0 -179 61.5t-62 174.5q0 115 62 176.5t179 61.5q62 0 108.5 -17t77.5 -51
q29 33 74 50.5t102 17.5q110 0 169.5 -59.5t59.5 -170.5q0 -13 -6 -20t-18 -7zM411 222q0 90 -32.5 135t-96.5 45q-63 0 -95.5 -45t-32.5 -135q0 -88 32.5 -132.5t95.5 -44.5q64 0 96.5 44.5t32.5 132.5zM526 259h236q0 67 -30.5 104t-85.5 37t-87 -37t-33 -104z" />
    <glyph glyph-name="p" unicode="p" horiz-adv-x="560" 
d="M518 222q0 -119 -54 -177.5t-163 -58.5q-28 0 -58.5 5t-64.5 15v-215h-111v624q51 24 104 34.5t109 10.5q119 0 178.5 -59.5t59.5 -178.5zM406 223q0 93 -33 136t-102 43q-29 0 -50 -6t-43 -19v-311q32 -11 57.5 -16t48.5 -5q63 0 92.5 43t29.5 135z" />
    <glyph glyph-name="uni1E57" unicode="&#x1e57;" horiz-adv-x="560" 
d="M338 633v-100h-112v100h112zM518 222q0 -119 -54 -177.5t-163 -58.5q-28 0 -58.5 5t-64.5 15v-215h-111v624q51 24 104 34.5t109 10.5q119 0 178.5 -59.5t59.5 -178.5zM406 223q0 93 -33 136t-102 43q-29 0 -50 -6t-43 -19v-311q32 -11 57.5 -16t48.5 -5q63 0 92.5 43
t29.5 135z" />
    <glyph glyph-name="thorn" unicode="&#xfe;" horiz-adv-x="563" 
d="M521 222q0 -119 -54 -177.5t-163 -58.5q-28 0 -58.5 5t-64.5 15v-215h-111v841h111v-181q25 4 50.5 6.5t51.5 2.5q119 0 178.5 -59.5t59.5 -178.5zM409 223q0 93 -33 136t-102 43q-29 0 -50 -6t-43 -19v-311q32 -11 57.5 -16t48.5 -5q63 0 92.5 43t29.5 135z" />
    <glyph glyph-name="q" unicode="q" 
d="M280 460q55 0 108 -10.5t106 -34.5v-624h-111v215q-36 -10 -66.5 -15t-57.5 -5q-109 0 -163 58.5t-54 177.5t59.5 178.5t178.5 59.5zM288 45q19 0 42.5 5.5t52.5 15.5v311q-19 11 -41.5 18t-51.5 7q-69 0 -102.5 -44t-33.5 -135q0 -90 33 -134t101 -44z" />
    <glyph glyph-name="r" unicode="r" horiz-adv-x="382" 
d="M379 450l-35 -72q-18 10 -40 15t-47 5q-22 0 -40 -4.5t-39 -14.5v-379h-111v404q53 30 108 43t112 13q27 0 50 -3t42 -7z" />
    <glyph glyph-name="racute" unicode="&#x155;" horiz-adv-x="382" 
d="M229 531h-82l86 109h116zM379 450l-35 -72q-18 10 -40 15t-47 5q-22 0 -40 -4.5t-39 -14.5v-379h-111v404q53 30 108 43t112 13q27 0 50 -3t42 -7z" />
    <glyph glyph-name="rcaron" unicode="&#x159;" horiz-adv-x="382" 
d="M360 640l-89 -109h-117l-88 109h83l64 -61l64 61h83zM379 450l-35 -72q-18 10 -40 15t-47 5q-22 0 -40 -4.5t-39 -14.5v-379h-111v404q53 30 108 43t112 13q27 0 50 -3t42 -7z" />
    <glyph glyph-name="uni0157" unicode="&#x157;" horiz-adv-x="382" 
d="M379 450l-35 -72q-18 10 -40 15t-47 5q-22 0 -40 -4.5t-39 -14.5v-379h-111v404q53 30 108 43t112 13q27 0 50 -3t42 -7zM178 -258h-74l23 190h119z" />
    <glyph glyph-name="uni1E5B" unicode="&#x1e5b;" horiz-adv-x="382" 
d="M379 450l-35 -72q-18 10 -40 15t-47 5q-22 0 -40 -4.5t-39 -14.5v-379h-111v404q53 30 108 43t112 13q27 0 50 -3t42 -7zM177 -159h-110v92h110v-92z" />
    <glyph glyph-name="s" unicode="s" horiz-adv-x="465" 
d="M214 -14q-49 0 -91.5 8t-78.5 21l15 57q26 -9 66 -16.5t81 -7.5q53 0 86 18t33 55q0 26 -28 40.5t-95 30.5q-87 20 -126 49t-39 88q0 64 53 97.5t156 33.5q40 0 79 -8.5t79 -22.5l-18 -55q-37 11 -68.5 17.5t-61.5 6.5q-55 0 -84 -16.5t-29 -47.5q0 -23 30.5 -38.5
t93.5 -28.5q87 -18 126.5 -46.5t39.5 -91.5q0 -69 -57 -106t-162 -37z" />
    <glyph glyph-name="sacute" unicode="&#x15b;" horiz-adv-x="465" 
d="M258 531h-82l86 109h116zM214 -14q-49 0 -91.5 8t-78.5 21l15 57q26 -9 66 -16.5t81 -7.5q53 0 86 18t33 55q0 26 -28 40.5t-95 30.5q-87 20 -126 49t-39 88q0 64 53 97.5t156 33.5q40 0 79 -8.5t79 -22.5l-18 -55q-37 11 -68.5 17.5t-61.5 6.5q-55 0 -84 -16.5
t-29 -47.5q0 -23 30.5 -38.5t93.5 -28.5q87 -18 126.5 -46.5t39.5 -91.5q0 -69 -57 -106t-162 -37z" />
    <glyph glyph-name="scaron" unicode="&#x161;" horiz-adv-x="465" 
d="M381 640l-89 -109h-117l-88 109h83l64 -61l64 61h83zM214 -14q-49 0 -91.5 8t-78.5 21l15 57q26 -9 66 -16.5t81 -7.5q53 0 86 18t33 55q0 26 -28 40.5t-95 30.5q-87 20 -126 49t-39 88q0 64 53 97.5t156 33.5q40 0 79 -8.5t79 -22.5l-18 -55q-37 11 -68.5 17.5
t-61.5 6.5q-55 0 -84 -16.5t-29 -47.5q0 -23 30.5 -38.5t93.5 -28.5q87 -18 126.5 -46.5t39.5 -91.5q0 -69 -57 -106t-162 -37z" />
    <glyph glyph-name="scedilla" unicode="&#x15f;" horiz-adv-x="465" 
d="M214 -14q-49 0 -91.5 8t-78.5 21l15 57q26 -9 66 -16.5t81 -7.5q53 0 86 18t33 55q0 26 -28 40.5t-95 30.5q-87 20 -126 49t-39 88q0 64 53 97.5t156 33.5q40 0 79 -8.5t79 -22.5l-18 -55q-37 11 -68.5 17.5t-61.5 6.5q-55 0 -84 -16.5t-29 -47.5q0 -23 30.5 -38.5
t93.5 -28.5q87 -18 126.5 -46.5t39.5 -91.5q0 -69 -57 -106t-162 -37zM155 -170l8 42q14 -4 25.5 -6t20.5 -2q23 0 33 8t10 21t-10 21.5t-34 8.5q-9 0 -20.5 -2.5t-24.5 -6.5l-8 41q18 4 34.5 6.5t32.5 2.5q54 0 81 -18.5t27 -52.5q0 -35 -27.5 -53.5t-81.5 -18.5
q-13 0 -30 2.5t-36 6.5z" />
    <glyph glyph-name="scircumflex" unicode="&#x15d;" horiz-adv-x="465" 
d="M383 531h-82l-65 62l-63 -62h-83l89 109h116zM214 -14q-49 0 -91.5 8t-78.5 21l15 57q26 -9 66 -16.5t81 -7.5q53 0 86 18t33 55q0 26 -28 40.5t-95 30.5q-87 20 -126 49t-39 88q0 64 53 97.5t156 33.5q40 0 79 -8.5t79 -22.5l-18 -55q-37 11 -68.5 17.5t-61.5 6.5
q-55 0 -84 -16.5t-29 -47.5q0 -23 30.5 -38.5t93.5 -28.5q87 -18 126.5 -46.5t39.5 -91.5q0 -69 -57 -106t-162 -37z" />
    <glyph glyph-name="uni0219" unicode="&#x219;" horiz-adv-x="465" 
d="M214 -14q-49 0 -91.5 8t-78.5 21l15 57q26 -9 66 -16.5t81 -7.5q53 0 86 18t33 55q0 26 -28 40.5t-95 30.5q-87 20 -126 49t-39 88q0 64 53 97.5t156 33.5q40 0 79 -8.5t79 -22.5l-18 -55q-37 11 -68.5 17.5t-61.5 6.5q-55 0 -84 -16.5t-29 -47.5q0 -23 30.5 -38.5
t93.5 -28.5q87 -18 126.5 -46.5t39.5 -91.5q0 -69 -57 -106t-162 -37zM231 -258h-74l23 190h119z" />
    <glyph glyph-name="uni1E61" unicode="&#x1e61;" horiz-adv-x="465" 
d="M284 633v-100h-112v100h112zM214 -14q-49 0 -91.5 8t-78.5 21l15 57q26 -9 66 -16.5t81 -7.5q53 0 86 18t33 55q0 26 -28 40.5t-95 30.5q-87 20 -126 49t-39 88q0 64 53 97.5t156 33.5q40 0 79 -8.5t79 -22.5l-18 -55q-37 11 -68.5 17.5t-61.5 6.5q-55 0 -84 -16.5
t-29 -47.5q0 -23 30.5 -38.5t93.5 -28.5q87 -18 126.5 -46.5t39.5 -91.5q0 -69 -57 -106t-162 -37z" />
    <glyph glyph-name="uni1E63" unicode="&#x1e63;" horiz-adv-x="465" 
d="M214 -14q-49 0 -91.5 8t-78.5 21l15 57q26 -9 66 -16.5t81 -7.5q53 0 86 18t33 55q0 26 -28 40.5t-95 30.5q-87 20 -126 49t-39 88q0 64 53 97.5t156 33.5q40 0 79 -8.5t79 -22.5l-18 -55q-37 11 -68.5 17.5t-61.5 6.5q-55 0 -84 -16.5t-29 -47.5q0 -23 30.5 -38.5
t93.5 -28.5q87 -18 126.5 -46.5t39.5 -91.5q0 -69 -57 -106t-162 -37zM290 -160h-110v92h110v-92z" />
    <glyph glyph-name="germandbls" unicode="&#xdf;" horiz-adv-x="656" 
d="M427 350q86 -8 138.5 -56.5t52.5 -117.5q0 -90 -73 -140t-204 -50q-19 0 -38 1t-35 4v61q15 -2 30 -3t28 -1q80 0 123 35.5t43 100.5q0 53 -43.5 88.5t-115.5 35.5h-33.5t-31.5 -1v62q83 9 123 37t40 77q0 40 -36 67t-91 27q-53 0 -87.5 -33t-34.5 -84v-460h-112v440
q0 91 62 146.5t166 55.5q54 0 100 -11.5t78.5 -31.5t51 -48t18.5 -61q0 -51 -31 -87.5t-88 -52.5z" />
    <glyph glyph-name="uni0259" unicode="&#x259;" horiz-adv-x="536" 
d="M58 243h324q-1 77 -37 116t-93 39q-46 0 -91.5 -10t-73.5 -23l-20 57q46 18 93.5 28t92.5 10q117 0 179.5 -61.5t62.5 -176.5q0 -107 -58.5 -171.5t-171.5 -64.5q-111 0 -170.5 59.5t-59.5 170.5q0 15 5 21t18 6zM382 186h-236q0 -63 29.5 -101.5t87.5 -38.5
q57 0 87.5 38.5t31.5 101.5z" />
    <glyph glyph-name="t" unicode="t" horiz-adv-x="332" 
d="M307 55l-5 -62q-16 -3 -33.5 -5t-36.5 -2q-78 0 -116.5 35.5t-38.5 108.5v250h-55v66h55v128l112 23v-151h117v-66h-117v-255q0 -41 13.5 -57t50.5 -16q16 0 29 1t25 2z" />
    <glyph glyph-name="tbar" unicode="&#x167;" horiz-adv-x="344" 
d="M30 219v61h55v100h-55v66h55v128l112 23v-151h117v-66h-117v-100h112v-61h-112v-94q0 -41 13.5 -57t50.5 -16q16 0 29 1t25 2l-5 -62q-16 -3 -33.5 -5t-36.5 -2q-78 0 -116.5 35.5t-38.5 108.5v89h-55z" />
    <glyph glyph-name="tcaron" unicode="&#x165;" horiz-adv-x="376" 
d="M408 438h-74l23 190h119zM307 55l-5 -62q-16 -3 -33.5 -5t-36.5 -2q-78 0 -116.5 35.5t-38.5 108.5v250h-55v66h55v128l112 23v-151h117v-66h-117v-255q0 -41 13.5 -57t50.5 -16q16 0 29 1t25 2z" />
    <glyph glyph-name="uni0163" unicode="&#x163;" horiz-adv-x="332" 
d="M307 55l-5 -62q-16 -3 -33.5 -5t-36.5 -2q-78 0 -116.5 35.5t-38.5 108.5v250h-55v66h55v128l112 23v-151h117v-66h-117v-255q0 -41 13.5 -57t50.5 -16q16 0 29 1t25 2zM126 -170l8 42q14 -4 25.5 -6t20.5 -2q23 0 33 8t10 21t-10 21.5t-34 8.5q-9 0 -20.5 -2.5
t-24.5 -6.5l-8 41q18 4 34.5 6.5t32.5 2.5q54 0 81 -18.5t27 -52.5q0 -35 -27.5 -53.5t-81.5 -18.5q-13 0 -30 2.5t-36 6.5z" />
    <glyph glyph-name="uni021B" unicode="&#x21b;" horiz-adv-x="332" 
d="M307 55l-5 -62q-16 -3 -33.5 -5t-36.5 -2q-78 0 -116.5 35.5t-38.5 108.5v250h-55v66h55v128l112 23v-151h117v-66h-117v-255q0 -41 13.5 -57t50.5 -16q16 0 29 1t25 2zM184 -258h-74l23 190h119z" />
    <glyph glyph-name="uni1E6B" unicode="&#x1e6b;" horiz-adv-x="332" 
d="M187 755v-100h-112v100h112zM307 55l-5 -62q-16 -3 -33.5 -5t-36.5 -2q-78 0 -116.5 35.5t-38.5 108.5v250h-55v66h55v128l112 23v-151h117v-66h-117v-255q0 -41 13.5 -57t50.5 -16q16 0 29 1t25 2z" />
    <glyph glyph-name="uni1E6D" unicode="&#x1e6d;" horiz-adv-x="332" 
d="M307 55l-5 -62q-16 -3 -33.5 -5t-36.5 -2q-78 0 -116.5 35.5t-38.5 108.5v250h-55v66h55v128l112 23v-151h117v-66h-117v-255q0 -41 13.5 -57t50.5 -16q16 0 29 1t25 2zM230 -160h-110v92h110v-92z" />
    <glyph glyph-name="u" unicode="u" horiz-adv-x="562" 
d="M65 446h112v-309q0 -48 24.5 -68.5t81.5 -20.5q26 0 49 4t51 14v380h112v-400q-55 -31 -111.5 -45.5t-127.5 -14.5q-101 0 -146 39.5t-45 129.5v291z" />
    <glyph glyph-name="uacute" unicode="&#xfa;" horiz-adv-x="562" 
d="M318 531h-82l86 109h116zM65 446h112v-309q0 -48 24.5 -68.5t81.5 -20.5q26 0 49 4t51 14v380h112v-400q-55 -31 -111.5 -45.5t-127.5 -14.5q-101 0 -146 39.5t-45 129.5v291z" />
    <glyph glyph-name="ubreve" unicode="&#x16d;" horiz-adv-x="562" 
d="M423 650q-6 -56 -44 -89.5t-98 -33.5q-61 0 -100 32t-43 91h60q5 -33 29.5 -48t52.5 -15q31 0 54.5 15t29.5 48h59zM65 446h112v-309q0 -48 24.5 -68.5t81.5 -20.5q26 0 49 4t51 14v380h112v-400q-55 -31 -111.5 -45.5t-127.5 -14.5q-101 0 -146 39.5t-45 129.5v291z" />
    <glyph glyph-name="uni01D4" unicode="&#x1d4;" horiz-adv-x="562" 
d="M427 640l-89 -109h-117l-88 109h83l64 -61l64 61h83zM65 446h112v-309q0 -48 24.5 -68.5t81.5 -20.5q26 0 49 4t51 14v380h112v-400q-55 -31 -111.5 -45.5t-127.5 -14.5q-101 0 -146 39.5t-45 129.5v291z" />
    <glyph glyph-name="ucircumflex" unicode="&#xfb;" horiz-adv-x="562" 
d="M426 531h-82l-65 62l-63 -62h-83l89 109h116zM65 446h112v-309q0 -48 24.5 -68.5t81.5 -20.5q26 0 49 4t51 14v380h112v-400q-55 -31 -111.5 -45.5t-127.5 -14.5q-101 0 -146 39.5t-45 129.5v291z" />
    <glyph glyph-name="udieresis" unicode="&#xfc;" horiz-adv-x="562" 
d="M243 628v-97h-87v97h87zM402 628v-97h-87v97h87zM65 446h112v-309q0 -48 24.5 -68.5t81.5 -20.5q26 0 49 4t51 14v380h112v-400q-55 -31 -111.5 -45.5t-127.5 -14.5q-101 0 -146 39.5t-45 129.5v291z" />
    <glyph glyph-name="uni01D8" unicode="&#x1d8;" horiz-adv-x="562" 
d="M308 711h-83l86 109h116zM242 628v-97h-87v97h87zM401 628v-97h-87v97h87zM65 446h112v-309q0 -48 24.5 -68.5t81.5 -20.5q26 0 49 4t51 14v380h112v-400q-55 -31 -111.5 -45.5t-127.5 -14.5q-101 0 -146 39.5t-45 129.5v291z" />
    <glyph glyph-name="uni01DA" unicode="&#x1da;" horiz-adv-x="562" 
d="M426 810l-88 -109h-116l-88 109h82l64 -62l64 62h82zM242 628v-97h-87v97h87zM401 628v-97h-87v97h87zM65 446h112v-309q0 -48 24.5 -68.5t81.5 -20.5q26 0 49 4t51 14v380h112v-400q-55 -31 -111.5 -45.5t-127.5 -14.5q-101 0 -146 39.5t-45 129.5v291z" />
    <glyph glyph-name="uni01DC" unicode="&#x1dc;" horiz-adv-x="562" 
d="M255 711l-119 109h116l86 -109h-83zM242 628v-97h-87v97h87zM401 628v-97h-87v97h87zM65 446h112v-309q0 -48 24.5 -68.5t81.5 -20.5q26 0 49 4t51 14v380h112v-400q-55 -31 -111.5 -45.5t-127.5 -14.5q-101 0 -146 39.5t-45 129.5v291z" />
    <glyph glyph-name="uni01D6" unicode="&#x1d6;" horiz-adv-x="562" 
d="M136 711v77h288v-77h-288zM242 628v-97h-87v97h87zM401 628v-97h-87v97h87zM65 446h112v-309q0 -48 24.5 -68.5t81.5 -20.5q26 0 49 4t51 14v380h112v-400q-55 -31 -111.5 -45.5t-127.5 -14.5q-101 0 -146 39.5t-45 129.5v291z" />
    <glyph glyph-name="uni1EE5" unicode="&#x1ee5;" horiz-adv-x="562" 
d="M65 446h112v-309q0 -48 24.5 -68.5t81.5 -20.5q26 0 49 4t51 14v380h112v-400q-55 -31 -111.5 -45.5t-127.5 -14.5q-101 0 -146 39.5t-45 129.5v291zM336 -160h-110v92h110v-92z" />
    <glyph glyph-name="ugrave" unicode="&#xf9;" horiz-adv-x="562" 
d="M268 531l-119 109h116l85 -109h-82zM65 446h112v-309q0 -48 24.5 -68.5t81.5 -20.5q26 0 49 4t51 14v380h112v-400q-55 -31 -111.5 -45.5t-127.5 -14.5q-101 0 -146 39.5t-45 129.5v291z" />
    <glyph glyph-name="uhungarumlaut" unicode="&#x171;" horiz-adv-x="562" 
d="M228 531h-82l79 109h115zM389 531h-82l79 109h115zM65 446h112v-309q0 -48 24.5 -68.5t81.5 -20.5q26 0 49 4t51 14v380h112v-400q-55 -31 -111.5 -45.5t-127.5 -14.5q-101 0 -146 39.5t-45 129.5v291z" />
    <glyph glyph-name="umacron" unicode="&#x16b;" horiz-adv-x="562" 
d="M140 556v72h288v-72h-288zM65 446h112v-309q0 -48 24.5 -68.5t81.5 -20.5q26 0 49 4t51 14v380h112v-400q-55 -31 -111.5 -45.5t-127.5 -14.5q-101 0 -146 39.5t-45 129.5v291z" />
    <glyph glyph-name="uogonek" unicode="&#x173;" horiz-adv-x="562" 
d="M65 446h112v-309q0 -48 24.5 -68.5t81.5 -20.5q26 0 49 4t51 14v380h112v-400q-25 -14 -50.5 -25t-50.5 -18q-47 -41 -65 -67.5t-18 -54.5q0 -21 20 -35.5t49 -14.5h84v-42q-23 -5 -55 -8.5t-59 -3.5q-53 0 -85.5 26t-32.5 66q0 28 15.5 58t54.5 61q-11 -1 -22.5 -1.5
t-23.5 -0.5q-101 0 -146 39.5t-45 129.5v291z" />
    <glyph glyph-name="uring" unicode="&#x16f;" horiz-adv-x="562" 
d="M392 614q1 -4 2 -9t1 -10q0 -34 -28.5 -51.5t-85.5 -17.5t-86 17.5t-29 51.5t29 51.5t86 17.5q49 0 77 -12.5t34 -37.5zM322 595q0 25 -9.5 34.5t-31.5 9.5q-24 0 -33.5 -9.5t-9.5 -34.5t9.5 -34.5t33.5 -9.5q22 0 31.5 9.5t9.5 34.5zM65 446h112v-309q0 -48 24.5 -68.5
t81.5 -20.5q26 0 49 4t51 14v380h112v-400q-55 -31 -111.5 -45.5t-127.5 -14.5q-101 0 -146 39.5t-45 129.5v291z" />
    <glyph glyph-name="utilde" unicode="&#x169;" horiz-adv-x="562" 
d="M415 626l28 -43q-22 -29 -44 -40.5t-53 -11.5q-22 0 -38 4t-29 10q-15 7 -31.5 11.5t-37.5 4.5q-20 0 -34.5 -7t-30.5 -23l-29 43q26 31 48.5 43t51.5 12q19 0 38.5 -6t35.5 -12q12 -4 26.5 -8t33.5 -4q22 0 36 6t29 21zM65 446h112v-309q0 -48 24.5 -68.5t81.5 -20.5
q26 0 49 4t51 14v380h112v-400q-55 -31 -111.5 -45.5t-127.5 -14.5q-101 0 -146 39.5t-45 129.5v291z" />
    <glyph glyph-name="v" unicode="v" horiz-adv-x="509" 
d="M405 446h86l-177 -446h-119l-178 446h131l124 -345z" />
    <glyph glyph-name="w" unicode="w" horiz-adv-x="760" 
d="M656 446h84l-143 -446h-108l-107 333l-108 -333h-105l-153 446h132l96 -327l104 327h107l105 -327z" />
    <glyph glyph-name="wacute" unicode="&#x1e83;" horiz-adv-x="760" 
d="M433 531h-82l86 109h116zM656 446h84l-143 -446h-108l-107 333l-108 -333h-105l-153 446h132l96 -327l104 327h107l105 -327z" />
    <glyph glyph-name="wcircumflex" unicode="&#x175;" horiz-adv-x="760" 
d="M548 531h-82l-65 62l-63 -62h-83l89 109h116zM656 446h84l-143 -446h-108l-107 333l-108 -333h-105l-153 446h132l96 -327l104 327h107l105 -327z" />
    <glyph glyph-name="wdieresis" unicode="&#x1e85;" horiz-adv-x="760" 
d="M361 628v-97h-87v97h87zM520 628v-97h-87v97h87zM656 446h84l-143 -446h-108l-107 333l-108 -333h-105l-153 446h132l96 -327l104 327h107l105 -327z" />
    <glyph glyph-name="wgrave" unicode="&#x1e81;" horiz-adv-x="760" 
d="M370 531l-119 109h116l85 -109h-82zM656 446h84l-143 -446h-108l-107 333l-108 -333h-105l-153 446h132l96 -327l104 327h107l105 -327z" />
    <glyph glyph-name="x" unicode="x" horiz-adv-x="500" 
d="M494 0h-139l-120 163l-137 -163h-95l188 221l-167 225h132l107 -140l119 140h97l-171 -200z" />
    <glyph glyph-name="y" unicode="y" horiz-adv-x="480" 
d="M191 32l-174 414h128l110 -291l118 291h93l-283 -655h-98z" />
    <glyph glyph-name="yacute" unicode="&#xfd;" horiz-adv-x="480" 
d="M285 531h-82l86 109h116zM191 32l-174 414h128l110 -291l118 291h93l-283 -655h-98z" />
    <glyph glyph-name="ycircumflex" unicode="&#x177;" horiz-adv-x="480" 
d="M401 531h-82l-65 62l-63 -62h-83l89 109h116zM191 32l-174 414h128l110 -291l118 291h93l-283 -655h-98z" />
    <glyph glyph-name="ydieresis" unicode="&#xff;" horiz-adv-x="480" 
d="M218 628v-97h-87v97h87zM377 628v-97h-87v97h87zM191 32l-174 414h128l110 -291l118 291h93l-283 -655h-98z" />
    <glyph glyph-name="ygrave" unicode="&#x1ef3;" horiz-adv-x="480" 
d="M230 532l-119 109h116l85 -109h-82zM191 32l-174 414h128l110 -291l118 291h93l-283 -655h-98z" />
    <glyph glyph-name="uni0233" unicode="&#x233;" horiz-adv-x="480" 
d="M106 556v72h288v-72h-288zM191 32l-174 414h128l110 -291l118 291h93l-283 -655h-98z" />
    <glyph glyph-name="uni1EF9" unicode="&#x1ef9;" horiz-adv-x="480" 
d="M377 626l28 -43q-22 -29 -44 -40.5t-53 -11.5q-22 0 -38 4t-29 10q-15 7 -31.5 11.5t-37.5 4.5q-20 0 -34.5 -7t-30.5 -23l-29 43q26 31 48.5 43t51.5 12q19 0 38.5 -6t35.5 -12q12 -4 26.5 -8t33.5 -4q22 0 36 6t29 21zM191 32l-174 414h128l110 -291l118 291h93
l-283 -655h-98z" />
    <glyph glyph-name="z" unicode="z" horiz-adv-x="483" 
d="M444 373l-275 -311h279v-62h-420v67l295 319h-273v60h394v-73z" />
    <glyph glyph-name="zacute" unicode="&#x17a;" horiz-adv-x="483" 
d="M277 531h-82l86 109h116zM444 373l-275 -311h279v-62h-420v67l295 319h-273v60h394v-73z" />
    <glyph glyph-name="zcaron" unicode="&#x17e;" horiz-adv-x="483" 
d="M396 640l-89 -109h-117l-88 109h83l64 -61l64 61h83zM444 373l-275 -311h279v-62h-420v67l295 319h-273v60h394v-73z" />
    <glyph glyph-name="zdotaccent" unicode="&#x17c;" horiz-adv-x="483" 
d="M302 633v-100h-112v100h112zM444 373l-275 -311h279v-62h-420v67l295 319h-273v60h394v-73z" />
    <glyph glyph-name="uni1E93" unicode="&#x1e93;" horiz-adv-x="483" 
d="M444 373l-275 -311h279v-62h-420v67l295 319h-273v60h394v-73zM294 -160h-110v92h110v-92z" />
    <glyph glyph-name="ordfeminine" unicode="&#xaa;" horiz-adv-x="371" 
d="M307 386q-28 -11 -58 -17.5t-61 -6.5q-53 0 -94.5 18.5t-41.5 67.5q0 52 53 70t136 18v17q0 30 -17.5 41t-47.5 11q-22 0 -43 -2.5t-43 -9.5l-11 32q28 9 55.5 13t57.5 4q57 0 86 -24.5t29 -78.5v-153zM241 504q-10 0 -23 -0.5t-25 -1.5q-34 -2 -55.5 -13.5t-21.5 -42.5
q0 -27 19 -38.5t50 -11.5q15 0 30.5 3t25.5 6v99zM63 316h244v-46h-244v46z" />
    <glyph glyph-name="ordmasculine" unicode="&#xba;" horiz-adv-x="394" 
d="M197 363q-63 0 -102 34t-39 106q0 66 36.5 102.5t104.5 36.5q63 0 102 -35t39 -104t-37 -104.5t-104 -35.5zM271 503q0 44 -16 74.5t-58 30.5q-40 0 -57.5 -28.5t-17.5 -76.5q0 -46 16.5 -76t58.5 -30q40 0 57 29.5t17 76.5zM67 270v46h259v-46h-259z" />
    <glyph glyph-name="uni0410" unicode="&#x410;" horiz-adv-x="636" 
d="M487 0l-57 166h-272l-59 -166h-82l224 628h151l229 -628h-134zM180 229h228l-112 326z" />
    <glyph glyph-name="uni0411" unicode="&#x411;" horiz-adv-x="607" 
d="M505 628v-62h-307v-172h113q119 -1 193 -55.5t74 -142.5q0 -99 -76 -147.5t-231 -48.5h-191v628h425zM198 63h99q78 0 116.5 35t38.5 106q0 57 -40.5 92t-105.5 35h-108v-268z" />
    <glyph glyph-name="uni0412" unicode="&#x412;" horiz-adv-x="661" 
d="M440 348q84 -9 133.5 -52.5t49.5 -105.5q0 -95 -85.5 -142.5t-257.5 -47.5h-200v628h241q125 0 187 -36.5t62 -111.5q0 -46 -33.5 -80t-96.5 -52zM313 566h-115v-204q124 0 188.5 29.5t64.5 84.5q0 44 -35 67t-103 23zM198 62h81q113 0 166 33.5t53 104.5q0 49 -46.5 78
t-124.5 29q-30 0 -61.5 -2t-67.5 -6v-237z" />
    <glyph glyph-name="uni0413" unicode="&#x413;" horiz-adv-x="522" 
d="M80 0v628h421v-62h-303v-566h-118z" />
    <glyph glyph-name="uni0403" unicode="&#x403;" horiz-adv-x="522" 
d="M318 711h-83l86 109h116zM80 0v628h421v-62h-303v-566h-118z" />
    <glyph glyph-name="uni0490" unicode="&#x490;" horiz-adv-x="521" 
d="M382 745h119v-179h-303v-566h-118v628h302v117z" />
    <glyph glyph-name="uni0414" unicode="&#x414;" horiz-adv-x="658" 
d="M13 -128v190q44 13 73 42t32 92l20 432h418v-566h69v-190h-119v128h-374v-128h-119zM254 566l-17 -370q-2 -43 -15 -76.5t-35 -57.5h251v504h-184z" />
    <glyph glyph-name="uni0415" unicode="&#x415;" horiz-adv-x="558" 
d="M513 628v-62h-315v-209h278v-63h-278v-232h315v-62h-433v628h433z" />
    <glyph glyph-name="uni0401" unicode="&#x401;" horiz-adv-x="558" 
d="M255 813v-102h-94v102h94zM431 813v-102h-95v102h95zM513 628v-62h-315v-209h278v-63h-278v-232h315v-62h-433v628h433z" />
    <glyph glyph-name="uni0416" unicode="&#x416;" horiz-adv-x="938" 
d="M-12 0l299 339l-245 289h134l212 -260h22v260h117v-260h23l211 260h135l-246 -289l299 -339h-149l-251 306h-22v-306h-117v306h-22l-250 -306h-150z" />
    <glyph glyph-name="uni0417" unicode="&#x417;" horiz-adv-x="558" 
d="M336 337q89 -13 136 -54t47 -110q0 -54 -26.5 -90t-66 -57.5t-87.5 -30.5t-90 -9q-73 0 -130 20t-94 39l19 58q45 -22 94 -38.5t100 -16.5q80 0 119.5 36t39.5 94t-59.5 89.5t-154.5 31.5h-62v62h62q95 0 141.5 36.5t46.5 85.5q0 46 -39 71t-106 25q-36 0 -77 -11
t-80 -31l-20 56q49 25 99 37t91 12q109 0 176.5 -41.5t67.5 -115.5q0 -57 -40.5 -94t-106.5 -54z" />
    <glyph glyph-name="uni0418" unicode="&#x418;" horiz-adv-x="708" 
d="M157 628v-524l323 524h148v-628h-78v523l-320 -523h-150v628h77z" />
    <glyph glyph-name="uni0419" unicode="&#x419;" horiz-adv-x="708" 
d="M497 831q-6 -54 -41 -89.5t-101 -35.5t-102.5 34.5t-40.5 90.5h60q5 -31 27.5 -48t54.5 -17q33 0 55.5 17t28.5 48h59zM157 628v-524l323 524h148v-628h-78v523l-320 -523h-150v628h77z" />
    <glyph glyph-name="uni041A" unicode="&#x41a;" horiz-adv-x="624" 
d="M635 0h-150l-266 306h-21v-306h-118v628h118v-260h22l227 260h135l-262 -289z" />
    <glyph glyph-name="uni040C" unicode="&#x40c;" horiz-adv-x="624" 
d="M352 711h-83l86 109h116zM635 0h-150l-266 306h-21v-306h-118v628h118v-260h22l227 260h135l-262 -289z" />
    <glyph glyph-name="uni041B" unicode="&#x41b;" horiz-adv-x="644" 
d="M258 566l-22 -370q-6 -94 -64 -145t-159 -51v62q52 16 77 47t27 87l25 432h422v-628h-118v566h-188z" />
    <glyph glyph-name="uni041C" unicode="&#x41c;" horiz-adv-x="824" 
d="M565 628h144l66 -628h-122l-50 533l-161 -533h-102l-153 530l-43 -530h-93l63 628h150l148 -492z" />
    <glyph glyph-name="uni041D" unicode="&#x41d;" horiz-adv-x="679" 
d="M481 357v271h118v-628h-118v295h-284v-295h-117v628h117v-271h284z" />
    <glyph glyph-name="uni041E" unicode="&#x41e;" horiz-adv-x="732" 
d="M366 642q153 0 237 -86t84 -243q0 -155 -84 -241t-237 -86q-152 0 -236.5 86t-84.5 241q0 157 84.5 243t236.5 86zM366 49q95 0 143 65.5t48 198.5q0 134 -48 200t-143 66t-142.5 -66t-47.5 -200q0 -133 47.5 -198.5t142.5 -65.5z" />
    <glyph glyph-name="uni041F" unicode="&#x41f;" horiz-adv-x="679" 
d="M198 0h-118v628h519v-628h-118v566h-283v-566z" />
    <glyph glyph-name="uni0420" unicode="&#x420;" horiz-adv-x="629" 
d="M600 456q0 -100 -87.5 -147.5t-276.5 -47.5h-38v-261h-118v628h265q126 0 190.5 -43.5t64.5 -128.5zM479 458q0 52 -37.5 80t-108.5 28h-135v-244q147 0 214 30t67 106z" />
    <glyph glyph-name="uni0421" unicode="&#x421;" horiz-adv-x="594" 
d="M551 88l18 -65q-51 -17 -104.5 -27t-106.5 -10q-150 0 -231.5 85.5t-81.5 243.5q0 157 81.5 242t231.5 85q49 0 104 -10t107 -28l-18 -63q-46 17 -90.5 26t-84.5 9q-101 0 -153 -66.5t-52 -194.5q0 -129 51.5 -195t152.5 -66q43 0 86.5 8t89.5 26z" />
    <glyph glyph-name="uni0422" unicode="&#x422;" horiz-adv-x="571" 
d="M552 628v-62h-208v-566h-118v566h-207v62h533z" />
    <glyph glyph-name="uni0423" unicode="&#x423;" horiz-adv-x="526" 
d="M343 169q-34 -86 -101 -132t-163 -46v68q44 0 80.5 14.5t62.5 42.5l-212 512h133l152 -366l146 366h84z" />
    <glyph glyph-name="uni040E" unicode="&#x40e;" horiz-adv-x="526" 
d="M439 831q-6 -54 -41 -89.5t-101 -35.5t-102.5 34.5t-40.5 90.5h60q5 -31 27.5 -48t54.5 -17q33 0 55.5 17t28.5 48h59zM343 169q-35 -90 -105.5 -134t-158.5 -44v68q43 0 80 15t63 43l-212 511h133l152 -366l146 366h84z" />
    <glyph glyph-name="uni0424" unicode="&#x424;" horiz-adv-x="760" 
d="M440 628v-60q134 -12 206 -78t72 -179q0 -107 -72 -170t-206 -75v-66h-119v66q-134 11 -207 74.5t-73 170.5q0 113 73 179.5t207 78.5v59h119zM172 311q0 -77 37 -122.5t112 -57.5v373q-75 -13 -112 -61.5t-37 -131.5zM587 311q0 83 -36.5 131.5t-110.5 61.5v-372
q74 12 110.5 57t36.5 122z" />
    <glyph glyph-name="uni0425" unicode="&#x425;" horiz-adv-x="593" 
d="M596 0h-146l-167 251l-182 -251h-105l241 317l-206 311h137l142 -218l153 218h99l-206 -283z" />
    <glyph glyph-name="uni0427" unicode="&#x427;" horiz-adv-x="608" 
d="M53 628h118v-272q0 -46 32 -65.5t97 -19.5q27 0 55.5 5.5t55.5 15.5v336h118v-628h-118v224q-34 -8 -69 -12.5t-70 -4.5q-116 0 -167.5 39t-51.5 131v251z" />
    <glyph glyph-name="uni0426" unicode="&#x426;" horiz-adv-x="706" 
d="M562 -128v128h-482v628h118v-566h283v566h118v-566h81v-190h-118z" />
    <glyph glyph-name="uni0428" unicode="&#x428;" horiz-adv-x="891" 
d="M198 628v-566h189v566h117v-566h189v566h118v-628h-731v628h118z" />
    <glyph glyph-name="uni0429" unicode="&#x429;" horiz-adv-x="918" 
d="M198 628v-566h189v566h117v-566h189v566h118v-566h82v-190h-119v128h-694v628h118z" />
    <glyph glyph-name="uni040F" unicode="&#x40f;" horiz-adv-x="679" 
d="M280 -128v128h-200v628h118v-566h283v566h118v-628h-201v-128h-118z" />
    <glyph glyph-name="uni042F" unicode="&#x42f;" horiz-adv-x="646" 
d="M50 467q0 80 64.5 120.5t191.5 40.5h261v-628h-119v272q-34 0 -68 1.5t-68 5.5l-152 -279h-139l175 300q-72 22 -109 63.5t-37 103.5zM171 470q0 -66 66 -101t196 -35h15v232h-131q-71 0 -108.5 -24.5t-37.5 -71.5z" />
    <glyph glyph-name="uni042C" unicode="&#x42c;" horiz-adv-x="605" 
d="M198 628v-234h113q57 0 105.5 -15.5t84 -41.5t55.5 -62.5t20 -78.5q0 -101 -74 -148.5t-231 -47.5h-191v628h118zM198 62h99q78 0 116 35t38 107q0 54 -41 90.5t-104 36.5h-108v-269z" />
    <glyph glyph-name="uni042A" unicode="&#x42a;" horiz-adv-x="653" 
d="M255 628v-234h112q55 0 102.5 -15.5t81 -41.5t53 -62.5t19.5 -78.5q0 -101 -72 -148.5t-223 -47.5h-191v566h-121v62h239zM255 63h99q74 0 109 34.5t35 106.5q0 55 -38.5 91t-97.5 36h-107v-268z" />
    <glyph glyph-name="uni042B" unicode="&#x42b;" horiz-adv-x="849" 
d="M198 628v-234h113q57 0 106 -15.5t84 -41.5t55 -62.5t20 -78.5q0 -101 -73.5 -148.5t-231.5 -47.5h-191v628h118zM769 628v-628h-118v628h118zM198 63h99q81 0 118 34t37 107q0 55 -41.5 91t-104.5 36h-108v-268z" />
    <glyph glyph-name="uni0409" unicode="&#x409;" horiz-adv-x="954" 
d="M253 566l-17 -370q-4 -95 -63 -145.5t-160 -50.5v62q49 14 75.5 44.5t29.5 89.5l19 432h424v-234h96q58 0 107 -15t84.5 -41.5t55.5 -62.5t20 -79q0 -101 -74 -148.5t-233 -47.5h-175v566h-189zM652 331h-91v-269h82q80 0 118 34.5t38 107.5q0 55 -42 91t-105 36z" />
    <glyph glyph-name="uni040A" unicode="&#x40a;" horiz-adv-x="980" 
d="M588 628v-271h97q57 0 106.5 -14t85 -37.5t55.5 -57t20 -72.5q0 -89 -75.5 -132.5t-231.5 -43.5h-175v295h-273v-295h-117v628h117v-271h273v271h118zM588 63h83q79 0 117 29t38 89q0 49 -41.5 81t-104.5 32h-92v-231z" />
    <glyph glyph-name="uni0405" unicode="&#x405;" horiz-adv-x="575" 
d="M303 382q131 -30 187.5 -74t56.5 -120q0 -93 -76 -147.5t-205 -54.5q-57 0 -111 13.5t-105 36.5l17 55q51 -22 99 -32t88 -10q87 0 131 31t44 83q0 37 -36.5 62t-124.5 46q-69 16 -114 35.5t-70.5 41.5t-36 48.5t-10.5 57.5q0 84 73 136t193 52q44 0 93.5 -11.5
t95.5 -34.5l-20 -56q-40 17 -82.5 28.5t-83.5 11.5q-72 0 -115 -28t-43 -73q0 -36 34 -57t121 -40z" />
    <glyph glyph-name="uni0404" unicode="&#x404;" horiz-adv-x="594" 
d="M551 87l17 -64q-51 -18 -106 -27.5t-104 -9.5q-148 0 -230.5 87t-82.5 242q0 154 82.5 240.5t230.5 86.5q49 0 104 -9.5t106 -28.5l-17 -63q-43 17 -87.5 26t-87.5 9q-93 0 -145.5 -59.5t-58.5 -172.5h288v-65h-288q7 -110 59 -167.5t144 -57.5q43 0 87 8.5t89 24.5z" />
    <glyph glyph-name="uni042D" unicode="&#x42d;" horiz-adv-x="594" 
d="M43 87q46 -17 89.5 -25t86.5 -8q93 0 144.5 57.5t58.5 167.5h-288v65h288q-5 113 -57 172.5t-147 59.5q-43 0 -87 -9t-88 -26l-17 63q51 19 106 28.5t105 9.5q149 0 230.5 -85.5t81.5 -241.5q0 -157 -82 -243t-231 -86q-49 0 -103.5 9t-106.5 28z" />
    <glyph glyph-name="uni0406" unicode="&#x406;" horiz-adv-x="278" 
d="M198 628v-628h-118v628h118z" />
    <glyph glyph-name="uni0407" unicode="&#x407;" horiz-adv-x="278" 
d="M98 813v-102h-94v102h94zM274 813v-102h-95v102h95zM198 628v-628h-118v628h118z" />
    <glyph glyph-name="uni0408" unicode="&#x408;" horiz-adv-x="289" 
d="M92 628h117v-651q0 -78 -55 -120t-155 -43q-9 0 -21 2t-23 5l7 60q9 -2 18.5 -3t16.5 -1q49 0 72 19.5t23 64.5v667z" />
    <glyph glyph-name="uni040B" unicode="&#x40b;" horiz-adv-x="725" 
d="M674 0h-116v254q0 46 -30 66t-96 20q-22 0 -47.5 -5.5t-50.5 -15.5v-319h-119v566h-196v62h511v-62h-196v-180q30 7 61.5 11t64.5 4q115 0 164.5 -38.5t49.5 -131.5v-231z" />
    <glyph glyph-name="uni042E" unicode="&#x42e;" horiz-adv-x="1006" 
d="M640 642q154 0 237.5 -85.5t83.5 -243.5q0 -157 -83.5 -242t-237.5 -85q-149 0 -232.5 80t-88.5 229h-122v-295h-117v628h117v-271h124q11 137 93.5 211t225.5 74zM640 49q96 0 143.5 65t47.5 199q0 136 -47.5 201t-143.5 65t-143 -65t-47 -201q0 -134 47 -199t143 -65z
" />
    <glyph glyph-name="uni0402" unicode="&#x402;" horiz-adv-x="709" 
d="M426 0v60q63 0 96.5 39t33.5 103q0 63 -34.5 100.5t-91.5 37.5q-24 0 -50 -5.5t-47 -15.5v-319h-119v566h-195v62h505v-62h-191v-182q34 8 66 12.5t59 4.5q99 0 157 -54t58 -144q0 -93 -67 -148t-180 -55z" />
    <glyph glyph-name="uni0430" unicode="&#x430;" horiz-adv-x="523" 
d="M463 287v-261q-48 -19 -99 -29.5t-103 -10.5q-114 0 -173.5 37.5t-59.5 108.5q0 66 60 101t174 43q21 1 47 2t42 1v36q0 43 -27 62.5t-85 19.5q-34 0 -72 -5t-75 -15l-18 56q46 13 95 20t98 7q99 0 147.5 -43t48.5 -130zM351 58v169q-17 0 -40.5 -1.5t-42.5 -2.5
q-67 -4 -99 -27t-32 -67q0 -42 30 -64t87 -22q25 0 52.5 5t44.5 10z" />
    <glyph glyph-name="uni0431" unicode="&#x431;" horiz-adv-x="574" 
d="M533 230q0 -110 -64.5 -177t-170.5 -67q-113 0 -182 80t-69 213q0 84 19 153t55.5 118t89.5 76t120 27q40 0 77 5t71 19v-66q-37 -11 -68 -18t-80 -7q-66 0 -102.5 -45.5t-50.5 -123.5q30 20 65 31.5t69 11.5q102 0 161.5 -61.5t59.5 -168.5zM168 283q0 -111 34 -173
t96 -62q57 0 89 49t32 137q0 75 -31 117t-87 42q-39 0 -72.5 -12.5t-58.5 -36.5q-1 -15 -1.5 -30t-0.5 -31z" />
    <glyph glyph-name="uni0432" unicode="&#x432;" horiz-adv-x="526" 
d="M352 249q66 -4 102 -33t36 -77q0 -72 -71 -105.5t-220 -33.5h-129v446h194q95 0 142.5 -25.5t47.5 -75.5q0 -35 -25.5 -59.5t-76.5 -36.5zM254 384h-72v-121q77 0 116.5 18.5t39.5 54.5q0 24 -21.5 36t-62.5 12zM182 62h32q82 0 121 20t39 61q0 30 -25.5 46.5t-71.5 16.5
q-22 0 -46 -2t-49 -5v-137z" />
    <glyph glyph-name="uni0433" unicode="&#x433;" horiz-adv-x="374" 
d="M370 448l-27 -70q-19 8 -41.5 12.5t-45.5 4.5q-20 0 -38 -4t-38 -14v-377h-111v407q52 28 105 40.5t103 12.5q25 0 48.5 -3t44.5 -9z" />
    <glyph glyph-name="uni0453" unicode="&#x453;" horiz-adv-x="379" 
d="M236 531h-82l86 109h116zM370 448l-27 -70q-19 8 -41.5 12.5t-45.5 4.5q-20 0 -38 -4t-38 -14v-377h-111v407q52 28 105 40.5t103 12.5q25 0 48.5 -3t44.5 -9z" />
    <glyph glyph-name="uni0491" unicode="&#x491;" horiz-adv-x="416" 
d="M283 562h113v-178h-214v-384h-112v446h213v116z" />
    <glyph glyph-name="uni0434" unicode="&#x434;" horiz-adv-x="577" 
d="M16 -116v178q38 11 61.5 41t28.5 93l18 250h360v-384h69v-178h-113v116h-308v-116h-116zM232 384l-14 -188q-3 -43 -15 -76.5t-32 -57.5h199v322h-138z" />
    <glyph glyph-name="uni0435" unicode="&#x435;" horiz-adv-x="536" 
d="M477 203h-323q1 -72 36 -113.5t95 -41.5q44 0 89.5 11t75.5 22l19 -57q-45 -18 -94 -28t-92 -10q-113 0 -177.5 63t-64.5 174t61.5 174t169.5 63q109 0 169 -60.5t60 -169.5q0 -13 -6.5 -20t-17.5 -7zM154 259h236q0 66 -31 103.5t-85 37.5t-86.5 -37.5t-33.5 -103.5z
" />
    <glyph glyph-name="uni0451" unicode="&#x451;" horiz-adv-x="536" 
d="M235 628v-97h-87v97h87zM394 628v-97h-87v97h87zM477 203h-323q1 -75 35 -115t96 -40q46 0 84 9.5t81 23.5l19 -57q-10 -4 -29 -10.5t-44 -12.5t-54.5 -10.5t-58.5 -4.5q-115 0 -178.5 62.5t-63.5 174.5t60.5 174.5t170.5 62.5t169.5 -59.5t59.5 -170.5q0 -13 -6 -20
t-18 -7zM154 259h236q0 67 -30.5 104t-85.5 37t-87 -37t-33 -104z" />
    <glyph glyph-name="uni0436" unicode="&#x436;" horiz-adv-x="773" 
d="M208 242l-182 204h128l152 -177h25v177h111v-177h25l152 177h129l-183 -204l208 -242h-145l-161 206h-25v-206h-111v206h-25l-160 -206h-145z" />
    <glyph glyph-name="uni0437" unicode="&#x437;" horiz-adv-x="450" 
d="M283 241q60 -8 94.5 -39.5t34.5 -78.5q0 -66 -55.5 -101.5t-157.5 -35.5q-46 0 -90.5 12.5t-87.5 34.5l20 59q37 -19 74.5 -31t74.5 -12q51 0 79.5 20.5t28.5 57.5q0 38 -38.5 58t-115.5 20h-52v63h53q65 0 99 20t34 57q0 25 -26 39t-70 14q-28 0 -61 -9t-61 -24l-21 57
q35 17 75.5 27.5t77.5 10.5q93 0 146 -28.5t53 -81.5q0 -39 -30 -67.5t-78 -41.5z" />
    <glyph glyph-name="uni0438" unicode="&#x438;" horiz-adv-x="566" 
d="M147 446v-349l207 349h143v-446h-79v348l-207 -348h-141v446h77z" />
    <glyph glyph-name="uni0439" unicode="&#x439;" horiz-adv-x="566" 
d="M434 650q-6 -56 -44 -89.5t-98 -33.5q-61 0 -100 32t-43 91h60q5 -33 29.5 -48t52.5 -15q31 0 54.5 15t29.5 48h59zM147 446v-349l207 349h143v-446h-79v348l-207 -348h-141v446h77z" />
    <glyph glyph-name="uni043A" unicode="&#x43a;" horiz-adv-x="510" 
d="M304 242l208 -242h-145l-161 206h-25v-206h-111v446h111v-177h25l152 177h129z" />
    <glyph glyph-name="uni045C" unicode="&#x45c;" horiz-adv-x="510" 
d="M304 531h-82l86 109h116zM304 242l208 -242h-145l-161 206h-25v-206h-111v446h111v-177h25l152 177h129z" />
    <glyph glyph-name="uni043B" unicode="&#x43b;" horiz-adv-x="551" 
d="M239 384l-19 -188q-10 -99 -61 -147.5t-140 -48.5v62q38 11 60 42t28 92l23 250h351v-446h-113v384h-129z" />
    <glyph glyph-name="uni043C" unicode="&#x43c;" horiz-adv-x="696" 
d="M415 446h173l68 -446h-112l-59 379l-70 -379h-156l-80 373l-52 -373h-86l63 446h172l75 -356z" />
    <glyph glyph-name="uni043D" unicode="&#x43d;" horiz-adv-x="558" 
d="M376 267v179h112v-446h-112v205h-194v-205h-112v446h112v-179h194z" />
    <glyph glyph-name="uni043E" unicode="&#x43e;" horiz-adv-x="564" 
d="M523 222q0 -114 -62 -175t-179 -61q-116 0 -178.5 61t-62.5 175q0 115 62.5 176.5t178.5 61.5q117 0 179 -61.5t62 -176.5zM411 222q0 90 -33 135t-96 45t-95.5 -45t-32.5 -135q0 -88 32.5 -132.5t95.5 -44.5t96 44.5t33 132.5z" />
    <glyph glyph-name="uni043F" unicode="&#x43f;" horiz-adv-x="557" 
d="M375 0v384h-193v-384h-112v446h418v-446h-113z" />
    <glyph glyph-name="uni0440" unicode="&#x440;" 
d="M519 222q0 -118 -54.5 -177t-163.5 -59q-27 0 -57.5 5t-64.5 15v-215h-112v624q51 24 104 34.5t109 10.5q119 0 179 -59.5t60 -178.5zM407 223q0 93 -32.5 136t-103.5 43q-29 0 -49.5 -6t-42.5 -19v-311q31 -11 56.5 -16t48.5 -5q63 0 93 42.5t30 135.5z" />
    <glyph glyph-name="uni0441" unicode="&#x441;" horiz-adv-x="459" 
d="M41 222q0 118 59 178t172 60q39 0 80 -7t81 -20l-17 -53q-34 9 -64 13.5t-57 4.5q-72 0 -106.5 -43.5t-34.5 -131.5t34.5 -131t106.5 -43q27 0 57 4t64 13l17 -53q-41 -13 -82 -20t-79 -7q-113 0 -172 60t-59 176z" />
    <glyph glyph-name="uni0442" unicode="&#x442;" horiz-adv-x="451" 
d="M434 446v-62h-153v-384h-112v384h-151v62h416z" />
    <glyph glyph-name="uni0443" unicode="&#x443;" horiz-adv-x="480" 
d="M191 32l-174 414h128l110 -291l118 291h93l-283 -655h-98z" />
    <glyph glyph-name="uni045E" unicode="&#x45e;" horiz-adv-x="480" 
d="M395 650q-6 -56 -44 -89.5t-98 -33.5q-61 0 -100 32t-43 91h60q5 -33 29.5 -48t52.5 -15q31 0 54.5 15t29.5 48h59zM191 32l-174 414h128l110 -291l118 291h93l-283 -655h-98z" />
    <glyph glyph-name="uni0444" unicode="&#x444;" horiz-adv-x="695" 
d="M405 -162h-115v151q-120 11 -185 71.5t-65 161.5q0 103 65 163.5t185 71.5v132l115 28v-160q120 -11 184.5 -72t64.5 -163q0 -101 -64.5 -161.5t-184.5 -71.5v-151zM153 222q0 -72 35 -116t102 -56v347q-67 -13 -102 -57t-35 -118zM541 222q0 74 -34.5 118t-101.5 57
v-347q67 13 101.5 56.5t34.5 115.5z" />
    <glyph glyph-name="uni0445" unicode="&#x445;" horiz-adv-x="500" 
d="M494 0h-139l-120 163l-137 -163h-95l188 221l-167 225h132l107 -140l119 140h97l-171 -200z" />
    <glyph glyph-name="uni0447" unicode="&#x447;" horiz-adv-x="519" 
d="M39 446h112v-141q0 -45 25.5 -65.5t80.5 -20.5q22 0 41 3t39 9v215h112v-446h-112v168q-29 -5 -55 -8t-52 -3q-99 0 -145 41t-46 129v119z" />
    <glyph glyph-name="uni0446" unicode="&#x446;" horiz-adv-x="590" 
d="M458 -116v116h-388v446h112v-384h193v384h112v-384h83v-178h-112z" />
    <glyph glyph-name="uni0448" unicode="&#x448;" horiz-adv-x="768" 
d="M328 446h113v-384h145v384h113v-446h-629v446h112v-384h146v384z" />
    <glyph glyph-name="uni0449" unicode="&#x449;" horiz-adv-x="803" 
d="M328 446h113v-384h145v384h113v-384h84v-178h-113v116h-600v446h112v-384h146v384z" />
    <glyph glyph-name="uni045F" unicode="&#x45f;" horiz-adv-x="557" 
d="M223 -116v116h-153v446h112v-384h194v384h112v-446h-153v-116h-112z" />
    <glyph glyph-name="uni044F" unicode="&#x44f;" horiz-adv-x="534" 
d="M28 0l118 198q-51 16 -76.5 46t-25.5 73q0 64 51 96.5t153 32.5h216v-446h-112v177h-33q-19 0 -37.5 1t-35.5 2l-97 -180h-121zM160 317q0 -38 40 -57.5t120 -19.5h32v144h-57q-72 0 -103.5 -15.5t-31.5 -51.5z" />
    <glyph glyph-name="uni044C" unicode="&#x44c;" horiz-adv-x="490" 
d="M181 446v-144h62q102 0 160.5 -41t58.5 -110t-59 -110t-161 -41h-172v446h111zM181 62h49q53 0 83.5 24.5t30.5 66.5q0 39 -29 63t-78 24h-56v-178z" />
    <glyph glyph-name="uni044A" unicode="&#x44a;" horiz-adv-x="536" 
d="M227 446v-144h62q102 0 160.5 -41t58.5 -110t-60 -110t-161 -41h-172v384h-97v62h209zM227 62h54q50 0 79.5 24.5t29.5 66.5q0 39 -29 63t-78 24h-56v-178z" />
    <glyph glyph-name="uni044B" unicode="&#x44b;" horiz-adv-x="703" 
d="M182 446v-144h61q102 0 161 -41t59 -110t-60 -110t-162 -41h-171v446h112zM633 446v-446h-112v446h112zM182 62h55q49 0 78.5 24.5t29.5 66.5q0 39 -28.5 63t-75.5 24h-59v-178z" />
    <glyph glyph-name="uni0459" unicode="&#x459;" horiz-adv-x="790" 
d="M239 384l-19 -188q-10 -101 -60.5 -148.5t-140.5 -47.5v62q38 11 60 42t28 92l24 250h350v-144h62q104 0 162 -39.5t58 -111.5t-59 -111.5t-163 -39.5h-172v384h-130zM522 240h-41v-178h55q51 0 79.5 24t28.5 67q0 40 -32 63.5t-90 23.5z" />
    <glyph glyph-name="uni045A" unicode="&#x45a;" horiz-adv-x="795" 
d="M376 276v170h112v-170h62q101 0 160 -36.5t59 -99.5q0 -65 -61 -102.5t-166 -37.5h-166v213h-194v-213h-112v446h112v-170h194zM528 213h-40v-151h55q50 0 79.5 21t29.5 56q0 34 -33.5 54t-90.5 20z" />
    <glyph glyph-name="uni0455" unicode="&#x455;" horiz-adv-x="465" 
d="M214 -14q-50 0 -92 8t-78 21l15 57q48 -13 86 -18.5t61 -5.5q57 0 88 19.5t31 53.5q0 26 -28 41.5t-95 29.5q-87 18 -126 48t-39 89q0 64 53 97.5t156 33.5q40 0 79 -8.5t79 -22.5l-18 -55q-37 11 -68.5 17.5t-61.5 6.5q-55 0 -84 -16.5t-29 -47.5q0 -23 30.5 -38.5
t93.5 -28.5q87 -18 126.5 -46.5t39.5 -91.5q0 -69 -57 -106t-162 -37z" />
    <glyph glyph-name="uni0454" unicode="&#x454;" horiz-adv-x="460" 
d="M41 222q0 117 59 177.5t172 60.5q39 0 80 -7t81 -20l-17 -53q-34 8 -64 13t-57 5q-63 0 -98 -35t-41 -105h205v-62h-206q5 -74 40.5 -110.5t99.5 -36.5q27 0 57 4.5t64 12.5l17 -53q-40 -13 -81.5 -20t-79.5 -7q-113 0 -172 60t-59 176z" />
    <glyph glyph-name="uni044D" unicode="&#x44d;" horiz-adv-x="460" 
d="M99 195v63h206q-6 70 -41 105t-98 35q-27 0 -57.5 -5t-64.5 -13l-17 53q41 13 81.5 20t79.5 7q112 0 171.5 -60.5t59.5 -177.5q0 -120 -62 -178t-169 -58q-39 0 -79.5 7t-81.5 20l17 53q34 -8 64.5 -12.5t57.5 -4.5q69 0 102 39.5t38 106.5h-207z" />
    <glyph glyph-name="uni0456" unicode="&#x456;" horiz-adv-x="252" 
d="M182 628v-99h-112v99h112zM182 446v-446h-112v446h112z" />
    <glyph glyph-name="uni0457" unicode="&#x457;" horiz-adv-x="252" 
d="M90 628v-97h-87v97h87zM249 628v-97h-87v97h87zM182 445v-446h-112v446h112z" />
    <glyph glyph-name="uni0458" unicode="&#x458;" horiz-adv-x="259" 
d="M190 628v-99h-112v99h112zM190 446v-524q0 -69 -36 -107t-117 -38q-16 0 -35 4t-29 10l8 55l17.5 -2.5t23.5 -1.5q31 0 43.5 18.5t12.5 55.5v530h112z" />
    <glyph glyph-name="uni045B" unicode="&#x45b;" horiz-adv-x="564" 
d="M499 0h-111v312q0 46 -25 66t-82 20q-27 0 -50.5 -4.5t-49.5 -14.5v-379h-111v529h-51v55h51v44h111v-44h140v-55h-140v-95q33 14 63.5 20t66.5 6q99 0 143.5 -40t44.5 -130v-290z" />
    <glyph glyph-name="uni044E" unicode="&#x44e;" horiz-adv-x="783" 
d="M742 222q0 -114 -62 -175t-180 -61q-112 0 -174 56.5t-67 162.5h-77v-205h-112v446h112v-179h80q11 94 72.5 143.5t165.5 49.5q118 0 180 -61t62 -177zM629 222q0 90 -32.5 135t-96.5 45t-96 -45t-32 -135q0 -89 32 -133t96 -44t96.5 44t32.5 133z" />
    <glyph glyph-name="uni0452" unicode="&#x452;" horiz-adv-x="564" 
d="M320 529h-139v-95q33 14 63.5 20t66.5 6q99 0 143.5 -40t44.5 -130v-343q0 -72 -37.5 -108t-115.5 -36q-16 0 -35 4.5t-29 9.5l8 55q5 -1 18 -2.5t23 -1.5q32 0 44.5 18.5t12.5 55.5v370q0 46 -25 66t-82 20q-27 0 -50.5 -4.5t-49.5 -14.5v-379h-111v529h-51v55h51v44
h111v-44h139v-55z" />
    <glyph glyph-name="Alpha" unicode="&#x391;" horiz-adv-x="636" 
d="M487 0l-57 166h-272l-59 -166h-82l224 628h151l229 -628h-134zM180 229h228l-112 326z" />
    <glyph glyph-name="Beta" unicode="&#x392;" horiz-adv-x="661" 
d="M440 348q87 -9 135 -50.5t48 -107.5q0 -96 -84.5 -143t-258.5 -47h-200v628h241q119 0 184 -39t65 -109q0 -46 -34.5 -80.5t-95.5 -51.5zM313 566h-115v-204q127 0 190 28.5t63 85.5q0 45 -34.5 67.5t-103.5 22.5zM198 62h81q114 0 166.5 33t52.5 105q0 49 -46 78
t-125 29q-32 0 -63.5 -2t-65.5 -6v-237z" />
    <glyph glyph-name="Gamma" unicode="&#x393;" horiz-adv-x="494" 
d="M198 0h-118v628h394v-62h-276v-566z" />
    <glyph glyph-name="uni0394" unicode="&#x394;" horiz-adv-x="631" 
d="M470 62l-178 493l-181 -493h359zM29 0v62l208 566h153l213 -566v-62h-574z" />
    <glyph glyph-name="Epsilon" unicode="&#x395;" horiz-adv-x="558" 
d="M513 628v-62h-315v-209h278v-63h-278v-232h315v-62h-433v628h433z" />
    <glyph glyph-name="Zeta" unicode="&#x396;" horiz-adv-x="576" 
d="M545 628v-77l-385 -489h380v-62h-519v74l397 492h-361v62h488z" />
    <glyph glyph-name="Eta" unicode="&#x397;" horiz-adv-x="684" 
d="M486 357v271h119v-628h-119v295h-288v-295h-118v628h118v-271h288z" />
    <glyph glyph-name="Theta" unicode="&#x398;" horiz-adv-x="732" 
d="M366 642q154 0 237.5 -85.5t83.5 -243.5q0 -157 -83.5 -242t-237.5 -85t-237.5 85t-83.5 242q0 158 83.5 243.5t237.5 85.5zM366 49q96 0 143.5 65t47.5 199q0 136 -47.5 201t-143.5 65t-143 -65t-47 -201q0 -134 47 -199t143 -65zM249 275v73h234v-73h-234z" />
    <glyph glyph-name="Iota" unicode="&#x399;" horiz-adv-x="278" 
d="M198 628v-628h-118v628h118z" />
    <glyph glyph-name="Kappa" unicode="&#x39a;" horiz-adv-x="624" 
d="M635 0h-150l-266 306h-21v-306h-118v628h118v-260h22l227 260h135l-262 -289z" />
    <glyph glyph-name="Lambda" unicode="&#x39b;" horiz-adv-x="636" 
d="M487 0l-191 555l-197 -555h-82l224 628h152l228 -628h-134z" />
    <glyph glyph-name="Mu" unicode="&#x39c;" horiz-adv-x="824" 
d="M565 628h144l66 -628h-122l-50 533l-161 -533h-102l-153 530l-43 -530h-93l63 628h150l148 -492z" />
    <glyph glyph-name="Nu" unicode="&#x39d;" horiz-adv-x="708" 
d="M550 628h78v-628h-151l-320 523v-523h-77v628h147l323 -524v524z" />
    <glyph glyph-name="Xi" unicode="&#x39e;" horiz-adv-x="577" 
d="M523 628v-97h-469v97h469zM98 275v97h382v-97h-382zM39 0v97h498v-97h-498z" />
    <glyph glyph-name="Omicron" unicode="&#x39f;" horiz-adv-x="732" 
d="M366 642q154 0 237.5 -85.5t83.5 -243.5q0 -157 -83.5 -242t-237.5 -85t-237.5 85t-83.5 242q0 158 83.5 243.5t237.5 85.5zM366 49q96 0 143.5 65t47.5 199q0 136 -47.5 201t-143.5 65t-143 -65t-47 -201q0 -134 47 -199t143 -65z" />
    <glyph glyph-name="Pi" unicode="&#x3a0;" horiz-adv-x="681" 
d="M198 0h-118v628h522v-628h-119v566h-285v-566z" />
    <glyph glyph-name="Rho" unicode="&#x3a1;" horiz-adv-x="629" 
d="M600 456q0 -100 -87.5 -147.5t-276.5 -47.5h-38v-261h-118v628h265q125 0 190 -44t65 -128zM479 458q0 52 -37.5 80t-108.5 28h-135v-244q151 0 216 32t65 104z" />
    <glyph glyph-name="Sigma" unicode="&#x3a3;" horiz-adv-x="549" 
d="M38 0v96l187 216l-187 254v62h469v-62h-324l163 -223l-212 -247h385v-96h-481z" />
    <glyph glyph-name="Tau" unicode="&#x3a4;" horiz-adv-x="571" 
d="M552 628v-62h-208v-566h-118v566h-207v62h533z" />
    <glyph glyph-name="Upsilon" unicode="&#x3a5;" horiz-adv-x="574" 
d="M547 628l-201 -339v-289h-117v283l-202 345h136l142 -264l143 264h99z" />
    <glyph glyph-name="Phi" unicode="&#x3a6;" horiz-adv-x="790" 
d="M454 651v-66q143 -12 219 -82t76 -192q0 -121 -76 -191t-219 -82v-63h-118v63q-143 12 -219 82t-76 191q0 122 76 192t219 82v66h118zM171 311q0 -101 41 -158t124 -70v457q-83 -13 -124 -70t-41 -159zM619 311q0 101 -41 158t-124 70v-455q83 13 124 69.5t41 157.5z" />
    <glyph glyph-name="Chi" unicode="&#x3a7;" horiz-adv-x="593" 
d="M596 0h-146l-167 251l-182 -251h-105l241 317l-208 311h139l142 -218l153 218h100l-207 -283z" />
    <glyph glyph-name="Psi" unicode="&#x3a8;" horiz-adv-x="755" 
d="M438 628v-425q74 13 112 57t38 119v249h119v-240q0 -107 -67.5 -167.5t-201.5 -70.5v-150h-118v150q-135 10 -203.5 70.5t-68.5 167.5v240h119v-249q0 -75 38.5 -120t114.5 -56v425h118z" />
    <glyph glyph-name="uni03A9" unicode="&#x3a9;" horiz-adv-x="721" 
d="M51 0v75h170q-78 40 -123.5 110.5t-45.5 156.5q0 67 22 122.5t62.5 94t98 60t126.5 21.5t126.5 -21.5t98 -60t62.5 -94t22 -122.5q0 -84 -46 -155t-124 -112h169v-75h-259v90q60 35 95 101.5t35 150.5q0 111 -47.5 173.5t-131.5 62.5t-131 -62.5t-47 -173.5
q0 -87 33.5 -153.5t92.5 -97.5v-91h-258z" />
    <glyph glyph-name="Alphatonos" unicode="&#x386;" horiz-adv-x="672" 
d="M119 438h-74l23 190h119zM523 0l-57 166h-272l-59 -166h-82l224 628h151l229 -628h-134zM216 229h228l-112 326z" />
    <glyph glyph-name="Epsilontonos" unicode="&#x388;" horiz-adv-x="687" 
d="M90 438h-74l23 190h119zM643 628v-62h-315v-209h278v-63h-278v-232h315v-62h-433v628h433z" />
    <glyph glyph-name="Etatonos" unicode="&#x389;" horiz-adv-x="807" 
d="M90 438h-74l23 190h119zM609 357v271h118v-628h-118v295h-284v-295h-117v628h117v-271h284z" />
    <glyph glyph-name="Iotatonos" unicode="&#x38a;" horiz-adv-x="400" 
d="M90 438h-74l23 190h119zM320 628v-628h-118v628h118z" />
    <glyph glyph-name="Omicrontonos" unicode="&#x38c;" horiz-adv-x="834" 
d="M468 642q154 0 237.5 -85.5t83.5 -243.5q0 -157 -83.5 -242t-237.5 -85t-237.5 85t-83.5 242q0 158 83.5 243.5t237.5 85.5zM92 438h-74l23 190h119zM468 49q96 0 143.5 65t47.5 199q0 136 -47.5 201t-143.5 65t-143 -65t-47 -201q0 -134 47 -199t143 -65z" />
    <glyph glyph-name="Upsilontonos" unicode="&#x38e;" horiz-adv-x="771" 
d="M115 438h-74l23 190h119zM743 628l-201 -339v-289h-117v283l-202 345h136l142 -264l143 264h99z" />
    <glyph glyph-name="Omegatonos" unicode="&#x38f;" horiz-adv-x="817" 
d="M147 0v75h170q-78 40 -123.5 110.5t-45.5 156.5q0 67 22 122.5t62.5 94t98 60t126.5 21.5t126.5 -21.5t98 -60t62.5 -94t22 -122.5q0 -84 -46 -155t-124 -112h169v-75h-259v90q60 35 95 101.5t35 150.5q0 111 -47.5 173.5t-131.5 62.5t-131 -62.5t-47 -173.5
q0 -87 33.5 -153.5t92.5 -97.5v-91h-258zM95 438h-74l23 190h119z" />
    <glyph glyph-name="Iotadieresis" unicode="&#x3aa;" horiz-adv-x="278" 
d="M98 813v-102h-94v102h94zM274 813v-102h-95v102h95zM198 628v-628h-118v628h118z" />
    <glyph glyph-name="Upsilondieresis" unicode="&#x3ab;" horiz-adv-x="574" 
d="M266 813v-102h-94v102h94zM442 813v-102h-95v102h95zM547 628l-201 -339v-289h-117v283l-202 345h136l142 -264l143 264h99z" />
    <glyph glyph-name="uni03CF" unicode="&#x3cf;" horiz-adv-x="624" 
d="M635 0l-148 -162h-87l85 162l-266 306h-21v-306h-118v628h118v-260h22l227 260h135l-262 -289z" />
    <glyph glyph-name="alpha" unicode="&#x3b1;" horiz-adv-x="595" 
d="M509 446v-330q0 -23 11.5 -38.5t32.5 -15.5h17v-62h-48q-35 0 -63.5 11.5t-44.5 32.5q-27 -28 -63.5 -43t-79.5 -15q-51 0 -93.5 17.5t-73 49t-47.5 75.5t-17 96q0 104 61 170t157 66q37 0 74 -14t65 -38v38h112zM406 224q0 85 -33.5 131.5t-94.5 46.5q-60 0 -92.5 -46.5
t-32.5 -131.5q0 -86 32.5 -133t92.5 -47q61 0 94.5 47t33.5 133z" />
    <glyph glyph-name="beta" unicode="&#x3b2;" horiz-adv-x="577" 
d="M380 348q69 -4 113.5 -48t44.5 -119q0 -93 -54.5 -144t-141.5 -51q-50 0 -92.5 17.5t-67.5 50.5v-216h-113v587q0 101 60.5 158t158.5 57q44 0 82 -9t66 -28t44 -48t16 -69q0 -56 -32.5 -91t-83.5 -47zM182 471v-334q26 -40 61 -64.5t80 -24.5q51 0 76.5 39t25.5 99
q0 52 -26 86t-77 34q-13 0 -33.5 -1.5t-40.5 -2.5v58q64 6 99.5 41.5t35.5 89.5q0 43 -27 67t-73 24q-49 0 -75 -30.5t-26 -80.5z" />
    <glyph glyph-name="gamma" unicode="&#x3b3;" horiz-adv-x="489" 
d="M176 26l-158 420h118l121 -344q50 73 75.5 150t25.5 161v16.5t-1 16.5h91q1 -13 2 -27t1 -27q0 -99 -41 -193.5t-122 -194.5v-166h-112v188z" />
    <glyph glyph-name="delta" unicode="&#x3b4;" 
d="M522 198q0 -96 -65.5 -154t-175.5 -58t-175.5 58t-65.5 154q0 94 55 152.5t148 62.5v0q-44 0 -78 32t-34 77q0 57 49 87.5t121 30.5q40 0 82.5 -9t76.5 -25v-72q-33 16 -73 25t-77 9q-31 0 -52 -15.5t-21 -41.5t22 -42.5t70 -34.5q39 -15 74.5 -36t61.5 -50t41.5 -66
t15.5 -84zM153 198q0 -72 34 -113t94 -41t94 41t34 113q0 74 -34 115.5t-94 41.5t-94 -41.5t-34 -115.5z" />
    <glyph glyph-name="epsilon" unicode="&#x3b5;" horiz-adv-x="469" 
d="M174 239q-21 6 -41.5 14.5t-36.5 22t-26.5 31.5t-10.5 42q0 31 16 52t44 34t65.5 19t80.5 6t85.5 -9.5t78.5 -28.5l-20 -57q-28 15 -63 24t-72 9q-45 0 -73 -14t-28 -43q0 -19 12.5 -33t33 -23.5t48 -14t57.5 -4.5h52v-62h-51q-73 0 -123 -18t-50 -59q0 -38 31.5 -58
t82.5 -20q40 0 81 12t80 31l20 -59q-45 -22 -93 -34.5t-97 -12.5q-46 0 -86 8t-69.5 25t-46.5 43t-17 61q0 46 36.5 77t99.5 39z" />
    <glyph glyph-name="zeta" unicode="&#x3b6;" horiz-adv-x="416" 
d="M391 628v-77q-123 -87 -181 -164t-58 -165q0 -43 19.5 -76.5t56.5 -49.5q51 -22 85 -39.5t54 -34t28.5 -34.5t8.5 -43q0 -28 -11.5 -56.5t-30.5 -51.5h-65q10 19 15.5 43t5.5 47q0 34 -26.5 51.5t-102.5 43.5q-69 24 -109 73.5t-40 122.5q0 54 18 98.5t51.5 84t82 76.5
t110.5 76h-229v75h318z" />
    <glyph glyph-name="eta" unicode="&#x3b7;" 
d="M496 -162h-111v474q0 46 -27.5 66t-79.5 20q-26 0 -51 -6t-49 -15v-377h-112v395q57 29 117 47t123 18q98 0 144 -40t46 -130v-452z" />
    <glyph glyph-name="theta" unicode="&#x3b8;" horiz-adv-x="578" 
d="M531 312q0 -161 -61.5 -243.5t-181.5 -82.5q-119 0 -180 82.5t-61 243.5q0 163 61 245.5t180 82.5q120 0 181.5 -82.5t61.5 -245.5zM288 582q-60 0 -90 -57t-34 -179h250q-4 122 -34.5 179t-91.5 57zM288 44q61 0 91.5 56t33.5 176h-248q3 -120 33 -176t90 -56z" />
    <glyph glyph-name="iota" unicode="&#x3b9;" horiz-adv-x="272" 
d="M181 446v-327q0 -23 12 -38t33 -15h16v-66h-48q-54 0 -89.5 29.5t-35.5 78.5v338h112z" />
    <glyph glyph-name="kappa" unicode="&#x3ba;" horiz-adv-x="528" 
d="M296 236l233 -236h-142l-179 206h-27v-206h-111v446h111v-177h25l101 119q32 40 78 53.5t107 13.5v-63q-28 0 -51.5 -11t-42.5 -31z" />
    <glyph glyph-name="lambda" unicode="&#x3bb;" horiz-adv-x="519" 
d="M381 0l-130 291l-133 -291h-103l185 406l-48 107q-15 33 -41.5 47t-61.5 14v66q89 0 142 -28t81 -91l232 -521h-123z" />
    <glyph glyph-name="uni03BC" unicode="&#x3bc;" horiz-adv-x="567" 
d="M70 -180v626h112v-309q0 -48 24.5 -68.5t81.5 -20.5q26 0 49 4t51 14v380h112v-400q-55 -31 -111.5 -45.5t-127.5 -14.5q-22 0 -42 2t-37 6v-174h-112z" />
    <glyph glyph-name="nu" unicode="&#x3bd;" horiz-adv-x="488" 
d="M351 446h87q4 -18 6 -36t2 -37q0 -90 -38.5 -183.5t-112.5 -189.5h-106l-172 446h119l129 -345q45 68 68 140t23 145q0 15 -1 30t-4 30z" />
    <glyph glyph-name="xi" unicode="&#x3be;" horiz-adv-x="416" 
d="M191 332q-54 11 -92.5 40t-38.5 81q0 43 35 70t88 38h-136v67h333v-67h-45q-72 0 -117 -29t-45 -80q0 -37 31 -62t88 -25h57v-62h-60q-60 0 -99 -29t-39 -81q0 -43 30.5 -68t72.5 -38q56 -17 96.5 -51.5t40.5 -93.5q0 -29 -9 -56t-26 -48h-62q7 21 11 43t4 42
q0 45 -35.5 67t-79.5 38q-31 11 -59 23.5t-49.5 29.5t-34.5 40.5t-13 57.5q0 65 44.5 105.5t108.5 47.5z" />
    <glyph glyph-name="omicron" unicode="&#x3bf;" horiz-adv-x="564" 
d="M523 222q0 -113 -62 -174.5t-179 -61.5t-179 61.5t-62 174.5q0 115 62 176.5t179 61.5t179 -61.5t62 -176.5zM411 222q0 90 -32.5 135t-96.5 45q-63 0 -95.5 -45t-32.5 -135q0 -88 32.5 -132.5t95.5 -44.5q64 0 96.5 44.5t32.5 132.5z" />
    <glyph glyph-name="pi" unicode="&#x3c0;" horiz-adv-x="602" 
d="M23 380v66h547v-66h-79v-264q0 -24 12 -39t33 -15h16v-62h-49q-55 0 -89.5 29.5t-34.5 78.5v272h-167v-380h-111v380h-78z" />
    <glyph glyph-name="rho" unicode="&#x3c1;" horiz-adv-x="572" 
d="M531 222q0 -112 -57.5 -174t-161.5 -62q-44 0 -79 13t-61 35v-196h-113v384q0 113 61.5 175.5t174.5 62.5t174.5 -62.5t61.5 -175.5zM418 222q0 89 -31 134.5t-92 45.5q-60 0 -91.5 -45.5t-31.5 -134.5q0 -87 33 -132t96 -45q58 0 87.5 45t29.5 132z" />
    <glyph glyph-name="uni03C2" unicode="&#x3c2;" horiz-adv-x="452" 
d="M354 -162h-69q16 27 25.5 53.5t9.5 46.5q0 16 -12.5 30t-32.5 26.5t-45 24.5t-49 22q-65 28 -103.5 79t-38.5 120q0 99 65 159.5t171 60.5q42 0 84.5 -11t76.5 -30l-20 -55q-34 16 -70 25t-65 9q-58 0 -94.5 -42.5t-36.5 -111.5q0 -54 29 -86t72 -53q29 -14 58 -30
t51 -35t35.5 -42t13.5 -50q0 -26 -15 -55.5t-40 -54.5z" />
    <glyph glyph-name="sigma" unicode="&#x3c3;" horiz-adv-x="597" 
d="M524 219q0 -113 -62 -173t-179 -60q-118 0 -180 60t-62 173q0 110 62 168.5t180 58.5h300v-62h-137q38 -26 58 -68.5t20 -96.5zM411 219q0 85 -31.5 127t-96.5 42t-96.5 -42t-31.5 -127q0 -89 31.5 -131.5t96.5 -42.5t96.5 42.5t31.5 131.5z" />
    <glyph glyph-name="tau" unicode="&#x3c4;" horiz-adv-x="427" 
d="M18 380v66h387v-66h-141v-264q0 -24 12.5 -39t32.5 -15h31v-62h-63q-55 0 -90 29.5t-35 78.5v272h-134z" />
    <glyph glyph-name="upsilon" unicode="&#x3c5;" horiz-adv-x="531" 
d="M65 446h109v-273q0 -65 24 -95t76 -30q54 0 81.5 48.5t27.5 144.5q0 63 -11.5 113t-32.5 92h102q22 -46 33 -97t11 -110q0 -128 -52.5 -190.5t-157.5 -62.5q-106 0 -158 42t-52 126v292z" />
    <glyph glyph-name="phi" unicode="&#x3c6;" horiz-adv-x="711" 
d="M413 563v-106q123 -11 190.5 -71.5t67.5 -161.5q0 -102 -67.5 -163t-190.5 -72v-151h-115v151q-124 11 -191 72t-67 163q0 101 67 161.5t191 71.5v106h115zM153 224q0 -78 36.5 -124t108.5 -59v364q-72 -12 -108.5 -57.5t-36.5 -123.5zM558 224q0 78 -36.5 123t-108.5 58
v-363q72 12 108.5 58t36.5 124z" />
    <glyph glyph-name="chi" unicode="&#x3c7;" horiz-adv-x="491" 
d="M126 -162h-107l172 294l-108 214q-12 23 -29.5 35t-40.5 12h-9v62h28q58 0 100 -24t67 -73l57 -113l114 201h109l-177 -293l104 -207q11 -23 26.5 -38t32.5 -15h12v-62h-35q-48 0 -83 18.5t-55 58.5l-66 132z" />
    <glyph glyph-name="psi" unicode="&#x3c8;" horiz-adv-x="712" 
d="M64 446h115v-243q0 -69 31 -109t94 -51v526h116v-524q68 14 102 63t34 133q0 56 -11 107.5t-33 97.5h110q22 -48 33 -100t11 -107q0 -113 -61.5 -176t-184.5 -75v-150h-116v149q-119 8 -179.5 57.5t-60.5 139.5v262z" />
    <glyph glyph-name="omega" unicode="&#x3c9;" horiz-adv-x="729" 
d="M309 173v138h112v-138q0 -62 18 -93.5t55 -31.5q38 0 58.5 42t20.5 124q0 62 -16 122.5t-45 109.5h112q29 -51 45 -113t16 -123q0 -107 -50 -165.5t-140 -58.5q-51 0 -84 24.5t-47 70.5q-13 -46 -46 -70.5t-84 -24.5q-90 0 -140 58.5t-50 165.5q0 60 16 121.5t45 114.5
h112q-29 -49 -45 -110.5t-16 -123.5q0 -81 20 -122.5t59 -41.5q37 0 55.5 31.5t18.5 93.5z" />
    <glyph glyph-name="iotatonos" unicode="&#x3af;" horiz-adv-x="272" 
d="M96 531l36 157h102l-69 -157h-69zM181 446v-327q0 -23 12 -38t33 -15h16v-66h-48q-54 0 -89.5 29.5t-35.5 78.5v338h112z" />
    <glyph glyph-name="iotadieresis" unicode="&#x3ca;" horiz-adv-x="272" 
d="M89 628v-97h-87v97h87zM248 628v-97h-87v97h87zM181 446v-327q0 -23 12 -38t33 -15h16v-66h-48q-54 0 -89.5 29.5t-35.5 78.5v338h112z" />
    <glyph glyph-name="iotadieresistonos" unicode="&#x390;" horiz-adv-x="272" 
d="M89 531l36 157h102l-69 -157h-69zM48 628v-97h-84v97h84zM328 628v-97h-84v97h84zM181 446v-327q0 -23 12 -38t33 -15h16v-66h-48q-54 0 -89.5 29.5t-35.5 78.5v338h112z" />
    <glyph glyph-name="upsilontonos" unicode="&#x3cd;" horiz-adv-x="531" 
d="M222 531l36 157h102l-69 -157h-69zM65 446h109v-273q0 -65 24 -95t76 -30q54 0 81.5 48.5t27.5 144.5q0 63 -11.5 113t-32.5 92h102q22 -46 33 -97t11 -110q0 -128 -52.5 -190.5t-157.5 -62.5q-106 0 -158 42t-52 126v292z" />
    <glyph glyph-name="upsilondieresis" unicode="&#x3cb;" horiz-adv-x="531" 
d="M222 628v-97h-87v97h87zM381 628v-97h-87v97h87zM65 446h109v-273q0 -65 24 -95t76 -30q54 0 81.5 48.5t27.5 144.5q0 63 -11.5 113t-32.5 92h102q22 -46 33 -97t11 -110q0 -128 -52.5 -190.5t-157.5 -62.5q-106 0 -158 42t-52 126v292z" />
    <glyph glyph-name="upsilondieresistonos" unicode="&#x3b0;" horiz-adv-x="531" 
d="M203 531l36 157h102l-69 -157h-69zM162 628v-97h-84v97h84zM442 628v-97h-84v97h84zM65 446h109v-273q0 -65 24 -95t76 -30q54 0 81.5 48.5t27.5 144.5q0 63 -11.5 113t-32.5 92h102q22 -46 33 -97t11 -110q0 -128 -52.5 -190.5t-157.5 -62.5q-106 0 -158 42t-52 126v292
z" />
    <glyph glyph-name="omicrontonos" unicode="&#x3cc;" horiz-adv-x="564" 
d="M250 531l36 157h102l-69 -157h-69zM523 222q0 -113 -62 -174.5t-179 -61.5t-179 61.5t-62 174.5q0 115 62 176.5t179 61.5t179 -61.5t62 -176.5zM411 222q0 90 -32.5 135t-96.5 45q-63 0 -95.5 -45t-32.5 -135q0 -88 32.5 -132.5t95.5 -44.5q64 0 96.5 44.5t32.5 132.5z
" />
    <glyph glyph-name="omegatonos" unicode="&#x3ce;" horiz-adv-x="729" 
d="M336 531l36 157h102l-69 -157h-69zM309 173v138h112v-138q0 -62 18 -93.5t55 -31.5q38 0 58.5 42t20.5 124q0 62 -16 122.5t-45 109.5h112q29 -51 45 -113t16 -123q0 -107 -50 -165.5t-140 -58.5q-51 0 -84 24.5t-47 70.5q-13 -46 -46 -70.5t-84 -24.5q-90 0 -140 58.5
t-50 165.5q0 60 16 121.5t45 114.5h112q-29 -49 -45 -110.5t-16 -123.5q0 -81 20 -122.5t59 -41.5q37 0 55.5 31.5t18.5 93.5z" />
    <glyph glyph-name="alphatonos" unicode="&#x3ac;" horiz-adv-x="595" 
d="M245 531l36 157h102l-69 -157h-69zM509 446v-330q0 -23 11.5 -38.5t32.5 -15.5h17v-62h-48q-35 0 -63.5 11.5t-44.5 32.5q-27 -28 -63.5 -43t-79.5 -15q-51 0 -93.5 17.5t-73 49t-47.5 75.5t-17 96q0 104 61 170t157 66q37 0 74 -14t65 -38v38h112zM406 224
q0 85 -33.5 131.5t-94.5 46.5q-60 0 -92.5 -46.5t-32.5 -131.5q0 -86 32.5 -133t92.5 -47q61 0 94.5 47t33.5 133z" />
    <glyph glyph-name="epsilontonos" unicode="&#x3ad;" horiz-adv-x="469" 
d="M209 531l36 157h102l-69 -157h-69zM174 239q-21 6 -41.5 14.5t-36.5 22t-26.5 31.5t-10.5 42q0 31 16 52t44 34t65.5 19t80.5 6t85.5 -9.5t78.5 -28.5l-20 -57q-28 15 -63 24t-72 9q-45 0 -73 -14t-28 -43q0 -19 12.5 -33t33 -23.5t48 -14t57.5 -4.5h52v-62h-51
q-73 0 -123 -18t-50 -59q0 -38 31.5 -58t82.5 -20q40 0 81 12t80 31l20 -59q-45 -22 -93 -34.5t-97 -12.5q-46 0 -86 8t-69.5 25t-46.5 43t-17 61q0 46 36.5 77t99.5 39z" />
    <glyph glyph-name="etatonos" unicode="&#x3ae;" 
d="M254 531l36 157h102l-69 -157h-69zM496 -162h-111v474q0 46 -27.5 66t-79.5 20q-26 0 -51 -6t-49 -15v-377h-112v395q57 29 117 47t123 18q98 0 144 -40t46 -130v-452z" />
    <glyph glyph-name="uni03D7" unicode="&#x3d7;" horiz-adv-x="558" 
d="M48 451q19 5 36 7t37 2q69 0 90 -54.5t21 -160.5v-4l95 63q16 58 53.5 97.5t92.5 59.5l53 -51q-16 -44 -42.5 -78.5t-64.5 -62.5q-2 -14 -3 -29t-1 -30q0 -73 24.5 -107t77.5 -38q0 -116 -46 -171.5t-132 -55.5q-14 0 -30 3.5t-32 8.5v77q13 -4 28.5 -6.5t29.5 -2.5
q34 0 61 20t27 65q-34 3 -55 23.5t-32.5 50.5t-15.5 67t-4 74l-91 -60q-10 -55 -37 -96t-73 -72l-68 40q7 45 27.5 85.5t56.5 73.5q1 15 2 29t1 27q0 65 -19 96.5t-66 31.5h-8.5t-8.5 -1z" />
    <glyph glyph-name="zero" unicode="0" horiz-adv-x="691" 
d="M641 313q0 -154 -78 -240.5t-218 -86.5q-139 0 -217 86.5t-78 240.5q0 155 78 242t217 87q140 0 218 -87t78 -242zM345 49q84 0 125 63.5t41 200.5q0 138 -41 202.5t-125 64.5t-124 -64.5t-40 -202.5q0 -137 40 -200.5t124 -63.5z" />
    <glyph glyph-name="one" unicode="1" horiz-adv-x="361" 
d="M278 628v-628h-118v545h-143v44l187 39h74z" />
    <glyph glyph-name="two" unicode="2" horiz-adv-x="562" 
d="M515 479q0 -35 -12.5 -61.5t-27.5 -45.5q-10 -12 -50 -54t-88.5 -92t-95.5 -96.5t-69 -67.5h340v-62h-482v87l340 328q18 16 28 35.5t10 41.5q0 40 -39 63.5t-105 23.5q-40 0 -84.5 -12t-91.5 -37l-21 56q52 28 104 42t103 14q110 0 175.5 -44t65.5 -119z" />
    <glyph glyph-name="three" unicode="3" horiz-adv-x="572" 
d="M343 337q85 -12 134 -56t49 -108q0 -87 -72 -137t-198 -50q-55 0 -112 15.5t-113 43.5l20 58q48 -25 97 -40t96 -15q75 0 117.5 34t42.5 96q0 57 -56.5 89t-158.5 32h-62v62h63q89 0 138 32t49 89q0 45 -38.5 71t-105.5 26q-35 0 -77.5 -11.5t-79.5 -30.5l-20 56
q45 22 95.5 35.5t93.5 13.5q113 0 178.5 -42t65.5 -115q0 -50 -39 -89.5t-107 -58.5z" />
    <glyph glyph-name="four" unicode="4" horiz-adv-x="595" 
d="M482 199h79v-63h-79v-136h-118v136h-339v77l320 415h137v-429zM364 199v347l-266 -347h266z" />
    <glyph glyph-name="five" unicode="5" horiz-adv-x="581" 
d="M290 396q115 0 184 -52t69 -139q0 -99 -74 -159t-197 -60q-66 0 -123.5 18.5t-100.5 40.5l19 58q49 -24 97 -39.5t96 -15.5q72 0 114 39t42 106t-48 103t-138 36q-40 0 -82.5 -4.5t-84.5 -11.5l13 312h423v-63h-310l-6 -177q25 4 52.5 6t54.5 2z" />
    <glyph glyph-name="six" unicode="6" horiz-adv-x="616" 
d="M354 398q110 0 167.5 -52t57.5 -141q0 -51 -18.5 -92t-51.5 -69t-79.5 -43t-102.5 -15q-138 0 -206.5 73.5t-68.5 222.5q0 178 74.5 269t220.5 91q46 0 90.5 -9.5t90.5 -28.5l-17 -57q-39 15 -78.5 23.5t-76.5 8.5q-87 0 -133 -64.5t-48 -192.5q37 43 81.5 59.5
t97.5 16.5zM322 48q65 0 103.5 40.5t38.5 108.5q0 66 -34 99.5t-100 33.5q-31 0 -58.5 -8t-48.5 -24t-33.5 -41.5t-12.5 -59.5q0 -67 39 -108t106 -41z" />
    <glyph glyph-name="seven" unicode="7" horiz-adv-x="512" 
d="M489 628v-83l-297 -545h-139l320 565h-346v63h462z" />
    <glyph glyph-name="eight" unicode="8" horiz-adv-x="648" 
d="M440 350q79 -15 120.5 -61.5t41.5 -112.5q0 -88 -75 -139t-203 -51t-203 51t-75 139q0 69 43.5 114.5t118.5 59.5q-54 13 -86.5 44.5t-32.5 85.5q0 72 65.5 117t169.5 45t169.5 -44t65.5 -118q0 -51 -31 -83.5t-88 -46.5zM449 480q0 43 -31.5 72.5t-93.5 29.5
t-93.5 -29.5t-31.5 -72.5q0 -42 29.5 -72t95.5 -30q67 0 96 30t29 72zM172 181q0 -62 40.5 -98t111.5 -36q70 0 111.5 36t41.5 98q0 59 -41.5 93.5t-111.5 34.5q-71 0 -111.5 -34.5t-40.5 -93.5z" />
    <glyph glyph-name="nine" unicode="9" horiz-adv-x="615" 
d="M261 226q-105 0 -164.5 51.5t-59.5 141.5q0 101 68.5 162t182.5 61q135 0 205 -78t70 -223q0 -174 -74.5 -264.5t-214.5 -90.5q-43 0 -90 10.5t-92 26.5l17 57q39 -13 79.5 -22t77.5 -9q87 0 130 61.5t46 190.5q-37 -45 -82 -60t-99 -15zM292 580q-64 0 -102.5 -42
t-38.5 -111q0 -62 36 -97t99 -35q65 0 108.5 33t43.5 98q0 70 -40 112t-106 42z" />
    <glyph glyph-name="zero.osf" horiz-adv-x="655" 
d="M607 223q0 -114 -73 -175.5t-207 -61.5t-206.5 61.5t-72.5 175.5t72.5 175.5t206.5 61.5t207 -61.5t73 -175.5zM327 49q75 0 112.5 43.5t37.5 131.5q0 87 -37.5 130.5t-112.5 43.5q-74 0 -111 -43.5t-37 -130.5q0 -88 37 -131.5t111 -43.5z" />
    <glyph glyph-name="one.osf" horiz-adv-x="363" 
d="M286 446v-446h-118v363h-143v44l187 39h74z" />
    <glyph glyph-name="two.osf" horiz-adv-x="556" 
d="M505 312q0 -33 -25 -63.5t-51 -45.5l-246 -141h319v-62h-466v84l292 150q28 14 49 36.5t21 41.5q0 39 -37 62.5t-101 23.5q-39 0 -80 -12.5t-86 -37.5l-21 56q51 28 101.5 42t104.5 14q109 0 167.5 -38.5t58.5 -109.5z" />
    <glyph glyph-name="three.osf" horiz-adv-x="559" 
d="M338 164q84 -13 133.5 -57.5t49.5 -107.5q0 -87 -73 -137t-197 -50q-53 0 -112.5 16t-112.5 43l20 58q46 -26 96.5 -40.5t96.5 -14.5q80 0 120 36.5t40 93.5t-57 89.5t-158 32.5h-62v61h63q94 0 140.5 33.5t46.5 84.5q0 43 -38.5 68t-105.5 25q-36 0 -78 -11.5t-79 -30.5
l-20 56q43 22 94.5 35t95.5 13q112 0 177.5 -40.5t65.5 -110.5q0 -49 -39.5 -88.5t-106.5 -56.5z" />
    <glyph glyph-name="four.osf" horiz-adv-x="565" 
d="M453 63h78v-63h-78v-183h-118v183h-305v77l286 369h137v-383zM335 63v301l-231 -301h231z" />
    <glyph glyph-name="five.osf" horiz-adv-x="573" 
d="M285 214q115 0 184 -52t69 -139q0 -101 -74 -160.5t-197 -59.5q-57 0 -114.5 17t-109.5 41l20 59q47 -25 95 -40t97 -15q69 0 113 39t44 106q0 68 -48.5 104t-138.5 36q-37 0 -80 -4.5t-86 -12.5l13 313h422v-62h-310l-5 -178q25 4 51.5 6t54.5 2z" />
    <glyph glyph-name="six.osf" horiz-adv-x="616" 
d="M354 398q104 0 164.5 -51.5t60.5 -141.5q0 -51 -18.5 -92t-51.5 -69t-79.5 -43t-102.5 -15q-137 0 -206 74t-69 222q0 175 76.5 267.5t219.5 92.5q43 0 89.5 -11t90.5 -27l-17 -57q-37 15 -78.5 23.5t-78.5 8.5q-98 0 -137.5 -66t-40.5 -191q33 40 78.5 58t99.5 18z
M323 48q64 0 102.5 40.5t38.5 108.5q0 60 -36.5 96.5t-97.5 36.5q-69 0 -111 -36.5t-42 -96.5q0 -68 40 -108.5t106 -40.5z" />
    <glyph glyph-name="seven.osf" horiz-adv-x="511" 
d="M487 446v-83l-297 -546h-139l320 567h-346v62h462z" />
    <glyph glyph-name="eight.osf" horiz-adv-x="649" 
d="M440 350q32 -7 61.5 -20t51.5 -34t35.5 -50.5t13.5 -69.5q0 -90 -72.5 -140t-205.5 -50q-132 0 -204.5 50t-72.5 140q0 40 13.5 70t36 51t52 34t60.5 19q-48 11 -83.5 44t-35.5 86q0 75 62.5 118.5t171.5 43.5q110 0 172.5 -43.5t62.5 -118.5q0 -51 -34 -84.5t-85 -45.5z
M449 480q0 49 -32.5 75.5t-92.5 26.5t-92.5 -26.5t-32.5 -75.5t32.5 -75.5t92.5 -26.5t92.5 26.5t32.5 75.5zM172 181q0 -63 40 -98.5t112 -35.5q73 0 113.5 35.5t40.5 98.5q0 61 -40.5 94.5t-113.5 33.5q-72 0 -112 -33.5t-40 -94.5z" />
    <glyph glyph-name="nine.osf" horiz-adv-x="614" 
d="M264 53q-106 0 -165.5 50t-59.5 139q0 102 66.5 160t184.5 58q139 0 207 -73t68 -220q0 -175 -73 -265t-216 -90q-40 0 -88 9.5t-94 28.5l17 56q39 -15 80 -23.5t78 -8.5q101 0 137 69.5t38 183.5q-37 -40 -77 -57t-103 -17zM295 398q-66 0 -104 -39.5t-38 -108.5
q0 -60 36 -94.5t99 -34.5q72 0 112.5 35t40.5 95q0 69 -39 108t-107 39z" />
    <glyph glyph-name="zero.sinf" horiz-adv-x="437" 
d="M399 72q0 -93 -47 -142.5t-134 -49.5t-133.5 49.5t-46.5 142.5q0 92 46.5 141t133.5 49t134 -49t47 -141zM219 -69q41 0 61 33.5t20 107.5t-20 108t-61 34t-61 -34t-20 -108t20 -107.5t61 -33.5z" />
    <glyph glyph-name="one.sinf" horiz-adv-x="249" 
d="M191 257v-368h-88v303h-83v32l116 33h55z" />
    <glyph glyph-name="two.sinf" horiz-adv-x="364" 
d="M327 166q0 -19 -7 -35.5t-20 -29.5l-169 -162h192v-50h-293v64l188 179q9 9 15.5 19.5t6.5 22.5q0 18 -20 28.5t-49 10.5q-33 0 -62 -11t-48 -25l-15 46q25 16 60.5 27.5t72.5 11.5q60 0 104 -23.5t44 -72.5z" />
    <glyph glyph-name="three.sinf" horiz-adv-x="370" 
d="M232 87q48 -10 74.5 -35.5t26.5 -61.5q0 -52 -43.5 -81t-122.5 -29q-37 0 -71 10t-70 30l15 46q27 -18 55 -27.5t59 -9.5q39 0 62 18t23 49t-30.5 47t-88.5 16h-32v47h33q52 0 79 15.5t27 45.5q0 24 -21.5 35t-55.5 11q-25 0 -49.5 -7.5t-44.5 -20.5l-14 45
q25 15 58 23.5t68 8.5q68 0 105.5 -24t37.5 -67q0 -28 -21.5 -50t-58.5 -34z" />
    <glyph glyph-name="four.sinf" horiz-adv-x="385" 
d="M308 14h45v-50h-45v-75h-88v75h-196v61l181 232h103v-243zM220 14v175l-144 -175h144z" />
    <glyph glyph-name="five.sinf" horiz-adv-x="374" 
d="M186 129q75 0 115.5 -30t40.5 -85q0 -64 -43.5 -99t-123.5 -35q-34 0 -71 9t-69 31l14 46q25 -16 54.5 -26.5t60.5 -10.5q41 0 61.5 18.5t20.5 55.5q0 38 -27.5 57.5t-80.5 19.5q-22 0 -44.5 -2t-45.5 -5l8 184h259v-50h-173l-4 -81q5 1 18 2t30 1z" />
    <glyph glyph-name="six.sinf" horiz-adv-x="392" 
d="M215 124q69 0 108 -30t39 -84q0 -61 -41.5 -95.5t-116.5 -34.5q-81 0 -123 43t-42 127q0 104 45.5 158t132.5 54q31 0 63.5 -6.5t49.5 -16.5l-12 -44q-15 7 -42.5 12.5t-52.5 5.5q-46 0 -70 -30t-25 -90q18 16 39 23.5t48 7.5zM204 -71q35 0 54.5 20t19.5 56
q0 32 -18.5 50.5t-52.5 18.5q-37 0 -57.5 -18.5t-20.5 -50.5q0 -36 19.5 -56t55.5 -20z" />
    <glyph glyph-name="seven.sinf" horiz-adv-x="337" 
d="M313 257v-64l-169 -304h-100l185 318h-204v50h288z" />
    <glyph glyph-name="eight.sinf" horiz-adv-x="419" 
d="M293 93q46 -15 68.5 -40t22.5 -62q0 -54 -44.5 -82.5t-129.5 -28.5t-129.5 28.5t-44.5 82.5q0 39 22 64t69 38q-32 11 -48 30t-16 45q0 44 39 69t108 25t107 -25t38 -69q0 -27 -15.5 -46t-46.5 -29zM275 166q0 24 -17 37.5t-48 13.5t-48.5 -13.5t-17.5 -37.5
q0 -25 17.5 -39t48.5 -14t48 14t17 39zM130 -3q0 -33 21 -51.5t59 -18.5q37 0 58.5 18.5t21.5 51.5q0 31 -21.5 48.5t-58.5 17.5q-38 0 -59 -17.5t-21 -48.5z" />
    <glyph glyph-name="nine.sinf" horiz-adv-x="392" 
d="M170 19q-66 0 -103 30t-37 85q0 60 41 94t116 34q81 0 123.5 -43t42.5 -126q0 -104 -44.5 -158.5t-130.5 -54.5q-36 0 -68.5 8.5t-46.5 16.5l12 43q11 -5 37.5 -12t57.5 -7q47 0 70.5 30.5t23.5 90.5q-19 -16 -38 -23.5t-56 -7.5zM188 214q-35 0 -55 -20t-20 -56
q0 -32 19 -50.5t53 -18.5q37 0 57.5 18.5t20.5 50.5q0 36 -20 56t-55 20z" />
    <glyph glyph-name="zero.sups" horiz-adv-x="437" 
d="M399 557q0 -93 -47 -142.5t-134 -49.5t-133.5 49.5t-46.5 142.5q0 92 46.5 141t133.5 49t134 -49t47 -141zM219 416q41 0 61 33.5t20 107.5t-20 108t-61 34t-61 -34t-20 -108t20 -107.5t61 -33.5z" />
    <glyph glyph-name="one.sups" horiz-adv-x="249" 
d="M191 742v-368h-88v303h-83v32l116 33h55z" />
    <glyph glyph-name="two.sups" horiz-adv-x="364" 
d="M327 651q0 -19 -7 -35.5t-20 -29.5l-169 -162h192v-50h-293v64l188 179q9 9 15.5 19.5t6.5 22.5q0 18 -20 28.5t-49 10.5q-33 0 -62 -11t-48 -25l-15 46q25 16 60.5 27.5t72.5 11.5q60 0 104 -23.5t44 -72.5z" />
    <glyph glyph-name="three.sups" horiz-adv-x="370" 
d="M232 572q48 -10 74.5 -35.5t26.5 -61.5q0 -52 -43.5 -81t-122.5 -29q-37 0 -71 10t-70 30l15 46q27 -18 55 -27.5t59 -9.5q39 0 62 18t23 49t-30.5 47t-88.5 16h-32v47h33q52 0 79 15.5t27 45.5q0 24 -21.5 35t-55.5 11q-25 0 -49.5 -7.5t-44.5 -20.5l-14 45
q25 15 58 23.5t68 8.5q68 0 105.5 -24t37.5 -67q0 -28 -21.5 -50t-58.5 -34z" />
    <glyph glyph-name="four.sups" horiz-adv-x="385" 
d="M309 499h45v-50h-45v-75h-88v75h-196v61l181 232h103v-243zM221 499v175l-144 -175h144z" />
    <glyph glyph-name="five.sups" horiz-adv-x="374" 
d="M186 614q75 0 115.5 -30t40.5 -85q0 -64 -43.5 -99t-123.5 -35q-34 0 -71 9t-69 31l14 46q25 -16 54.5 -26.5t60.5 -10.5q41 0 61.5 18.5t20.5 55.5q0 38 -27.5 57.5t-80.5 19.5q-22 0 -44.5 -2t-45.5 -5l8 184h259v-50h-173l-4 -81q5 1 18 2t30 1z" />
    <glyph glyph-name="six.sups" horiz-adv-x="392" 
d="M215 609q69 0 108 -30t39 -84q0 -61 -41.5 -95.5t-116.5 -34.5q-81 0 -123 43t-42 127q0 104 45.5 158t132.5 54q31 0 63.5 -6.5t49.5 -16.5l-12 -44q-15 7 -42.5 12.5t-52.5 5.5q-46 0 -70 -30t-25 -90q18 16 39 23.5t48 7.5zM204 414q35 0 54.5 20t19.5 56
q0 32 -18.5 50.5t-52.5 18.5q-37 0 -57.5 -18.5t-20.5 -50.5q0 -36 19.5 -56t55.5 -20z" />
    <glyph glyph-name="seven.sups" horiz-adv-x="337" 
d="M313 742v-64l-169 -304h-100l185 318h-204v50h288z" />
    <glyph glyph-name="eight.sups" horiz-adv-x="419" 
d="M293 578q46 -15 68.5 -40t22.5 -62q0 -54 -44.5 -82.5t-129.5 -28.5t-129.5 28.5t-44.5 82.5q0 39 22 64t69 38q-32 11 -48 30t-16 45q0 44 39 69t108 25t107 -25t38 -69q0 -27 -15.5 -46t-46.5 -29zM275 651q0 24 -17 37.5t-48 13.5t-48.5 -13.5t-17.5 -37.5
q0 -25 17.5 -39t48.5 -14t48 14t17 39zM130 482q0 -33 21 -51.5t59 -18.5q37 0 58.5 18.5t21.5 51.5q0 31 -21.5 48.5t-58.5 17.5q-38 0 -59 -17.5t-21 -48.5z" />
    <glyph glyph-name="nine.sups" horiz-adv-x="392" 
d="M170 504q-66 0 -103 30t-37 85q0 60 41 94t116 34q81 0 123.5 -43t42.5 -126q0 -104 -44.5 -158.5t-130.5 -54.5q-36 0 -68.5 8.5t-46.5 16.5l12 43q11 -5 37.5 -12t57.5 -7q47 0 70.5 30.5t23.5 90.5q-19 -16 -38 -23.5t-56 -7.5zM188 699q-35 0 -55 -20t-20 -56
q0 -32 19 -50.5t53 -18.5q37 0 57.5 18.5t20.5 50.5q0 36 -20 56t-55 20z" />
    <glyph glyph-name="zero.tf" horiz-adv-x="672" 
d="M605 313q0 -154 -70.5 -240.5t-198.5 -86.5t-198.5 86.5t-70.5 240.5q0 156 70.5 242.5t198.5 86.5t198.5 -86.5t70.5 -242.5zM336 49q69 0 104 65.5t35 198.5q0 134 -35 200.5t-104 66.5t-104 -66.5t-35 -200.5q0 -133 35 -198.5t104 -65.5z" />
    <glyph glyph-name="one.tf" horiz-adv-x="672" 
d="M101 0v63h198v482h-177v44l221 39h74v-565h173v-63h-489z" />
    <glyph glyph-name="two.tf" horiz-adv-x="672" 
d="M571 479q0 -34 -14 -62.5t-27 -44.5q-10 -12 -50 -54t-88.5 -92t-95.5 -96.5t-69 -67.5h340v-62h-482v87l340 328q16 16 27 35.5t11 41.5q0 40 -39 63.5t-105 23.5q-40 0 -86.5 -13t-89.5 -36l-21 56q49 26 103 41t104 15q110 0 176 -44t66 -119z" />
    <glyph glyph-name="three.tf" horiz-adv-x="672" 
d="M385 335q92 -13 145 -56.5t53 -105.5q0 -86 -74 -136.5t-201 -50.5q-57 0 -117 16t-117 43l20 58q50 -26 101 -40.5t101 -14.5q78 0 121.5 34.5t43.5 95.5q0 57 -60.5 89t-168.5 32h-62v62h63q91 0 147.5 32t56.5 89q0 46 -39.5 71.5t-109.5 25.5q-39 0 -84 -10.5
t-85 -31.5l-20 56q47 24 101.5 36.5t100.5 12.5q114 0 181 -42.5t67 -114.5q0 -51 -44.5 -90.5t-119.5 -59.5z" />
    <glyph glyph-name="four.tf" horiz-adv-x="672" 
d="M521 199h78v-63h-78v-136h-118v136h-340v77l321 415h137v-429zM403 199v347l-266 -347h266z" />
    <glyph glyph-name="five.tf" horiz-adv-x="672" 
d="M336 396q116 0 186 -52t70 -139q0 -99 -75.5 -159t-202.5 -60q-54 0 -112 16t-112 43l20 58q49 -24 97 -39.5t96 -15.5q75 0 118.5 39t43.5 106t-49 103t-141 36q-40 0 -83.5 -4t-85.5 -12l13 312h429v-63h-316l-6 -177q26 4 54 6t56 2z" />
    <glyph glyph-name="six.tf" horiz-adv-x="672" 
d="M383 398q106 0 165 -51t59 -142q0 -101 -68 -160t-184 -59q-140 0 -207.5 72.5t-67.5 223.5q0 178 75 269t221 91q45 0 89.5 -9.5t90.5 -28.5l-16 -57q-40 15 -80.5 23.5t-77.5 8.5q-97 0 -137 -67t-41 -190q37 43 81.5 59.5t97.5 16.5zM351 48q65 0 103.5 40t38.5 109
q0 66 -34 99.5t-101 33.5q-62 0 -107.5 -32t-45.5 -101q0 -68 39 -108.5t107 -40.5z" />
    <glyph glyph-name="seven.tf" horiz-adv-x="672" 
d="M587 628v-83l-333 -545h-138l355 565h-382v63h498z" />
    <glyph glyph-name="eight.tf" horiz-adv-x="672" 
d="M445 350q80 -15 121 -61.5t41 -112.5q0 -89 -71.5 -139.5t-199.5 -50.5q-127 0 -198.5 50.5t-71.5 139.5q0 69 43 114t119 60q-54 13 -86.5 44.5t-32.5 85.5q0 76 60 119t167 43t167.5 -42t60.5 -120q0 -50 -31 -83t-88 -47zM454 480q0 48 -31.5 75t-86.5 27
q-54 0 -85.5 -27t-31.5 -75t31.5 -75t85.5 -27q55 0 86.5 27t31.5 75zM191 181q0 -63 39 -98.5t106 -35.5q68 0 107 35.5t39 98.5q0 60 -39 94t-107 34q-67 0 -106 -34t-39 -94z" />
    <glyph glyph-name="nine.tf" horiz-adv-x="672" 
d="M289 226q-105 0 -164.5 51.5t-59.5 141.5q0 101 70 162t186 61q129 0 199.5 -80t70.5 -221q0 -174 -74 -264.5t-215 -90.5q-43 0 -89.5 10.5t-92.5 26.5l17 57q39 -13 79.5 -22t77.5 -9q96 0 135 66t41 186q-38 -45 -83 -60t-98 -15zM321 580q-65 0 -103.5 -41.5
t-38.5 -111.5q0 -63 36 -97.5t99 -34.5q65 0 109 32.5t44 98.5q0 71 -40 112.5t-106 41.5z" />
    <glyph glyph-name="zero.tosf" horiz-adv-x="672" 
d="M605 224q0 -113 -70 -175.5t-198 -62.5q-129 0 -199.5 62.5t-70.5 175.5t70.5 174.5t199.5 61.5q128 0 198 -61.5t70 -174.5zM337 49q68 0 103 44t35 131t-35 130.5t-103 43.5q-69 0 -104.5 -43.5t-35.5 -130.5t35.5 -131t104.5 -44z" />
    <glyph glyph-name="one.tosf" horiz-adv-x="672" 
d="M101 0v63h198v300h-177v44l221 39h74v-383h173v-63h-489z" />
    <glyph glyph-name="two.tosf" horiz-adv-x="672" 
d="M572 312q0 -34 -24 -64t-52 -45l-263 -141h335v-62h-482v84l308 150q31 16 50.5 37.5t19.5 40.5q0 40 -38.5 63t-108.5 23q-43 0 -85 -12.5t-88 -37.5l-21 56q51 28 101.5 42t105.5 14q116 0 179 -38.5t63 -109.5z" />
    <glyph glyph-name="three.tosf" horiz-adv-x="672" 
d="M387 163q92 -14 145 -57.5t53 -106.5q0 -87 -73 -137t-199 -50q-56 0 -119 15.5t-118 43.5l19 58q50 -28 103 -41.5t103 -13.5q76 0 119 34t43 96q0 57 -60.5 89.5t-168.5 32.5h-62v61h63q92 0 147.5 31.5t55.5 87.5q0 43 -39 67.5t-109 24.5q-40 0 -84.5 -10.5
t-85.5 -31.5l-19 56q46 24 100.5 36t100.5 12q116 0 181.5 -40.5t65.5 -111.5q0 -50 -43.5 -88.5t-118.5 -56.5z" />
    <glyph glyph-name="four.tosf" horiz-adv-x="672" 
d="M524 35h78v-64h-78v-154h-118v154h-341v78l321 397h138v-411zM406 35v337l-267 -337h267z" />
    <glyph glyph-name="five.tosf" horiz-adv-x="672" 
d="M332 327q119 0 189 -51.5t70 -139.5q0 -101 -74.5 -160.5t-202.5 -59.5q-57 0 -113.5 16.5t-110.5 41.5l20 59q47 -25 95.5 -40t97.5 -15q70 0 116 39.5t46 105.5q0 68 -50 104t-143 36q-37 0 -80.5 -4.5t-85.5 -12.5l13 313h428v-62h-314l-7 -178q26 4 52 6t54 2z" />
    <glyph glyph-name="six.tosf" horiz-adv-x="672" 
d="M376 398q104 0 168 -53t64 -140q0 -99 -70.5 -159t-186.5 -60q-131 0 -200.5 75.5t-69.5 220.5q0 176 75.5 268t219.5 92q44 0 90.5 -11t90.5 -27l-17 -57q-38 15 -79 23.5t-78 8.5q-98 0 -137.5 -66t-41.5 -191q32 40 76 58t96 18zM351 48q65 0 103.5 40.5t38.5 108.5
q0 60 -36.5 96.5t-97.5 36.5q-70 0 -111.5 -36.5t-41.5 -96.5q0 -68 39.5 -108.5t105.5 -40.5z" />
    <glyph glyph-name="seven.tosf" horiz-adv-x="672" 
d="M585 446v-83l-332 -546h-139l356 567h-382v62h497z" />
    <glyph glyph-name="eight.tosf" horiz-adv-x="672" 
d="M445 350q31 -7 60 -20t51.5 -34t36 -51t13.5 -69q0 -89 -71.5 -139.5t-198.5 -50.5q-128 0 -199 50.5t-71 139.5q0 40 13.5 70t36 51t51.5 34t60 19q-48 11 -83.5 44t-35.5 87q0 76 60.5 118.5t167.5 42.5t167 -42.5t60 -118.5q0 -52 -33.5 -85t-84.5 -46zM453 481
q0 49 -30.5 75t-86.5 26t-87 -26t-31 -75t31 -76t87 -27t86.5 27t30.5 76zM191 181q0 -64 38 -99t107 -35t107.5 35t38.5 99q0 61 -38.5 94.5t-107.5 33.5t-107 -33.5t-38 -94.5z" />
    <glyph glyph-name="nine.tosf" horiz-adv-x="672" 
d="M300 54q-106 0 -169 51.5t-63 138.5q0 99 70 157.5t186 58.5q133 0 201.5 -74.5t68.5 -218.5q0 -173 -74 -264t-215 -91q-39 0 -87.5 9.5t-94.5 28.5l17 56q38 -15 79.5 -23.5t77.5 -8.5q93 0 134 65.5t42 187.5q-35 -38 -72.5 -55.5t-100.5 -17.5zM324 398
q-66 0 -104 -39t-38 -107q0 -60 36 -95t99 -35q71 0 112 35t41 96q0 67 -39.5 106t-106.5 39z" />
    <glyph glyph-name="fraction" unicode="&#x2044;" horiz-adv-x="163" 
d="M228 628h81l-368 -628h-86z" />
    <glyph glyph-name="onehalf" unicode="&#xbd;" horiz-adv-x="774" 
d="M489 628h73l-367 -628h-77zM196 628v-370h-89v308h-83v34l113 28h59zM735 282q0 -23 -9 -39.5t-21 -29.5q-4 -4 -26 -26.5t-49 -49.5l-52.5 -52.5t-36.5 -34.5h191v-50h-290v59l183 182q9 10 16.5 21.5t7.5 24.5q0 16 -19.5 25t-51.5 9q-28 0 -56.5 -9t-53.5 -25l-13 54
q31 17 64 26.5t67 9.5q64 0 106.5 -22.5t42.5 -72.5z" />
    <glyph glyph-name="onequarter" unicode="&#xbc;" horiz-adv-x="719" 
d="M196 628v-370h-89v308h-83v34l113 28h59zM489 628h73l-368 -628h-77zM641 128h47v-48h-47v-80h-78v80h-201v45l190 247h89v-244zM563 128v190l-144 -190h144z" />
    <glyph glyph-name="threequarters" unicode="&#xbe;" horiz-adv-x="824" 
d="M232 460q49 -8 74.5 -32t25.5 -62q0 -52 -41.5 -82t-123.5 -30q-37 0 -71.5 9.5t-66.5 28.5l13 54q31 -16 61 -25.5t55 -9.5q37 0 59 15.5t22 42.5q0 31 -32 45t-83 14h-35v56h36q44 0 72.5 14t28.5 48q0 20 -18.5 29.5t-47.5 9.5t-55.5 -7.5t-45.5 -19.5l-14 52
q28 16 61 24t70 8q67 0 101 -23t34 -69q0 -32 -20 -54.5t-59 -35.5zM598 628h72l-367 -628h-77zM751 128h46v-48h-46v-80h-79v80h-201v45l190 247h90v-244zM672 128v190l-144 -190h144z" />
    <glyph glyph-name="zero.numr" horiz-adv-x="437" 
d="M399 447q0 -93 -47 -142.5t-134 -49.5t-133.5 49.5t-46.5 142.5q0 92 46.5 141t133.5 49t134 -49t47 -141zM219 306q41 0 61 33.5t20 107.5t-20 108t-61 34t-61 -34t-20 -108t20 -107.5t61 -33.5z" />
    <glyph glyph-name="one.numr" horiz-adv-x="249" 
d="M191 632v-368h-88v303h-83v32l116 33h55z" />
    <glyph glyph-name="two.numr" horiz-adv-x="364" 
d="M327 541q0 -19 -7 -35.5t-20 -29.5l-169 -162h192v-50h-293v64l188 179q9 9 15.5 19.5t6.5 22.5q0 18 -20 28.5t-49 10.5q-33 0 -62 -11t-48 -25l-15 46q25 16 60.5 27.5t72.5 11.5q60 0 104 -23.5t44 -72.5z" />
    <glyph glyph-name="three.numr" horiz-adv-x="370" 
d="M232 462q48 -10 74.5 -35.5t26.5 -61.5q0 -52 -43.5 -81t-122.5 -29q-37 0 -71 10t-70 30l15 46q27 -18 55 -27.5t59 -9.5q39 0 62 18t23 49t-30.5 47t-88.5 16h-32v47h33q52 0 79 15.5t27 45.5q0 24 -21.5 35t-55.5 11q-25 0 -49.5 -7.5t-44.5 -20.5l-14 45
q25 15 58 23.5t68 8.5q68 0 105.5 -24t37.5 -67q0 -28 -21.5 -50t-58.5 -34z" />
    <glyph glyph-name="four.numr" horiz-adv-x="385" 
d="M309 389h45v-50h-45v-75h-88v75h-196v61l181 232h103v-243zM221 389v175l-144 -175h144z" />
    <glyph glyph-name="five.numr" horiz-adv-x="374" 
d="M186 504q75 0 115.5 -30t40.5 -85q0 -64 -43.5 -99t-123.5 -35q-34 0 -71 9t-69 31l14 46q25 -16 54.5 -26.5t60.5 -10.5q41 0 61.5 18.5t20.5 55.5q0 38 -27.5 57.5t-80.5 19.5q-22 0 -44.5 -2t-45.5 -5l8 184h259v-50h-173l-4 -81q5 1 18 2t30 1z" />
    <glyph glyph-name="six.numr" horiz-adv-x="392" 
d="M215 499q69 0 108 -30t39 -84q0 -61 -41.5 -95.5t-116.5 -34.5q-81 0 -123 43t-42 127q0 104 45.5 158t132.5 54q31 0 63.5 -6.5t49.5 -16.5l-12 -44q-15 7 -42.5 12.5t-52.5 5.5q-46 0 -70 -30t-25 -90q18 16 39 23.5t48 7.5zM204 304q35 0 54.5 20t19.5 56
q0 32 -18.5 50.5t-52.5 18.5q-37 0 -57.5 -18.5t-20.5 -50.5q0 -36 19.5 -56t55.5 -20z" />
    <glyph glyph-name="seven.numr" horiz-adv-x="337" 
d="M313 632v-64l-169 -304h-100l185 318h-204v50h288z" />
    <glyph glyph-name="eight.numr" horiz-adv-x="419" 
d="M293 468q46 -15 68.5 -40t22.5 -62q0 -54 -44.5 -82.5t-129.5 -28.5t-129.5 28.5t-44.5 82.5q0 39 22 64t69 38q-32 11 -48 30t-16 45q0 44 39 69t108 25t107 -25t38 -69q0 -27 -15.5 -46t-46.5 -29zM275 541q0 24 -17 37.5t-48 13.5t-48.5 -13.5t-17.5 -37.5
q0 -25 17.5 -39t48.5 -14t48 14t17 39zM130 372q0 -33 21 -51.5t59 -18.5q37 0 58.5 18.5t21.5 51.5q0 31 -21.5 48.5t-58.5 17.5q-38 0 -59 -17.5t-21 -48.5z" />
    <glyph glyph-name="nine.numr" horiz-adv-x="392" 
d="M170 394q-66 0 -103 30t-37 85q0 60 41 94t116 34q81 0 123.5 -43t42.5 -126q0 -104 -44.5 -158.5t-130.5 -54.5q-36 0 -68.5 8.5t-46.5 16.5l12 43q11 -5 37.5 -12t57.5 -7q47 0 70.5 30.5t23.5 90.5q-19 -16 -38 -23.5t-56 -7.5zM188 589q-35 0 -55 -20t-20 -56
q0 -32 19 -50.5t53 -18.5q37 0 57.5 18.5t20.5 50.5q0 36 -20 56t-55 20z" />
    <glyph glyph-name="zero.dnom" horiz-adv-x="437" 
d="M399 183q0 -93 -47 -142.5t-134 -49.5t-133.5 49.5t-46.5 142.5q0 92 46.5 141t133.5 49t134 -49t47 -141zM219 42q41 0 61 33.5t20 107.5t-20 108t-61 34t-61 -34t-20 -108t20 -107.5t61 -33.5z" />
    <glyph glyph-name="one.dnom" horiz-adv-x="249" 
d="M191 368v-368h-88v303h-83v32l116 33h55z" />
    <glyph glyph-name="two.dnom" horiz-adv-x="364" 
d="M327 277q0 -19 -7 -35.5t-20 -29.5l-169 -162h192v-50h-293v64l188 179q9 9 15.5 19.5t6.5 22.5q0 18 -20 28.5t-49 10.5q-33 0 -62 -11t-48 -25l-15 46q25 16 60.5 27.5t72.5 11.5q60 0 104 -23.5t44 -72.5z" />
    <glyph glyph-name="three.dnom" horiz-adv-x="370" 
d="M232 198q48 -10 74.5 -35.5t26.5 -61.5q0 -52 -43.5 -81t-122.5 -29q-37 0 -71 10t-70 30l15 46q27 -18 55 -27.5t59 -9.5q39 0 62 18t23 49t-30.5 47t-88.5 16h-32v47h33q52 0 79 15.5t27 45.5q0 24 -21.5 35t-55.5 11q-25 0 -49.5 -7.5t-44.5 -20.5l-14 45
q25 15 58 23.5t68 8.5q68 0 105.5 -24t37.5 -67q0 -28 -21.5 -50t-58.5 -34z" />
    <glyph glyph-name="four.dnom" horiz-adv-x="385" 
d="M309 125h45v-50h-45v-75h-88v75h-196v61l181 232h103v-243zM221 125v175l-144 -175h144z" />
    <glyph glyph-name="five.dnom" horiz-adv-x="374" 
d="M186 240q75 0 115.5 -30t40.5 -85q0 -64 -43.5 -99t-123.5 -35q-34 0 -71 9t-69 31l14 46q25 -16 54.5 -26.5t60.5 -10.5q41 0 61.5 18.5t20.5 55.5q0 38 -27.5 57.5t-80.5 19.5q-22 0 -44.5 -2t-45.5 -5l8 184h259v-50h-173l-4 -81q5 1 18 2t30 1z" />
    <glyph glyph-name="six.dnom" horiz-adv-x="392" 
d="M215 235q69 0 108 -30t39 -84q0 -61 -41.5 -95.5t-116.5 -34.5q-81 0 -123 43t-42 127q0 104 45.5 158t132.5 54q31 0 63.5 -6.5t49.5 -16.5l-12 -44q-15 7 -42.5 12.5t-52.5 5.5q-46 0 -70 -30t-25 -90q18 16 39 23.5t48 7.5zM204 40q35 0 54.5 20t19.5 56
q0 32 -18.5 50.5t-52.5 18.5q-37 0 -57.5 -18.5t-20.5 -50.5q0 -36 19.5 -56t55.5 -20z" />
    <glyph glyph-name="seven.dnom" horiz-adv-x="337" 
d="M313 368v-64l-169 -304h-100l185 318h-204v50h288z" />
    <glyph glyph-name="eight.dnom" horiz-adv-x="419" 
d="M293 204q46 -15 68.5 -40t22.5 -62q0 -54 -44.5 -82.5t-129.5 -28.5t-129.5 28.5t-44.5 82.5q0 39 22 64t69 38q-32 11 -48 30t-16 45q0 44 39 69t108 25t107 -25t38 -69q0 -27 -15.5 -46t-46.5 -29zM275 277q0 24 -17 37.5t-48 13.5t-48.5 -13.5t-17.5 -37.5
q0 -25 17.5 -39t48.5 -14t48 14t17 39zM130 108q0 -33 21 -51.5t59 -18.5q37 0 58.5 18.5t21.5 51.5q0 31 -21.5 48.5t-58.5 17.5q-38 0 -59 -17.5t-21 -48.5z" />
    <glyph glyph-name="nine.dnom" horiz-adv-x="392" 
d="M170 130q-66 0 -103 30t-37 85q0 60 41 94t116 34q81 0 123.5 -43t42.5 -126q0 -104 -44.5 -158.5t-130.5 -54.5q-36 0 -68.5 8.5t-46.5 16.5l12 43q11 -5 37.5 -12t57.5 -7q47 0 70.5 30.5t23.5 90.5q-19 -16 -38 -23.5t-56 -7.5zM188 325q-35 0 -55 -20t-20 -56
q0 -32 19 -50.5t53 -18.5q37 0 57.5 18.5t20.5 50.5q0 36 -20 56t-55 20z" />
    <glyph glyph-name="asterisk" unicode="*" horiz-adv-x="444" 
d="M363 308l-61 -43l-80 122l-80 -122l-62 43l93 116l-142 38l23 71l138 -52l-8 147h75l-7 -147l138 52l23 -71l-142 -38z" />
    <glyph glyph-name="backslash" unicode="\" horiz-adv-x="505" 
d="M114 628l373 -628h-102l-368 628h97z" />
    <glyph glyph-name="periodcentered" unicode="&#xb7;" horiz-adv-x="243" 
d="M184 195h-125v92h125v-92z" />
    <glyph glyph-name="bullet" unicode="&#x2022;" horiz-adv-x="299" 
d="M217 219h-135v135h135v-135z" />
    <glyph glyph-name="colon" unicode=":" horiz-adv-x="243" 
d="M183 324h-124v92h124v-92zM183 0h-124v92h124v-92z" />
    <glyph glyph-name="comma" unicode="," horiz-adv-x="227" 
d="M114 -73h-74l23 190h119z" />
    <glyph glyph-name="exclam" unicode="!" horiz-adv-x="269" 
d="M67 628h135l-23 -443h-90zM197 0h-125v92h125v-92z" />
    <glyph glyph-name="exclamdown" unicode="&#xa1;" horiz-adv-x="269" 
d="M72 628h125v-92h-125v92zM202 0h-135l22 440h90z" />
    <glyph glyph-name="numbersign" unicode="#" horiz-adv-x="606" 
d="M568 407h-117l-27 -160h118l-12 -68h-118l-29 -179h-68l29 179h-126l-30 -179h-69l31 179h-123l11 68h123l27 160h-124l12 69h124l25 152h68l-26 -152h127l26 152h68l-26 -152h117zM356 247l27 160h-127l-27 -160h127z" />
    <glyph glyph-name="period" unicode="." horiz-adv-x="236" 
d="M181 0h-125v92h125v-92z" />
    <glyph glyph-name="question" unicode="?" horiz-adv-x="516" 
d="M23 592q49 23 101 36.5t104 13.5q116 0 187.5 -46t71.5 -119q0 -61 -32.5 -91.5t-74.5 -49.5q-25 -11 -49 -23.5t-43 -28.5t-30.5 -36.5t-11.5 -48.5v-14h-100v15q0 37 14 66t35 52t47 41t50 33q28 18 48 39t20 55q0 43 -38.5 68t-102.5 25q-42 0 -87.5 -11.5
t-88.5 -31.5zM134 0v92h124v-92h-124z" />
    <glyph glyph-name="questiondown" unicode="&#xbf;" horiz-adv-x="514" 
d="M382 628v-92h-125v92h125zM492 36q-50 -24 -101.5 -37t-102.5 -13q-116 0 -187.5 45.5t-71.5 118.5q0 63 35.5 92.5t78.5 48.5q49 21 87.5 48.5t38.5 84.5v16h101v-17q0 -39 -12.5 -68t-32.5 -50.5t-44.5 -37.5t-48.5 -30q-31 -18 -53.5 -40t-22.5 -57q0 -40 39 -65.5
t102 -25.5q40 0 86.5 12t88.5 31z" />
    <glyph glyph-name="quotedbl" unicode="&#x22;" horiz-adv-x="370" 
d="M141 438h-75l-22 190h119zM304 438h-75l-21 190h119z" />
    <glyph glyph-name="quotesingle" unicode="'" horiz-adv-x="215" 
d="M123 438h-75l23 190h120z" />
    <glyph glyph-name="semicolon" unicode=";" horiz-adv-x="264" 
d="M199 314h-125v92h125v-92zM129 -98h-72l24 190h115z" />
    <glyph glyph-name="slash" unicode="/" horiz-adv-x="500" 
d="M391 628h91l-366 -628h-97z" />
    <glyph glyph-name="underscore" unicode="_" horiz-adv-x="442" 
d="M0 -53h442v-60h-442v60z" />
    <glyph glyph-name="comma.dnom" horiz-adv-x="189" 
d="M91 -66h-58l21 163h97z" />
    <glyph glyph-name="period.dnom" horiz-adv-x="182" 
d="M137 0h-92v83h92v-83z" />
    <glyph glyph-name="comma.numr" horiz-adv-x="189" 
d="M90 197h-57l20 164h98z" />
    <glyph glyph-name="period.numr" horiz-adv-x="182" 
d="M137 264h-92v82h92v-82z" />
    <glyph glyph-name="comma.sinf" horiz-adv-x="189" 
d="M90 -175h-57l20 163h98z" />
    <glyph glyph-name="period.sinf" horiz-adv-x="182" 
d="M137 -109h-92v83h92v-83z" />
    <glyph glyph-name="comma.sups" horiz-adv-x="189" 
d="M90 308h-57l20 161h98z" />
    <glyph glyph-name="period.sups" horiz-adv-x="182" 
d="M137 372h-92v82h92v-82z" />
    <glyph glyph-name="braceleft" unicode="{" horiz-adv-x="329" 
d="M286 -92h15v-59h-42q-79 0 -117.5 35.5t-38.5 108.5v133q0 53 -15.5 71.5t-61.5 18.5v60q46 0 61.5 17.5t15.5 67.5v136q0 74 38.5 109.5t117.5 35.5h42v-60h-15q-38 0 -55 -22.5t-17 -71.5v-131q0 -42 -25 -77t-60 -35q34 0 59.5 -34t25.5 -80v-129q0 -49 17 -71.5
t55 -22.5z" />
    <glyph glyph-name="braceright" unicode="}" horiz-adv-x="328" 
d="M43 -92q38 0 55 22t17 72v130q0 49 25.5 81t59.5 32q-35 0 -60 35t-25 78v130q0 50 -17 72.5t-55 22.5h-15v59h42q80 0 118 -35.5t38 -109.5v-132q0 -53 15.5 -71.5t61.5 -18.5v-60q-46 0 -61.5 -17.5t-15.5 -67.5v-137q0 -73 -38 -108.5t-118 -35.5h-42v59h15z" />
    <glyph glyph-name="bracketleft" unicode="[" horiz-adv-x="296" 
d="M263 568h-74v-660h74v-59h-185v779h185v-60z" />
    <glyph glyph-name="bracketright" unicode="]" horiz-adv-x="296" 
d="M107 568h-75v60h186v-779h-186v59h75v660z" />
    <glyph glyph-name="parenleft" unicode="(" horiz-adv-x="283" 
d="M254 -142h-89q-54 66 -87 163.5t-33 219.5q0 126 34.5 223.5t90.5 163.5h82q-45 -77 -68 -179t-23 -208q0 -105 23.5 -205t69.5 -178z" />
    <glyph glyph-name="parenright" unicode=")" horiz-adv-x="283" 
d="M30 -142q46 77 69 178t23 208q0 104 -23 205.5t-67 178.5h81q57 -66 91 -163t34 -221t-33 -222t-87 -164h-88z" />
    <glyph glyph-name="parenleft.dnom" horiz-adv-x="213" 
d="M181 -18h-70q-32 40 -52.5 88t-20.5 105q0 62 22.5 112.5t56.5 87.5h63q-25 -44 -39 -97t-14 -103q0 -49 14.5 -98.5t39.5 -94.5z" />
    <glyph glyph-name="parenright.dnom" horiz-adv-x="214" 
d="M32 -18q26 46 40.5 95.5t14.5 97.5q0 49 -14.5 102.5t-39.5 97.5h63q34 -37 56.5 -87.5t22.5 -112.5q0 -57 -20.5 -105t-51.5 -88h-71z" />
    <glyph glyph-name="parenleft.numr" horiz-adv-x="213" 
d="M182 247h-70q-32 40 -52.5 88t-20.5 105q0 62 22.5 112.5t56.5 88.5h63q-25 -44 -39 -97t-14 -104q0 -49 14 -98.5t40 -94.5z" />
    <glyph glyph-name="parenright.numr" horiz-adv-x="214" 
d="M32 247q26 45 40.5 95t14.5 98q0 50 -14.5 103.5t-39.5 97.5h63q34 -37 56.5 -87.5t22.5 -113.5q0 -57 -20.5 -105t-51.5 -88h-71z" />
    <glyph glyph-name="parenleft.sinf" horiz-adv-x="213" 
d="M182 -127h-70q-32 40 -52.5 88.5t-20.5 105.5q0 61 22.5 112t56.5 88h63q-25 -43 -39 -96.5t-14 -103.5q0 -49 14 -99t40 -95z" />
    <glyph glyph-name="parenright.sinf" horiz-adv-x="214" 
d="M32 -127q26 46 40.5 95.5t14.5 98.5t-14.5 102.5t-39.5 97.5h63q34 -37 56.5 -87.5t22.5 -112.5q0 -57 -20.5 -105.5t-51.5 -88.5h-71z" />
    <glyph glyph-name="parenleft.sups" horiz-adv-x="213" 
d="M181 357h-70q-32 40 -52.5 88.5t-20.5 105.5q0 62 22.5 112.5t56.5 87.5h63q-25 -44 -39 -97.5t-14 -102.5t14.5 -99t39.5 -95z" />
    <glyph glyph-name="parenright.sups" horiz-adv-x="214" 
d="M32 357q26 46 40.5 95.5t14.5 98.5t-14.5 102t-39.5 98h63q34 -37 56.5 -87.5t22.5 -112.5q0 -57 -20.5 -105.5t-51.5 -88.5h-71z" />
    <glyph glyph-name="emdash" unicode="&#x2014;" horiz-adv-x="553" 
d="M60 253h433v-60h-433v60z" />
    <glyph glyph-name="endash" unicode="&#x2013;" horiz-adv-x="382" 
d="M60 253h262v-60h-262v60z" />
    <glyph glyph-name="hyphen" unicode="-" horiz-adv-x="342" 
d="M59 262h224v-52h-224v52z" />
    <glyph glyph-name="guillemotleft" unicode="&#xab;" horiz-adv-x="457" 
d="M121 293l117 -153l-54 -47l-153 200l153 201l54 -48zM297 293l118 -153l-55 -47l-153 200l153 201l55 -48z" />
    <glyph glyph-name="guillemotright" unicode="&#xbb;" horiz-adv-x="457" 
d="M337 293l-118 153l55 48l153 -201l-153 -200l-55 47zM160 293l-118 153l55 48l153 -201l-153 -200l-55 47z" />
    <glyph glyph-name="guilsinglleft" unicode="&#x2039;" horiz-adv-x="281" 
d="M121 293l117 -153l-54 -47l-153 200l153 201l54 -48z" />
    <glyph glyph-name="guilsinglright" unicode="&#x203a;" horiz-adv-x="280" 
d="M160 293l-118 153l54 48l154 -201l-153 -200l-55 47z" />
    <glyph glyph-name="quotedblbase" unicode="&#x201e;" horiz-adv-x="387" 
d="M113 -98h-74l23 190h119zM270 -98h-75l23 190h119z" />
    <glyph glyph-name="quotedblleft" unicode="&#x201c;" horiz-adv-x="379" 
d="M261 628h75l-23 -190h-119zM105 628h75l-24 -190h-118z" />
    <glyph glyph-name="quotedblright" unicode="&#x201d;" horiz-adv-x="371" 
d="M122 438h-74l23 190h119zM278 438h-74l23 190h119z" />
    <glyph glyph-name="quoteleft" unicode="&#x2018;" horiz-adv-x="224" 
d="M105 628h75l-23 -190h-119z" />
    <glyph glyph-name="quoteright" unicode="&#x2019;" horiz-adv-x="215" 
d="M122 438h-74l23 190h119z" />
    <glyph glyph-name="quotesinglbase" unicode="&#x201a;" horiz-adv-x="227" 
d="M111 -98h-72l23 190h116z" />
    <glyph glyph-name="anoteleia" unicode="&#x387;" horiz-adv-x="198" 
d="M140 446v-109h-83v109h83z" />
    <glyph glyph-name="uni037E" unicode="&#x37e;" horiz-adv-x="258" 
d="M191 308h-115v92h115v-92zM127 -98h-72l24 190h115z" />
    <glyph glyph-name="cent" unicode="&#xa2;" horiz-adv-x="470" 
d="M417 67l17 -53q-32 -10 -61 -17t-55 -9v-93h-84v94q-95 10 -143.5 69t-48.5 166t48.5 166t143.5 69v106h84v-105q28 -3 56.5 -9t59.5 -16l-17 -54q-34 9 -64.5 13.5t-56.5 4.5q-71 0 -106.5 -43.5t-35.5 -130.5q0 -88 35.5 -132t106.5 -44q25 0 55 4.5t66 13.5z" />
    <glyph glyph-name="currency" unicode="&#xa4;" horiz-adv-x="482" 
d="M47 105l49 51q-10 18 -15.5 39.5t-5.5 44.5t6.5 44.5t17.5 39.5l-52 54l56 57l53 -56q17 10 37 15.5t41 5.5q25 0 48 -6t42 -17l54 58l56 -57l-51 -53q13 -19 20 -40.5t7 -44.5t-6.5 -44.5t-17.5 -40.5l48 -50l-56 -58l-48 52q-21 -13 -45.5 -20t-50.5 -7q-23 0 -44 6.5
t-40 18.5l-47 -50zM240 331q-37 0 -62.5 -27.5t-25.5 -66.5q0 -38 25.5 -65.5t62.5 -27.5q39 0 66 27.5t27 65.5q0 39 -27 66.5t-66 27.5z" />
    <glyph glyph-name="dollar" unicode="$" horiz-adv-x="568" 
d="M543 190q0 -79 -57 -132.5t-157 -66.5v-96h-83v91q-51 1 -102.5 15t-97.5 36l17 55q48 -19 95.5 -31.5t92.5 -12.5q81 0 127.5 31.5t46.5 85.5q0 37 -36 62t-125 44q-69 15 -114 33.5t-71 41.5t-36 50t-10 58q0 74 57 123.5t156 59.5v103h83v-102q40 -3 81 -14t78 -30
l-20 -58q-41 19 -83.5 30.5t-82.5 11.5q-74 0 -116 -26t-42 -72q0 -37 34 -58t121 -40q131 -28 187.5 -72t56.5 -120z" />
    <glyph glyph-name="Euro" unicode="&#x20ac;" horiz-adv-x="577" 
d="M408 54q28 0 56 4.5t58 14.5l18 -63q-35 -10 -72.5 -17t-73.5 -7q-122 0 -197.5 62.5t-95.5 181.5h-75l18 62h50q-1 4 -1 21.5v21.5h-67l18 62h57q20 119 95 181t197 62q36 0 75.5 -6t76.5 -19l-19 -63q-33 10 -62.5 16t-53.5 6q-79 0 -128 -45t-64 -132h267l-17 -62
h-257v-43h245l-18 -62h-220q15 -87 63.5 -131.5t126.5 -44.5z" />
    <glyph glyph-name="sterling" unicode="&#xa3;" horiz-adv-x="557" 
d="M210 62h322v-62h-491v63q46 0 63.5 19.5t17.5 68.5v158h-81v63h81v96q0 85 45.5 128.5t134.5 43.5q45 0 91.5 -7.5t93.5 -21.5l-17 -60q-39 12 -71 17.5t-58 5.5q-57 0 -79 -27.5t-22 -87.5v-87h179v-63h-179v-160q0 -29 -8 -50t-22 -37z" />
    <glyph glyph-name="yen" unicode="&#xa5;" horiz-adv-x="565" 
d="M535 628l-171 -290h144v-62h-169v-43h169v-63h-169v-170h-117v170h-163v63h163v43h-163v62h136l-169 290h135l137 -255l139 255h98z" />
    <glyph glyph-name="asciitilde" unicode="~" horiz-adv-x="438" 
d="M354 293l28 -43q-22 -29 -43 -41t-54 -12q-24 0 -40.5 4.5t-30.5 11.5q-13 6 -28.5 10t-35.5 4q-22 0 -36 -6.5t-30 -22.5l-28 42q25 31 47 43.5t53 12.5q20 0 37.5 -5t31.5 -12q13 -6 28 -9.5t36 -3.5q22 0 37 6t28 21z" />
    <glyph glyph-name="divide" unicode="&#xf7;" horiz-adv-x="473" 
d="M178 337v92h125v-92h-125zM48 183v83h377v-83h-377zM178 21v91h125v-91h-125z" />
    <glyph glyph-name="equal" unicode="=" horiz-adv-x="413" 
d="M62 344h289v-75h-289v75zM62 177h289v-75h-289v75z" />
    <glyph glyph-name="greater" unicode="&#x3e;" horiz-adv-x="425" 
d="M56 117l256 107l-256 107v90l338 -159v-75l-338 -159v89z" />
    <glyph glyph-name="less" unicode="&#x3c;" horiz-adv-x="425" 
d="M369 117v-89l-338 159v75l338 159v-90l-256 -107z" />
    <glyph glyph-name="logicalnot" unicode="&#xac;" horiz-adv-x="547" 
d="M483 326v-266h-92v194h-345v72h437z" />
    <glyph glyph-name="minus" unicode="&#x2212;" horiz-adv-x="459" 
d="M397 216h-335v70h335v-70z" />
    <glyph glyph-name="multiply" unicode="&#xd7;" horiz-adv-x="479" 
d="M50 360l52 52l140 -137l134 132l52 -54l-133 -132l133 -131l-53 -55l-133 134l-139 -139l-54 56l139 136z" />
    <glyph glyph-name="percent" unicode="%" horiz-adv-x="886" 
d="M197 642q81 0 124.5 -42.5t43.5 -121.5q0 -78 -43.5 -120.5t-124.5 -42.5t-124.5 42.5t-43.5 120.5q0 79 43.5 121.5t124.5 42.5zM659 628h89l-520 -628h-93zM197 603q-43 0 -65.5 -32t-22.5 -93q0 -60 22.5 -92t65.5 -32t65 32t22 92q0 61 -22 93t-65 32zM688 313
q81 0 125 -42.5t44 -120.5q0 -79 -44 -121.5t-125 -42.5t-124 42.5t-43 121.5q0 78 43 120.5t124 42.5zM688 274q-43 0 -65 -32t-22 -92q0 -61 22 -93t65 -32t65.5 32t22.5 93q0 60 -22.5 92t-65.5 32z" />
    <glyph glyph-name="perthousand" unicode="&#x2030;" horiz-adv-x="1285" 
d="M197 640q82 0 125 -42t43 -121t-43 -121.5t-125 -42.5t-125 42.5t-43 121.5t43 121t125 42zM660 628h89l-520 -628h-95zM197 601q-43 0 -65.5 -31.5t-22.5 -92.5q0 -60 22.5 -92t65.5 -32t65.5 32t22.5 92q0 61 -22.5 92.5t-65.5 31.5zM688 313q82 0 125.5 -42t43.5 -121
q0 -80 -43.5 -122t-125.5 -42t-125 42t-43 122q0 79 43 121t125 42zM1092 313q82 0 125 -42t43 -121q0 -80 -43 -122t-125 -42t-125.5 42t-43.5 122q0 79 43.5 121t125.5 42zM688 274q-43 0 -65.5 -32t-22.5 -92q0 -61 22.5 -93t65.5 -32t65.5 32t22.5 93q0 60 -22.5 92
t-65.5 32zM1092 274q-43 0 -65.5 -32t-22.5 -92q0 -61 22.5 -93t65.5 -32t65 32t22 93q0 60 -22 92t-65 32z" />
    <glyph glyph-name="plus" unicode="+" horiz-adv-x="483" 
d="M451 261v-75h-172v-172h-75v172h-172v75h172v173h75v-173h172z" />
    <glyph glyph-name="plusminus" unicode="&#xb1;" horiz-adv-x="528" 
d="M472 269h-165v-132h-84v132h-167v72h167v127h84v-127h165v-72zM472 22h-416v71h416v-71z" />
    <glyph glyph-name="uniF8FF" unicode="&#xf8ff;" horiz-adv-x="1095" 
d="M218 427q31 -2 56.5 -17.5t25.5 -51.5q0 -23 -12.5 -42t-32.5 -27q-3 -1 -5 -2l-4 -2l66 -116h-91l-55 103q-8 -1 -17 -1h-18v-102h-79v259h129h18.5t18.5 -1zM131 307q32 0 61 10t29 40q0 12 -7 21.5t-19 11.5q-5 1 -9.5 1h-9.5h-45v-84zM611 261q0 52 31.5 75.5
t79.5 23.5q19 0 38 -3t36 -8l-12 -35q-12 3 -23.5 5t-24.5 2q-28 0 -39.5 -16t-11.5 -44t12.5 -43t40.5 -15q13 0 23.5 1.5t22.5 4.5l12 -35q-17 -5 -36 -8t-38 -3q-48 0 -79.5 23.5t-31.5 74.5zM453 360q53 0 85.5 -22t32.5 -77q0 -53 -32 -75.5t-86 -22.5
q-50 0 -84.5 20.5t-34.5 77.5t34 78t85 21zM1044 283v-106q-24 -7 -49.5 -10.5t-51.5 -3.5q-18 0 -38 2t-36.5 8.5t-27.5 18.5t-11 32q0 16 9 27.5t22.5 19t30 11t32.5 4.5q11 1 23 1h23v16q0 13 -10.5 17t-29.5 4q-16 0 -32.5 -2.5t-32.5 -6.5l-13 34q23 6 48 8.5t50 2.5
q49 0 71.5 -19t22.5 -58zM453 196q28 0 35.5 16.5t7.5 48.5q0 36 -7.5 51.5t-35.5 15.5q-29 0 -36.5 -15.5t-7.5 -51.5q0 -32 7.5 -48.5t36.5 -16.5zM970 196v63h-16.5t-16.5 -1q-13 -1 -25.5 -9.5t-12.5 -24.5q0 -17 14 -23t31 -6h13.5t12.5 1zM264 46q-54 0 -107.5 -7
t-104.5 -19v82q51 12 103.5 18t105.5 6q52 0 103.5 -6t100.5 -17q48 -11 98 -17.5t101 -6.5q22 0 43 3t41 8q1 0 1.5 -0.5t0.5 -1.5v-3q-33 -22 -66.5 -44t-67.5 -41q-38 1 -75 7.5t-73 14.5q-49 11 -100 17.5t-104 6.5zM813 105q3 4 6.5 5.5t7.5 1.5h217v-90h-282z" />
    <glyph glyph-name="bar" unicode="|" horiz-adv-x="242" 
d="M164 -151h-86v779h86v-779z" />
    <glyph glyph-name="brokenbar" unicode="&#xa6;" horiz-adv-x="242" 
d="M175 285h-109v343h109v-343zM66 167h109v-376h-109v376z" />
    <glyph glyph-name="at" unicode="@" horiz-adv-x="942" 
d="M480 642q98 0 176.5 -24t132 -69t82.5 -110t29 -146q0 -63 -20 -119t-56 -97.5t-85.5 -66t-108.5 -24.5q-35 0 -55 20.5t-20 77.5q-23 -40 -58 -69t-75 -29q-71 0 -109.5 59t-38.5 167q0 117 57.5 183t148.5 66q49 0 90.5 -11t82.5 -27v-376q0 -4 2.5 -6t4.5 -2
q29 1 54.5 22t44 55.5t29 81.5t10.5 101q0 62 -18.5 115.5t-57 92t-99 60.5t-143.5 22q-155 0 -244.5 -94t-89.5 -257q0 -169 83.5 -261t237.5 -92q34 0 67.5 6.5t63.5 14.5l18 -50q-30 -10 -66 -16.5t-83 -6.5q-100 0 -179.5 28t-134 80t-83.5 127.5t-29 169.5
q0 190 116 297t323 107zM556 161v231q-18 7 -37 12t-41 5q-49 0 -75 -51t-26 -149q0 -90 15 -130.5t48 -40.5q18 0 35 11t32 28t27.5 39.5t21.5 44.5z" />
    <glyph glyph-name="ampersand" unicode="&#x26;" horiz-adv-x="728" 
d="M728 46l-82 -73l-120 105q-48 -43 -112 -67.5t-126 -24.5q-114 0 -184 50t-70 131q0 56 43.5 103.5t129.5 83.5q-36 31 -59 71t-23 73q0 63 56 103.5t144 40.5q84 0 137.5 -39t53.5 -100q0 -45 -38 -87.5t-107 -75.5l149 -123q14 27 25 57t18 63l107 -16
q-8 -46 -26 -88.5t-45 -79.5zM329 584q-43 0 -69 -23t-26 -62q0 -22 20.5 -51t55.5 -57q48 21 76.5 51t28.5 58q0 39 -23.5 61.5t-62.5 22.5zM159 167q0 -51 38 -83t100 -32q41 0 85.5 22t77.5 60l-187 161q-57 -28 -85.5 -59.5t-28.5 -68.5z" />
    <glyph glyph-name="paragraph" unicode="&#xb6;" horiz-adv-x="601" 
d="M24 442q0 90 52 138t151 48h144v-837h-99v446h-37q-103 0 -157 52.5t-54 152.5zM417 -209v837h100v-837h-100z" />
    <glyph glyph-name="copyright" unicode="&#xa9;" horiz-adv-x="739" 
d="M696 314q0 -69 -25.5 -129.5t-69.5 -104.5t-103.5 -69t-127.5 -25q-75 0 -136 24.5t-103 67.5t-65 103.5t-23 132.5q0 69 26 129t70 103.5t103.5 68.5t127.5 25t127.5 -24.5t103.5 -68t69.5 -103.5t25.5 -130zM639 314q0 58 -20.5 109.5t-57 89t-85.5 59t-106 21.5
t-106.5 -21.5t-85.5 -59t-57 -88.5t-21 -110q0 -61 20 -113t56 -89.5t86.5 -58.5t110.5 -21q56 0 105 22t84.5 60.5t56 90t20.5 109.5zM387 174q17 0 41 4.5t52 13.5l10 -40q-33 -10 -64 -16t-58 -6q-82 0 -125 47.5t-43 137.5t43 137t125 47q28 0 59 -6t63 -16l-10 -38
q-28 8 -51.5 12.5t-41.5 4.5q-54 0 -82.5 -36t-28.5 -105t28.5 -105t82.5 -36z" />
    <glyph glyph-name="registered" unicode="&#xae;" horiz-adv-x="739" 
d="M696 314q0 -69 -25.5 -129.5t-69.5 -104.5t-103.5 -69t-127.5 -25q-75 0 -136 24.5t-103 67.5t-65 103.5t-23 132.5q0 70 26 130t70 103.5t103.5 68t127.5 24.5t127.5 -24.5t103.5 -68t69.5 -103.5t25.5 -130zM639 314q0 58 -20.5 109.5t-57 89t-85.5 59t-106 21.5
t-106.5 -21.5t-85.5 -59t-57 -88.5t-21 -110q0 -61 20 -113t56 -89.5t86.5 -58.5t110.5 -21q56 0 105 22t84.5 60.5t56 90t20.5 109.5zM516 402q0 -32 -19.5 -55.5t-59.5 -35.5l95 -164h-73l-83 153q-18 -1 -37 -2.5t-40 -1.5v-149h-61v342h140q69 0 103.5 -21.5t34.5 -65.5
zM454 404q0 26 -20.5 39t-61.5 13h-73v-127h9q74 1 110 19.5t36 55.5z" />
    <glyph glyph-name="section" unicode="&#xa7;" horiz-adv-x="583" 
d="M557 213q0 -38 -18 -72t-49 -58q12 -14 17.5 -32.5t5.5 -40.5q0 -84 -67.5 -129t-190.5 -45q-48 0 -92 11.5t-89 33.5l17 53q43 -17 84.5 -29t79.5 -12q73 0 113.5 25.5t40.5 71.5q0 30 -35 51.5t-123 48.5q-123 38 -171.5 78t-48.5 104q0 34 19 66t53 54
q-19 16 -28.5 37t-9.5 49q0 77 64.5 119.5t180.5 42.5q41 0 87 -10.5t87 -31.5l-19 -52q-37 17 -77 27t-75 10q-69 0 -107 -23.5t-38 -64.5q0 -31 33.5 -47.5t113.5 -40.5q136 -40 189 -82.5t53 -111.5zM276 185q51 -16 89.5 -30t63.5 -28q16 13 25.5 33t9.5 40
q0 32 -43.5 60.5t-146.5 56.5q-30 8 -57.5 17.5t-48.5 18.5q-20 -12 -32 -30t-12 -39q0 -28 36 -51t116 -48z" />
    <glyph glyph-name="degree" unicode="&#xb0;" horiz-adv-x="354" 
d="M177 642q64 0 100 -40.5t36 -113.5q0 -72 -36 -112t-100 -40t-99.5 40t-35.5 112q0 73 35.5 113.5t99.5 40.5zM104 488q0 -63 18 -92.5t55 -29.5t55.5 29.5t18.5 92.5q0 64 -18.5 94t-55.5 30t-55 -30t-18 -94z" />
    <glyph glyph-name="uni2116" unicode="&#x2116;" horiz-adv-x="1039" 
d="M845 341q-76 0 -115 38.5t-39 112.5q0 73 39 111.5t115 38.5t115.5 -38.5t39.5 -111.5q0 -74 -39.5 -112.5t-115.5 -38.5zM550 628h79v-628h-151l-320 523v-523h-78v628h148l322 -524v524zM924 492q0 55 -19.5 82t-59.5 27t-59 -27t-19 -82t19 -82t59 -27t59.5 27
t19.5 82zM703 237v54h284v-54h-284z" />
    <glyph glyph-name="asciicircum" unicode="^" horiz-adv-x="453" 
d="M119 290h-89l159 338h75l159 -338h-90l-107 257z" />
    <glyph glyph-name="dagger" unicode="&#x2020;" horiz-adv-x="525" 
d="M22 351v69h182v208h117v-208h182v-69h-182v-513h-117v513h-182z" />
    <glyph glyph-name="daggerdbl" unicode="&#x2021;" horiz-adv-x="577" 
d="M48 120h182v231h-182v69h182v208h117v-208h182v-69h-182v-231h182v-69h-182v-213h-117v213h-182v69z" />
    <glyph glyph-name="uni0374" unicode="&#x374;" horiz-adv-x="237" 
d="M14 380l77 248h116l-119 -248h-74z" />
    <glyph glyph-name="uni0375" unicode="&#x375;" horiz-adv-x="237" 
d="M20 -81l77 248h116l-118 -248h-75z" />
    <glyph glyph-name="acute" unicode="&#xb4;" horiz-adv-x="311" 
d="M169 531h-82l86 109h116z" />
    <glyph glyph-name="breve" unicode="&#x2d8;" horiz-adv-x="436" 
d="M366 650q-6 -56 -44 -89.5t-98 -33.5q-61 0 -100 32t-43 91h60q5 -33 29.5 -48t52.5 -15q31 0 54.5 15t29.5 48h59z" />
    <glyph glyph-name="caron" unicode="&#x2c7;" horiz-adv-x="367" 
d="M330 640l-89 -109h-117l-88 109h83l64 -61l64 61h83z" />
    <glyph glyph-name="cedilla" unicode="&#xb8;" horiz-adv-x="634" 
d="M327 -170l8 42q14 -4 25.5 -6t20.5 -2q23 0 33 8t10 21t-10 21.5t-34 8.5q-9 0 -20.5 -2.5t-24.5 -6.5l-8 41q18 4 34.5 6.5t32.5 2.5q54 0 81 -18.5t27 -52.5q0 -35 -27.5 -53.5t-81.5 -18.5q-13 0 -30 2.5t-36 6.5z" />
    <glyph glyph-name="circumflex" unicode="&#x2c6;" horiz-adv-x="388" 
d="M338 531h-82l-65 62l-63 -62h-83l89 109h116z" />
    <glyph glyph-name="dieresis" unicode="&#xa8;" horiz-adv-x="529" 
d="M231 628v-97h-87v97h87zM390 628v-97h-87v97h87z" />
    <glyph glyph-name="dotaccent" unicode="&#x2d9;" horiz-adv-x="313" 
d="M214 633v-100h-112v100h112z" />
    <glyph glyph-name="grave" unicode="`" horiz-adv-x="321" 
d="M174 531l-119 109h116l85 -109h-82z" />
    <glyph glyph-name="hungarumlaut" unicode="&#x2dd;" horiz-adv-x="581" 
d="M172 531h-82l79 109h115zM333 531h-82l79 109h115z" />
    <glyph glyph-name="macron" unicode="&#xaf;" horiz-adv-x="513" 
d="M126 556v72h288v-72h-288z" />
    <glyph glyph-name="ogonek" unicode="&#x2db;" horiz-adv-x="490" 
d="M345 34l32 -17q-57 -48 -78 -77t-21 -59q0 -21 20 -35.5t49 -14.5h84v-42q-23 -5 -55 -8.5t-59 -3.5q-53 0 -85.5 26t-32.5 66q0 39 31 81.5t115 83.5z" />
    <glyph glyph-name="ring" unicode="&#x2da;" horiz-adv-x="286" 
d="M254 614q1 -4 2 -9t1 -10q0 -34 -28.5 -51.5t-85.5 -17.5t-86 17.5t-29 51.5t29 51.5t86 17.5q49 0 77 -12.5t34 -37.5zM184 595q0 25 -9.5 34.5t-31.5 9.5q-24 0 -33.5 -9.5t-9.5 -34.5t9.5 -34.5t33.5 -9.5q22 0 31.5 9.5t9.5 34.5z" />
    <glyph glyph-name="tilde" unicode="&#x2dc;" horiz-adv-x="525" 
d="M391 626l28 -43q-22 -29 -44 -40.5t-53 -11.5q-22 0 -38 4t-29 10q-15 7 -31.5 11.5t-37.5 4.5q-20 0 -34.5 -7t-30.5 -23l-29 43q26 31 48.5 43t51.5 12q19 0 38.5 -6t35.5 -12q12 -4 26.5 -8t33.5 -4q22 0 36 6t29 21z" />
    <glyph glyph-name="acute.case" horiz-adv-x="330" 
d="M198 711h-83l86 109h116z" />
    <glyph glyph-name="breve.case" horiz-adv-x="342" 
d="M315 831q-6 -54 -41 -89.5t-101 -35.5t-102.5 34.5t-40.5 90.5h60q5 -31 27.5 -48t54.5 -17q33 0 55.5 17t28.5 48h59z" />
    <glyph glyph-name="caron.case" horiz-adv-x="415" 
d="M353 820l-88 -109h-116l-88 109h82l64 -62l64 62h82z" />
    <glyph glyph-name="circumflex.case" horiz-adv-x="274" 
d="M283 711h-82l-64 61l-64 -61h-83l89 109h116z" />
    <glyph glyph-name="dieresis.case" horiz-adv-x="441" 
d="M185 813v-102h-94v102h94zM361 813v-102h-95v102h95z" />
    <glyph glyph-name="dotaccent.case" horiz-adv-x="201" 
d="M39 711v102h123v-102h-123z" />
    <glyph glyph-name="grave.case" horiz-adv-x="208" 
d="M84 711l-119 109h116l86 -109h-83z" />
    <glyph glyph-name="hungarumlaut.case" horiz-adv-x="502" 
d="M162 711h-82l78 109h116zM323 711h-82l78 109h116z" />
    <glyph glyph-name="macron.case" horiz-adv-x="373" 
d="M43 711v77h288v-77h-288z" />
    <glyph glyph-name="ring.case" horiz-adv-x="494" 
d="M130 774q0 35 28.5 52t85.5 17q54 0 84 -17.5t30 -51.5q0 -36 -28.5 -52.5t-85.5 -16.5q-54 0 -84 16t-30 53zM286 774q0 21 -8 32.5t-34 11.5q-25 0 -33.5 -11t-8.5 -33q0 -21 8 -32.5t34 -11.5q25 0 33.5 11.5t8.5 32.5z" />
    <glyph glyph-name="tilde.case" horiz-adv-x="633" 
d="M437 806l28 -42q-22 -29 -44 -41t-53 -12q-23 0 -39 4.5t-30 10.5t-30.5 10.5t-35.5 4.5q-21 0 -35.5 -6.5t-30.5 -22.5l-28 42q25 31 47 43t53 12q21 0 40 -6t35 -13q12 -5 25.5 -8t32.5 -3q22 0 36.5 6t28.5 21z" />
    <glyph glyph-name="dotbelowcomb" unicode="&#x323;" horiz-adv-x="181" 
d="M150 -160h-110v92h110v-92z" />
    <glyph glyph-name="tonos" unicode="&#x384;" horiz-adv-x="233" 
d="M67 531l36 157h102l-69 -157h-69z" />
    <glyph glyph-name="dieresistonos" unicode="&#x385;" horiz-adv-x="430" 
d="M156 531l36 157h102l-69 -157h-69zM115 628v-97h-84v97h84zM395 628v-97h-84v97h84z" />
    <glyph glyph-name="tonos.case" horiz-adv-x="233" 
d="M67 673l36 157h102l-69 -157h-69z" />
    <glyph glyph-name="uniE132" unicode="&#xe132;" horiz-adv-x="511" 
d="M424 531h-82l86 109h116zM174 531h-82l86 109h116zM182 446v-446h-112v446h112zM442 446v-524q0 -72 -37 -108.5t-116 -36.5q-19 0 -35.5 3.5t-28.5 10.5l8 55q8 -2 18.5 -3t22.5 -1q31 0 43.5 18t12.5 56v530h112z" />
    <glyph glyph-name="uniE133" unicode="&#xe133;" horiz-adv-x="567" 
d="M467 711h-83l86 109h116zM185 711h-83l86 109h116zM198 628v-628h-118v628h118zM370 628h117v-651q0 -81 -53 -121.5t-157 -41.5q-11 0 -22.5 1.5t-21.5 5.5l7 60q8 -1 17.5 -2.5t17.5 -1.5q49 0 72 19.5t23 64.5v667z" />
    <glyph glyph-name="uni0326" unicode="&#x326;" horiz-adv-x="192" 
d="M99 -258h-74l23 190h119z" />
    <glyph glyph-name="dotlessi" unicode="&#x131;" horiz-adv-x="252" 
d="M182 446v-446h-112v446h112z" />
    <glyph glyph-name="uni0237" unicode="&#x237;" horiz-adv-x="259" 
d="M190 446v-524q0 -72 -37 -108.5t-116 -36.5q-19 0 -35.5 3.5t-28.5 10.5l8 55q8 -2 18.5 -3t22.5 -1q31 0 43.5 18t12.5 56v530h112z" />
    <glyph glyph-name="florin" unicode="&#x192;" horiz-adv-x="599" 
d="M111 -40q38 0 56 16t27 58l71 346h-69l14 66h69l10 47q16 76 62.5 111.5t129.5 35.5q29 0 53.5 -6t44.5 -16l-34 -52q-14 4 -29 6.5t-31 2.5q-36 0 -55 -17t-27 -59l-11 -53h114l-14 -66h-114l-71 -341q-15 -75 -61.5 -109.5t-130.5 -34.5q-28 0 -52 5.5t-46 16.5l34 52
q15 -4 29.5 -6.5t30.5 -2.5z" />
    <glyph glyph-name="partialdiff" unicode="&#x2202;" horiz-adv-x="600" 
d="M250 397q56 0 100.5 -16.5t78.5 -57.5q-2 125 -41 190.5t-137 65.5q-22 0 -42.5 -3t-38.5 -7l-16 60q24 6 51 9.5t52 3.5q145 0 220 -91t75 -268q0 -149 -68 -223t-207 -74q-119 0 -185 57.5t-66 161.5q0 90 59 141t165 51zM282 48q70 0 107.5 42.5t37.5 106.5
q0 59 -39.5 95.5t-113.5 36.5q-64 0 -99 -34.5t-35 -97.5q0 -72 36.5 -110.5t105.5 -38.5z" />
    <glyph glyph-name="trademark" unicode="&#x2122;" horiz-adv-x="683" 
d="M510 628h88l30 -283h-71l-21 225l-68 -225h-52l-64 222l-19 -222h-51l28 283h88l54 -182zM265 628v-38h-84v-245h-70v245h-85v38h239z" />
    <glyph glyph-name="ellipsis" unicode="&#x2026;" horiz-adv-x="625" 
d="M181 0h-125v92h125v-92zM375 0h-125v92h125v-92zM569 0h-125v92h125v-92z" />
    <glyph glyph-name="northWestArrow" unicode="&#x2196;" horiz-adv-x="716" 
d="M57 628h340v-88h-189l489 -488l-64 -65l-485 486v-187h-91v342z" />
    <glyph glyph-name="downArrow" unicode="&#x2193;" horiz-adv-x="526" 
d="M263 -14l-244 241l62 63l135 -134v472h93v-470l135 134l62 -63z" />
    <glyph glyph-name="leftArrow" unicode="&#x2190;" horiz-adv-x="692" 
d="M22 315l243 243l63 -62l-136 -137h464v-90h-465l135 -136l-63 -62z" />
    <glyph glyph-name="upArrow" unicode="&#x2191;" horiz-adv-x="527" 
d="M216 0v465l-134 -133l-62 63l244 241l243 -243l-62 -63l-135 134v-464h-94z" />
    <glyph glyph-name="leftRightArrow" unicode="&#x2194;" horiz-adv-x="799" 
d="M22 321l243 243l63 -62l-136 -137h415l-136 137l63 62l243 -243l-241 -244l-63 63l136 136h-419l136 -136l-63 -63z" />
    <glyph glyph-name="southEastArrow" unicode="&#x2198;" horiz-adv-x="716" 
d="M18 575l65 65l485 -487v188h91v-341h-340v87h188z" />
    <glyph glyph-name="rightArrow" unicode="&#x2192;" horiz-adv-x="692" 
d="M36 269v90h464l-136 137l63 62l243 -243l-241 -244l-63 62l135 136h-465z" />
    <glyph glyph-name="northEastArrow" unicode="&#x2197;" horiz-adv-x="716" 
d="M18 52l488 488h-187v88h340v-342h-91v188l-485 -486z" />
    <glyph glyph-name="southWestArrow" unicode="&#x2199;" horiz-adv-x="716" 
d="M57 0v341h91v-188l485 487l64 -65l-489 -488h189v-87h-340z" />
    <glyph glyph-name="upDownArrow" unicode="&#x2195;" horiz-adv-x="501" 
d="M251 -14l-222 218l56 56l122 -122v346l-123 -123l-55 56l222 219l220 -221l-55 -56l-123 123v-343l123 123l55 -56z" />
    <glyph glyph-name="checkmark" unicode="&#x2713;" horiz-adv-x="499" 
d="M197 66l-182 182l67 68l119 -119l223 223l63 -64z" />
    </font>
</defs>
</svg>
