<?xml version="1.0" standalone="no"?>
<!DOCTYPE svg PUBLIC "-//W3C//DTD SVG 1.1//EN" "http://www.w3.org/Graphics/SVG/1.1/DTD/svg11.dtd" >
<svg xmlns="http://www.w3.org/2000/svg" xmlns:xlink="http://www.w3.org/1999/xlink" version="1.1">
<metadata>
Created by FontForge 20200511 at Wed Oct 10 07:04:40 2018
 By convertio
Copyright (c) 2018 by Gimeno Gra`fic. All rights reserved.

This font is for the exclusive use of the company Roca Sanitario, S.A - http://www.roca.com
</metadata>
<defs>
<font id="Roca-Light" horiz-adv-x="439" >
  <font-face 
    font-family="Roca Light"
    font-weight="300"
    font-stretch="normal"
    units-per-em="1000"
    panose-1="2 0 5 9 0 0 0 2 0 4"
    ascent="777"
    descent="-223"
    x-height="446"
    cap-height="628"
    bbox="-146 -246 1168 983"
    underline-thickness="0"
    underline-position="0"
    unicode-range="U+000D-F8FF"
  />
<missing-glyph horiz-adv-x="512" 
d="M87 0v628h338v-628h-338zM154 584l103 -221l102 221h-205zM131 541v-449l104 225zM278 317l103 -223v445zM152 44h209l-104 226z" />
    <glyph glyph-name="Lgeminada" unicode="L&#xb7;L" horiz-adv-x="971" 
d="M163 46h316v-46h-390v628h74v-582zM632 46h316v-46h-390v628h74v-582zM399 291h-98v77h98v-77z" />
    <glyph glyph-name="lgeminada" unicode="l&#xb7;l" horiz-adv-x="490" 
d="M148 0h-70v628l70 17v-645zM412 0h-70v628l70 17v-645zM294 291h-98v77h98v-77z" />
    <glyph glyph-name=".notdef" horiz-adv-x="512" 
d="M87 0v628h338v-628h-338zM154 584l103 -221l102 221h-205zM131 541v-449l104 225zM278 317l103 -223v445zM152 44h209l-104 226z" />
    <glyph glyph-name=".null" horiz-adv-x="0" 
 />
    <glyph glyph-name="CR" unicode="&#xd;" horiz-adv-x="228" 
 />
    <glyph glyph-name="space" unicode=" " horiz-adv-x="228" 
 />
    <glyph glyph-name="uni00A0" unicode="&#xa0;" horiz-adv-x="228" 
 />
    <glyph glyph-name="A" unicode="A" horiz-adv-x="592" 
d="M491 0l-63 177h-291l-64 -177h-50l227 628h93l226 -628h-78zM153 223h258l-128 361z" />
    <glyph glyph-name="Aacute" unicode="&#xc1;" horiz-adv-x="592" 
d="M322 711h-58l85 109h92zM491 0l-63 177h-291l-64 -177h-50l227 628h93l226 -628h-78zM153 223h258l-128 361z" />
    <glyph glyph-name="Abreve" unicode="&#x102;" horiz-adv-x="592" 
d="M428 820q0 -52 -35.5 -83t-94.5 -31q-60 0 -96.5 30.5t-36.5 83.5h60q0 -34 19.5 -54t52.5 -20t52.5 20t19.5 54h59zM491 0l-63 177h-291l-64 -177h-50l227 628h93l226 -628h-78zM153 223h258l-128 361z" />
    <glyph glyph-name="uni01CD" unicode="&#x1cd;" horiz-adv-x="592" 
d="M428 820l-89 -109h-85l-89 109h59l73 -68l72 68h59zM491 0l-63 177h-291l-64 -177h-50l227 628h93l226 -628h-78zM153 223h258l-128 361z" />
    <glyph glyph-name="Acircumflex" unicode="&#xc2;" horiz-adv-x="592" 
d="M428 711h-59l-72 67l-73 -67h-59l89 109h85zM491 0l-63 177h-291l-64 -177h-50l227 628h93l226 -628h-78zM153 223h258l-128 361z" />
    <glyph glyph-name="Adieresis" unicode="&#xc4;" horiz-adv-x="592" 
d="M250 808v-97h-71v97h71zM413 808v-97h-71v97h71zM491 0l-63 177h-291l-64 -177h-50l227 628h93l226 -628h-78zM153 223h258l-128 361z" />
    <glyph glyph-name="uni1EA0" unicode="&#x1ea0;" horiz-adv-x="592" 
d="M491 0l-63 177h-291l-64 -177h-50l227 628h93l226 -628h-78zM153 223h258l-128 361zM327 -145h-84v77h84v-77z" />
    <glyph glyph-name="Agrave" unicode="&#xc0;" horiz-adv-x="592" 
d="M267 711l-119 109h92l85 -109h-58zM491 0l-63 177h-291l-64 -177h-50l227 628h93l226 -628h-78zM153 223h258l-128 361z" />
    <glyph glyph-name="Amacron" unicode="&#x100;" horiz-adv-x="592" 
d="M160 711v57h272v-57h-272zM491 0l-63 177h-291l-64 -177h-50l227 628h93l226 -628h-78zM153 223h258l-128 361z" />
    <glyph glyph-name="Aogonek" unicode="&#x104;" horiz-adv-x="592" 
d="M609 -211q-22 -4 -54 -8t-54 -4q-46 0 -80.5 28.5t-34.5 65.5q0 40 24 73.5t77 67.5l-59 165h-291l-64 -177h-50l227 628h93l226 -628h-34q-54 -46 -71.5 -70.5t-17.5 -51.5q0 -23 24 -40.5t55 -17.5h84v-31zM153 223h258l-128 361z" />
    <glyph glyph-name="Aring" unicode="&#xc5;" horiz-adv-x="592" 
d="M491 0l-63 177h-291l-64 -177h-50l222 614q-33 6 -49 21.5t-16 42.5q0 35 28 52t86 17t86 -17t28 -52q0 -25 -14.5 -41t-45.5 -22l221 -615h-78zM336 678q0 25 -9.5 35t-32.5 10t-32.5 -10t-9.5 -35q0 -24 9.5 -34t32.5 -10t32.5 10t9.5 34zM153 223h258l-128 361z" />
    <glyph glyph-name="Aringacute" unicode="&#x1fa;" horiz-adv-x="592" 
d="M491 0l-63 177h-291l-64 -177h-50l223 618q-35 5 -52 21t-17 44q0 30 20 47t63 21l80 102h92l-112 -102q43 -4 64 -20.5t21 -47.5q0 -25 -14.5 -40.5t-44.5 -22.5l223 -620h-78zM333 683q0 25 -9.5 35t-32.5 10t-32.5 -10t-9.5 -35q0 -24 9.5 -34t32.5 -10t32.5 10
t9.5 34zM153 223h258l-128 361z" />
    <glyph glyph-name="Atilde" unicode="&#xc3;" horiz-adv-x="592" 
d="M419 797l27 -26q-22 -33 -42.5 -46.5t-47.5 -13.5q-21 0 -36 5t-28 12t-29 12t-32 5q-18 0 -31 -7t-26 -24l-27 25q21 33 41.5 46.5t48.5 13.5q21 0 39 -7t34 -14q11 -5 23.5 -9t28.5 -4q17 0 30.5 7.5t26.5 24.5zM491 0l-63 177h-291l-64 -177h-50l227 628h93l226 -628
h-78zM153 223h258l-128 361z" />
    <glyph glyph-name="AE" unicode="&#xc6;" horiz-adv-x="822" 
d="M773 628v-46h-316v-232h278v-47h-278v-257h316v-46h-390v177h-228l-64 -177h-70l227 628h525zM300 582l-129 -359h212v359h-83z" />
    <glyph glyph-name="AEacute" unicode="&#x1fc;" horiz-adv-x="822" 
d="M482 698h-58l85 109h92zM773 628v-46h-316v-232h278v-47h-278v-257h316v-46h-390v177h-228l-64 -177h-70l227 628h525zM300 582l-129 -359h212v359h-83z" />
    <glyph glyph-name="B" unicode="B" horiz-adv-x="628" 
d="M388 353q92 -7 144 -48.5t52 -108.5q0 -101 -91 -148.5t-286 -47.5h-118v628h216q105 0 165 -37t60 -103q0 -47 -38 -83t-104 -52zM300 582h-137v-221q147 0 219 31.5t72 95.5q0 48 -38 71t-116 23zM163 46h71q143 0 205.5 37t62.5 121q0 51 -47.5 84t-122.5 33
q-43 0 -85.5 -3t-83.5 -8v-264z" />
    <glyph glyph-name="uni1E02" unicode="&#x1e02;" horiz-adv-x="628" 
d="M248 711v97h82v-97h-82zM388 353q92 -7 144 -48.5t52 -108.5q0 -101 -91 -148.5t-286 -47.5h-118v628h216q105 0 165 -37t60 -103q0 -47 -38 -83t-104 -52zM300 582h-137v-221q147 0 219 31.5t72 95.5q0 48 -38 71t-116 23zM163 46h71q143 0 205.5 37t62.5 121
q0 51 -47.5 84t-122.5 33q-43 0 -85.5 -3t-83.5 -8v-264z" />
    <glyph glyph-name="C" unicode="C" horiz-adv-x="579" 
d="M538 62l11 -42q-48 -18 -97.5 -26t-98.5 -8q-147 0 -223.5 84t-76.5 245q0 160 76.5 243.5t223.5 83.5q51 0 100 -8.5t96 -27.5l-11 -43q-43 16 -89 24.5t-96 8.5q-110 0 -167.5 -71.5t-57.5 -209.5q0 -139 57.5 -211t167.5 -72q49 0 94 7t91 23z" />
    <glyph glyph-name="Cacute" unicode="&#x106;" horiz-adv-x="579" 
d="M337 698h-58l85 109h92zM538 62l11 -42q-48 -18 -97.5 -26t-98.5 -8q-147 0 -223.5 84t-76.5 245q0 160 76.5 243.5t223.5 83.5q51 0 100 -8.5t96 -27.5l-11 -43q-43 16 -89 24.5t-96 8.5q-110 0 -167.5 -71.5t-57.5 -209.5q0 -139 57.5 -211t167.5 -72q49 0 94 7t91 23z
" />
    <glyph glyph-name="Ccaron" unicode="&#x10c;" horiz-adv-x="579" 
d="M473 820l-89 -109h-85l-89 109h59l73 -68l72 68h59zM538 62l11 -42q-48 -18 -97.5 -26t-98.5 -8q-147 0 -223.5 84t-76.5 245q0 160 76.5 243.5t223.5 83.5q51 0 100 -8.5t96 -27.5l-11 -43q-43 16 -89 24.5t-96 8.5q-110 0 -167.5 -71.5t-57.5 -209.5q0 -139 57.5 -211
t167.5 -72q49 0 94 7t91 23z" />
    <glyph glyph-name="Ccedilla" unicode="&#xc7;" horiz-adv-x="579" 
d="M538 62l11 -42q-48 -18 -97.5 -26t-98.5 -8q-147 0 -223.5 84t-76.5 245q0 160 76.5 243.5t223.5 83.5q51 0 100 -8.5t96 -27.5l-11 -43q-43 16 -89 24.5t-96 8.5q-110 0 -167.5 -71.5t-57.5 -209.5q0 -139 57.5 -211t167.5 -72q49 0 94 7t91 23zM258 -170l8 42
q14 -4 26 -6t20 -2q21 0 32 7.5t11 21.5t-11 22t-33 8q-9 0 -20.5 -2.5t-24.5 -6.5l-8 41q16 4 33.5 6.5t33.5 2.5q52 0 80 -18.5t28 -52.5q0 -35 -28 -53.5t-81 -18.5q-13 0 -30 2.5t-36 6.5z" />
    <glyph glyph-name="Ccircumflex" unicode="&#x108;" horiz-adv-x="579" 
d="M477 711h-59l-72 67l-73 -67h-59l89 109h85zM538 62l11 -42q-48 -18 -97.5 -26t-98.5 -8q-147 0 -223.5 84t-76.5 245q0 160 76.5 243.5t223.5 83.5q51 0 100 -8.5t96 -27.5l-11 -43q-43 16 -89 24.5t-96 8.5q-110 0 -167.5 -71.5t-57.5 -209.5q0 -139 57.5 -211
t167.5 -72q49 0 94 7t91 23z" />
    <glyph glyph-name="Cdotaccent" unicode="&#x10a;" horiz-adv-x="579" 
d="M304 711v97h82v-97h-82zM538 62l11 -42q-48 -18 -97.5 -26t-98.5 -8q-147 0 -223.5 84t-76.5 245q0 160 76.5 243.5t223.5 83.5q51 0 100 -8.5t96 -27.5l-11 -43q-43 16 -89 24.5t-96 8.5q-110 0 -167.5 -71.5t-57.5 -209.5q0 -139 57.5 -211t167.5 -72q49 0 94 7t91 23z
" />
    <glyph glyph-name="D" unicode="D" horiz-adv-x="654" 
d="M89 628h212q149 0 224.5 -79t75.5 -236q0 -156 -75.5 -234.5t-224.5 -78.5h-212v628zM163 46h138q111 0 167.5 67t56.5 200q0 134 -56.5 201.5t-167.5 67.5h-138v-536z" />
    <glyph glyph-name="Eth" unicode="&#xd0;" horiz-adv-x="659" 
d="M34 346h60v282h212q149 0 224.5 -79t75.5 -236q0 -156 -75.5 -234.5t-224.5 -78.5h-212v300h-60v46zM168 46h138q111 0 167.5 67t56.5 200q0 134 -56.5 201.5t-167.5 67.5h-138v-236h163v-46h-163v-254z" />
    <glyph glyph-name="Dcaron" unicode="&#x10e;" horiz-adv-x="654" 
d="M440 820l-89 -109h-85l-89 109h59l73 -68l72 68h59zM89 628h212q149 0 224.5 -79t75.5 -236q0 -156 -75.5 -234.5t-224.5 -78.5h-212v628zM163 46h138q111 0 167.5 67t56.5 200q0 134 -56.5 201.5t-167.5 67.5h-138v-536z" />
    <glyph glyph-name="Dcroat" unicode="&#x110;" horiz-adv-x="659" 
d="M34 346h60v282h212q149 0 224.5 -79t75.5 -236q0 -156 -75.5 -234.5t-224.5 -78.5h-212v300h-60v46zM168 46h138q111 0 167.5 67t56.5 200q0 134 -56.5 201.5t-167.5 67.5h-138v-236h163v-46h-163v-254z" />
    <glyph glyph-name="uni1E0A" unicode="&#x1e0a;" horiz-adv-x="654" 
d="M278 711v97h82v-97h-82zM89 628h212q149 0 224.5 -79t75.5 -236q0 -156 -75.5 -234.5t-224.5 -78.5h-212v628zM163 46h138q111 0 167.5 67t56.5 200q0 134 -56.5 201.5t-167.5 67.5h-138v-536z" />
    <glyph glyph-name="uni1E0C" unicode="&#x1e0c;" horiz-adv-x="654" 
d="M89 628h212q149 0 224.5 -79t75.5 -236q0 -156 -75.5 -234.5t-224.5 -78.5h-212v628zM163 46h138q111 0 167.5 67t56.5 200q0 134 -56.5 201.5t-167.5 67.5h-138v-536zM368 -145h-84v77h84v-77z" />
    <glyph glyph-name="E" unicode="E" horiz-adv-x="528" 
d="M479 628v-46h-316v-232h278v-47h-278v-257h316v-46h-390v628h390z" />
    <glyph glyph-name="Eacute" unicode="&#xc9;" horiz-adv-x="528" 
d="M293 698h-58l85 109h92zM479 628v-46h-316v-232h278v-47h-278v-257h316v-46h-390v628h390z" />
    <glyph glyph-name="Ebreve" unicode="&#x114;" horiz-adv-x="528" 
d="M419 820q0 -52 -35.5 -83t-94.5 -31q-60 0 -96.5 30.5t-36.5 83.5h60q0 -34 19.5 -54t52.5 -20t52.5 20t19.5 54h59zM479 628v-46h-316v-232h278v-47h-278v-257h316v-46h-390v628h390z" />
    <glyph glyph-name="Ecaron" unicode="&#x11a;" horiz-adv-x="528" 
d="M417 820l-89 -109h-85l-89 109h59l73 -68l72 68h59zM479 628v-46h-316v-232h278v-47h-278v-257h316v-46h-390v628h390z" />
    <glyph glyph-name="Ecircumflex" unicode="&#xca;" horiz-adv-x="528" 
d="M415 711h-59l-72 67l-73 -67h-59l89 109h85zM479 628v-46h-316v-232h278v-47h-278v-257h316v-46h-390v628h390z" />
    <glyph glyph-name="Edieresis" unicode="&#xcb;" horiz-adv-x="528" 
d="M238 808v-97h-71v97h71zM401 808v-97h-71v97h71zM479 628v-46h-316v-232h278v-47h-278v-257h316v-46h-390v628h390z" />
    <glyph glyph-name="Edotaccent" unicode="&#x116;" horiz-adv-x="528" 
d="M246 711v97h82v-97h-82zM479 628v-46h-316v-232h278v-47h-278v-257h316v-46h-390v628h390z" />
    <glyph glyph-name="uni1EB8" unicode="&#x1eb8;" horiz-adv-x="528" 
d="M479 628v-46h-316v-232h278v-47h-278v-257h316v-46h-390v628h390zM328 -145h-84v77h84v-77z" />
    <glyph glyph-name="Egrave" unicode="&#xc8;" horiz-adv-x="528" 
d="M278 711l-119 109h92l85 -109h-58zM479 628v-46h-316v-232h278v-47h-278v-257h316v-46h-390v628h390z" />
    <glyph glyph-name="Emacron" unicode="&#x112;" horiz-adv-x="528" 
d="M151 711v57h272v-57h-272zM479 628v-46h-316v-232h278v-47h-278v-257h316v-46h-390v628h390z" />
    <glyph glyph-name="Eogonek" unicode="&#x118;" horiz-adv-x="528" 
d="M479 628v-46h-316v-232h278v-47h-278v-257h316v-46h-22q-54 -46 -71.5 -70.5t-17.5 -51.5q0 -23 24 -40.5t55 -17.5h84v-31q-22 -4 -54 -8t-54 -4q-46 0 -80.5 28.5t-34.5 65.5t20 67.5t63 61.5h-302v628h390z" />
    <glyph glyph-name="uni1EBC" unicode="&#x1ebc;" horiz-adv-x="528" 
d="M409 797l27 -26q-22 -33 -42.5 -46.5t-47.5 -13.5q-21 0 -36 5t-28 12t-29 12t-32 5q-18 0 -31 -7t-26 -24l-27 25q21 33 41.5 46.5t48.5 13.5q21 0 39 -7t34 -14q11 -5 23.5 -9t28.5 -4q17 0 30.5 7.5t26.5 24.5zM479 628v-46h-316v-232h278v-47h-278v-257h316v-46h-390
v628h390z" />
    <glyph glyph-name="F" unicode="F" horiz-adv-x="506" 
d="M479 628v-46h-316v-234h278v-46h-278v-302h-74v628h390z" />
    <glyph glyph-name="uni1E1E" unicode="&#x1e1e;" horiz-adv-x="506" 
d="M250 711v97h82v-97h-82zM479 628v-46h-316v-234h278v-46h-278v-302h-74v628h390z" />
    <glyph glyph-name="G" unicode="G" horiz-adv-x="616" 
d="M333 333h219v-319q-40 -14 -90 -21t-109 -7q-149 0 -224.5 82t-75.5 245t75.5 246t224.5 83q54 0 104 -9t93 -27l-12 -43q-47 15 -90.5 24t-94.5 9q-112 0 -168.5 -71t-56.5 -212q0 -140 56.5 -210.5t168.5 -70.5q37 0 69 4t58 12v238h-147v47z" />
    <glyph glyph-name="uni01F4" unicode="&#x1f4;" horiz-adv-x="616" 
d="M352 711h-58l85 109h92zM333 333h219v-319q-40 -14 -90 -21t-109 -7q-149 0 -224.5 82t-75.5 245t75.5 246t224.5 83q54 0 104 -9t93 -27l-12 -43q-47 15 -90.5 24t-94.5 9q-112 0 -168.5 -71t-56.5 -212q0 -140 56.5 -210.5t168.5 -70.5q37 0 69 4t58 12v238h-147v47z
" />
    <glyph glyph-name="Gbreve" unicode="&#x11e;" horiz-adv-x="616" 
d="M461 820q0 -52 -35.5 -83t-94.5 -31q-60 0 -96.5 30.5t-36.5 83.5h60q0 -34 19.5 -54t52.5 -20t52.5 20t19.5 54h59zM333 333h219v-319q-40 -14 -90 -21t-109 -7q-149 0 -224.5 82t-75.5 245t75.5 246t224.5 83q54 0 104 -9t93 -27l-12 -43q-47 15 -90.5 24t-94.5 9
q-112 0 -168.5 -71t-56.5 -212q0 -140 56.5 -210.5t168.5 -70.5q37 0 69 4t58 12v238h-147v47z" />
    <glyph glyph-name="Gcaron" unicode="&#x1e6;" horiz-adv-x="616" 
d="M466 820l-89 -109h-85l-89 109h59l73 -68l72 68h59zM333 333h219v-319q-40 -14 -90 -21t-109 -7q-149 0 -224.5 82t-75.5 245t75.5 246t224.5 83q54 0 104 -9t93 -27l-12 -43q-47 15 -90.5 24t-94.5 9q-112 0 -168.5 -71t-56.5 -212q0 -140 56.5 -210.5t168.5 -70.5
q37 0 69 4t58 12v238h-147v47z" />
    <glyph glyph-name="Gcircumflex" unicode="&#x11c;" horiz-adv-x="616" 
d="M466 711h-59l-72 67l-73 -67h-59l89 109h85zM333 333h219v-319q-40 -14 -90 -21t-109 -7q-149 0 -224.5 82t-75.5 245t75.5 246t224.5 83q54 0 104 -9t93 -27l-12 -43q-47 15 -90.5 24t-94.5 9q-112 0 -168.5 -71t-56.5 -212q0 -140 56.5 -210.5t168.5 -70.5q37 0 69 4
t58 12v238h-147v47z" />
    <glyph glyph-name="uni0122" unicode="&#x122;" horiz-adv-x="616" 
d="M333 333h219v-319q-40 -14 -90 -21t-109 -7q-149 0 -224.5 82t-75.5 245t75.5 246t224.5 83q54 0 104 -9t93 -27l-12 -43q-47 15 -90.5 24t-94.5 9q-112 0 -168.5 -71t-56.5 -212q0 -140 56.5 -210.5t168.5 -70.5q37 0 69 4t58 12v238h-147v47zM326 -246h-59l23 178h97z
" />
    <glyph glyph-name="Gdotaccent" unicode="&#x120;" horiz-adv-x="616" 
d="M303 711v97h82v-97h-82zM333 333h219v-319q-40 -14 -90 -21t-109 -7q-149 0 -224.5 82t-75.5 245t75.5 246t224.5 83q54 0 104 -9t93 -27l-12 -43q-47 15 -90.5 24t-94.5 9q-112 0 -168.5 -71t-56.5 -212q0 -140 56.5 -210.5t168.5 -70.5q37 0 69 4t58 12v238h-147v47z
" />
    <glyph glyph-name="H" unicode="H" horiz-adv-x="642" 
d="M479 350v278h74v-628h-74v304h-317v-304h-73v628h73v-278h317z" />
    <glyph glyph-name="Hbar" unicode="&#x126;" horiz-adv-x="648" 
d="M32 464v40h60v124h73v-124h317v124h74v-124h60v-40h-60v-464h-74v304h-317v-304h-73v464h-60zM482 350v114h-317v-114h317z" />
    <glyph glyph-name="Hcircumflex" unicode="&#x124;" horiz-adv-x="642" 
d="M455 711h-59l-72 67l-73 -67h-59l89 109h85zM479 350v278h74v-628h-74v304h-317v-304h-73v628h73v-278h317z" />
    <glyph glyph-name="uni1E24" unicode="&#x1e24;" horiz-adv-x="642" 
d="M479 350v278h74v-628h-74v304h-317v-304h-73v628h73v-278h317zM363 -145h-84v77h84v-77z" />
    <glyph glyph-name="I" unicode="I" horiz-adv-x="252" 
d="M163 628v-628h-74v628h74z" />
    <glyph glyph-name="IJ" unicode="&#x132;" horiz-adv-x="516" 
d="M163 628v-628h-74v628h74zM353 628h74v-665q0 -72 -34 -103.5t-112 -31.5q-19 0 -34.5 3t-31.5 9l11 41q13 -3 25 -5t25 -2q44 0 60.5 19t16.5 70v665z" />
    <glyph glyph-name="Iacute" unicode="&#xcd;" horiz-adv-x="252" 
d="M157 698h-58l85 109h92zM163 628v-628h-74v628h74z" />
    <glyph glyph-name="Ibreve" unicode="&#x12c;" horiz-adv-x="252" 
d="M258 820q0 -52 -35.5 -83t-94.5 -31q-60 0 -96.5 30.5t-36.5 83.5h60q0 -34 19.5 -54t52.5 -20t52.5 20t19.5 54h59zM163 628v-628h-74v628h74z" />
    <glyph glyph-name="uni01CF" unicode="&#x1cf;" horiz-adv-x="252" 
d="M258 820l-89 -109h-85l-89 109h59l73 -68l72 68h59zM163 628v-628h-74v628h74z" />
    <glyph glyph-name="Icircumflex" unicode="&#xce;" horiz-adv-x="252" 
d="M258 711h-59l-72 67l-73 -67h-59l89 109h85zM163 628v-628h-74v628h74z" />
    <glyph glyph-name="Idieresis" unicode="&#xcf;" horiz-adv-x="252" 
d="M80 808v-97h-71v97h71zM243 808v-97h-71v97h71zM163 628v-628h-74v628h74z" />
    <glyph glyph-name="Idotaccent" unicode="&#x130;" horiz-adv-x="252" 
d="M85 711v97h82v-97h-82zM163 628v-628h-74v628h74z" />
    <glyph glyph-name="uni1ECA" unicode="&#x1eca;" horiz-adv-x="252" 
d="M163 628v-628h-74v628h74zM168 -145h-84v77h84v-77z" />
    <glyph glyph-name="Igrave" unicode="&#xcc;" horiz-adv-x="252" 
d="M106 711l-119 109h92l85 -109h-58zM163 628v-628h-74v628h74z" />
    <glyph glyph-name="Imacron" unicode="&#x12a;" horiz-adv-x="252" 
d="M-10 711v57h272v-57h-272zM163 628v-628h-74v628h74z" />
    <glyph glyph-name="Iogonek" unicode="&#x12e;" horiz-adv-x="253" 
d="M164 628v-628h-23q-54 -46 -71.5 -70.5t-17.5 -51.5q0 -23 24 -40.5t55 -17.5h84v-31q-22 -4 -54 -8t-54 -4q-46 0 -80.5 28.5t-34.5 65.5q0 40 23.5 72.5t74.5 66.5v618h74z" />
    <glyph glyph-name="Itilde" unicode="&#x128;" horiz-adv-x="252" 
d="M249 797l27 -26q-22 -33 -42.5 -46.5t-47.5 -13.5q-21 0 -36 5t-28 12t-29 12t-32 5q-18 0 -31 -7t-26 -24l-27 25q21 33 41.5 46.5t48.5 13.5q21 0 39 -7t34 -14q11 -5 23.5 -9t28.5 -4q17 0 30.5 7.5t26.5 24.5zM163 628v-628h-74v628h74z" />
    <glyph glyph-name="J" unicode="J" horiz-adv-x="264" 
d="M101 628h74v-665q0 -72 -34 -103.5t-112 -31.5q-19 0 -34.5 3t-31.5 9l11 41q13 -3 25 -5t25 -2q44 0 60.5 19t16.5 70v665z" />
    <glyph glyph-name="Jcircumflex" unicode="&#x134;" horiz-adv-x="264" 
d="M271 711h-59l-72 67l-73 -67h-59l89 109h85zM101 628h74v-665q0 -72 -34 -103.5t-112 -31.5q-19 0 -34.5 3t-31.5 9l11 41q13 -3 25 -5t25 -2q44 0 60.5 19t16.5 70v665z" />
    <glyph glyph-name="K" unicode="K" horiz-adv-x="564" 
d="M570 0h-98l-290 315h-20v-315h-73v628h73v-268h21l244 268h86l-273 -288z" />
    <glyph glyph-name="uni0136" unicode="&#x136;" horiz-adv-x="564" 
d="M570 0h-98l-290 315h-20v-315h-73v628h73v-268h21l244 268h86l-273 -288zM300 -246h-59l23 178h97z" />
    <glyph glyph-name="L" unicode="L" horiz-adv-x="502" 
d="M163 46h316v-46h-390v628h74v-582z" />
    <glyph glyph-name="Lacute" unicode="&#x139;" horiz-adv-x="502" 
d="M161 698h-58l85 109h92zM163 46h316v-46h-390v628h74v-582z" />
    <glyph glyph-name="Lcaron" unicode="&#x13d;" horiz-adv-x="506" 
d="M163 46h316v-46h-390v628h74v-582zM376 450h-59l23 178h97z" />
    <glyph glyph-name="uni013B" unicode="&#x13b;" horiz-adv-x="502" 
d="M163 46h316v-46h-390v628h74v-582zM275 -246h-59l23 178h97z" />
    <glyph glyph-name="Lslash" unicode="&#x141;" horiz-adv-x="525" 
d="M186 46h316v-46h-390v283l-70 -47v62l70 46v284h74v-243l100 66v-62l-100 -66v-277z" />
    <glyph glyph-name="M" unicode="M" horiz-adv-x="775" 
d="M550 628h99l70 -628h-75l-61 577l-172 -577h-82l-161 572l-50 -572h-59l64 628h101l160 -550z" />
    <glyph glyph-name="uni1E40" unicode="&#x1e40;" horiz-adv-x="775" 
d="M348 711v97h82v-97h-82zM550 628h99l70 -628h-75l-61 577l-172 -577h-82l-161 572l-50 -572h-59l64 628h101l160 -550z" />
    <glyph glyph-name="N" unicode="N" horiz-adv-x="674" 
d="M530 628h55v-628h-90l-352 553v-553h-54v628h84l357 -554v554z" />
    <glyph glyph-name="Nacute" unicode="&#x143;" horiz-adv-x="674" 
d="M370 698h-58l85 109h92zM530 628h55v-628h-90l-352 553v-553h-54v628h84l357 -554v554z" />
    <glyph glyph-name="Ncaron" unicode="&#x147;" horiz-adv-x="674" 
d="M469 820l-89 -109h-85l-89 109h59l73 -68l72 68h59zM530 628h55v-628h-90l-352 553v-553h-54v628h84l357 -554v554z" />
    <glyph glyph-name="uni0145" unicode="&#x145;" horiz-adv-x="674" 
d="M530 628h55v-628h-90l-352 553v-553h-54v628h84l357 -554v554zM335 -246h-59l23 178h97z" />
    <glyph glyph-name="uni1E44" unicode="&#x1e44;" horiz-adv-x="674" 
d="M306 711v97h82v-97h-82zM530 628h55v-628h-90l-352 553v-553h-54v628h84l357 -554v554z" />
    <glyph glyph-name="Eng" unicode="&#x14a;" horiz-adv-x="674" 
d="M530 628h55v-717q0 -72 -29.5 -103t-82.5 -31h-7l-12 46h17q34 0 46.5 21t12.5 67v89h-35l-352 553v-553h-54v628h84l357 -554v554z" />
    <glyph glyph-name="uni019D" unicode="&#x19d;" horiz-adv-x="674" 
d="M530 628h55v-628h-90l-352 553v-642q0 -72 -29.5 -103t-81.5 -31h-7l-12 46h17q33 0 46 21t13 67v717h84l357 -554v554z" />
    <glyph glyph-name="Ntilde" unicode="&#xd1;" horiz-adv-x="674" 
d="M471 797l27 -26q-22 -33 -42.5 -46.5t-47.5 -13.5q-21 0 -36 5t-28 12t-29 12t-32 5q-18 0 -31 -7t-26 -24l-27 25q21 33 41.5 46.5t48.5 13.5q21 0 39 -7t34 -14q11 -5 23.5 -9t28.5 -4q17 0 30.5 7.5t26.5 24.5zM530 628h55v-628h-90l-352 553v-553h-54v628h84
l357 -554v554z" />
    <glyph glyph-name="O" unicode="O" horiz-adv-x="709" 
d="M354 642q148 0 225.5 -84.5t77.5 -244.5q0 -159 -77.5 -243t-225.5 -84q-147 0 -224.5 84t-77.5 243q0 160 77.5 244.5t224.5 84.5zM354 32q110 0 167.5 72t57.5 209q0 138 -57.5 210.5t-167.5 72.5q-109 0 -166.5 -72.5t-57.5 -210.5q0 -137 57.5 -209t166.5 -72z" />
    <glyph glyph-name="Oacute" unicode="&#xd3;" horiz-adv-x="709" 
d="M370 698h-58l85 109h92zM354 642q148 0 225.5 -84.5t77.5 -244.5q0 -159 -77.5 -243t-225.5 -84q-147 0 -224.5 84t-77.5 243q0 160 77.5 244.5t224.5 84.5zM354 32q110 0 167.5 72t57.5 209q0 138 -57.5 210.5t-167.5 72.5q-109 0 -166.5 -72.5t-57.5 -210.5
q0 -137 57.5 -209t166.5 -72z" />
    <glyph glyph-name="Obreve" unicode="&#x14e;" horiz-adv-x="709" 
d="M486 820q0 -52 -35.5 -83t-94.5 -31q-60 0 -96.5 30.5t-36.5 83.5h60q0 -34 19.5 -54t52.5 -20t52.5 20t19.5 54h59zM354 642q148 0 225.5 -84.5t77.5 -244.5q0 -159 -77.5 -243t-225.5 -84q-147 0 -224.5 84t-77.5 243q0 160 77.5 244.5t224.5 84.5zM354 32
q110 0 167.5 72t57.5 209q0 138 -57.5 210.5t-167.5 72.5q-109 0 -166.5 -72.5t-57.5 -210.5q0 -137 57.5 -209t166.5 -72z" />
    <glyph glyph-name="uni01D1" unicode="&#x1d1;" horiz-adv-x="709" 
d="M486 820l-89 -109h-85l-89 109h59l73 -68l72 68h59zM354 642q148 0 225.5 -84.5t77.5 -244.5q0 -159 -77.5 -243t-225.5 -84q-147 0 -224.5 84t-77.5 243q0 160 77.5 244.5t224.5 84.5zM354 32q110 0 167.5 72t57.5 209q0 138 -57.5 210.5t-167.5 72.5
q-109 0 -166.5 -72.5t-57.5 -210.5q0 -137 57.5 -209t166.5 -72z" />
    <glyph glyph-name="Ocircumflex" unicode="&#xd4;" horiz-adv-x="709" 
d="M486 711h-59l-72 67l-73 -67h-59l89 109h85zM354 642q148 0 225.5 -84.5t77.5 -244.5q0 -159 -77.5 -243t-225.5 -84q-147 0 -224.5 84t-77.5 243q0 160 77.5 244.5t224.5 84.5zM354 32q110 0 167.5 72t57.5 209q0 138 -57.5 210.5t-167.5 72.5q-109 0 -166.5 -72.5
t-57.5 -210.5q0 -137 57.5 -209t166.5 -72z" />
    <glyph glyph-name="Odieresis" unicode="&#xd6;" horiz-adv-x="709" 
d="M308 808v-97h-71v97h71zM471 808v-97h-71v97h71zM354 642q148 0 225.5 -84.5t77.5 -244.5q0 -159 -77.5 -243t-225.5 -84q-147 0 -224.5 84t-77.5 243q0 160 77.5 244.5t224.5 84.5zM354 32q110 0 167.5 72t57.5 209q0 138 -57.5 210.5t-167.5 72.5q-109 0 -166.5 -72.5
t-57.5 -210.5q0 -137 57.5 -209t166.5 -72z" />
    <glyph glyph-name="uni1ECC" unicode="&#x1ecc;" horiz-adv-x="709" 
d="M354 642q148 0 225.5 -84.5t77.5 -244.5q0 -159 -77.5 -243t-225.5 -84q-147 0 -224.5 84t-77.5 243q0 160 77.5 244.5t224.5 84.5zM354 32q110 0 167.5 72t57.5 209q0 138 -57.5 210.5t-167.5 72.5q-109 0 -166.5 -72.5t-57.5 -210.5q0 -137 57.5 -209t166.5 -72z
M396 -145h-84v77h84v-77z" />
    <glyph glyph-name="Ograve" unicode="&#xd2;" horiz-adv-x="709" 
d="M326 711l-119 109h92l85 -109h-58zM354 642q148 0 225.5 -84.5t77.5 -244.5q0 -159 -77.5 -243t-225.5 -84q-147 0 -224.5 84t-77.5 243q0 160 77.5 244.5t224.5 84.5zM354 32q110 0 167.5 72t57.5 209q0 138 -57.5 210.5t-167.5 72.5q-109 0 -166.5 -72.5t-57.5 -210.5
q0 -137 57.5 -209t166.5 -72z" />
    <glyph glyph-name="Ohungarumlaut" unicode="&#x150;" horiz-adv-x="709" 
d="M313 711h-57l85 109h91zM444 711h-57l85 109h91zM354 642q148 0 225.5 -84.5t77.5 -244.5q0 -159 -77.5 -243t-225.5 -84q-147 0 -224.5 84t-77.5 243q0 160 77.5 244.5t224.5 84.5zM354 32q110 0 167.5 72t57.5 209q0 138 -57.5 210.5t-167.5 72.5q-109 0 -166.5 -72.5
t-57.5 -210.5q0 -137 57.5 -209t166.5 -72z" />
    <glyph glyph-name="Omacron" unicode="&#x14c;" horiz-adv-x="709" 
d="M218 711v57h272v-57h-272zM354 642q148 0 225.5 -84.5t77.5 -244.5q0 -159 -77.5 -243t-225.5 -84q-147 0 -224.5 84t-77.5 243q0 160 77.5 244.5t224.5 84.5zM354 32q110 0 167.5 72t57.5 209q0 138 -57.5 210.5t-167.5 72.5q-109 0 -166.5 -72.5t-57.5 -210.5
q0 -137 57.5 -209t166.5 -72z" />
    <glyph glyph-name="uni01EA" unicode="&#x1ea;" horiz-adv-x="709" 
d="M354 642q148 0 225.5 -84.5t77.5 -244.5q0 -125 -48 -204t-140 -107q-55 -48 -73 -72.5t-18 -51.5q0 -23 24 -40.5t55 -17.5h84v-31q-22 -4 -54 -8t-54 -4q-46 0 -80.5 28.5t-34.5 65.5q0 33 15.5 61t49.5 55q-7 -1 -14.5 -1h-14.5q-147 0 -224.5 84t-77.5 243
q0 160 77.5 244.5t224.5 84.5zM354 32q110 0 167.5 72t57.5 209q0 138 -57.5 210.5t-167.5 72.5q-109 0 -166.5 -72.5t-57.5 -210.5q0 -137 57.5 -209t166.5 -72z" />
    <glyph glyph-name="Oslash" unicode="&#xd8;" horiz-adv-x="723" 
d="M361 642q65 0 117 -16.5t89 -48.5l47 51h72l-83 -90q30 -41 45.5 -97.5t15.5 -127.5q0 -159 -77.5 -243t-225.5 -84q-64 0 -116 16.5t-89 47.5l-46 -50h-72l82 89q-30 40 -45.5 96.5t-15.5 127.5q0 160 77.5 244.5t224.5 84.5zM137 313q0 -51 8.5 -94t24.5 -76l354 387
q-28 32 -69.5 49t-93.5 17q-109 0 -166.5 -72.5t-57.5 -210.5zM361 32q110 0 167.5 72t57.5 209q0 51 -8 94t-24 77l-354 -386q28 -33 68.5 -49.5t92.5 -16.5z" />
    <glyph glyph-name="Oslashacute" unicode="&#x1fe;" horiz-adv-x="723" 
d="M379 711h-58l85 109h92zM361 642q65 0 117 -16.5t89 -48.5l47 51h72l-83 -90q30 -41 45.5 -97.5t15.5 -127.5q0 -159 -77.5 -243t-225.5 -84q-64 0 -116 16.5t-89 47.5l-46 -50h-72l82 89q-30 40 -45.5 96.5t-15.5 127.5q0 160 77.5 244.5t224.5 84.5zM137 313
q0 -51 8.5 -94t24.5 -76l354 387q-28 32 -69.5 49t-93.5 17q-109 0 -166.5 -72.5t-57.5 -210.5zM361 32q110 0 167.5 72t57.5 209q0 51 -8 94t-24 77l-354 -386q28 -33 68.5 -49.5t92.5 -16.5z" />
    <glyph glyph-name="Otilde" unicode="&#xd5;" horiz-adv-x="709" 
d="M477 797l27 -26q-22 -33 -42.5 -46.5t-47.5 -13.5q-21 0 -36 5t-28 12t-29 12t-32 5q-18 0 -31 -7t-26 -24l-27 25q21 33 41.5 46.5t48.5 13.5q21 0 39 -7t34 -14q11 -5 23.5 -9t28.5 -4q17 0 30.5 7.5t26.5 24.5zM354 642q148 0 225.5 -84.5t77.5 -244.5
q0 -159 -77.5 -243t-225.5 -84q-147 0 -224.5 84t-77.5 243q0 160 77.5 244.5t224.5 84.5zM354 32q110 0 167.5 72t57.5 209q0 138 -57.5 210.5t-167.5 72.5q-109 0 -166.5 -72.5t-57.5 -210.5q0 -137 57.5 -209t166.5 -72z" />
    <glyph glyph-name="OE" unicode="&#x152;" horiz-adv-x="888" 
d="M839 628v-46h-316v-232h278v-47h-278v-257h316v-46h-375q-25 -7 -53 -11t-57 -4q-147 0 -224.5 84t-77.5 244t77.5 244.5t224.5 84.5q28 0 55.5 -3.5t51.5 -10.5h378zM130 313q0 -137 57.5 -209.5t166.5 -72.5q26 0 50 4.5t45 14.5v528q-21 9 -45 13.5t-50 4.5
q-109 0 -166.5 -72.5t-57.5 -210.5z" />
    <glyph glyph-name="P" unicode="P" horiz-adv-x="594" 
d="M561 464q0 -101 -85.5 -144.5t-289.5 -44.5h-23v-275h-74v628h236q119 0 177.5 -40.5t58.5 -123.5zM482 469q0 57 -41.5 85t-125.5 28h-152v-262q173 0 246 34t73 115z" />
    <glyph glyph-name="uni1E56" unicode="&#x1e56;" horiz-adv-x="594" 
d="M265 711v97h82v-97h-82zM561 464q0 -101 -85.5 -144.5t-289.5 -44.5h-23v-275h-74v628h236q119 0 177.5 -40.5t58.5 -123.5zM482 469q0 57 -41.5 85t-125.5 28h-152v-262q173 0 246 34t73 115z" />
    <glyph glyph-name="Thorn" unicode="&#xde;" horiz-adv-x="605" 
d="M163 628v-128h162q111 0 173.5 -46.5t62.5 -128.5q0 -50 -18.5 -83.5t-63.5 -53.5t-122 -29.5t-194 -12.5v-146h-74v628h74zM315 454h-152v-261q94 3 156 11t98 23.5t50.5 40.5t14.5 62q0 58 -44.5 91t-122.5 33z" />
    <glyph glyph-name="Q" unicode="Q" horiz-adv-x="705" 
d="M652 310q0 -137 -58 -218.5t-170 -100.5q4 -40 32 -62.5t79 -22.5h12l-13 -46h-14q-72 0 -114.5 33t-50.5 92q-149 0 -226 83t-77 242q0 163 76.5 247.5t223.5 84.5t223.5 -84.5t76.5 -247.5zM127 310q0 -137 57.5 -208t167.5 -71t167.5 71t57.5 208q0 140 -57.5 213
t-167.5 73t-167.5 -73t-57.5 -213z" />
    <glyph glyph-name="R" unicode="R" horiz-adv-x="609" 
d="M555 473q0 -63 -37 -101.5t-116 -59.5l183 -312h-91l-163 298q-43 -5 -83.5 -7.5t-84.5 -2.5v-288h-74v628h230q116 0 176 -39.5t60 -115.5zM477 479q0 51 -42.5 77t-124.5 26h-147v-248h12q157 0 229.5 35.5t72.5 109.5z" />
    <glyph glyph-name="Racute" unicode="&#x154;" horiz-adv-x="609" 
d="M323 711h-58l85 109h92zM555 473q0 -63 -37 -101.5t-116 -59.5l183 -312h-91l-163 298q-43 -5 -83.5 -7.5t-84.5 -2.5v-288h-74v628h230q116 0 176 -39.5t60 -115.5zM477 479q0 51 -42.5 77t-124.5 26h-147v-248h12q157 0 229.5 35.5t72.5 109.5z" />
    <glyph glyph-name="Rcaron" unicode="&#x158;" horiz-adv-x="609" 
d="M438 820l-89 -109h-85l-89 109h59l73 -68l72 68h59zM555 473q0 -63 -37 -101.5t-116 -59.5l183 -312h-91l-163 298q-43 -5 -83.5 -7.5t-84.5 -2.5v-288h-74v628h230q116 0 176 -39.5t60 -115.5zM477 479q0 51 -42.5 77t-124.5 26h-147v-248h12q157 0 229.5 35.5
t72.5 109.5z" />
    <glyph glyph-name="uni0156" unicode="&#x156;" horiz-adv-x="609" 
d="M555 473q0 -63 -37 -101.5t-116 -59.5l183 -312h-91l-163 298q-43 -5 -83.5 -7.5t-84.5 -2.5v-288h-74v628h230q116 0 176 -39.5t60 -115.5zM477 479q0 51 -42.5 77t-124.5 26h-147v-248h12q157 0 229.5 35.5t72.5 109.5zM298 -246h-59l23 178h97z" />
    <glyph glyph-name="uni1E5A" unicode="&#x1e5a;" horiz-adv-x="609" 
d="M555 473q0 -63 -37 -101.5t-116 -59.5l183 -312h-91l-163 298q-43 -5 -83.5 -7.5t-84.5 -2.5v-288h-74v628h230q116 0 176 -39.5t60 -115.5zM477 479q0 51 -42.5 77t-124.5 26h-147v-248h12q157 0 229.5 35.5t72.5 109.5zM357 -145h-84v77h84v-77z" />
    <glyph glyph-name="S" unicode="S" horiz-adv-x="545" 
d="M284 365q120 -23 173 -66t53 -117q0 -90 -68.5 -143t-184.5 -53q-56 0 -104 13.5t-98 38.5l14 42q54 -25 99.5 -36.5t88.5 -11.5q83 0 132 36.5t49 99.5q0 45 -39.5 76.5t-147.5 53.5q-110 22 -158 62t-48 104q0 79 64 128.5t165 49.5q44 0 90 -11.5t90 -36.5l-16 -39
q-35 18 -74.5 29.5t-85.5 11.5q-73 0 -118.5 -33.5t-45.5 -86.5q0 -45 39 -69.5t131 -41.5z" />
    <glyph glyph-name="Sacute" unicode="&#x15a;" horiz-adv-x="545" 
d="M288 711h-58l85 109h92zM284 365q120 -23 173 -66t53 -117q0 -90 -68.5 -143t-184.5 -53q-56 0 -104 13.5t-98 38.5l14 42q54 -25 99.5 -36.5t88.5 -11.5q83 0 132 36.5t49 99.5q0 45 -39.5 76.5t-147.5 53.5q-110 22 -158 62t-48 104q0 79 64 128.5t165 49.5
q44 0 90 -11.5t90 -36.5l-16 -39q-35 18 -74.5 29.5t-85.5 11.5q-73 0 -118.5 -33.5t-45.5 -86.5q0 -45 39 -69.5t131 -41.5z" />
    <glyph glyph-name="Scaron" unicode="&#x160;" horiz-adv-x="545" 
d="M398 820l-89 -109h-85l-89 109h59l73 -68l72 68h59zM284 365q120 -23 173 -66t53 -117q0 -90 -68.5 -143t-184.5 -53q-56 0 -104 13.5t-98 38.5l14 42q54 -25 99.5 -36.5t88.5 -11.5q83 0 132 36.5t49 99.5q0 45 -39.5 76.5t-147.5 53.5q-110 22 -158 62t-48 104
q0 79 64 128.5t165 49.5q44 0 90 -11.5t90 -36.5l-16 -39q-35 18 -74.5 29.5t-85.5 11.5q-73 0 -118.5 -33.5t-45.5 -86.5q0 -45 39 -69.5t131 -41.5z" />
    <glyph glyph-name="Scedilla" unicode="&#x15e;" horiz-adv-x="545" 
d="M284 365q120 -23 173 -66t53 -117q0 -90 -68.5 -143t-184.5 -53q-56 0 -104 13.5t-98 38.5l14 42q54 -25 99.5 -36.5t88.5 -11.5q83 0 132 36.5t49 99.5q0 45 -39.5 76.5t-147.5 53.5q-110 22 -158 62t-48 104q0 79 64 128.5t165 49.5q44 0 90 -11.5t90 -36.5l-16 -39
q-35 18 -74.5 29.5t-85.5 11.5q-73 0 -118.5 -33.5t-45.5 -86.5q0 -45 39 -69.5t131 -41.5zM196 -170l8 42q14 -4 26 -6t20 -2q21 0 32 7.5t11 21.5t-11 22t-33 8q-9 0 -20.5 -2.5t-24.5 -6.5l-8 41q16 4 33.5 6.5t33.5 2.5q52 0 80 -18.5t28 -52.5q0 -35 -28 -53.5
t-81 -18.5q-13 0 -30 2.5t-36 6.5z" />
    <glyph glyph-name="Scircumflex" unicode="&#x15c;" horiz-adv-x="545" 
d="M394 713h-59l-72 67l-73 -67h-59l89 109h85zM284 365q120 -23 173 -66t53 -117q0 -90 -68.5 -143t-184.5 -53q-56 0 -104 13.5t-98 38.5l14 42q54 -25 99.5 -36.5t88.5 -11.5q83 0 132 36.5t49 99.5q0 45 -39.5 76.5t-147.5 53.5q-110 22 -158 62t-48 104q0 79 64 128.5
t165 49.5q44 0 90 -11.5t90 -36.5l-16 -39q-35 18 -74.5 29.5t-85.5 11.5q-73 0 -118.5 -33.5t-45.5 -86.5q0 -45 39 -69.5t131 -41.5z" />
    <glyph glyph-name="uni0218" unicode="&#x218;" horiz-adv-x="545" 
d="M284 365q120 -23 173 -66t53 -117q0 -90 -68.5 -143t-184.5 -53q-56 0 -104 13.5t-98 38.5l14 42q54 -25 99.5 -36.5t88.5 -11.5q83 0 132 36.5t49 99.5q0 45 -39.5 76.5t-147.5 53.5q-110 22 -158 62t-48 104q0 79 64 128.5t165 49.5q44 0 90 -11.5t90 -36.5l-16 -39
q-35 18 -74.5 29.5t-85.5 11.5q-73 0 -118.5 -33.5t-45.5 -86.5q0 -45 39 -69.5t131 -41.5zM270 -246h-59l23 178h97z" />
    <glyph glyph-name="uni1E60" unicode="&#x1e60;" horiz-adv-x="545" 
d="M222 711v97h82v-97h-82zM284 365q120 -23 173 -66t53 -117q0 -90 -68.5 -143t-184.5 -53q-56 0 -104 13.5t-98 38.5l14 42q54 -25 99.5 -36.5t88.5 -11.5q83 0 132 36.5t49 99.5q0 45 -39.5 76.5t-147.5 53.5q-110 22 -158 62t-48 104q0 79 64 128.5t165 49.5
q44 0 90 -11.5t90 -36.5l-16 -39q-35 18 -74.5 29.5t-85.5 11.5q-73 0 -118.5 -33.5t-45.5 -86.5q0 -45 39 -69.5t131 -41.5z" />
    <glyph glyph-name="uni1E62" unicode="&#x1e62;" horiz-adv-x="545" 
d="M284 365q120 -23 173 -66t53 -117q0 -90 -68.5 -143t-184.5 -53q-56 0 -104 13.5t-98 38.5l14 42q54 -25 99.5 -36.5t88.5 -11.5q83 0 132 36.5t49 99.5q0 45 -39.5 76.5t-147.5 53.5q-110 22 -158 62t-48 104q0 79 64 128.5t165 49.5q44 0 90 -11.5t90 -36.5l-16 -39
q-35 18 -74.5 29.5t-85.5 11.5q-73 0 -118.5 -33.5t-45.5 -86.5q0 -45 39 -69.5t131 -41.5zM321 -145h-84v77h84v-77z" />
    <glyph glyph-name="uni1E9E" unicode="&#x1e9e;" horiz-adv-x="624" 
d="M385 353q90 -7 143 -53.5t53 -118.5q0 -97 -68.5 -146t-202.5 -49q-18 0 -35 1t-33 5v44q13 -2 29 -3t29 -1q107 0 153 36t46 118q0 62 -46 98.5t-124 36.5q-19 0 -43 -1.5t-44 -2.5v47q63 6 102 17.5t59.5 28t27.5 37t7 44.5q0 45 -40 73t-104 28q-61 0 -99.5 -24.5
t-38.5 -64.5v-503h-71v503q0 60 56.5 97.5t146.5 37.5q101 0 163.5 -40.5t62.5 -106.5q0 -51 -32.5 -86.5t-96.5 -51.5z" />
    <glyph glyph-name="uni018F" unicode="&#x18f;" horiz-adv-x="705" 
d="M138 423h-78q24 109 97 164t193 55q151 0 227 -83.5t76 -247.5q0 -154 -80 -239.5t-223 -85.5t-222.5 86t-79.5 240h527q0 141 -56.5 212.5t-168.5 71.5q-83 0 -136.5 -43.5t-75.5 -129.5zM350 32q97 0 155 61t68 171h-445q10 -110 68 -171t154 -61z" />
    <glyph glyph-name="T" unicode="T" horiz-adv-x="533" 
d="M511 628v-46h-208v-582h-74v582h-207v46h489z" />
    <glyph glyph-name="Tbar" unicode="&#x166;" horiz-adv-x="541" 
d="M106 383v46h127v153h-207v46h489v-46h-208v-153h128v-46h-128v-383h-74v383h-127z" />
    <glyph glyph-name="Tcaron" unicode="&#x164;" horiz-adv-x="533" 
d="M398 820l-89 -109h-85l-89 109h59l73 -68l72 68h59zM511 628v-46h-208v-582h-74v582h-207v46h489z" />
    <glyph glyph-name="uni0162" unicode="&#x162;" horiz-adv-x="533" 
d="M511 628v-46h-208v-582h-74v582h-207v46h489zM185 -170l8 42q14 -4 26 -6t20 -2q21 0 32 7.5t11 21.5t-11 22t-33 8q-9 0 -20.5 -2.5t-24.5 -6.5l-8 41q16 4 33.5 6.5t33.5 2.5q52 0 80 -18.5t28 -52.5q0 -35 -28 -53.5t-81 -18.5q-13 0 -30 2.5t-36 6.5z" />
    <glyph glyph-name="uni021A" unicode="&#x21a;" horiz-adv-x="533" 
d="M511 628v-46h-208v-582h-74v582h-207v46h489zM256 -246h-59l23 178h97z" />
    <glyph glyph-name="uni1E6A" unicode="&#x1e6a;" horiz-adv-x="533" 
d="M225 711v97h82v-97h-82zM511 628v-46h-208v-582h-74v582h-207v46h489z" />
    <glyph glyph-name="uni1E6C" unicode="&#x1e6c;" horiz-adv-x="533" 
d="M511 628v-46h-208v-582h-74v582h-207v46h489zM308 -145h-84v77h84v-77z" />
    <glyph glyph-name="U" unicode="U" horiz-adv-x="662" 
d="M505 628h74v-427q0 -102 -65.5 -159t-182.5 -57t-182.5 57t-65.5 159v427h73v-436q0 -85 41 -123t134 -38q92 0 133 38t41 123v436z" />
    <glyph glyph-name="Uacute" unicode="&#xda;" horiz-adv-x="662" 
d="M352 711h-58l85 109h92zM505 628h74v-427q0 -102 -65.5 -159t-182.5 -57t-182.5 57t-65.5 159v427h73v-436q0 -85 41 -123t134 -38q92 0 133 38t41 123v436z" />
    <glyph glyph-name="Ubreve" unicode="&#x16c;" horiz-adv-x="662" 
d="M463 820q0 -52 -35.5 -83t-94.5 -31q-60 0 -96.5 30.5t-36.5 83.5h60q0 -34 19.5 -54t52.5 -20t52.5 20t19.5 54h59zM505 628h74v-427q0 -102 -65.5 -159t-182.5 -57t-182.5 57t-65.5 159v427h73v-436q0 -85 41 -123t134 -38q92 0 133 38t41 123v436z" />
    <glyph glyph-name="uni01D3" unicode="&#x1d3;" horiz-adv-x="662" 
d="M463 820l-89 -109h-85l-89 109h59l73 -68l72 68h59zM505 628h74v-427q0 -102 -65.5 -159t-182.5 -57t-182.5 57t-65.5 159v427h73v-436q0 -85 41 -123t134 -38q92 0 133 38t41 123v436z" />
    <glyph glyph-name="Ucircumflex" unicode="&#xdb;" horiz-adv-x="662" 
d="M463 711h-59l-72 67l-73 -67h-59l89 109h85zM505 628h74v-427q0 -102 -65.5 -159t-182.5 -57t-182.5 57t-65.5 159v427h73v-436q0 -85 41 -123t134 -38q92 0 133 38t41 123v436z" />
    <glyph glyph-name="Udieresis" unicode="&#xdc;" horiz-adv-x="662" 
d="M285 808v-97h-71v97h71zM448 808v-97h-71v97h71zM505 628h74v-427q0 -102 -65.5 -159t-182.5 -57t-182.5 57t-65.5 159v427h73v-436q0 -85 41 -123t134 -38q92 0 133 38t41 123v436z" />
    <glyph glyph-name="uni01D7" unicode="&#x1d7;" horiz-adv-x="662" 
d="M351 860h-58l85 109h92zM285 808v-97h-71v97h71zM448 808v-97h-71v97h71zM505 628h74v-427q0 -102 -65.5 -159t-182.5 -57t-182.5 57t-65.5 159v427h73v-436q0 -85 41 -123t134 -38q92 0 133 38t41 123v436z" />
    <glyph glyph-name="uni01D9" unicode="&#x1d9;" horiz-adv-x="662" 
d="M463 965l-89 -109h-85l-89 109h59l73 -68l72 68h59zM285 808v-97h-71v97h71zM448 808v-97h-71v97h71zM505 628h74v-427q0 -102 -65.5 -159t-182.5 -57t-182.5 57t-65.5 159v427h73v-436q0 -85 41 -123t134 -38q92 0 133 38t41 123v436z" />
    <glyph glyph-name="uni01DB" unicode="&#x1db;" horiz-adv-x="662" 
d="M317 874l-119 109h92l85 -109h-58zM285 808v-97h-71v97h71zM448 808v-97h-71v97h71zM505 628h74v-427q0 -102 -65.5 -159t-182.5 -57t-182.5 57t-65.5 159v427h73v-436q0 -85 41 -123t134 -38q92 0 133 38t41 123v436z" />
    <glyph glyph-name="uni01D5" unicode="&#x1d5;" horiz-adv-x="662" 
d="M195 864v57h272v-57h-272zM285 808v-97h-71v97h71zM448 808v-97h-71v97h71zM505 628h74v-427q0 -102 -65.5 -159t-182.5 -57t-182.5 57t-65.5 159v427h73v-436q0 -85 41 -123t134 -38q92 0 133 38t41 123v436z" />
    <glyph glyph-name="uni1EE4" unicode="&#x1ee4;" horiz-adv-x="662" 
d="M505 628h74v-427q0 -102 -65.5 -159t-182.5 -57t-182.5 57t-65.5 159v427h73v-436q0 -85 41 -123t134 -38q92 0 133 38t41 123v436zM373 -145h-84v77h84v-77z" />
    <glyph glyph-name="Ugrave" unicode="&#xd9;" horiz-adv-x="662" 
d="M319 711l-119 109h92l85 -109h-58zM505 628h74v-427q0 -102 -65.5 -159t-182.5 -57t-182.5 57t-65.5 159v427h73v-436q0 -85 41 -123t134 -38q92 0 133 38t41 123v436z" />
    <glyph glyph-name="Uhungarumlaut" unicode="&#x170;" horiz-adv-x="662" 
d="M284 711h-57l85 109h91zM415 711h-57l85 109h91zM505 628h74v-427q0 -102 -65.5 -159t-182.5 -57t-182.5 57t-65.5 159v427h73v-436q0 -85 41 -123t134 -38q92 0 133 38t41 123v436z" />
    <glyph glyph-name="Umacron" unicode="&#x16a;" horiz-adv-x="662" 
d="M195 711v57h272v-57h-272zM505 628h74v-427q0 -102 -65.5 -159t-182.5 -57t-182.5 57t-65.5 159v427h73v-436q0 -85 41 -123t134 -38q92 0 133 38t41 123v436z" />
    <glyph glyph-name="Uogonek" unicode="&#x172;" horiz-adv-x="662" 
d="M505 628h74v-427q0 -72 -33 -122t-94 -74q-57 -49 -76 -74t-19 -53q0 -23 24 -40.5t55 -17.5h84v-31q-22 -4 -54 -8t-54 -4q-46 0 -80.5 28.5t-34.5 65.5q0 33 15.5 60.5t48.5 54.5q-7 -1 -15 -1h-15q-117 0 -182.5 57t-65.5 159v427h73v-436q0 -85 41 -123t134 -38
q92 0 133 38t41 123v436z" />
    <glyph glyph-name="Uring" unicode="&#x16e;" horiz-adv-x="662" 
d="M217 773q0 35 28 52t86 17t86 -17t28 -52t-28 -51.5t-86 -16.5t-86 16.5t-28 51.5zM373 773q0 25 -9.5 35t-32.5 10t-32.5 -10t-9.5 -35q0 -24 9.5 -34t32.5 -10t32.5 10t9.5 34zM505 628h74v-427q0 -102 -65.5 -159t-182.5 -57t-182.5 57t-65.5 159v427h73v-436
q0 -85 41 -123t134 -38q92 0 133 38t41 123v436z" />
    <glyph glyph-name="Utilde" unicode="&#x168;" horiz-adv-x="662" 
d="M454 797l27 -26q-22 -33 -42.5 -46.5t-47.5 -13.5q-21 0 -36 5t-28 12t-29 12t-32 5q-18 0 -31 -7t-26 -24l-27 25q21 33 41.5 46.5t48.5 13.5q21 0 39 -7t34 -14q11 -5 23.5 -9t28.5 -4q17 0 30.5 7.5t26.5 24.5zM505 628h74v-427q0 -102 -65.5 -159t-182.5 -57
t-182.5 57t-65.5 159v427h73v-436q0 -85 41 -123t134 -38q92 0 133 38t41 123v436z" />
    <glyph glyph-name="V" unicode="V" horiz-adv-x="548" 
d="M314 0h-81l-201 628h78l177 -559l176 559h54z" />
    <glyph glyph-name="W" unicode="W" horiz-adv-x="824" 
d="M734 628h55l-155 -628h-81l-140 536l-143 -536h-82l-152 628h78l130 -540l138 540h84l140 -540z" />
    <glyph glyph-name="Wacute" unicode="&#x1e82;" horiz-adv-x="824" 
d="M446 711h-58l85 109h92zM734 628h55l-155 -628h-81l-140 536l-143 -536h-82l-152 628h78l130 -540l138 540h84l140 -540z" />
    <glyph glyph-name="Wcircumflex" unicode="&#x174;" horiz-adv-x="824" 
d="M544 711h-59l-72 67l-73 -67h-59l89 109h85zM734 628h55l-155 -628h-81l-140 536l-143 -536h-82l-152 628h78l130 -540l138 540h84l140 -540z" />
    <glyph glyph-name="Wdieresis" unicode="&#x1e84;" horiz-adv-x="824" 
d="M376 808v-97h-71v97h71zM539 808v-97h-71v97h71zM734 628h55l-155 -628h-81l-140 536l-143 -536h-82l-152 628h78l130 -540l138 540h84l140 -540z" />
    <glyph glyph-name="Wgrave" unicode="&#x1e80;" horiz-adv-x="824" 
d="M408 711l-119 109h92l85 -109h-58zM734 628h55l-155 -628h-81l-140 536l-143 -536h-82l-152 628h78l130 -540l138 540h84l140 -540z" />
    <glyph glyph-name="X" unicode="X" horiz-adv-x="552" 
d="M549 0h-88l-192 283l-201 -283h-66l240 326l-201 302h88l156 -242l162 242h63l-198 -284z" />
    <glyph glyph-name="Y" unicode="Y" horiz-adv-x="530" 
d="M491 628l-189 -338v-290h-72v286l-196 342h84l156 -294l155 294h62z" />
    <glyph glyph-name="Yacute" unicode="&#xdd;" horiz-adv-x="530" 
d="M295 711h-58l85 109h92zM491 628l-189 -338v-290h-72v286l-196 342h84l156 -294l155 294h62z" />
    <glyph glyph-name="Ycircumflex" unicode="&#x176;" horiz-adv-x="530" 
d="M403 711h-59l-72 67l-73 -67h-59l89 109h85zM491 628l-189 -338v-290h-72v286l-196 342h84l156 -294l155 294h62z" />
    <glyph glyph-name="Ydieresis" unicode="&#x178;" horiz-adv-x="530" 
d="M227 808v-97h-71v97h71zM390 808v-97h-71v97h71zM491 628l-189 -338v-290h-72v286l-196 342h84l156 -294l155 294h62z" />
    <glyph glyph-name="Ygrave" unicode="&#x1ef2;" horiz-adv-x="530" 
d="M250 711l-119 109h92l85 -109h-58zM491 628l-189 -338v-290h-72v286l-196 342h84l156 -294l155 294h62z" />
    <glyph glyph-name="uni0232" unicode="&#x232;" horiz-adv-x="530" 
d="M126 711v57h272v-57h-272zM491 628l-189 -338v-290h-72v286l-196 342h84l156 -294l155 294h62z" />
    <glyph glyph-name="uni1EF8" unicode="&#x1ef8;" horiz-adv-x="530" 
d="M385 797l27 -26q-22 -33 -42.5 -46.5t-47.5 -13.5q-21 0 -36 5t-28 12t-29 12t-32 5q-18 0 -31 -7t-26 -24l-27 25q21 33 41.5 46.5t48.5 13.5q21 0 39 -7t34 -14q11 -5 23.5 -9t28.5 -4q17 0 30.5 7.5t26.5 24.5zM491 628l-189 -338v-290h-72v286l-196 342h84l156 -294
l155 294h62z" />
    <glyph glyph-name="Z" unicode="Z" horiz-adv-x="543" 
d="M512 628v-50l-408 -532h399v-46h-478v51l412 531h-381v46h456z" />
    <glyph glyph-name="Zacute" unicode="&#x179;" horiz-adv-x="543" 
d="M287 711h-58l85 109h92zM512 628v-50l-408 -532h399v-46h-478v51l412 531h-381v46h456z" />
    <glyph glyph-name="Zcaron" unicode="&#x17d;" horiz-adv-x="543" 
d="M417 820l-89 -109h-85l-89 109h59l73 -68l72 68h59zM512 628v-50l-408 -532h399v-46h-478v51l412 531h-381v46h456z" />
    <glyph glyph-name="Zdotaccent" unicode="&#x17b;" horiz-adv-x="543" 
d="M229 711v97h82v-97h-82zM512 628v-50l-408 -532h399v-46h-478v51l412 531h-381v46h456z" />
    <glyph glyph-name="uni1E92" unicode="&#x1e92;" horiz-adv-x="543" 
d="M512 628v-50l-408 -532h399v-46h-478v51l412 531h-381v46h456zM311 -145h-84v77h84v-77z" />
    <glyph glyph-name="a" unicode="a" horiz-adv-x="487" 
d="M418 292v-263q-40 -19 -85.5 -31t-91.5 -12q-99 0 -152 38t-53 108q0 61 47.5 97.5t135.5 42.5q34 2 67 3.5t62 1.5v33q0 55 -28 79t-94 24q-28 0 -65 -5t-74 -15l-11 40q41 13 84 20t86 7q87 0 129.5 -41t42.5 -127zM348 53v180q-28 0 -58 -1.5t-61 -4.5
q-63 -5 -92 -29.5t-29 -71.5q0 -46 31.5 -70t91.5 -24q33 0 67 7t50 14z" />
    <glyph glyph-name="aacute" unicode="&#xe1;" horiz-adv-x="487" 
d="M269 531h-57l85 107h91zM418 292v-263q-40 -19 -85.5 -31t-91.5 -12q-99 0 -152 38t-53 108q0 61 47.5 97.5t135.5 42.5q34 2 67 3.5t62 1.5v33q0 55 -28 79t-94 24q-28 0 -65 -5t-74 -15l-11 40q41 13 84 20t86 7q87 0 129.5 -41t42.5 -127zM348 53v180q-28 0 -58 -1.5
t-61 -4.5q-63 -5 -92 -29.5t-29 -71.5q0 -46 31.5 -70t91.5 -24q33 0 67 7t50 14z" />
    <glyph glyph-name="abreve" unicode="&#x103;" horiz-adv-x="487" 
d="M377 638q0 -27 -11 -48t-29.5 -34.5t-42 -21t-47.5 -7.5q-51 0 -92 27t-41 84h60q0 -37 22.5 -53.5t49.5 -16.5q30 0 51 17.5t21 52.5h59zM418 292v-263q-40 -19 -85.5 -31t-91.5 -12q-99 0 -152 38t-53 108q0 61 47.5 97.5t135.5 42.5q34 2 67 3.5t62 1.5v33
q0 55 -28 79t-94 24q-28 0 -65 -5t-74 -15l-11 40q41 13 84 20t86 7q87 0 129.5 -41t42.5 -127zM348 53v180q-28 0 -58 -1.5t-61 -4.5q-63 -5 -92 -29.5t-29 -71.5q0 -46 31.5 -70t91.5 -24q33 0 67 7t50 14z" />
    <glyph glyph-name="uni01CE" unicode="&#x1ce;" horiz-adv-x="487" 
d="M373 638l-90 -107h-85l-89 107h60l72 -65l72 65h60zM418 292v-263q-40 -19 -85.5 -31t-91.5 -12q-99 0 -152 38t-53 108q0 61 47.5 97.5t135.5 42.5q34 2 67 3.5t62 1.5v33q0 55 -28 79t-94 24q-28 0 -65 -5t-74 -15l-11 40q41 13 84 20t86 7q87 0 129.5 -41t42.5 -127z
M348 53v180q-28 0 -58 -1.5t-61 -4.5q-63 -5 -92 -29.5t-29 -71.5q0 -46 31.5 -70t91.5 -24q33 0 67 7t50 14z" />
    <glyph glyph-name="acircumflex" unicode="&#xe2;" horiz-adv-x="487" 
d="M375 531h-59l-73 66l-72 -66h-59l89 107h85zM418 292v-263q-40 -19 -85.5 -31t-91.5 -12q-99 0 -152 38t-53 108q0 61 47.5 97.5t135.5 42.5q34 2 67 3.5t62 1.5v33q0 55 -28 79t-94 24q-28 0 -65 -5t-74 -15l-11 40q41 13 84 20t86 7q87 0 129.5 -41t42.5 -127zM348 53
v180q-28 0 -58 -1.5t-61 -4.5q-63 -5 -92 -29.5t-29 -71.5q0 -46 31.5 -70t91.5 -24q33 0 67 7t50 14z" />
    <glyph glyph-name="adieresis" unicode="&#xe4;" horiz-adv-x="487" 
d="M210 628v-97h-70v97h70zM356 628v-97h-70v97h70zM418 292v-263q-40 -19 -85.5 -31t-91.5 -12q-99 0 -152 38t-53 108q0 61 47.5 97.5t135.5 42.5q34 2 67 3.5t62 1.5v33q0 55 -28 79t-94 24q-28 0 -65 -5t-74 -15l-11 40q41 13 84 20t86 7q87 0 129.5 -41t42.5 -127z
M348 53v180q-28 0 -58 -1.5t-61 -4.5q-63 -5 -92 -29.5t-29 -71.5q0 -46 31.5 -70t91.5 -24q33 0 67 7t50 14z" />
    <glyph glyph-name="uni1EA1" unicode="&#x1ea1;" horiz-adv-x="487" 
d="M418 292v-263q-40 -19 -85.5 -31t-91.5 -12q-99 0 -152 38t-53 108q0 61 47.5 97.5t135.5 42.5q34 2 67 3.5t62 1.5v33q0 55 -28 79t-94 24q-28 0 -65 -5t-74 -15l-11 40q41 13 84 20t86 7q87 0 129.5 -41t42.5 -127zM348 53v180q-28 0 -58 -1.5t-61 -4.5
q-63 -5 -92 -29.5t-29 -71.5q0 -46 31.5 -70t91.5 -24q33 0 67 7t50 14zM282 -145h-84v77h84v-77z" />
    <glyph glyph-name="agrave" unicode="&#xe0;" horiz-adv-x="487" 
d="M233 531l-119 107h91l85 -107h-57zM418 292v-263q-40 -19 -85.5 -31t-91.5 -12q-99 0 -152 38t-53 108q0 61 47.5 97.5t135.5 42.5q34 2 67 3.5t62 1.5v33q0 55 -28 79t-94 24q-28 0 -65 -5t-74 -15l-11 40q41 13 84 20t86 7q87 0 129.5 -41t42.5 -127zM348 53v180
q-28 0 -58 -1.5t-61 -4.5q-63 -5 -92 -29.5t-29 -71.5q0 -46 31.5 -70t91.5 -24q33 0 67 7t50 14z" />
    <glyph glyph-name="amacron" unicode="&#x101;" horiz-adv-x="487" 
d="M111 571v57h272v-57h-272zM418 292v-263q-40 -19 -85.5 -31t-91.5 -12q-99 0 -152 38t-53 108q0 61 47.5 97.5t135.5 42.5q34 2 67 3.5t62 1.5v33q0 55 -28 79t-94 24q-28 0 -65 -5t-74 -15l-11 40q41 13 84 20t86 7q87 0 129.5 -41t42.5 -127zM348 53v180
q-28 0 -58 -1.5t-61 -4.5q-63 -5 -92 -29.5t-29 -71.5q0 -46 31.5 -70t91.5 -24q33 0 67 7t50 14z" />
    <glyph glyph-name="aogonek" unicode="&#x105;" horiz-adv-x="487" 
d="M418 292v-263q-13 -6 -26 -11.5t-26 -9.5q-60 -51 -79 -76.5t-19 -53.5q0 -23 24 -40.5t55 -17.5h84v-31q-22 -4 -54 -8t-54 -4q-46 0 -80.5 28.5t-34.5 65.5q0 33 16 61t50 56q-8 -1 -16.5 -1.5t-16.5 -0.5q-99 0 -152 38t-53 108q0 61 47.5 97.5t135.5 42.5
q34 2 67 3.5t62 1.5v33q0 55 -28 79t-94 24q-28 0 -65 -5t-74 -15l-11 40q41 13 84 20t86 7q87 0 129.5 -41t42.5 -127zM348 53v180q-28 0 -58 -1.5t-61 -4.5q-63 -5 -92 -29.5t-29 -71.5q0 -46 31.5 -70t91.5 -24q33 0 67 7t50 14z" />
    <glyph glyph-name="aring" unicode="&#xe5;" horiz-adv-x="487" 
d="M360 614q1 -4 2 -9t1 -10q0 -34 -28.5 -51.5t-85.5 -17.5t-86 17.5t-29 51.5t29 51.5t86 17.5q49 0 77 -12.5t34 -37.5zM290 595q0 25 -9.5 34.5t-31.5 9.5q-24 0 -33.5 -9.5t-9.5 -34.5t9.5 -34.5t33.5 -9.5q22 0 31.5 9.5t9.5 34.5zM418 292v-263q-40 -19 -85.5 -31
t-91.5 -12q-99 0 -152 38t-53 108q0 61 47.5 97.5t135.5 42.5q34 2 67 3.5t62 1.5v33q0 55 -28 79t-94 24q-28 0 -65 -5t-74 -15l-11 40q41 13 84 20t86 7q87 0 129.5 -41t42.5 -127zM348 53v180q-28 0 -58 -1.5t-61 -4.5q-63 -5 -92 -29.5t-29 -71.5q0 -46 31.5 -70
t91.5 -24q33 0 67 7t50 14z" />
    <glyph glyph-name="aringacute" unicode="&#x1fb;" horiz-adv-x="487" 
d="M268 711h-58l85 109h92zM362 614q1 -4 2 -9t1 -10q0 -34 -28.5 -51.5t-85.5 -17.5t-86 17.5t-29 51.5t29 51.5t86 17.5q49 0 77 -12.5t34 -37.5zM292 595q0 25 -9.5 34.5t-31.5 9.5q-24 0 -33.5 -9.5t-9.5 -34.5t9.5 -34.5t33.5 -9.5q22 0 31.5 9.5t9.5 34.5zM418 292
v-263q-40 -19 -85.5 -31t-91.5 -12q-99 0 -152 38t-53 108q0 61 47.5 97.5t135.5 42.5q34 2 67 3.5t62 1.5v33q0 55 -28 79t-94 24q-28 0 -65 -5t-74 -15l-11 40q41 13 84 20t86 7q87 0 129.5 -41t42.5 -127zM348 53v180q-28 0 -58 -1.5t-61 -4.5q-63 -5 -92 -29.5
t-29 -71.5q0 -46 31.5 -70t91.5 -24q33 0 67 7t50 14z" />
    <glyph glyph-name="atilde" unicode="&#xe3;" horiz-adv-x="487" 
d="M369 616l27 -26q-22 -33 -42.5 -46t-48.5 -13q-20 0 -34.5 5t-27.5 11q-14 7 -30.5 12.5t-32.5 5.5q-18 0 -30.5 -7t-26.5 -25l-27 26q22 33 42 46t48 13q20 0 38.5 -6t31.5 -13q12 -6 25.5 -10t29.5 -4q18 0 31 7t27 24zM418 292v-263q-40 -19 -85.5 -31t-91.5 -12
q-99 0 -152 38t-53 108q0 61 47.5 97.5t135.5 42.5q34 2 67 3.5t62 1.5v33q0 55 -28 79t-94 24q-28 0 -65 -5t-74 -15l-11 40q41 13 84 20t86 7q87 0 129.5 -41t42.5 -127zM348 53v180q-28 0 -58 -1.5t-61 -4.5q-63 -5 -92 -29.5t-29 -71.5q0 -46 31.5 -70t91.5 -24
q33 0 67 7t50 14z" />
    <glyph glyph-name="ae" unicode="&#xe6;" horiz-adv-x="806" 
d="M737 207h-316q1 -83 39.5 -129t104.5 -46q54 0 97 13.5t55 18.5l14 -45q-13 -5 -60 -19t-106 -14q-46 0 -83 13t-64 38v-8q-40 -19 -85.5 -31t-91.5 -12q-99 0 -152 38t-53 108q0 61 47.5 97.5t135.5 42.5q34 2 67 3.5t62 1.5v33q0 55 -28 79t-94 24q-28 0 -65 -5
t-74 -15l-11 40q41 13 84 20t86 7q57 0 95 -17.5t57 -52.5q26 34 67 52t93 18q98 0 152.5 -59t54.5 -164q0 -14 -7.5 -22t-20.5 -8zM421 253h274q0 76 -36 118.5t-101 42.5q-63 0 -99.5 -42.5t-37.5 -118.5zM348 53v180q-28 0 -58 -1.5t-61 -4.5q-63 -5 -92 -29.5t-29 -71.5
q0 -46 31.5 -70t91.5 -24q33 0 67 7t50 14z" />
    <glyph glyph-name="aeacute" unicode="&#x1fd;" horiz-adv-x="806" 
d="M414 531h-57l85 107h91zM737 207h-316q1 -83 39.5 -129t104.5 -46q54 0 97 13.5t55 18.5l14 -45q-13 -5 -60 -19t-106 -14q-46 0 -83 13t-64 38v-8q-40 -19 -85.5 -31t-91.5 -12q-99 0 -152 38t-53 108q0 61 47.5 97.5t135.5 42.5q34 2 67 3.5t62 1.5v33q0 55 -28 79
t-94 24q-28 0 -65 -5t-74 -15l-11 40q41 13 84 20t86 7q57 0 95 -17.5t57 -52.5q26 34 67 52t93 18q98 0 152.5 -59t54.5 -164q0 -14 -7.5 -22t-20.5 -8zM421 253h274q0 76 -36 118.5t-101 42.5q-63 0 -99.5 -42.5t-37.5 -118.5zM348 53v180q-28 0 -58 -1.5t-61 -4.5
q-63 -5 -92 -29.5t-29 -71.5q0 -46 31.5 -70t91.5 -24q33 0 67 7t50 14z" />
    <glyph glyph-name="b" unicode="b" horiz-adv-x="532" 
d="M279 460q104 0 154 -58t50 -177q0 -115 -54 -177t-155 -62q-50 0 -99.5 10t-98.5 33v599h70v-193q32 12 65.5 18.5t67.5 6.5zM413 223q0 97 -38 143.5t-117 46.5q-28 0 -56.5 -6t-55.5 -16v-338q28 -10 57.5 -15.5t59.5 -5.5q72 0 111 49.5t39 141.5z" />
    <glyph glyph-name="uni1E03" unicode="&#x1e03;" horiz-adv-x="532" 
d="M279 460q104 0 154 -58t50 -177q0 -115 -54 -177t-155 -62q-50 0 -99.5 10t-98.5 33v599h70v-193q32 12 65.5 18.5t67.5 6.5zM307 628v-97h-71v97h71zM413 223q0 97 -38 143.5t-117 46.5q-28 0 -56.5 -6t-55.5 -16v-338q28 -10 57.5 -15.5t59.5 -5.5q72 0 111 49.5
t39 141.5z" />
    <glyph glyph-name="c" unicode="c" horiz-adv-x="438" 
d="M49 222q0 118 51.5 178t152.5 60q35 0 73.5 -7t78.5 -20l-10 -39q-36 10 -66.5 15t-54.5 5q-81 0 -117.5 -45.5t-36.5 -145.5t36.5 -145.5t117.5 -45.5q26 0 56.5 4.5t64.5 14.5l10 -39q-39 -13 -77 -19.5t-75 -6.5q-101 0 -152.5 59.5t-51.5 176.5z" />
    <glyph glyph-name="cacute" unicode="&#x107;" horiz-adv-x="438" 
d="M268 531h-57l85 107h91zM49 222q0 118 51.5 178t152.5 60q35 0 73.5 -7t78.5 -20l-10 -39q-36 10 -66.5 15t-54.5 5q-81 0 -117.5 -45.5t-36.5 -145.5t36.5 -145.5t117.5 -45.5q26 0 56.5 4.5t64.5 14.5l10 -39q-39 -13 -77 -19.5t-75 -6.5q-101 0 -152.5 59.5
t-51.5 176.5z" />
    <glyph glyph-name="ccaron" unicode="&#x10d;" horiz-adv-x="438" 
d="M379 638l-90 -107h-85l-89 107h60l72 -65l72 65h60zM49 222q0 118 51.5 178t152.5 60q35 0 73.5 -7t78.5 -20l-10 -39q-36 10 -66.5 15t-54.5 5q-81 0 -117.5 -45.5t-36.5 -145.5t36.5 -145.5t117.5 -45.5q26 0 56.5 4.5t64.5 14.5l10 -39q-39 -13 -77 -19.5t-75 -6.5
q-101 0 -152.5 59.5t-51.5 176.5z" />
    <glyph glyph-name="ccedilla" unicode="&#xe7;" horiz-adv-x="438" 
d="M49 222q0 118 51.5 178t152.5 60q35 0 73.5 -7t78.5 -20l-10 -39q-36 10 -66.5 15t-54.5 5q-81 0 -117.5 -45.5t-36.5 -145.5t36.5 -145.5t117.5 -45.5q26 0 56.5 4.5t64.5 14.5l10 -39q-39 -13 -77 -19.5t-75 -6.5q-101 0 -152.5 59.5t-51.5 176.5zM159 -170l8 42
q14 -4 26 -6t20 -2q21 0 32 7.5t11 21.5t-11 22t-33 8q-9 0 -20.5 -2.5t-24.5 -6.5l-8 41q16 4 33.5 6.5t33.5 2.5q52 0 80 -18.5t28 -52.5q0 -35 -28 -53.5t-81 -18.5q-13 0 -30 2.5t-36 6.5z" />
    <glyph glyph-name="ccircumflex" unicode="&#x109;" horiz-adv-x="438" 
d="M386 531h-59l-73 66l-72 -66h-59l89 107h85zM49 222q0 118 51.5 178t152.5 60q35 0 73.5 -7t78.5 -20l-10 -39q-36 10 -66.5 15t-54.5 5q-81 0 -117.5 -45.5t-36.5 -145.5t36.5 -145.5t117.5 -45.5q26 0 56.5 4.5t64.5 14.5l10 -39q-39 -13 -77 -19.5t-75 -6.5
q-101 0 -152.5 59.5t-51.5 176.5z" />
    <glyph glyph-name="cdotaccent" unicode="&#x10b;" horiz-adv-x="438" 
d="M287 628v-97h-71v97h71zM49 222q0 118 51.5 178t152.5 60q35 0 73.5 -7t78.5 -20l-10 -39q-36 10 -66.5 15t-54.5 5q-81 0 -117.5 -45.5t-36.5 -145.5t36.5 -145.5t117.5 -45.5q26 0 56.5 4.5t64.5 14.5l10 -39q-39 -13 -77 -19.5t-75 -6.5q-101 0 -152.5 59.5
t-51.5 176.5z" />
    <glyph glyph-name="d" unicode="d" horiz-adv-x="533" 
d="M457 29q-46 -22 -96.5 -32.5t-101.5 -10.5q-103 0 -156.5 61t-53.5 178q0 116 52 175.5t153 59.5q38 0 69 -6.5t64 -18.5v193h70v-599zM270 32q28 0 58 5.5t59 15.5v338q-25 9 -53.5 15.5t-59.5 6.5q-80 0 -117 -45.5t-37 -144.5q0 -93 38.5 -142t111.5 -49z" />
    <glyph glyph-name="eth" unicode="&#xf0;" horiz-adv-x="599" 
d="M291 -14q-113 0 -178 58t-65 160q0 87 58.5 136.5t161.5 49.5q60 0 110 -21.5t79 -66.5q0 52 -5.5 94.5t-16.5 75.5l-128 -43l-15 44l125 42q-24 41 -63.5 61t-95.5 20q-40 0 -77 -8.5t-75 -24.5l-11 43q41 17 80.5 26.5t82.5 9.5q76 0 132 -26.5t91 -79.5l106 36l15 -44
l-98 -33q19 -42 28 -96t9 -120q0 -157 -67 -225t-183 -68zM279 336q-72 0 -113 -39t-41 -106q0 -74 44.5 -116.5t121.5 -42.5q76 0 120 42.5t44 116.5q0 67 -47.5 106t-128.5 39z" />
    <glyph glyph-name="dcaron" unicode="&#x10f;" horiz-adv-x="553" 
d="M457 29q-46 -22 -96.5 -32.5t-101.5 -10.5q-103 0 -156.5 61t-53.5 178q0 116 52 175.5t153 59.5q38 0 69 -6.5t64 -18.5v193h70v-599zM570 450h-59l23 178h97zM270 32q28 0 58 5.5t59 15.5v338q-25 9 -53.5 15.5t-59.5 6.5q-80 0 -117 -45.5t-37 -144.5q0 -93 38.5 -142
t111.5 -49z" />
    <glyph glyph-name="dcroat" unicode="&#x111;" horiz-adv-x="533" 
d="M457 29q-46 -22 -96.5 -32.5t-101.5 -10.5q-103 0 -156.5 61t-53.5 178q0 116 52 175.5t153 59.5q38 0 69 -6.5t64 -18.5v83h-145v44h145v66h70v-66h64v-44h-64v-489zM270 32q28 0 58 5.5t59 15.5v338q-25 9 -53.5 15.5t-59.5 6.5q-80 0 -117 -45.5t-37 -144.5
q0 -93 38.5 -142t111.5 -49z" />
    <glyph glyph-name="uni1E0B" unicode="&#x1e0b;" horiz-adv-x="533" 
d="M457 29q-46 -22 -96.5 -32.5t-101.5 -10.5q-103 0 -156.5 61t-53.5 178q0 116 52 175.5t153 59.5q38 0 69 -6.5t64 -18.5v193h70v-599zM287 628v-97h-71v97h71zM270 32q28 0 58 5.5t59 15.5v338q-25 9 -53.5 15.5t-59.5 6.5q-80 0 -117 -45.5t-37 -144.5q0 -93 38.5 -142
t111.5 -49z" />
    <glyph glyph-name="uni1E0D" unicode="&#x1e0d;" horiz-adv-x="533" 
d="M457 29q-46 -22 -96.5 -32.5t-101.5 -10.5q-103 0 -156.5 61t-53.5 178q0 116 52 175.5t153 59.5q38 0 69 -6.5t64 -18.5v193h70v-599zM270 32q28 0 58 5.5t59 15.5v338q-25 9 -53.5 15.5t-59.5 6.5q-80 0 -117 -45.5t-37 -144.5q0 -93 38.5 -142t111.5 -49zM299 -145
h-84v77h84v-77z" />
    <glyph glyph-name="e" unicode="e" horiz-adv-x="504" 
d="M435 207h-316q1 -83 39.5 -129t104.5 -46q54 0 97 13.5t55 18.5l14 -45q-13 -5 -60 -19t-106 -14q-101 0 -158 62.5t-57 174.5t54.5 174.5t153.5 62.5q98 0 152.5 -59t54.5 -164q0 -14 -7.5 -22t-20.5 -8zM119 253h274q0 76 -36 118.5t-101 42.5q-63 0 -99.5 -42.5
t-37.5 -118.5z" />
    <glyph glyph-name="eacute" unicode="&#xe9;" horiz-adv-x="504" 
d="M285 531h-57l85 107h91zM435 207h-316q1 -83 39.5 -129t104.5 -46q54 0 97 13.5t55 18.5l14 -45q-13 -5 -60 -19t-106 -14q-101 0 -158 62.5t-57 174.5t54.5 174.5t153.5 62.5q98 0 152.5 -59t54.5 -164q0 -14 -7.5 -22t-20.5 -8zM119 253h274q0 76 -36 118.5t-101 42.5
q-63 0 -99.5 -42.5t-37.5 -118.5z" />
    <glyph glyph-name="ebreve" unicode="&#x115;" horiz-adv-x="504" 
d="M387 638q0 -27 -11 -48t-29.5 -34.5t-42 -21t-47.5 -7.5q-51 0 -92 27t-41 84h60q0 -37 22.5 -53.5t49.5 -16.5q30 0 51 17.5t21 52.5h59zM435 207h-316q1 -83 39.5 -129t104.5 -46q54 0 97 13.5t55 18.5l14 -45q-13 -5 -60 -19t-106 -14q-101 0 -158 62.5t-57 174.5
t54.5 174.5t153.5 62.5q98 0 152.5 -59t54.5 -164q0 -14 -7.5 -22t-20.5 -8zM119 253h274q0 76 -36 118.5t-101 42.5q-63 0 -99.5 -42.5t-37.5 -118.5z" />
    <glyph glyph-name="ecaron" unicode="&#x11b;" horiz-adv-x="504" 
d="M387 638l-90 -107h-85l-89 107h60l72 -65l72 65h60zM435 207h-316q1 -83 39.5 -129t104.5 -46q54 0 97 13.5t55 18.5l14 -45q-13 -5 -60 -19t-106 -14q-101 0 -158 62.5t-57 174.5t54.5 174.5t153.5 62.5q98 0 152.5 -59t54.5 -164q0 -14 -7.5 -22t-20.5 -8zM119 253h274
q0 76 -36 118.5t-101 42.5q-63 0 -99.5 -42.5t-37.5 -118.5z" />
    <glyph glyph-name="ecircumflex" unicode="&#xea;" horiz-adv-x="504" 
d="M387 531h-59l-73 66l-72 -66h-59l89 107h85zM435 207h-316q1 -83 39.5 -129t104.5 -46q54 0 97 13.5t55 18.5l14 -45q-13 -5 -60 -19t-106 -14q-101 0 -158 62.5t-57 174.5t54.5 174.5t153.5 62.5q98 0 152.5 -59t54.5 -164q0 -14 -7.5 -22t-20.5 -8zM119 253h274
q0 76 -36 118.5t-101 42.5q-63 0 -99.5 -42.5t-37.5 -118.5z" />
    <glyph glyph-name="edieresis" unicode="&#xeb;" horiz-adv-x="504" 
d="M217 628v-97h-70v97h70zM363 628v-97h-70v97h70zM435 207h-316q1 -83 39.5 -129t104.5 -46q54 0 97 13.5t55 18.5l14 -45q-13 -5 -60 -19t-106 -14q-101 0 -158 62.5t-57 174.5t54.5 174.5t153.5 62.5q98 0 152.5 -59t54.5 -164q0 -14 -7.5 -22t-20.5 -8zM119 253h274
q0 76 -36 118.5t-101 42.5q-63 0 -99.5 -42.5t-37.5 -118.5z" />
    <glyph glyph-name="edotaccent" unicode="&#x117;" horiz-adv-x="504" 
d="M291 628v-97h-71v97h71zM435 207h-316q1 -83 39.5 -129t104.5 -46q54 0 97 13.5t55 18.5l14 -45q-13 -5 -60 -19t-106 -14q-101 0 -158 62.5t-57 174.5t54.5 174.5t153.5 62.5q98 0 152.5 -59t54.5 -164q0 -14 -7.5 -22t-20.5 -8zM119 253h274q0 76 -36 118.5t-101 42.5
q-63 0 -99.5 -42.5t-37.5 -118.5z" />
    <glyph glyph-name="uni1EB9" unicode="&#x1eb9;" horiz-adv-x="504" 
d="M435 207h-316q1 -83 39.5 -129t104.5 -46q54 0 97 13.5t55 18.5l14 -45q-13 -5 -60 -19t-106 -14q-101 0 -158 62.5t-57 174.5t54.5 174.5t153.5 62.5q98 0 152.5 -59t54.5 -164q0 -14 -7.5 -22t-20.5 -8zM119 253h274q0 76 -36 118.5t-101 42.5q-63 0 -99.5 -42.5
t-37.5 -118.5zM297 -145h-84v77h84v-77z" />
    <glyph glyph-name="egrave" unicode="&#xe8;" horiz-adv-x="504" 
d="M244 531l-119 107h91l85 -107h-57zM435 207h-316q1 -83 39.5 -129t104.5 -46q54 0 97 13.5t55 18.5l14 -45q-13 -5 -60 -19t-106 -14q-101 0 -158 62.5t-57 174.5t54.5 174.5t153.5 62.5q98 0 152.5 -59t54.5 -164q0 -14 -7.5 -22t-20.5 -8zM119 253h274q0 76 -36 118.5
t-101 42.5q-63 0 -99.5 -42.5t-37.5 -118.5z" />
    <glyph glyph-name="emacron" unicode="&#x113;" horiz-adv-x="504" 
d="M119 571v57h272v-57h-272zM435 207h-316q1 -83 39.5 -129t104.5 -46q54 0 97 13.5t55 18.5l14 -45q-13 -5 -60 -19t-106 -14q-101 0 -158 62.5t-57 174.5t54.5 174.5t153.5 62.5q98 0 152.5 -59t54.5 -164q0 -14 -7.5 -22t-20.5 -8zM119 253h274q0 76 -36 118.5
t-101 42.5q-63 0 -99.5 -42.5t-37.5 -118.5z" />
    <glyph glyph-name="eogonek" unicode="&#x119;" horiz-adv-x="504" 
d="M435 207h-316q1 -83 39.5 -129t104.5 -46q54 0 97 13.5t55 18.5l14 -45q-7 -3 -24 -9t-40 -11q-53 -46 -70.5 -70t-17.5 -51q0 -23 24 -40.5t55 -17.5h84v-31q-22 -4 -54 -8t-54 -4q-46 0 -80.5 28.5t-34.5 65.5q0 33 15.5 60.5t49.5 55.5q-4 -1 -9.5 -1h-9.5
q-101 0 -158 62.5t-57 174.5t54.5 174.5t153.5 62.5q98 0 152.5 -59t54.5 -164q0 -14 -7.5 -22t-20.5 -8zM119 253h274q0 76 -36 118.5t-101 42.5q-63 0 -99.5 -42.5t-37.5 -118.5z" />
    <glyph glyph-name="uni1EBD" unicode="&#x1ebd;" horiz-adv-x="504" 
d="M378 616l27 -26q-22 -33 -42.5 -46t-48.5 -13q-20 0 -34.5 5t-27.5 11q-14 7 -30.5 12.5t-32.5 5.5q-18 0 -30.5 -7t-26.5 -25l-27 26q22 33 42 46t48 13q20 0 38.5 -6t31.5 -13q12 -6 25.5 -10t29.5 -4q18 0 31 7t27 24zM435 207h-316q1 -83 39.5 -129t104.5 -46
q54 0 97 13.5t55 18.5l14 -45q-13 -5 -60 -19t-106 -14q-101 0 -158 62.5t-57 174.5t54.5 174.5t153.5 62.5q98 0 152.5 -59t54.5 -164q0 -14 -7.5 -22t-20.5 -8zM119 253h274q0 76 -36 118.5t-101 42.5q-63 0 -99.5 -42.5t-37.5 -118.5z" />
    <glyph glyph-name="f" unicode="f" horiz-adv-x="299" 
d="M242 596q-46 0 -62 -18t-16 -70v-62h117v-46h-117v-400h-71v400h-67v46h67v62q0 69 34.5 101.5t106.5 32.5q19 0 36 -3.5t34 -9.5l-11 -41q-13 4 -25.5 6t-25.5 2z" />
    <glyph glyph-name="uni1E1F" unicode="&#x1e1f;" horiz-adv-x="299" 
d="M228 807v-97h-71v97h71zM242 596q-46 0 -62 -18t-16 -70v-62h117v-46h-117v-400h-71v400h-67v46h67v62q0 69 34.5 101.5t106.5 32.5q19 0 36 -3.5t34 -9.5l-11 -41q-13 4 -25.5 6t-25.5 2z" />
    <glyph glyph-name="g" unicode="g" horiz-adv-x="532" 
d="M457 407v-462q0 -85 -48 -126.5t-146 -41.5q-38 0 -81.5 8.5t-93.5 24.5l11 39q49 -13 85 -19.5t58 -6.5q78 0 111 23.5t33 80.5v84q-39 -13 -72 -19t-61 -6q-103 0 -153.5 58.5t-50.5 177.5q0 120 52 179t158 59q53 0 102.5 -13t95.5 -40zM274 32q19 0 47 7t65 20v323
q-22 16 -50 24t-62 8q-78 0 -116.5 -47.5t-38.5 -143.5t38.5 -143.5t116.5 -47.5z" />
    <glyph glyph-name="uni01F5" unicode="&#x1f5;" horiz-adv-x="532" 
d="M293 531h-57l85 107h91zM457 407v-462q0 -85 -48 -126.5t-146 -41.5q-38 0 -81.5 8.5t-93.5 24.5l11 39q49 -13 85 -19.5t58 -6.5q78 0 111 23.5t33 80.5v84q-39 -13 -72 -19t-61 -6q-103 0 -153.5 58.5t-50.5 177.5q0 120 52 179t158 59q53 0 102.5 -13t95.5 -40z
M274 32q19 0 47 7t65 20v323q-22 16 -50 24t-62 8q-78 0 -116.5 -47.5t-38.5 -143.5t38.5 -143.5t116.5 -47.5z" />
    <glyph glyph-name="gbreve" unicode="&#x11f;" horiz-adv-x="532" 
d="M402 638q0 -27 -11 -48t-29.5 -34.5t-42 -21t-47.5 -7.5q-51 0 -92 27t-41 84h60q0 -37 22.5 -53.5t49.5 -16.5q30 0 51 17.5t21 52.5h59zM457 407v-462q0 -85 -48 -126.5t-146 -41.5q-38 0 -81.5 8.5t-93.5 24.5l11 39q49 -13 85 -19.5t58 -6.5q78 0 111 23.5t33 80.5
v84q-39 -13 -72 -19t-61 -6q-103 0 -153.5 58.5t-50.5 177.5q0 120 52 179t158 59q53 0 102.5 -13t95.5 -40zM274 32q19 0 47 7t65 20v323q-22 16 -50 24t-62 8q-78 0 -116.5 -47.5t-38.5 -143.5t38.5 -143.5t116.5 -47.5z" />
    <glyph glyph-name="gcaron" unicode="&#x1e7;" horiz-adv-x="532" 
d="M404 638l-90 -107h-85l-89 107h60l72 -65l72 65h60zM457 407v-462q0 -85 -48 -126.5t-146 -41.5q-38 0 -81.5 8.5t-93.5 24.5l11 39q49 -13 85 -19.5t58 -6.5q78 0 111 23.5t33 80.5v84q-39 -13 -72 -19t-61 -6q-103 0 -153.5 58.5t-50.5 177.5q0 120 52 179t158 59
q53 0 102.5 -13t95.5 -40zM274 32q19 0 47 7t65 20v323q-22 16 -50 24t-62 8q-78 0 -116.5 -47.5t-38.5 -143.5t38.5 -143.5t116.5 -47.5z" />
    <glyph glyph-name="gcircumflex" unicode="&#x11d;" horiz-adv-x="532" 
d="M402 531h-59l-73 66l-72 -66h-59l89 107h85zM457 407v-462q0 -85 -48 -126.5t-146 -41.5q-38 0 -81.5 8.5t-93.5 24.5l11 39q49 -13 85 -19.5t58 -6.5q78 0 111 23.5t33 80.5v84q-39 -13 -72 -19t-61 -6q-103 0 -153.5 58.5t-50.5 177.5q0 120 52 179t158 59
q53 0 102.5 -13t95.5 -40zM274 32q19 0 47 7t65 20v323q-22 16 -50 24t-62 8q-78 0 -116.5 -47.5t-38.5 -143.5t38.5 -143.5t116.5 -47.5z" />
    <glyph glyph-name="uni0123" unicode="&#x123;" horiz-adv-x="532" 
d="M279 700h54l-23 -179h-85zM457 407v-462q0 -85 -48 -126.5t-146 -41.5q-38 0 -81.5 8.5t-93.5 24.5l11 39q49 -13 85 -19.5t58 -6.5q78 0 111 23.5t33 80.5v84q-39 -13 -72 -19t-61 -6q-103 0 -153.5 58.5t-50.5 177.5q0 120 52 179t158 59q53 0 102.5 -13t95.5 -40z
M274 32q19 0 47 7t65 20v323q-22 16 -50 24t-62 8q-78 0 -116.5 -47.5t-38.5 -143.5t38.5 -143.5t116.5 -47.5z" />
    <glyph glyph-name="gdotaccent" unicode="&#x121;" horiz-adv-x="532" 
d="M303 628v-97h-71v97h71zM457 407v-462q0 -85 -48 -126.5t-146 -41.5q-38 0 -81.5 8.5t-93.5 24.5l11 39q49 -13 85 -19.5t58 -6.5q78 0 111 23.5t33 80.5v84q-39 -13 -72 -19t-61 -6q-103 0 -153.5 58.5t-50.5 177.5q0 120 52 179t158 59q53 0 102.5 -13t95.5 -40z
M274 32q19 0 47 7t65 20v323q-22 16 -50 24t-62 8q-78 0 -116.5 -47.5t-38.5 -143.5t38.5 -143.5t116.5 -47.5z" />
    <glyph glyph-name="h" unicode="h" horiz-adv-x="527" 
d="M454 0h-70v305q0 59 -26 84t-89 25q-34 0 -61.5 -5.5t-59.5 -18.5v-390h-70v628h70v-194q35 14 67 20t72 6q91 0 129 -38.5t38 -131.5v-290z" />
    <glyph glyph-name="hbar" unicode="&#x127;" horiz-adv-x="527" 
d="M454 0h-70v305q0 59 -26 84t-89 25q-34 0 -61.5 -5.5t-59.5 -18.5v-390h-70v518h-59v45h59v65h70v-65h140v-45h-140v-84q35 14 67 20t72 6q91 0 129 -38.5t38 -131.5v-290z" />
    <glyph glyph-name="hcircumflex" unicode="&#x125;" horiz-adv-x="527" 
d="M395 711h-59l-72 67l-73 -67h-59l89 109h85zM454 0h-70v305q0 59 -26 84t-89 25q-34 0 -61.5 -5.5t-59.5 -18.5v-390h-70v628h70v-194q35 14 67 20t72 6q91 0 129 -38.5t38 -131.5v-290z" />
    <glyph glyph-name="uni1E25" unicode="&#x1e25;" horiz-adv-x="527" 
d="M454 0h-70v305q0 59 -26 84t-89 25q-34 0 -61.5 -5.5t-59.5 -18.5v-390h-70v628h70v-194q35 14 67 20t72 6q91 0 129 -38.5t38 -131.5v-290zM305 -145h-84v77h84v-77z" />
    <glyph glyph-name="i" unicode="i" horiz-adv-x="227" 
d="M149 628v-97h-71v97h71zM149 446v-446h-71v446h71z" />
    <glyph glyph-name="iacute" unicode="&#xed;" horiz-adv-x="227" 
d="M136 531h-57l85 107h91zM149 446v-446h-71v446h71z" />
    <glyph glyph-name="ibreve" unicode="&#x12d;" horiz-adv-x="226" 
d="M244 638q0 -27 -11 -48t-29.5 -34.5t-42 -21t-47.5 -7.5q-51 0 -92 27t-41 84h60q0 -37 22.5 -53.5t49.5 -16.5q30 0 51 17.5t21 52.5h59zM149 446v-446h-71v446h71z" />
    <glyph glyph-name="icircumflex" unicode="&#xee;" horiz-adv-x="227" 
d="M245 531h-59l-73 66l-72 -66h-59l89 107h85zM149 446v-446h-71v446h71z" />
    <glyph glyph-name="idieresis" unicode="&#xef;" horiz-adv-x="227" 
d="M75 628v-97h-70v97h70zM221 628v-97h-70v97h70zM149 446v-446h-71v446h71z" />
    <glyph glyph-name="uni1ECB" unicode="&#x1ecb;" horiz-adv-x="227" 
d="M149 628v-97h-71v97h71zM149 446v-446h-71v446h71zM155 -145h-84v77h84v-77z" />
    <glyph glyph-name="igrave" unicode="&#xec;" horiz-adv-x="227" 
d="M92 531l-119 107h91l85 -107h-57zM149 446v-446h-71v446h71z" />
    <glyph glyph-name="ij" unicode="&#x133;" horiz-adv-x="453" 
d="M149 628v-97h-71v97h71zM375 628v-97h-70v97h70zM149 446v-446h-71v446h71zM375 446v-535q0 -65 -30.5 -99.5t-97.5 -34.5h-8l-12 46h17q34 1 47.5 21.5t13.5 66.5v535h70z" />
    <glyph glyph-name="imacron" unicode="&#x12b;" horiz-adv-x="227" 
d="M-23 571v57h272v-57h-272zM149 446v-446h-71v446h71z" />
    <glyph glyph-name="iogonek" unicode="&#x12f;" horiz-adv-x="229" 
d="M151 628v-97h-71v97h71zM151 446v-446h-23q-54 -46 -71.5 -70.5t-17.5 -51.5q0 -23 24 -40.5t55 -17.5h84v-31q-22 -4 -54 -8t-54 -4q-46 0 -80.5 28.5t-34.5 65.5q0 40 24 73.5t77 67.5v434h71z" />
    <glyph glyph-name="itilde" unicode="&#x129;" horiz-adv-x="227" 
d="M236 616l27 -26q-22 -33 -42.5 -46t-48.5 -13q-20 0 -34.5 5t-27.5 11q-14 7 -30.5 12.5t-32.5 5.5q-18 0 -30.5 -7t-26.5 -25l-27 26q22 33 42 46t48 13q20 0 38.5 -6t31.5 -13q12 -6 25.5 -10t29.5 -4q18 0 31 7t27 24zM149 446v-446h-71v446h71z" />
    <glyph glyph-name="j" unicode="j" horiz-adv-x="234" 
d="M156 628v-97h-70v97h70zM156 446v-535q0 -65 -30.5 -99.5t-97.5 -34.5h-8l-12 46h17q34 1 47.5 21.5t13.5 66.5v535h70z" />
    <glyph glyph-name="jcircumflex" unicode="&#x135;" horiz-adv-x="234" 
d="M253 566h-59l-72 67l-73 -67h-59l89 109h85zM156 446v-535q0 -65 -30.5 -99.5t-97.5 -34.5h-8l-12 46h17q34 0 47.5 21t13.5 67v535h70z" />
    <glyph glyph-name="k" unicode="k" horiz-adv-x="467" 
d="M229 246l238 -246h-96l-198 219h-25v-219h-70v628h70v-363h25l170 181h82z" />
    <glyph glyph-name="uni0137" unicode="&#x137;" horiz-adv-x="467" 
d="M229 246l238 -246h-96l-198 219h-25v-219h-70v628h70v-363h25l170 181h82zM257 -246h-59l23 178h97z" />
    <glyph glyph-name="kgreenlandic" unicode="&#x138;" horiz-adv-x="466" 
d="M228 246l238 -246h-96l-198 219h-25v-219h-70v446h70v-181h25l170 181h82z" />
    <glyph glyph-name="l" unicode="l" horiz-adv-x="226" 
d="M148 0h-70v628l70 17v-645z" />
    <glyph glyph-name="lacute" unicode="&#x13a;" horiz-adv-x="226" 
d="M130 711h-58l85 109h92zM148 0h-70v628l70 17v-645z" />
    <glyph glyph-name="lcaron" unicode="&#x13e;" horiz-adv-x="246" 
d="M148 0h-70v628l70 17v-645zM261 450h-59l23 178h97z" />
    <glyph glyph-name="uni013C" unicode="&#x13c;" horiz-adv-x="226" 
d="M148 0h-70v628l70 17v-645zM102 -246h-59l23 178h97z" />
    <glyph glyph-name="lslash" unicode="&#x142;" horiz-adv-x="277" 
d="M176 0h-70v292l-68 -45v57l68 44v280l70 17v-261l72 47v-57l-72 -46v-328z" />
    <glyph glyph-name="m" unicode="m" horiz-adv-x="817" 
d="M744 0h-70v313q0 57 -24.5 79t-87.5 22q-34 0 -60 -6.5t-59 -22.5q1 -4 1.5 -9.5t0.5 -14.5v-361h-71v313q0 57 -24.5 79t-86.5 22q-32 0 -61 -8t-56 -20v-386h-71v407q55 28 106.5 40.5t99.5 12.5q51 0 79.5 -8t49.5 -28q46 20 83 28t87 8q92 0 128 -35.5t36 -126.5
v-298z" />
    <glyph glyph-name="uni1E41" unicode="&#x1e41;" horiz-adv-x="817" 
d="M443 628v-97h-71v97h71zM744 0h-70v313q0 57 -24.5 79t-87.5 22q-34 0 -60 -6.5t-59 -22.5q1 -4 1.5 -9.5t0.5 -14.5v-361h-71v313q0 57 -24.5 79t-86.5 22q-32 0 -61 -8t-56 -20v-386h-71v407q55 28 106.5 40.5t99.5 12.5q51 0 79.5 -8t49.5 -28q46 20 83 28t87 8
q92 0 128 -35.5t36 -126.5v-298z" />
    <glyph glyph-name="n" unicode="n" horiz-adv-x="524" 
d="M451 0h-69v305q0 61 -25.5 85t-90.5 24q-31 0 -61 -7.5t-60 -20.5v-386h-70v407q49 25 103.5 39t106.5 14q90 0 128 -39t38 -131v-290z" />
    <glyph glyph-name="nacute" unicode="&#x144;" horiz-adv-x="524" 
d="M276 531h-57l85 107h91zM451 0h-69v305q0 61 -25.5 85t-90.5 24q-31 0 -61 -7.5t-60 -20.5v-386h-70v407q49 25 103.5 39t106.5 14q90 0 128 -39t38 -131v-290z" />
    <glyph glyph-name="napostrophe" unicode="&#x149;" horiz-adv-x="604" 
d="M88 450h-59l23 178h97zM531 0h-69v305q0 61 -25.5 85t-90.5 24q-31 0 -61 -7.5t-60 -20.5v-386h-70v407q49 25 103.5 39t106.5 14q90 0 128 -39t38 -131v-290z" />
    <glyph glyph-name="ncaron" unicode="&#x148;" horiz-adv-x="524" 
d="M396 638l-90 -107h-85l-89 107h60l72 -65l72 65h60zM451 0h-69v305q0 61 -25.5 85t-90.5 24q-31 0 -61 -7.5t-60 -20.5v-386h-70v407q49 25 103.5 39t106.5 14q90 0 128 -39t38 -131v-290z" />
    <glyph glyph-name="uni0146" unicode="&#x146;" horiz-adv-x="524" 
d="M451 0h-69v305q0 61 -25.5 85t-90.5 24q-31 0 -61 -7.5t-60 -20.5v-386h-70v407q49 25 103.5 39t106.5 14q90 0 128 -39t38 -131v-290zM251 -246h-59l23 178h97z" />
    <glyph glyph-name="uni1E45" unicode="&#x1e45;" horiz-adv-x="524" 
d="M294 628v-97h-71v97h71zM451 0h-69v305q0 61 -25.5 85t-90.5 24q-31 0 -61 -7.5t-60 -20.5v-386h-70v407q49 25 103.5 39t106.5 14q90 0 128 -39t38 -131v-290z" />
    <glyph glyph-name="eng" unicode="&#x14b;" horiz-adv-x="524" 
d="M285 460q90 0 128 -39t38 -131v-379q0 -67 -31 -100.5t-96 -33.5h-8l-12 46h17q34 0 47.5 21.5t13.5 66.5v394q0 61 -25.5 85t-90.5 24q-31 0 -61 -7.5t-60 -20.5v-386h-70v407q49 25 103.5 39t106.5 14z" />
    <glyph glyph-name="uni0272" unicode="&#x272;" horiz-adv-x="524" 
d="M451 0h-69v305q0 61 -25.5 85t-90.5 24q-31 0 -61 -7.5t-60 -20.5v-475q0 -67 -31 -100.5t-97 -33.5h-8l-12 46h17q32 0 46.5 21.5t14.5 66.5v496q49 25 103.5 39t106.5 14q90 0 128 -39t38 -131v-290z" />
    <glyph glyph-name="ntilde" unicode="&#xf1;" horiz-adv-x="524" 
d="M387 616l27 -26q-22 -33 -42.5 -46t-48.5 -13q-20 0 -34.5 5t-27.5 11q-14 7 -30.5 12.5t-32.5 5.5q-18 0 -30.5 -7t-26.5 -25l-27 26q22 33 42 46t48 13q20 0 38.5 -6t31.5 -13q12 -6 25.5 -10t29.5 -4q18 0 31 7t27 24zM451 0h-69v305q0 61 -25.5 85t-90.5 24
q-31 0 -61 -7.5t-60 -20.5v-386h-70v407q49 25 103.5 39t106.5 14q90 0 128 -39t38 -131v-290z" />
    <glyph glyph-name="o" unicode="o" horiz-adv-x="522" 
d="M474 222q0 -111 -56 -173.5t-157 -62.5t-157 62.5t-56 173.5q0 112 56 175t157 63t157 -63t56 -175zM403 222q0 90 -37.5 141t-104.5 51t-104.5 -51t-37.5 -141t37.5 -140t104.5 -50t104.5 50t37.5 140z" />
    <glyph glyph-name="oacute" unicode="&#xf3;" horiz-adv-x="522" 
d="M285 531h-57l85 107h91zM474 222q0 -111 -56 -173.5t-157 -62.5t-157 62.5t-56 173.5q0 112 56 175t157 63t157 -63t56 -175zM403 222q0 90 -37.5 141t-104.5 51t-104.5 -51t-37.5 -141t37.5 -140t104.5 -50t104.5 50t37.5 140z" />
    <glyph glyph-name="obreve" unicode="&#x14f;" horiz-adv-x="522" 
d="M393 638q0 -27 -11 -48t-29.5 -34.5t-42 -21t-47.5 -7.5q-51 0 -92 27t-41 84h60q0 -37 22.5 -53.5t49.5 -16.5q30 0 51 17.5t21 52.5h59zM474 222q0 -111 -56 -173.5t-157 -62.5t-157 62.5t-56 173.5q0 112 56 175t157 63t157 -63t56 -175zM403 222q0 90 -37.5 141
t-104.5 51t-104.5 -51t-37.5 -141t37.5 -140t104.5 -50t104.5 50t37.5 140z" />
    <glyph glyph-name="uni01D2" unicode="&#x1d2;" horiz-adv-x="522" 
d="M393 638l-90 -107h-85l-89 107h60l72 -65l72 65h60zM474 222q0 -111 -56 -173.5t-157 -62.5t-157 62.5t-56 173.5q0 112 56 175t157 63t157 -63t56 -175zM403 222q0 90 -37.5 141t-104.5 51t-104.5 -51t-37.5 -141t37.5 -140t104.5 -50t104.5 50t37.5 140z" />
    <glyph glyph-name="ocircumflex" unicode="&#xf4;" horiz-adv-x="522" 
d="M393 531h-59l-73 66l-72 -66h-59l89 107h85zM474 222q0 -111 -56 -173.5t-157 -62.5t-157 62.5t-56 173.5q0 112 56 175t157 63t157 -63t56 -175zM403 222q0 90 -37.5 141t-104.5 51t-104.5 -51t-37.5 -141t37.5 -140t104.5 -50t104.5 50t37.5 140z" />
    <glyph glyph-name="odieresis" unicode="&#xf6;" horiz-adv-x="522" 
d="M223 628v-97h-70v97h70zM369 628v-97h-70v97h70zM474 222q0 -111 -56 -173.5t-157 -62.5t-157 62.5t-56 173.5q0 112 56 175t157 63t157 -63t56 -175zM403 222q0 90 -37.5 141t-104.5 51t-104.5 -51t-37.5 -141t37.5 -140t104.5 -50t104.5 50t37.5 140z" />
    <glyph glyph-name="uni1ECD" unicode="&#x1ecd;" horiz-adv-x="522" 
d="M474 222q0 -111 -56 -173.5t-157 -62.5t-157 62.5t-56 173.5q0 112 56 175t157 63t157 -63t56 -175zM403 222q0 90 -37.5 141t-104.5 51t-104.5 -51t-37.5 -141t37.5 -140t104.5 -50t104.5 50t37.5 140zM303 -145h-84v77h84v-77z" />
    <glyph glyph-name="ograve" unicode="&#xf2;" horiz-adv-x="522" 
d="M241 531l-119 107h91l85 -107h-57zM474 222q0 -111 -56 -173.5t-157 -62.5t-157 62.5t-56 173.5q0 112 56 175t157 63t157 -63t56 -175zM403 222q0 90 -37.5 141t-104.5 51t-104.5 -51t-37.5 -141t37.5 -140t104.5 -50t104.5 50t37.5 140z" />
    <glyph glyph-name="ohungarumlaut" unicode="&#x151;" horiz-adv-x="522" 
d="M219 531h-57l85 107h91zM350 531h-57l85 107h91zM474 222q0 -111 -56 -173.5t-157 -62.5t-157 62.5t-56 173.5q0 112 56 175t157 63t157 -63t56 -175zM403 222q0 90 -37.5 141t-104.5 51t-104.5 -51t-37.5 -141t37.5 -140t104.5 -50t104.5 50t37.5 140z" />
    <glyph glyph-name="omacron" unicode="&#x14d;" horiz-adv-x="522" 
d="M125 571v57h272v-57h-272zM474 222q0 -111 -56 -173.5t-157 -62.5t-157 62.5t-56 173.5q0 112 56 175t157 63t157 -63t56 -175zM403 222q0 90 -37.5 141t-104.5 51t-104.5 -51t-37.5 -141t37.5 -140t104.5 -50t104.5 50t37.5 140z" />
    <glyph glyph-name="uni01EB" unicode="&#x1eb;" horiz-adv-x="522" 
d="M474 222q0 -79 -28.5 -134t-81.5 -81q-60 -50 -79 -75.5t-19 -53.5q0 -23 24 -40.5t55 -17.5h84v-31q-22 -4 -54 -8t-54 -4q-46 0 -80.5 28.5t-34.5 65.5q0 33 15.5 60.5t48.5 54.5h-4.5h-4.5q-101 0 -157 62.5t-56 173.5q0 112 56 175t157 63t157 -63t56 -175zM403 222
q0 90 -37.5 141t-104.5 51t-104.5 -51t-37.5 -141t37.5 -140t104.5 -50t104.5 50t37.5 140z" />
    <glyph glyph-name="oslash" unicode="&#xf8;" horiz-adv-x="533" 
d="M480 222q0 -111 -56 -173.5t-157 -62.5q-45 0 -81.5 12.5t-63.5 37.5l-32 -36h-53l59 65q-20 29 -31 68.5t-11 88.5q0 112 56 175t157 63q44 0 80.5 -12.5t62.5 -36.5l32 35h50l-57 -63q22 -30 33.5 -70.5t11.5 -90.5zM125 222q0 -31 4.5 -57.5t13.5 -47.5l227 249
q-19 23 -44.5 35.5t-58.5 12.5q-67 0 -104.5 -51t-37.5 -141zM409 222q0 33 -5 60.5t-15 49.5l-226 -251q18 -24 44 -36.5t60 -12.5q67 0 104.5 50t37.5 140z" />
    <glyph glyph-name="oslashacute" unicode="&#x1ff;" horiz-adv-x="533" 
d="M301 531h-57l85 107h91zM480 222q0 -111 -56 -173.5t-157 -62.5q-45 0 -81.5 12.5t-63.5 37.5l-32 -36h-53l59 65q-20 29 -31 68.5t-11 88.5q0 112 56 175t157 63q44 0 80.5 -12.5t62.5 -36.5l32 35h50l-57 -63q22 -30 33.5 -70.5t11.5 -90.5zM125 222q0 -31 4.5 -57.5
t13.5 -47.5l227 249q-19 23 -44.5 35.5t-58.5 12.5q-67 0 -104.5 -51t-37.5 -141zM409 222q0 33 -5 60.5t-15 49.5l-226 -251q18 -24 44 -36.5t60 -12.5q67 0 104.5 50t37.5 140z" />
    <glyph glyph-name="otilde" unicode="&#xf5;" horiz-adv-x="522" 
d="M384 616l27 -26q-22 -33 -42.5 -46t-48.5 -13q-20 0 -34.5 5t-27.5 11q-14 7 -30.5 12.5t-32.5 5.5q-18 0 -30.5 -7t-26.5 -25l-27 26q22 33 42 46t48 13q20 0 38.5 -6t31.5 -13q12 -6 25.5 -10t29.5 -4q18 0 31 7t27 24zM474 222q0 -111 -56 -173.5t-157 -62.5
t-157 62.5t-56 173.5q0 112 56 175t157 63t157 -63t56 -175zM403 222q0 90 -37.5 141t-104.5 51t-104.5 -51t-37.5 -141t37.5 -140t104.5 -50t104.5 50t37.5 140z" />
    <glyph glyph-name="oe" unicode="&#x153;" horiz-adv-x="862" 
d="M793 207h-316q1 -83 39.5 -129t104.5 -46q54 0 97 13.5t55 18.5l14 -45q-13 -5 -60 -19t-106 -14q-62 0 -108 24t-73 69q-26 -45 -71.5 -69t-107.5 -24q-101 0 -157 62.5t-56 173.5q0 112 56 175t157 63q61 0 106.5 -24t71.5 -68q26 45 70.5 68.5t104.5 23.5
q98 0 152.5 -59t54.5 -164q0 -14 -7.5 -22t-20.5 -8zM403 222q0 90 -37.5 141t-104.5 51t-104.5 -51t-37.5 -141t37.5 -140t104.5 -50t104.5 50t37.5 140zM477 253h274q0 76 -36 118.5t-101 42.5q-63 0 -99.5 -42.5t-37.5 -118.5z" />
    <glyph glyph-name="p" unicode="p" horiz-adv-x="531" 
d="M482 222q0 -120 -50 -178t-154 -58q-29 0 -61.5 6t-70.5 19v-220h-71v616q46 29 95 41t103 12q106 0 157.5 -58.5t51.5 -179.5zM412 223q0 97 -38 144t-116 47q-34 0 -59.5 -8t-52.5 -24v-323q36 -13 63.5 -20t48.5 -7q78 0 116 47t38 144z" />
    <glyph glyph-name="uni1E57" unicode="&#x1e57;" horiz-adv-x="531" 
d="M302 628v-97h-71v97h71zM482 222q0 -120 -50 -178t-154 -58q-29 0 -61.5 6t-70.5 19v-220h-71v616q46 29 95 41t103 12q106 0 157.5 -58.5t51.5 -179.5zM412 223q0 97 -38 144t-116 47q-34 0 -59.5 -8t-52.5 -24v-323q36 -13 63.5 -20t48.5 -7q78 0 116 47t38 144z" />
    <glyph glyph-name="thorn" unicode="&#xfe;" horiz-adv-x="534" 
d="M485 222q0 -120 -50 -178t-154 -58q-29 0 -61.5 6t-70.5 19v-220h-71v837h71v-187q30 10 61.5 14.5t65.5 4.5q106 0 157.5 -58.5t51.5 -179.5zM415 223q0 97 -38 144t-116 47q-34 0 -59.5 -8t-52.5 -24v-323q36 -13 63.5 -20t48.5 -7q78 0 116 47t38 144z" />
    <glyph glyph-name="q" unicode="q" horiz-adv-x="531" 
d="M258 460q52 0 100.5 -12t97.5 -41v-616h-70v220q-39 -13 -71.5 -19t-61.5 -6q-104 0 -154 58t-50 178q0 121 51.5 179.5t157.5 58.5zM274 32q21 0 48 7t64 20v323q-24 14 -50.5 23t-61.5 9q-78 0 -116 -47t-38 -144t38 -144t116 -47z" />
    <glyph glyph-name="r" unicode="r" horiz-adv-x="352" 
d="M344 448l-21 -53q-19 10 -43 14.5t-47 4.5q-25 0 -45 -5.5t-44 -18.5v-390h-69v407q47 29 92 41t87 12q24 0 47 -3t43 -9z" />
    <glyph glyph-name="racute" unicode="&#x155;" horiz-adv-x="352" 
d="M207 531h-57l85 107h91zM344 448l-21 -53q-19 10 -43 14.5t-47 4.5q-25 0 -45 -5.5t-44 -18.5v-390h-69v407q47 29 92 41t87 12q24 0 47 -3t43 -9z" />
    <glyph glyph-name="rcaron" unicode="&#x159;" horiz-adv-x="352" 
d="M334 638l-90 -107h-85l-89 107h60l72 -65l72 65h60zM344 448l-21 -53q-19 10 -43 14.5t-47 4.5q-25 0 -45 -5.5t-44 -18.5v-390h-69v407q47 29 92 41t87 12q24 0 47 -3t43 -9z" />
    <glyph glyph-name="uni0157" unicode="&#x157;" horiz-adv-x="352" 
d="M344 448l-21 -53q-19 10 -43 14.5t-47 4.5q-25 0 -45 -5.5t-44 -18.5v-390h-69v407q47 29 92 41t87 12q24 0 47 -3t43 -9zM176 -246h-59l23 178h97z" />
    <glyph glyph-name="uni1E5B" unicode="&#x1e5b;" horiz-adv-x="352" 
d="M344 448l-21 -53q-19 10 -43 14.5t-47 4.5q-25 0 -45 -5.5t-44 -18.5v-390h-69v407q47 29 92 41t87 12q24 0 47 -3t43 -9zM152 -143h-84v77h84v-77z" />
    <glyph glyph-name="s" unicode="s" 
d="M198 -14q-38 0 -74 9t-73 23l11 40q35 -13 69 -19.5t68 -6.5q62 0 97.5 24t35.5 66q0 13 -3.5 24.5t-15.5 20.5t-34.5 17.5t-60.5 15.5q-54 10 -88 22.5t-53.5 28.5t-26.5 37t-7 48q0 60 48.5 92t138.5 32q37 0 72.5 -9.5t69.5 -22.5l-13 -40q-32 12 -62.5 19t-66.5 7
q-58 0 -89.5 -20.5t-31.5 -57.5q0 -22 21.5 -40.5t91.5 -31.5q54 -10 88.5 -21.5t54.5 -27t27.5 -37t7.5 -52.5q0 -66 -54 -103t-148 -37z" />
    <glyph glyph-name="sacute" unicode="&#x15b;" 
d="M232 531h-57l85 107h91zM198 -14q-38 0 -74 9t-73 23l11 40q35 -13 69 -19.5t68 -6.5q62 0 97.5 24t35.5 66q0 13 -3.5 24.5t-15.5 20.5t-34.5 17.5t-60.5 15.5q-54 10 -88 22.5t-53.5 28.5t-26.5 37t-7 48q0 60 48.5 92t138.5 32q37 0 72.5 -9.5t69.5 -22.5l-13 -40
q-32 12 -62.5 19t-66.5 7q-58 0 -89.5 -20.5t-31.5 -57.5q0 -22 21.5 -40.5t91.5 -31.5q54 -10 88.5 -21.5t54.5 -27t27.5 -37t7.5 -52.5q0 -66 -54 -103t-148 -37z" />
    <glyph glyph-name="scaron" unicode="&#x161;" 
d="M352 638l-90 -107h-85l-89 107h60l72 -65l72 65h60zM198 -14q-38 0 -74 9t-73 23l11 40q35 -13 69 -19.5t68 -6.5q62 0 97.5 24t35.5 66q0 13 -3.5 24.5t-15.5 20.5t-34.5 17.5t-60.5 15.5q-54 10 -88 22.5t-53.5 28.5t-26.5 37t-7 48q0 60 48.5 92t138.5 32
q37 0 72.5 -9.5t69.5 -22.5l-13 -40q-32 12 -62.5 19t-66.5 7q-58 0 -89.5 -20.5t-31.5 -57.5q0 -22 21.5 -40.5t91.5 -31.5q54 -10 88.5 -21.5t54.5 -27t27.5 -37t7.5 -52.5q0 -66 -54 -103t-148 -37z" />
    <glyph glyph-name="scedilla" unicode="&#x15f;" 
d="M198 -14q-38 0 -74 9t-73 23l11 40q35 -13 69 -19.5t68 -6.5q62 0 97.5 24t35.5 66q0 13 -3.5 24.5t-15.5 20.5t-34.5 17.5t-60.5 15.5q-54 10 -88 22.5t-53.5 28.5t-26.5 37t-7 48q0 60 48.5 92t138.5 32q37 0 72.5 -9.5t69.5 -22.5l-13 -40q-32 12 -62.5 19t-66.5 7
q-58 0 -89.5 -20.5t-31.5 -57.5q0 -22 21.5 -40.5t91.5 -31.5q54 -10 88.5 -21.5t54.5 -27t27.5 -37t7.5 -52.5q0 -66 -54 -103t-148 -37zM146 -170l8 42q14 -4 26 -6t20 -2q21 0 32 7.5t11 21.5t-11 22t-33 8q-9 0 -20.5 -2.5t-24.5 -6.5l-8 41q16 4 33.5 6.5t33.5 2.5
q52 0 80 -18.5t28 -52.5q0 -35 -28 -53.5t-81 -18.5q-13 0 -30 2.5t-36 6.5z" />
    <glyph glyph-name="scircumflex" unicode="&#x15d;" 
d="M359 531h-59l-73 66l-72 -66h-59l89 107h85zM198 -14q-38 0 -74 9t-73 23l11 40q35 -13 69 -19.5t68 -6.5q62 0 97.5 24t35.5 66q0 13 -3.5 24.5t-15.5 20.5t-34.5 17.5t-60.5 15.5q-54 10 -88 22.5t-53.5 28.5t-26.5 37t-7 48q0 60 48.5 92t138.5 32q37 0 72.5 -9.5
t69.5 -22.5l-13 -40q-32 12 -62.5 19t-66.5 7q-58 0 -89.5 -20.5t-31.5 -57.5q0 -22 21.5 -40.5t91.5 -31.5q54 -10 88.5 -21.5t54.5 -27t27.5 -37t7.5 -52.5q0 -66 -54 -103t-148 -37z" />
    <glyph glyph-name="uni0219" unicode="&#x219;" 
d="M198 -14q-38 0 -74 9t-73 23l11 40q35 -13 69 -19.5t68 -6.5q62 0 97.5 24t35.5 66q0 13 -3.5 24.5t-15.5 20.5t-34.5 17.5t-60.5 15.5q-54 10 -88 22.5t-53.5 28.5t-26.5 37t-7 48q0 60 48.5 92t138.5 32q37 0 72.5 -9.5t69.5 -22.5l-13 -40q-32 12 -62.5 19t-66.5 7
q-58 0 -89.5 -20.5t-31.5 -57.5q0 -22 21.5 -40.5t91.5 -31.5q54 -10 88.5 -21.5t54.5 -27t27.5 -37t7.5 -52.5q0 -66 -54 -103t-148 -37zM220 -246h-59l23 178h97z" />
    <glyph glyph-name="uni1E61" unicode="&#x1e61;" 
d="M252 628v-97h-71v97h71zM198 -14q-38 0 -74 9t-73 23l11 40q35 -13 69 -19.5t68 -6.5q62 0 97.5 24t35.5 66q0 13 -3.5 24.5t-15.5 20.5t-34.5 17.5t-60.5 15.5q-54 10 -88 22.5t-53.5 28.5t-26.5 37t-7 48q0 60 48.5 92t138.5 32q37 0 72.5 -9.5t69.5 -22.5l-13 -40
q-32 12 -62.5 19t-66.5 7q-58 0 -89.5 -20.5t-31.5 -57.5q0 -22 21.5 -40.5t91.5 -31.5q54 -10 88.5 -21.5t54.5 -27t27.5 -37t7.5 -52.5q0 -66 -54 -103t-148 -37z" />
    <glyph glyph-name="uni1E63" unicode="&#x1e63;" 
d="M198 -14q-38 0 -74 9t-73 23l11 40q35 -13 69 -19.5t68 -6.5q62 0 97.5 24t35.5 66q0 13 -3.5 24.5t-15.5 20.5t-34.5 17.5t-60.5 15.5q-54 10 -88 22.5t-53.5 28.5t-26.5 37t-7 48q0 60 48.5 92t138.5 32q37 0 72.5 -9.5t69.5 -22.5l-13 -40q-32 12 -62.5 19t-66.5 7
q-58 0 -89.5 -20.5t-31.5 -57.5q0 -22 21.5 -40.5t91.5 -31.5q54 -10 88.5 -21.5t54.5 -27t27.5 -37t7.5 -52.5q0 -66 -54 -103t-148 -37zM263 -145h-84v77h84v-77z" />
    <glyph glyph-name="germandbls" unicode="&#xdf;" horiz-adv-x="618" 
d="M378 353q88 -6 142 -53.5t54 -118.5q0 -96 -68.5 -145.5t-202.5 -49.5q-18 0 -34.5 1t-33.5 5v44q14 -2 29 -3t29 -1q99 0 149 39t50 115q0 61 -46.5 98t-123.5 37q-9 0 -22.5 -0.5t-26.5 -1t-23.5 -1.5t-14.5 -1v47q104 9 150 40t46 91q0 43 -41 72t-103 29
q-60 0 -99 -40.5t-39 -102.5v-453h-71v453q0 81 57.5 135t145.5 54q49 0 90.5 -11t71.5 -30.5t47 -46.5t17 -59q0 -54 -33 -90t-96 -52z" />
    <glyph glyph-name="uni0259" unicode="&#x259;" horiz-adv-x="504" 
d="M69 238h317q-1 84 -39.5 130t-104.5 46q-40 0 -80 -8.5t-72 -23.5l-15 45q38 16 82 24.5t85 8.5q101 0 157.5 -62.5t56.5 -175.5q0 -112 -54.5 -174t-152.5 -62q-99 0 -153.5 58.5t-54.5 163.5q0 19 6 24.5t22 5.5zM386 192h-274q0 -75 36 -117.5t101 -42.5q62 0 98 42.5
t39 117.5z" />
    <glyph glyph-name="t" unicode="t" horiz-adv-x="302" 
d="M273 35l-8 -47q-7 -1 -16 -1.5t-17 -0.5q-72 0 -106 32t-34 101v281h-65v46h65v134l70 17v-151h117v-46h-117v-281q0 -51 16 -69t62 -18q10 0 18 1t15 2z" />
    <glyph glyph-name="tbar" unicode="&#x167;" horiz-adv-x="312" 
d="M36 240v41h61v119h-65v46h65v134l70 17v-151h117v-46h-117v-119h112v-41h-112v-121q0 -51 16 -69t62 -18q10 0 18 1t15 2l-8 -47q-7 -1 -16 -1.5t-17 -0.5q-72 0 -106 32t-34 101v121h-61z" />
    <glyph glyph-name="tcaron" unicode="&#x165;" horiz-adv-x="322" 
d="M365 450h-59l23 178h97zM273 35l-8 -47q-7 -1 -16 -1.5t-17 -0.5q-72 0 -106 32t-34 101v281h-65v46h65v134l70 17v-151h117v-46h-117v-281q0 -51 16 -69t62 -18q10 0 18 1t15 2z" />
    <glyph glyph-name="uni0163" unicode="&#x163;" horiz-adv-x="302" 
d="M273 35l-8 -47q-7 -1 -16 -1.5t-17 -0.5q-72 0 -106 32t-34 101v281h-65v46h65v134l70 17v-151h117v-46h-117v-281q0 -51 16 -69t62 -18q10 0 18 1t15 2zM113 -170l8 42q14 -4 26 -6t20 -2q21 0 32 7.5t11 21.5t-11 22t-33 8q-9 0 -20.5 -2.5t-24.5 -6.5l-8 41
q16 4 33.5 6.5t33.5 2.5q52 0 80 -18.5t28 -52.5q0 -35 -28 -53.5t-81 -18.5q-13 0 -30 2.5t-36 6.5z" />
    <glyph glyph-name="uni021B" unicode="&#x21b;" horiz-adv-x="302" 
d="M273 35l-8 -47q-7 -1 -16 -1.5t-17 -0.5q-72 0 -106 32t-34 101v281h-65v46h65v134l70 17v-151h117v-46h-117v-281q0 -51 16 -69t62 -18q10 0 18 1t15 2zM171 -246h-59l23 178h97z" />
    <glyph glyph-name="uni1E6B" unicode="&#x1e6b;" horiz-adv-x="302" 
d="M163 747v-97h-71v97h71zM273 35l-8 -47q-7 -1 -16 -1.5t-17 -0.5q-72 0 -106 32t-34 101v281h-65v46h65v134l70 17v-151h117v-46h-117v-281q0 -51 16 -69t62 -18q10 0 18 1t15 2z" />
    <glyph glyph-name="uni1E6D" unicode="&#x1e6d;" horiz-adv-x="302" 
d="M273 35l-8 -47q-7 -1 -16 -1.5t-17 -0.5q-72 0 -106 32t-34 101v281h-65v46h65v134l70 17v-151h117v-46h-117v-281q0 -51 16 -69t62 -18q10 0 18 1t15 2zM205 -145h-84v77h84v-77z" />
    <glyph glyph-name="u" unicode="u" horiz-adv-x="525" 
d="M73 446h71v-307q0 -58 26.5 -82.5t88.5 -24.5q32 0 59.5 5t60.5 18v391h71v-400q-51 -32 -99 -46t-111 -14q-90 0 -128.5 38.5t-38.5 129.5v292z" />
    <glyph glyph-name="uacute" unicode="&#xfa;" horiz-adv-x="525" 
d="M289 531h-57l85 107h91zM73 446h71v-307q0 -58 26.5 -82.5t88.5 -24.5q32 0 59.5 5t60.5 18v391h71v-400q-51 -32 -99 -46t-111 -14q-90 0 -128.5 38.5t-38.5 129.5v292z" />
    <glyph glyph-name="ubreve" unicode="&#x16d;" horiz-adv-x="525" 
d="M393 638q0 -27 -11 -48t-29.5 -34.5t-42 -21t-47.5 -7.5q-51 0 -92 27t-41 84h60q0 -37 22.5 -53.5t49.5 -16.5q30 0 51 17.5t21 52.5h59zM73 446h71v-307q0 -58 26.5 -82.5t88.5 -24.5q32 0 59.5 5t60.5 18v391h71v-400q-51 -32 -99 -46t-111 -14q-90 0 -128.5 38.5
t-38.5 129.5v292z" />
    <glyph glyph-name="uni01D4" unicode="&#x1d4;" horiz-adv-x="525" 
d="M393 638l-90 -107h-85l-89 107h60l72 -65l72 65h60zM73 446h71v-307q0 -58 26.5 -82.5t88.5 -24.5q32 0 59.5 5t60.5 18v391h71v-400q-51 -32 -99 -46t-111 -14q-90 0 -128.5 38.5t-38.5 129.5v292z" />
    <glyph glyph-name="ucircumflex" unicode="&#xfb;" horiz-adv-x="525" 
d="M393 531h-59l-73 66l-72 -66h-59l89 107h85zM73 446h71v-307q0 -58 26.5 -82.5t88.5 -24.5q32 0 59.5 5t60.5 18v391h71v-400q-51 -32 -99 -46t-111 -14q-90 0 -128.5 38.5t-38.5 129.5v292z" />
    <glyph glyph-name="udieresis" unicode="&#xfc;" horiz-adv-x="525" 
d="M223 628v-97h-70v97h70zM369 628v-97h-70v97h70zM73 446h71v-307q0 -58 26.5 -82.5t88.5 -24.5q32 0 59.5 5t60.5 18v391h71v-400q-51 -32 -99 -46t-111 -14q-90 0 -128.5 38.5t-38.5 129.5v292z" />
    <glyph glyph-name="uni01D8" unicode="&#x1d8;" horiz-adv-x="525" 
d="M270 711h-58l85 109h92zM223 628v-97h-70v97h70zM369 628v-97h-70v97h70zM73 446h71v-307q0 -58 26.5 -82.5t88.5 -24.5q32 0 59.5 5t60.5 18v391h71v-400q-51 -32 -99 -46t-111 -14q-90 0 -128.5 38.5t-38.5 129.5v292z" />
    <glyph glyph-name="uni01DA" unicode="&#x1da;" horiz-adv-x="525" 
d="M392 820l-89 -109h-85l-89 109h59l73 -68l72 68h59zM223 628v-97h-70v97h70zM369 628v-97h-70v97h70zM73 446h71v-307q0 -58 26.5 -82.5t88.5 -24.5q32 0 59.5 5t60.5 18v391h71v-400q-51 -32 -99 -46t-111 -14q-90 0 -128.5 38.5t-38.5 129.5v292z" />
    <glyph glyph-name="uni01DC" unicode="&#x1dc;" horiz-adv-x="525" 
d="M247 711l-119 109h92l85 -109h-58zM223 628v-97h-70v97h70zM369 628v-97h-70v97h70zM73 446h71v-307q0 -58 26.5 -82.5t88.5 -24.5q32 0 59.5 5t60.5 18v391h71v-400q-51 -32 -99 -46t-111 -14q-90 0 -128.5 38.5t-38.5 129.5v292z" />
    <glyph glyph-name="uni01D6" unicode="&#x1d6;" horiz-adv-x="525" 
d="M125 711v57h272v-57h-272zM223 628v-97h-70v97h70zM369 628v-97h-70v97h70zM73 446h71v-307q0 -58 26.5 -82.5t88.5 -24.5q32 0 59.5 5t60.5 18v391h71v-400q-51 -32 -99 -46t-111 -14q-90 0 -128.5 38.5t-38.5 129.5v292z" />
    <glyph glyph-name="uni1EE5" unicode="&#x1ee5;" horiz-adv-x="525" 
d="M73 446h71v-307q0 -58 26.5 -82.5t88.5 -24.5q32 0 59.5 5t60.5 18v391h71v-400q-51 -32 -99 -46t-111 -14q-90 0 -128.5 38.5t-38.5 129.5v292zM303 -145h-84v77h84v-77z" />
    <glyph glyph-name="ugrave" unicode="&#xf9;" horiz-adv-x="525" 
d="M264 531l-119 107h91l85 -107h-57zM73 446h71v-307q0 -58 26.5 -82.5t88.5 -24.5q32 0 59.5 5t60.5 18v391h71v-400q-51 -32 -99 -46t-111 -14q-90 0 -128.5 38.5t-38.5 129.5v292z" />
    <glyph glyph-name="uhungarumlaut" unicode="&#x171;" horiz-adv-x="525" 
d="M211 531h-57l85 107h91zM342 531h-57l85 107h91zM73 446h71v-307q0 -58 26.5 -82.5t88.5 -24.5q32 0 59.5 5t60.5 18v391h71v-400q-51 -32 -99 -46t-111 -14q-90 0 -128.5 38.5t-38.5 129.5v292z" />
    <glyph glyph-name="umacron" unicode="&#x16b;" horiz-adv-x="525" 
d="M125 571v57h272v-57h-272zM73 446h71v-307q0 -58 26.5 -82.5t88.5 -24.5q32 0 59.5 5t60.5 18v391h71v-400q-51 -32 -99 -46t-111 -14q-90 0 -128.5 38.5t-38.5 129.5v292z" />
    <glyph glyph-name="uogonek" unicode="&#x173;" horiz-adv-x="525" 
d="M73 446h71v-307q0 -58 26.5 -82.5t88.5 -24.5q32 0 59.5 5t60.5 18v391h71v-400q-19 -13 -38 -22.5t-38 -16.5q-60 -50 -79 -75.5t-19 -53.5q0 -23 24 -40.5t55 -17.5h84v-31q-22 -4 -54 -8t-54 -4q-46 0 -80.5 28.5t-34.5 65.5q0 33 16 61t50 56q-10 -1 -20.5 -1.5
t-21.5 -0.5q-90 0 -128.5 38.5t-38.5 129.5v292z" />
    <glyph glyph-name="uring" unicode="&#x16f;" horiz-adv-x="525" 
d="M373 614q1 -4 2 -9t1 -10q0 -34 -28.5 -51.5t-85.5 -17.5t-86 17.5t-29 51.5t29 51.5t86 17.5q49 0 77 -12.5t34 -37.5zM303 595q0 25 -9.5 34.5t-31.5 9.5q-24 0 -33.5 -9.5t-9.5 -34.5t9.5 -34.5t33.5 -9.5q22 0 31.5 9.5t9.5 34.5zM73 446h71v-307q0 -58 26.5 -82.5
t88.5 -24.5q32 0 59.5 5t60.5 18v391h71v-400q-51 -32 -99 -46t-111 -14q-90 0 -128.5 38.5t-38.5 129.5v292z" />
    <glyph glyph-name="utilde" unicode="&#x169;" horiz-adv-x="525" 
d="M384 616l27 -26q-22 -33 -42.5 -46t-48.5 -13q-20 0 -34.5 5t-27.5 11q-14 7 -30.5 12.5t-32.5 5.5q-18 0 -30.5 -7t-26.5 -25l-27 26q22 33 42 46t48 13q20 0 38.5 -6t31.5 -13q12 -6 25.5 -10t29.5 -4q18 0 31 7t27 24zM73 446h71v-307q0 -58 26.5 -82.5t88.5 -24.5
q32 0 59.5 5t60.5 18v391h71v-400q-51 -32 -99 -46t-111 -14q-90 0 -128.5 38.5t-38.5 129.5v292z" />
    <glyph glyph-name="v" unicode="v" horiz-adv-x="468" 
d="M392 446h50l-173 -446h-69l-175 446h78l144 -375z" />
    <glyph glyph-name="w" unicode="w" horiz-adv-x="721" 
d="M646 446h48l-144 -446h-64l-126 382l-123 -382h-64l-148 446h78l115 -363l114 363h84l115 -363z" />
    <glyph glyph-name="wacute" unicode="&#x1e83;" horiz-adv-x="721" 
d="M398 531h-57l85 107h91zM646 446h48l-144 -446h-64l-126 382l-123 -382h-64l-148 446h78l115 -363l114 363h84l115 -363z" />
    <glyph glyph-name="wcircumflex" unicode="&#x175;" horiz-adv-x="721" 
d="M506 531h-59l-73 66l-72 -66h-59l89 107h85zM646 446h48l-144 -446h-64l-126 382l-123 -382h-64l-148 446h78l115 -363l114 363h84l115 -363z" />
    <glyph glyph-name="wdieresis" unicode="&#x1e85;" horiz-adv-x="721" 
d="M336 628v-97h-70v97h70zM482 628v-97h-70v97h70zM646 446h48l-144 -446h-64l-126 382l-123 -382h-64l-148 446h78l115 -363l114 363h84l115 -363z" />
    <glyph glyph-name="wgrave" unicode="&#x1e81;" horiz-adv-x="721" 
d="M356 531l-119 107h91l85 -107h-57zM646 446h48l-144 -446h-64l-126 382l-123 -382h-64l-148 446h78l115 -363l114 363h84l115 -363z" />
    <glyph glyph-name="x" unicode="x" horiz-adv-x="467" 
d="M453 0h-86l-140 190l-155 -190h-62l187 229l-161 217h86l121 -160l132 160h62l-164 -201z" />
    <glyph glyph-name="y" unicode="y" 
d="M192 43l-166 403h77l127 -313l131 313h56l-276 -655h-54z" />
    <glyph glyph-name="yacute" unicode="&#xfd;" 
d="M249 531h-57l85 107h91zM192 43l-166 403h77l127 -313l131 313h56l-276 -655h-54z" />
    <glyph glyph-name="ycircumflex" unicode="&#x177;" 
d="M363 531h-59l-73 66l-72 -66h-59l89 107h85zM192 43l-166 403h77l127 -313l131 313h56l-276 -655h-54z" />
    <glyph glyph-name="ydieresis" unicode="&#xff;" 
d="M191 628v-97h-70v97h70zM337 628v-97h-70v97h70zM192 43l-166 403h77l127 -313l131 313h56l-276 -655h-54z" />
    <glyph glyph-name="ygrave" unicode="&#x1ef3;" 
d="M211 533l-119 107h91l85 -107h-57zM192 43l-166 403h77l127 -313l131 313h56l-276 -655h-54z" />
    <glyph glyph-name="uni0233" unicode="&#x233;" 
d="M91 571v57h272v-57h-272zM192 43l-166 403h77l127 -313l131 313h56l-276 -655h-54z" />
    <glyph glyph-name="uni1EF9" unicode="&#x1ef9;" 
d="M348 616l27 -26q-22 -33 -42.5 -46t-48.5 -13q-20 0 -34.5 5t-27.5 11q-14 7 -30.5 12.5t-32.5 5.5q-18 0 -30.5 -7t-26.5 -25l-27 26q22 33 42 46t48 13q20 0 38.5 -6t31.5 -13q12 -6 25.5 -10t29.5 -4q18 0 31 7t27 24zM192 43l-166 403h77l127 -313l131 313h56
l-276 -655h-54z" />
    <glyph glyph-name="z" unicode="z" horiz-adv-x="463" 
d="M419 388l-302 -342h309v-46h-396v48l313 352h-288v46h364v-58z" />
    <glyph glyph-name="zacute" unicode="&#x17a;" horiz-adv-x="463" 
d="M248 531h-57l85 107h91zM419 388l-302 -342h309v-46h-396v48l313 352h-288v46h364v-58z" />
    <glyph glyph-name="zcaron" unicode="&#x17e;" horiz-adv-x="463" 
d="M373 638l-90 -107h-85l-89 107h60l72 -65l72 65h60zM419 388l-302 -342h309v-46h-396v48l313 352h-288v46h364v-58z" />
    <glyph glyph-name="zdotaccent" unicode="&#x17c;" horiz-adv-x="463" 
d="M269 628v-97h-71v97h71zM419 388l-302 -342h309v-46h-396v48l313 352h-288v46h364v-58z" />
    <glyph glyph-name="uni1E93" unicode="&#x1e93;" horiz-adv-x="463" 
d="M419 388l-302 -342h309v-46h-396v48l313 352h-288v46h364v-58zM275 -145h-84v77h84v-77z" />
    <glyph glyph-name="ordfeminine" unicode="&#xaa;" horiz-adv-x="356" 
d="M284 388q-24 -11 -50 -18.5t-54 -7.5q-60 0 -90 21.5t-30 64.5q0 46 43 66t140 20v13q0 36 -16.5 51.5t-54.5 15.5q-21 0 -40 -2.5t-41 -9.5l-7 23q25 9 48.5 13t50.5 4q54 0 77.5 -23t23.5 -76v-155zM243 507q-16 0 -33.5 -1t-36.5 -2q-37 -3 -53.5 -17t-16.5 -43
q0 -28 17.5 -41.5t53.5 -13.5q19 0 39 4.5t30 8.5v105zM72 315h212v-36h-212v36z" />
    <glyph glyph-name="ordmasculine" unicode="&#xba;" horiz-adv-x="380" 
d="M190 362q-59 0 -92 37t-33 103t33 103t92 37t92 -37t33 -103t-33 -103t-92 -37zM272 502q0 53 -21.5 83t-60.5 30q-40 0 -62 -30t-22 -83t22 -83t62 -30q39 0 60.5 30t21.5 83zM74 279v36h231v-36h-231z" />
    <glyph glyph-name="uni0410" unicode="&#x410;" horiz-adv-x="592" 
d="M491 0l-63 177h-291l-64 -177h-50l227 628h93l226 -628h-78zM153 223h258l-128 361z" />
    <glyph glyph-name="uni0411" unicode="&#x411;" horiz-adv-x="554" 
d="M455 628v-46h-292v-192h110q53 0 98 -14.5t77.5 -40.5t50.5 -61.5t18 -77.5q0 -99 -70 -147.5t-214 -48.5h-144v628h366zM163 46h96q89 0 132.5 39t43.5 119q0 61 -47 100.5t-120 39.5h-105v-298z" />
    <glyph glyph-name="uni0412" unicode="&#x412;" horiz-adv-x="628" 
d="M388 353q86 -6 141 -50t55 -107q0 -99 -93 -147.5t-284 -48.5h-118v628h216q110 0 167.5 -35.5t57.5 -104.5q0 -49 -36.5 -83.5t-105.5 -51.5zM300 582h-137v-221q143 0 217 32.5t74 94.5q0 46 -39.5 70t-114.5 24zM163 46h71q142 0 205 37t63 121q0 51 -47.5 84
t-122.5 33q-40 0 -83 -3t-86 -8v-264z" />
    <glyph glyph-name="uni0413" unicode="&#x413;" horiz-adv-x="483" 
d="M89 0v628h371v-46h-297v-582h-74z" />
    <glyph glyph-name="uni0403" unicode="&#x403;" horiz-adv-x="483" 
d="M279 711h-58l85 109h92zM89 0v628h371v-46h-297v-582h-74z" />
    <glyph glyph-name="uni0490" unicode="&#x490;" horiz-adv-x="482" 
d="M385 745h74v-163h-296v-582h-74v628h296v117z" />
    <glyph glyph-name="uni0414" unicode="&#x414;" horiz-adv-x="610" 
d="M15 -128v174q44 13 73 45.5t32 104.5l20 432h364v-582h69v-174h-74v128h-410v-128h-74zM212 582l-18 -386q-2 -50 -16 -87.5t-38 -62.5h290v536h-218z" />
    <glyph glyph-name="uni0415" unicode="&#x415;" horiz-adv-x="528" 
d="M479 628v-46h-316v-232h278v-47h-278v-257h316v-46h-390v628h390z" />
    <glyph glyph-name="uni0401" unicode="&#x401;" horiz-adv-x="528" 
d="M238 808v-97h-71v97h71zM401 808v-97h-71v97h71zM479 628v-46h-316v-232h278v-47h-278v-257h316v-46h-390v628h390z" />
    <glyph glyph-name="uni0416" unicode="&#x416;" horiz-adv-x="826" 
d="M-6 0l304 340l-247 288h86l219 -268h20v268h73v-268h21l218 268h87l-247 -288l304 -340h-98l-265 315h-20v-315h-73v315h-19l-266 -315h-97z" />
    <glyph glyph-name="uni0417" unicode="&#x417;" horiz-adv-x="535" 
d="M294 337q93 -10 144 -53t51 -111q0 -88 -67 -137.5t-186 -49.5q-55 0 -104.5 14t-97.5 39l14 42q47 -21 94 -35t94 -14q85 0 133 36.5t48 101.5q0 61 -64.5 99t-166.5 38h-71v46h71q87 0 142.5 39t55.5 96q0 51 -43 79.5t-121 28.5q-37 0 -77 -10t-75 -27l-16 39
q42 21 87 32.5t85 11.5q108 0 168.5 -41t60.5 -114q0 -57 -40 -94.5t-119 -55.5z" />
    <glyph glyph-name="uni0418" unicode="&#x418;" horiz-adv-x="674" 
d="M143 628v-554l357 554h85v-628h-54v553l-353 -553h-89v628h54z" />
    <glyph glyph-name="uni0419" unicode="&#x419;" horiz-adv-x="674" 
d="M469 820q0 -52 -35.5 -83t-94.5 -31q-60 0 -96.5 30.5t-36.5 83.5h60q0 -34 19.5 -54t52.5 -20t52.5 20t19.5 54h59zM143 628v-554l357 554h85v-628h-54v553l-353 -553h-89v628h54z" />
    <glyph glyph-name="uni041A" unicode="&#x41a;" horiz-adv-x="564" 
d="M570 0h-98l-290 315h-20v-315h-73v628h73v-268h21l244 268h86l-273 -288z" />
    <glyph glyph-name="uni040C" unicode="&#x40c;" horiz-adv-x="564" 
d="M311 711h-58l85 109h92zM570 0h-98l-290 315h-20v-315h-73v628h73v-268h21l244 268h86l-273 -288z" />
    <glyph glyph-name="uni041B" unicode="&#x41b;" horiz-adv-x="592" 
d="M219 582l-26 -386q-7 -96 -52.5 -146t-125.5 -50v46q51 15 75.5 49.5t28.5 100.5l27 432h357v-628h-73v582h-211z" />
    <glyph glyph-name="uni041C" unicode="&#x41c;" horiz-adv-x="775" 
d="M550 628h99l70 -628h-75l-61 577l-172 -577h-82l-161 572l-50 -572h-59l64 628h101l160 -550z" />
    <glyph glyph-name="uni041D" unicode="&#x41d;" horiz-adv-x="642" 
d="M479 350v278h74v-628h-74v304h-317v-304h-73v628h73v-278h317z" />
    <glyph glyph-name="uni041E" unicode="&#x41e;" horiz-adv-x="709" 
d="M354 642q145 0 224 -86t79 -243q0 -156 -79 -241.5t-224 -85.5q-144 0 -223 85.5t-79 241.5q0 157 79 243t223 86zM354 32q107 0 166 73.5t59 207.5q0 135 -59 209t-166 74t-165.5 -74t-58.5 -209q0 -134 58.5 -207.5t165.5 -73.5z" />
    <glyph glyph-name="uni041F" unicode="&#x41f;" horiz-adv-x="642" 
d="M163 0h-74v628h464v-628h-74v582h-316v-582z" />
    <glyph glyph-name="uni0420" unicode="&#x420;" horiz-adv-x="594" 
d="M561 464q0 -101 -86.5 -144.5t-288.5 -44.5h-23v-275h-74v628h236q119 0 177.5 -40.5t58.5 -123.5zM482 469q0 57 -41.5 85t-125.5 28h-152v-262q172 0 245.5 34t73.5 115z" />
    <glyph glyph-name="uni0421" unicode="&#x421;" horiz-adv-x="579" 
d="M538 63l11 -42q-46 -16 -93.5 -25.5t-102.5 -9.5q-148 0 -224 83.5t-76 245.5q0 161 76 244t224 83q49 0 98.5 -9.5t97.5 -26.5l-11 -43q-47 16 -93.5 24.5t-91.5 8.5q-110 0 -167.5 -71.5t-57.5 -209.5q0 -140 57.5 -211.5t167.5 -71.5q48 0 93 7.5t92 23.5z" />
    <glyph glyph-name="uni0422" unicode="&#x422;" horiz-adv-x="533" 
d="M511 628v-46h-208v-582h-74v582h-207v46h489z" />
    <glyph glyph-name="uni0423" unicode="&#x423;" horiz-adv-x="498" 
d="M292 137q-28 -69 -83.5 -110t-120.5 -41v54q38 0 73 20.5t60 55.5l-211 512h78l177 -419l175 419h55z" />
    <glyph glyph-name="uni040E" unicode="&#x40e;" horiz-adv-x="498" 
d="M400 820q0 -52 -35.5 -83t-94.5 -31q-60 0 -96.5 30.5t-36.5 83.5h60q0 -34 19.5 -54t52.5 -20t52.5 20t19.5 54h59zM292 137q-27 -66 -81 -108.5t-123 -42.5v54q42 0 76.5 22.5t56.5 53.5l-211 512h78l177 -419l175 419h55z" />
    <glyph glyph-name="uni0424" unicode="&#x424;" horiz-adv-x="686" 
d="M380 628v-57q123 -9 190 -76.5t67 -183.5q0 -110 -67 -174t-190 -72v-65h-74v65q-123 8 -190 72t-67 174q0 116 67 183.5t190 76.5v57h74zM559 311q0 93 -46.5 148t-132.5 65v-412q86 9 132.5 60.5t46.5 138.5zM127 311q0 -87 46.5 -138.5t132.5 -60.5v412
q-86 -10 -132.5 -65t-46.5 -148z" />
    <glyph glyph-name="uni0425" unicode="&#x425;" horiz-adv-x="552" 
d="M549 0h-88l-192 283l-201 -283h-66l240 326l-198 302h85l156 -242l162 242h62l-197 -284z" />
    <glyph glyph-name="uni0427" unicode="&#x427;" horiz-adv-x="580" 
d="M55 628h74v-240q0 -60 34 -84t117 -24q34 0 69 7.5t69 20.5v320h73v-628h-73v260q-37 -12 -77 -19t-80 -7q-113 0 -159.5 38.5t-46.5 131.5v224z" />
    <glyph glyph-name="uni0426" unicode="&#x426;" horiz-adv-x="661" 
d="M550 -128v128h-461v628h74v-582h316v582h74v-582h71v-174h-74z" />
    <glyph glyph-name="uni0428" unicode="&#x428;" horiz-adv-x="820" 
d="M163 628v-582h211v582h73v-582h210v582h74v-628h-642v628h74z" />
    <glyph glyph-name="uni0429" unicode="&#x429;" horiz-adv-x="839" 
d="M163 628v-582h211v582h73v-582h210v582h74v-582h72v-174h-74v128h-640v628h74z" />
    <glyph glyph-name="uni040F" unicode="&#x40f;" horiz-adv-x="642" 
d="M283 -128v128h-194v628h74v-582h316v582h74v-628h-196v-128h-74z" />
    <glyph glyph-name="uni042F" unicode="&#x42f;" horiz-adv-x="607" 
d="M53 473q0 76 60 115.5t176 39.5h229v-628h-74v288q-41 0 -83.5 2.5t-83.5 7.5l-163 -298h-91l183 312q-75 19 -114 60.5t-39 100.5zM131 479q0 -75 72.5 -110t229.5 -35h11v248h-146q-82 0 -124.5 -26t-42.5 -77z" />
    <glyph glyph-name="uni042C" unicode="&#x42c;" horiz-adv-x="549" 
d="M163 628v-238h110q53 0 97.5 -14.5t76 -40.5t49.5 -61.5t18 -77.5q0 -99 -69 -147.5t-212 -48.5h-144v628h74zM163 46h96q88 0 131 39t43 119q0 61 -46.5 100.5t-118.5 39.5h-105v-298z" />
    <glyph glyph-name="uni042A" unicode="&#x42a;" horiz-adv-x="593" 
d="M224 628v-238h109q99 -1 162 -55.5t63 -138.5q0 -99 -65.5 -147.5t-199.5 -48.5h-143v582h-131v46h205zM224 46h96q79 0 117.5 39t38.5 119q0 61 -41.5 100.5t-106.5 39.5h-104v-298z" />
    <glyph glyph-name="uni042B" unicode="&#x42b;" horiz-adv-x="761" 
d="M163 628v-238h110q53 0 97.5 -14.5t76 -40.5t49.5 -61.5t18 -77.5q0 -99 -69 -147.5t-212 -48.5h-144v628h74zM672 628v-628h-74v628h74zM163 46h96q88 0 131 39t43 119q0 61 -46.5 100.5t-118.5 39.5h-105v-298z" />
    <glyph glyph-name="uni0409" unicode="&#x409;" horiz-adv-x="860" 
d="M211 582l-18 -386q-4 -93 -50.5 -144.5t-127.5 -51.5v46q51 15 76 51t28 99l20 432h358v-238h84q53 0 98 -14.5t77.5 -40.5t50.5 -61.5t18 -77.5q0 -99 -70 -147.5t-214 -48.5h-118v582h-212zM576 344h-79v-298h70q89 0 132.5 39t43.5 119q0 61 -47 100.5t-120 39.5z" />
    <glyph glyph-name="uni040A" unicode="&#x40a;" horiz-adv-x="896" 
d="M535 628v-279h84q53 0 98 -13.5t77.5 -37t50.5 -56.5t18 -72q0 -86 -70 -128t-214 -42h-118v304h-299v-304h-73v628h73v-278h299v278h74zM535 46h70q89 0 132.5 32.5t43.5 99.5q0 54 -47 89.5t-120 35.5h-79v-257z" />
    <glyph glyph-name="uni0405" unicode="&#x405;" horiz-adv-x="545" 
d="M284 365q120 -23 173 -66t53 -117q0 -90 -68.5 -143t-184.5 -53q-56 0 -104 13.5t-98 38.5l14 42q54 -25 99.5 -36.5t88.5 -11.5q83 0 132 36.5t49 99.5q0 45 -39.5 76.5t-147.5 53.5q-110 22 -158 62t-48 104q0 79 64 128.5t165 49.5q44 0 90 -11.5t90 -36.5l-16 -39
q-35 18 -74.5 29.5t-85.5 11.5q-73 0 -118.5 -33.5t-45.5 -86.5q0 -45 39 -69.5t131 -41.5z" />
    <glyph glyph-name="uni0404" unicode="&#x404;" horiz-adv-x="580" 
d="M538 62l11 -42q-48 -18 -97.5 -26t-98.5 -8q-147 0 -223.5 84t-76.5 245q0 160 76.5 243.5t223.5 83.5q51 0 100 -8.5t96 -27.5l-11 -43q-43 16 -89 24.5t-96 8.5q-106 0 -163.5 -66t-61.5 -194h314v-50h-313q5 -125 62.5 -189.5t161.5 -64.5q49 0 94 7t91 23z" />
    <glyph glyph-name="uni042D" unicode="&#x42d;" horiz-adv-x="581" 
d="M43 62q46 -16 91 -23t94 -7q104 0 161.5 64.5t62.5 189.5h-314v50h315q-4 128 -61.5 194t-163.5 66q-50 0 -96 -8.5t-89 -24.5l-11 43q47 19 96 27.5t100 8.5q147 0 223.5 -83.5t76.5 -243.5q0 -161 -76.5 -245t-223.5 -84q-49 0 -98.5 8t-97.5 26z" />
    <glyph glyph-name="uni0406" unicode="&#x406;" horiz-adv-x="252" 
d="M163 628v-628h-74v628h74z" />
    <glyph glyph-name="uni0407" unicode="&#x407;" horiz-adv-x="252" 
d="M80 808v-97h-71v97h71zM243 808v-97h-71v97h71zM163 628v-628h-74v628h74z" />
    <glyph glyph-name="uni0408" unicode="&#x408;" horiz-adv-x="264" 
d="M101 628h74v-665q0 -69 -35.5 -102t-110.5 -33q-15 0 -32 3t-34 9l11 41q13 -4 25 -5.5t25 -1.5q46 0 61.5 20t15.5 69v665z" />
    <glyph glyph-name="uni040B" unicode="&#x40b;" horiz-adv-x="676" 
d="M621 0h-71v240q0 60 -32.5 84.5t-113.5 24.5q-28 0 -58.5 -7.5t-59.5 -20.5v-321h-74v582h-190v46h455v-46h-191v-211q32 11 65.5 17t70.5 6q110 0 154.5 -38t44.5 -132v-224z" />
    <glyph glyph-name="uni042E" unicode="&#x42e;" horiz-adv-x="944" 
d="M589 642q148 0 225.5 -84.5t77.5 -244.5q0 -159 -77.5 -243t-225.5 -84q-145 0 -222.5 82t-79.5 236h-125v-304h-73v628h73v-278h126q9 143 86 217.5t215 74.5zM589 32q110 0 167.5 72t57.5 209q0 138 -57.5 210.5t-167.5 72.5q-109 0 -166.5 -72.5t-57.5 -210.5
q0 -137 57.5 -209t166.5 -72z" />
    <glyph glyph-name="uni0402" unicode="&#x402;" horiz-adv-x="661" 
d="M388 0v43q73 0 116 42t43 114q0 69 -39.5 109.5t-106.5 40.5q-28 0 -60 -7.5t-57 -19.5v-322h-74v582h-188v46h444v-46h-182v-215q42 13 77 20t59 7q92 0 145.5 -52.5t53.5 -142.5q0 -92 -62.5 -145.5t-168.5 -53.5z" />
    <glyph glyph-name="uni0430" unicode="&#x430;" horiz-adv-x="487" 
d="M418 292v-263q-40 -19 -85.5 -31t-91.5 -12q-99 0 -152 38t-53 108q0 61 47.5 97.5t135.5 42.5q34 2 67 3.5t62 1.5v33q0 55 -28 79t-94 24q-28 0 -65 -5t-74 -15l-11 40q41 13 84 20t86 7q87 0 129.5 -41t42.5 -127zM348 53v180q-28 0 -58 -1.5t-61 -4.5
q-63 -5 -92 -29.5t-29 -71.5q0 -46 31.5 -70t91.5 -24q33 0 67 7t50 14z" />
    <glyph glyph-name="uni0431" unicode="&#x431;" horiz-adv-x="538" 
d="M490 230q0 -111 -56.5 -177.5t-152.5 -66.5q-102 0 -163.5 79.5t-61.5 213.5q0 174 69 274t189 100q41 0 77.5 5t70.5 19v-51q-36 -12 -73 -19t-75 -7q-66 0 -108 -49t-57 -144q33 25 70.5 39t75.5 14q93 0 144 -60.5t51 -169.5zM140 283q0 -119 37 -185t104 -66
q63 0 97.5 53t34.5 149q0 81 -34 126.5t-95 45.5q-42 0 -78 -15.5t-64 -44.5q-1 -15 -1.5 -31t-0.5 -32z" />
    <glyph glyph-name="uni0432" unicode="&#x432;" horiz-adv-x="471" 
d="M290 249q63 -4 100.5 -34t37.5 -76q0 -72 -64.5 -105.5t-201.5 -33.5h-84v446h153q78 0 119.5 -26t41.5 -75q0 -35 -26 -59.5t-76 -36.5zM227 401h-78v-145q82 0 125.5 23t43.5 66q0 28 -23.5 42t-67.5 14zM149 46h31q90 0 132 24t42 75q0 31 -28 50t-76 19
q-24 0 -49.5 -2t-51.5 -5v-161z" />
    <glyph glyph-name="uni0433" unicode="&#x433;" horiz-adv-x="352" 
d="M347 448l-21 -53q-19 10 -43 14.5t-47 4.5q-25 0 -45 -5.5t-44 -18.5v-390h-69v407q47 29 92 41t87 12q24 0 47 -3t43 -9z" />
    <glyph glyph-name="uni0453" unicode="&#x453;" horiz-adv-x="361" 
d="M218 531h-57l85 107h91zM347 448l-21 -53q-19 10 -43 14.5t-47 4.5q-25 0 -45 -5.5t-44 -18.5v-390h-69v407q47 29 92 41t87 12q24 0 47 -3t43 -9z" />
    <glyph glyph-name="uni0491" unicode="&#x491;" horiz-adv-x="387" 
d="M292 562h71v-162h-215v-400h-70v446h214v116z" />
    <glyph glyph-name="uni0434" unicode="&#x434;" horiz-adv-x="525" 
d="M18 -116v162q38 10 61.5 44t28.5 106l18 250h305v-400h69v-162h-71v116h-340v-116h-71zM194 401l-16 -205q-4 -50 -16.5 -87.5t-33.5 -62.5h231v355h-165z" />
    <glyph glyph-name="uni0435" unicode="&#x435;" horiz-adv-x="504" 
d="M435 207h-316q1 -81 39.5 -128t104.5 -47q37 0 77.5 8.5t74.5 23.5l14 -45q-37 -16 -81.5 -24.5t-84.5 -8.5q-100 0 -157.5 63.5t-57.5 173.5t55.5 173.5t152.5 63.5q96 0 151.5 -59.5t55.5 -163.5q0 -14 -7.5 -22t-20.5 -8zM119 253h274q0 75 -36.5 118t-100.5 43
q-62 0 -99 -43t-38 -118z" />
    <glyph glyph-name="uni0451" unicode="&#x451;" horiz-adv-x="504" 
d="M217 628v-97h-70v97h70zM363 628v-97h-70v97h70zM435 207h-316q1 -83 39.5 -129t104.5 -46q54 0 97 13.5t55 18.5l14 -45q-13 -5 -60 -19t-106 -14q-101 0 -158 62.5t-57 174.5t54.5 174.5t153.5 62.5q98 0 152.5 -59t54.5 -164q0 -14 -7.5 -22t-20.5 -8zM119 253h274
q0 76 -36 118.5t-101 42.5q-63 0 -99.5 -42.5t-37.5 -118.5z" />
    <glyph glyph-name="uni0436" unicode="&#x436;" horiz-adv-x="687" 
d="M228 246l-196 200h81l171 -181h25v181h69v-181h25l171 181h82l-197 -200l221 -246h-96l-181 219h-25v-219h-69v219h-25l-181 -219h-96z" />
    <glyph glyph-name="uni0437" unicode="&#x437;" horiz-adv-x="407" 
d="M220 239q68 -7 105.5 -37.5t37.5 -78.5q0 -65 -49 -101t-137 -36q-40 0 -77 10t-71 29l14 42q33 -15 66.5 -25t67.5 -10q54 0 84.5 23t30.5 66t-39.5 67.5t-111.5 24.5h-52v47h52q57 0 91.5 25t34.5 67q0 28 -28 45t-74 17q-25 0 -54 -7.5t-52 -19.5l-17 41q29 14 64 23
t63 9q77 0 123 -30t46 -79q0 -40 -32 -70.5t-86 -41.5z" />
    <glyph glyph-name="uni0438" unicode="&#x438;" horiz-adv-x="523" 
d="M131 446v-372l238 372h76v-446h-54v371l-233 -371h-80v446h53z" />
    <glyph glyph-name="uni0439" unicode="&#x439;" horiz-adv-x="523" 
d="M402 638q0 -27 -11 -48t-29.5 -34.5t-42 -21t-47.5 -7.5q-51 0 -92 27t-41 84h60q0 -37 22.5 -53.5t49.5 -16.5q30 0 51 17.5t21 52.5h59zM131 446v-372l238 372h76v-446h-54v371l-233 -371h-80v446h53z" />
    <glyph glyph-name="uni043A" unicode="&#x43a;" horiz-adv-x="454" 
d="M229 246l221 -246h-96l-181 219h-25v-219h-70v446h70v-181h25l170 181h82z" />
    <glyph glyph-name="uni045C" unicode="&#x45c;" horiz-adv-x="454" 
d="M261 531h-57l85 107h91zM229 246l221 -246h-96l-181 219h-25v-219h-70v446h70v-181h25l170 181h82z" />
    <glyph glyph-name="uni043B" unicode="&#x43b;" horiz-adv-x="496" 
d="M204 400l-23 -204q-11 -100 -50 -148t-108 -48v46q38 11 58.5 46.5t27.5 103.5l27 250h282v-446h-72v400h-142z" />
    <glyph glyph-name="uni043C" unicode="&#x43c;" horiz-adv-x="585" 
d="M370 446h99l70 -446h-72l-61 395l-78 -395h-83l-88 389l-53 -389h-56l65 446h101l84 -369z" />
    <glyph glyph-name="uni043D" unicode="&#x43d;" horiz-adv-x="520" 
d="M371 258v188h71v-446h-71v213h-222v-213h-71v446h71v-188h222z" />
    <glyph glyph-name="uni043E" unicode="&#x43e;" horiz-adv-x="522" 
d="M474 222q0 -112 -56 -174t-157 -62t-157 62t-56 174q0 113 56 175.5t157 62.5t157 -62.5t56 -175.5zM403 222q0 91 -37.5 141.5t-104.5 50.5t-104.5 -50.5t-37.5 -141.5q0 -90 37.5 -140t104.5 -50t104.5 50t37.5 140z" />
    <glyph glyph-name="uni043F" unicode="&#x43f;" horiz-adv-x="519" 
d="M370 0v400h-221v-400h-71v446h363v-446h-71z" />
    <glyph glyph-name="uni0440" unicode="&#x440;" horiz-adv-x="531" 
d="M482 222q0 -120 -50 -178t-154 -58q-29 0 -61.5 6t-70.5 19v-220h-71v616q46 29 95 41t103 12q106 0 157.5 -58.5t51.5 -179.5zM412 223q0 97 -38 144t-116 47q-34 0 -59.5 -8t-52.5 -24v-323q36 -13 63.5 -20t48.5 -7q78 0 116 47t38 144z" />
    <glyph glyph-name="uni0441" unicode="&#x441;" horiz-adv-x="438" 
d="M49 222q0 121 50 179.5t154 58.5q36 0 73.5 -7t78.5 -20l-10 -39q-37 10 -66.5 15t-54.5 5q-78 0 -116 -47t-38 -144t38 -144t116 -47q25 0 54.5 5t66.5 15l10 -39q-41 -13 -78.5 -20t-73.5 -7q-104 0 -154 58.5t-50 177.5z" />
    <glyph glyph-name="uni0442" unicode="&#x442;" horiz-adv-x="400" 
d="M379 446v-46h-144v-400h-71v400h-143v46h358z" />
    <glyph glyph-name="uni0443" unicode="&#x443;" 
d="M192 43l-166 403h77l127 -313l131 313h56l-276 -655h-54z" />
    <glyph glyph-name="uni045E" unicode="&#x45e;" 
d="M358 638q0 -27 -11 -48t-29.5 -34.5t-42 -21t-47.5 -7.5q-51 0 -92 27t-41 84h60q0 -37 22.5 -53.5t49.5 -16.5q30 0 51 17.5t21 52.5h59zM192 43l-166 403h77l127 -313l131 313h56l-276 -655h-54z" />
    <glyph glyph-name="uni0444" unicode="&#x444;" horiz-adv-x="640" 
d="M356 -162h-71v149q-113 8 -175.5 70t-62.5 165q0 104 62.5 166t175.5 71v141l71 17v-158q112 -9 174.5 -71t62.5 -166q0 -103 -62.5 -164.5t-174.5 -70.5v-149zM119 222q0 -81 44 -130t122 -58v378q-78 -9 -122 -59t-44 -131zM521 222q0 81 -43.5 130.5t-121.5 59.5v-378
q78 9 121.5 58t43.5 130z" />
    <glyph glyph-name="uni0445" unicode="&#x445;" horiz-adv-x="467" 
d="M453 0h-86l-140 190l-155 -190h-62l187 229l-161 217h86l121 -160l132 160h62l-164 -201z" />
    <glyph glyph-name="uni0447" unicode="&#x447;" horiz-adv-x="466" 
d="M44 446h70v-129q0 -57 27.5 -83t87.5 -26q24 0 45.5 4t43.5 11v223h70v-446h-70v177q-30 -8 -56 -11.5t-51 -3.5q-88 0 -127.5 40t-39.5 130v114z" />
    <glyph glyph-name="uni0446" unicode="&#x446;" horiz-adv-x="533" 
d="M436 -116v116h-358v446h70v-400h222v400h70v-400h67v-162h-71z" />
    <glyph glyph-name="uni0448" unicode="&#x448;" horiz-adv-x="701" 
d="M315 446h71v-400h166v400h71v-446h-545v446h71v-400h166v400z" />
    <glyph glyph-name="uni0449" unicode="&#x449;" horiz-adv-x="717" 
d="M315 446h71v-400h166v400h71v-400h68v-162h-71v116h-542v446h71v-400h166v400z" />
    <glyph glyph-name="uni045F" unicode="&#x45f;" horiz-adv-x="519" 
d="M225 -116v116h-147v446h71v-400h222v400h70v-446h-146v-116h-70z" />
    <glyph glyph-name="uni044F" unicode="&#x44f;" horiz-adv-x="492" 
d="M31 0l124 207q-52 16 -78.5 46t-26.5 73q0 60 46 90t138 30h180v-446h-71v189h-30q-27 0 -51.5 1.5t-45.5 4.5l-106 -195h-79zM121 326q0 -45 48.5 -67.5t144.5 -22.5h29v165h-68q-84 0 -119 -17t-35 -58z" />
    <glyph glyph-name="uni044C" unicode="&#x44c;" horiz-adv-x="431" 
d="M148 446v-146h67q80 0 131 -42t51 -107q0 -66 -58.5 -108.5t-151.5 -42.5h-109v446h70zM148 46h54q54 0 88 29.5t34 75.5q0 45 -32 74t-82 29h-62v-208z" />
    <glyph glyph-name="uni044A" unicode="&#x44a;" horiz-adv-x="481" 
d="M198 446v-146h66q80 0 131.5 -42t51.5 -107q0 -66 -59.5 -108.5t-152.5 -42.5h-108v401h-106v45h177zM198 46h53q54 0 88.5 29.5t34.5 75.5q0 45 -32.5 74t-82.5 29h-61v-208z" />
    <glyph glyph-name="uni044B" unicode="&#x44b;" horiz-adv-x="606" 
d="M149 446v-146h66q80 0 131.5 -42t51.5 -107q0 -66 -59.5 -108.5t-152.5 -42.5h-108v446h71zM528 446v-446h-70v446h70zM149 46h54q54 0 88 29.5t34 75.5q0 45 -32.5 74t-82.5 29h-61v-208z" />
    <glyph glyph-name="uni0459" unicode="&#x459;" horiz-adv-x="701" 
d="M204 400l-23 -204q-12 -102 -49.5 -149t-108.5 -47v46q38 11 58.5 46.5t27.5 103.5l28 250h281v-146h66q84 0 133.5 -40t49.5 -109t-57.5 -110t-154.5 -41h-108v400h-143zM479 254h-61v-208h54q56 0 89 28t33 77q0 47 -31 75t-84 28z" />
    <glyph glyph-name="uni045A" unicode="&#x45a;" horiz-adv-x="723" 
d="M371 273v173h71v-173h66q84 0 133.5 -36.5t49.5 -97.5q0 -63 -60.5 -101t-161.5 -38h-98v227h-222v-227h-71v446h71v-173h222zM503 227h-61v-181h53q57 0 90 25t33 68q0 40 -31 64t-84 24z" />
    <glyph glyph-name="uni0455" unicode="&#x455;" 
d="M198 -14q-38 0 -74 9t-73 23l11 40q35 -13 69 -19.5t68 -6.5q62 0 97.5 24t35.5 66q0 13 -3.5 24.5t-15.5 20.5t-34.5 17.5t-60.5 15.5q-54 10 -88 22.5t-53.5 28.5t-26.5 37t-7 48q0 60 48.5 92t138.5 32q37 0 72.5 -9.5t69.5 -22.5l-13 -40q-32 12 -62.5 19t-66.5 7
q-58 0 -89.5 -20.5t-31.5 -57.5q0 -22 21.5 -40.5t91.5 -31.5q54 -10 88.5 -21.5t54.5 -27t27.5 -37t7.5 -52.5q0 -66 -54 -103t-148 -37z" />
    <glyph glyph-name="uni0454" unicode="&#x454;" 
d="M49 222q0 119 51 178.5t153 59.5q36 0 74 -7t78 -20l-10 -39q-37 10 -66.5 15t-54.5 5q-71 0 -109.5 -41t-43.5 -122h212v-46h-213q4 -87 42.5 -130t111.5 -43q25 0 54.5 5t66.5 15l10 -39q-40 -13 -78 -20t-74 -7q-102 0 -153 58.5t-51 177.5z" />
    <glyph glyph-name="uni044D" unicode="&#x44d;" 
d="M106 204v46h213q-5 82 -43.5 123t-109.5 41q-24 0 -54.5 -5t-67.5 -15l-10 39q41 13 79 20t73 7q102 0 153 -59.5t51 -178.5t-51 -177.5t-153 -58.5q-35 0 -73 7t-79 20l10 39q37 -10 67.5 -15t54.5 -5q73 0 111.5 43t42.5 129h-214z" />
    <glyph glyph-name="uni0456" unicode="&#x456;" horiz-adv-x="227" 
d="M149 628v-97h-71v97h71zM149 446v-446h-71v446h71z" />
    <glyph glyph-name="uni0457" unicode="&#x457;" horiz-adv-x="227" 
d="M75 628v-97h-70v97h70zM221 628v-97h-70v97h70zM149 446v-446h-71v446h71z" />
    <glyph glyph-name="uni0458" unicode="&#x458;" horiz-adv-x="234" 
d="M156 628v-97h-70v97h70zM156 446v-535q0 -65 -30.5 -99.5t-97.5 -34.5h-8l-12 46h17q34 0 47.5 21t13.5 67v535h70z" />
    <glyph glyph-name="uni045B" unicode="&#x45b;" horiz-adv-x="527" 
d="M454 0h-70v305q0 59 -26 84t-89 25q-34 0 -61.5 -5.5t-59.5 -18.5v-390h-70v544h-48v46h48v38h70v-38h116v-46h-116v-110q35 14 67 20t72 6q91 0 129 -38.5t38 -131.5v-290z" />
    <glyph glyph-name="uni044E" unicode="&#x44e;" horiz-adv-x="704" 
d="M656 222q0 -113 -55.5 -174.5t-158.5 -61.5q-100 0 -155.5 58.5t-57.5 168.5h-81v-213h-70v446h70v-188h82q9 98 63.5 150t148.5 52q103 0 158.5 -61.5t55.5 -176.5zM584 222q0 93 -36.5 142.5t-105.5 49.5t-105.5 -49.5t-36.5 -142.5q0 -92 36.5 -141t105.5 -49
t105.5 49t36.5 141z" />
    <glyph glyph-name="uni0452" unicode="&#x452;" horiz-adv-x="527" 
d="M264 544h-116v-110q35 14 67 20t72 6q91 0 129 -38.5t38 -131.5v-338q0 -72 -34 -102.5t-94 -30.5h-8l-12 45h17q34 0 47.5 21t13.5 67v353q0 59 -26 84t-89 25q-34 0 -61.5 -5.5t-59.5 -18.5v-390h-70v544h-48v46h48v38h70v-38h116v-46z" />
    <glyph glyph-name="Alpha" unicode="&#x391;" horiz-adv-x="592" 
d="M491 0l-63 177h-291l-64 -177h-50l227 628h93l226 -628h-78zM153 223h258l-128 361z" />
    <glyph glyph-name="Beta" unicode="&#x392;" horiz-adv-x="628" 
d="M388 353q92 -7 144 -48.5t52 -108.5q0 -101 -91 -148.5t-286 -47.5h-118v628h216q105 0 165 -37t60 -103q0 -47 -38 -83t-104 -52zM300 582h-137v-221q147 0 219 31.5t72 95.5q0 48 -38 71t-116 23zM163 46h71q143 0 205.5 37t62.5 121q0 51 -47.5 84t-122.5 33
q-43 0 -85.5 -3t-83.5 -8v-264z" />
    <glyph glyph-name="Gamma" unicode="&#x393;" horiz-adv-x="475" 
d="M163 0h-74v628h363v-46h-289v-582z" />
    <glyph glyph-name="uni0394" unicode="&#x394;" horiz-adv-x="593" 
d="M482 46l-199 538l-200 -538h399zM33 0v46l217 582h94l216 -582v-46h-527z" />
    <glyph glyph-name="Epsilon" unicode="&#x395;" horiz-adv-x="528" 
d="M479 628v-46h-316v-232h278v-47h-278v-257h316v-46h-390v628h390z" />
    <glyph glyph-name="Zeta" unicode="&#x396;" horiz-adv-x="543" 
d="M512 628v-50l-408 -532h399v-46h-478v51l412 531h-381v46h456z" />
    <glyph glyph-name="Eta" unicode="&#x397;" horiz-adv-x="651" 
d="M488 350v278h74v-628h-74v304h-325v-304h-74v628h74v-278h325z" />
    <glyph glyph-name="Theta" unicode="&#x398;" horiz-adv-x="709" 
d="M354 642q148 0 225.5 -84.5t77.5 -244.5q0 -159 -77.5 -243t-225.5 -84q-147 0 -224.5 84t-77.5 243q0 160 77.5 244.5t224.5 84.5zM354 32q110 0 167.5 72t57.5 209q0 138 -57.5 210.5t-167.5 72.5q-109 0 -166.5 -72.5t-57.5 -210.5q0 -137 57.5 -209t166.5 -72z
M219 280v63h270v-63h-270z" />
    <glyph glyph-name="Iota" unicode="&#x399;" horiz-adv-x="252" 
d="M163 628v-628h-74v628h74z" />
    <glyph glyph-name="Kappa" unicode="&#x39a;" horiz-adv-x="564" 
d="M570 0h-98l-290 315h-20v-315h-73v628h73v-268h21l244 268h86l-273 -288z" />
    <glyph glyph-name="Lambda" unicode="&#x39b;" horiz-adv-x="593" 
d="M491 0l-208 584l-210 -584h-50l227 628h94l225 -628h-78z" />
    <glyph glyph-name="Mu" unicode="&#x39c;" horiz-adv-x="775" 
d="M550 628h99l70 -628h-75l-61 577l-172 -577h-82l-161 572l-50 -572h-59l64 628h101l160 -550z" />
    <glyph glyph-name="Nu" unicode="&#x39d;" horiz-adv-x="674" 
d="M530 628h55v-628h-90l-352 553v-553h-54v628h84l357 -554v554z" />
    <glyph glyph-name="Xi" unicode="&#x39e;" horiz-adv-x="571" 
d="M514 628v-71h-456v71h456zM108 292v71h357v-71h-357zM41 0v71h488v-71h-488z" />
    <glyph glyph-name="Omicron" unicode="&#x39f;" horiz-adv-x="709" 
d="M354 642q148 0 225.5 -84.5t77.5 -244.5q0 -159 -77.5 -243t-225.5 -84q-147 0 -224.5 84t-77.5 243q0 160 77.5 244.5t224.5 84.5zM354 32q110 0 167.5 72t57.5 209q0 138 -57.5 210.5t-167.5 72.5q-109 0 -166.5 -72.5t-57.5 -210.5q0 -137 57.5 -209t166.5 -72z" />
    <glyph glyph-name="Pi" unicode="&#x3a0;" horiz-adv-x="646" 
d="M163 0h-74v628h468v-628h-74v582h-320v-582z" />
    <glyph glyph-name="Rho" unicode="&#x3a1;" horiz-adv-x="594" 
d="M561 464q0 -101 -85.5 -144.5t-289.5 -44.5h-23v-275h-74v628h236q119 0 177.5 -40.5t58.5 -123.5zM482 469q0 57 -41.5 85t-125.5 28h-152v-262q173 0 246 34t73 115z" />
    <glyph glyph-name="Sigma" unicode="&#x3a3;" horiz-adv-x="507" 
d="M39 0v67l187 253l-187 262v46h424v-46h-335l173 -241l-203 -274h377v-67h-436z" />
    <glyph glyph-name="Tau" unicode="&#x3a4;" horiz-adv-x="533" 
d="M511 628v-46h-208v-582h-74v582h-207v46h489z" />
    <glyph glyph-name="Upsilon" unicode="&#x3a5;" horiz-adv-x="530" 
d="M491 628l-189 -338v-290h-72v286l-196 342h84l156 -294l155 294h62z" />
    <glyph glyph-name="Phi" unicode="&#x3a6;" horiz-adv-x="734" 
d="M404 651v-65q136 -9 209 -79.5t73 -195.5q0 -124 -73 -194.5t-209 -79.5v-62h-74v62q-136 8 -209 79t-73 195q0 125 73 196t209 79v65h74zM125 311q0 -104 53 -163.5t152 -68.5v465q-99 -9 -152 -69t-53 -164zM609 311q0 104 -53 164t-152 69v-465q99 9 152 69t53 163z
" />
    <glyph glyph-name="Chi" unicode="&#x3a7;" horiz-adv-x="552" 
d="M549 0h-88l-192 283l-201 -283h-66l240 326l-201 302h88l156 -242l162 242h63l-198 -284z" />
    <glyph glyph-name="Psi" unicode="&#x3a8;" horiz-adv-x="688" 
d="M383 628v-431q87 8 132.5 54.5t45.5 127.5v249h74v-240q0 -105 -64.5 -165t-187.5 -68v-155h-74v155q-125 7 -190.5 67t-65.5 166v240h74v-249q0 -82 46.5 -129t135.5 -54v432h74z" />
    <glyph glyph-name="uni03A9" unicode="&#x3a9;" horiz-adv-x="683" 
d="M57 0v54h176q-80 35 -127.5 112t-47.5 173q0 68 20.5 124t58 95.5t90.5 61.5t116 22t115.5 -22t89 -61.5t57 -95.5t20.5 -124q0 -96 -47.5 -172.5t-125.5 -112.5h175v-54h-228v66q66 43 107.5 118.5t41.5 154.5q0 115 -56.5 186t-148.5 71q-93 0 -150 -71t-57 -186
q0 -42 11 -83t30.5 -76.5t47 -64.5t60.5 -48v-67h-228z" />
    <glyph glyph-name="Alphatonos" unicode="&#x386;" horiz-adv-x="616" 
d="M114 450h-59l23 178h97zM515 0l-63 177h-291l-64 -177h-50l227 628h93l226 -628h-78zM177 223h258l-128 361z" />
    <glyph glyph-name="Epsilontonos" unicode="&#x388;" horiz-adv-x="631" 
d="M80 450h-59l23 178h97zM582 628v-46h-316v-232h278v-47h-278v-257h316v-46h-390v628h390z" />
    <glyph glyph-name="Etatonos" unicode="&#x389;" horiz-adv-x="745" 
d="M80 450h-59l23 178h97zM582 350v278h74v-628h-74v304h-317v-304h-73v628h73v-278h317z" />
    <glyph glyph-name="Iotatonos" unicode="&#x38a;" horiz-adv-x="350" 
d="M80 450h-59l23 178h97zM261 628v-628h-74v628h74z" />
    <glyph glyph-name="Omicrontonos" unicode="&#x38c;" horiz-adv-x="793" 
d="M438 642q148 0 225.5 -84.5t77.5 -244.5q0 -159 -77.5 -243t-225.5 -84q-147 0 -224.5 84t-77.5 243q0 160 77.5 244.5t224.5 84.5zM83 450h-59l23 178h97zM438 32q110 0 167.5 72t57.5 209q0 138 -57.5 210.5t-167.5 72.5q-109 0 -166.5 -72.5t-57.5 -210.5
q0 -137 57.5 -209t166.5 -72z" />
    <glyph glyph-name="Upsilontonos" unicode="&#x38e;" horiz-adv-x="702" 
d="M105 450h-59l23 178h97zM662 628l-189 -338v-290h-72v286l-196 342h84l156 -294l155 294h62z" />
    <glyph glyph-name="Omegatonos" unicode="&#x38f;" horiz-adv-x="759" 
d="M133 0v54h176q-80 35 -127.5 112t-47.5 173q0 68 20.5 124t58 95.5t90.5 61.5t116 22t115.5 -22t89 -61.5t57 -95.5t20.5 -124q0 -96 -47.5 -172.5t-125.5 -112.5h175v-54h-228v66q66 43 107.5 118.5t41.5 154.5q0 115 -56.5 186t-148.5 71q-93 0 -150 -71t-57 -186
q0 -42 11 -83t30.5 -76.5t47 -64.5t60.5 -48v-67h-228zM86 450h-59l23 178h97z" />
    <glyph glyph-name="Iotadieresis" unicode="&#x3aa;" horiz-adv-x="252" 
d="M80 808v-97h-71v97h71zM243 808v-97h-71v97h71zM163 628v-628h-74v628h74z" />
    <glyph glyph-name="Upsilondieresis" unicode="&#x3ab;" horiz-adv-x="530" 
d="M233 808v-97h-71v97h71zM396 808v-97h-71v97h71zM491 628l-189 -338v-290h-72v286l-196 342h84l156 -294l155 294h62z" />
    <glyph glyph-name="uni03CF" unicode="&#x3cf;" horiz-adv-x="564" 
d="M570 0l-127 -162h-56l85 162l-290 315h-20v-315h-73v628h73v-268h21l244 268h86l-273 -288z" />
    <glyph glyph-name="alpha" unicode="&#x3b1;" horiz-adv-x="542" 
d="M452 446v-346q0 -25 13 -39.5t35 -14.5h17v-46h-36q-33 0 -57.5 12t-34.5 33q-26 -28 -61 -43.5t-77 -15.5q-45 0 -82.5 17.5t-64.5 49t-42 75.5t-15 96q0 104 57 170t147 66q34 0 69.5 -15t60.5 -40v41h71zM390 224q0 91 -36.5 140.5t-102.5 49.5q-63 0 -97.5 -49.5
t-34.5 -140.5q0 -92 34.5 -142t97.5 -50q66 0 102.5 50t36.5 142z" />
    <glyph glyph-name="beta" unicode="&#x3b2;" horiz-adv-x="535" 
d="M344 347q69 -4 107 -48t38 -118q0 -93 -46.5 -144t-130.5 -51q-51 0 -93.5 19.5t-69.5 54.5v-222h-71v606q0 94 47.5 146t132.5 52q90 0 139.5 -42t49.5 -117q0 -53 -27 -89t-76 -47zM149 469v-341q30 -46 70 -71t83 -25q54 0 84.5 40.5t30.5 113.5q0 60 -29.5 93
t-82.5 33q-13 0 -36 -1t-51 -3v46q75 7 116.5 43.5t41.5 93.5q0 50 -29.5 77.5t-83.5 27.5t-84 -33.5t-30 -93.5z" />
    <glyph glyph-name="gamma" unicode="&#x3b3;" horiz-adv-x="461" 
d="M184 26l-158 420h77l131 -373q62 83 91.5 166t29.5 174v16.5t-1 16.5h61q1 -13 2 -27.5t1 -27.5q0 -96 -39.5 -190t-123.5 -197v-166h-71v188z" />
    <glyph glyph-name="delta" unicode="&#x3b4;" horiz-adv-x="518" 
d="M472 198q0 -95 -58.5 -153.5t-154.5 -58.5t-154.5 58.5t-58.5 153.5q0 93 54 151.5t144 63.5v0q-51 0 -86.5 31t-35.5 82t43.5 83.5t113.5 32.5q35 0 75 -9t69 -23v-46q-29 14 -69 23t-75 9q-38 0 -62 -20t-24 -52q0 -30 25 -49.5t90 -40.5q73 -23 118.5 -88.5
t45.5 -147.5zM117 198q0 -74 39.5 -120t102.5 -46t102.5 46t39.5 120q0 75 -39.5 122t-102.5 47t-102.5 -47t-39.5 -122z" />
    <glyph glyph-name="epsilon" unicode="&#x3b5;" horiz-adv-x="437" 
d="M197 239q-21 4 -43.5 12t-41.5 21.5t-31 32.5t-12 46q0 52 46.5 80.5t132.5 28.5q40 0 78 -8t69 -24l-17 -41q-25 13 -57.5 20t-68.5 7q-54 0 -83 -17.5t-29 -48.5q0 -37 45 -62.5t111 -25.5h52v-47h-52q-85 0 -133 -24.5t-48 -67.5q0 -42 33 -65.5t92 -23.5q37 0 76 10
t78 25l14 -42q-40 -18 -82.5 -28.5t-85.5 -10.5q-93 0 -144.5 36.5t-51.5 100.5q0 48 40.5 78.5t112.5 37.5z" />
    <glyph glyph-name="zeta" unicode="&#x3b6;" horiz-adv-x="412" 
d="M385 628v-54q-150 -106 -208.5 -186t-58.5 -166q0 -46 22.5 -80t62.5 -48q66 -24 105.5 -40t59.5 -31t25.5 -33t5.5 -45t-12 -56t-31 -52h-49q9 19 14.5 44t5.5 49q0 18 -4.5 30.5t-20 23t-45.5 22t-81 28.5q-61 20 -95 69t-34 115q0 104 59 184.5t202 171.5h-230v54h307
z" />
    <glyph glyph-name="eta" unicode="&#x3b7;" horiz-adv-x="524" 
d="M451 -162h-69v467q0 58 -27 83.5t-89 25.5q-32 0 -61.5 -7.5t-59.5 -20.5v-386h-70v407q51 26 102 39.5t108 13.5q88 0 127 -40t39 -130v-452z" />
    <glyph glyph-name="theta" unicode="&#x3b8;" horiz-adv-x="540" 
d="M484 313q0 -161 -54.5 -244t-160.5 -83q-105 0 -159 83t-54 244q0 163 54 246t159 83q106 0 160.5 -83t54.5 -246zM269 596q-64 0 -98 -65t-38 -191h274q-4 126 -39 191t-99 65zM269 32q64 0 99 63t39 187h-274q4 -124 38.5 -187t97.5 -63z" />
    <glyph glyph-name="iota" unicode="&#x3b9;" horiz-adv-x="244" 
d="M149 446v-341q0 -25 13 -39t35 -14h16v-52h-35q-44 0 -72 26t-28 69v351h71z" />
    <glyph glyph-name="kappa" unicode="&#x3ba;" horiz-adv-x="472" 
d="M229 246l238 -246h-96l-198 219h-25v-219h-70v446h70v-181h25l124 140q25 28 60.5 38.5t73.5 10.5v-46q-28 0 -51.5 -13t-42.5 -32z" />
    <glyph glyph-name="lambda" unicode="&#x3bb;" horiz-adv-x="490" 
d="M390 0l-149 337l-154 -337h-66l187 410l-46 104q-17 38 -44.5 56.5t-68.5 18.5v53q71 0 115 -29t72 -91l232 -522h-78z" />
    <glyph glyph-name="uni03BC" unicode="&#x3bc;" horiz-adv-x="530" 
d="M78 -163v609h71v-307q0 -58 26.5 -82.5t88.5 -24.5q32 0 59.5 5t60.5 18v391h71v-400q-51 -32 -99 -46t-111 -14q-30 0 -53.5 4t-42.5 12v-165h-71z" />
    <glyph glyph-name="nu" unicode="&#x3bd;" horiz-adv-x="459" 
d="M340 446h59q5 -21 8 -42.5t3 -43.5q0 -82 -36 -173t-106 -187h-69l-174 446h77l144 -372q50 73 75.5 148.5t25.5 147.5q0 19 -1.5 38t-5.5 38z" />
    <glyph glyph-name="xi" unicode="&#x3be;" horiz-adv-x="414" 
d="M187 332q-55 11 -88 45.5t-33 81.5q0 43 31 73t86 43h-117v53h307v-53h-55q-83 0 -132 -33.5t-49 -89.5q0 -43 35 -69t94 -26h76v-46h-76q-30 0 -57.5 -7t-48 -21.5t-33 -37t-12.5 -52.5q0 -46 34.5 -69t78.5 -36q30 -9 58.5 -21.5t50 -29.5t34.5 -40.5t13 -54.5
q0 -30 -9 -56.5t-26 -47.5h-45q7 21 10.5 43t3.5 42q0 23 -10.5 39t-27.5 28t-39 21t-45 17q-29 10 -57 22.5t-49 29.5t-34 39.5t-13 53.5q0 64 40.5 108t103.5 51z" />
    <glyph glyph-name="omicron" unicode="&#x3bf;" horiz-adv-x="522" 
d="M474 222q0 -111 -56 -173.5t-157 -62.5t-157 62.5t-56 173.5q0 112 56 175t157 63t157 -63t56 -175zM403 222q0 90 -37.5 141t-104.5 51t-104.5 -51t-37.5 -141t37.5 -140t104.5 -50t104.5 50t37.5 140z" />
    <glyph glyph-name="pi" unicode="&#x3c0;" horiz-adv-x="554" 
d="M22 394v52h500v-52h-89v-295q0 -25 13.5 -39t35.5 -14h16v-46h-36q-46 0 -72.5 26t-26.5 69v299h-184v-394h-70v394h-87z" />
    <glyph glyph-name="rho" unicode="&#x3c1;" horiz-adv-x="526" 
d="M477 222q0 -111 -51.5 -173.5t-143.5 -62.5q-49 0 -84 17.5t-59 47.5v-213h-72v384q0 112 54 175t151 63t151 -63t54 -175zM406 222q0 90 -35.5 141t-98.5 51t-98 -51t-35 -141t37.5 -140t104.5 -50q59 0 92 50t33 140z" />
    <glyph glyph-name="uni03C2" unicode="&#x3c2;" horiz-adv-x="440" 
d="M338 -162h-46q16 25 25.5 49.5t9.5 44.5q0 19 -13.5 36t-34.5 32t-48.5 28.5t-54.5 25.5q-60 27 -95.5 77t-35.5 114q0 96 58.5 155.5t152.5 59.5q40 0 84.5 -11.5t76.5 -29.5l-14 -40q-35 16 -75.5 25.5t-71.5 9.5q-63 0 -102 -47t-39 -122q0 -62 34 -92.5t83 -51.5
q30 -13 59.5 -27.5t52.5 -32t37.5 -40.5t14.5 -53q0 -25 -15 -53.5t-43 -56.5z" />
    <glyph glyph-name="sigma" unicode="&#x3c3;" horiz-adv-x="552" 
d="M475 215q0 -110 -55.5 -169.5t-157.5 -59.5q-103 0 -158.5 59.5t-55.5 169.5q0 111 55.5 171t158.5 60h271v-53h-132q36 -25 55 -70.5t19 -107.5zM404 215q0 89 -36.5 137t-105.5 48t-105.5 -48t-36.5 -137q0 -88 36.5 -135.5t105.5 -47.5t105.5 47.5t36.5 135.5z" />
    <glyph glyph-name="tau" unicode="&#x3c4;" horiz-adv-x="408" 
d="M22 394v52h361v-52h-151v-295q0 -24 13 -38.5t35 -14.5h40v-46h-59q-45 0 -72.5 26t-27.5 69v299h-139z" />
    <glyph glyph-name="upsilon" unicode="&#x3c5;" horiz-adv-x="497" 
d="M73 446h70v-273q0 -71 27.5 -106t82.5 -35q64 0 96 52t32 157q0 59 -11 110t-33 95h62q22 -48 33 -99t11 -108q0 -127 -47 -190t-142 -63q-91 0 -136 42t-45 126v292z" />
    <glyph glyph-name="phi" unicode="&#x3c6;" horiz-adv-x="656" 
d="M609 224q0 -103 -65.5 -165.5t-179.5 -71.5v-149h-71v149q-115 9 -180.5 71.5t-65.5 165.5q0 102 65.5 164.5t180.5 70.5v104h71v-104q114 -9 179.5 -71t65.5 -164zM118 224q0 -81 46.5 -131t128.5 -59v378q-82 -9 -128.5 -58.5t-46.5 -129.5zM538 224q0 80 -46.5 129.5
t-127.5 58.5v-378q81 9 127.5 59t46.5 131z" />
    <glyph glyph-name="chi" unicode="&#x3c7;" horiz-adv-x="463" 
d="M98 -162h-70l167 297l-102 217q-13 26 -35.5 41.5t-48.5 15.5h-6v46h6q60 0 99 -23.5t63 -73.5l68 -145l131 233h71l-173 -294l100 -212q13 -29 31.5 -46t35.5 -17h9v-46h-9q-49 0 -81 18.5t-51 58.5l-79 166z" />
    <glyph glyph-name="psi" unicode="&#x3c8;" horiz-adv-x="634" 
d="M72 446h71v-243q0 -78 36.5 -120.5t109.5 -49.5v540h71v-540q80 10 120 62t40 146q0 58 -11 109.5t-33 95.5h62q22 -47 33 -99t11 -108q0 -117 -56 -180t-166 -72v-149h-71v148q-108 6 -162.5 55.5t-54.5 142.5v262z" />
    <glyph glyph-name="omega" unicode="&#x3c9;" horiz-adv-x="667" 
d="M298 173v138h70v-138q0 -70 21 -105.5t64 -35.5q46 0 69 45.5t23 136.5q0 65 -15 123t-46 109h71q31 -54 46 -113.5t15 -122.5q0 -112 -40.5 -168t-121.5 -56q-47 0 -77 22.5t-43 66.5q-13 -44 -43.5 -66.5t-77.5 -22.5q-81 0 -121.5 56t-40.5 168q0 63 15.5 122
t46.5 114h70q-31 -51 -46 -110t-15 -124q0 -90 23 -135t69 -45q42 0 63 35.5t21 105.5z" />
    <glyph glyph-name="iotatonos" unicode="&#x3af;" horiz-adv-x="244" 
d="M92 531l37 157h86l-69 -157h-54zM149 446v-341q0 -25 13 -39t35 -14h16v-52h-35q-44 0 -72 26t-28 69v351h71z" />
    <glyph glyph-name="iotadieresis" unicode="&#x3ca;" horiz-adv-x="244" 
d="M75 628v-97h-70v97h70zM221 628v-97h-70v97h70zM149 446v-341q0 -25 13 -39t35 -14h16v-52h-35q-44 0 -72 26t-28 69v351h71z" />
    <glyph glyph-name="iotadieresistonos" unicode="&#x390;" horiz-adv-x="244" 
d="M85 531l37 157h86l-70 -157h-53zM47 628v-97h-70v97h70zM290 628v-97h-70v97h70zM149 446v-341q0 -25 13 -39t35 -14h16v-52h-35q-44 0 -72 26t-28 69v351h71z" />
    <glyph glyph-name="upsilontonos" unicode="&#x3cd;" horiz-adv-x="497" 
d="M220 531l37 157h86l-69 -157h-54zM73 446h70v-273q0 -71 27.5 -106t82.5 -35q64 0 96 52t32 157q0 59 -11 110t-33 95h62q22 -48 33 -99t11 -108q0 -127 -47 -190t-142 -63q-91 0 -136 42t-45 126v292z" />
    <glyph glyph-name="upsilondieresis" unicode="&#x3cb;" horiz-adv-x="497" 
d="M198 628v-97h-70v97h70zM344 628v-97h-70v97h70zM73 446h70v-273q0 -71 27.5 -106t82.5 -35q64 0 96 52t32 157q0 59 -11 110t-33 95h62q22 -48 33 -99t11 -108q0 -127 -47 -190t-142 -63q-91 0 -136 42t-45 126v292z" />
    <glyph glyph-name="upsilondieresistonos" unicode="&#x3b0;" horiz-adv-x="497" 
d="M199 531l37 157h86l-70 -157h-53zM161 628v-97h-70v97h70zM404 628v-97h-70v97h70zM73 446h70v-273q0 -71 27.5 -106t82.5 -35q64 0 96 52t32 157q0 59 -11 110t-33 95h62q22 -48 33 -99t11 -108q0 -127 -47 -190t-142 -63q-91 0 -136 42t-45 126v292z" />
    <glyph glyph-name="omicrontonos" unicode="&#x3cc;" horiz-adv-x="522" 
d="M234 531l37 157h86l-69 -157h-54zM474 222q0 -111 -56 -173.5t-157 -62.5t-157 62.5t-56 173.5q0 112 56 175t157 63t157 -63t56 -175zM403 222q0 90 -37.5 141t-104.5 51t-104.5 -51t-37.5 -141t37.5 -140t104.5 -50t104.5 50t37.5 140z" />
    <glyph glyph-name="omegatonos" unicode="&#x3ce;" horiz-adv-x="667" 
d="M316 531l37 157h86l-69 -157h-54zM298 173v138h70v-138q0 -70 21 -105.5t64 -35.5q46 0 69 45.5t23 136.5q0 65 -15 123t-46 109h71q31 -54 46 -113.5t15 -122.5q0 -112 -40.5 -168t-121.5 -56q-47 0 -77 22.5t-43 66.5q-13 -44 -43.5 -66.5t-77.5 -22.5q-81 0 -121.5 56
t-40.5 168q0 63 15.5 122t46.5 114h70q-31 -51 -46 -110t-15 -124q0 -90 23 -135t69 -45q42 0 63 35.5t21 105.5z" />
    <glyph glyph-name="alphatonos" unicode="&#x3ac;" horiz-adv-x="542" 
d="M236 531l37 157h86l-69 -157h-54zM452 446v-346q0 -25 13 -39.5t35 -14.5h17v-46h-36q-33 0 -57.5 12t-34.5 33q-26 -28 -61 -43.5t-77 -15.5q-45 0 -82.5 17.5t-64.5 49t-42 75.5t-15 96q0 104 57 170t147 66q34 0 69.5 -15t60.5 -40v41h71zM390 224q0 91 -36.5 140.5
t-102.5 49.5q-63 0 -97.5 -49.5t-34.5 -140.5q0 -92 34.5 -142t97.5 -50q66 0 102.5 50t36.5 142z" />
    <glyph glyph-name="epsilontonos" unicode="&#x3ad;" horiz-adv-x="437" 
d="M200 531l37 157h86l-69 -157h-54zM197 239q-21 4 -43.5 12t-41.5 21.5t-31 32.5t-12 46q0 52 46.5 80.5t132.5 28.5q40 0 78 -8t69 -24l-17 -41q-25 13 -57.5 20t-68.5 7q-54 0 -83 -17.5t-29 -48.5q0 -37 45 -62.5t111 -25.5h52v-47h-52q-85 0 -133 -24.5t-48 -67.5
q0 -42 33 -65.5t92 -23.5q37 0 76 10t78 25l14 -42q-40 -18 -82.5 -28.5t-85.5 -10.5q-93 0 -144.5 36.5t-51.5 100.5q0 48 40.5 78.5t112.5 37.5z" />
    <glyph glyph-name="etatonos" unicode="&#x3ae;" horiz-adv-x="524" 
d="M235 531l37 157h86l-69 -157h-54zM451 -162h-69v467q0 58 -27 83.5t-89 25.5q-32 0 -61.5 -7.5t-59.5 -20.5v-386h-70v407q51 26 102 39.5t108 13.5q88 0 127 -40t39 -130v-452z" />
    <glyph glyph-name="uni03D7" unicode="&#x3d7;" horiz-adv-x="489" 
d="M44 451q17 5 30 7t30 2q50 0 71 -44.5t21 -156.5v-19t-1 -18l106 76q10 60 35 98.5t69 63.5l42 -34q-15 -41 -38 -76t-58 -71q-2 -15 -3.5 -30t-1.5 -31q0 -82 22.5 -119t80.5 -37q0 -117 -31 -170.5t-99 -53.5q-13 0 -29.5 3.5t-32.5 8.5v58q13 -4 27 -7t27 -3
q35 0 63.5 24t28.5 78q-37 0 -58.5 22.5t-32 58t-13.5 78.5t-3 84l-105 -78q-9 -60 -33.5 -102t-72.5 -73l-43 32q10 46 36 89t66 78q1 18 2 34.5t1 30.5q0 72 -20 102t-66 30h-8.5t-8.5 -1v66z" />
    <glyph glyph-name="zero" unicode="0" horiz-adv-x="669" 
d="M611 313q0 -157 -71.5 -242t-205.5 -85q-133 0 -204.5 85t-71.5 242q0 158 71.5 243.5t204.5 85.5q134 0 205.5 -85.5t71.5 -243.5zM334 32q96 0 148 73t52 208q0 136 -52 209.5t-148 73.5t-147.5 -73.5t-51.5 -209.5q0 -135 51.5 -208t147.5 -73z" />
    <glyph glyph-name="one" unicode="1" horiz-adv-x="330" 
d="M237 628v-628h-74v567h-142v34l169 27h47z" />
    <glyph glyph-name="two" unicode="2" horiz-adv-x="541" 
d="M487 490q0 -42 -17.5 -71t-30.5 -43l-324 -330h372v-46h-455v70l346 342q16 16 27 36.5t11 47.5q0 47 -43.5 73.5t-119.5 26.5q-37 0 -77 -10.5t-82 -30.5l-16 39q44 24 88.5 36t91.5 12q107 0 168 -40t61 -112z" />
    <glyph glyph-name="three" unicode="3" horiz-adv-x="549" 
d="M301 337q91 -10 143 -54t52 -110q0 -87 -67.5 -137t-185.5 -50q-55 0 -104.5 15.5t-97.5 37.5l14 42q48 -22 94 -35.5t94 -13.5q84 0 132.5 37t48.5 101q0 63 -62 100t-169 37h-71v46h71q92 0 145 36t53 99q0 50 -44 79t-120 29q-37 0 -77.5 -10t-74.5 -27l-16 39
q41 20 87 32t85 12q107 0 168 -41.5t61 -113.5q0 -53 -42.5 -93t-116.5 -57z" />
    <glyph glyph-name="four" unicode="4" horiz-adv-x="562" 
d="M446 187h81v-46h-81v-141h-74v141h-344v57l331 430h87v-441zM372 187v385l-294 -385h294z" />
    <glyph glyph-name="five" unicode="5" horiz-adv-x="561" 
d="M282 385q106 0 170 -50.5t64 -134.5q0 -97 -69 -155.5t-184 -58.5q-52 0 -102.5 14.5t-99.5 38.5l14 42q47 -19 93 -34t95 -15q80 0 128 42t48 112q0 72 -49.5 111.5t-140.5 39.5q-43 0 -90.5 -5.5t-92.5 -15.5l12 312h397v-46h-327l-6 -210q37 7 71.5 10t68.5 3z" />
    <glyph glyph-name="six" unicode="6" horiz-adv-x="597" 
d="M332 394q104 0 162 -50t58 -140q0 -99 -66.5 -158.5t-176.5 -59.5q-125 0 -187.5 73t-62.5 220q0 185 69.5 274t213.5 89q46 0 84.5 -9t78.5 -27l-11 -43q-38 16 -76.5 24.5t-75.5 8.5q-101 0 -150 -72t-49 -222q35 54 85 73t104 19zM309 32q75 0 120.5 43.5t45.5 115.5
q0 76 -38 112.5t-116 36.5q-33 0 -65 -8t-56.5 -26t-39.5 -46.5t-15 -68.5q0 -71 44 -115t120 -44z" />
    <glyph glyph-name="seven" unicode="7" horiz-adv-x="478" 
d="M452 628v-64l-308 -564h-81l323 582h-356v46h422z" />
    <glyph glyph-name="eight" unicode="8" horiz-adv-x="610" 
d="M387 352q84 -14 126.5 -61t42.5 -113q0 -88 -68 -140t-183 -52t-183 52t-68 140q0 71 45.5 116t123.5 58q-59 10 -96 41.5t-37 88.5q0 73 58 116.5t157 43.5t157 -43.5t58 -116.5q0 -53 -35 -85t-98 -45zM447 483q0 51 -38.5 81.5t-103.5 30.5t-103.5 -30.5t-38.5 -81.5
q0 -49 38.5 -78.5t103.5 -29.5t103.5 29.5t38.5 78.5zM131 178q0 -67 47 -106.5t127 -39.5t127.5 39.5t47.5 106.5q0 63 -47.5 101t-127.5 38t-127 -38t-47 -101z" />
    <glyph glyph-name="nine" unicode="9" horiz-adv-x="595" 
d="M264 231q-104 0 -162 49.5t-58 138.5q0 100 67 161.5t175 61.5q122 0 186 -79t64 -220q0 -180 -67.5 -268.5t-204.5 -88.5q-43 0 -84.5 10t-81.5 25l11 43q38 -13 76.5 -22.5t75.5 -9.5q98 0 146.5 71.5t48.5 216.5q-39 -55 -88.5 -72t-103.5 -17zM286 596
q-74 0 -119.5 -45.5t-45.5 -118.5q0 -69 41 -107.5t113 -38.5q36 0 68 8.5t56 26.5t38 45t14 64q0 75 -45.5 120.5t-119.5 45.5z" />
    <glyph glyph-name="zero.osf" horiz-adv-x="613" 
d="M558 222q0 -116 -64 -176t-188 -60q-123 0 -187 60t-64 176q0 117 64 177.5t187 60.5q124 0 188 -60.5t64 -177.5zM306 32q86 0 130 48.5t44 141.5q0 94 -44 143t-130 49q-85 0 -129 -49t-44 -143q0 -93 44 -141.5t129 -48.5z" />
    <glyph glyph-name="one.osf" horiz-adv-x="332" 
d="M245 446v-446h-74v385h-142v34l169 27h47z" />
    <glyph glyph-name="two.osf" horiz-adv-x="551" 
d="M494 310q0 -21 -10 -38.5t-24.5 -31.5t-32 -25t-32.5 -19l-273 -150h372v-46h-455v70l295 161q36 19 62.5 38.5t26.5 46.5q0 46 -43.5 72t-119.5 26q-40 0 -79.5 -10t-79.5 -31l-16 39q43 24 87.5 36t92.5 12q107 0 168 -40t61 -110z" />
    <glyph glyph-name="three.osf" horiz-adv-x="532" 
d="M295 164q90 -10 142.5 -54.5t52.5 -110.5q0 -87 -68 -137.5t-185 -50.5q-49 0 -102.5 14.5t-99.5 39.5l14 41q46 -24 94.5 -36.5t93.5 -12.5q84 0 132.5 37.5t48.5 102.5q0 63 -62 99.5t-169 36.5h-71v46h71q86 0 142 35.5t56 96.5q0 48 -44 75.5t-120 27.5
q-37 0 -77.5 -10t-74.5 -26l-16 39q40 20 86 31.5t86 11.5q106 0 167.5 -40.5t61.5 -109.5q0 -51 -42.5 -90.5t-116.5 -55.5z" />
    <glyph glyph-name="four.osf" horiz-adv-x="535" 
d="M420 46h81v-46h-81v-183h-74v183h-313v57l300 389h87v-400zM346 46v344l-263 -344h263z" />
    <glyph glyph-name="five.osf" horiz-adv-x="552" 
d="M277 202q107 0 170.5 -50.5t63.5 -134.5q0 -99 -68.5 -157t-184.5 -58q-58 0 -106.5 16t-95.5 37l14 42q45 -22 90.5 -35.5t97.5 -13.5q75 0 125.5 42t50.5 113q0 74 -48.5 113t-141.5 39q-39 0 -88 -6t-95 -16l12 313h397v-45h-327l-6 -211q37 5 70 8.5t70 3.5z" />
    <glyph glyph-name="six.osf" horiz-adv-x="596" 
d="M332 394q99 0 159.5 -52t60.5 -138q0 -99 -66.5 -158.5t-176.5 -59.5q-125 0 -187.5 73t-62.5 220q0 182 70.5 272.5t212.5 90.5q44 0 84.5 -11t78.5 -25l-11 -43q-37 15 -75.5 24t-76.5 9q-102 0 -150.5 -71.5t-48.5 -222.5q31 47 80 69.5t109 22.5zM309 32
q75 0 120.5 43.5t45.5 115.5q0 67 -42.5 108t-111.5 41q-80 0 -128 -41t-48 -108q0 -72 45 -115.5t119 -43.5z" />
    <glyph glyph-name="seven.osf" horiz-adv-x="477" 
d="M450 446v-64l-308 -565h-81l323 584h-356v45h422z" />
    <glyph glyph-name="eight.osf" horiz-adv-x="610" 
d="M387 352q29 -6 59 -17.5t54.5 -31.5t40 -51t15.5 -74q0 -90 -66 -141t-185 -51t-185 51t-66 141q0 44 16 75t40 51.5t54.5 32t58.5 15.5q-25 4 -49 14t-42.5 25.5t-30 38.5t-11.5 52q0 75 57 117.5t158 42.5t158 -42.5t57 -117.5q0 -56 -38.5 -88t-94.5 -42zM447 483
q0 53 -37.5 82.5t-104.5 29.5t-104.5 -29.5t-37.5 -82.5q0 -51 37.5 -79.5t104.5 -28.5t104.5 28.5t37.5 79.5zM131 178q0 -69 46 -107.5t128 -38.5q83 0 129 38.5t46 107.5q0 66 -46 102.5t-129 36.5q-82 0 -128 -36.5t-46 -102.5z" />
    <glyph glyph-name="nine.osf" horiz-adv-x="587" 
d="M260 58q-101 0 -160.5 49.5t-59.5 134.5q0 101 65 159.5t177 58.5q126 0 188 -72.5t62 -218.5q0 -181 -67.5 -269.5t-204.5 -88.5q-36 0 -81 8.5t-85 27.5l11 42q37 -15 76.5 -23.5t75.5 -8.5q108 0 151.5 77t43.5 212q-37 -49 -78.5 -68.5t-113.5 -19.5zM282 414
q-76 0 -120.5 -43t-44.5 -116q0 -66 41.5 -104.5t112.5 -38.5q81 0 128.5 39t47.5 106q0 72 -44.5 114.5t-120.5 42.5z" />
    <glyph glyph-name="zero.sinf" horiz-adv-x="422" 
d="M378 71q0 -94 -42.5 -142.5t-124.5 -48.5t-124.5 48.5t-42.5 142.5t42.5 142t124.5 48t124.5 -48t42.5 -142zM212 -83q51 0 78 39t27 115t-27 115.5t-78 39.5q-52 0 -79 -39.5t-27 -115.5t27 -115t79 -39z" />
    <glyph glyph-name="one.sinf" horiz-adv-x="229" 
d="M164 256v-367h-57v319h-83v25l104 23h36z" />
    <glyph glyph-name="two.sinf" horiz-adv-x="349" 
d="M306 167q0 -21 -7.5 -37t-17.5 -26l-186 -178h210v-37h-273v50l199 190q10 10 16 21.5t6 24.5q0 22 -25 36.5t-64 14.5q-31 0 -58 -10t-40 -20l-12 33q17 10 48.5 21t65.5 11q60 0 99 -26.5t39 -67.5z" />
    <glyph glyph-name="three.sinf" horiz-adv-x="354" 
d="M202 86q51 -8 80.5 -33.5t29.5 -62.5q0 -51 -41.5 -80.5t-112.5 -29.5q-31 0 -60.5 8t-63.5 27l10 34q28 -17 54 -25t57 -8q46 0 73 20.5t27 56.5q0 33 -35.5 52t-95.5 19h-38v36h38q53 0 83.5 19t30.5 51q0 26 -24.5 41t-66.5 15q-24 0 -48 -7t-42 -18l-11 32
q20 13 49 20.5t58 7.5q64 0 101 -24t37 -66q0 -29 -24 -52t-65 -33z" />
    <glyph glyph-name="four.sinf" horiz-adv-x="364" 
d="M282 5h47v-37h-47v-79h-56v79h-199v45l189 243h66v-251zM226 5v204l-163 -204h163z" />
    <glyph glyph-name="five.sinf" horiz-adv-x="360" 
d="M181 120q68 0 105 -29t37 -82q0 -62 -40 -95.5t-114 -33.5q-28 0 -61.5 7.5t-62.5 27.5l10 34q25 -16 53.5 -24.5t57.5 -8.5q49 0 73 21t24 64q0 42 -27.5 62.5t-83.5 20.5q-25 0 -50.5 -3.5t-50.5 -7.5l7 183h240v-36h-185l-4 -105q8 1 26 3t46 2z" />
    <glyph glyph-name="six.sinf" horiz-adv-x="379" 
d="M202 120q66 0 103.5 -29.5t37.5 -81.5q0 -61 -38 -95t-107 -34q-77 0 -115 43t-38 131q0 104 42 155.5t127 51.5q27 0 58 -7t42 -15l-8 -32q-13 7 -41 13t-50 6q-54 0 -81 -37t-28 -112q18 21 41 32t55 11zM197 -84q42 0 65.5 23.5t23.5 65.5q0 35 -22 55t-62 20
q-45 0 -70 -20t-25 -55q0 -42 23.5 -65.5t66.5 -23.5z" />
    <glyph glyph-name="seven.sinf" horiz-adv-x="315" 
d="M288 256v-49l-177 -318h-65l187 331h-204v36h259z" />
    <glyph glyph-name="eight.sinf" horiz-adv-x="393" 
d="M255 94q49 -16 73 -40.5t24 -61.5q0 -53 -41 -82.5t-114 -29.5t-114 29.5t-41 82.5q0 38 23.5 63.5t72.5 38.5q-37 12 -55 30.5t-18 44.5q0 43 35 67.5t97 24.5t96.5 -24.5t34.5 -67.5q0 -28 -18 -46t-55 -29zM274 169q0 27 -20 42t-57 15t-57.5 -15t-20.5 -42
q0 -28 20.5 -43.5t57.5 -15.5t57 15.5t20 43.5zM102 -6q0 -37 25 -58t70 -21t70 21t25 58q0 35 -25 55t-70 20t-70 -20t-25 -55z" />
    <glyph glyph-name="nine.sinf" horiz-adv-x="379" 
d="M166 22q-62 0 -96 29.5t-34 83.5q0 58 37.5 92t106.5 34q77 0 115.5 -43t38.5 -130q0 -104 -41 -156t-123 -52q-36 0 -66.5 9.5t-35.5 13.5l7 32q6 -3 32 -11t59 -8q55 0 81.5 36.5t26.5 112.5q-19 -21 -40.5 -32t-67.5 -11zM182 226q-41 0 -65.5 -24.5t-24.5 -64.5
q0 -34 23 -54.5t61 -20.5q43 0 69.5 20.5t26.5 54.5q0 40 -24.5 64.5t-65.5 24.5z" />
    <glyph glyph-name="zero.sups" horiz-adv-x="422" 
d="M378 556q0 -94 -42.5 -142.5t-124.5 -48.5t-124.5 48.5t-42.5 142.5t42.5 142t124.5 48t124.5 -48t42.5 -142zM212 402q51 0 78 39t27 115t-27 115.5t-78 39.5q-52 0 -79 -39.5t-27 -115.5t27 -115t79 -39z" />
    <glyph glyph-name="one.sups" horiz-adv-x="229" 
d="M164 741v-367h-57v319h-83v25l104 23h36z" />
    <glyph glyph-name="two.sups" horiz-adv-x="349" 
d="M306 652q0 -21 -7.5 -37t-17.5 -26l-186 -178h210v-37h-273v50l199 190q10 10 16 21.5t6 24.5q0 22 -25 36.5t-64 14.5q-31 0 -58 -10t-40 -20l-12 33q17 10 48.5 21t65.5 11q60 0 99 -26.5t39 -67.5z" />
    <glyph glyph-name="three.sups" horiz-adv-x="354" 
d="M202 571q51 -8 80.5 -33.5t29.5 -62.5q0 -51 -41.5 -80.5t-112.5 -29.5q-31 0 -60.5 8t-63.5 27l10 34q28 -17 54 -25t57 -8q46 0 73 20.5t27 56.5q0 33 -35.5 52t-95.5 19h-38v36h38q53 0 83.5 19t30.5 51q0 26 -24.5 41t-66.5 15q-24 0 -48 -7t-42 -18l-11 32
q20 13 49 20.5t58 7.5q64 0 101 -24t37 -66q0 -29 -24 -52t-65 -33z" />
    <glyph glyph-name="four.sups" horiz-adv-x="364" 
d="M283 490h47v-37h-47v-79h-56v79h-199v45l189 243h66v-251zM227 490v204l-163 -204h163z" />
    <glyph glyph-name="five.sups" horiz-adv-x="360" 
d="M181 605q68 0 105 -29t37 -82q0 -62 -40 -95.5t-114 -33.5q-28 0 -61.5 7.5t-62.5 27.5l10 34q25 -16 53.5 -24.5t57.5 -8.5q49 0 73 21t24 64q0 42 -27.5 62.5t-83.5 20.5q-25 0 -50.5 -3.5t-50.5 -7.5l7 183h240v-36h-185l-4 -105q8 1 26 3t46 2z" />
    <glyph glyph-name="six.sups" horiz-adv-x="379" 
d="M202 605q66 0 103.5 -29.5t37.5 -81.5q0 -61 -38 -95t-107 -34q-77 0 -115 43t-38 131q0 104 42 155.5t127 51.5q27 0 58 -7t42 -15l-8 -32q-13 7 -41 13t-50 6q-54 0 -81 -37t-28 -112q18 21 41 32t55 11zM197 401q42 0 65.5 23.5t23.5 65.5q0 35 -22 55t-62 20
q-45 0 -70 -20t-25 -55q0 -42 23.5 -65.5t66.5 -23.5z" />
    <glyph glyph-name="seven.sups" horiz-adv-x="315" 
d="M288 741v-49l-177 -318h-65l187 331h-204v36h259z" />
    <glyph glyph-name="eight.sups" horiz-adv-x="393" 
d="M255 579q49 -16 73 -40.5t24 -61.5q0 -53 -41 -82.5t-114 -29.5t-114 29.5t-41 82.5q0 38 23.5 63.5t72.5 38.5q-37 12 -55 30.5t-18 44.5q0 43 35 67.5t97 24.5t96.5 -24.5t34.5 -67.5q0 -28 -18 -46t-55 -29zM274 654q0 27 -20 42t-57 15t-57.5 -15t-20.5 -42
q0 -28 20.5 -43.5t57.5 -15.5t57 15.5t20 43.5zM102 479q0 -37 25 -58t70 -21t70 21t25 58q0 35 -25 55t-70 20t-70 -20t-25 -55z" />
    <glyph glyph-name="nine.sups" horiz-adv-x="379" 
d="M166 507q-62 0 -96 29.5t-34 83.5q0 58 37.5 92t106.5 34q77 0 115.5 -43t38.5 -130q0 -104 -41 -156t-123 -52q-36 0 -66.5 9.5t-35.5 13.5l7 32q6 -3 32 -11t59 -8q55 0 81.5 36.5t26.5 112.5q-19 -21 -40.5 -32t-67.5 -11zM182 711q-41 0 -65.5 -24.5t-24.5 -64.5
q0 -34 23 -54.5t61 -20.5q43 0 69.5 20.5t26.5 54.5q0 40 -24.5 64.5t-65.5 24.5z" />
    <glyph glyph-name="zero.tf" horiz-adv-x="672" 
d="M587 313q0 -157 -65 -242t-186 -85t-186 85t-65 242q0 158 65 243.5t186 85.5t186 -85.5t65 -243.5zM336 32q84 0 129 73t45 208q0 136 -45 209.5t-129 73.5t-129 -73.5t-45 -209.5q0 -135 45 -208t129 -73z" />
    <glyph glyph-name="one.tf" horiz-adv-x="672" 
d="M111 0v46h214v521h-195v34l221 27h48v-582h184v-46h-472z" />
    <glyph glyph-name="two.tf" horiz-adv-x="672" 
d="M553 490q0 -42 -17.5 -71t-30.5 -43l-324 -330h372v-46h-455v70l346 342q16 16 27 36.5t11 47.5q0 47 -43.5 73.5t-119.5 26.5q-37 0 -77 -10.5t-82 -30.5l-16 39q44 24 88.5 36t91.5 12q107 0 168 -40t61 -112z" />
    <glyph glyph-name="three.tf" horiz-adv-x="672" 
d="M351 333q102 -11 160.5 -53t58.5 -107q0 -87 -70 -137t-192 -50q-59 0 -112.5 14.5t-104.5 38.5l14 42q51 -23 101.5 -36t101.5 -13q89 0 139.5 37t50.5 101q0 63 -68 100t-187 37h-71v46h71q49 0 90 9.5t71 26.5t47 42.5t17 56.5q0 50 -45.5 79t-125.5 29
q-41 0 -87.5 -9t-84.5 -28l-16 39q45 22 97 33t95 11q110 0 173 -41.5t63 -113.5q0 -54 -50 -94t-136 -60z" />
    <glyph glyph-name="four.tf" horiz-adv-x="672" 
d="M501 187h81v-46h-81v-141h-74v141h-344v57l331 430h87v-441zM427 187v385l-294 -385h294z" />
    <glyph glyph-name="five.tf" horiz-adv-x="672" 
d="M338 385q108 0 173.5 -50.5t65.5 -134.5q0 -97 -72 -155.5t-191 -58.5q-52 0 -102.5 14.5t-99.5 38.5l14 42q47 -19 93 -34t95 -15q84 0 135 42t51 112q0 72 -51 111.5t-144 39.5q-45 0 -93.5 -5.5t-94.5 -15.5l12 312h407v-46h-337l-6 -210q38 7 74 10t71 3z" />
    <glyph glyph-name="six.tf" horiz-adv-x="672" 
d="M370 394q104 0 162 -50t58 -140q0 -99 -66.5 -158.5t-176.5 -59.5q-125 0 -187.5 73t-62.5 220q0 185 69.5 274t213.5 89q46 0 84.5 -9t78.5 -27l-11 -43q-38 16 -76.5 24.5t-75.5 8.5q-101 0 -150 -72t-49 -222q35 54 85 73t104 19zM347 32q75 0 120.5 43.5t45.5 115.5
q0 76 -38 112.5t-116 36.5q-33 0 -65 -8t-56.5 -26t-39.5 -46.5t-15 -68.5q0 -71 44 -115t120 -44z" />
    <glyph glyph-name="seven.tf" horiz-adv-x="672" 
d="M578 628v-64l-365 -564h-81l381 582h-414v46h479z" />
    <glyph glyph-name="eight.tf" horiz-adv-x="672" 
d="M419 352q84 -14 126.5 -61t42.5 -113q0 -88 -68 -140t-183 -52t-183 52t-68 140q0 71 45.5 116t123.5 58q-59 10 -96 41.5t-37 88.5q0 73 58 116.5t157 43.5t157 -43.5t58 -116.5q0 -53 -35 -85t-98 -45zM479 483q0 51 -38.5 81.5t-103.5 30.5t-103.5 -30.5t-38.5 -81.5
q0 -49 38.5 -78.5t103.5 -29.5t103.5 29.5t38.5 78.5zM163 178q0 -67 47 -106.5t127 -39.5t127.5 39.5t47.5 106.5q0 63 -47.5 101t-127.5 38t-127 -38t-47 -101z" />
    <glyph glyph-name="nine.tf" horiz-adv-x="672" 
d="M302 231q-104 0 -162 49.5t-58 138.5q0 100 67 161.5t175 61.5q122 0 186 -79t64 -220q0 -180 -67.5 -268.5t-204.5 -88.5q-43 0 -84.5 10t-81.5 25l11 43q38 -13 76.5 -22.5t75.5 -9.5q98 0 146.5 71.5t48.5 216.5q-39 -55 -88.5 -72t-103.5 -17zM324 596
q-74 0 -119.5 -45.5t-45.5 -118.5q0 -69 41 -107.5t113 -38.5q36 0 68 8.5t56 26.5t38 45t14 64q0 75 -45.5 120.5t-119.5 45.5z" />
    <glyph glyph-name="zero.tosf" horiz-adv-x="672" 
d="M587 222q0 -114 -64.5 -175t-186.5 -61t-186.5 61t-64.5 175q0 116 64.5 177t186.5 61t186.5 -61t64.5 -177zM336 32q84 0 129 48.5t45 141.5t-45 142.5t-129 49.5t-129 -49.5t-45 -142.5t45 -141.5t129 -48.5z" />
    <glyph glyph-name="one.tosf" horiz-adv-x="672" 
d="M111 0v46h214v339h-195v34l221 27h48v-400h184v-46h-472z" />
    <glyph glyph-name="two.tosf" horiz-adv-x="672" 
d="M554 310q0 -21 -10 -38.5t-24.5 -31.5t-32 -25t-32.5 -19l-273 -150h372v-46h-455v70l295 161q36 19 62.5 38.5t26.5 46.5q0 46 -43.5 72t-119.5 26q-40 0 -79.5 -10t-79.5 -31l-16 39q43 24 87.5 36t92.5 12q107 0 168 -40t61 -110z" />
    <glyph glyph-name="three.tosf" horiz-adv-x="672" 
d="M354 161q101 -11 160 -54t59 -108q0 -87 -69 -137.5t-188 -50.5q-54 0 -113 13.5t-109 40.5l14 41q50 -26 104.5 -37.5t103.5 -11.5q86 0 135.5 37.5t49.5 102.5q0 63 -68.5 99.5t-186.5 36.5h-71v46h71q97 0 160 35.5t63 96.5q0 48 -45 75.5t-124 27.5q-43 0 -89 -9
t-83 -27l-16 39q43 22 95.5 32.5t96.5 10.5q109 0 171.5 -40.5t62.5 -109.5q0 -52 -49.5 -91.5t-134.5 -57.5z" />
    <glyph glyph-name="four.tosf" horiz-adv-x="672" 
d="M503 0h81v-46h-81v-137h-74v137h-344v57l331 435h87v-446zM429 0v390l-294 -390h294z" />
    <glyph glyph-name="five.tosf" horiz-adv-x="672" 
d="M333 384q111 0 177.5 -50.5t66.5 -134.5q0 -99 -71.5 -157t-191.5 -58q-58 0 -106.5 16t-95.5 37l14 42q45 -22 90.5 -35.5t97.5 -13.5q79 0 132.5 42t53.5 113q0 74 -51 113t-149 39q-39 0 -88 -6t-95 -16l12 313h407v-45h-335l-8 -211q37 5 70 8.5t70 3.5z" />
    <glyph glyph-name="six.tosf" horiz-adv-x="672" 
d="M371 394q99 0 159.5 -52t60.5 -138q0 -99 -66.5 -158.5t-176.5 -59.5q-125 0 -187.5 73t-62.5 220q0 182 70.5 272.5t212.5 90.5q44 0 84.5 -11t78.5 -25l-11 -43q-37 15 -75.5 24t-76.5 9q-102 0 -150.5 -71.5t-48.5 -222.5q31 47 80 69.5t109 22.5zM348 32
q75 0 120.5 43.5t45.5 115.5q0 67 -42.5 108t-111.5 41q-80 0 -128 -41t-48 -108q0 -72 45 -115.5t119 -43.5z" />
    <glyph glyph-name="seven.tosf" horiz-adv-x="672" 
d="M576 446v-64l-365 -565h-81l381 584h-414v45h479z" />
    <glyph glyph-name="eight.tosf" horiz-adv-x="672" 
d="M418 352q29 -6 59 -17.5t54.5 -31.5t40 -51t15.5 -74q0 -90 -66 -141t-185 -51t-185 51t-66 141q0 44 16 75t40 51.5t54.5 32t58.5 15.5q-25 4 -49 14t-42.5 25.5t-30 38.5t-11.5 52q0 75 57 117.5t158 42.5t158 -42.5t57 -117.5q0 -56 -38.5 -88t-94.5 -42zM478 483
q0 53 -37.5 82.5t-104.5 29.5t-104.5 -29.5t-37.5 -82.5q0 -51 37.5 -79.5t104.5 -28.5t104.5 28.5t37.5 79.5zM162 178q0 -69 46 -107.5t128 -38.5q83 0 129 38.5t46 107.5q0 66 -46 102.5t-129 36.5q-82 0 -128 -36.5t-46 -102.5z" />
    <glyph glyph-name="nine.tosf" horiz-adv-x="672" 
d="M302 58q-101 0 -160.5 49.5t-59.5 134.5q0 101 65 159.5t177 58.5q126 0 188 -72.5t62 -218.5q0 -181 -67.5 -269.5t-204.5 -88.5q-36 0 -81 8.5t-85 27.5l11 42q37 -15 76.5 -23.5t75.5 -8.5q108 0 151.5 77t43.5 212q-37 -49 -78.5 -68.5t-113.5 -19.5zM324 414
q-76 0 -120.5 -43t-44.5 -116q0 -66 41.5 -104.5t112.5 -38.5q81 0 128.5 39t47.5 106q0 72 -44.5 114.5t-120.5 42.5z" />
    <glyph glyph-name="fraction" unicode="&#x2044;" horiz-adv-x="140" 
d="M228 628h59l-371 -628h-62z" />
    <glyph glyph-name="onehalf" unicode="&#xbd;" horiz-adv-x="716" 
d="M468 628h55l-369 -628h-57zM166 628v-370h-57v326h-83v28l98 16h42zM672 286q0 -26 -10.5 -43.5t-19.5 -26.5l-179 -179h209v-37h-268v43l192 195q10 10 17 23t7 29q0 19 -24 30t-67 11q-24 0 -49.5 -6t-49.5 -19l-9 44q27 13 54.5 21t55.5 8q66 0 103.5 -24.5
t37.5 -68.5z" />
    <glyph glyph-name="onequarter" unicode="&#xbc;" horiz-adv-x="661" 
d="M166 628v-370h-57v326h-83v28l98 16h42zM468 628h55l-369 -628h-57zM579 127h48v-44h-48v-83h-57v83h-203v33l195 255h65v-244zM522 127v202l-153 -202h153z" />
    <glyph glyph-name="threequarters" unicode="&#xbe;" horiz-adv-x="764" 
d="M199 457q51 -5 79.5 -29.5t28.5 -63.5q0 -53 -40 -83t-112 -30q-31 0 -63 8.5t-57 23.5l8 46q34 -13 63.5 -21t48.5 -8q46 0 71 16.5t25 45.5q0 31 -33 48.5t-92 17.5h-43v50h43q50 0 78 18.5t28 52.5q0 21 -19.5 32.5t-54.5 11.5q-31 0 -58 -6t-44 -16l-10 44
q23 13 53 20t61 7q60 0 93 -24t33 -67q0 -35 -23 -60t-64 -34zM576 628h54l-368 -628h-58zM687 127h47v-44h-47v-83h-57v83h-204v33l196 255h65v-244zM630 127v202l-153 -202h153z" />
    <glyph glyph-name="zero.numr" horiz-adv-x="422" 
d="M378 446q0 -94 -42.5 -142.5t-124.5 -48.5t-124.5 48.5t-42.5 142.5t42.5 142t124.5 48t124.5 -48t42.5 -142zM212 292q51 0 78 39t27 115t-27 115.5t-78 39.5q-52 0 -79 -39.5t-27 -115.5t27 -115t79 -39z" />
    <glyph glyph-name="one.numr" horiz-adv-x="229" 
d="M164 631v-367h-57v319h-83v25l104 23h36z" />
    <glyph glyph-name="two.numr" horiz-adv-x="349" 
d="M306 542q0 -21 -7.5 -37t-17.5 -26l-186 -178h210v-37h-273v50l199 190q10 10 16 21.5t6 24.5q0 22 -25 36.5t-64 14.5q-31 0 -58 -10t-40 -20l-12 33q17 10 48.5 21t65.5 11q60 0 99 -26.5t39 -67.5z" />
    <glyph glyph-name="three.numr" horiz-adv-x="354" 
d="M202 461q51 -8 80.5 -33.5t29.5 -62.5q0 -51 -41.5 -80.5t-112.5 -29.5q-31 0 -60.5 8t-63.5 27l10 34q28 -17 54 -25t57 -8q46 0 73 20.5t27 56.5q0 33 -35.5 52t-95.5 19h-38v36h38q53 0 83.5 19t30.5 51q0 26 -24.5 41t-66.5 15q-24 0 -48 -7t-42 -18l-11 32
q20 13 49 20.5t58 7.5q64 0 101 -24t37 -66q0 -29 -24 -52t-65 -33z" />
    <glyph glyph-name="four.numr" horiz-adv-x="364" 
d="M283 380h47v-37h-47v-79h-56v79h-199v45l189 243h66v-251zM227 380v204l-163 -204h163z" />
    <glyph glyph-name="five.numr" horiz-adv-x="360" 
d="M181 495q68 0 105 -29t37 -82q0 -62 -40 -95.5t-114 -33.5q-28 0 -61.5 7.5t-62.5 27.5l10 34q25 -16 53.5 -24.5t57.5 -8.5q49 0 73 21t24 64q0 42 -27.5 62.5t-83.5 20.5q-25 0 -50.5 -3.5t-50.5 -7.5l7 183h240v-36h-185l-4 -105q8 1 26 3t46 2z" />
    <glyph glyph-name="six.numr" horiz-adv-x="379" 
d="M202 495q66 0 103.5 -29.5t37.5 -81.5q0 -61 -38 -95t-107 -34q-77 0 -115 43t-38 131q0 104 42 155.5t127 51.5q27 0 58 -7t42 -15l-8 -32q-13 7 -41 13t-50 6q-54 0 -81 -37t-28 -112q18 21 41 32t55 11zM197 291q42 0 65.5 23.5t23.5 65.5q0 35 -22 55t-62 20
q-45 0 -70 -20t-25 -55q0 -42 23.5 -65.5t66.5 -23.5z" />
    <glyph glyph-name="seven.numr" horiz-adv-x="315" 
d="M288 631v-49l-177 -318h-65l187 331h-204v36h259z" />
    <glyph glyph-name="eight.numr" horiz-adv-x="393" 
d="M255 469q49 -16 73 -40.5t24 -61.5q0 -53 -41 -82.5t-114 -29.5t-114 29.5t-41 82.5q0 38 23.5 63.5t72.5 38.5q-37 12 -55 30.5t-18 44.5q0 43 35 67.5t97 24.5t96.5 -24.5t34.5 -67.5q0 -28 -18 -46t-55 -29zM274 544q0 27 -20 42t-57 15t-57.5 -15t-20.5 -42
q0 -28 20.5 -43.5t57.5 -15.5t57 15.5t20 43.5zM102 369q0 -37 25 -58t70 -21t70 21t25 58q0 35 -25 55t-70 20t-70 -20t-25 -55z" />
    <glyph glyph-name="nine.numr" horiz-adv-x="379" 
d="M166 397q-62 0 -96 29.5t-34 83.5q0 58 37.5 92t106.5 34q77 0 115.5 -43t38.5 -130q0 -104 -41 -156t-123 -52q-36 0 -66.5 9.5t-35.5 13.5l7 32q6 -3 32 -11t59 -8q55 0 81.5 36.5t26.5 112.5q-19 -21 -40.5 -32t-67.5 -11zM182 601q-41 0 -65.5 -24.5t-24.5 -64.5
q0 -34 23 -54.5t61 -20.5q43 0 69.5 20.5t26.5 54.5q0 40 -24.5 64.5t-65.5 24.5z" />
    <glyph glyph-name="zero.dnom" horiz-adv-x="422" 
d="M378 182q0 -94 -42.5 -142.5t-124.5 -48.5t-124.5 48.5t-42.5 142.5t42.5 142t124.5 48t124.5 -48t42.5 -142zM212 28q51 0 78 39t27 115t-27 115.5t-78 39.5q-52 0 -79 -39.5t-27 -115.5t27 -115t79 -39z" />
    <glyph glyph-name="one.dnom" horiz-adv-x="229" 
d="M164 367v-367h-57v319h-83v25l104 23h36z" />
    <glyph glyph-name="two.dnom" horiz-adv-x="349" 
d="M306 278q0 -21 -7.5 -37t-17.5 -26l-186 -178h210v-37h-273v50l199 190q10 10 16 21.5t6 24.5q0 22 -25 36.5t-64 14.5q-31 0 -58 -10t-40 -20l-12 33q17 10 48.5 21t65.5 11q60 0 99 -26.5t39 -67.5z" />
    <glyph glyph-name="three.dnom" horiz-adv-x="354" 
d="M202 197q51 -8 80.5 -33.5t29.5 -62.5q0 -51 -41.5 -80.5t-112.5 -29.5q-31 0 -60.5 8t-63.5 27l10 34q28 -17 54 -25t57 -8q46 0 73 20.5t27 56.5q0 33 -35.5 52t-95.5 19h-38v36h38q53 0 83.5 19t30.5 51q0 26 -24.5 41t-66.5 15q-24 0 -48 -7t-42 -18l-11 32
q20 13 49 20.5t58 7.5q64 0 101 -24t37 -66q0 -29 -24 -52t-65 -33z" />
    <glyph glyph-name="four.dnom" horiz-adv-x="364" 
d="M283 116h47v-37h-47v-79h-56v79h-199v45l189 243h66v-251zM227 116v204l-163 -204h163z" />
    <glyph glyph-name="five.dnom" horiz-adv-x="360" 
d="M181 231q68 0 105 -29t37 -82q0 -62 -40 -95.5t-114 -33.5q-28 0 -61.5 7.5t-62.5 27.5l10 34q25 -16 53.5 -24.5t57.5 -8.5q49 0 73 21t24 64q0 42 -27.5 62.5t-83.5 20.5q-25 0 -50.5 -3.5t-50.5 -7.5l7 183h240v-36h-185l-4 -105q8 1 26 3t46 2z" />
    <glyph glyph-name="six.dnom" horiz-adv-x="379" 
d="M202 231q66 0 103.5 -29.5t37.5 -81.5q0 -61 -38 -95t-107 -34q-77 0 -115 43t-38 131q0 104 42 155.5t127 51.5q27 0 58 -7t42 -15l-8 -32q-13 7 -41 13t-50 6q-54 0 -81 -37t-28 -112q18 21 41 32t55 11zM197 27q42 0 65.5 23.5t23.5 65.5q0 35 -22 55t-62 20
q-45 0 -70 -20t-25 -55q0 -42 23.5 -65.5t66.5 -23.5z" />
    <glyph glyph-name="seven.dnom" horiz-adv-x="315" 
d="M288 367v-49l-177 -318h-65l187 331h-204v36h259z" />
    <glyph glyph-name="eight.dnom" horiz-adv-x="393" 
d="M255 205q49 -16 73 -40.5t24 -61.5q0 -53 -41 -82.5t-114 -29.5t-114 29.5t-41 82.5q0 38 23.5 63.5t72.5 38.5q-37 12 -55 30.5t-18 44.5q0 43 35 67.5t97 24.5t96.5 -24.5t34.5 -67.5q0 -28 -18 -46t-55 -29zM274 280q0 27 -20 42t-57 15t-57.5 -15t-20.5 -42
q0 -28 20.5 -43.5t57.5 -15.5t57 15.5t20 43.5zM102 105q0 -37 25 -58t70 -21t70 21t25 58q0 35 -25 55t-70 20t-70 -20t-25 -55z" />
    <glyph glyph-name="nine.dnom" horiz-adv-x="379" 
d="M166 133q-62 0 -96 29.5t-34 83.5q0 58 37.5 92t106.5 34q77 0 115.5 -43t38.5 -130q0 -104 -41 -156t-123 -52q-36 0 -66.5 9.5t-35.5 13.5l7 32q6 -3 32 -11t59 -8q55 0 81.5 36.5t26.5 112.5q-19 -21 -40.5 -32t-67.5 -11zM182 337q-41 0 -65.5 -24.5t-24.5 -64.5
q0 -34 23 -54.5t61 -20.5q43 0 69.5 20.5t26.5 54.5q0 40 -24.5 64.5t-65.5 24.5z" />
    <glyph glyph-name="asterisk" unicode="*" horiz-adv-x="450" 
d="M362 305l-52 -37l-85 130l-85 -130l-52 37l98 122l-150 40l19 61l146 -55l-9 155h65l-8 -155l146 55l19 -61l-149 -40z" />
    <glyph glyph-name="backslash" unicode="\" horiz-adv-x="496" 
d="M103 628l372 -628h-87l-369 628h84z" />
    <glyph glyph-name="periodcentered" unicode="&#xb7;" horiz-adv-x="230" 
d="M164 197h-98v77h98v-77z" />
    <glyph glyph-name="bullet" unicode="&#x2022;" horiz-adv-x="271" 
d="M182 240h-93v93h93v-93z" />
    <glyph glyph-name="colon" unicode=":" horiz-adv-x="229" 
d="M163 321h-97v77h97v-77zM163 0h-97v77h97v-77z" />
    <glyph glyph-name="comma" unicode="," horiz-adv-x="224" 
d="M108 -61h-59l23 178h97z" />
    <glyph glyph-name="exclam" unicode="!" horiz-adv-x="253" 
d="M78 628h97l-19 -451h-60zM175 0h-97v77h97v-77z" />
    <glyph glyph-name="exclamdown" unicode="&#xa1;" horiz-adv-x="253" 
d="M77 628h98v-76h-98v76zM175 0h-98l20 446h59z" />
    <glyph glyph-name="numbersign" unicode="#" horiz-adv-x="608" 
d="M570 417h-125l-30 -179h127l-9 -50h-127l-30 -188h-52l31 188h-142l-32 -188h-52l32 188h-132l9 50h131l30 179h-132l9 50h132l26 161h52l-27 -161h143l27 161h51l-27 -161h126zM364 238l30 179h-144l-30 -179h144z" />
    <glyph glyph-name="period" unicode="." horiz-adv-x="226" 
d="M162 0h-98v77h98v-77z" />
    <glyph glyph-name="question" unicode="?" horiz-adv-x="503" 
d="M25 593q46 22 94.5 35.5t99.5 13.5q113 0 182 -45t69 -118q0 -63 -32 -94t-73 -50q-25 -12 -49.5 -24t-44 -27t-31.5 -33t-12 -40v-34h-73v30q0 31 13.5 56t35.5 47t51 41t60 38q27 16 45 39t18 60q0 49 -43.5 78.5t-115.5 29.5q-43 0 -88.5 -11.5t-89.5 -30.5zM143 0v76
h98v-76h-98z" />
    <glyph glyph-name="questiondown" unicode="&#xbf;" horiz-adv-x="501" 
d="M359 628v-76h-98v76h98zM477 35q-46 -22 -94.5 -35.5t-99.5 -13.5q-113 0 -182 45t-69 118q0 66 37 96t81 49q23 10 45 21t39.5 24t28.5 30t11 39v38h73v-34q0 -31 -12.5 -56t-34 -45t-49 -37t-57.5 -34q-29 -16 -49.5 -39t-20.5 -61q0 -49 43.5 -78.5t115.5 -29.5
q43 0 88.5 11.5t89.5 30.5z" />
    <glyph glyph-name="quotedbl" unicode="&#x22;" horiz-adv-x="344" 
d="M132 450h-60l-19 178h97zM273 450h-61l-17 178h96z" />
    <glyph glyph-name="quotesingle" unicode="'" horiz-adv-x="210" 
d="M116 450h-60l23 178h97z" />
    <glyph glyph-name="semicolon" unicode=";" horiz-adv-x="253" 
d="M180 321h-97v77h97v-77zM121 -102h-55l23 179h91z" />
    <glyph glyph-name="slash" unicode="/" horiz-adv-x="487" 
d="M393 628h75l-368 -628h-79z" />
    <glyph glyph-name="underscore" unicode="_" horiz-adv-x="429" 
d="M0 -50h429v-37h-429v37z" />
    <glyph glyph-name="comma.dnom" horiz-adv-x="187" 
d="M83 -61h-42l21 161h80z" />
    <glyph glyph-name="period.dnom" horiz-adv-x="185" 
d="M133 0h-81v77h81v-77z" />
    <glyph glyph-name="comma.numr" horiz-adv-x="187" 
d="M82 202h-42l21 162h80z" />
    <glyph glyph-name="period.numr" horiz-adv-x="185" 
d="M133 264h-81v76h81v-76z" />
    <glyph glyph-name="comma.sinf" horiz-adv-x="187" 
d="M82 -172h-42l21 162h80z" />
    <glyph glyph-name="period.sinf" horiz-adv-x="185" 
d="M133 -111h-81v77h81v-77z" />
    <glyph glyph-name="comma.sups" horiz-adv-x="187" 
d="M82 313h-42l21 161h80z" />
    <glyph glyph-name="period.sups" horiz-adv-x="185" 
d="M133 374h-81v77h81v-77z" />
    <glyph glyph-name="braceleft" unicode="{" horiz-adv-x="301" 
d="M254 -105h17v-46h-22q-76 0 -110.5 32t-34.5 102v151q0 51 -16 69.5t-60 18.5v46q44 0 60 18.5t16 69.5v151q0 71 34.5 103t110.5 32h22v-46h-17q-40 0 -58 -21.5t-18 -67.5v-154q0 -18 -5 -37.5t-14.5 -35t-24.5 -25.5t-36 -10q40 0 60 -32.5t20 -78.5v-151
q0 -46 18 -67t58 -21z" />
    <glyph glyph-name="braceright" unicode="}" horiz-adv-x="301" 
d="M48 -105q40 0 58 21t18 67v151q0 46 20 78.5t60 32.5q-21 0 -36 10t-24.5 25.5t-14.5 35t-5 37.5v154q0 46 -18 67.5t-58 21.5h-17v46h22q76 0 110.5 -32t34.5 -103v-151q0 -51 16 -69.5t60 -18.5v-46q-44 0 -60 -18.5t-16 -69.5v-151q0 -70 -34.5 -102t-110.5 -32h-22
v46h17z" />
    <glyph glyph-name="bracketleft" unicode="[" horiz-adv-x="269" 
d="M236 582h-75v-687h75v-46h-149v779h149v-46z" />
    <glyph glyph-name="bracketright" unicode="]" horiz-adv-x="269" 
d="M108 582h-75v46h149v-779h-149v46h75v687z" />
    <glyph glyph-name="parenleft" unicode="(" horiz-adv-x="258" 
d="M223 -142h-55q-57 69 -86 167t-29 217q0 122 29 220t85 166h54q-45 -77 -68 -175t-23 -211q0 -111 23.5 -209t69.5 -175z" />
    <glyph glyph-name="parenright" unicode=")" horiz-adv-x="258" 
d="M36 -142q45 76 68.5 175.5t23.5 213.5q0 110 -23 207t-67 174h53q57 -69 86 -165.5t29 -215.5q0 -122 -29.5 -221t-86.5 -168h-54z" />
    <glyph glyph-name="parenleft.dnom" horiz-adv-x="200" 
d="M162 -14h-48q-34 42 -52 90.5t-18 100.5q0 55 18.5 105t53.5 90h45q-26 -46 -39.5 -95.5t-13.5 -99.5q0 -48 14 -96.5t40 -94.5z" />
    <glyph glyph-name="parenright.dnom" horiz-adv-x="201" 
d="M38 -14q27 46 41 95t14 96q0 49 -14 99t-40 96h45q35 -40 53.5 -89.5t18.5 -105.5q0 -51 -17.5 -100t-51.5 -91h-49z" />
    <glyph glyph-name="parenleft.numr" horiz-adv-x="200" 
d="M163 248h-48q-34 43 -52 92t-18 100q0 54 18.5 104t53.5 92h45q-26 -46 -39.5 -95.5t-13.5 -100.5q0 -49 14 -97.5t40 -94.5z" />
    <glyph glyph-name="parenright.numr" horiz-adv-x="201" 
d="M38 248q27 46 41 95t14 97q0 50 -14 100t-40 96h45q35 -40 53.5 -90t18.5 -106q0 -51 -17.5 -100t-51.5 -92h-49z" />
    <glyph glyph-name="parenleft.sinf" horiz-adv-x="200" 
d="M163 -126h-48q-34 43 -52 92t-18 100q0 54 18.5 104t53.5 92h45q-26 -46 -39.5 -95.5t-13.5 -100.5q0 -49 14 -97.5t40 -94.5z" />
    <glyph glyph-name="parenright.sinf" horiz-adv-x="201" 
d="M38 -126q27 46 41 95t14 97q0 50 -14 100t-40 96h45q35 -40 53.5 -90t18.5 -106q0 -51 -17.5 -100t-51.5 -92h-49z" />
    <glyph glyph-name="parenleft.sups" horiz-adv-x="200" 
d="M162 359h-48q-34 42 -52 91t-18 101q0 55 18.5 105t53.5 90h45q-26 -46 -39.5 -95.5t-13.5 -99.5q0 -49 14 -97.5t40 -94.5z" />
    <glyph glyph-name="parenright.sups" horiz-adv-x="201" 
d="M38 359q27 46 41 95t14 97q0 49 -14 99t-40 96h45q35 -40 53.5 -89.5t18.5 -105.5q0 -52 -17.5 -101t-51.5 -91h-49z" />
    <glyph glyph-name="emdash" unicode="&#x2014;" horiz-adv-x="524" 
d="M66 242h392v-37h-392v37z" />
    <glyph glyph-name="endash" unicode="&#x2013;" horiz-adv-x="343" 
d="M66 242h211v-37h-211v37z" />
    <glyph glyph-name="hyphen" unicode="-" horiz-adv-x="343" 
d="M66 255h211v-37h-211v37z" />
    <glyph glyph-name="guillemotleft" unicode="&#xab;" horiz-adv-x="445" 
d="M115 293l117 -153l-47 -41l-149 194l149 195l47 -42zM281 293l117 -153l-48 -41l-148 194l148 195l48 -42z" />
    <glyph glyph-name="guillemotright" unicode="&#xbb;" horiz-adv-x="446" 
d="M331 293l-118 153l48 42l149 -195l-149 -194l-48 41zM165 293l-118 153l48 42l149 -195l-149 -194l-48 41z" />
    <glyph glyph-name="guilsinglleft" unicode="&#x2039;" horiz-adv-x="279" 
d="M115 293l117 -153l-47 -41l-149 194l149 195l47 -42z" />
    <glyph glyph-name="guilsinglright" unicode="&#x203a;" horiz-adv-x="280" 
d="M165 293l-118 153l48 42l149 -195l-149 -194l-48 41z" />
    <glyph glyph-name="quotedblbase" unicode="&#x201e;" horiz-adv-x="354" 
d="M107 -102h-59l23 179h96zM232 -102h-60l23 179h97z" />
    <glyph glyph-name="quotedblleft" unicode="&#x201c;" horiz-adv-x="343" 
d="M231 628h61l-23 -178h-97zM107 628h60l-23 -178h-96z" />
    <glyph glyph-name="quotedblright" unicode="&#x201d;" horiz-adv-x="334" 
d="M115 450h-59l23 178h96zM239 450h-59l23 178h97z" />
    <glyph glyph-name="quoteleft" unicode="&#x2018;" horiz-adv-x="219" 
d="M108 628h60l-23 -178h-97z" />
    <glyph glyph-name="quoteright" unicode="&#x2019;" horiz-adv-x="210" 
d="M115 450h-59l23 178h97z" />
    <glyph glyph-name="quotesinglbase" unicode="&#x201a;" horiz-adv-x="224" 
d="M103 -102h-55l23 179h91z" />
    <glyph glyph-name="anoteleia" unicode="&#x387;" horiz-adv-x="203" 
d="M137 446v-101h-71v101h71z" />
    <glyph glyph-name="uni037E" unicode="&#x37e;" horiz-adv-x="253" 
d="M180 321h-97v77h97v-77zM121 -102h-55l23 179h91z" />
    <glyph glyph-name="cent" unicode="&#xa2;" horiz-adv-x="450" 
d="M396 53l10 -39q-31 -10 -57 -17t-47 -8v-94h-74v92q-90 7 -134 66t-44 171q0 111 44 169.5t134 65.5v106h74v-107q23 -3 49 -9t55 -16l-10 -39q-37 10 -67.5 15t-54.5 5q-78 0 -116 -46.5t-38 -142.5q0 -97 38 -145t116 -48q22 0 52.5 5.5t69.5 15.5z" />
    <glyph glyph-name="currency" unicode="&#xa4;" horiz-adv-x="488" 
d="M56 99l48 49q-13 19 -19.5 43t-6.5 49t8 49t21 43l-51 52l43 45l52 -55q19 13 40.5 19.5t45.5 6.5q27 0 52 -7t46 -20l52 56l43 -45l-50 -51q16 -19 24.5 -43t8.5 -50t-8 -50t-22 -43l47 -48l-43 -45l-47 50q-22 -15 -48.5 -23.5t-54.5 -8.5q-25 0 -48.5 8t-42.5 22
l-47 -48zM243 348q-43 0 -74 -32.5t-31 -78.5q0 -45 31 -77t74 -32q46 0 77.5 32t31.5 77q0 46 -31.5 78.5t-77.5 32.5z" />
    <glyph glyph-name="dollar" unicode="$" horiz-adv-x="530" 
d="M502 184q0 -77 -53 -129t-143 -65v-95h-74v91q-49 0 -95.5 15.5t-89.5 37.5l14 42q46 -21 92.5 -35.5t95.5 -14.5q84 0 132.5 37.5t48.5 102.5q0 44 -39 74t-148 52q-110 22 -158 62t-48 104q0 71 52.5 118.5t142.5 57.5v101h74v-102q37 -4 72 -15t68 -30l-16 -43
q-37 20 -77 32.5t-83 12.5q-75 0 -119.5 -32.5t-44.5 -87.5q0 -45 39 -69.5t131 -41.5q120 -23 173 -64t53 -116z" />
    <glyph glyph-name="Euro" unicode="&#x20ac;" horiz-adv-x="557" 
d="M391 32q31 0 59 4t58 14l11 -43q-28 -8 -60.5 -14.5t-67.5 -6.5q-132 0 -207 66t-90 197h-66l12 45h51v40h-63l12 46h54q15 130 89.5 196t207.5 66q34 0 66.5 -5.5t60.5 -15.5l-12 -45q-33 10 -62 15t-53 5q-96 0 -152.5 -54.5t-69.5 -161.5h286l-12 -46h-277v-40h267
l-12 -45h-252q14 -107 70 -162t152 -55z" />
    <glyph glyph-name="sterling" unicode="&#xa3;" horiz-adv-x="552" 
d="M167 46h360v-46h-481v46q43 0 60 19.5t17 68.5v183h-77v46h77v110q0 87 41.5 128t129.5 41q45 0 86 -7t84 -21l-11 -40q-41 11 -74 16t-64 5q-66 0 -92 -25.5t-26 -89.5v-117h204v-46h-204v-183q0 -30 -7 -51t-23 -37z" />
    <glyph glyph-name="yen" unicode="&#xa5;" horiz-adv-x="512" 
d="M477 628l-176 -314h156v-46h-165v-40h165v-46h-165v-182h-72v182h-162v46h162v40h-162v46h151l-180 314h83l151 -286l152 286h62z" />
    <glyph glyph-name="asciitilde" unicode="~" horiz-adv-x="434" 
d="M341 288l26 -26q-22 -34 -41.5 -47t-48.5 -13q-18 0 -35 5t-30 12t-28.5 12t-31.5 5q-18 0 -31 -7t-26 -24l-27 25q22 34 42 47t48 13q22 0 37.5 -5.5t29.5 -12.5q13 -7 26.5 -11t31.5 -4q19 0 32 7t26 24z" />
    <glyph glyph-name="divide" unicode="&#xf7;" horiz-adv-x="461" 
d="M189 347v76h98v-76h-98zM61 190v68h340v-68h-340zM189 26v76h98v-76h-98z" />
    <glyph glyph-name="equal" unicode="=" horiz-adv-x="392" 
d="M68 337h256v-61h-256v61zM68 170h256v-61h-256v61z" />
    <glyph glyph-name="greater" unicode="&#x3e;" horiz-adv-x="430" 
d="M64 114l258 110l-258 111v75l329 -155v-61l-329 -155v75z" />
    <glyph glyph-name="less" unicode="&#x3c;" horiz-adv-x="430" 
d="M366 114v-75l-329 155v61l329 155v-75l-258 -111z" />
    <glyph glyph-name="logicalnot" unicode="&#xac;" horiz-adv-x="560" 
d="M489 315v-266h-76v217h-361v49h437z" />
    <glyph glyph-name="minus" unicode="&#x2212;" horiz-adv-x="411" 
d="M342 205h-273v46h273v-46z" />
    <glyph glyph-name="multiply" unicode="&#xd7;" horiz-adv-x="448" 
d="M56 349l41 43l131 -128l122 119l40 -43l-119 -119l122 -118l-44 -47l-121 122l-130 -130l-44 46l130 127z" />
    <glyph glyph-name="percent" unicode="%" horiz-adv-x="824" 
d="M184 642q72 0 111.5 -43t39.5 -121q0 -77 -39.5 -120t-111.5 -43t-111.5 43t-39.5 120q0 78 39.5 121t111.5 43zM641 628h62l-517 -628h-68zM184 611q-46 0 -71.5 -35t-25.5 -98q0 -62 25.5 -97t71.5 -35t71.5 35t25.5 97q0 63 -25.5 98t-71.5 35zM639 314q72 0 112 -43
t40 -121t-40 -121t-112 -43q-71 0 -110.5 43t-39.5 121t39.5 121t110.5 43zM639 283q-46 0 -71.5 -35t-25.5 -98t25.5 -98t71.5 -35t72 35t26 98t-26 98t-72 35z" />
    <glyph glyph-name="perthousand" unicode="&#x2030;" horiz-adv-x="1196" 
d="M184 642q72 0 111.5 -43t39.5 -121q0 -77 -39.5 -120t-111.5 -43t-111.5 43t-39.5 120q0 78 39.5 121t111.5 43zM642 628h61l-517 -628h-68zM184 611q-46 0 -71.5 -35t-25.5 -98q0 -62 25.5 -97t71.5 -35t72 35t26 97q0 63 -26 98t-72 35zM639 314q72 0 112 -43t40 -121
t-40 -121t-112 -43t-111.5 43t-39.5 121t39.5 121t111.5 43zM1017 314q72 0 111.5 -43t39.5 -121t-39.5 -121t-111.5 -43t-111.5 43t-39.5 121t39.5 121t111.5 43zM639 283q-46 0 -71.5 -35t-25.5 -98t25.5 -98t71.5 -35t71.5 35t25.5 98t-25.5 98t-71.5 35zM1017 283
q-46 0 -72 -35t-26 -98t26 -98t72 -35t71.5 35t25.5 98t-25.5 98t-71.5 35z" />
    <glyph glyph-name="plus" unicode="+" horiz-adv-x="479" 
d="M441 255v-61h-171v-172h-61v172h-171v61h171v171h61v-171h171z" />
    <glyph glyph-name="plusminus" unicode="&#xb1;" horiz-adv-x="534" 
d="M469 269h-170v-131h-63v131h-171v51h171v126h63v-126h170v-51zM469 35h-404v51h404v-51z" />
    <glyph glyph-name="uniF8FF" unicode="&#xf8ff;" horiz-adv-x="1095" 
d="M218 427q31 -2 56.5 -17.5t25.5 -51.5q0 -23 -12.5 -42t-32.5 -27q-3 -1 -5 -2l-4 -2l66 -116h-91l-55 103q-8 -1 -17 -1h-18v-102h-79v259h129h18.5t18.5 -1zM131 307q32 0 61 10t29 40q0 12 -7 21.5t-19 11.5q-5 1 -9.5 1h-9.5h-45v-84zM611 261q0 52 31.5 75.5
t79.5 23.5q19 0 38 -3t36 -8l-12 -35q-12 3 -23.5 5t-24.5 2q-28 0 -39.5 -16t-11.5 -44t12.5 -43t40.5 -15q13 0 23.5 1.5t22.5 4.5l12 -35q-17 -5 -36 -8t-38 -3q-48 0 -79.5 23.5t-31.5 74.5zM453 360q53 0 85.5 -22t32.5 -77q0 -53 -32 -75.5t-86 -22.5
q-50 0 -84.5 20.5t-34.5 77.5t34 78t85 21zM1044 283v-106q-24 -7 -49.5 -10.5t-51.5 -3.5q-18 0 -38 2t-36.5 8.5t-27.5 18.5t-11 32q0 16 9 27.5t22.5 19t30 11t32.5 4.5q11 1 23 1h23v16q0 13 -10.5 17t-29.5 4q-16 0 -32.5 -2.5t-32.5 -6.5l-13 34q23 6 48 8.5t50 2.5
q49 0 71.5 -19t22.5 -58zM453 196q28 0 35.5 16.5t7.5 48.5q0 36 -7.5 51.5t-35.5 15.5q-29 0 -36.5 -15.5t-7.5 -51.5q0 -32 7.5 -48.5t36.5 -16.5zM970 196v63h-16.5t-16.5 -1q-13 -1 -25.5 -9.5t-12.5 -24.5q0 -17 14 -23t31 -6h13.5t12.5 1zM264 46q-54 0 -107.5 -7
t-104.5 -19v82q51 12 103.5 18t105.5 6q52 0 103.5 -6t100.5 -17q48 -11 98 -17.5t101 -6.5q22 0 43 3t41 8q1 0 1.5 -0.5t0.5 -1.5v-3q-33 -22 -66.5 -44t-67.5 -41q-38 1 -75 7.5t-73 14.5q-49 11 -100 17.5t-104 6.5zM813 105q3 4 6.5 5.5t7.5 1.5h217v-90h-282z" />
    <glyph glyph-name="bar" unicode="|" horiz-adv-x="248" 
d="M161 -151h-74v779h74v-779z" />
    <glyph glyph-name="brokenbar" unicode="&#xa6;" horiz-adv-x="248" 
d="M161 285h-74v343h74v-343zM87 166h74v-375h-74v375z" />
    <glyph glyph-name="at" unicode="@" horiz-adv-x="895" 
d="M459 642q89 0 161 -24.5t122 -70t77 -110.5t27 -145q0 -63 -17.5 -119t-47.5 -97.5t-70.5 -65.5t-86.5 -24q-37 0 -57 21t-20 83q-29 -47 -68.5 -75.5t-76.5 -28.5q-66 0 -102.5 59.5t-36.5 169.5q0 112 53 179.5t140 67.5q46 0 85 -13.5t76 -32.5v-378q0 -4 2 -6.5
t5 -2.5q30 0 57 21.5t47 59t31.5 87.5t11.5 107q0 134 -84.5 213t-227.5 79q-76 0 -138 -25.5t-104.5 -72.5t-66 -114.5t-23.5 -150.5q0 -81 22.5 -146t64.5 -110.5t102 -70t134 -24.5q40 0 75.5 7.5t71.5 17.5l15 -41q-35 -14 -76 -22t-86 -8q-93 0 -167.5 28t-127 79
t-80.5 125t-28 165q0 94 29 170t82 129t130 81.5t171 28.5zM547 160v235q-22 9 -44.5 15.5t-50.5 6.5q-51 0 -82 -52.5t-31 -140.5q0 -105 18 -150t61 -45q33 0 69.5 37.5t59.5 93.5z" />
    <glyph glyph-name="ampersand" unicode="&#x26;" horiz-adv-x="708" 
d="M711 24l-57 -51l-142 124q-43 -50 -108.5 -80.5t-128.5 -30.5q-106 0 -171 48.5t-65 128.5q0 55 44 100.5t140 86.5q-43 34 -69 75t-26 75q0 64 49 103t129 39q79 0 127.5 -38t48.5 -100q0 -40 -42 -84t-111 -75l174 -146q19 31 32.5 65t21.5 71l64 -9q-8 -45 -25 -87.5
t-42 -82.5zM312 596q-51 0 -82 -27t-31 -71q0 -25 25.5 -57.5t66.5 -62.5q54 24 87.5 57.5t33.5 64.5q0 43 -27.5 69.5t-72.5 26.5zM115 163q0 -59 44 -95t116 -36q49 0 101.5 29t88.5 77l-203 177q-76 -34 -111.5 -70t-35.5 -82z" />
    <glyph glyph-name="paragraph" unicode="&#xb6;" horiz-adv-x="560" 
d="M26 442q0 92 51.5 139t151.5 47h119v-837h-74v446h-37q-104 0 -157.5 52t-53.5 153zM394 -209v837h74v-837h-74z" />
    <glyph glyph-name="copyright" unicode="&#xa9;" horiz-adv-x="752" 
d="M703 315q0 -70 -25.5 -130.5t-69.5 -104.5t-103.5 -69t-127.5 -25q-75 0 -136 24.5t-103 68t-65 104t-23 132.5q0 70 26 130t70 103.5t103.5 68.5t127.5 25t127.5 -25t103.5 -68t69.5 -103.5t25.5 -130.5zM652 315q0 60 -21 112.5t-58 90.5t-87.5 60.5t-108.5 22.5
t-109 -22t-88 -60t-58.5 -91t-21.5 -113q0 -63 20.5 -116.5t57.5 -91.5t88.5 -59.5t113.5 -21.5q57 0 107 23t86.5 61.5t57.5 91.5t21 113zM384 161q17 0 41.5 4t55.5 12l7 -31q-34 -11 -64 -16.5t-56 -5.5q-80 0 -121 48.5t-41 141.5t41 141.5t121 48.5q28 0 58 -5.5
t62 -15.5l-7 -31q-31 8 -55.5 12t-41.5 4q-60 0 -91 -39t-31 -114q0 -76 31 -115t91 -39z" />
    <glyph glyph-name="registered" unicode="&#xae;" horiz-adv-x="752" 
d="M703 315q0 -70 -25.5 -130.5t-69.5 -104.5t-103.5 -69t-127.5 -25q-75 0 -136 24.5t-103 68t-65 104t-23 132.5q0 70 26 130t70 103.5t103.5 68.5t127.5 25t127.5 -25t103.5 -68t69.5 -103.5t25.5 -130.5zM652 315q0 60 -21 112.5t-58 90.5t-87.5 60.5t-108.5 22.5
t-109 -22t-88 -60t-58.5 -91t-21.5 -113q0 -63 20.5 -116.5t57.5 -91.5t88.5 -59.5t113.5 -21.5q57 0 107 23t86.5 61.5t57.5 91.5t21 113zM521 413q0 -36 -21.5 -59t-67.5 -35l107 -183h-54l-95 175q-23 -3 -47 -4.5t-52 -1.5v-169h-43v368h135q71 0 104.5 -22t33.5 -69z
M476 417q0 31 -24 45.5t-75 14.5h-86v-145h8q91 1 134 21.5t43 63.5z" />
    <glyph glyph-name="section" unicode="&#xa7;" horiz-adv-x="561" 
d="M533 202q0 -38 -17.5 -72.5t-48.5 -56.5q8 -13 11.5 -29.5t3.5 -35.5q0 -82 -60.5 -127t-170.5 -45q-49 0 -90 13t-87 35l13 39q41 -19 81 -32t83 -13q78 0 121.5 32t43.5 89q0 37 -37.5 61t-143.5 58q-111 37 -155 75t-44 98q0 34 19.5 63.5t53.5 48.5q-20 16 -29.5 37
t-9.5 49q0 72 56 112.5t154 40.5q41 0 85.5 -11t78.5 -33l-15 -36q-34 17 -72.5 27.5t-72.5 10.5q-70 0 -110 -28.5t-40 -77.5q0 -30 33 -50t130 -50q132 -40 184 -82.5t52 -109.5zM254 182q63 -20 106.5 -37.5t70.5 -34.5q16 14 26 37.5t10 48.5q0 41 -47 72t-166 69
q-28 9 -52 17.5t-43 17.5q-28 -13 -43.5 -34t-15.5 -46q0 -34 34 -58t120 -52z" />
    <glyph glyph-name="degree" unicode="&#xb0;" horiz-adv-x="358" 
d="M179 642q63 0 96 -39t33 -113t-33 -113t-96 -39t-96 39t-33 113t33 113t96 39zM91 490q0 -63 22.5 -97t65.5 -34t65.5 34t22.5 97t-22.5 96.5t-65.5 33.5t-65.5 -33.5t-22.5 -96.5z" />
    <glyph glyph-name="uni2116" unicode="&#x2116;" horiz-adv-x="990" 
d="M796 328q-71 0 -108.5 40.5t-37.5 117.5q0 75 37.5 115.5t108.5 40.5t109 -40.5t38 -115.5q0 -77 -38 -117.5t-109 -40.5zM530 628h55v-628h-90l-352 553v-553h-54v628h84l357 -554v554zM885 486q0 57 -23 87.5t-66 30.5t-66 -30.5t-23 -87.5t23 -88t66 -31t66 31t23 88z
M661 226v50h271v-50h-271z" />
    <glyph glyph-name="asciicircum" unicode="^" horiz-adv-x="441" 
d="M110 298h-75l155 330h61l155 -330h-75l-111 259z" />
    <glyph glyph-name="dagger" unicode="&#x2020;" horiz-adv-x="485" 
d="M24 374v46h182v208h73v-208h182v-46h-182v-536h-73v536h-182z" />
    <glyph glyph-name="daggerdbl" unicode="&#x2021;" horiz-adv-x="545" 
d="M54 101h182v273h-182v46h182v208h73v-208h182v-46h-182v-273h182v-46h-182v-217h-73v217h-182v46z" />
    <glyph glyph-name="uni0374" unicode="&#x374;" horiz-adv-x="237" 
d="M31 380l83 248h93l-125 -248h-51z" />
    <glyph glyph-name="uni0375" unicode="&#x375;" horiz-adv-x="237" 
d="M31 -81l83 248h93l-125 -248h-51z" />
    <glyph glyph-name="acute" unicode="&#xb4;" horiz-adv-x="311" 
d="M167 531h-57l85 107h91z" />
    <glyph glyph-name="breve" unicode="&#x2d8;" horiz-adv-x="388" 
d="M323 638q0 -27 -11 -48t-29.5 -34.5t-42 -21t-47.5 -7.5q-51 0 -92 27t-41 84h60q0 -37 22.5 -53.5t49.5 -16.5q30 0 51 17.5t21 52.5h59z" />
    <glyph glyph-name="caron" unicode="&#x2c7;" horiz-adv-x="367" 
d="M315 638l-90 -107h-85l-89 107h60l72 -65l72 65h60z" />
    <glyph glyph-name="cedilla" unicode="&#xb8;" horiz-adv-x="634" 
d="M327 -170l8 42q14 -4 26 -6t20 -2q21 0 32 7.5t11 21.5t-11 22t-33 8q-9 0 -20.5 -2.5t-24.5 -6.5l-8 41q16 4 33.5 6.5t33.5 2.5q52 0 80 -18.5t28 -52.5q0 -35 -28 -53.5t-81 -18.5q-13 0 -30 2.5t-36 6.5z" />
    <glyph glyph-name="circumflex" unicode="&#x2c6;" horiz-adv-x="388" 
d="M323 531h-59l-73 66l-72 -66h-59l89 107h85z" />
    <glyph glyph-name="dieresis" unicode="&#xa8;" horiz-adv-x="635" 
d="M283 628v-97h-70v97h70zM429 628v-97h-70v97h70z" />
    <glyph glyph-name="dotaccent" unicode="&#x2d9;" horiz-adv-x="191" 
d="M126 628v-97h-71v97h71z" />
    <glyph glyph-name="grave" unicode="`" horiz-adv-x="321" 
d="M178 531l-119 107h91l85 -107h-57z" />
    <glyph glyph-name="hungarumlaut" unicode="&#x2dd;" horiz-adv-x="622" 
d="M177 531h-57l85 107h91zM308 531h-57l85 107h91z" />
    <glyph glyph-name="macron" unicode="&#xaf;" horiz-adv-x="513" 
d="M134 571v57h272v-57h-272z" />
    <glyph glyph-name="ogonek" unicode="&#x2db;" horiz-adv-x="490" 
d="M345 34l32 -17q-66 -56 -87.5 -83t-21.5 -56q0 -23 24 -40.5t55 -17.5h84v-31q-22 -4 -54 -8t-54 -4q-46 0 -80.5 28.5t-34.5 65.5q0 46 32.5 84t104.5 79z" />
    <glyph glyph-name="ring" unicode="&#x2da;" horiz-adv-x="286" 
d="M254 614q1 -4 2 -9t1 -10q0 -34 -28.5 -51.5t-85.5 -17.5t-86 17.5t-29 51.5t29 51.5t86 17.5q49 0 77 -12.5t34 -37.5zM184 595q0 25 -9.5 34.5t-31.5 9.5q-24 0 -33.5 -9.5t-9.5 -34.5t9.5 -34.5t33.5 -9.5q22 0 31.5 9.5t9.5 34.5z" />
    <glyph glyph-name="tilde" unicode="&#x2dc;" horiz-adv-x="482" 
d="M356 616l27 -26q-22 -33 -42.5 -46t-48.5 -13q-20 0 -34.5 5t-27.5 11q-14 7 -30.5 12.5t-32.5 5.5q-18 0 -30.5 -7t-26.5 -25l-27 26q22 33 42 46t48 13q20 0 38.5 -6t31.5 -13q12 -6 25.5 -10t29.5 -4q18 0 31 7t27 24z" />
    <glyph glyph-name="acute.case" horiz-adv-x="272" 
d="M153 711h-58l85 109h92z" />
    <glyph glyph-name="breve.case" horiz-adv-x="325" 
d="M295 820q0 -52 -35.5 -83t-94.5 -31q-60 0 -96.5 30.5t-36.5 83.5h60q0 -34 19.5 -54t52.5 -20t52.5 20t19.5 54h59z" />
    <glyph glyph-name="caron.case" horiz-adv-x="415" 
d="M338 820l-89 -109h-85l-89 109h59l73 -68l72 68h59z" />
    <glyph glyph-name="circumflex.case" horiz-adv-x="188" 
d="M225 711h-59l-72 67l-73 -67h-59l89 109h85z" />
    <glyph glyph-name="dieresis.case" horiz-adv-x="441" 
d="M183 808v-97h-71v97h71zM346 808v-97h-71v97h71z" />
    <glyph glyph-name="dotaccent.case" horiz-adv-x="201" 
d="M60 711v97h82v-97h-82z" />
    <glyph glyph-name="grave.case" horiz-adv-x="150" 
d="M69 711l-119 109h92l85 -109h-58z" />
    <glyph glyph-name="hungarumlaut.case" horiz-adv-x="496" 
d="M159 711h-57l85 109h91zM290 711h-57l85 109h91z" />
    <glyph glyph-name="macron.case" horiz-adv-x="373" 
d="M51 711v57h272v-57h-272z" />
    <glyph glyph-name="ring.case" horiz-adv-x="619" 
d="M190 773q0 35 28 52t86 17t86 -17t28 -52t-28 -51.5t-86 -16.5t-86 16.5t-28 51.5zM346 773q0 25 -9.5 35t-32.5 10t-32.5 -10t-9.5 -35q0 -24 9.5 -34t32.5 -10t32.5 10t9.5 34z" />
    <glyph glyph-name="tilde.case" horiz-adv-x="633" 
d="M440 797l27 -26q-22 -33 -42.5 -46.5t-47.5 -13.5q-21 0 -36 5t-28 12t-29 12t-32 5q-18 0 -31 -7t-26 -24l-27 25q21 33 41.5 46.5t48.5 13.5q21 0 39 -7t34 -14q11 -5 23.5 -9t28.5 -4q17 0 30.5 7.5t26.5 24.5z" />
    <glyph glyph-name="dotbelowcomb" unicode="&#x323;" horiz-adv-x="167" 
d="M125 -145h-84v77h84v-77z" />
    <glyph glyph-name="tonos" unicode="&#x384;" horiz-adv-x="233" 
d="M62 531l37 157h86l-69 -157h-54z" />
    <glyph glyph-name="dieresistonos" unicode="&#x385;" horiz-adv-x="383" 
d="M139 531l37 157h86l-70 -157h-53zM101 628v-97h-70v97h70zM344 628v-97h-70v97h70z" />
    <glyph glyph-name="tonos.case" horiz-adv-x="233" 
d="M62 673l37 157h86l-69 -157h-54z" />
    <glyph glyph-name="uniE132" unicode="&#xe132;" horiz-adv-x="461" 
d="M374 531h-57l85 107h91zM156 531h-57l85 107h91zM149 446v-446h-71v446h71zM383 446v-535q0 -65 -30.5 -99.5t-97.5 -34.5h-8l-12 46h17q34 0 47.5 21t13.5 67v535h70z" />
    <glyph glyph-name="uniE133" unicode="&#xe133;" horiz-adv-x="517" 
d="M415 711h-58l85 109h92zM159 711h-58l85 109h92zM163 628v-628h-74v628h74zM353 628h74v-665q0 -72 -34 -103.5t-112 -31.5q-19 0 -34.5 3t-31.5 9l11 41q13 -3 25 -5t25 -2q44 0 60.5 19t16.5 70v665z" />
    <glyph glyph-name="uni0326" unicode="&#x326;" horiz-adv-x="170" 
d="M84 -246h-59l23 178h97z" />
    <glyph glyph-name="dotlessi" unicode="&#x131;" horiz-adv-x="227" 
d="M149 446v-446h-71v446h71z" />
    <glyph glyph-name="uni0237" unicode="&#x237;" horiz-adv-x="234" 
d="M156 446v-535q0 -65 -30.5 -99.5t-97.5 -34.5h-8l-12 46h17q34 0 47.5 21t13.5 67v535h70z" />
    <glyph glyph-name="florin" unicode="&#x192;" horiz-adv-x="544" 
d="M89 -59q46 0 66.5 18.5t30.5 69.5l77 371h-79l10 46h79l12 58q15 72 56 105t114 33q14 0 32.5 -4t34.5 -9l-20 -41q-12 4 -25 6t-24 2q-43 0 -65 -20.5t-32 -71.5l-12 -58h117l-10 -46h-117l-77 -371q-14 -69 -55 -101.5t-115 -32.5q-16 0 -33 3.5t-34 9.5l20 41
q12 -4 24 -6t25 -2z" />
    <glyph glyph-name="partialdiff" unicode="&#x2202;" horiz-adv-x="580" 
d="M252 392q58 0 107.5 -19t81.5 -69q0 151 -48 221.5t-151 70.5q-19 0 -37.5 -3.5t-37.5 -7.5l-12 46q22 5 43.5 8t43.5 3q143 0 213 -89.5t70 -271.5q0 -149 -62 -222t-188 -73q-116 0 -179.5 57t-63.5 161q0 90 57.5 139t162.5 49zM275 32q81 0 122.5 46.5t41.5 112.5
q0 65 -45 106t-131 41q-75 0 -114.5 -37.5t-39.5 -109.5q0 -78 42.5 -118.5t123.5 -40.5z" />
    <glyph glyph-name="trademark" unicode="&#x2122;" horiz-adv-x="640" 
d="M484 628h64l32 -283h-54l-25 234l-70 -234h-47l-64 230l-21 -230h-36l28 283h66l62 -213zM248 628v-31h-83v-252h-54v252h-83v31h220z" />
    <glyph glyph-name="ellipsis" unicode="&#x2026;" horiz-adv-x="562" 
d="M162 0h-98v77h98v-77zM330 0h-98v77h98v-77zM498 0h-98v77h98v-77z" />
    <glyph glyph-name="northWestArrow" unicode="&#x2196;" horiz-adv-x="719" 
d="M59 628h316v-64h-206l530 -529l-47 -47l-526 527v-206h-67v319z" />
    <glyph glyph-name="downArrow" unicode="&#x2193;" horiz-adv-x="493" 
d="M247 -14l-225 222l45 46l146 -146v520h66v-519l147 147l45 -46z" />
    <glyph glyph-name="leftArrow" unicode="&#x2190;" horiz-adv-x="697" 
d="M25 315l224 224l46 -45l-147 -147h511v-66h-512l146 -146l-46 -45z" />
    <glyph glyph-name="upArrow" unicode="&#x2191;" horiz-adv-x="494" 
d="M214 0v512l-146 -146l-45 46l225 222l224 -224l-45 -46l-147 147v-511h-66z" />
    <glyph glyph-name="leftRightArrow" unicode="&#x2194;" horiz-adv-x="720" 
d="M25 315l224 224l46 -45l-147 -147h424l-147 147l46 45l224 -224l-222 -225l-46 45l146 146h-426l146 -146l-46 -45z" />
    <glyph glyph-name="southEastArrow" unicode="&#x2198;" horiz-adv-x="719" 
d="M20 591l47 47l526 -527v206h67v-317h-316v62h206z" />
    <glyph glyph-name="rightArrow" unicode="&#x2192;" horiz-adv-x="697" 
d="M38 281v66h511l-147 147l46 45l224 -224l-222 -225l-46 45l146 146h-512z" />
    <glyph glyph-name="northEastArrow" unicode="&#x2197;" horiz-adv-x="720" 
d="M20 36l530 529h-206v63h316v-318h-67v206l-526 -527z" />
    <glyph glyph-name="southWestArrow" unicode="&#x2199;" horiz-adv-x="719" 
d="M59 0v317h67v-206l526 527l47 -47l-530 -529h206v-62h-316z" />
    <glyph glyph-name="upDownArrow" unicode="&#x2195;" horiz-adv-x="517" 
d="M259 -14l-225 222l45 46l146 -146v404l-146 -146l-45 46l225 222l224 -224l-45 -46l-147 147v-402l147 147l45 -46z" />
    <glyph glyph-name="checkmark" unicode="&#x2713;" horiz-adv-x="519" 
d="M206 66l-182 182l48 49l137 -137l246 246l45 -46z" />
    </font>
</defs>
</svg>
