<?xml version="1.0" standalone="no"?>
<!DOCTYPE svg PUBLIC "-//W3C//DTD SVG 20010904//EN"
 "http://www.w3.org/TR/2001/REC-SVG-20010904/DTD/svg10.dtd">
<svg version="1.0" xmlns="http://www.w3.org/2000/svg"
 width="513.000000pt" height="513.000000pt" viewBox="0 0 513.000000 513.000000"
 preserveAspectRatio="xMidYMid meet">

<g transform="translate(0.000000,513.000000) scale(0.100000,-0.100000)"
fill="#000000" stroke="none">
<path d="M1613 5110 c-283 -36 -544 -163 -755 -368 -197 -191 -321 -414 -390
-701 -19 -78 -21 -124 -25 -518 l-4 -433 -215 0 -214 0 0 -1225 0 -1225 638 0
637 0 642 643 642 642 4 310 c4 243 8 326 21 385 69 304 224 570 447 764 l58
51 1 217 c0 170 -4 240 -19 330 -51 295 -187 554 -399 760 -189 184 -410 300
-666 353 -96 19 -305 27 -403 15z m335 -772 c180 -74 319 -207 385 -369 21
-52 22 -67 25 -466 l3 -413 -590 0 -591 0 0 388 c0 312 3 399 15 445 49 188
221 357 435 429 83 27 233 21 318 -14z"/>
<path d="M3810 3510 c-238 -29 -480 -145 -660 -317 -111 -105 -170 -186 -241
-328 -140 -284 -161 -607 -58 -905 l21 -63 -631 -631 -631 -631 0 -208 c0
-119 5 -227 11 -252 14 -57 66 -117 127 -147 43 -21 62 -23 222 -26 l175 -3
55 55 c52 53 57 56 105 56 48 0 54 3 103 53 l52 53 0 107 0 107 108 0 108 0
52 53 52 53 0 107 0 107 167 0 166 0 52 40 c99 77 141 158 152 296 l6 84 100
0 c99 0 102 1 133 31 l32 31 87 -22 c173 -43 399 -42 579 4 125 32 297 115
401 193 483 361 615 1027 306 1541 -240 399 -686 617 -1151 562z m712 -448
c60 -30 120 -90 150 -150 19 -39 23 -63 23 -142 0 -86 -3 -100 -29 -148 -60
-107 -163 -167 -286 -167 -62 0 -86 6 -132 28 -142 70 -215 227 -173 372 29
102 88 170 185 215 63 29 195 25 262 -8z m-1147 -1302 l50 -50 -748 -748 -747
-747 -52 53 -53 52 745 745 c410 410 747 745 750 745 3 0 28 -23 55 -50z"/>
</g>
</svg>
