<?xml version="1.0" standalone="no"?>
<!DOCTYPE svg PUBLIC "-//W3C//DTD SVG 20010904//EN"
 "http://www.w3.org/TR/2001/REC-SVG-20010904/DTD/svg10.dtd">
<svg version="1.0" xmlns="http://www.w3.org/2000/svg"
 width="708.000000pt" height="708.000000pt" viewBox="0 0 708.000000 708.000000"
 preserveAspectRatio="xMidYMid meet">
<metadata>
Created by potrace 1.14, written by Peter Selinger 2001-2017
</metadata>
<g transform="translate(0.000000,708.000000) scale(0.100000,-0.100000)"
fill="#000000" stroke="none">
<path d="M410 6756 c-32 -10 -56 -46 -31 -46 6 0 7 8 4 17 -6 15 -5 16 9 3 9
-8 12 -17 7 -18 -5 -2 -6 -8 -3 -14 4 -6 -1 -8 -15 -3 -20 6 -20 5 4 -21 23
-25 25 -44 4 -44 -5 0 -9 7 -7 16 2 10 -3 18 -10 20 -7 1 -8 0 -3 -2 5 -3 7
-14 4 -24 -4 -16 0 -20 18 -21 17 -1 19 -3 7 -6 -10 -2 -18 -11 -18 -19 0 -10
-5 -12 -12 -8 -10 6 -10 5 -1 -7 9 -11 9 -19 2 -26 -8 -8 -7 -13 0 -18 6 -3
11 -3 10 2 -1 4 0 11 1 16 1 4 3 12 4 19 0 6 8 13 16 15 13 4 13 3 0 -6 -8 -6
-12 -11 -8 -11 4 0 3 -13 -2 -29 -6 -21 -4 -36 8 -53 14 -20 14 -21 0 -10 -12
10 -18 10 -27 -2 -9 -11 -8 -14 6 -12 15 1 17 -6 15 -36 -1 -20 2 -39 8 -43 6
-3 8 -11 4 -16 -3 -5 -10 -7 -15 -4 -5 4 -9 -1 -9 -10 0 -10 -5 -14 -12 -9
-10 5 -10 4 -1 -6 9 -9 9 -17 2 -26 -7 -8 -7 -14 1 -19 6 -4 10 -3 9 2 -1 4 0
11 1 16 1 4 3 12 4 19 0 6 8 13 16 15 13 4 13 3 0 -6 -8 -6 -12 -11 -8 -11 4
0 3 -13 -2 -28 -4 -17 -3 -36 2 -47 7 -12 7 -16 0 -11 -5 3 -16 -2 -23 -11
-10 -11 -10 -14 -2 -9 7 4 21 2 30 -3 10 -6 12 -11 6 -11 -7 0 -13 -7 -13 -16
0 -9 5 -12 13 -8 9 6 9 5 0 -8 -7 -8 -10 -18 -6 -21 3 -4 1 -7 -6 -7 -6 0 -11
7 -9 16 2 10 -3 18 -10 20 -7 1 -8 0 -3 -2 5 -3 7 -14 4 -24 -4 -16 0 -20 18
-21 22 0 23 -1 4 -8 -11 -5 -23 -7 -26 -5 -3 2 -6 -3 -6 -10 0 -8 10 -12 24
-10 13 1 21 -2 17 -7 -3 -5 -9 -7 -14 -4 -4 3 -14 -3 -21 -13 -13 -15 -12 -16
4 -3 12 9 17 10 17 2 0 -7 5 -9 12 -5 7 4 8 3 4 -5 -4 -6 -11 -9 -16 -6 -5 3
-11 1 -14 -4 -3 -5 1 -12 10 -15 8 -3 13 -10 10 -15 -4 -5 0 -12 6 -15 7 -3 0
-4 -17 -1 -16 2 -24 2 -17 -1 6 -3 9 -11 5 -17 -4 -6 0 -8 10 -4 12 4 14 2 10
-10 -5 -12 -3 -14 8 -8 8 5 11 5 6 -1 -12 -12 -30 -12 -39 1 -4 5 -6 0 -6 -11
2 -15 8 -20 25 -18 13 1 21 -2 17 -7 -3 -5 -9 -7 -14 -4 -4 3 -14 -3 -21 -13
-13 -15 -12 -16 4 -3 12 9 17 10 17 2 0 -7 5 -9 12 -5 7 4 8 3 4 -5 -4 -6 -11
-9 -16 -6 -5 3 -11 1 -14 -4 -3 -5 1 -12 10 -15 8 -3 13 -10 10 -15 -4 -5 0
-12 6 -15 7 -3 0 -4 -17 -1 -16 2 -24 2 -17 -1 6 -3 9 -11 5 -17 -4 -6 0 -8
10 -4 12 4 14 2 10 -10 -5 -12 -3 -14 7 -8 9 5 11 4 6 -4 -4 -6 -12 -9 -17 -6
-5 4 -9 -1 -9 -10 0 -10 -5 -13 -12 -9 -10 6 -10 5 -1 -7 9 -11 9 -19 2 -26
-8 -8 -7 -13 0 -18 6 -3 11 -3 10 2 -1 4 0 11 1 16 1 4 3 12 4 19 0 6 8 13 16
15 13 4 13 3 0 -6 -8 -6 -12 -11 -8 -11 4 0 3 -13 -2 -29 -6 -21 -4 -36 8 -53
14 -20 14 -21 0 -10 -12 10 -18 10 -27 -2 -9 -11 -8 -14 6 -12 15 1 17 -6 15
-36 -1 -20 2 -39 8 -43 6 -3 8 -11 4 -16 -3 -5 -10 -7 -15 -4 -5 4 -9 -1 -9
-10 0 -10 -5 -13 -12 -9 -10 6 -10 5 -1 -7 9 -11 9 -19 2 -26 -8 -8 -7 -13 0
-18 6 -3 11 -3 10 2 -1 4 0 11 1 16 1 4 3 12 4 19 0 6 8 13 16 15 9 3 11 1 4
-4 -6 -4 -12 -34 -13 -67 -2 -46 0 -56 11 -50 10 6 10 4 -1 -9 -15 -18 -26
-23 -16 -7 3 6 -1 7 -9 4 -9 -3 -16 -10 -16 -16 0 -5 5 -6 10 -3 6 3 13 -2 17
-12 4 -10 11 -21 17 -25 7 -5 7 -8 -2 -8 -7 0 -10 -5 -6 -11 4 -8 -1 -9 -17
-4 -19 5 -21 4 -9 -4 13 -10 13 -12 0 -21 -8 -5 -10 -10 -4 -10 5 0 15 5 21
11 9 9 10 7 6 -10 -3 -11 0 -28 7 -36 11 -14 7 -19 -12 -16 -5 0 -8 -6 -8 -15
0 -9 -5 -12 -12 -8 -10 6 -10 5 -1 -7 9 -11 9 -19 2 -26 -8 -8 -7 -13 0 -18 6
-3 11 -3 10 2 -1 4 0 11 1 16 1 4 3 12 4 19 0 6 8 13 16 15 9 3 11 1 5 -4 -5
-4 -12 -19 -13 -33 -2 -13 -11 -30 -20 -36 -14 -10 -12 -11 11 -9 15 2 25 -1
21 -6 -3 -5 -9 -7 -14 -4 -4 3 -14 -3 -21 -13 -13 -15 -12 -16 4 -3 12 9 17
10 17 2 0 -7 5 -9 12 -5 7 4 8 3 4 -5 -4 -6 -11 -9 -16 -6 -5 3 -11 1 -14 -4
-3 -5 1 -12 10 -15 8 -3 13 -10 10 -15 -4 -5 0 -12 6 -15 7 -3 0 -4 -17 -1
-16 2 -24 2 -17 -1 6 -3 9 -11 5 -17 -4 -6 0 -8 10 -4 12 4 14 2 10 -10 -5
-12 -3 -14 8 -8 8 5 11 5 6 -1 -12 -12 -30 -12 -39 1 -4 5 -6 0 -6 -11 2 -15
8 -20 25 -18 13 1 21 -2 17 -7 -3 -5 -9 -7 -14 -4 -4 3 -14 -3 -21 -13 -13
-15 -12 -16 3 -3 13 9 18 10 18 2 0 -7 5 -9 12 -5 7 4 8 3 4 -5 -4 -6 -11 -9
-16 -6 -5 3 -11 1 -14 -4 -3 -5 1 -12 10 -15 8 -3 13 -10 10 -15 -4 -5 0 -12
6 -15 7 -3 0 -4 -17 -1 -16 2 -24 2 -17 -1 6 -3 9 -11 5 -17 -4 -6 0 -8 11 -4
14 6 15 3 6 -14 -8 -15 -7 -27 4 -49 16 -32 9 -44 -21 -34 -15 5 -16 4 -3 -5
13 -10 13 -12 0 -21 -8 -5 -10 -10 -5 -10 6 0 16 5 22 11 8 8 13 7 18 -2 5 -8
4 -10 -3 -5 -8 5 -12 0 -12 -13 0 -11 5 -23 10 -26 6 -4 8 -11 4 -16 -3 -5
-10 -7 -15 -4 -5 4 -9 -1 -9 -10 0 -10 -5 -13 -12 -9 -10 6 -10 5 -1 -7 9 -11
9 -19 2 -26 -8 -8 -7 -13 0 -18 6 -3 11 -3 10 2 -1 4 0 11 1 16 1 4 3 12 4 19
0 6 8 13 16 15 13 4 13 3 0 -6 -8 -6 -12 -11 -8 -11 4 0 3 -13 -2 -29 -6 -21
-4 -36 8 -53 14 -20 14 -21 0 -10 -12 10 -18 10 -27 -2 -9 -11 -8 -14 6 -12
15 1 17 -6 15 -36 -1 -20 2 -39 8 -43 6 -3 8 -11 4 -16 -3 -5 -10 -7 -15 -4
-5 4 -9 -1 -9 -10 0 -10 -5 -13 -12 -9 -10 6 -10 5 -1 -7 9 -11 9 -19 2 -26
-8 -8 -7 -13 0 -18 6 -3 11 -3 10 2 -1 4 0 11 1 16 1 4 3 12 4 19 0 6 8 13 16
15 13 4 13 3 0 -6 -8 -6 -12 -11 -8 -11 4 0 3 -13 -2 -28 -4 -17 -3 -36 2 -47
7 -12 7 -16 0 -11 -5 3 -16 -2 -23 -11 -10 -11 -10 -14 -2 -9 7 4 21 2 30 -3
10 -6 12 -11 6 -11 -7 0 -13 -7 -13 -16 0 -9 5 -12 13 -8 9 6 9 5 0 -8 -7 -8
-10 -18 -6 -21 3 -4 1 -7 -6 -7 -6 0 -11 7 -9 16 2 10 -3 18 -10 20 -7 1 -8 0
-3 -2 5 -3 7 -14 4 -24 -4 -16 0 -20 18 -21 22 0 23 -1 4 -8 -11 -5 -23 -7
-26 -5 -3 2 -6 -3 -6 -10 0 -8 10 -12 24 -10 13 1 21 -2 17 -7 -3 -5 -9 -7
-14 -4 -4 3 -14 -3 -21 -13 -13 -15 -12 -16 3 -3 13 9 18 10 18 2 0 -7 5 -9
12 -5 7 4 8 3 4 -5 -4 -6 -11 -9 -16 -6 -5 3 -11 1 -14 -4 -3 -5 1 -12 10 -15
8 -3 13 -10 10 -15 -4 -5 0 -12 6 -15 7 -3 0 -4 -17 -1 -16 2 -24 2 -17 -1 6
-3 9 -11 5 -17 -4 -6 0 -8 10 -4 12 4 14 2 10 -10 -5 -12 -3 -14 8 -8 8 5 11
5 6 -1 -12 -12 -30 -12 -39 1 -4 5 -6 0 -6 -11 2 -15 8 -20 25 -18 13 1 21 -2
17 -7 -3 -5 -9 -7 -14 -4 -4 3 -14 -3 -21 -13 -13 -15 -12 -16 3 -3 13 9 18
10 18 2 0 -7 5 -9 12 -5 7 4 8 3 4 -5 -4 -6 -11 -9 -16 -6 -5 3 -11 1 -14 -4
-3 -5 1 -12 10 -15 8 -3 13 -10 10 -15 -4 -5 0 -12 6 -15 7 -3 0 -4 -17 -1
-16 2 -24 2 -17 -1 6 -3 9 -11 5 -17 -4 -6 0 -8 10 -4 12 4 14 2 10 -10 -5
-12 -3 -14 7 -8 9 5 11 4 6 -4 -4 -6 -12 -9 -17 -6 -5 4 -9 -1 -9 -10 0 -10
-5 -13 -12 -9 -10 6 -10 5 -1 -7 9 -11 9 -19 2 -26 -8 -8 -7 -13 0 -18 6 -3
11 -3 10 2 -1 4 0 11 1 16 1 4 3 12 4 19 0 6 8 13 16 15 13 4 13 3 0 -6 -8 -6
-12 -11 -8 -11 4 0 3 -13 -2 -29 -6 -21 -4 -36 8 -53 14 -20 14 -21 0 -10 -12
10 -18 10 -27 -2 -9 -11 -8 -14 6 -12 15 1 17 -6 15 -36 -1 -20 2 -39 8 -43 6
-3 8 -11 4 -16 -3 -5 -10 -7 -15 -4 -5 4 -9 -1 -9 -10 0 -10 -5 -13 -12 -9
-10 6 -10 5 -1 -7 9 -11 9 -19 2 -26 -8 -8 -7 -13 0 -18 6 -3 11 -3 10 2 -1 4
0 11 1 16 1 4 3 12 4 19 0 6 8 13 16 15 9 3 11 1 4 -4 -6 -4 -12 -34 -13 -67
-2 -46 0 -56 11 -50 10 6 10 4 -1 -9 -15 -18 -26 -23 -16 -7 3 6 -1 7 -9 4 -9
-3 -16 -10 -16 -16 0 -5 5 -6 10 -3 6 3 13 -2 17 -12 4 -10 11 -21 17 -25 7
-5 7 -8 -2 -8 -7 0 -10 -5 -6 -11 4 -8 -1 -9 -17 -4 -19 5 -21 4 -9 -4 13 -10
13 -12 0 -21 -8 -5 -10 -10 -4 -10 5 0 15 5 21 11 9 9 10 7 6 -10 -3 -11 0
-28 7 -36 11 -14 7 -19 -12 -16 -5 0 -8 -6 -8 -15 0 -9 -5 -12 -12 -8 -10 6
-10 5 -1 -7 9 -11 9 -19 2 -26 -8 -8 -7 -13 0 -18 6 -3 11 -3 10 2 -1 4 0 11
1 16 1 4 3 12 4 19 0 6 8 13 16 15 9 3 11 1 5 -4 -5 -4 -12 -19 -13 -33 -2
-13 -11 -30 -20 -36 -14 -10 -12 -11 11 -9 15 2 25 -1 21 -6 -3 -5 -9 -7 -14
-4 -4 3 -14 -3 -21 -13 -13 -15 -12 -16 4 -3 12 9 17 10 17 2 0 -7 5 -9 12 -5
7 4 8 3 4 -5 -4 -6 -11 -9 -16 -6 -5 3 -11 1 -14 -4 -3 -5 1 -12 10 -15 8 -3
13 -10 10 -15 -4 -5 0 -12 6 -15 7 -3 0 -4 -17 -1 -16 2 -24 2 -17 -1 6 -3 9
-11 5 -17 -4 -6 0 -8 10 -4 12 4 14 2 10 -10 -5 -12 -3 -14 8 -8 8 5 11 5 6
-1 -12 -12 -30 -12 -39 1 -4 5 -6 0 -6 -11 2 -15 8 -20 25 -18 13 1 21 -2 17
-7 -3 -5 -9 -7 -14 -4 -4 3 -14 -3 -21 -13 -13 -15 -12 -16 3 -3 13 9 18 10
18 2 0 -7 5 -9 12 -5 7 4 8 3 4 -5 -4 -6 -11 -9 -16 -6 -5 3 -11 1 -14 -4 -3
-5 1 -12 10 -15 8 -3 13 -10 10 -15 -4 -5 0 -12 6 -15 7 -3 0 -4 -17 -1 -16 2
-24 2 -17 -1 6 -3 9 -11 5 -17 -4 -6 0 -8 11 -4 14 6 15 3 6 -14 -8 -15 -7
-27 4 -49 16 -32 9 -44 -21 -34 -15 5 -16 4 -3 -5 13 -10 13 -12 0 -21 -8 -5
-10 -10 -4 -10 5 0 15 5 21 11 8 8 13 7 18 -2 5 -8 4 -10 -3 -5 -8 5 -12 0
-12 -13 0 -11 5 -23 10 -26 6 -4 8 -11 4 -16 -3 -5 -10 -7 -15 -4 -5 4 -9 -1
-9 -10 0 -10 -5 -13 -12 -9 -10 6 -10 5 -1 -7 9 -11 9 -19 2 -26 -8 -8 -7 -13
0 -18 6 -3 11 -3 10 2 -1 4 0 11 1 16 1 4 3 12 4 19 0 6 8 13 16 15 13 4 13 3
0 -6 -8 -6 -12 -11 -8 -11 4 0 3 -13 -2 -29 -6 -21 -4 -36 8 -53 14 -20 14
-21 0 -10 -12 10 -18 10 -27 -2 -9 -11 -8 -14 6 -12 15 1 17 -6 15 -36 -1 -20
2 -39 8 -43 6 -3 8 -11 4 -16 -3 -5 -10 -7 -15 -4 -5 4 -9 -1 -9 -10 0 -10 -5
-13 -12 -9 -10 6 -10 5 -1 -7 9 -11 9 -19 2 -26 -8 -8 -7 -13 0 -18 6 -3 11
-3 10 2 -1 4 0 11 1 16 1 4 3 12 4 19 0 6 8 13 16 15 13 4 13 3 0 -6 -8 -6
-12 -11 -8 -11 4 0 3 -13 -2 -28 -4 -17 -3 -36 2 -47 7 -12 7 -16 0 -11 -5 3
-16 -2 -23 -11 -10 -11 -10 -14 -2 -9 7 4 21 2 30 -3 10 -6 12 -11 6 -11 -7 0
-13 -7 -13 -16 0 -9 5 -12 12 -8 10 6 10 5 1 -8 -7 -8 -10 -18 -6 -21 3 -4 1
-7 -6 -7 -6 0 -11 7 -9 16 2 10 -3 18 -10 20 -7 1 -8 0 -3 -2 5 -3 7 -14 4
-24 -4 -16 0 -20 18 -21 22 0 23 -1 4 -8 -11 -5 -23 -7 -26 -5 -3 2 -6 -3 -6
-10 0 -8 10 -12 24 -10 13 1 21 -2 17 -7 -3 -5 -9 -7 -14 -4 -4 3 -14 -3 -21
-13 -13 -15 -12 -16 3 -3 13 9 18 10 18 2 0 -7 5 -9 12 -5 7 4 8 3 4 -5 -4 -6
-11 -9 -16 -6 -5 3 -11 1 -14 -4 -3 -5 1 -12 10 -15 8 -3 13 -10 10 -15 -4 -5
0 -12 6 -15 7 -3 0 -4 -17 -1 -16 2 -24 2 -17 -1 6 -3 9 -11 5 -17 -4 -6 0 -8
10 -4 12 4 14 2 10 -10 -5 -12 -3 -14 8 -8 8 5 11 5 6 -1 -12 -12 -30 -12 -39
1 -4 5 -6 0 -6 -11 2 -15 8 -20 25 -18 13 1 21 -2 17 -7 -3 -5 -9 -7 -14 -4
-4 3 -14 -3 -21 -13 -13 -15 -12 -16 3 -3 13 9 18 10 18 2 0 -7 5 -9 12 -5 7
4 8 3 4 -5 -4 -6 -11 -9 -16 -6 -5 3 -11 1 -14 -4 -3 -5 1 -12 10 -15 8 -3 13
-10 10 -15 -4 -5 0 -12 6 -15 7 -3 0 -4 -17 -1 -16 2 -24 2 -17 -1 6 -3 9 -11
5 -17 -4 -6 0 -8 10 -4 12 4 14 2 10 -10 -5 -12 -3 -14 7 -8 9 5 11 4 6 -4 -4
-6 -12 -9 -17 -6 -5 4 -9 -1 -9 -10 0 -10 -5 -13 -12 -9 -10 6 -10 5 -1 -7 9
-11 9 -19 2 -26 -8 -8 -7 -13 0 -18 6 -3 11 -3 10 2 -1 4 0 11 1 16 1 4 3 12
4 19 0 6 8 13 16 15 13 4 13 3 0 -6 -8 -6 -12 -11 -8 -11 4 0 3 -13 -2 -29 -6
-21 -4 -36 8 -53 14 -20 14 -21 0 -10 -12 10 -18 10 -27 -2 -9 -11 -8 -14 6
-12 15 1 17 -6 15 -36 -1 -20 2 -39 8 -43 6 -3 8 -11 4 -16 -3 -5 -10 -7 -15
-4 -5 4 -9 -1 -9 -10 0 -10 -5 -13 -12 -9 -10 6 -10 5 -1 -7 9 -11 9 -19 2
-26 -8 -8 -7 -13 0 -18 6 -3 11 -3 10 2 -1 4 0 11 1 16 1 4 3 12 4 19 0 6 8
13 16 15 9 3 11 1 4 -4 -6 -4 -12 -34 -13 -67 -2 -46 0 -56 11 -50 10 6 10 4
-1 -9 -15 -18 -26 -23 -16 -7 3 6 -1 7 -9 4 -9 -3 -16 -10 -16 -16 0 -5 5 -6
10 -3 6 3 13 -2 17 -12 4 -10 11 -21 17 -25 7 -5 7 -8 -2 -8 -7 0 -10 -5 -6
-11 4 -8 -1 -9 -17 -4 -19 5 -21 4 -9 -4 13 -10 13 -12 0 -21 -8 -5 -10 -10
-4 -10 5 0 15 5 21 11 9 9 10 7 6 -10 -3 -11 0 -28 7 -36 11 -14 7 -19 -12
-16 -5 0 -8 -6 -8 -15 0 -9 -5 -12 -12 -8 -10 6 -10 5 -1 -7 9 -11 9 -19 2
-26 -8 -8 -7 -13 0 -18 6 -3 11 -3 10 2 -1 4 0 11 1 16 1 4 3 12 4 19 0 6 8
13 16 15 9 3 11 1 5 -4 -5 -4 -12 -19 -13 -33 -2 -13 -11 -30 -20 -36 -14 -10
-12 -11 11 -9 15 2 25 -1 21 -6 -3 -5 -9 -7 -14 -4 -4 3 -14 -3 -21 -13 -13
-15 -12 -16 3 -3 13 9 18 10 18 2 0 -7 5 -9 12 -5 7 4 8 3 4 -5 -4 -6 -11 -9
-16 -6 -5 3 -11 1 -14 -4 -3 -5 1 -12 10 -15 8 -3 13 -10 10 -15 -4 -5 0 -12
6 -15 7 -3 0 -4 -17 -1 -16 2 -24 2 -17 -1 6 -3 9 -11 5 -17 -4 -6 0 -8 10 -4
12 4 14 2 10 -10 -5 -12 -3 -14 8 -8 8 5 11 5 6 -1 -12 -12 -30 -12 -39 1 -4
5 -6 0 -6 -11 2 -15 8 -20 25 -18 13 1 21 -2 17 -7 -3 -5 -9 -7 -14 -4 -4 3
-14 -3 -21 -13 -13 -15 -12 -16 3 -3 13 9 18 10 18 2 0 -7 5 -9 12 -5 7 4 8 3
4 -5 -4 -6 -11 -9 -16 -6 -5 3 -11 1 -14 -4 -3 -5 1 -12 10 -15 8 -3 13 -10
10 -15 -4 -5 0 -12 6 -15 7 -3 0 -4 -17 -1 -16 2 -24 2 -17 -1 6 -3 9 -11 5
-17 -4 -6 0 -8 11 -4 14 6 15 3 6 -14 -8 -15 -7 -27 4 -49 16 -32 9 -44 -21
-34 -15 5 -16 4 -3 -5 13 -10 13 -12 0 -21 -8 -5 -10 -10 -4 -10 5 0 15 5 21
11 8 8 13 7 18 -2 5 -8 4 -10 -3 -5 -8 5 -12 0 -12 -13 0 -11 5 -23 10 -26 6
-4 8 -11 4 -16 -3 -5 -10 -7 -15 -4 -5 4 -9 -1 -9 -10 0 -10 -5 -13 -12 -9
-10 6 -10 5 -1 -7 9 -11 9 -19 2 -26 -8 -8 -7 -13 0 -18 6 -3 11 -3 10 2 -1 4
0 11 1 16 1 4 3 12 4 19 0 6 8 13 16 15 13 4 13 3 0 -6 -8 -6 -12 -11 -8 -11
4 0 3 -13 -2 -29 -6 -21 -4 -36 8 -53 14 -20 14 -21 0 -10 -12 10 -18 10 -27
-2 -9 -11 -8 -14 6 -12 15 1 17 -6 15 -36 -1 -20 2 -39 8 -43 6 -3 8 -11 4
-16 -3 -5 -10 -7 -15 -4 -5 4 -9 -1 -9 -10 0 -10 -5 -13 -12 -9 -10 6 -10 5
-1 -7 9 -11 9 -19 2 -26 -8 -8 -7 -13 0 -18 6 -3 11 -3 10 2 -1 4 0 11 1 16 1
4 3 12 4 19 0 6 8 13 16 15 13 4 13 3 0 -6 -8 -6 -12 -11 -8 -11 4 0 3 -13 -2
-28 -4 -17 -3 -36 2 -47 7 -12 7 -16 0 -11 -5 3 -16 -2 -23 -11 -10 -11 -10
-14 -2 -9 7 4 21 2 30 -3 10 -6 12 -11 6 -11 -7 0 -13 -7 -13 -16 0 -9 5 -12
12 -8 10 6 10 5 1 -8 -7 -8 -10 -18 -6 -21 3 -4 1 -7 -6 -7 -6 0 -11 7 -9 16
2 10 -3 18 -10 20 -7 1 -8 0 -3 -2 5 -3 7 -14 4 -24 -4 -16 0 -20 18 -21 22 0
23 -1 4 -8 -11 -5 -23 -7 -27 -5 -3 2 -5 -3 -4 -11 3 -19 12 -23 23 -11 5 5 2
6 -6 1 -9 -5 -12 -4 -7 3 4 6 13 9 21 6 13 -5 13 -8 0 -21 -19 -19 -20 -29 -1
-14 11 10 16 8 21 -9 6 -20 7 -20 26 2 12 13 18 17 14 11 -3 -7 -1 -14 4 -14
21 -3 26 -4 41 -14 13 -8 13 -7 1 8 -7 9 -18 14 -24 10 -5 -3 -7 -2 -4 4 7 11
36 11 55 -1 7 -4 12 -2 12 6 0 10 3 9 9 -1 8 -13 12 -13 27 0 11 9 15 9 10 1
-4 -6 -2 -12 3 -12 6 0 11 6 11 13 0 7 3 8 8 2 4 -5 16 -17 27 -25 19 -14 19
-14 3 6 -16 19 -16 20 2 20 10 0 17 -2 15 -5 -3 -2 3 -10 12 -16 19 -14 43 -9
43 9 0 7 14 11 34 11 19 0 32 -3 30 -6 -2 -4 3 -10 12 -13 8 -3 12 -2 9 4 -3
6 -3 10 2 11 42 5 62 5 58 -2 -3 -4 2 -10 10 -13 9 -3 18 1 21 8 6 15 21 16
41 3 6 -4 14 -1 16 5 4 10 6 10 6 0 1 -8 6 -10 13 -6 15 10 58 12 52 3 -2 -4
3 -10 12 -13 8 -3 12 -2 9 4 -3 6 -3 10 2 11 42 5 62 5 58 -2 -3 -4 2 -10 10
-13 9 -3 18 1 21 8 6 15 21 16 41 3 6 -4 14 -1 16 5 4 10 6 10 6 0 1 -8 6 -10
13 -6 15 10 58 12 52 3 -2 -4 3 -10 12 -13 23 -9 31 -7 16 3 -10 6 -9 10 7 14
14 3 19 1 14 -6 -4 -6 0 -8 11 -4 10 4 19 1 23 -9 4 -12 8 -13 14 -3 6 10 11
10 26 -1 17 -14 17 -14 0 6 -14 17 -15 21 -2 21 8 0 15 -4 15 -9 0 -13 28 -9
33 5 4 9 6 9 6 -1 1 -8 6 -10 13 -6 15 10 58 12 52 3 -2 -4 3 -10 12 -13 8 -3
12 -2 9 4 -3 6 -3 10 2 11 41 5 62 5 58 -1 -2 -3 4 -11 14 -17 14 -9 18 -8 18
3 0 7 -5 10 -10 7 -6 -3 -7 -1 -3 6 6 9 11 9 21 1 10 -8 14 -8 17 1 3 10 10 9
27 -3 13 -9 29 -14 36 -12 7 3 16 1 19 -5 8 -13 36 -3 36 13 0 7 14 11 34 11
19 0 32 -3 30 -6 -2 -4 3 -10 12 -13 8 -3 12 -2 9 4 -3 6 -3 10 2 11 42 5 62
5 58 -2 -3 -4 2 -10 11 -13 8 -3 13 -2 10 3 -3 5 1 11 9 15 8 3 17 1 20 -4 4
-6 11 -10 16 -10 6 0 7 5 3 12 -4 7 -3 8 5 4 6 -4 9 -11 6 -16 -3 -5 0 -12 6
-16 8 -4 9 -3 5 4 -5 8 0 12 13 12 12 0 21 5 21 12 0 6 6 4 13 -7 11 -14 16
-15 22 -5 6 9 4 11 -5 5 -8 -5 -11 -4 -7 1 6 11 53 11 64 1 11 -12 25 -8 17 5
-4 7 -3 8 5 4 6 -4 9 -11 6 -16 -3 -5 0 -12 6 -16 8 -4 9 -3 5 4 -5 8 0 12 13
12 12 0 21 5 21 12 0 6 6 4 13 -7 11 -14 16 -15 22 -5 6 9 4 11 -5 5 -8 -5
-11 -4 -6 3 9 15 38 3 29 -12 -3 -6 -3 -8 2 -4 4 4 15 2 24 -4 13 -10 14 -10
3 2 -16 19 -16 35 1 21 10 -8 17 -7 27 2 10 10 12 8 6 -8 -6 -19 -5 -19 8 -2
10 14 15 15 19 5 4 -9 6 -9 6 2 1 9 -5 22 -12 29 -9 11 -9 13 1 7 8 -5 12 0
12 13 0 10 3 27 6 35 5 12 2 15 -12 10 -14 -4 -15 -3 -6 4 16 11 15 21 -1 41
-9 12 -9 13 1 7 7 -4 12 -2 12 4 0 6 4 9 9 5 24 -14 20 20 -5 48 -16 17 -22
26 -14 20 13 -10 18 -8 27 6 9 14 8 18 -3 18 -7 0 -10 -5 -7 -10 3 -6 1 -7 -5
-3 -6 4 -8 14 -5 23 5 12 3 14 -8 8 -11 -7 -12 -6 -3 6 6 8 14 26 18 41 5 23
3 27 -11 22 -11 -4 -14 -2 -8 3 6 4 12 19 13 33 2 14 9 31 15 39 10 11 7 13
-13 7 -17 -5 -20 -4 -12 2 16 11 15 21 -1 41 -9 12 -9 13 1 7 7 -4 12 -2 12 4
0 6 4 9 9 5 24 -14 20 20 -5 48 -16 17 -22 26 -14 20 13 -10 18 -8 27 6 9 14
8 18 -3 18 -7 0 -10 -5 -7 -10 3 -6 1 -7 -5 -3 -6 4 -8 14 -5 23 5 12 3 14 -8
8 -11 -7 -12 -6 -3 6 6 8 14 26 18 41 5 23 3 27 -11 22 -11 -4 -14 -2 -8 3 6
4 12 19 13 33 2 14 9 31 15 39 10 11 7 13 -13 7 -17 -5 -20 -4 -12 2 16 11 15
21 -1 41 -9 12 -9 13 1 7 7 -4 12 -2 12 4 0 6 4 9 9 5 24 -14 20 20 -5 48 -16
17 -22 26 -14 20 13 -10 18 -8 27 6 9 14 8 18 -3 18 -7 0 -10 -5 -7 -10 3 -6
1 -7 -5 -3 -6 4 -8 14 -5 23 5 12 3 14 -8 8 -11 -7 -12 -6 -3 6 6 8 14 26 18
41 5 23 3 27 -11 22 -11 -4 -14 -2 -8 3 6 4 12 19 13 33 2 14 9 31 15 39 10
11 7 13 -13 7 -17 -5 -20 -4 -12 2 19 13 19 16 2 37 -9 11 -10 16 -2 11 7 -4
12 -2 12 4 0 6 4 9 9 5 24 -14 20 20 -5 48 -16 17 -22 26 -14 20 13 -10 18 -8
27 6 9 14 8 18 -3 18 -7 0 -10 -5 -7 -10 3 -6 1 -7 -5 -3 -6 4 -8 14 -5 23 5
12 3 14 -8 8 -11 -7 -12 -6 -3 6 6 8 14 26 18 41 5 23 3 27 -11 22 -11 -4 -14
-2 -8 3 6 4 12 19 13 33 2 14 9 31 15 39 10 11 7 13 -13 7 -17 -5 -20 -4 -12
2 19 13 19 16 2 37 -9 11 -10 16 -2 11 7 -4 12 -2 12 4 0 6 4 9 9 5 24 -14 20
20 -5 48 -16 17 -22 26 -14 20 13 -10 18 -8 27 6 9 14 8 18 -3 18 -7 0 -10 -5
-7 -10 3 -6 1 -7 -5 -3 -6 4 -8 14 -5 23 5 12 3 14 -8 8 -11 -7 -12 -6 -3 6 6
8 14 26 18 41 5 23 3 27 -11 22 -17 -5 -17 -5 0 6 9 6 17 16 17 23 0 7 -4 6
-10 -3 -7 -11 -8 -7 -6 15 2 17 -2 34 -8 38 -7 6 -6 7 4 4 8 -2 15 -9 15 -15
0 -5 3 -13 7 -17 3 -4 5 1 3 12 -2 10 -4 21 -4 25 -1 4 -9 15 -18 24 -15 15
-15 17 -2 12 9 -4 20 1 26 11 9 14 8 18 -3 18 -7 0 -10 -5 -7 -10 3 -6 1 -7
-5 -3 -6 4 -8 14 -5 23 4 10 2 14 -4 10 -5 -3 -10 0 -10 8 0 12 4 12 21 -2 20
-18 20 -18 3 9 -14 23 -14 27 -1 32 12 5 13 10 3 28 -7 13 -17 27 -23 31 -7 6
-5 7 5 4 9 -3 21 4 28 15 7 11 9 18 4 15 -4 -3 -17 1 -28 9 -16 12 -17 14 -2
14 9 0 17 3 18 8 0 4 2 15 4 25 2 9 -1 15 -6 11 -9 -5 -13 14 -9 55 1 16 -2
21 -10 16 -9 -6 -9 -2 -1 13 14 26 14 35 0 27 -7 -5 -7 -1 0 14 35 68 34 63 9
56 -16 -4 -19 -3 -10 3 16 11 15 21 -1 41 -9 12 -9 13 1 7 7 -4 12 -2 12 4 0
6 4 9 9 5 23 -14 21 19 -3 44 -25 26 -26 41 -2 41 6 0 5 -4 -3 -9 -7 -5 -9
-11 -4 -14 5 -3 15 3 22 15 7 11 8 17 2 13 -6 -3 -14 1 -17 9 -3 9 -11 13 -17
9 -6 -3 -7 -1 -3 6 4 6 11 9 15 7 4 -3 13 0 21 6 12 8 12 9 -2 4 -10 -3 -18
-1 -18 5 0 6 -6 7 -12 3 -10 -6 -10 -4 0 7 6 7 12 25 12 39 0 14 -6 32 -12 40
-7 8 -2 6 11 -5 l25 -20 -21 36 c-18 32 -19 37 -5 35 10 -2 23 4 30 13 8 9 11
11 8 4 -7 -12 11 -12 32 0 7 5 12 3 12 -5 0 -9 3 -9 10 2 8 13 10 13 10 1 0
-11 4 -10 13 4 11 14 16 15 22 5 6 -9 4 -11 -5 -5 -9 5 -11 4 -6 -4 6 -9 11
-9 22 0 9 7 14 8 14 1 0 -12 26 -10 37 3 4 4 3 5 -4 1 -6 -3 -14 -2 -17 3 -4
5 1 8 10 7 8 -1 20 -9 25 -17 5 -8 9 -9 9 -3 0 14 30 14 30 0 0 -6 5 -4 10 4
9 13 11 13 20 0 8 -13 10 -12 11 5 0 19 1 19 8 1 5 -14 10 -16 15 -8 10 16 29
15 21 0 -4 -7 1 -4 9 6 14 17 16 17 16 3 0 -10 5 -14 15 -11 8 4 12 10 9 15
-3 5 -1 9 5 9 5 0 12 -8 14 -17 4 -17 5 -17 6 0 0 9 6 17 12 17 5 0 8 4 4 9
-3 5 -1 12 4 15 10 7 9 -13 -2 -31 -8 -13 30 -6 50 9 7 6 14 4 19 -3 4 -7 3
-9 -3 -6 -5 3 -10 0 -10 -8 0 -11 4 -12 14 -4 7 6 24 8 38 5 14 -4 25 -2 25 4
0 5 -5 9 -11 7 -6 -1 -13 6 -14 16 -3 15 -1 16 12 5 8 -6 22 -13 31 -15 9 -1
22 -9 28 -18 9 -12 13 -13 17 -3 3 11 9 10 28 -1 22 -13 23 -13 11 2 -12 15
-11 16 16 12 22 -2 29 0 26 10 -3 7 0 16 7 21 8 4 10 3 5 -4 -5 -9 7 -12 39
-12 34 0 44 -3 40 -12 -4 -7 2 -2 13 12 22 26 22 26 41 -5 11 -18 11 -18 6 5
-4 17 -3 21 3 11 6 -8 15 -10 23 -5 20 12 40 14 33 3 -3 -5 2 -12 10 -15 10
-4 14 -17 12 -39 -1 -19 0 -34 3 -33 24 2 41 -4 38 -14 -1 -7 4 -12 12 -10 11
2 12 0 4 -10 -5 -7 -13 -22 -17 -33 -5 -16 -2 -15 14 5 14 17 18 19 14 6 -4
-11 -1 -22 7 -28 11 -8 10 -9 -3 -4 -10 3 -20 0 -24 -6 -5 -7 -2 -8 6 -3 9 6
10 2 5 -16 -7 -23 -7 -23 8 -4 13 16 18 18 29 7 11 -11 10 -12 -4 -7 -12 5
-16 2 -13 -12 2 -10 4 -22 4 -27 1 -5 4 -6 7 -3 9 8 45 -33 39 -43 -3 -5 1
-11 7 -13 10 -4 10 -6 1 -6 -7 -1 -13 -6 -13 -12 0 -5 5 -7 10 -4 6 3 10 1 10
-5 0 -7 7 -10 14 -7 10 4 13 1 10 -8 -3 -8 -13 -11 -22 -8 -15 4 -15 3 -2 -6
8 -6 11 -11 5 -11 -5 0 4 -12 20 -26 17 -15 25 -23 18 -20 -6 4 -15 1 -19 -5
-4 -7 -3 -9 3 -6 6 4 21 -2 33 -13 13 -11 18 -20 12 -20 -13 0 -10 -19 7 -45
9 -15 11 -16 7 -2 -3 9 -1 17 4 17 6 0 10 -10 10 -23 0 -12 9 -28 20 -35 12
-7 18 -17 15 -22 -4 -6 -11 -8 -16 -4 -5 3 -7 10 -4 15 4 5 1 9 -4 9 -6 0 -11
-4 -11 -8 0 -14 23 -32 42 -32 10 0 18 -7 18 -16 0 -14 -2 -15 -17 -3 -14 11
-13 8 2 -9 12 -15 15 -26 9 -30 -6 -4 -2 -14 10 -26 13 -13 18 -15 14 -4 -4 8
-1 15 7 15 14 0 15 -28 0 -40 -5 -5 1 -5 15 -1 23 6 24 6 10 -11 -12 -14 -12
-19 -2 -22 6 -3 9 -10 6 -15 -4 -7 -2 -8 5 -4 9 6 9 12 -1 24 -11 15 -11 15 3
5 9 -7 20 -9 24 -5 5 4 1 -5 -8 -20 -14 -23 -14 -28 -2 -38 12 -10 13 -16 3
-28 -11 -13 -10 -14 9 -4 12 7 23 12 25 12 3 0 9 -39 11 -77 0 -7 4 -10 9 -7
4 3 8 0 8 -7 0 -8 5 -7 17 2 17 13 17 13 1 -13 l-17 -26 32 3 c17 2 26 1 20
-2 -7 -2 -13 -16 -13 -29 0 -17 4 -23 12 -18 6 4 8 3 5 -4 -4 -5 -4 -17 -1
-26 5 -12 10 -14 19 -6 10 8 15 8 21 -1 4 -8 3 -9 -4 -5 -8 5 -11 -5 -9 -33 1
-21 5 -37 9 -35 4 2 5 17 2 32 -3 19 -2 23 5 12 5 -8 7 -18 5 -22 -3 -5 5 -13
18 -18 23 -11 23 -11 1 -6 -30 6 -29 -8 1 -22 21 -9 24 -17 21 -51 -2 -23 1
-41 6 -41 6 0 7 5 4 10 -3 6 1 10 10 10 9 0 13 -4 10 -10 -3 -5 -1 -10 4 -10
6 0 11 -4 11 -10 0 -5 -8 -6 -17 -3 -17 7 -17 6 0 -11 9 -10 14 -22 11 -28 -4
-6 -2 -8 3 -5 11 7 26 -28 23 -53 -1 -10 3 -9 14 5 15 20 15 20 13 -2 -1 -13
-6 -23 -12 -23 -5 0 -2 -5 8 -11 9 -6 14 -15 11 -21 -4 -7 -2 -8 5 -4 9 6 9
11 1 21 -8 10 -8 15 1 21 7 4 9 3 5 -4 -3 -6 2 -15 11 -21 10 -6 12 -11 6 -11
-7 0 -13 -5 -13 -11 0 -5 5 -7 12 -3 7 5 8 3 4 -5 -5 -7 -15 -10 -23 -7 -8 4
-11 1 -8 -5 4 -6 13 -8 21 -5 8 3 14 -1 14 -9 0 -8 4 -15 10 -15 12 0 9 -22
-5 -33 -5 -5 1 -5 14 -2 15 5 21 3 17 -3 -9 -15 4 -43 18 -35 6 4 6 0 -2 -9
-11 -14 -10 -19 9 -32 12 -8 27 -12 32 -9 6 3 7 1 3 -6 -4 -6 -13 -9 -19 -5
-7 3 -2 -3 9 -13 12 -10 21 -28 20 -40 -2 -15 2 -20 13 -15 13 4 13 2 -2 -15
-14 -16 -14 -20 -2 -20 8 0 12 4 9 9 -3 4 0 8 5 8 15 0 14 -27 -1 -33 -10 -4
-10 -6 0 -6 7 -1 10 -7 7 -13 -4 -7 2 -2 13 11 14 18 21 21 27 11 5 -8 4 -11
-2 -7 -6 4 -15 -5 -22 -20 -11 -24 -11 -25 5 -12 12 9 15 9 10 2 -4 -8 -2 -13
6 -13 9 0 9 -3 -2 -10 -13 -8 -12 -10 3 -10 10 0 15 -5 12 -10 -9 -14 4 -50
17 -50 6 0 6 6 -2 15 -7 9 -10 18 -6 22 3 3 6 1 6 -6 0 -7 4 -10 9 -7 5 3 8
-8 7 -25 -1 -16 1 -32 5 -35 4 -2 6 -13 4 -23 -3 -16 1 -19 28 -15 18 2 28 0
22 -4 -17 -12 -17 -42 0 -42 10 0 13 5 9 12 -4 6 -3 8 4 4 6 -3 9 -17 6 -31
-3 -16 2 -27 13 -34 14 -8 16 -12 6 -22 -18 -18 -16 -34 1 -19 13 10 14 7 10
-17 l-4 -28 15 25 c14 25 14 24 10 -13 -5 -36 -3 -38 17 -33 13 3 17 3 11 0
-7 -3 -13 -10 -13 -15 0 -6 5 -7 11 -3 8 5 8 1 0 -13 -12 -24 -3 -37 15 -22
10 8 12 6 9 -10 -2 -11 1 -24 7 -27 7 -5 8 -2 3 6 -5 9 -4 11 4 6 9 -6 9 -11
-1 -24 -10 -12 -10 -14 0 -8 7 4 12 2 12 -4 0 -6 5 -8 12 -4 7 4 8 3 4 -5 -4
-6 -11 -9 -16 -6 -5 3 -12 0 -16 -6 -4 -7 -3 -9 2 -6 18 10 36 -10 37 -41 1
-17 5 -28 9 -26 11 7 49 -16 43 -26 -3 -4 1 -11 7 -13 10 -4 10 -6 1 -6 -7 -1
-13 -6 -13 -12 0 -5 4 -7 10 -4 6 3 7 -1 4 -10 -4 -8 -1 -22 6 -30 6 -8 8 -20
4 -27 -5 -10 -4 -10 6 -1 11 10 11 15 0 28 -11 13 -10 14 4 9 19 -7 21 -27 5
-56 -8 -15 -8 -19 0 -14 6 4 11 3 11 -3 0 -5 9 -13 20 -16 11 -3 20 -11 20
-16 0 -6 -6 -7 -12 -3 -10 6 -10 5 -1 -8 7 -8 9 -19 5 -23 -4 -5 -1 -4 7 0 11
6 13 4 8 -8 -3 -10 -2 -17 4 -17 6 0 8 -4 5 -9 -4 -5 2 -8 11 -6 10 2 18 4 18
5 0 1 10 3 23 4 15 2 21 -2 18 -10 -3 -8 0 -11 10 -7 9 3 13 12 10 22 -6 14
-5 15 6 0 7 -8 23 -18 35 -21 17 -5 20 -2 15 11 -5 13 -3 14 9 4 12 -10 18
-10 29 0 10 9 11 9 6 0 -4 -7 -2 -13 3 -13 6 0 11 4 11 8 0 4 15 7 34 7 19 0
32 -3 30 -6 -2 -4 3 -10 12 -13 8 -3 12 -2 9 4 -3 6 -3 10 2 11 42 5 62 5 58
-2 -3 -4 2 -9 10 -13 8 -3 17 0 21 6 5 7 2 8 -6 3 -8 -5 -11 -4 -7 2 7 11 36
11 54 0 6 -4 14 -1 16 5 4 10 6 10 6 0 1 -8 6 -10 13 -6 15 10 58 12 52 3 -6
-10 23 -19 40 -13 8 3 17 1 20 -5 8 -13 36 -3 36 13 0 7 14 11 34 11 19 0 32
-3 30 -6 -2 -4 3 -10 12 -13 8 -3 12 -2 9 4 -3 6 -3 10 2 11 42 5 62 5 58 -2
-3 -4 2 -10 10 -13 9 -3 18 1 21 8 6 15 21 16 41 3 6 -4 14 -1 16 5 4 10 6 10
6 0 1 -8 6 -10 13 -6 15 10 58 12 52 3 -2 -4 3 -10 12 -13 8 -3 12 -2 9 4 -3
6 -3 10 2 11 42 5 62 5 58 -2 -3 -4 2 -10 10 -13 9 -3 18 1 21 8 6 15 21 16
41 3 6 -4 14 -1 16 5 4 10 6 10 6 0 1 -8 6 -10 13 -6 15 10 58 12 52 3 -6 -10
23 -19 40 -13 8 3 17 1 20 -5 8 -13 36 -3 36 13 0 7 14 11 34 11 19 0 32 -3
30 -6 -2 -4 3 -10 12 -13 8 -3 12 -2 9 4 -3 6 -3 10 2 11 42 5 62 5 58 -2 -3
-4 2 -10 10 -13 9 -3 18 1 21 8 6 15 21 16 41 3 6 -4 14 -1 16 5 4 10 6 10 6
0 1 -8 6 -10 13 -6 15 10 58 12 52 3 -2 -4 3 -10 12 -13 8 -3 12 -2 9 4 -3 6
-3 10 2 11 42 5 62 5 58 -2 -3 -4 2 -10 10 -13 9 -3 18 1 21 8 6 15 21 16 41
3 6 -4 14 -1 16 5 4 10 6 10 6 0 1 -8 6 -10 13 -6 15 10 58 12 52 3 -2 -4 3
-10 12 -13 23 -9 31 -7 16 3 -10 6 -9 10 7 14 14 3 19 1 14 -6 -4 -6 0 -8 11
-4 10 4 19 1 23 -9 4 -12 8 -13 14 -3 6 10 11 10 26 -1 17 -14 17 -14 0 6 -14
17 -15 21 -2 21 8 0 15 -4 15 -9 0 -13 28 -9 33 5 4 9 6 9 6 -1 1 -8 6 -10 13
-6 15 10 58 12 52 3 -2 -4 3 -10 12 -13 8 -3 12 -2 9 4 -3 6 -3 10 2 11 42 5
62 5 58 -2 -3 -4 2 -10 11 -13 8 -3 12 -2 9 4 -3 6 -3 10 2 11 4 0 17 2 29 4
14 3 25 -3 33 -18 l11 -22 -6 23 c-5 22 -4 23 16 12 18 -10 21 -10 14 2 -5 7
-7 21 -6 31 2 9 -2 17 -8 17 -6 0 -10 6 -8 14 2 7 -8 23 -22 34 -23 19 -24 23
-11 44 13 21 13 22 -3 9 -10 -8 -15 -23 -13 -33 3 -10 1 -18 -5 -18 -6 0 -8
13 -4 34 4 20 2 37 -4 41 -6 4 -7 -1 -4 -12 5 -15 4 -16 -5 -3 -14 20 -14 43
1 34 7 -5 8 -3 3 5 -5 9 -10 10 -18 2 -6 -6 -15 -11 -20 -11 -5 0 -2 7 7 15
21 21 10 51 -12 33 -13 -11 -14 -11 -7 1 6 11 4 13 -10 7 -18 -7 -18 -6 -2 12
18 19 13 57 -5 46 -6 -4 -5 -10 3 -15 7 -4 10 -12 5 -16 -5 -4 -11 -2 -13 5
-3 6 -8 10 -12 8 -4 -3 -8 1 -8 9 0 8 4 12 9 9 4 -3 8 2 8 11 0 10 -5 13 -12
9 -8 -5 -9 0 -5 15 5 19 3 20 -11 9 -13 -11 -15 -11 -10 3 4 9 -2 20 -13 27
-12 8 -16 18 -12 29 5 12 3 14 -8 8 -11 -6 -12 -5 -1 6 6 7 12 17 12 22 0 4
-6 5 -12 0 -19 -11 -39 -13 -32 -2 3 5 0 9 -7 9 -7 0 -9 3 -6 7 4 3 0 18 -10
32 -15 24 -15 25 0 12 9 -7 17 -9 17 -3 0 5 -9 16 -21 23 -17 12 -25 29 -28
62 -1 5 -5 6 -9 3 -4 -2 -8 4 -8 15 0 10 5 19 10 19 5 0 6 3 3 6 -4 4 -14 1
-23 -7 -15 -12 -16 -11 -10 9 5 15 3 24 -8 28 -18 7 -28 31 -15 39 5 4 8 1 7
-6 -2 -6 4 -14 12 -16 12 -4 12 -3 2 5 -8 5 -12 13 -10 17 1 5 -6 9 -17 10
-24 2 -66 24 -46 25 9 0 10 4 4 13 -18 23 -23 46 -8 41 8 -3 11 -12 9 -19 -7
-17 12 -29 22 -14 4 7 -2 20 -14 30 -12 9 -22 23 -22 30 0 8 -6 5 -15 -7 -14
-18 -14 -17 -5 9 8 22 7 29 -5 33 -8 3 -18 3 -22 1 -5 -3 -10 4 -10 16 -2 17
0 18 7 7 7 -11 9 -10 7 7 0 12 -5 19 -9 17 -4 -3 -8 0 -8 7 0 7 -3 9 -7 6 -3
-4 -12 1 -19 11 -9 13 -10 20 -1 31 9 12 9 13 0 7 -7 -4 -13 -2 -13 3 0 6 5
11 12 11 6 0 8 3 5 6 -4 4 -14 1 -23 -7 -16 -13 -16 -12 -5 9 7 13 10 26 7 30
-3 3 -6 0 -6 -6 0 -7 -5 -12 -11 -12 -5 0 -8 4 -4 9 3 5 1 12 -5 16 -5 3 -10
-2 -11 -12 0 -16 -1 -16 -8 2 -5 11 -7 23 -5 26 9 16 12 59 3 54 -5 -4 -7 -10
-5 -14 3 -4 -1 -8 -9 -8 -9 0 -11 6 -6 16 10 21 7 46 -4 44 -6 -1 -19 -5 -30
-9 -17 -6 -16 -3 5 15 19 17 21 21 6 17 -13 -5 -17 -2 -12 9 3 8 1 15 -5 15
-6 0 -7 4 -4 10 4 6 -1 7 -12 3 -16 -6 -16 -5 -4 11 12 14 12 19 1 29 -10 10
-12 9 -7 -4 3 -9 0 -16 -8 -16 -14 0 -14 14 -1 36 7 10 6 12 -4 6 -10 -6 -12
-1 -7 21 5 27 4 28 -10 9 -15 -19 -15 -19 -11 6 4 19 1 26 -11 25 -9 0 -19 -5
-22 -9 -3 -5 -9 -2 -12 6 -4 11 0 15 13 12 11 -2 23 1 26 7 4 6 3 8 -3 5 -6
-4 -21 2 -33 13 -13 11 -18 20 -12 20 6 0 14 -5 17 -10 3 -6 12 -10 18 -9 9 0
8 2 -1 6 -6 2 -10 9 -6 14 3 5 2 8 -3 7 -14 -4 -53 13 -53 22 0 5 6 8 13 6 6
-1 9 -1 5 1 -13 8 -9 25 5 18 6 -4 4 0 -5 8 -10 8 -14 17 -10 21 4 4 3 7 -3 6
-5 -1 -19 -2 -30 -1 -19 2 -18 3 3 11 12 5 22 15 21 22 0 10 -2 10 -6 1 -7
-18 -33 -16 -33 1 0 8 3 16 8 19 4 2 1 2 -7 0 -8 -2 -11 2 -7 12 3 8 1 15 -5
15 -6 0 -7 4 -4 10 4 6 -1 7 -11 3 -14 -5 -15 -3 -4 18 l13 24 -23 -20 c-13
-11 -20 -14 -15 -6 6 11 4 13 -11 8 -16 -6 -15 -4 4 12 23 20 31 37 10 25 -8
-5 -9 -2 -5 10 4 10 3 15 -3 11 -6 -3 -10 -1 -10 5 0 6 -11 15 -24 21 -25 12
-41 55 -24 65 5 3 0 13 -11 21 -22 15 -19 39 2 27 7 -4 8 -3 4 2 -5 5 -15 9
-24 9 -8 0 -22 10 -31 23 -14 21 -13 22 4 17 13 -5 12 -2 -4 7 -12 8 -19 17
-16 21 4 4 2 7 -4 7 -7 0 -12 -5 -12 -12 0 -6 -3 -9 -6 -5 -3 3 -2 12 2 19 12
19 14 39 3 32 -5 -3 -6 -10 -3 -16 4 -6 2 -8 -4 -4 -5 3 -12 3 -15 -1 -2 -5
-2 -2 0 5 2 8 0 19 -4 25 -8 12 -9 17 -12 36 0 6 -10 8 -21 6 -12 -2 -18 0
-15 6 4 5 11 7 16 4 5 -4 9 1 9 9 0 14 -18 21 -42 17 -4 0 -5 6 -2 14 4 8 14
15 23 16 9 0 4 5 -11 11 -16 5 -28 14 -28 19 0 4 7 6 15 3 8 -4 15 -1 15 5 0
6 -6 10 -12 9 -8 -2 -13 6 -12 19 0 18 -2 20 -14 11 -11 -10 -13 -8 -11 7 2
11 -5 31 -15 45 -12 16 -16 19 -12 7 3 -10 6 -23 6 -28 0 -6 5 -7 12 -3 7 5 8
3 3 -5 -11 -19 -28 2 -29 38 -1 30 -11 41 -18 21 -2 -6 -8 -6 -18 0 -13 8 -13
10 2 10 10 0 22 10 28 22 11 23 11 23 -6 3 -16 -20 -16 -20 -11 2 3 13 1 26
-5 29 -5 3 -7 13 -4 23 5 13 3 12 -8 -2 -12 -15 -18 -17 -33 -7 -14 9 -15 10
-1 6 9 -2 19 1 22 9 6 17 -19 39 -35 29 -8 -4 -9 -3 -5 4 4 7 2 12 -3 12 -6 0
-11 12 -11 28 0 21 2 24 10 12 5 -8 10 -10 10 -4 0 18 -13 24 -27 12 -7 -6
-16 -8 -20 -4 -3 3 -1 6 6 6 7 0 5 9 -6 27 -10 15 -13 24 -8 21 6 -4 17 -3 25
2 11 7 8 9 -10 8 -14 -1 -30 -5 -37 -10 -8 -7 -10 -3 -6 11 3 12 10 18 17 14
6 -3 3 3 -6 14 -23 25 -23 40 -1 22 15 -13 15 -12 2 9 -8 12 -15 18 -17 12 -2
-5 -8 -10 -13 -10 -6 0 -8 4 -5 9 4 5 0 11 -6 14 -10 3 -10 9 -1 25 10 17 10
20 0 16 -7 -2 -24 6 -37 18 -14 13 -28 22 -32 21 -4 -2 -5 6 -3 17 2 11 -2 20
-8 20 -8 0 -8 3 -2 8 16 11 12 32 -9 47 -11 9 -15 19 -10 27 5 9 2 8 -11 -2
-17 -14 -18 -14 -6 8 12 22 11 23 -8 17 -13 -4 -21 -2 -21 5 0 6 4 8 10 5 6
-3 9 4 8 18 -1 13 -8 24 -15 25 -7 1 -19 3 -27 4 -8 1 -14 10 -13 20 1 10 7
16 14 14 7 -3 15 -1 18 5 4 5 1 8 -7 7 -7 -2 -12 4 -10 12 3 12 1 13 -9 3 -7
-7 -18 -13 -23 -13 -6 0 -4 5 4 10 12 8 13 11 1 19 -11 7 -11 9 0 13 12 4 12
7 0 22 -12 14 -12 16 2 10 13 -4 15 -1 12 16 -4 21 -3 22 14 6 14 -13 21 -14
27 -5 5 8 3 10 -7 4 -8 -5 -5 1 5 13 12 14 27 20 42 18 25 -5 42 8 24 17 -6 3
-5 4 2 3 7 -2 12 -9 11 -15 -2 -6 2 -11 8 -11 6 0 9 9 6 20 -3 11 -1 18 3 15
5 -3 11 1 14 7 3 7 3 2 0 -11 -4 -16 -3 -21 5 -17 6 4 11 15 11 24 0 14 2 15
9 3 8 -12 14 -13 36 -3 17 8 23 17 19 25 -5 7 0 6 11 -3 10 -8 16 -10 12 -4
-4 7 0 15 9 18 25 9 27 7 13 -11 -9 -10 0 -7 23 8 20 13 35 26 33 28 -3 2 -11
-2 -20 -9 -11 -9 -15 -9 -15 -1 0 7 -5 9 -12 5 -6 -4 -8 -3 -5 4 4 5 27 9 51
8 44 -2 49 4 31 34 -6 11 -2 10 12 -3 19 -17 33 -14 33 7 0 6 -5 4 -10 -4 -7
-12 -9 -10 -7 7 1 21 2 22 21 5 12 -11 16 -12 11 -3 -6 11 -4 13 10 7 16 -6
16 -4 4 11 -7 10 -9 15 -5 11 5 -4 14 0 21 9 9 13 14 13 20 3 5 -9 4 -11 -3
-6 -7 4 -12 2 -12 -3 0 -14 17 -14 25 -1 4 6 10 8 15 5 5 -3 12 0 16 6 4 8 3
9 -4 5 -7 -4 -12 -2 -12 4 0 6 -5 8 -12 4 -6 -4 -8 -3 -4 4 3 6 15 9 26 7 18
-3 25 6 21 28 -1 5 3 6 8 3 5 -4 17 2 27 11 16 16 16 16 10 -7 -4 -14 -4 -20
1 -15 4 6 21 21 37 33 16 12 23 22 15 22 -10 0 -10 3 -1 12 8 8 15 8 28 -3 10
-8 15 -9 11 -2 -4 6 -4 13 0 16 5 2 2 2 -4 1 -7 -2 -13 1 -13 6 0 6 5 10 11
10 5 0 7 6 3 13 -4 6 3 3 15 -7 19 -17 21 -17 15 -3 -5 13 -2 16 12 11 16 -5
16 -4 4 5 -14 10 -8 15 13 12 4 -1 10 6 13 14 5 13 9 13 23 3 14 -10 14 -10 3
2 -10 12 -9 18 10 33 13 10 18 16 12 13 -21 -11 -22 19 -1 44 11 14 18 18 14
8 -3 -9 0 -19 8 -22 16 -6 40 20 40 43 0 10 9 16 22 16 12 0 26 5 30 9 4 5 3
6 -3 3 -7 -4 -15 0 -18 9 -3 8 -2 12 4 9 6 -3 10 -1 10 5 0 6 5 8 13 4 8 -5 7
-2 -2 9 -8 10 -11 20 -7 24 3 3 6 2 6 -4 0 -6 7 -13 15 -17 13 -5 14 -2 4 15
-9 19 -9 20 10 10 29 -16 38 -13 15 4 -15 11 -16 15 -4 16 8 1 18 1 23 0 16
-2 6 10 -15 19 -20 8 -19 9 9 6 18 -2 36 1 39 6 4 6 2 8 -3 5 -6 -4 -13 2 -16
14 -5 17 -3 18 9 8 12 -10 13 -9 7 7 -6 16 -5 17 9 6 14 -11 16 -10 11 7 -3
12 -9 18 -14 15 -5 -3 -6 2 -3 11 6 14 8 14 19 -1 8 -11 14 -13 19 -6 3 6 2
13 -4 17 -15 9 -12 25 6 25 9 0 12 -5 8 -12 -4 -7 -3 -9 1 -5 14 12 15 40 2
56 -8 11 -3 10 18 -3 l30 -19 -18 20 c-13 15 -15 23 -7 28 9 6 9 10 -1 17 -11
8 -10 9 3 5 9 -3 24 1 35 9 17 14 17 15 -4 9 -14 -4 -23 -2 -23 4 0 6 3 10 8
10 27 -5 41 2 35 18 -4 9 -2 14 3 10 5 -3 16 8 23 25 12 25 11 32 0 40 -10 6
-3 7 19 4 28 -4 31 -2 21 10 -6 7 -15 12 -18 9 -4 -2 -8 3 -8 11 0 9 6 13 15
9 13 -5 13 -3 1 11 -13 16 -12 16 11 4 23 -12 24 -12 11 3 -9 12 -10 17 -2 17
7 0 9 5 6 11 -4 6 -14 8 -24 5 -14 -5 -14 -4 -1 7 8 7 21 19 29 27 11 13 12
12 2 -7 -10 -19 -9 -22 4 -17 9 4 14 9 11 12 -3 2 -1 14 5 25 8 14 8 18 0 13
-6 -4 -11 -2 -11 3 0 6 5 11 10 11 6 0 10 5 10 11 0 5 -5 7 -12 3 -7 -4 -8 -3
-4 4 4 6 14 8 24 5 15 -6 15 -4 4 9 -15 19 -1 58 21 58 8 0 7 3 -2 9 -11 7
-12 13 -4 23 13 17 13 51 -1 61 -7 6 -5 7 5 4 16 -5 39 9 39 25 0 4 -5 8 -11
8 -5 0 -7 -4 -4 -10 3 -5 1 -10 -5 -10 -7 0 -9 7 -6 16 3 9 6 18 6 20 0 3 4 2
10 -1 6 -3 7 1 4 9 -3 9 -9 14 -13 11 -4 -2 -8 2 -8 10 0 8 7 17 14 19 9 4 11
1 7 -6 -4 -6 -3 -8 4 -5 13 9 9 36 -7 46 -10 6 -9 10 4 14 11 5 14 3 9 -6 -4
-6 -3 -8 1 -4 12 10 16 39 5 32 -12 -7 -18 17 -9 35 4 8 10 23 13 33 3 10 10
16 14 13 5 -3 9 1 9 9 0 10 -4 12 -12 5 -9 -7 -17 -5 -26 7 -13 16 -12 17 3 5
14 -11 17 -10 24 10 3 13 11 26 16 29 5 3 2 9 -7 12 -10 5 -14 3 -9 -5 4 -6 3
-8 -3 -5 -16 10 -8 46 13 63 14 11 15 14 3 11 -9 -3 -22 -1 -30 5 -11 8 -11 9
3 5 13 -5 17 2 20 33 3 30 1 36 -9 28 -7 -5 -18 -8 -25 -5 -8 3 -6 6 6 6 12 1
16 6 12 16 -3 9 4 25 16 37 16 16 17 20 5 15 -14 -5 -16 -2 -12 16 4 13 7 30
8 38 2 8 6 19 10 26 4 6 2 15 -4 19 -8 4 -9 3 -5 -4 11 -18 -13 -14 -32 5 -16
16 -16 16 1 10 9 -3 17 -3 18 1 0 4 2 17 5 30 2 12 0 22 -5 22 -6 0 -8 -9 -6
-20 4 -21 -9 -27 -20 -10 -3 6 -1 10 6 10 8 0 7 5 -2 17 -10 11 -10 14 -1 9 7
-4 12 -1 12 9 0 10 -5 13 -12 9 -7 -4 -10 -4 -6 1 4 4 3 15 -2 25 -6 11 -4 26
5 44 8 14 10 24 6 21 -5 -2 -11 6 -13 20 -3 14 -1 25 4 25 5 0 6 5 2 11 -10
16 -23 -9 -17 -32 3 -10 0 -19 -6 -19 -6 0 -8 7 -4 17 5 12 3 14 -8 8 -11 -7
-12 -6 -2 6 13 15 14 81 2 73 -4 -2 -9 3 -13 11 -3 8 -11 13 -18 11 -7 -1 -10
-1 -5 1 4 3 4 9 1 15 -4 5 4 5 16 -2 12 -7 20 -7 16 -2 -3 6 0 13 6 15 7 3 3
6 -8 6 -16 1 -21 7 -21 27 0 14 -6 31 -12 37 -10 9 -10 5 -1 -18 6 -16 7 -25
1 -20 -18 19 -18 70 1 59 7 -4 8 -3 4 4 -4 7 -14 12 -22 12 -8 0 -12 -4 -9
-10 4 -6 -1 -7 -11 -3 -15 5 -15 7 0 15 9 5 14 14 11 19 -4 5 -12 6 -18 2 -9
-5 -9 -3 0 8 9 11 8 18 -3 33 -11 16 -11 21 -1 28 9 6 9 8 0 8 -19 0 -26 -20
-13 -35 7 -9 8 -15 2 -15 -14 0 -22 24 -15 51 4 15 3 20 -5 15 -7 -4 -12 -3
-12 3 0 5 -3 17 -7 27 -5 13 -3 15 7 9 9 -5 11 -4 6 4 -5 7 -17 9 -29 5 -21
-6 -21 -6 -3 8 15 12 16 17 6 23 -9 5 -11 4 -6 -3 4 -7 2 -12 -3 -12 -10 0
-17 39 -11 65 1 6 -2 7 -6 2 -11 -10 -43 43 -37 62 3 13 2 12 -7 -1 -6 -10
-16 -18 -23 -18 -8 0 -7 3 2 9 11 7 9 10 -7 15 -14 5 -19 13 -15 29 5 22 5 22
-11 2 -15 -19 -16 -19 -6 10 l11 29 -22 -19 c-22 -20 -22 -20 -11 2 7 12 15
23 19 25 5 3 1 3 -7 1 -42 -12 -49 -11 -43 4 5 12 3 14 -7 8 -8 -5 -11 -4 -6
3 3 6 -4 19 -17 29 -24 19 -32 53 -13 53 6 0 5 4 -3 9 -8 5 -21 7 -29 3 -10
-3 -13 -1 -8 6 4 7 2 12 -3 12 -6 0 -11 -5 -11 -12 0 -6 -3 -8 -6 -5 -4 4 -1
13 6 22 9 11 9 15 1 15 -7 0 -9 5 -6 10 4 6 1 9 -7 8 -7 -2 -12 3 -10 10 1 8
-2 11 -9 6 -9 -5 -10 -2 -5 12 6 15 5 17 -5 7 -18 -18 -42 -16 -36 1 3 8 -4
22 -15 33 -12 10 -18 12 -14 6 4 -8 2 -13 -6 -13 -10 0 -9 -3 2 -9 8 -6 18 -7
24 -4 5 3 6 1 2 -5 -9 -15 -7 -16 -44 12 -26 19 -29 25 -17 30 9 3 13 2 10 -3
-3 -5 -1 -12 5 -16 5 -3 10 1 10 10 0 8 -7 18 -15 21 -8 4 -12 11 -8 17 3 6 1
7 -6 3 -6 -4 -8 -13 -4 -19 5 -9 3 -9 -8 0 -12 10 -18 10 -28 0 -11 -10 -11
-8 -2 10 13 26 14 36 2 28 -5 -3 -17 2 -25 11 -9 8 -16 11 -16 5 0 -5 8 -15
18 -20 14 -9 13 -10 -8 -7 -18 2 -24 9 -25 27 0 37 -13 48 -51 45 -19 -1 -37
1 -40 6 -3 5 -9 6 -14 3 -5 -3 -11 4 -15 15 -3 11 -10 20 -15 20 -5 0 -16 3
-24 6 -13 5 -15 2 -9 -12 7 -18 6 -18 -11 -1 -10 9 -22 14 -28 11 -7 -4 -8 -2
-4 5 4 6 12 9 17 6 5 -4 17 -1 26 5 16 9 15 10 -4 5 -14 -4 -23 -2 -23 4 0 6
-7 11 -16 11 -8 0 -13 -4 -9 -9 3 -5 1 -13 -5 -16 -6 -4 -10 -3 -9 2 4 23 -2
32 -18 26 -11 -4 -14 -3 -9 5 7 12 -5 16 -31 13 -7 -1 -22 3 -32 9 -13 7 -22
7 -26 0 -3 -5 -12 -10 -18 -9 -9 0 -8 2 1 6 20 8 34 40 17 40 -8 0 -12 -4 -9
-9 3 -4 2 -8 -3 -9 -4 0 -19 -2 -33 -5 -18 -3 -21 -2 -10 5 8 5 17 8 20 6 4
-2 7 2 7 10 0 11 -4 12 -14 4 -10 -9 -13 -8 -13 2 0 9 -3 10 -8 3 -4 -6 -25
-9 -47 -8 -57 2 -57 3 -43 18 7 8 17 12 22 9 4 -3 2 -9 -5 -14 -10 -6 -10 -9
-2 -9 20 0 25 19 10 35 -12 12 -16 12 -20 1 -3 -7 -16 -16 -29 -19 -23 -6 -23
-6 -3 10 19 15 19 15 1 9 -11 -4 -23 -2 -27 6 -6 9 -12 8 -25 -3 -10 -8 -15
-9 -11 -3 4 7 0 15 -9 18 -8 3 -12 2 -9 -3 3 -5 1 -13 -5 -16 -6 -4 -10 -3 -9
2 5 28 -3 34 -40 30 -22 -2 -40 -1 -39 2 2 18 -4 21 -23 11 -24 -13 -36 -7
-23 13 5 7 2 6 -6 -3 -14 -15 -17 -15 -30 0 -8 9 -11 11 -7 4 5 -7 3 -15 -4
-20 -8 -5 -9 -3 -4 6 6 10 4 12 -8 7 -11 -4 -15 -1 -12 11 2 12 -4 17 -21 17
-20 0 -22 -2 -9 -11 25 -19 17 -26 -10 -8 -13 8 -30 12 -36 8 -8 -5 -10 -2 -5
7 4 8 1 7 -6 -2 -11 -14 -15 -14 -26 -2 -7 7 -18 10 -24 7 -8 -5 -9 -1 -5 12
6 17 6 17 -6 2 -12 -15 -14 -15 -25 0 -7 9 -10 12 -7 6 10 -23 -23 -22 -45 1
-22 24 -62 31 -53 10 2 -7 -3 -12 -11 -12 -8 0 -13 3 -11 6 2 4 -8 11 -21 18
-13 6 -22 8 -19 3 3 -4 -3 -11 -12 -14 -15 -6 -15 -9 -3 -16 17 -11 33 -3 24
12 -4 7 -2 8 5 4 22 -14 -7 -38 -31 -25 -15 8 -17 14 -8 24 8 10 8 15 -1 21
-8 4 -9 3 -5 -4 5 -8 -1 -12 -14 -12 -12 0 -19 4 -16 8 3 5 -1 9 -9 9 -8 0
-12 -4 -9 -9 3 -4 0 -8 -5 -8 -6 0 -11 5 -11 10 0 6 -5 10 -11 10 -5 0 -8 -4
-4 -9 3 -5 0 -13 -6 -17 -7 -4 -9 -3 -6 2 3 6 2 16 -4 24 -7 12 -9 11 -10 -5
0 -11 -3 -14 -6 -8 -3 10 -10 10 -25 2 -18 -10 -19 -8 -13 11 5 15 4 20 -4 16
-6 -4 -11 -15 -11 -24 0 -15 -2 -15 -10 -2 -9 13 -10 13 -10 0 0 -13 -2 -13
-9 -1 -6 9 -15 11 -27 6 -28 -12 -54 -13 -60 -3 -3 5 -13 3 -22 -4 -12 -10
-14 -10 -8 0 5 9 -4 12 -35 12 -37 0 -40 2 -26 13 14 10 2 12 -70 12 -49 0
-95 -4 -103 -10 -23 -15 -42 -15 -36 0 3 9 -2 13 -13 12 -12 -1 -17 -7 -14
-17 4 -12 3 -12 -6 1 -9 15 -48 17 -338 18 -181 1 -348 1 -373 0 -25 -1 -51
-1 -57 0 -23 2 -99 2 -183 0 -25 -1 -51 -1 -57 0 -17 1 -6 1 -335 -1 -159 -2
-288 1 -288 6 0 5 -6 4 -12 -1 -15 -11 -88 -10 -106 1 -7 4 -12 3 -12 -1 0 -5
-27 -6 -60 -3 -33 3 -60 3 -60 0 0 -9 -95 -4 -109 5 -6 3 -11 3 -11 -2 0 -4
-132 -7 -293 -5 -160 1 -312 2 -337 1 -25 -1 -51 -1 -57 0 -23 2 -99 2 -183 0
-25 -1 -51 -1 -57 0 -7 0 -21 1 -30 1 -10 0 -145 -1 -300 -1 -154 -1 -285 1
-290 4 -4 3 -24 0 -43 -7z m4337 -72 c2 -10 0 -13 -3 -6 -3 6 -9 10 -13 8 -4
-3 -8 2 -8 10 0 21 22 11 24 -12z m347 -59 c-4 -8 -11 -12 -16 -9 -6 4 -5 10
3 15 19 12 19 11 13 -6z m76 -14 c0 -6 -4 -12 -8 -15 -5 -3 -9 1 -9 9 0 8 4
15 9 15 4 0 8 -4 8 -9z m80 -32 c0 -5 -4 -9 -8 -9 -5 0 -9 7 -9 15 0 8 4 12 9
9 4 -3 8 -9 8 -15z m280 -83 c0 -3 -4 -8 -10 -11 -5 -3 -10 -1 -10 4 0 6 5 11
10 11 6 0 10 -2 10 -4z m262 -121 c-2 -11 -6 -22 -9 -25 -3 -3 -3 5 0 18 4 19
2 22 -14 17 -10 -4 -19 -2 -19 3 0 5 10 9 23 8 16 -1 21 -7 19 -21z m232 -174
c14 -15 15 -21 4 -27 -7 -4 -10 -4 -6 0 8 10 -14 36 -24 29 -5 -2 -8 1 -8 6 0
17 15 13 34 -8z m56 -83 c0 -6 -6 -5 -15 2 -8 7 -15 14 -15 16 0 2 7 1 15 -2
8 -4 15 -11 15 -16z m214 -250 c-3 -5 -11 -4 -18 1 -7 6 -15 10 -17 8 -2 -1
-1 2 3 8 11 12 10 27 0 21 -5 -3 -9 2 -9 11 0 11 7 8 23 -12 13 -16 20 -33 18
-37z m-3800 14 c3 -5 -1 -9 -9 -9 -8 0 -12 4 -9 9 3 4 7 8 9 8 2 0 6 -4 9 -8z
m102 -12 c0 -12 -4 -16 -9 -11 -5 5 -6 14 -3 20 10 15 12 14 12 -9z m124 16
c0 -2 -8 -10 -17 -17 -16 -13 -17 -12 -4 4 13 16 21 21 21 13z m36 -16 c0 -12
-4 -16 -9 -11 -5 5 -6 14 -3 20 10 15 12 14 12 -9z m160 0 c0 -12 -4 -16 -9
-11 -5 5 -6 14 -3 20 10 15 12 14 12 -9z m160 0 c0 -12 -4 -16 -9 -11 -5 5 -6
14 -3 20 10 15 12 14 12 -9z m104 -5 c-7 -8 -17 -12 -23 -8 -5 3 -7 2 -4 -4 3
-5 21 -8 39 -7 18 1 36 -3 40 -9 6 -9 8 -8 8 1 0 7 5 10 12 6 6 -4 8 -3 5 3
-4 6 0 14 9 17 8 3 13 2 10 -2 -3 -4 5 -14 17 -21 18 -11 20 -11 10 0 -19 19
-16 28 7 24 11 -2 24 3 30 13 5 9 10 12 10 6 0 -16 -25 -35 -35 -26 -5 4 -5 2
-2 -4 3 -5 21 -9 39 -8 18 1 36 -3 40 -9 6 -9 8 -8 8 1 0 7 5 10 12 6 6 -4 8
-3 5 3 -4 6 0 14 9 17 8 3 13 2 10 -2 -3 -4 5 -14 17 -21 18 -11 20 -11 10 0
-19 19 -16 28 7 24 11 -2 24 3 30 13 5 9 10 12 10 6 0 -14 -25 -36 -33 -29 -4
3 -5 2 -2 -2 3 -3 21 -7 40 -8 29 -1 34 2 30 16 -3 10 -1 20 4 24 7 4 8 -1 4
-11 -5 -12 -3 -15 6 -9 10 6 11 2 6 -16 -3 -13 -3 -19 2 -14 11 15 56 16 65 2
6 -9 8 -8 8 2 0 10 3 11 14 2 10 -8 16 -9 21 -1 3 5 11 10 16 10 6 0 8 -4 5
-8 -3 -5 1 -9 9 -9 8 0 12 4 9 9 -9 13 6 9 22 -7 9 -8 20 -15 27 -15 6 0 2 7
-9 16 -10 8 -13 13 -6 9 7 -4 20 -1 28 6 12 10 13 9 8 -5 -5 -13 -2 -17 12
-14 11 2 23 8 27 13 5 6 5 -1 2 -14 -5 -17 -4 -21 5 -16 6 4 21 -1 32 -12 12
-10 18 -12 13 -4 -6 11 -4 13 8 8 11 -4 14 -2 10 9 -4 11 -9 12 -19 3 -10 -8
-14 -8 -14 0 0 6 5 11 11 11 5 0 7 6 3 13 -4 6 2 4 13 -6 11 -9 23 -14 28 -10
4 5 6 3 2 -2 -3 -6 4 -17 16 -25 20 -12 21 -12 8 3 -8 10 -9 17 -3 17 6 0 16
-8 21 -17 6 -10 11 -12 11 -5 0 6 5 12 11 12 7 0 9 -9 6 -21 -4 -17 -3 -19 6
-10 6 6 19 11 28 11 10 0 20 6 23 13 3 6 3 1 -1 -13 -5 -22 -4 -23 11 -11 17
15 23 2 6 -15 -7 -7 -6 -11 4 -11 8 0 13 4 10 8 -2 4 5 7 16 6 11 -1 20 -5 20
-10 0 -4 5 -5 10 -2 6 3 10 -1 10 -9 0 -9 5 -16 11 -16 5 0 8 4 5 8 -2 4 0 14
6 22 8 12 9 11 4 -3 -4 -12 -2 -17 6 -14 7 2 12 11 10 18 -2 8 0 10 5 6 4 -5
8 -14 8 -20 1 -7 7 -11 14 -9 7 1 10 -2 6 -8 -3 -6 -11 -8 -16 -5 -5 4 -9 1
-9 -6 0 -6 8 -9 20 -6 14 4 23 -1 31 -16 9 -19 8 -20 -3 -6 -7 9 -19 14 -26
11 -9 -3 -6 -8 10 -17 15 -7 27 -8 35 -2 8 6 18 4 28 -6 22 -23 18 -33 -5 -12
-19 17 -20 17 -20 1 0 -9 4 -15 10 -11 5 3 17 -6 26 -20 16 -25 64 -60 50 -36
-11 18 6 13 20 -6 13 -17 14 -17 7 2 -3 11 -4 18 -2 15 2 -3 12 -15 22 -27 14
-16 15 -23 6 -29 -8 -5 -10 -3 -4 6 6 9 4 11 -5 5 -9 -5 -11 -4 -6 3 11 18 0
14 -15 -5 -8 -10 -9 -14 -2 -10 6 4 14 3 18 -2 3 -6 12 -8 20 -4 11 3 15 -2
15 -18 0 -19 -2 -21 -10 -9 -5 8 -10 11 -10 5 0 -5 4 -16 9 -24 7 -11 10 -9
15 7 4 11 14 23 24 27 14 5 15 4 5 -6 -16 -16 -17 -39 -2 -39 5 0 7 5 4 10 -3
6 -2 10 3 10 6 0 13 -7 16 -16 3 -8 2 -13 -3 -10 -5 3 -11 -3 -14 -13 -4 -15
0 -18 18 -17 13 2 27 -5 34 -17 7 -10 8 -16 2 -13 -5 4 -9 -2 -8 -13 1 -16 4
-18 16 -8 12 10 13 9 2 -10 -10 -21 -9 -23 10 -23 22 0 22 0 3 -21 -10 -11
-14 -19 -9 -17 6 2 12 -1 14 -7 3 -5 10 -16 17 -23 7 -7 11 -19 7 -27 -4 -11
0 -14 13 -9 17 6 17 5 -1 -9 -15 -12 -17 -19 -9 -27 9 -9 14 -9 19 1 6 8 4 10
-6 4 -8 -5 -10 -4 -6 0 4 5 14 10 23 11 12 2 13 0 3 -12 -15 -18 -21 -64 -8
-64 5 0 9 -5 9 -11 0 -5 -6 -7 -12 -3 -9 5 -9 2 1 -9 11 -14 11 -17 0 -17 -10
-1 -9 -3 3 -10 12 -7 16 -22 14 -54 -1 -25 2 -42 6 -40 13 8 9 -11 -4 -25 -10
-11 -10 -13 0 -7 6 4 12 2 12 -3 0 -6 -6 -11 -12 -12 -10 0 -10 -2 0 -6 6 -2
9 -10 5 -16 -10 -16 -11 -47 -2 -47 4 0 10 -7 13 -16 5 -13 4 -14 -7 -6 -10 9
-14 8 -14 -3 0 -8 5 -15 11 -15 6 -1 0 -7 -14 -16 -14 -8 -18 -13 -10 -12 9 2
16 -1 17 -7 1 -5 -5 -9 -13 -9 -8 1 -14 -2 -14 -7 0 -9 15 -13 33 -10 5 1 6
-3 3 -8 -4 -5 -16 -8 -29 -6 -20 4 -21 3 -4 -9 21 -16 22 -27 2 -20 -11 5 -13
2 -9 -10 4 -10 1 -16 -7 -16 -7 0 -9 -3 -6 -6 4 -4 14 -1 23 7 16 13 16 12 6
-7 -6 -12 -8 -25 -4 -30 4 -5 -1 -2 -11 6 -10 7 -17 9 -15 4 1 -5 -4 -20 -12
-34 -7 -14 -14 -27 -14 -30 -1 -3 -5 -4 -11 -2 -5 2 -1 -7 10 -19 20 -22 20
-22 1 -15 -19 7 -19 6 -3 -12 17 -19 17 -19 -5 -18 -13 0 -23 -5 -24 -11 -1
-7 -3 -16 -4 -20 -1 -5 -2 -12 -1 -17 1 -5 -4 -13 -11 -17 -10 -7 -10 -9 0 -9
6 0 12 -4 12 -10 0 -5 -6 -7 -14 -4 -9 4 -13 -2 -11 -21 3 -21 1 -24 -10 -15
-11 9 -12 7 -7 -12 5 -21 4 -22 -11 -9 -15 12 -17 12 -11 -4 6 -14 4 -16 -6
-10 -10 6 -12 4 -7 -8 4 -12 1 -17 -10 -17 -14 0 -14 -2 3 -15 18 -13 18 -14
-6 -8 -21 5 -23 4 -13 -8 15 -18 1 -45 -18 -34 -9 6 -11 3 -6 -8 5 -15 1 -16
-26 -12 l-32 5 25 -15 25 -14 -24 -1 c-18 0 -21 -3 -13 -13 9 -10 5 -13 -19
-11 -24 2 -28 -1 -19 -11 9 -10 9 -19 0 -32 -10 -16 -11 -16 -6 -1 3 10 1 20
-4 23 -6 4 -11 1 -11 -4 -2 -12 -5 -26 -9 -38 -1 -5 -2 -12 -1 -16 1 -5 -3 -6
-9 -2 -8 5 -7 11 1 21 8 10 8 14 0 14 -6 0 -11 -4 -11 -8 0 -5 -7 -17 -16 -28
-8 -10 -13 -14 -10 -8 3 7 0 14 -7 17 -10 4 -13 -2 -9 -19 2 -14 0 -24 -7 -24
-7 0 -10 4 -6 9 12 21 -37 5 -58 -18 -12 -13 -17 -21 -10 -17 6 3 14 2 18 -4
6 -9 -30 -15 -65 -10 -8 1 -12 -1 -8 -5 4 -4 1 -14 -7 -21 -17 -17 -29 -18
-19 -2 5 7 3 8 -5 3 -7 -4 -11 -16 -8 -26 3 -11 1 -17 -3 -14 -5 3 -10 0 -13
-7 -2 -7 -3 -6 -2 4 2 9 -6 18 -17 21 -16 5 -17 3 -6 -11 11 -14 10 -15 -5 -9
-11 4 -16 3 -12 -3 3 -6 1 -10 -5 -10 -6 0 -9 -4 -6 -9 4 -5 -6 -8 -20 -6 -21
2 -25 -1 -21 -17 4 -15 2 -17 -7 -9 -14 12 -26 5 -22 -12 2 -7 1 -9 -1 -4 -3
4 -10 4 -16 0 -7 -4 -6 1 2 10 8 10 11 20 7 24 -3 3 -6 1 -6 -6 0 -8 -6 -11
-16 -7 -11 4 -15 2 -11 -6 2 -7 -2 -19 -10 -27 -13 -12 -14 -11 -9 10 6 20 5
21 -4 6 -6 -10 -16 -14 -23 -10 -8 4 -8 1 1 -9 11 -14 8 -16 -32 -15 -24 1
-43 0 -41 -1 2 -2 -4 -12 -13 -22 -13 -16 -19 -17 -31 -7 -12 10 -14 9 -9 -5
4 -9 1 -19 -7 -22 -10 -3 -12 0 -8 12 6 14 4 15 -9 4 -9 -7 -20 -12 -24 -11
-23 4 -35 -2 -28 -13 6 -10 4 -10 -7 0 -7 6 -18 12 -24 12 -5 0 -3 -5 5 -11
12 -9 10 -10 -8 -6 -19 5 -22 2 -18 -16 3 -12 3 -16 0 -9 -3 6 -10 9 -16 6 -6
-4 -8 2 -3 16 6 20 5 21 -8 9 -8 -8 -14 -16 -14 -19 1 -3 -2 -6 -7 -7 -5 -1
-12 -7 -16 -13 -5 -8 -9 -7 -13 3 -4 11 0 15 14 12 16 -3 18 -1 9 16 -13 23
-22 26 -13 4 3 -9 2 -15 -3 -13 -5 2 -10 -1 -11 -6 -2 -10 -24 -26 -38 -26 -5
0 -4 5 3 12 7 7 12 17 12 22 0 6 -5 3 -11 -7 -6 -9 -14 -15 -19 -12 -5 3 -11
1 -15 -4 -3 -6 -12 -8 -19 -5 -8 3 -16 1 -20 -4 -6 -10 24 -10 40 1 6 3 11 0
11 -7 0 -9 -9 -13 -24 -10 -14 3 -22 1 -19 -4 3 -5 -1 -9 -9 -9 -8 0 -11 5 -8
10 4 6 0 8 -10 4 -22 -8 -22 2 1 20 15 12 14 13 -8 1 -34 -17 -42 -17 -65 1
-19 16 -20 15 -2 -5 9 -11 17 -27 17 -35 0 -12 -2 -11 -10 1 -8 12 -12 13 -19
2 -6 -11 -10 -10 -15 5 -7 17 -8 17 -22 -1 -9 -13 -14 -15 -14 -6 0 9 -5 7
-14 -5 -8 -11 -12 -24 -9 -30 3 -5 0 -4 -8 4 -11 10 -11 15 -1 18 6 3 12 12
12 21 0 13 -2 13 -14 -3 -8 -12 -20 -16 -34 -13 -16 5 -19 2 -15 -11 4 -9 2
-13 -2 -8 -5 4 -18 -1 -29 -10 -21 -18 -21 -18 -3 3 16 19 16 22 2 28 -9 3
-13 2 -10 -3 3 -5 1 -12 -5 -16 -5 -3 -10 -1 -10 6 0 9 -3 9 -14 0 -11 -9 -20
-10 -35 -1 -12 6 -21 8 -21 4 0 -3 -8 0 -17 7 -16 13 -17 12 -4 -3 7 -10 17
-16 21 -13 5 3 12 0 16 -6 4 -8 3 -9 -4 -5 -7 4 -12 2 -12 -4 0 -7 -7 -5 -16
4 -19 19 -25 20 -18 3 3 -8 -4 -13 -18 -14 -13 0 -17 1 -10 4 6 3 12 9 12 14
0 5 -10 4 -22 -3 -13 -7 -27 -12 -31 -13 -4 0 -12 -7 -18 -15 -9 -13 -10 -12
-5 2 6 20 -10 34 -17 16 -4 -10 -8 -9 -16 2 -7 10 -11 11 -11 3 0 -7 -7 -13
-16 -13 -8 0 -12 -5 -8 -11 3 -6 -6 -3 -22 7 -15 11 -25 13 -21 7 5 -8 3 -13
-3 -13 -6 0 -8 -5 -4 -12 4 -7 3 -8 -5 -4 -6 4 -8 13 -4 19 3 7 -3 4 -14 -6
-16 -14 -20 -15 -20 -2 0 8 4 15 9 15 5 0 6 5 3 11 -5 6 -13 3 -22 -10 -8 -12
-19 -18 -25 -15 -7 4 -6 9 2 14 8 5 7 9 -4 13 -21 8 -30 -11 -14 -30 11 -14
11 -16 -2 -8 -8 5 -35 10 -60 10 -74 3 -77 4 -62 14 11 7 11 9 -1 14 -12 4
-14 -1 -11 -26 3 -18 1 -27 -3 -22 -11 14 -33 17 -33 4 0 -6 -9 -1 -21 12
l-20 24 5 -25 c3 -14 3 -19 0 -12 -3 6 -11 9 -16 6 -7 -5 -8 -2 -4 7 4 8 1 6
-7 -4 -10 -12 -16 -14 -19 -6 -2 6 -16 12 -31 12 -19 0 -25 3 -19 11 15 18 10
46 -7 46 -13 0 -14 2 -2 9 8 5 16 17 17 25 1 9 -2 14 -7 10 -5 -3 -7 -10 -4
-15 3 -5 -1 -6 -10 -2 -13 4 -14 8 -4 14 10 6 10 11 0 22 -8 11 -9 17 -1 22 8
5 8 10 0 20 -7 8 -7 15 -1 19 12 8 19 -4 16 -26 -2 -10 0 -18 4 -18 4 0 7 20
7 44 -1 24 -4 42 -8 39 -5 -2 -8 3 -8 12 0 10 -5 13 -12 9 -10 -6 -10 -5 -1 8
7 8 9 19 5 23 -4 5 0 5 8 1 8 -4 6 0 -5 10 -20 16 -20 16 0 12 15 -4 21 0 21
13 0 10 -4 15 -8 13 -7 -4 -10 10 -7 32 0 4 -5 11 -13 15 -9 6 -6 9 12 9 l25
1 -25 15 c-14 8 -17 13 -7 10 20 -6 22 4 5 23 -11 11 -10 13 2 7 8 -4 6 0 -5
10 -20 16 -20 16 2 11 17 -4 21 -1 18 16 -3 11 -12 29 -22 41 -17 20 -17 20 1
6 18 -14 19 -14 7 8 -6 12 -9 22 -5 22 3 0 0 8 -7 18 -13 15 -12 16 3 3 10 -7
15 -17 12 -22 -3 -5 0 -9 5 -9 15 0 14 12 -5 38 -9 13 -11 22 -4 22 6 0 8 5 5
10 -4 6 -12 7 -18 3 -7 -4 -6 0 2 10 11 14 11 17 0 17 -11 0 -11 2 1 10 12 7
12 12 3 21 -9 9 -10 16 -2 26 8 9 8 17 0 27 -8 9 -8 16 -2 20 14 9 19 -4 16
-41 -1 -18 1 -30 4 -27 9 9 8 113 -1 108 -5 -3 -8 2 -8 10 0 9 -6 16 -12 17
-10 0 -10 2 0 6 6 2 9 10 5 16 -4 6 -1 8 9 5 11 -5 14 1 13 26 -1 17 2 36 7
42 5 7 3 14 -6 17 -10 4 -13 1 -9 -9 3 -7 0 -14 -7 -14 -6 0 -8 5 -5 10 3 6 0
10 -7 10 -10 0 -10 2 1 9 8 5 11 16 7 26 -6 16 -4 16 11 4 15 -12 16 -12 8 1
-4 8 -15 24 -24 35 -15 19 -15 19 3 5 18 -14 19 -14 7 8 -6 12 -9 22 -5 22 3
0 0 8 -7 18 -13 15 -12 16 3 3 10 -7 15 -17 12 -22 -3 -5 0 -9 5 -9 15 0 14
12 -5 38 -9 13 -11 22 -4 22 6 0 8 5 5 10 -4 6 -12 7 -18 3 -8 -4 -7 -1 1 9 9
11 10 18 2 23 -6 3 -8 11 -4 16 9 15 23 0 19 -21 -2 -11 0 -20 4 -20 4 0 7 20
7 44 -1 24 -4 42 -8 39 -5 -2 -8 3 -8 12 0 10 -5 13 -12 9 -10 -6 -10 -5 -1 8
7 8 9 19 5 23 -4 5 0 5 8 1 8 -4 6 0 -5 10 -20 16 -20 16 0 12 15 -4 21 0 21
13 0 10 -4 15 -8 13 -7 -4 -10 10 -7 32 0 4 -5 11 -13 16 -10 7 -8 8 6 6 11
-2 21 -9 24 -17 3 -9 0 -11 -8 -6 -9 6 -11 4 -5 -4 5 -9 11 -9 17 -3 13 13
-25 65 -38 54 -5 -4 -3 0 4 9 6 9 8 20 4 24 -4 5 0 5 8 1 8 -4 6 0 -5 10 -20
16 -20 16 2 11 17 -4 21 -1 18 16 -3 11 -12 29 -22 41 -17 20 -17 20 1 6 18
-14 19 -14 7 8 -6 12 -9 22 -5 22 3 0 0 8 -7 18 -13 15 -12 16 3 3 10 -7 15
-17 12 -22 -3 -5 0 -9 5 -9 15 0 14 12 -5 38 -9 13 -11 22 -4 22 6 0 8 5 5 10
-4 6 -12 7 -18 3 -7 -4 -6 0 2 10 11 14 11 17 0 17 -11 0 -11 2 1 10 12 7 12
12 3 21 -9 9 -10 16 -2 26 8 9 8 17 0 27 -8 9 -8 16 -2 20 14 9 19 -4 16 -41
-1 -18 1 -30 4 -27 9 9 8 113 -1 108 -5 -3 -8 2 -8 10 0 9 -5 16 -12 16 -6 0
-3 7 8 16 10 8 13 13 7 9 -9 -4 -11 -1 -6 11 4 12 3 15 -6 10 -9 -6 -9 -3 1
13 10 16 10 25 1 39 -9 15 -8 19 3 19 7 0 10 -5 7 -10 -3 -6 -2 -7 4 -4 15 10
7 56 -14 80 -10 11 -12 17 -5 13 8 -5 12 -1 12 11 0 11 -6 25 -12 33 -7 8 -2
6 12 -5 l24 -20 -17 27 c-14 23 -14 27 -1 32 13 5 13 9 -1 36 -9 17 -12 30 -8
29 20 -3 27 2 13 12 -13 9 -13 10 0 6 9 -2 14 -14 13 -28 -2 -21 -2 -22 8 -6
6 10 9 24 6 30 -3 8 8 12 30 13 23 1 31 -2 23 -10 -5 -5 -10 -15 -10 -20 0 -7
3 -7 8 0 4 6 19 14 34 18 23 5 27 4 21 -11 -5 -17 -5 -17 8 0 8 10 21 19 29
20 8 2 21 6 28 11 12 7 12 4 2 -14 -6 -12 -9 -24 -6 -28 3 -3 6 -1 6 4 0 13
43 13 52 0 5 -8 8 -7 8 1 0 7 10 17 21 24 12 6 19 7 16 2 -3 -5 4 -15 16 -22
18 -11 20 -11 10 0 -17 17 -16 26 2 26 8 0 12 -4 9 -9 -3 -4 6 -8 20 -8 13 0
26 3 29 8 2 4 2 1 0 -6 -1 -7 2 -10 8 -6 6 4 15 0 20 -7 6 -10 9 -10 9 -2 0 7
10 17 21 24 12 6 19 7 16 2 -3 -5 4 -15 16 -22 18 -11 20 -11 10 0 -18 18 -16
25 7 26 11 1 20 -3 20 -8 0 -6 -5 -7 -12 -3 -6 4 -8 3 -5 -3 3 -5 20 -8 38 -5
20 3 34 0 40 -9 6 -10 9 -10 9 -2 0 7 10 17 21 24 12 6 19 7 16 2 -3 -5 4 -15
16 -22 18 -11 20 -11 10 0 -19 20 -16 24 18 25 20 1 27 -1 18 -6 -7 -5 -17 -6
-23 -3 -5 3 -6 2 -3 -4 3 -5 21 -8 39 -7 18 1 36 -3 40 -9 6 -9 8 -9 8 0 0 7
10 17 21 24 12 6 19 7 16 2 -3 -5 4 -15 16 -22 18 -11 20 -11 10 0 -19 19 -16
28 7 24 12 -2 23 2 27 11 3 8 8 13 11 10 3 -3 -1 -12 -8 -21z m56 5 c0 -12 -4
-16 -9 -11 -5 5 -6 14 -3 20 10 15 12 14 12 -9z m160 0 c0 -12 -4 -16 -9 -11
-5 5 -6 14 -3 20 10 15 12 14 12 -9z m232 8 c-2 -7 3 -12 10 -10 8 1 11 -2 7
-8 -4 -6 -13 -5 -25 2 -14 9 -16 14 -7 20 16 10 17 10 15 -4z m-1058 -18 c0
-5 -5 -10 -11 -10 -5 0 -7 5 -4 10 3 6 8 10 11 10 2 0 4 -4 4 -10z m-241 -63
c8 -10 7 -14 -2 -14 -8 0 -14 6 -14 14 0 7 1 13 2 13 2 0 8 -6 14 -13z m0
-141 c9 -11 9 -16 -1 -22 -7 -4 -10 -4 -6 1 4 4 3 14 -3 22 -6 7 -9 13 -6 13
2 0 10 -6 16 -14z m1994 -13 c-7 -2 -13 -9 -13 -14 0 -4 7 -5 17 -2 11 4 14 3
9 -5 -11 -18 -24 -15 -36 8 -9 17 -8 20 12 19 13 0 17 -3 11 -6z m-1988 -191
c-3 -3 -11 0 -18 7 -9 10 -8 11 6 5 10 -3 15 -9 12 -12z m2269 -263 c-3 -5
-10 -7 -15 -3 -5 3 -7 10 -3 15 3 5 10 7 15 3 5 -3 7 -10 3 -15z m1938 -23 c7
4 8 2 4 -4 -11 -18 -26 -14 -25 6 0 10 3 12 6 4 2 -6 10 -9 15 -6z m-4207
-274 c-3 -3 -11 0 -18 7 -9 10 -8 11 6 5 10 -3 15 -9 12 -12z m-1928 -47 c0
-8 -4 -12 -9 -9 -5 3 -6 10 -3 15 9 13 12 11 12 -6z m4146 -200 c-3 -8 -10
-15 -15 -15 -7 0 -6 5 1 13 6 8 7 18 3 22 -4 5 -2 5 5 1 7 -4 10 -13 6 -21z
m-2217 -45 c0 -9 -5 -17 -11 -17 -6 0 -11 8 -11 17 0 9 5 17 11 17 6 0 11 -8
11 -17z m2199 -32 c5 4 5 1 1 -6 -4 -7 -12 -10 -17 -7 -5 4 -9 1 -9 -4 0 -6
-5 -11 -11 -11 -8 0 -9 4 0 13 6 8 7 18 3 23 -4 4 0 3 9 -4 9 -6 20 -8 24 -4z
m-2200 -76 c-3 -3 -11 0 -18 7 -9 10 -8 11 6 5 10 -3 15 -9 12 -12z m2112 -87
c0 -8 -4 -12 -9 -9 -5 3 -6 10 -3 15 9 13 12 11 12 -6z m1898 -223 c-10 -9
-15 -12 -11 -5 3 6 3 13 -1 16 -5 2 -2 2 5 1 6 -2 12 2 12 8 0 6 3 8 7 4 4 -3
-1 -14 -12 -24z m-2192 -35 c3 -8 -3 -14 -15 -14 -16 -2 -17 1 -8 13 15 17 17
17 23 1z m-48 -56 c3 -5 2 -12 -3 -15 -5 -3 -9 1 -9 9 0 17 3 19 12 6z m-1770
-159 c-3 -3 -11 0 -18 7 -9 10 -8 11 6 5 10 -3 15 -9 12 -12z m1415 -12 c0 -5
-2 -10 -4 -10 -3 0 -8 5 -11 10 -3 6 -1 10 4 10 6 0 11 -4 11 -10z m-452 -125
c-3 -3 -9 2 -12 12 -6 14 -5 15 5 6 7 -7 10 -15 7 -18z m-964 -36 c-3 -5 -10
-7 -15 -3 -5 3 -7 10 -3 15 3 5 10 7 15 3 5 -3 7 -10 3 -15z m3710 -8 c3 -5
-1 -14 -8 -20 -12 -10 -14 -9 -11 6 2 10 4 19 4 21 2 5 10 2 15 -7z m-84 -71
c0 8 3 11 6 7 4 -3 -3 -18 -15 -33 -15 -19 -21 -22 -21 -10 0 9 5 16 11 16 8
0 7 6 -2 18 -13 15 -12 16 4 3 13 -11 17 -11 17 -1z m-50 -55 c-7 -9 -15 -13
-17 -11 -6 6 20 36 26 30 2 -2 -2 -10 -9 -19z m-80 -79 c0 -2 -7 -9 -15 -16
-13 -11 -14 -10 -9 4 5 14 24 23 24 12z m-100 -46 c0 -5 -5 -10 -11 -10 -5 0
-7 5 -4 10 3 6 8 10 11 10 2 0 4 -4 4 -10z m-475 -430 c3 -6 -1 -7 -9 -4 -18
7 -21 14 -7 14 6 0 13 -4 16 -10z m60 -99 c3 -5 2 -12 -3 -15 -5 -3 -9 1 -9 9
0 17 3 19 12 6z m-4908 -46 c0 -8 -4 -12 -9 -9 -5 3 -6 10 -3 15 9 13 12 11
12 -6z m2608 -64 c-6 -5 -25 10 -25 20 0 5 6 4 14 -3 8 -7 12 -15 11 -17z
m2360 -21 c3 -5 1 -10 -4 -10 -6 0 -11 5 -11 10 0 6 2 10 4 10 3 0 8 -4 11
-10z m49 -89 c-2 -3 -12 3 -22 13 -16 17 -16 18 5 5 12 -7 20 -15 17 -18z
m110 -159 c3 -5 -1 -9 -9 -9 -8 0 -12 4 -9 9 3 4 7 8 9 8 2 0 6 -4 9 -8z
m-3187 -19 c3 -9 -8 -10 -35 -4 -2 1 0 6 3 12 8 12 27 7 32 -8z m3216 -48 c-7
-21 -13 -19 -13 6 0 11 4 18 10 14 5 -3 7 -12 3 -20z m-2113 -27 c0 -4 -4 -8
-9 -8 -6 0 -12 4 -15 8 -3 5 1 9 9 9 8 0 15 -4 15 -9z m-1113 -204 c-3 -3 -12
-4 -19 -1 -8 3 -5 6 6 6 11 1 17 -2 13 -5z m1253 -34 c0 -5 -5 -10 -11 -10 -5
0 -7 5 -4 10 3 6 8 10 11 10 2 0 4 -4 4 -10z m20 -24 c0 -2 -9 -6 -20 -9 -11
-3 -18 -1 -14 4 5 9 34 13 34 5z m-1275 -66 c3 -6 -1 -7 -9 -4 -18 7 -21 14
-7 14 6 0 13 -4 16 -10z m1338 -77 c-4 -10 -9 -11 -19 -2 -18 15 -18 15 5 15
11 0 17 -5 14 -13z m2161 -41 c2 -4 0 -14 -6 -22 -8 -12 -9 -12 -5 2 3 9 1 19
-6 22 -9 3 -9 5 0 5 6 1 14 -3 17 -7z m70 -127 c3 -8 1 -15 -4 -15 -6 0 -10 7
-10 15 0 8 2 15 4 15 2 0 6 -7 10 -15z m41 -85 c3 -5 1 -10 -4 -10 -6 0 -11 5
-11 10 0 6 2 10 4 10 3 0 8 -4 11 -10z m-3598 -67 c3 -9 -8 -10 -35 -4 -2 1 0
6 3 12 8 12 27 7 32 -8z m3658 -24 c11 -16 1 -19 -13 -3 -7 8 -8 14 -3 14 5 0
13 -5 16 -11z m-2075 -107 c0 -5 -7 -9 -15 -9 -8 0 -12 4 -9 9 3 4 9 8 15 8 5
0 9 -4 9 -8z m10 -42 c0 -5 -5 -10 -11 -10 -5 0 -7 5 -4 10 3 6 8 10 11 10 2
0 4 -4 4 -10z m-1593 -147 c3 -9 -8 -10 -35 -4 -2 1 0 6 3 12 8 12 27 7 32 -8z
m3850 -28 c0 -8 -6 -16 -14 -19 -11 -4 -11 -1 -3 14 13 24 17 25 17 5z m-2134
-76 c-8 -8 -13 -7 -18 2 -5 8 -4 10 3 5 7 -4 12 -2 12 5 0 7 3 9 7 6 4 -4 2
-12 -4 -18z m-1716 -216 c3 -9 -8 -10 -35 -4 -2 1 0 6 3 12 8 12 27 7 32 -8z
m1883 -93 c0 -5 -2 -10 -4 -10 -3 0 -8 5 -11 10 -3 6 -1 10 4 10 6 0 11 -4 11
-10z m13 -31 c-8 -8 -13 -7 -18 2 -5 8 -4 10 3 5 7 -4 12 -2 12 5 0 7 3 9 7 6
4 -4 2 -12 -4 -18z m-3836 -4 c0 -8 -4 -12 -9 -9 -5 3 -6 10 -3 15 9 13 12 11
12 -6z m6043 -39 c0 -3 -4 -8 -10 -11 -5 -3 -10 -1 -10 4 0 6 5 11 10 11 6 0
10 -2 10 -4z m-4103 -153 c3 -9 -8 -10 -35 -4 -2 1 0 6 3 12 8 12 27 7 32 -8z
m0 -320 c3 -9 -8 -10 -35 -4 -2 1 0 6 3 12 8 12 27 7 32 -8z m2212 -57 c10
-12 9 -14 -5 -12 -10 2 -20 8 -22 14 -5 17 13 15 27 -2z m2226 -46 c-3 -5 -14
-10 -23 -9 -14 0 -13 2 3 9 27 11 27 11 20 0z m-2192 -14 c4 -10 1 -13 -8 -9
-8 3 -12 9 -9 14 7 12 11 11 17 -5z m2202 -16 c3 -5 1 -10 -4 -10 -6 0 -11 5
-11 10 0 6 2 10 4 10 3 0 8 -4 11 -10z m-2188 -25 c0 -8 -4 -12 -9 -9 -4 3 -8
9 -8 15 0 5 4 9 8 9 5 0 9 -7 9 -15z m-3913 -26 c-3 -5 -10 -7 -15 -3 -5 3 -7
10 -3 15 3 5 10 7 15 3 5 -3 7 -10 3 -15z m1006 15 c0 -8 -19 -13 -24 -6 -3 5
1 9 9 9 8 0 15 -2 15 -3z m34 -15 c-3 -5 -10 -7 -15 -3 -5 3 -7 10 -3 15 3 5
10 7 15 3 5 -3 7 -10 3 -15z m3401 11 c-3 -5 -12 -10 -18 -10 -7 0 -6 4 3 10
19 12 23 12 15 0z m39 -11 c-3 -5 -10 -7 -15 -3 -5 3 -7 10 -3 15 3 5 10 7 15
3 5 -3 7 -10 3 -15z m601 11 c-3 -5 -12 -10 -18 -10 -7 0 -6 4 3 10 19 12 23
12 15 0z m39 -11 c-3 -5 -10 -7 -15 -3 -5 3 -7 10 -3 15 3 5 10 7 15 3 5 -3 7
-10 3 -15z"/>
<path d="M2505 5851 c-3 -5 -2 -12 3 -15 5 -3 9 1 9 9 0 17 -3 19 -12 6z"/>
<path d="M2350 5760 c0 -5 5 -10 11 -10 5 0 7 5 4 10 -3 6 -8 10 -11 10 -2 0
-4 -4 -4 -10z"/>
<path d="M4163 5733 c-15 -5 -17 -23 -4 -23 5 0 11 7 15 15 3 8 4 15 3 14 -1
0 -8 -3 -14 -6z"/>
<path d="M2330 5685 c0 -7 30 -13 34 -7 3 4 -4 9 -15 9 -10 1 -19 0 -19 -2z"/>
<path d="M2335 5561 c-3 -5 0 -13 6 -17 8 -5 9 -3 4 6 -6 10 -4 12 9 7 10 -4
15 -3 11 3 -8 13 -22 13 -30 1z"/>
<path d="M2351 5517 c-1 -11 -6 -15 -13 -11 -7 5 -8 3 -3 -5 10 -16 29 2 22
21 -4 8 -6 7 -6 -5z"/>
<path d="M2333 5324 c0 -16 13 -19 21 -5 3 5 0 11 -7 14 -8 3 -14 -1 -14 -9z"/>
<path d="M4533 5285 c0 -8 4 -12 9 -9 5 3 6 10 3 15 -9 13 -12 11 -12 -6z"/>
<path d="M2350 5281 c0 -6 4 -13 10 -16 6 -3 7 1 4 9 -7 18 -14 21 -14 7z"/>
<path d="M2350 5201 c0 -6 4 -13 10 -16 6 -3 7 1 4 9 -7 18 -14 21 -14 7z"/>
<path d="M2353 5118 c1 -7 -4 -12 -11 -10 -8 1 -11 -2 -7 -8 5 -8 11 -8 21 1
7 6 11 15 8 20 -8 13 -14 11 -11 -3z"/>
<path d="M2353 4958 c1 -7 -4 -12 -11 -10 -8 1 -11 -2 -7 -8 5 -8 11 -8 21 1
7 6 11 15 8 20 -8 13 -14 11 -11 -3z"/>
<path d="M2350 4801 c0 -6 4 -13 10 -16 6 -3 7 1 4 9 -7 18 -14 21 -14 7z"/>
<path d="M2350 4721 c0 -6 4 -13 10 -16 6 -3 7 1 4 9 -7 18 -14 21 -14 7z"/>
<path d="M2335 4540 c3 -5 8 -10 11 -10 2 0 4 5 4 10 0 6 -5 10 -11 10 -5 0
-7 -4 -4 -10z"/>
<path d="M2333 4364 c0 -16 13 -19 21 -5 3 5 0 11 -7 14 -8 3 -14 -1 -14 -9z"/>
<path d="M4357 4363 c-4 -6 0 -13 8 -17 8 -3 17 0 21 6 4 6 3 8 -4 4 -5 -3
-12 -1 -14 6 -3 8 -6 9 -11 1z"/>
<path d="M2350 4321 c0 -6 4 -13 10 -16 6 -3 7 1 4 9 -7 18 -14 21 -14 7z"/>
<path d="M4231 4247 c-8 -10 -7 -14 2 -14 8 0 14 6 14 14 0 7 -1 13 -2 13 -2
0 -8 -6 -14 -13z"/>
<path d="M2350 4241 c0 -6 4 -13 10 -16 6 -3 7 1 4 9 -7 18 -14 21 -14 7z"/>
<path d="M2351 4154 c0 -11 3 -14 6 -6 3 7 2 16 -1 19 -3 4 -6 -2 -5 -13z"/>
<path d="M2336 4091 c-4 -5 -2 -12 3 -15 5 -4 12 -2 15 3 4 5 2 12 -3 15 -5 4
-12 2 -15 -3z"/>
<path d="M3915 4040 c-3 -5 -1 -10 4 -10 6 0 11 5 11 10 0 6 -2 10 -4 10 -3 0
-8 -4 -11 -10z"/>
<path d="M2353 3998 c1 -7 -4 -12 -11 -10 -8 1 -11 -2 -7 -8 5 -8 11 -8 21 1
7 6 11 15 8 20 -8 13 -14 11 -11 -3z"/>
<path d="M3727 3959 c7 -7 15 -10 18 -7 3 3 -2 9 -12 12 -14 6 -15 5 -6 -5z"/>
<path d="M2866 3772 c-3 -5 1 -9 9 -9 8 0 12 4 9 9 -3 4 -7 8 -9 8 -2 0 -6 -4
-9 -8z"/>
<path d="M2364 3758 c-4 -7 -4 -10 1 -6 4 4 14 0 22 -10 13 -15 13 -15 3 6
-12 25 -16 27 -26 10z"/>
<path d="M2454 3759 c-4 -7 -3 -9 4 -5 6 3 15 -2 21 -11 6 -10 11 -13 11 -7 0
20 -27 37 -36 23z"/>
<path d="M2551 3756 c-10 -11 -9 -14 1 -12 14 2 23 15 15 22 -2 2 -10 -2 -16
-10z"/>
<path d="M2597 3763 c-13 -12 -7 -23 11 -22 10 0 12 3 4 6 -6 2 -10 9 -6 14 6
10 0 12 -9 2z"/>
<path d="M4050 6749 c0 -5 5 -7 10 -4 6 3 10 8 10 11 0 2 -4 4 -10 4 -5 0 -10
-5 -10 -11z"/>
<path d="M4300 6750 c-11 -7 -11 -10 -2 -11 14 -2 30 -5 37 -9 16 -7 49 -3 53
8 4 14 -7 15 -28 2 -10 -6 -20 -4 -30 5 -10 9 -20 11 -30 5z"/>
<path d="M4775 6690 c3 -5 8 -10 11 -10 2 0 4 5 4 10 0 6 -5 10 -11 10 -5 0
-7 -4 -4 -10z"/>
<path d="M4875 6680 c3 -5 8 -10 11 -10 2 0 4 5 4 10 0 6 -5 10 -11 10 -5 0
-7 -4 -4 -10z"/>
<path d="M5350 6572 c0 -5 7 -9 15 -9 8 0 12 4 9 9 -3 4 -9 8 -15 8 -5 0 -9
-4 -9 -8z"/>
<path d="M375 6450 c-3 -5 -3 -10 2 -10 4 0 1 -5 -7 -11 -12 -8 -12 -10 -1 -7
8 2 15 12 17 21 3 19 -2 22 -11 7z"/>
<path d="M5704 6431 c20 -22 26 -25 26 -13 0 4 -10 13 -22 21 -23 14 -23 14
-4 -8z"/>
<path d="M368 6393 c-4 -13 0 -19 13 -19 14 0 16 3 6 16 -6 8 -12 16 -13 18
-1 1 -4 -5 -6 -15z"/>
<path d="M6106 6121 c-3 -5 9 -23 28 -39 19 -17 32 -34 28 -38 -4 -4 -1 -4 7
1 11 6 9 12 -10 27 -13 11 -17 18 -8 15 9 -3 16 1 16 8 0 10 -5 11 -19 4 -15
-8 -18 -6 -18 11 0 20 -14 27 -24 11z"/>
<path d="M6230 5980 c0 -5 5 -10 11 -10 5 0 7 5 4 10 -3 6 -8 10 -11 10 -2 0
-4 -4 -4 -10z"/>
<path d="M375 5650 c-3 -5 -3 -10 2 -10 4 0 1 -5 -7 -11 -12 -8 -12 -10 -1 -7
8 2 15 12 17 21 3 19 -2 22 -11 7z"/>
<path d="M368 5593 c-4 -13 0 -19 13 -19 14 0 16 3 6 16 -6 8 -12 16 -13 18
-1 1 -4 -5 -6 -15z"/>
<path d="M370 5365 c0 -8 4 -15 10 -15 5 0 7 7 4 15 -4 8 -8 15 -10 15 -2 0
-4 -7 -4 -15z"/>
<path d="M6516 5342 c-2 -4 -1 -14 4 -22 7 -11 9 -9 7 8 -1 24 -3 26 -11 14z"/>
<path d="M368 5273 c-4 -13 0 -19 13 -19 14 0 16 3 6 16 -6 8 -12 16 -13 18
-1 1 -4 -5 -6 -15z"/>
<path d="M6547 5077 c-3 -8 1 -14 8 -14 7 0 11 6 8 14 -3 7 -6 13 -8 13 -2 0
-5 -6 -8 -13z"/>
<path d="M6546 4928 c3 -5 10 -6 15 -3 13 9 11 12 -6 12 -8 0 -12 -4 -9 -9z"/>
<path d="M361 4844 c0 -11 3 -14 6 -6 3 7 2 16 -1 19 -3 4 -6 -2 -5 -13z"/>
<path d="M370 4808 c0 -9 7 -19 16 -22 15 -6 15 -4 3 11 -7 10 -15 20 -16 22
-2 2 -3 -3 -3 -11z"/>
<path d="M6530 4775 c-7 -9 -8 -15 -2 -15 5 0 12 7 16 15 3 8 4 15 2 15 -2 0
-9 -7 -16 -15z"/>
<path d="M368 4713 c-4 -13 0 -19 13 -19 14 0 16 3 6 16 -6 8 -12 16 -13 18
-1 1 -4 -5 -6 -15z"/>
<path d="M6499 4553 c-13 -16 -12 -17 4 -4 9 7 17 15 17 17 0 8 -8 3 -21 -13z"/>
<path d="M375 4530 c-3 -5 -3 -10 2 -10 4 0 1 -5 -7 -11 -12 -8 -12 -10 -1 -7
8 2 15 12 17 21 3 19 -2 22 -11 7z"/>
<path d="M368 4473 c-4 -13 0 -19 13 -19 14 0 16 3 6 16 -6 8 -12 16 -13 18
-1 1 -4 -5 -6 -15z"/>
<path d="M6292 4077 c-8 -10 -6 -13 8 -14 11 -1 22 2 25 8 4 5 -2 6 -11 2 -12
-4 -15 -3 -10 5 10 16 1 15 -12 -1z"/>
<path d="M375 3730 c-3 -5 -3 -10 2 -10 4 0 1 -5 -7 -11 -12 -8 -12 -10 -1 -7
8 2 15 12 17 21 3 19 -2 22 -11 7z"/>
<path d="M5986 3711 c-3 -5 4 -11 16 -14 29 -8 32 -4 8 11 -10 6 -21 8 -24 3z"/>
<path d="M368 3673 c-4 -13 0 -19 13 -19 14 0 16 3 6 16 -6 8 -12 16 -13 18
-1 1 -4 -5 -6 -15z"/>
<path d="M5755 3490 c-3 -5 -1 -10 4 -10 6 0 11 5 11 10 0 6 -2 10 -4 10 -3 0
-8 -4 -11 -10z"/>
<path d="M370 3445 c0 -8 4 -15 10 -15 5 0 7 7 4 15 -4 8 -8 15 -10 15 -2 0
-4 -7 -4 -15z"/>
<path d="M368 3353 c-4 -13 0 -19 13 -19 14 0 16 3 6 16 -6 8 -12 16 -13 18
-1 1 -4 -5 -6 -15z"/>
<path d="M5265 3250 c-3 -5 -1 -11 5 -15 5 -3 10 -1 10 6 0 8 4 9 13 0 10 -8
14 -7 14 2 0 15 -34 20 -42 7z"/>
<path d="M361 2924 c0 -11 3 -14 6 -6 3 7 2 16 -1 19 -3 4 -6 -2 -5 -13z"/>
<path d="M5334 2928 c3 -21 16 -38 29 -38 8 0 8 3 -1 9 -8 4 -13 11 -13 15 3
18 0 26 -8 26 -5 0 -8 -6 -7 -12z"/>
<path d="M370 2888 c0 -9 7 -19 16 -22 15 -6 15 -4 3 11 -7 10 -15 20 -16 22
-2 2 -3 -3 -3 -11z"/>
<path d="M3150 2865 c0 -8 4 -15 10 -15 5 0 7 7 4 15 -4 8 -8 15 -10 15 -2 0
-4 -7 -4 -15z"/>
<path d="M3215 2871 c-6 -11 -5 -13 18 -15 6 0 12 -6 12 -13 0 -6 3 -14 6 -17
3 -3 6 1 6 9 0 21 -33 49 -42 36z"/>
<path d="M2906 2847 c3 -10 9 -15 12 -12 3 3 0 11 -7 18 -10 9 -11 8 -5 -6z"/>
<path d="M3073 2843 c0 -8 6 -9 19 -2 10 5 18 11 18 12 0 2 -8 3 -18 3 -10 0
-19 -6 -19 -13z"/>
<path d="M2330 2816 c0 -2 8 -10 18 -17 15 -13 16 -12 3 4 -13 16 -21 21 -21
13z"/>
<path d="M368 2793 c-4 -13 0 -19 13 -19 14 0 16 3 6 16 -6 8 -12 16 -13 18
-1 1 -4 -5 -6 -15z"/>
<path d="M3274 2769 c-4 -7 -3 -9 4 -5 5 3 12 0 15 -6 2 -7 7 -10 11 -7 4 3 0
12 -8 18 -11 9 -16 9 -22 0z"/>
<path d="M2343 2744 c3 -4 2 -16 -4 -28 -9 -19 -9 -19 4 -4 8 10 18 14 23 10
4 -4 2 1 -5 11 -7 9 -16 17 -19 17 -3 0 -2 -3 1 -6z"/>
<path d="M5500 2636 c0 -2 7 -7 16 -10 8 -3 12 -2 9 4 -6 10 -25 14 -25 6z"/>
<path d="M375 2610 c-3 -5 -3 -10 2 -10 4 0 1 -5 -7 -11 -12 -8 -12 -10 -1 -7
8 2 15 12 17 21 3 19 -2 22 -11 7z"/>
<path d="M3365 2600 c3 -5 11 -10 16 -10 6 0 7 5 4 10 -3 6 -11 10 -16 10 -6
0 -7 -4 -4 -10z"/>
<path d="M368 2553 c-4 -13 0 -19 13 -19 14 0 16 3 6 16 -6 8 -12 16 -13 18
-1 1 -4 -5 -6 -15z"/>
<path d="M2333 2527 c0 -8 6 -14 13 -14 7 0 10 6 7 14 -3 7 -8 13 -12 13 -4 0
-8 -6 -8 -13z"/>
<path d="M2335 2441 c-3 -5 0 -13 6 -17 7 -4 9 -3 5 4 -3 5 0 13 6 15 9 4 10
6 1 6 -6 1 -14 -3 -18 -8z"/>
<path d="M2332 2398 c2 -6 10 -13 16 -14 7 -1 8 0 2 3 -5 2 -8 9 -4 14 3 5 0
9 -6 9 -7 0 -10 -5 -8 -12z"/>
<path d="M2346 2356 c6 -15 4 -17 -6 -11 -9 6 -11 4 -5 -4 5 -9 10 -10 18 -2
8 8 7 14 -2 24 -10 10 -11 8 -5 -7z"/>
<path d="M5735 2220 c3 -5 8 -10 11 -10 2 0 4 5 4 10 0 6 -5 10 -11 10 -5 0
-7 -4 -4 -10z"/>
<path d="M5859 2006 c5 -11 14 -22 22 -24 12 -3 12 -2 0 6 -8 6 -11 16 -8 24
3 8 -1 15 -8 15 -9 0 -11 -7 -6 -21z"/>
<path d="M3725 1920 c3 -5 8 -10 11 -10 2 0 4 5 4 10 0 6 -5 10 -11 10 -5 0
-7 -4 -4 -10z"/>
<path d="M2335 1881 c-3 -5 0 -13 6 -17 7 -4 9 -3 5 4 -3 5 0 13 6 15 9 4 10
6 1 6 -6 1 -14 -3 -18 -8z"/>
<path d="M375 1810 c-3 -5 -3 -10 2 -10 4 0 1 -5 -7 -11 -12 -8 -12 -10 -1 -7
8 2 15 12 17 21 3 19 -2 22 -11 7z"/>
<path d="M368 1753 c-4 -13 0 -19 13 -19 14 0 16 3 6 16 -6 8 -12 16 -13 18
-1 1 -4 -5 -6 -15z"/>
<path d="M2333 1727 c0 -8 6 -14 13 -14 7 0 10 6 7 14 -3 7 -8 13 -12 13 -4 0
-8 -6 -8 -13z"/>
<path d="M2336 1642 c-3 -5 1 -9 9 -9 8 0 15 4 15 9 0 4 -4 8 -9 8 -6 0 -12
-4 -15 -8z"/>
<path d="M2335 1561 c-3 -5 0 -13 6 -17 7 -4 9 -3 5 4 -3 5 0 13 6 15 9 4 10
6 1 6 -6 1 -14 -3 -18 -8z"/>
<path d="M370 1525 c0 -8 4 -15 10 -15 5 0 7 7 4 15 -4 8 -8 15 -10 15 -2 0
-4 -7 -4 -15z"/>
<path d="M368 1433 c-4 -13 0 -19 13 -19 14 0 16 3 6 16 -6 8 -12 16 -13 18
-1 1 -4 -5 -6 -15z"/>
<path d="M2333 1407 c0 -8 6 -14 13 -14 7 0 10 6 7 14 -3 7 -8 13 -12 13 -4 0
-8 -6 -8 -13z"/>
<path d="M6226 1353 c-6 -14 -5 -15 5 -6 7 7 10 15 7 18 -3 3 -9 -2 -12 -12z"/>
<path d="M2336 1322 c-3 -5 1 -9 9 -9 8 0 15 4 15 9 0 4 -4 8 -9 8 -6 0 -12
-4 -15 -8z"/>
<path d="M4068 1283 c7 -3 16 -2 19 1 4 3 -2 6 -13 5 -11 0 -14 -3 -6 -6z"/>
<path d="M2335 1241 c-3 -5 0 -13 6 -17 7 -4 9 -3 5 4 -3 5 0 13 6 15 9 4 10
6 1 6 -6 1 -14 -3 -18 -8z"/>
<path d="M2333 1087 c0 -8 6 -14 13 -14 7 0 10 6 7 14 -3 7 -8 13 -12 13 -4 0
-8 -6 -8 -13z"/>
<path d="M6401 1051 c-10 -6 -9 -10 3 -14 8 -3 18 -2 21 3 8 13 -9 20 -24 11z"/>
<path d="M361 1004 c0 -11 3 -14 6 -6 3 7 2 16 -1 19 -3 4 -6 -2 -5 -13z"/>
<path d="M2336 1002 c-3 -5 1 -9 9 -9 8 0 15 4 15 9 0 4 -4 8 -9 8 -6 0 -12
-4 -15 -8z"/>
<path d="M370 968 c0 -9 7 -19 16 -22 15 -6 15 -4 3 11 -7 10 -15 20 -16 22
-2 2 -3 -3 -3 -11z"/>
<path d="M2335 921 c-3 -5 0 -13 6 -17 7 -4 9 -3 5 4 -3 5 0 13 6 15 9 4 10 6
1 6 -6 1 -14 -3 -18 -8z"/>
<path d="M368 873 c-4 -13 0 -19 13 -19 14 0 16 3 6 16 -6 8 -12 16 -13 18 -1
1 -4 -5 -6 -15z"/>
<path d="M4278 883 c7 -3 16 -2 19 1 4 3 -2 6 -13 5 -11 0 -14 -3 -6 -6z"/>
<path d="M6500 876 c0 -2 8 -10 18 -17 15 -13 16 -12 3 4 -13 16 -21 21 -21
13z"/>
<path d="M6540 798 c0 -4 5 -8 11 -8 5 0 8 -4 4 -9 -3 -5 -2 -12 3 -15 4 -2 8
6 8 18 0 12 -6 23 -13 23 -7 0 -13 -4 -13 -9z"/>
<path d="M2333 767 c0 -8 6 -14 13 -14 7 0 10 6 7 14 -3 7 -8 13 -12 13 -4 0
-8 -6 -8 -13z"/>
<path d="M6596 721 c-3 -5 1 -11 9 -14 9 -4 12 -1 8 9 -6 16 -10 17 -17 5z"/>
<path d="M375 690 c-3 -5 -3 -10 2 -10 4 0 1 -5 -7 -11 -12 -8 -12 -10 -1 -7
8 2 15 12 17 21 3 19 -2 22 -11 7z"/>
<path d="M2336 682 c-3 -5 1 -9 9 -9 8 0 15 4 15 9 0 4 -4 8 -9 8 -6 0 -12 -4
-15 -8z"/>
<path d="M368 633 c-4 -13 0 -19 13 -19 14 0 16 3 6 16 -6 8 -12 16 -13 18 -1
1 -4 -5 -6 -15z"/>
<path d="M2335 601 c-3 -5 0 -13 6 -17 7 -4 9 -3 5 4 -3 5 0 13 6 15 9 4 10 6
1 6 -6 1 -14 -3 -18 -8z"/>
<path d="M4444 568 c-4 -6 -3 -8 3 -5 6 4 13 0 16 -7 3 -8 2 -17 -4 -20 -5 -2
-4 -3 2 -2 17 3 20 34 3 40 -7 3 -16 0 -20 -6z"/>
<path d="M2333 447 c0 -8 6 -14 13 -14 7 0 10 6 7 14 -3 7 -8 13 -12 13 -4 0
-8 -6 -8 -13z"/>
<path d="M2335 340 c3 -5 8 -10 11 -10 2 0 4 5 4 10 0 6 -5 10 -11 10 -5 0 -7
-4 -4 -10z"/>
<path d="M1636 303 c-6 -14 -5 -15 5 -6 7 7 10 15 7 18 -3 3 -9 -2 -12 -12z"/>
<path d="M4799 303 c-13 -16 -12 -17 4 -4 16 13 21 21 13 21 -2 0 -10 -8 -17
-17z"/>
<path d="M6737 303 c3 -7 6 -13 8 -13 2 0 5 6 8 13 3 8 -1 14 -8 14 -7 0 -11
-6 -8 -14z"/>
</g>
</svg>
